<?xml version="1.0" encoding="utf-8" standalone="no"?>
<!DOCTYPE svg PUBLIC "-//W3C//DTD SVG 1.1//EN"
  "http://www.w3.org/Graphics/SVG/1.1/DTD/svg11.dtd">
<!-- Created with matplotlib (https://matplotlib.org/) -->
<svg height="360pt" version="1.1" viewBox="0 0 504 360" width="504pt" xmlns="http://www.w3.org/2000/svg" xmlns:xlink="http://www.w3.org/1999/xlink">
 <defs>
  <style type="text/css">
*{stroke-linecap:butt;stroke-linejoin:round;}
  </style>
 </defs>
 <g id="figure_1">
  <g id="patch_1">
   <path d="M 0 360 
L 504 360 
L 504 0 
L 0 0 
z
" style="fill:#ffffff;"/>
  </g>
  <g id="axes_1">
   <g id="patch_2">
    <path d="M 60.775 309.1 
L 493.2 309.1 
L 493.2 28.8 
L 60.775 28.8 
z
" style="fill:#ffffff;"/>
   </g>
   <g id="matplotlib.axis_1">
    <g id="xtick_1">
     <g id="line2d_1">
      <path clip-path="url(#pac5b9bb1e0)" d="M 80.430682 309.1 
L 80.430682 28.8 
" style="fill:none;stroke:#808080;stroke-linecap:square;stroke-width:0.8;"/>
     </g>
     <g id="line2d_2">
      <defs>
       <path d="M 0 0 
L 0 3.5 
" id="m9c9cea0c6e" style="stroke:#000000;stroke-width:0.8;"/>
      </defs>
      <g>
       <use style="stroke:#000000;stroke-width:0.8;" x="80.430682" xlink:href="#m9c9cea0c6e" y="309.1"/>
      </g>
     </g>
     <g id="text_1">
      <!-- 0.00 -->
      <defs>
       <path d="M 31.78125 66.40625 
Q 24.171875 66.40625 20.328125 58.90625 
Q 16.5 51.421875 16.5 36.375 
Q 16.5 21.390625 20.328125 13.890625 
Q 24.171875 6.390625 31.78125 6.390625 
Q 39.453125 6.390625 43.28125 13.890625 
Q 47.125 21.390625 47.125 36.375 
Q 47.125 51.421875 43.28125 58.90625 
Q 39.453125 66.40625 31.78125 66.40625 
z
M 31.78125 74.21875 
Q 44.046875 74.21875 50.515625 64.515625 
Q 56.984375 54.828125 56.984375 36.375 
Q 56.984375 17.96875 50.515625 8.265625 
Q 44.046875 -1.421875 31.78125 -1.421875 
Q 19.53125 -1.421875 13.0625 8.265625 
Q 6.59375 17.96875 6.59375 36.375 
Q 6.59375 54.828125 13.0625 64.515625 
Q 19.53125 74.21875 31.78125 74.21875 
z
" id="DejaVuSans-48"/>
       <path d="M 10.6875 12.40625 
L 21 12.40625 
L 21 0 
L 10.6875 0 
z
" id="DejaVuSans-46"/>
      </defs>
      <g transform="translate(67.071307 325.218125)scale(0.12 -0.12)">
       <use xlink:href="#DejaVuSans-48"/>
       <use x="63.623047" xlink:href="#DejaVuSans-46"/>
       <use x="95.410156" xlink:href="#DejaVuSans-48"/>
       <use x="159.033203" xlink:href="#DejaVuSans-48"/>
      </g>
     </g>
    </g>
    <g id="xtick_2">
     <g id="line2d_3">
      <path clip-path="url(#pac5b9bb1e0)" d="M 135.029798 309.1 
L 135.029798 28.8 
" style="fill:none;stroke:#808080;stroke-linecap:square;stroke-width:0.8;"/>
     </g>
     <g id="line2d_4">
      <g>
       <use style="stroke:#000000;stroke-width:0.8;" x="135.029798" xlink:href="#m9c9cea0c6e" y="309.1"/>
      </g>
     </g>
     <g id="text_2">
      <!-- 0.25 -->
      <defs>
       <path d="M 19.1875 8.296875 
L 53.609375 8.296875 
L 53.609375 0 
L 7.328125 0 
L 7.328125 8.296875 
Q 12.9375 14.109375 22.625 23.890625 
Q 32.328125 33.6875 34.8125 36.53125 
Q 39.546875 41.84375 41.421875 45.53125 
Q 43.3125 49.21875 43.3125 52.78125 
Q 43.3125 58.59375 39.234375 62.25 
Q 35.15625 65.921875 28.609375 65.921875 
Q 23.96875 65.921875 18.8125 64.3125 
Q 13.671875 62.703125 7.8125 59.421875 
L 7.8125 69.390625 
Q 13.765625 71.78125 18.9375 73 
Q 24.125 74.21875 28.421875 74.21875 
Q 39.75 74.21875 46.484375 68.546875 
Q 53.21875 62.890625 53.21875 53.421875 
Q 53.21875 48.921875 51.53125 44.890625 
Q 49.859375 40.875 45.40625 35.40625 
Q 44.1875 33.984375 37.640625 27.21875 
Q 31.109375 20.453125 19.1875 8.296875 
z
" id="DejaVuSans-50"/>
       <path d="M 10.796875 72.90625 
L 49.515625 72.90625 
L 49.515625 64.59375 
L 19.828125 64.59375 
L 19.828125 46.734375 
Q 21.96875 47.46875 24.109375 47.828125 
Q 26.265625 48.1875 28.421875 48.1875 
Q 40.625 48.1875 47.75 41.5 
Q 54.890625 34.8125 54.890625 23.390625 
Q 54.890625 11.625 47.5625 5.09375 
Q 40.234375 -1.421875 26.90625 -1.421875 
Q 22.3125 -1.421875 17.546875 -0.640625 
Q 12.796875 0.140625 7.71875 1.703125 
L 7.71875 11.625 
Q 12.109375 9.234375 16.796875 8.0625 
Q 21.484375 6.890625 26.703125 6.890625 
Q 35.15625 6.890625 40.078125 11.328125 
Q 45.015625 15.765625 45.015625 23.390625 
Q 45.015625 31 40.078125 35.4375 
Q 35.15625 39.890625 26.703125 39.890625 
Q 22.75 39.890625 18.8125 39.015625 
Q 14.890625 38.140625 10.796875 36.28125 
z
" id="DejaVuSans-53"/>
      </defs>
      <g transform="translate(121.670423 325.218125)scale(0.12 -0.12)">
       <use xlink:href="#DejaVuSans-48"/>
       <use x="63.623047" xlink:href="#DejaVuSans-46"/>
       <use x="95.410156" xlink:href="#DejaVuSans-50"/>
       <use x="159.033203" xlink:href="#DejaVuSans-53"/>
      </g>
     </g>
    </g>
    <g id="xtick_3">
     <g id="line2d_5">
      <path clip-path="url(#pac5b9bb1e0)" d="M 189.628914 309.1 
L 189.628914 28.8 
" style="fill:none;stroke:#808080;stroke-linecap:square;stroke-width:0.8;"/>
     </g>
     <g id="line2d_6">
      <g>
       <use style="stroke:#000000;stroke-width:0.8;" x="189.628914" xlink:href="#m9c9cea0c6e" y="309.1"/>
      </g>
     </g>
     <g id="text_3">
      <!-- 0.50 -->
      <g transform="translate(176.269539 325.218125)scale(0.12 -0.12)">
       <use xlink:href="#DejaVuSans-48"/>
       <use x="63.623047" xlink:href="#DejaVuSans-46"/>
       <use x="95.410156" xlink:href="#DejaVuSans-53"/>
       <use x="159.033203" xlink:href="#DejaVuSans-48"/>
      </g>
     </g>
    </g>
    <g id="xtick_4">
     <g id="line2d_7">
      <path clip-path="url(#pac5b9bb1e0)" d="M 244.22803 309.1 
L 244.22803 28.8 
" style="fill:none;stroke:#808080;stroke-linecap:square;stroke-width:0.8;"/>
     </g>
     <g id="line2d_8">
      <g>
       <use style="stroke:#000000;stroke-width:0.8;" x="244.22803" xlink:href="#m9c9cea0c6e" y="309.1"/>
      </g>
     </g>
     <g id="text_4">
      <!-- 0.75 -->
      <defs>
       <path d="M 8.203125 72.90625 
L 55.078125 72.90625 
L 55.078125 68.703125 
L 28.609375 0 
L 18.3125 0 
L 43.21875 64.59375 
L 8.203125 64.59375 
z
" id="DejaVuSans-55"/>
      </defs>
      <g transform="translate(230.868655 325.218125)scale(0.12 -0.12)">
       <use xlink:href="#DejaVuSans-48"/>
       <use x="63.623047" xlink:href="#DejaVuSans-46"/>
       <use x="95.410156" xlink:href="#DejaVuSans-55"/>
       <use x="159.033203" xlink:href="#DejaVuSans-53"/>
      </g>
     </g>
    </g>
    <g id="xtick_5">
     <g id="line2d_9">
      <path clip-path="url(#pac5b9bb1e0)" d="M 298.827146 309.1 
L 298.827146 28.8 
" style="fill:none;stroke:#808080;stroke-linecap:square;stroke-width:0.8;"/>
     </g>
     <g id="line2d_10">
      <g>
       <use style="stroke:#000000;stroke-width:0.8;" x="298.827146" xlink:href="#m9c9cea0c6e" y="309.1"/>
      </g>
     </g>
     <g id="text_5">
      <!-- 1.00 -->
      <defs>
       <path d="M 12.40625 8.296875 
L 28.515625 8.296875 
L 28.515625 63.921875 
L 10.984375 60.40625 
L 10.984375 69.390625 
L 28.421875 72.90625 
L 38.28125 72.90625 
L 38.28125 8.296875 
L 54.390625 8.296875 
L 54.390625 0 
L 12.40625 0 
z
" id="DejaVuSans-49"/>
      </defs>
      <g transform="translate(285.467771 325.218125)scale(0.12 -0.12)">
       <use xlink:href="#DejaVuSans-49"/>
       <use x="63.623047" xlink:href="#DejaVuSans-46"/>
       <use x="95.410156" xlink:href="#DejaVuSans-48"/>
       <use x="159.033203" xlink:href="#DejaVuSans-48"/>
      </g>
     </g>
    </g>
    <g id="xtick_6">
     <g id="line2d_11">
      <path clip-path="url(#pac5b9bb1e0)" d="M 353.426263 309.1 
L 353.426263 28.8 
" style="fill:none;stroke:#808080;stroke-linecap:square;stroke-width:0.8;"/>
     </g>
     <g id="line2d_12">
      <g>
       <use style="stroke:#000000;stroke-width:0.8;" x="353.426263" xlink:href="#m9c9cea0c6e" y="309.1"/>
      </g>
     </g>
     <g id="text_6">
      <!-- 1.25 -->
      <g transform="translate(340.066888 325.218125)scale(0.12 -0.12)">
       <use xlink:href="#DejaVuSans-49"/>
       <use x="63.623047" xlink:href="#DejaVuSans-46"/>
       <use x="95.410156" xlink:href="#DejaVuSans-50"/>
       <use x="159.033203" xlink:href="#DejaVuSans-53"/>
      </g>
     </g>
    </g>
    <g id="xtick_7">
     <g id="line2d_13">
      <path clip-path="url(#pac5b9bb1e0)" d="M 408.025379 309.1 
L 408.025379 28.8 
" style="fill:none;stroke:#808080;stroke-linecap:square;stroke-width:0.8;"/>
     </g>
     <g id="line2d_14">
      <g>
       <use style="stroke:#000000;stroke-width:0.8;" x="408.025379" xlink:href="#m9c9cea0c6e" y="309.1"/>
      </g>
     </g>
     <g id="text_7">
      <!-- 1.50 -->
      <g transform="translate(394.666004 325.218125)scale(0.12 -0.12)">
       <use xlink:href="#DejaVuSans-49"/>
       <use x="63.623047" xlink:href="#DejaVuSans-46"/>
       <use x="95.410156" xlink:href="#DejaVuSans-53"/>
       <use x="159.033203" xlink:href="#DejaVuSans-48"/>
      </g>
     </g>
    </g>
    <g id="xtick_8">
     <g id="line2d_15">
      <path clip-path="url(#pac5b9bb1e0)" d="M 462.624495 309.1 
L 462.624495 28.8 
" style="fill:none;stroke:#808080;stroke-linecap:square;stroke-width:0.8;"/>
     </g>
     <g id="line2d_16">
      <g>
       <use style="stroke:#000000;stroke-width:0.8;" x="462.624495" xlink:href="#m9c9cea0c6e" y="309.1"/>
      </g>
     </g>
     <g id="text_8">
      <!-- 1.75 -->
      <g transform="translate(449.26512 325.218125)scale(0.12 -0.12)">
       <use xlink:href="#DejaVuSans-49"/>
       <use x="63.623047" xlink:href="#DejaVuSans-46"/>
       <use x="95.410156" xlink:href="#DejaVuSans-55"/>
       <use x="159.033203" xlink:href="#DejaVuSans-53"/>
      </g>
     </g>
    </g>
    <g id="text_9">
     <!-- $V_{D}$ [V] -->
     <defs>
      <path d="M 20.609375 0 
L 7.8125 72.90625 
L 17.484375 72.90625 
L 28.078125 10.203125 
L 63.484375 72.90625 
L 74.21875 72.90625 
L 32.078125 0 
z
" id="DejaVuSans-Oblique-86"/>
      <path d="M 16.890625 72.90625 
L 38.09375 72.90625 
Q 54.984375 72.90625 63.59375 65.75 
Q 72.21875 58.59375 72.21875 44.484375 
Q 72.21875 35.15625 68.9375 26.53125 
Q 65.671875 17.921875 59.90625 12.015625 
Q 54.109375 5.953125 45.171875 2.96875 
Q 36.234375 0 24.03125 0 
L 2.6875 0 
z
M 25.203125 64.796875 
L 14.203125 8.109375 
L 27.09375 8.109375 
Q 43.65625 8.109375 52.734375 17.625 
Q 61.8125 27.15625 61.8125 44.484375 
Q 61.8125 54.984375 55.953125 59.890625 
Q 50.09375 64.796875 37.59375 64.796875 
z
" id="DejaVuSans-Oblique-68"/>
      <path id="DejaVuSans-32"/>
      <path d="M 8.59375 75.984375 
L 29.296875 75.984375 
L 29.296875 69 
L 17.578125 69 
L 17.578125 -6.203125 
L 29.296875 -6.203125 
L 29.296875 -13.1875 
L 8.59375 -13.1875 
z
" id="DejaVuSans-91"/>
      <path d="M 28.609375 0 
L 0.78125 72.90625 
L 11.078125 72.90625 
L 34.1875 11.53125 
L 57.328125 72.90625 
L 67.578125 72.90625 
L 39.796875 0 
z
" id="DejaVuSans-86"/>
      <path d="M 30.421875 75.984375 
L 30.421875 -13.1875 
L 9.71875 -13.1875 
L 9.71875 -6.203125 
L 21.390625 -6.203125 
L 21.390625 69 
L 9.71875 69 
L 9.71875 75.984375 
z
" id="DejaVuSans-93"/>
     </defs>
     <g transform="translate(258.7475 340.831875)scale(0.12 -0.12)">
      <use transform="translate(0 0.015625)" xlink:href="#DejaVuSans-Oblique-86"/>
      <use transform="translate(68.408203 -16.390625)scale(0.7)" xlink:href="#DejaVuSans-Oblique-68"/>
      <use transform="translate(125.043945 0.015625)" xlink:href="#DejaVuSans-32"/>
      <use transform="translate(156.831055 0.015625)" xlink:href="#DejaVuSans-91"/>
      <use transform="translate(195.844727 0.015625)" xlink:href="#DejaVuSans-86"/>
      <use transform="translate(264.25293 0.015625)" xlink:href="#DejaVuSans-93"/>
     </g>
    </g>
   </g>
   <g id="matplotlib.axis_2">
    <g id="ytick_1">
     <g id="line2d_17">
      <path clip-path="url(#pac5b9bb1e0)" d="M 60.775 296.359091 
L 493.2 296.359091 
" style="fill:none;stroke:#808080;stroke-linecap:square;stroke-width:0.8;"/>
     </g>
     <g id="line2d_18">
      <defs>
       <path d="M 0 0 
L -3.5 0 
" id="m784ca0f12b" style="stroke:#000000;stroke-width:0.8;"/>
      </defs>
      <g>
       <use style="stroke:#000000;stroke-width:0.8;" x="60.775" xlink:href="#m784ca0f12b" y="296.359091"/>
      </g>
     </g>
     <g id="text_10">
      <!-- 0 -->
      <g transform="translate(46.14 300.918153)scale(0.12 -0.12)">
       <use xlink:href="#DejaVuSans-48"/>
      </g>
     </g>
    </g>
    <g id="ytick_2">
     <g id="line2d_19">
      <path clip-path="url(#pac5b9bb1e0)" d="M 60.775 260.355792 
L 493.2 260.355792 
" style="fill:none;stroke:#808080;stroke-linecap:square;stroke-width:0.8;"/>
     </g>
     <g id="line2d_20">
      <g>
       <use style="stroke:#000000;stroke-width:0.8;" x="60.775" xlink:href="#m784ca0f12b" y="260.355792"/>
      </g>
     </g>
     <g id="text_11">
      <!-- 25 -->
      <g transform="translate(38.505 264.914855)scale(0.12 -0.12)">
       <use xlink:href="#DejaVuSans-50"/>
       <use x="63.623047" xlink:href="#DejaVuSans-53"/>
      </g>
     </g>
    </g>
    <g id="ytick_3">
     <g id="line2d_21">
      <path clip-path="url(#pac5b9bb1e0)" d="M 60.775 224.352494 
L 493.2 224.352494 
" style="fill:none;stroke:#808080;stroke-linecap:square;stroke-width:0.8;"/>
     </g>
     <g id="line2d_22">
      <g>
       <use style="stroke:#000000;stroke-width:0.8;" x="60.775" xlink:href="#m784ca0f12b" y="224.352494"/>
      </g>
     </g>
     <g id="text_12">
      <!-- 50 -->
      <g transform="translate(38.505 228.911557)scale(0.12 -0.12)">
       <use xlink:href="#DejaVuSans-53"/>
       <use x="63.623047" xlink:href="#DejaVuSans-48"/>
      </g>
     </g>
    </g>
    <g id="ytick_4">
     <g id="line2d_23">
      <path clip-path="url(#pac5b9bb1e0)" d="M 60.775 188.349196 
L 493.2 188.349196 
" style="fill:none;stroke:#808080;stroke-linecap:square;stroke-width:0.8;"/>
     </g>
     <g id="line2d_24">
      <g>
       <use style="stroke:#000000;stroke-width:0.8;" x="60.775" xlink:href="#m784ca0f12b" y="188.349196"/>
      </g>
     </g>
     <g id="text_13">
      <!-- 75 -->
      <g transform="translate(38.505 192.908258)scale(0.12 -0.12)">
       <use xlink:href="#DejaVuSans-55"/>
       <use x="63.623047" xlink:href="#DejaVuSans-53"/>
      </g>
     </g>
    </g>
    <g id="ytick_5">
     <g id="line2d_25">
      <path clip-path="url(#pac5b9bb1e0)" d="M 60.775 152.345897 
L 493.2 152.345897 
" style="fill:none;stroke:#808080;stroke-linecap:square;stroke-width:0.8;"/>
     </g>
     <g id="line2d_26">
      <g>
       <use style="stroke:#000000;stroke-width:0.8;" x="60.775" xlink:href="#m784ca0f12b" y="152.345897"/>
      </g>
     </g>
     <g id="text_14">
      <!-- 100 -->
      <g transform="translate(30.87 156.90496)scale(0.12 -0.12)">
       <use xlink:href="#DejaVuSans-49"/>
       <use x="63.623047" xlink:href="#DejaVuSans-48"/>
       <use x="127.246094" xlink:href="#DejaVuSans-48"/>
      </g>
     </g>
    </g>
    <g id="ytick_6">
     <g id="line2d_27">
      <path clip-path="url(#pac5b9bb1e0)" d="M 60.775 116.342599 
L 493.2 116.342599 
" style="fill:none;stroke:#808080;stroke-linecap:square;stroke-width:0.8;"/>
     </g>
     <g id="line2d_28">
      <g>
       <use style="stroke:#000000;stroke-width:0.8;" x="60.775" xlink:href="#m784ca0f12b" y="116.342599"/>
      </g>
     </g>
     <g id="text_15">
      <!-- 125 -->
      <g transform="translate(30.87 120.901661)scale(0.12 -0.12)">
       <use xlink:href="#DejaVuSans-49"/>
       <use x="63.623047" xlink:href="#DejaVuSans-50"/>
       <use x="127.246094" xlink:href="#DejaVuSans-53"/>
      </g>
     </g>
    </g>
    <g id="ytick_7">
     <g id="line2d_29">
      <path clip-path="url(#pac5b9bb1e0)" d="M 60.775 80.3393 
L 493.2 80.3393 
" style="fill:none;stroke:#808080;stroke-linecap:square;stroke-width:0.8;"/>
     </g>
     <g id="line2d_30">
      <g>
       <use style="stroke:#000000;stroke-width:0.8;" x="60.775" xlink:href="#m784ca0f12b" y="80.3393"/>
      </g>
     </g>
     <g id="text_16">
      <!-- 150 -->
      <g transform="translate(30.87 84.898363)scale(0.12 -0.12)">
       <use xlink:href="#DejaVuSans-49"/>
       <use x="63.623047" xlink:href="#DejaVuSans-53"/>
       <use x="127.246094" xlink:href="#DejaVuSans-48"/>
      </g>
     </g>
    </g>
    <g id="ytick_8">
     <g id="line2d_31">
      <path clip-path="url(#pac5b9bb1e0)" d="M 60.775 44.336002 
L 493.2 44.336002 
" style="fill:none;stroke:#808080;stroke-linecap:square;stroke-width:0.8;"/>
     </g>
     <g id="line2d_32">
      <g>
       <use style="stroke:#000000;stroke-width:0.8;" x="60.775" xlink:href="#m784ca0f12b" y="44.336002"/>
      </g>
     </g>
     <g id="text_17">
      <!-- 175 -->
      <g transform="translate(30.87 48.895064)scale(0.12 -0.12)">
       <use xlink:href="#DejaVuSans-49"/>
       <use x="63.623047" xlink:href="#DejaVuSans-55"/>
       <use x="127.246094" xlink:href="#DejaVuSans-53"/>
      </g>
     </g>
    </g>
    <g id="text_18">
     <!-- $I_{DS X1}$ [uA] -->
     <defs>
      <path d="M 16.890625 72.90625 
L 26.8125 72.90625 
L 12.59375 0 
L 2.6875 0 
z
" id="DejaVuSans-Oblique-73"/>
      <path d="M 60.296875 70.515625 
L 58.40625 60.890625 
Q 53.46875 63.53125 48.609375 64.875 
Q 43.75 66.21875 39.203125 66.21875 
Q 30.375 66.21875 25.140625 62.359375 
Q 19.921875 58.5 19.921875 52.09375 
Q 19.921875 48.578125 21.84375 46.703125 
Q 23.78125 44.828125 31.78125 42.671875 
L 37.703125 41.21875 
Q 47.703125 38.625 51.609375 34.640625 
Q 55.515625 30.671875 55.515625 23.484375 
Q 55.515625 12.453125 46.84375 5.515625 
Q 38.1875 -1.421875 24.03125 -1.421875 
Q 18.21875 -1.421875 12.359375 -0.265625 
Q 6.5 0.875 0.59375 3.21875 
L 2.59375 13.375 
Q 8.015625 10.015625 13.453125 8.296875 
Q 18.890625 6.59375 24.3125 6.59375 
Q 33.546875 6.59375 39.109375 10.6875 
Q 44.671875 14.796875 44.671875 21.390625 
Q 44.671875 25.78125 42.453125 28.046875 
Q 40.234375 30.328125 32.90625 32.171875 
L 27 33.6875 
Q 16.890625 36.328125 13.203125 39.765625 
Q 9.515625 43.21875 9.515625 49.421875 
Q 9.515625 60.296875 17.890625 67.25 
Q 26.265625 74.21875 39.703125 74.21875 
Q 44.921875 74.21875 50.046875 73.28125 
Q 55.171875 72.359375 60.296875 70.515625 
z
" id="DejaVuSans-Oblique-83"/>
      <path d="M 13.71875 72.90625 
L 23.6875 72.90625 
L 36.1875 46.578125 
L 58.796875 72.90625 
L 70.3125 72.90625 
L 40.28125 38.09375 
L 58.40625 0 
L 48.484375 0 
L 33.796875 30.71875 
L 7.171875 0 
L -4.296875 0 
L 29.78125 39.203125 
z
" id="DejaVuSans-Oblique-88"/>
      <path d="M 8.5 21.578125 
L 8.5 54.6875 
L 17.484375 54.6875 
L 17.484375 21.921875 
Q 17.484375 14.15625 20.5 10.265625 
Q 23.53125 6.390625 29.59375 6.390625 
Q 36.859375 6.390625 41.078125 11.03125 
Q 45.3125 15.671875 45.3125 23.6875 
L 45.3125 54.6875 
L 54.296875 54.6875 
L 54.296875 0 
L 45.3125 0 
L 45.3125 8.40625 
Q 42.046875 3.421875 37.71875 1 
Q 33.40625 -1.421875 27.6875 -1.421875 
Q 18.265625 -1.421875 13.375 4.4375 
Q 8.5 10.296875 8.5 21.578125 
z
M 31.109375 56 
z
" id="DejaVuSans-117"/>
      <path d="M 34.1875 63.1875 
L 20.796875 26.90625 
L 47.609375 26.90625 
z
M 28.609375 72.90625 
L 39.796875 72.90625 
L 67.578125 0 
L 57.328125 0 
L 50.6875 18.703125 
L 17.828125 18.703125 
L 11.1875 0 
L 0.78125 0 
z
" id="DejaVuSans-65"/>
     </defs>
     <g transform="translate(24.374375 196.85)rotate(-90)scale(0.12 -0.12)">
      <use transform="translate(0 0.015625)" xlink:href="#DejaVuSans-Oblique-73"/>
      <use transform="translate(29.492188 -16.390625)scale(0.7)" xlink:href="#DejaVuSans-Oblique-68"/>
      <use transform="translate(83.393555 -16.390625)scale(0.7)" xlink:href="#DejaVuSans-Oblique-83"/>
      <use transform="translate(127.827148 -16.390625)scale(0.7)" xlink:href="#DejaVuSans-Oblique-88"/>
      <use transform="translate(175.78125 -16.390625)scale(0.7)" xlink:href="#DejaVuSans-49"/>
      <use transform="translate(223.051758 0.015625)" xlink:href="#DejaVuSans-32"/>
      <use transform="translate(254.838867 0.015625)" xlink:href="#DejaVuSans-91"/>
      <use transform="translate(293.852539 0.015625)" xlink:href="#DejaVuSans-117"/>
      <use transform="translate(357.231445 0.015625)" xlink:href="#DejaVuSans-65"/>
      <use transform="translate(425.639648 0.015625)" xlink:href="#DejaVuSans-93"/>
     </g>
    </g>
   </g>
   <g id="line2d_33">
    <path clip-path="url(#pac5b9bb1e0)" d="M 80.430682 296.359091 
L 88.453409 292.629328 
L 96.476136 289.658652 
L 104.498864 287.510469 
L 112.521591 286.15401 
L 120.544318 285.427299 
L 128.567045 285.09011 
L 136.589773 284.936572 
L 144.6125 284.851101 
L 152.635227 284.786752 
L 160.657955 284.728258 
L 168.680682 284.671287 
L 176.703409 284.614699 
L 184.726136 284.558204 
L 192.748864 284.501733 
L 200.771591 284.445268 
L 208.794318 284.388804 
L 216.817045 284.33234 
L 224.839773 284.275877 
L 232.8625 284.219413 
L 240.885227 284.162949 
L 248.907955 284.106486 
L 256.930682 284.050022 
L 264.953409 283.993558 
L 272.976136 283.937095 
L 280.998864 283.880631 
L 289.021591 283.824168 
L 297.044318 283.767704 
L 305.067045 283.71124 
L 313.089773 283.654777 
L 321.1125 283.598313 
L 329.135227 283.541849 
L 337.157955 283.485386 
L 345.180682 283.428922 
L 353.203409 283.372459 
L 361.226136 283.315995 
L 369.248864 283.259531 
L 377.271591 283.203068 
L 385.294318 283.146604 
L 393.317045 283.090141 
L 401.339773 283.033677 
L 409.3625 282.977213 
L 417.385227 282.92075 
L 425.407955 282.864286 
L 433.430682 282.807822 
L 441.453409 282.751359 
L 449.476136 282.694895 
L 457.498864 282.638432 
L 465.521591 282.581968 
L 473.544318 282.525504 
" style="fill:none;stroke:#ff0000;stroke-linecap:square;stroke-width:2;"/>
   </g>
   <g id="line2d_34">
    <path clip-path="url(#pac5b9bb1e0)" d="M 80.430682 296.359091 
L 88.453409 287.335925 
L 96.476136 278.503626 
L 104.498864 269.895013 
L 112.521591 261.546064 
L 120.544318 253.496037 
L 128.567045 245.787531 
L 136.589773 238.466504 
L 144.6125 231.582238 
L 152.635227 225.187284 
L 160.657955 219.337355 
L 168.680682 214.09101 
L 176.703409 209.508459 
L 184.726136 205.647605 
L 192.748864 202.553148 
L 200.771591 200.232809 
L 208.794318 198.621723 
L 216.817045 197.562422 
L 224.839773 196.844974 
L 232.8625 196.29107 
L 240.885227 195.798798 
L 248.907955 195.325896 
L 256.930682 194.858408 
L 264.953409 194.392333 
L 272.976136 193.926615 
L 280.998864 193.460984 
L 289.021591 192.995375 
L 297.044318 192.529771 
L 305.067045 192.064168 
L 313.089773 191.598565 
L 321.1125 191.132963 
L 329.135227 190.667361 
L 337.157955 190.201758 
L 345.180682 189.736156 
L 353.203409 189.270554 
L 361.226136 188.804951 
L 369.248864 188.339349 
L 377.271591 187.873747 
L 385.294318 187.408144 
L 393.317045 186.942542 
L 401.339773 186.47694 
L 409.3625 186.011337 
L 417.385227 185.545735 
L 425.407955 185.080133 
L 433.430682 184.61453 
L 441.453409 184.148928 
L 449.476136 183.683326 
L 457.498864 183.217723 
L 465.521591 182.752121 
L 473.544318 182.286519 
" style="fill:none;stroke:#0000ff;stroke-linecap:square;stroke-width:2;"/>
   </g>
   <g id="line2d_35">
    <path clip-path="url(#pac5b9bb1e0)" d="M 80.430682 296.359091 
L 88.453409 285.032963 
L 96.476136 273.738751 
L 104.498864 262.491299 
L 112.521591 251.306606 
L 120.544318 240.201873 
L 128.567045 229.195559 
L 136.589773 218.307417 
L 144.6125 207.558527 
L 152.635227 196.971321 
L 160.657955 186.56958 
L 168.680682 176.378425 
L 176.703409 166.42428 
L 184.726136 156.734815 
L 192.748864 147.338863 
L 200.771591 138.266306 
L 208.794318 129.547946 
L 216.817045 121.215358 
L 224.839773 113.300733 
L 232.8625 105.836759 
L 240.885227 98.856546 
L 248.907955 92.393662 
L 256.930682 86.482279 
L 264.953409 81.157337 
L 272.976136 76.454238 
L 280.998864 72.40662 
L 289.021591 69.038927 
L 297.044318 66.348753 
L 305.067045 64.278413 
L 313.089773 62.695592 
L 321.1125 61.420974 
L 329.135227 60.297287 
L 337.157955 59.231654 
L 345.180682 58.184533 
L 353.203409 57.142631 
L 361.226136 56.102098 
L 369.248864 55.06191 
L 377.271591 54.021809 
L 385.294318 52.981728 
L 393.317045 51.941652 
L 401.339773 50.901577 
L 409.3625 49.861503 
L 417.385227 48.821429 
L 425.407955 47.781354 
L 433.430682 46.74128 
L 441.453409 45.701206 
L 449.476136 44.661132 
L 457.498864 43.621058 
L 465.521591 42.580983 
L 473.544318 41.540909 
" style="fill:none;stroke:#008000;stroke-linecap:square;stroke-width:2;"/>
   </g>
   <g id="patch_3">
    <path d="M 60.775 309.1 
L 60.775 28.8 
" style="fill:none;stroke:#000000;stroke-linecap:square;stroke-linejoin:miter;stroke-width:0.8;"/>
   </g>
   <g id="patch_4">
    <path d="M 493.2 309.1 
L 493.2 28.8 
" style="fill:none;stroke:#000000;stroke-linecap:square;stroke-linejoin:miter;stroke-width:0.8;"/>
   </g>
   <g id="patch_5">
    <path d="M 60.775 309.1 
L 493.2 309.1 
" style="fill:none;stroke:#000000;stroke-linecap:square;stroke-linejoin:miter;stroke-width:0.8;"/>
   </g>
   <g id="patch_6">
    <path d="M 60.775 28.8 
L 493.2 28.8 
" style="fill:none;stroke:#000000;stroke-linecap:square;stroke-linejoin:miter;stroke-width:0.8;"/>
   </g>
   <g id="text_19">
    <!-- $I_{ds}(V_{ds})$ -->
    <defs>
     <path d="M 41.796875 8.203125 
Q 38.1875 3.46875 33.25 1.015625 
Q 28.328125 -1.421875 22.3125 -1.421875 
Q 14.109375 -1.421875 9.34375 4.171875 
Q 4.59375 9.765625 4.59375 19.484375 
Q 4.59375 27.59375 7.46875 34.9375 
Q 10.359375 42.28125 15.828125 48.09375 
Q 19.4375 51.953125 23.96875 53.96875 
Q 28.515625 56 33.5 56 
Q 38.765625 56 42.796875 53.453125 
Q 46.828125 50.921875 49.03125 46.1875 
L 54.890625 75.984375 
L 63.921875 75.984375 
L 49.125 0 
L 40.09375 0 
z
M 13.921875 21.09375 
Q 13.921875 14.015625 17.109375 10.0625 
Q 20.3125 6.109375 25.984375 6.109375 
Q 30.171875 6.109375 33.765625 8.125 
Q 37.359375 10.15625 40.09375 14.109375 
Q 42.96875 18.21875 44.625 23.578125 
Q 46.296875 28.953125 46.296875 34.1875 
Q 46.296875 40.96875 43.09375 44.765625 
Q 39.890625 48.578125 34.28125 48.578125 
Q 30.03125 48.578125 26.359375 46.578125 
Q 22.703125 44.578125 20.125 40.828125 
Q 17.28125 36.765625 15.59375 31.390625 
Q 13.921875 26.03125 13.921875 21.09375 
z
" id="DejaVuSans-Oblique-100"/>
     <path d="M 50 53.078125 
L 48.296875 44.578125 
Q 44.734375 46.53125 40.765625 47.5 
Q 36.8125 48.484375 32.625 48.484375 
Q 25.53125 48.484375 21.453125 46.0625 
Q 17.390625 43.65625 17.390625 39.5 
Q 17.390625 34.671875 26.859375 32.078125 
Q 27.59375 31.890625 27.9375 31.78125 
L 30.8125 30.90625 
Q 39.796875 28.421875 42.796875 25.6875 
Q 45.796875 22.953125 45.796875 18.21875 
Q 45.796875 9.515625 38.890625 4.046875 
Q 31.984375 -1.421875 20.796875 -1.421875 
Q 16.453125 -1.421875 11.671875 -0.578125 
Q 6.890625 0.25 1.125 2 
L 2.875 11.28125 
Q 7.8125 8.734375 12.59375 7.421875 
Q 17.390625 6.109375 21.78125 6.109375 
Q 28.375 6.109375 32.5 8.9375 
Q 36.625 11.765625 36.625 16.109375 
Q 36.625 20.796875 25.78125 23.6875 
L 24.859375 23.921875 
L 21.78125 24.703125 
Q 14.9375 26.515625 11.765625 29.46875 
Q 8.59375 32.421875 8.59375 37.015625 
Q 8.59375 45.75 15.15625 50.875 
Q 21.734375 56 33.015625 56 
Q 37.453125 56 41.671875 55.265625 
Q 45.90625 54.546875 50 53.078125 
z
" id="DejaVuSans-Oblique-115"/>
     <path d="M 31 75.875 
Q 24.46875 64.65625 21.28125 53.65625 
Q 18.109375 42.671875 18.109375 31.390625 
Q 18.109375 20.125 21.3125 9.0625 
Q 24.515625 -2 31 -13.1875 
L 23.1875 -13.1875 
Q 15.875 -1.703125 12.234375 9.375 
Q 8.59375 20.453125 8.59375 31.390625 
Q 8.59375 42.28125 12.203125 53.3125 
Q 15.828125 64.359375 23.1875 75.875 
z
" id="DejaVuSans-40"/>
     <path d="M 8.015625 75.875 
L 15.828125 75.875 
Q 23.140625 64.359375 26.78125 53.3125 
Q 30.421875 42.28125 30.421875 31.390625 
Q 30.421875 20.453125 26.78125 9.375 
Q 23.140625 -1.703125 15.828125 -13.1875 
L 8.015625 -13.1875 
Q 14.5 -2 17.703125 9.0625 
Q 20.90625 20.125 20.90625 31.390625 
Q 20.90625 42.671875 17.703125 53.65625 
Q 14.5 64.65625 8.015625 75.875 
z
" id="DejaVuSans-41"/>
    </defs>
    <g transform="translate(256.3475 22.8)scale(0.12 -0.12)">
     <use transform="translate(0 0.125)" xlink:href="#DejaVuSans-Oblique-73"/>
     <use transform="translate(29.492188 -16.28125)scale(0.7)" xlink:href="#DejaVuSans-Oblique-100"/>
     <use transform="translate(73.925781 -16.28125)scale(0.7)" xlink:href="#DejaVuSans-Oblique-115"/>
     <use transform="translate(113.129883 0.125)" xlink:href="#DejaVuSans-40"/>
     <use transform="translate(152.143555 0.125)" xlink:href="#DejaVuSans-Oblique-86"/>
     <use transform="translate(220.551758 -16.28125)scale(0.7)" xlink:href="#DejaVuSans-Oblique-100"/>
     <use transform="translate(264.985352 -16.28125)scale(0.7)" xlink:href="#DejaVuSans-Oblique-115"/>
     <use transform="translate(304.189453 0.125)" xlink:href="#DejaVuSans-41"/>
    </g>
   </g>
   <g id="legend_1">
    <g id="patch_7">
     <path d="M 67.775 72.64125 
L 168.215 72.64125 
Q 170.215 72.64125 170.215 70.64125 
L 170.215 35.8 
Q 170.215 33.8 168.215 33.8 
L 67.775 33.8 
Q 65.775 33.8 65.775 35.8 
L 65.775 70.64125 
Q 65.775 72.64125 67.775 72.64125 
z
" style="fill:#ffffff;opacity:0.8;stroke:#cccccc;stroke-linejoin:miter;"/>
    </g>
    <g id="line2d_36">
     <path d="M 67.775 41.418125 
L 77.775 41.418125 
" style="fill:none;stroke:#ff0000;stroke-linecap:square;stroke-width:2;"/>
    </g>
    <g id="line2d_37"/>
    <g id="text_20">
     <!-- $V_{G}$ =  6.0e-01 -->
     <defs>
      <path d="M 54.59375 10.890625 
L 58.40625 29.984375 
L 42.1875 29.984375 
L 43.703125 38.09375 
L 69.578125 38.09375 
L 63.28125 6 
Q 56.78125 2.4375 49.109375 0.5 
Q 41.453125 -1.421875 33.6875 -1.421875 
Q 19.96875 -1.421875 12.234375 6.1875 
Q 4.5 13.8125 4.5 27.390625 
Q 4.5 38.671875 9.203125 48.84375 
Q 13.921875 59.03125 22.21875 65.828125 
Q 27.4375 70.0625 33.640625 72.140625 
Q 39.84375 74.21875 47.40625 74.21875 
Q 54.25 74.21875 60.515625 72.484375 
Q 66.796875 70.75 72.515625 67.28125 
L 70.515625 56.78125 
Q 66.109375 61.375 60.203125 63.796875 
Q 54.296875 66.21875 47.609375 66.21875 
Q 39.84375 66.21875 33.9375 63.25 
Q 28.03125 60.296875 23.390625 54.109375 
Q 19.4375 48.828125 17.15625 41.671875 
Q 14.890625 34.515625 14.890625 27.09375 
Q 14.890625 16.890625 20.109375 11.734375 
Q 25.34375 6.59375 35.6875 6.59375 
Q 40.875 6.59375 45.703125 7.6875 
Q 50.53125 8.796875 54.59375 10.890625 
z
" id="DejaVuSans-Oblique-71"/>
      <path d="M 10.59375 45.40625 
L 73.1875 45.40625 
L 73.1875 37.203125 
L 10.59375 37.203125 
z
M 10.59375 25.484375 
L 73.1875 25.484375 
L 73.1875 17.1875 
L 10.59375 17.1875 
z
" id="DejaVuSans-61"/>
      <path d="M 33.015625 40.375 
Q 26.375 40.375 22.484375 35.828125 
Q 18.609375 31.296875 18.609375 23.390625 
Q 18.609375 15.53125 22.484375 10.953125 
Q 26.375 6.390625 33.015625 6.390625 
Q 39.65625 6.390625 43.53125 10.953125 
Q 47.40625 15.53125 47.40625 23.390625 
Q 47.40625 31.296875 43.53125 35.828125 
Q 39.65625 40.375 33.015625 40.375 
z
M 52.59375 71.296875 
L 52.59375 62.3125 
Q 48.875 64.0625 45.09375 64.984375 
Q 41.3125 65.921875 37.59375 65.921875 
Q 27.828125 65.921875 22.671875 59.328125 
Q 17.53125 52.734375 16.796875 39.40625 
Q 19.671875 43.65625 24.015625 45.921875 
Q 28.375 48.1875 33.59375 48.1875 
Q 44.578125 48.1875 50.953125 41.515625 
Q 57.328125 34.859375 57.328125 23.390625 
Q 57.328125 12.15625 50.6875 5.359375 
Q 44.046875 -1.421875 33.015625 -1.421875 
Q 20.359375 -1.421875 13.671875 8.265625 
Q 6.984375 17.96875 6.984375 36.375 
Q 6.984375 53.65625 15.1875 63.9375 
Q 23.390625 74.21875 37.203125 74.21875 
Q 40.921875 74.21875 44.703125 73.484375 
Q 48.484375 72.75 52.59375 71.296875 
z
" id="DejaVuSans-54"/>
      <path d="M 56.203125 29.59375 
L 56.203125 25.203125 
L 14.890625 25.203125 
Q 15.484375 15.921875 20.484375 11.0625 
Q 25.484375 6.203125 34.421875 6.203125 
Q 39.59375 6.203125 44.453125 7.46875 
Q 49.3125 8.734375 54.109375 11.28125 
L 54.109375 2.78125 
Q 49.265625 0.734375 44.1875 -0.34375 
Q 39.109375 -1.421875 33.890625 -1.421875 
Q 20.796875 -1.421875 13.15625 6.1875 
Q 5.515625 13.8125 5.515625 26.8125 
Q 5.515625 40.234375 12.765625 48.109375 
Q 20.015625 56 32.328125 56 
Q 43.359375 56 49.78125 48.890625 
Q 56.203125 41.796875 56.203125 29.59375 
z
M 47.21875 32.234375 
Q 47.125 39.59375 43.09375 43.984375 
Q 39.0625 48.390625 32.421875 48.390625 
Q 24.90625 48.390625 20.390625 44.140625 
Q 15.875 39.890625 15.1875 32.171875 
z
" id="DejaVuSans-101"/>
      <path d="M 4.890625 31.390625 
L 31.203125 31.390625 
L 31.203125 23.390625 
L 4.890625 23.390625 
z
" id="DejaVuSans-45"/>
     </defs>
     <g transform="translate(79.775 44.918125)scale(0.12 -0.12)">
      <use transform="translate(0 0.78125)" xlink:href="#DejaVuSans-Oblique-86"/>
      <use transform="translate(68.408203 -15.625)scale(0.7)" xlink:href="#DejaVuSans-Oblique-71"/>
      <use transform="translate(125.385742 0.78125)" xlink:href="#DejaVuSans-32"/>
      <use transform="translate(157.172852 0.78125)" xlink:href="#DejaVuSans-61"/>
      <use transform="translate(240.961914 0.78125)" xlink:href="#DejaVuSans-32"/>
      <use transform="translate(272.749023 0.78125)" xlink:href="#DejaVuSans-32"/>
      <use transform="translate(304.536133 0.78125)" xlink:href="#DejaVuSans-54"/>
      <use transform="translate(368.15918 0.78125)" xlink:href="#DejaVuSans-46"/>
      <use transform="translate(399.946289 0.78125)" xlink:href="#DejaVuSans-48"/>
      <use transform="translate(463.569336 0.78125)" xlink:href="#DejaVuSans-101"/>
      <use transform="translate(525.092773 0.78125)" xlink:href="#DejaVuSans-45"/>
      <use transform="translate(561.176758 0.78125)" xlink:href="#DejaVuSans-48"/>
      <use transform="translate(624.799805 0.78125)" xlink:href="#DejaVuSans-49"/>
     </g>
    </g>
    <g id="line2d_38">
     <path d="M 67.775 53.031875 
L 77.775 53.031875 
" style="fill:none;stroke:#0000ff;stroke-linecap:square;stroke-width:2;"/>
    </g>
    <g id="line2d_39"/>
    <g id="text_21">
     <!-- $V_{G}$ =  1.2e+00 -->
     <defs>
      <path d="M 46 62.703125 
L 46 35.5 
L 73.1875 35.5 
L 73.1875 27.203125 
L 46 27.203125 
L 46 0 
L 37.796875 0 
L 37.796875 27.203125 
L 10.59375 27.203125 
L 10.59375 35.5 
L 37.796875 35.5 
L 37.796875 62.703125 
z
" id="DejaVuSans-43"/>
     </defs>
     <g transform="translate(79.775 56.531875)scale(0.12 -0.12)">
      <use transform="translate(0 0.78125)" xlink:href="#DejaVuSans-Oblique-86"/>
      <use transform="translate(68.408203 -15.625)scale(0.7)" xlink:href="#DejaVuSans-Oblique-71"/>
      <use transform="translate(125.385742 0.78125)" xlink:href="#DejaVuSans-32"/>
      <use transform="translate(157.172852 0.78125)" xlink:href="#DejaVuSans-61"/>
      <use transform="translate(240.961914 0.78125)" xlink:href="#DejaVuSans-32"/>
      <use transform="translate(272.749023 0.78125)" xlink:href="#DejaVuSans-32"/>
      <use transform="translate(304.536133 0.78125)" xlink:href="#DejaVuSans-49"/>
      <use transform="translate(368.15918 0.78125)" xlink:href="#DejaVuSans-46"/>
      <use transform="translate(399.868164 0.78125)" xlink:href="#DejaVuSans-50"/>
      <use transform="translate(463.491211 0.78125)" xlink:href="#DejaVuSans-101"/>
      <use transform="translate(525.014648 0.78125)" xlink:href="#DejaVuSans-43"/>
      <use transform="translate(608.803711 0.78125)" xlink:href="#DejaVuSans-48"/>
      <use transform="translate(672.426758 0.78125)" xlink:href="#DejaVuSans-48"/>
     </g>
    </g>
    <g id="line2d_40">
     <path d="M 67.775 64.645625 
L 77.775 64.645625 
" style="fill:none;stroke:#008000;stroke-linecap:square;stroke-width:2;"/>
    </g>
    <g id="line2d_41"/>
    <g id="text_22">
     <!-- $V_{G}$ =  1.8e+00 -->
     <defs>
      <path d="M 31.78125 34.625 
Q 24.75 34.625 20.71875 30.859375 
Q 16.703125 27.09375 16.703125 20.515625 
Q 16.703125 13.921875 20.71875 10.15625 
Q 24.75 6.390625 31.78125 6.390625 
Q 38.8125 6.390625 42.859375 10.171875 
Q 46.921875 13.96875 46.921875 20.515625 
Q 46.921875 27.09375 42.890625 30.859375 
Q 38.875 34.625 31.78125 34.625 
z
M 21.921875 38.8125 
Q 15.578125 40.375 12.03125 44.71875 
Q 8.5 49.078125 8.5 55.328125 
Q 8.5 64.0625 14.71875 69.140625 
Q 20.953125 74.21875 31.78125 74.21875 
Q 42.671875 74.21875 48.875 69.140625 
Q 55.078125 64.0625 55.078125 55.328125 
Q 55.078125 49.078125 51.53125 44.71875 
Q 48 40.375 41.703125 38.8125 
Q 48.828125 37.15625 52.796875 32.3125 
Q 56.78125 27.484375 56.78125 20.515625 
Q 56.78125 9.90625 50.3125 4.234375 
Q 43.84375 -1.421875 31.78125 -1.421875 
Q 19.734375 -1.421875 13.25 4.234375 
Q 6.78125 9.90625 6.78125 20.515625 
Q 6.78125 27.484375 10.78125 32.3125 
Q 14.796875 37.15625 21.921875 38.8125 
z
M 18.3125 54.390625 
Q 18.3125 48.734375 21.84375 45.5625 
Q 25.390625 42.390625 31.78125 42.390625 
Q 38.140625 42.390625 41.71875 45.5625 
Q 45.3125 48.734375 45.3125 54.390625 
Q 45.3125 60.0625 41.71875 63.234375 
Q 38.140625 66.40625 31.78125 66.40625 
Q 25.390625 66.40625 21.84375 63.234375 
Q 18.3125 60.0625 18.3125 54.390625 
z
" id="DejaVuSans-56"/>
     </defs>
     <g transform="translate(79.775 68.145625)scale(0.12 -0.12)">
      <use transform="translate(0 0.78125)" xlink:href="#DejaVuSans-Oblique-86"/>
      <use transform="translate(68.408203 -15.625)scale(0.7)" xlink:href="#DejaVuSans-Oblique-71"/>
      <use transform="translate(125.385742 0.78125)" xlink:href="#DejaVuSans-32"/>
      <use transform="translate(157.172852 0.78125)" xlink:href="#DejaVuSans-61"/>
      <use transform="translate(240.961914 0.78125)" xlink:href="#DejaVuSans-32"/>
      <use transform="translate(272.749023 0.78125)" xlink:href="#DejaVuSans-32"/>
      <use transform="translate(304.536133 0.78125)" xlink:href="#DejaVuSans-49"/>
      <use transform="translate(368.15918 0.78125)" xlink:href="#DejaVuSans-46"/>
      <use transform="translate(399.915039 0.78125)" xlink:href="#DejaVuSans-56"/>
      <use transform="translate(463.538086 0.78125)" xlink:href="#DejaVuSans-101"/>
      <use transform="translate(525.061523 0.78125)" xlink:href="#DejaVuSans-43"/>
      <use transform="translate(608.850586 0.78125)" xlink:href="#DejaVuSans-48"/>
      <use transform="translate(672.473633 0.78125)" xlink:href="#DejaVuSans-48"/>
     </g>
    </g>
   </g>
  </g>
 </g>
 <defs>
  <clipPath id="pac5b9bb1e0">
   <rect height="280.3" width="432.425" x="60.775" y="28.8"/>
  </clipPath>
 </defs>
</svg>
