<?xml version="1.0" encoding="utf-8" standalone="no"?>
<!DOCTYPE svg PUBLIC "-//W3C//DTD SVG 1.1//EN"
  "http://www.w3.org/Graphics/SVG/1.1/DTD/svg11.dtd">
<svg xmlns:xlink="http://www.w3.org/1999/xlink" width="504pt" height="360pt" viewBox="0 0 504 360" xmlns="http://www.w3.org/2000/svg" version="1.1">
 <metadata>
  <rdf:RDF xmlns:dc="http://purl.org/dc/elements/1.1/" xmlns:cc="http://creativecommons.org/ns#" xmlns:rdf="http://www.w3.org/1999/02/22-rdf-syntax-ns#">
   <cc:Work>
    <dc:type rdf:resource="http://purl.org/dc/dcmitype/StillImage"/>
    <dc:date>2024-10-07T19:30:47.193607</dc:date>
    <dc:format>image/svg+xml</dc:format>
    <dc:creator>
     <cc:Agent>
      <dc:title>Matplotlib v3.8.4, https://matplotlib.org/</dc:title>
     </cc:Agent>
    </dc:creator>
   </cc:Work>
  </rdf:RDF>
 </metadata>
 <defs>
  <style type="text/css">*{stroke-linejoin: round; stroke-linecap: butt}</style>
 </defs>
 <g id="figure_1">
  <g id="patch_1">
   <path d="M 0 360 
L 504 360 
L 504 0 
L 0 0 
z
" style="fill: #ffffff"/>
  </g>
  <g id="axes_1">
   <g id="patch_2">
    <path d="M 387.962812 180.72 
C 387.962812 162.865527 384.445871 145.184666 377.61326 128.689284 
C 370.780649 112.193902 360.765246 97.204792 348.140227 84.579773 
C 335.515208 71.954754 320.526098 61.939351 304.030716 55.10674 
C 287.535334 48.274129 269.854473 44.757188 252 44.757188 
C 234.145527 44.757188 216.464666 48.274129 199.969284 55.10674 
C 183.473902 61.939351 168.484792 71.954754 155.859773 84.579773 
C 143.234754 97.204792 133.219351 112.193902 126.38674 128.689284 
C 119.554129 145.184666 116.037188 162.865527 116.037188 180.72 
C 116.037188 198.574473 119.554129 216.255334 126.38674 232.750716 
C 133.219351 249.246098 143.234754 264.235208 155.859773 276.860227 
C 168.484792 289.485246 183.473902 299.500649 199.969284 306.33326 
C 216.464666 313.165871 234.145527 316.682813 252 316.682813 
C 269.854473 316.682813 287.535334 313.165871 304.030716 306.33326 
C 320.526098 299.500649 335.515208 289.485246 348.140227 276.860227 
C 360.765246 264.235208 370.780649 249.246098 377.61326 232.750716 
C 384.445871 216.255334 387.962812 198.574473 387.962812 180.72 
M 252 180.72 
C 252 180.72 252 180.72 252 180.72 
C 252 180.72 252 180.72 252 180.72 
C 252 180.72 252 180.72 252 180.72 
C 252 180.72 252 180.72 252 180.72 
C 252 180.72 252 180.72 252 180.72 
C 252 180.72 252 180.72 252 180.72 
C 252 180.72 252 180.72 252 180.72 
C 252 180.72 252 180.72 252 180.72 
C 252 180.72 252 180.72 252 180.72 
C 252 180.72 252 180.72 252 180.72 
C 252 180.72 252 180.72 252 180.72 
C 252 180.72 252 180.72 252 180.72 
C 252 180.72 252 180.72 252 180.72 
C 252 180.72 252 180.72 252 180.72 
C 252 180.72 252 180.72 252 180.72 
C 252 180.72 252 180.72 252 180.72 
z
" style="fill: #ffffff"/>
   </g>
   <g id="matplotlib.axis_1">
    <g id="xtick_1">
     <g id="line2d_1">
      <path d="M 252 180.72 
L 387.962812 180.72 
" clip-path="url(#pd9f391592c)" style="fill: none; stroke: #808080; stroke-width: 0.8; stroke-linecap: square"/>
     </g>
     <g id="text_1">
      <!-- 0° -->
      <g transform="translate(396.281562 183.479375) scale(0.1 -0.1)">
       <defs>
        <path id="DejaVuSans-30" d="M 2034 4250 
Q 1547 4250 1301 3770 
Q 1056 3291 1056 2328 
Q 1056 1369 1301 889 
Q 1547 409 2034 409 
Q 2525 409 2770 889 
Q 3016 1369 3016 2328 
Q 3016 3291 2770 3770 
Q 2525 4250 2034 4250 
z
M 2034 4750 
Q 2819 4750 3233 4129 
Q 3647 3509 3647 2328 
Q 3647 1150 3233 529 
Q 2819 -91 2034 -91 
Q 1250 -91 836 529 
Q 422 1150 422 2328 
Q 422 3509 836 4129 
Q 1250 4750 2034 4750 
z
" transform="scale(0.015625)"/>
        <path id="DejaVuSans-b0" d="M 1600 4347 
Q 1350 4347 1178 4173 
Q 1006 4000 1006 3750 
Q 1006 3503 1178 3333 
Q 1350 3163 1600 3163 
Q 1850 3163 2022 3333 
Q 2194 3503 2194 3750 
Q 2194 3997 2020 4172 
Q 1847 4347 1600 4347 
z
M 1600 4750 
Q 1800 4750 1984 4673 
Q 2169 4597 2303 4453 
Q 2447 4313 2519 4134 
Q 2591 3956 2591 3750 
Q 2591 3338 2302 3052 
Q 2013 2766 1594 2766 
Q 1172 2766 890 3047 
Q 609 3328 609 3750 
Q 609 4169 896 4459 
Q 1184 4750 1600 4750 
z
" transform="scale(0.015625)"/>
       </defs>
       <use xlink:href="#DejaVuSans-30"/>
       <use xlink:href="#DejaVuSans-b0" x="63.623047"/>
      </g>
     </g>
    </g>
    <g id="xtick_2">
     <g id="line2d_2">
      <path d="M 252 180.72 
L 348.140227 84.579773 
" clip-path="url(#pd9f391592c)" style="fill: none; stroke: #808080; stroke-width: 0.8; stroke-linecap: square"/>
     </g>
     <g id="text_2">
      <!-- 45° -->
      <g transform="translate(349.177222 77.439653) scale(0.1 -0.1)">
       <defs>
        <path id="DejaVuSans-34" d="M 2419 4116 
L 825 1625 
L 2419 1625 
L 2419 4116 
z
M 2253 4666 
L 3047 4666 
L 3047 1625 
L 3713 1625 
L 3713 1100 
L 3047 1100 
L 3047 0 
L 2419 0 
L 2419 1100 
L 313 1100 
L 313 1709 
L 2253 4666 
z
" transform="scale(0.015625)"/>
        <path id="DejaVuSans-35" d="M 691 4666 
L 3169 4666 
L 3169 4134 
L 1269 4134 
L 1269 2991 
Q 1406 3038 1543 3061 
Q 1681 3084 1819 3084 
Q 2600 3084 3056 2656 
Q 3513 2228 3513 1497 
Q 3513 744 3044 326 
Q 2575 -91 1722 -91 
Q 1428 -91 1123 -41 
Q 819 9 494 109 
L 494 744 
Q 775 591 1075 516 
Q 1375 441 1709 441 
Q 2250 441 2565 725 
Q 2881 1009 2881 1497 
Q 2881 1984 2565 2268 
Q 2250 2553 1709 2553 
Q 1456 2553 1204 2497 
Q 953 2441 691 2322 
L 691 4666 
z
" transform="scale(0.015625)"/>
       </defs>
       <use xlink:href="#DejaVuSans-34"/>
       <use xlink:href="#DejaVuSans-35" x="63.623047"/>
       <use xlink:href="#DejaVuSans-b0" x="127.246094"/>
      </g>
     </g>
    </g>
    <g id="xtick_3">
     <g id="line2d_3">
      <path d="M 252 180.72 
L 252 44.757188 
" clip-path="url(#pd9f391592c)" style="fill: none; stroke: #808080; stroke-width: 0.8; stroke-linecap: square"/>
     </g>
     <g id="text_3">
      <!-- 90° -->
      <g transform="translate(243.1375 33.516563) scale(0.1 -0.1)">
       <defs>
        <path id="DejaVuSans-39" d="M 703 97 
L 703 672 
Q 941 559 1184 500 
Q 1428 441 1663 441 
Q 2288 441 2617 861 
Q 2947 1281 2994 2138 
Q 2813 1869 2534 1725 
Q 2256 1581 1919 1581 
Q 1219 1581 811 2004 
Q 403 2428 403 3163 
Q 403 3881 828 4315 
Q 1253 4750 1959 4750 
Q 2769 4750 3195 4129 
Q 3622 3509 3622 2328 
Q 3622 1225 3098 567 
Q 2575 -91 1691 -91 
Q 1453 -91 1209 -44 
Q 966 3 703 97 
z
M 1959 2075 
Q 2384 2075 2632 2365 
Q 2881 2656 2881 3163 
Q 2881 3666 2632 3958 
Q 2384 4250 1959 4250 
Q 1534 4250 1286 3958 
Q 1038 3666 1038 3163 
Q 1038 2656 1286 2365 
Q 1534 2075 1959 2075 
z
" transform="scale(0.015625)"/>
       </defs>
       <use xlink:href="#DejaVuSans-39"/>
       <use xlink:href="#DejaVuSans-30" x="63.623047"/>
       <use xlink:href="#DejaVuSans-b0" x="127.246094"/>
      </g>
     </g>
    </g>
    <g id="xtick_4">
     <g id="line2d_4">
      <path d="M 252 180.72 
L 155.859773 84.579773 
" clip-path="url(#pd9f391592c)" style="fill: none; stroke: #808080; stroke-width: 0.8; stroke-linecap: square"/>
     </g>
     <g id="text_4">
      <!-- 135° -->
      <g transform="translate(133.916528 77.439653) scale(0.1 -0.1)">
       <defs>
        <path id="DejaVuSans-31" d="M 794 531 
L 1825 531 
L 1825 4091 
L 703 3866 
L 703 4441 
L 1819 4666 
L 2450 4666 
L 2450 531 
L 3481 531 
L 3481 0 
L 794 0 
L 794 531 
z
" transform="scale(0.015625)"/>
        <path id="DejaVuSans-33" d="M 2597 2516 
Q 3050 2419 3304 2112 
Q 3559 1806 3559 1356 
Q 3559 666 3084 287 
Q 2609 -91 1734 -91 
Q 1441 -91 1130 -33 
Q 819 25 488 141 
L 488 750 
Q 750 597 1062 519 
Q 1375 441 1716 441 
Q 2309 441 2620 675 
Q 2931 909 2931 1356 
Q 2931 1769 2642 2001 
Q 2353 2234 1838 2234 
L 1294 2234 
L 1294 2753 
L 1863 2753 
Q 2328 2753 2575 2939 
Q 2822 3125 2822 3475 
Q 2822 3834 2567 4026 
Q 2313 4219 1838 4219 
Q 1578 4219 1281 4162 
Q 984 4106 628 3988 
L 628 4550 
Q 988 4650 1302 4700 
Q 1616 4750 1894 4750 
Q 2613 4750 3031 4423 
Q 3450 4097 3450 3541 
Q 3450 3153 3228 2886 
Q 3006 2619 2597 2516 
z
" transform="scale(0.015625)"/>
       </defs>
       <use xlink:href="#DejaVuSans-31"/>
       <use xlink:href="#DejaVuSans-33" x="63.623047"/>
       <use xlink:href="#DejaVuSans-35" x="127.246094"/>
       <use xlink:href="#DejaVuSans-b0" x="190.869141"/>
      </g>
     </g>
    </g>
    <g id="xtick_5">
     <g id="line2d_5">
      <path d="M 252 180.72 
L 116.037188 180.72 
" clip-path="url(#pd9f391592c)" style="fill: none; stroke: #808080; stroke-width: 0.8; stroke-linecap: square"/>
     </g>
     <g id="text_5">
      <!-- 180° -->
      <g transform="translate(89.993438 183.479375) scale(0.1 -0.1)">
       <defs>
        <path id="DejaVuSans-38" d="M 2034 2216 
Q 1584 2216 1326 1975 
Q 1069 1734 1069 1313 
Q 1069 891 1326 650 
Q 1584 409 2034 409 
Q 2484 409 2743 651 
Q 3003 894 3003 1313 
Q 3003 1734 2745 1975 
Q 2488 2216 2034 2216 
z
M 1403 2484 
Q 997 2584 770 2862 
Q 544 3141 544 3541 
Q 544 4100 942 4425 
Q 1341 4750 2034 4750 
Q 2731 4750 3128 4425 
Q 3525 4100 3525 3541 
Q 3525 3141 3298 2862 
Q 3072 2584 2669 2484 
Q 3125 2378 3379 2068 
Q 3634 1759 3634 1313 
Q 3634 634 3220 271 
Q 2806 -91 2034 -91 
Q 1263 -91 848 271 
Q 434 634 434 1313 
Q 434 1759 690 2068 
Q 947 2378 1403 2484 
z
M 1172 3481 
Q 1172 3119 1398 2916 
Q 1625 2713 2034 2713 
Q 2441 2713 2670 2916 
Q 2900 3119 2900 3481 
Q 2900 3844 2670 4047 
Q 2441 4250 2034 4250 
Q 1625 4250 1398 4047 
Q 1172 3844 1172 3481 
z
" transform="scale(0.015625)"/>
       </defs>
       <use xlink:href="#DejaVuSans-31"/>
       <use xlink:href="#DejaVuSans-38" x="63.623047"/>
       <use xlink:href="#DejaVuSans-30" x="127.246094"/>
       <use xlink:href="#DejaVuSans-b0" x="190.869141"/>
      </g>
     </g>
    </g>
    <g id="xtick_6">
     <g id="line2d_6">
      <path d="M 252 180.72 
L 155.859773 276.860227 
" clip-path="url(#pd9f391592c)" style="fill: none; stroke: #808080; stroke-width: 0.8; stroke-linecap: square"/>
     </g>
     <g id="text_6">
      <!-- 225° -->
      <g transform="translate(133.916528 289.519097) scale(0.1 -0.1)">
       <defs>
        <path id="DejaVuSans-32" d="M 1228 531 
L 3431 531 
L 3431 0 
L 469 0 
L 469 531 
Q 828 903 1448 1529 
Q 2069 2156 2228 2338 
Q 2531 2678 2651 2914 
Q 2772 3150 2772 3378 
Q 2772 3750 2511 3984 
Q 2250 4219 1831 4219 
Q 1534 4219 1204 4116 
Q 875 4013 500 3803 
L 500 4441 
Q 881 4594 1212 4672 
Q 1544 4750 1819 4750 
Q 2544 4750 2975 4387 
Q 3406 4025 3406 3419 
Q 3406 3131 3298 2873 
Q 3191 2616 2906 2266 
Q 2828 2175 2409 1742 
Q 1991 1309 1228 531 
z
" transform="scale(0.015625)"/>
       </defs>
       <use xlink:href="#DejaVuSans-32"/>
       <use xlink:href="#DejaVuSans-32" x="63.623047"/>
       <use xlink:href="#DejaVuSans-35" x="127.246094"/>
       <use xlink:href="#DejaVuSans-b0" x="190.869141"/>
      </g>
     </g>
    </g>
    <g id="xtick_7">
     <g id="line2d_7">
      <path d="M 252 180.72 
L 252 316.682812 
" clip-path="url(#pd9f391592c)" style="fill: none; stroke: #808080; stroke-width: 0.8; stroke-linecap: square"/>
     </g>
     <g id="text_7">
      <!-- 270° -->
      <g transform="translate(239.95625 333.442187) scale(0.1 -0.1)">
       <defs>
        <path id="DejaVuSans-37" d="M 525 4666 
L 3525 4666 
L 3525 4397 
L 1831 0 
L 1172 0 
L 2766 4134 
L 525 4134 
L 525 4666 
z
" transform="scale(0.015625)"/>
       </defs>
       <use xlink:href="#DejaVuSans-32"/>
       <use xlink:href="#DejaVuSans-37" x="63.623047"/>
       <use xlink:href="#DejaVuSans-30" x="127.246094"/>
       <use xlink:href="#DejaVuSans-b0" x="190.869141"/>
      </g>
     </g>
    </g>
    <g id="xtick_8">
     <g id="line2d_8">
      <path d="M 252 180.72 
L 348.140227 276.860227 
" clip-path="url(#pd9f391592c)" style="fill: none; stroke: #808080; stroke-width: 0.8; stroke-linecap: square"/>
     </g>
     <g id="text_8">
      <!-- 315° -->
      <g transform="translate(345.995972 289.519097) scale(0.1 -0.1)">
       <use xlink:href="#DejaVuSans-33"/>
       <use xlink:href="#DejaVuSans-31" x="63.623047"/>
       <use xlink:href="#DejaVuSans-35" x="127.246094"/>
       <use xlink:href="#DejaVuSans-b0" x="190.869141"/>
      </g>
     </g>
    </g>
    <g id="text_9">
     <!-- frequency [Hz] -->
     <g transform="translate(215.048438 347.120313) scale(0.1 -0.1)">
      <defs>
       <path id="DejaVuSans-66" d="M 2375 4863 
L 2375 4384 
L 1825 4384 
Q 1516 4384 1395 4259 
Q 1275 4134 1275 3809 
L 1275 3500 
L 2222 3500 
L 2222 3053 
L 1275 3053 
L 1275 0 
L 697 0 
L 697 3053 
L 147 3053 
L 147 3500 
L 697 3500 
L 697 3744 
Q 697 4328 969 4595 
Q 1241 4863 1831 4863 
L 2375 4863 
z
" transform="scale(0.015625)"/>
       <path id="DejaVuSans-72" d="M 2631 2963 
Q 2534 3019 2420 3045 
Q 2306 3072 2169 3072 
Q 1681 3072 1420 2755 
Q 1159 2438 1159 1844 
L 1159 0 
L 581 0 
L 581 3500 
L 1159 3500 
L 1159 2956 
Q 1341 3275 1631 3429 
Q 1922 3584 2338 3584 
Q 2397 3584 2469 3576 
Q 2541 3569 2628 3553 
L 2631 2963 
z
" transform="scale(0.015625)"/>
       <path id="DejaVuSans-65" d="M 3597 1894 
L 3597 1613 
L 953 1613 
Q 991 1019 1311 708 
Q 1631 397 2203 397 
Q 2534 397 2845 478 
Q 3156 559 3463 722 
L 3463 178 
Q 3153 47 2828 -22 
Q 2503 -91 2169 -91 
Q 1331 -91 842 396 
Q 353 884 353 1716 
Q 353 2575 817 3079 
Q 1281 3584 2069 3584 
Q 2775 3584 3186 3129 
Q 3597 2675 3597 1894 
z
M 3022 2063 
Q 3016 2534 2758 2815 
Q 2500 3097 2075 3097 
Q 1594 3097 1305 2825 
Q 1016 2553 972 2059 
L 3022 2063 
z
" transform="scale(0.015625)"/>
       <path id="DejaVuSans-71" d="M 947 1747 
Q 947 1113 1208 752 
Q 1469 391 1925 391 
Q 2381 391 2643 752 
Q 2906 1113 2906 1747 
Q 2906 2381 2643 2742 
Q 2381 3103 1925 3103 
Q 1469 3103 1208 2742 
Q 947 2381 947 1747 
z
M 2906 525 
Q 2725 213 2448 61 
Q 2172 -91 1784 -91 
Q 1150 -91 751 415 
Q 353 922 353 1747 
Q 353 2572 751 3078 
Q 1150 3584 1784 3584 
Q 2172 3584 2448 3432 
Q 2725 3281 2906 2969 
L 2906 3500 
L 3481 3500 
L 3481 -1331 
L 2906 -1331 
L 2906 525 
z
" transform="scale(0.015625)"/>
       <path id="DejaVuSans-75" d="M 544 1381 
L 544 3500 
L 1119 3500 
L 1119 1403 
Q 1119 906 1312 657 
Q 1506 409 1894 409 
Q 2359 409 2629 706 
Q 2900 1003 2900 1516 
L 2900 3500 
L 3475 3500 
L 3475 0 
L 2900 0 
L 2900 538 
Q 2691 219 2414 64 
Q 2138 -91 1772 -91 
Q 1169 -91 856 284 
Q 544 659 544 1381 
z
M 1991 3584 
L 1991 3584 
z
" transform="scale(0.015625)"/>
       <path id="DejaVuSans-6e" d="M 3513 2113 
L 3513 0 
L 2938 0 
L 2938 2094 
Q 2938 2591 2744 2837 
Q 2550 3084 2163 3084 
Q 1697 3084 1428 2787 
Q 1159 2491 1159 1978 
L 1159 0 
L 581 0 
L 581 3500 
L 1159 3500 
L 1159 2956 
Q 1366 3272 1645 3428 
Q 1925 3584 2291 3584 
Q 2894 3584 3203 3211 
Q 3513 2838 3513 2113 
z
" transform="scale(0.015625)"/>
       <path id="DejaVuSans-63" d="M 3122 3366 
L 3122 2828 
Q 2878 2963 2633 3030 
Q 2388 3097 2138 3097 
Q 1578 3097 1268 2742 
Q 959 2388 959 1747 
Q 959 1106 1268 751 
Q 1578 397 2138 397 
Q 2388 397 2633 464 
Q 2878 531 3122 666 
L 3122 134 
Q 2881 22 2623 -34 
Q 2366 -91 2075 -91 
Q 1284 -91 818 406 
Q 353 903 353 1747 
Q 353 2603 823 3093 
Q 1294 3584 2113 3584 
Q 2378 3584 2631 3529 
Q 2884 3475 3122 3366 
z
" transform="scale(0.015625)"/>
       <path id="DejaVuSans-79" d="M 2059 -325 
Q 1816 -950 1584 -1140 
Q 1353 -1331 966 -1331 
L 506 -1331 
L 506 -850 
L 844 -850 
Q 1081 -850 1212 -737 
Q 1344 -625 1503 -206 
L 1606 56 
L 191 3500 
L 800 3500 
L 1894 763 
L 2988 3500 
L 3597 3500 
L 2059 -325 
z
" transform="scale(0.015625)"/>
       <path id="DejaVuSans-20" transform="scale(0.015625)"/>
       <path id="DejaVuSans-5b" d="M 550 4863 
L 1875 4863 
L 1875 4416 
L 1125 4416 
L 1125 -397 
L 1875 -397 
L 1875 -844 
L 550 -844 
L 550 4863 
z
" transform="scale(0.015625)"/>
       <path id="DejaVuSans-48" d="M 628 4666 
L 1259 4666 
L 1259 2753 
L 3553 2753 
L 3553 4666 
L 4184 4666 
L 4184 0 
L 3553 0 
L 3553 2222 
L 1259 2222 
L 1259 0 
L 628 0 
L 628 4666 
z
" transform="scale(0.015625)"/>
       <path id="DejaVuSans-7a" d="M 353 3500 
L 3084 3500 
L 3084 2975 
L 922 459 
L 3084 459 
L 3084 0 
L 275 0 
L 275 525 
L 2438 3041 
L 353 3041 
L 353 3500 
z
" transform="scale(0.015625)"/>
       <path id="DejaVuSans-5d" d="M 1947 4863 
L 1947 -844 
L 622 -844 
L 622 -397 
L 1369 -397 
L 1369 4416 
L 622 4416 
L 622 4863 
L 1947 4863 
z
" transform="scale(0.015625)"/>
      </defs>
      <use xlink:href="#DejaVuSans-66"/>
      <use xlink:href="#DejaVuSans-72" x="35.205078"/>
      <use xlink:href="#DejaVuSans-65" x="74.068359"/>
      <use xlink:href="#DejaVuSans-71" x="135.591797"/>
      <use xlink:href="#DejaVuSans-75" x="199.068359"/>
      <use xlink:href="#DejaVuSans-65" x="262.447266"/>
      <use xlink:href="#DejaVuSans-6e" x="323.970703"/>
      <use xlink:href="#DejaVuSans-63" x="387.349609"/>
      <use xlink:href="#DejaVuSans-79" x="442.330078"/>
      <use xlink:href="#DejaVuSans-20" x="501.509766"/>
      <use xlink:href="#DejaVuSans-5b" x="533.296875"/>
      <use xlink:href="#DejaVuSans-48" x="572.310547"/>
      <use xlink:href="#DejaVuSans-7a" x="647.505859"/>
      <use xlink:href="#DejaVuSans-5d" x="699.996094"/>
     </g>
    </g>
   </g>
   <g id="matplotlib.axis_2">
    <g id="ytick_1">
     <g id="line2d_9">
      <path d="M 277.911312 180.72 
C 277.911312 177.317358 277.241066 173.947802 275.938931 170.80417 
C 274.636796 167.660539 272.728096 164.803967 270.322065 162.397935 
C 267.916033 159.991904 265.059461 158.083204 261.91583 156.781069 
C 258.772198 155.478934 255.402642 154.808688 252 154.808688 
C 248.597358 154.808688 245.227802 155.478934 242.08417 156.781069 
C 238.940539 158.083204 236.083967 159.991904 233.677935 162.397935 
C 231.271904 164.803967 229.363204 167.660539 228.061069 170.80417 
C 226.758934 173.947802 226.088688 177.317358 226.088688 180.72 
C 226.088688 184.122642 226.758934 187.492198 228.061069 190.63583 
C 229.363204 193.779461 231.271904 196.636033 233.677935 199.042065 
C 236.083967 201.448096 238.940539 203.356796 242.08417 204.658931 
C 245.227802 205.961066 248.597358 206.631312 252 206.631312 
C 255.402642 206.631312 258.772198 205.961066 261.91583 204.658931 
C 265.059461 203.356796 267.916033 201.448096 270.322065 199.042065 
C 272.728096 196.636033 274.636796 193.779461 275.938931 190.63583 
C 277.241066 187.492198 277.911312 184.122642 277.911312 180.72 
" clip-path="url(#pd9f391592c)" style="fill: none; stroke: #808080; stroke-width: 0.8; stroke-linecap: square"/>
     </g>
     <g id="text_10">
      <!-- 0.2 -->
      <g transform="translate(275.938931 168.724483) scale(0.1 -0.1)">
       <defs>
        <path id="DejaVuSans-2e" d="M 684 794 
L 1344 794 
L 1344 0 
L 684 0 
L 684 794 
z
" transform="scale(0.015625)"/>
       </defs>
       <use xlink:href="#DejaVuSans-30"/>
       <use xlink:href="#DejaVuSans-2e" x="63.623047"/>
       <use xlink:href="#DejaVuSans-32" x="95.410156"/>
      </g>
     </g>
    </g>
    <g id="ytick_2">
     <g id="line2d_10">
      <path d="M 303.822624 180.72 
C 303.822624 173.914715 302.482132 167.175603 299.877862 160.88834 
C 297.273592 154.601077 293.456192 148.887934 288.644129 144.075871 
C 283.832066 139.263808 278.118923 135.446408 271.83166 132.842138 
C 265.544397 130.237868 258.805285 128.897376 252 128.897376 
C 245.194715 128.897376 238.455603 130.237868 232.16834 132.842138 
C 225.881077 135.446408 220.167934 139.263808 215.355871 144.075871 
C 210.543808 148.887934 206.726408 154.601077 204.122138 160.88834 
C 201.517868 167.175603 200.177376 173.914715 200.177376 180.72 
C 200.177376 187.525285 201.517868 194.264397 204.122138 200.55166 
C 206.726408 206.838923 210.543808 212.552066 215.355871 217.364129 
C 220.167934 222.176192 225.881077 225.993592 232.16834 228.597862 
C 238.455603 231.202132 245.194715 232.542624 252 232.542624 
C 258.805285 232.542624 265.544397 231.202132 271.83166 228.597862 
C 278.118923 225.993592 283.832066 222.176192 288.644129 217.364129 
C 293.456192 212.552066 297.273592 206.838923 299.877862 200.55166 
C 302.482132 194.264397 303.822624 187.525285 303.822624 180.72 
" clip-path="url(#pd9f391592c)" style="fill: none; stroke: #808080; stroke-width: 0.8; stroke-linecap: square"/>
     </g>
     <g id="text_11">
      <!-- 0.4 -->
      <g transform="translate(299.877862 158.808653) scale(0.1 -0.1)">
       <use xlink:href="#DejaVuSans-30"/>
       <use xlink:href="#DejaVuSans-2e" x="63.623047"/>
       <use xlink:href="#DejaVuSans-34" x="95.410156"/>
      </g>
     </g>
    </g>
    <g id="ytick_3">
     <g id="line2d_11">
      <path d="M 329.733936 180.72 
C 329.733936 170.512073 327.723197 160.403405 323.816793 150.97251 
C 319.910388 141.541616 314.184288 132.971901 306.966194 125.753806 
C 299.748099 118.535712 291.178384 112.809612 281.74749 108.903207 
C 272.316595 104.996803 262.207927 102.986064 252 102.986064 
C 241.792073 102.986064 231.683405 104.996803 222.25251 108.903207 
C 212.821616 112.809612 204.251901 118.535712 197.033806 125.753806 
C 189.815712 132.971901 184.089612 141.541616 180.183207 150.97251 
C 176.276803 160.403405 174.266064 170.512073 174.266064 180.72 
C 174.266064 190.927927 176.276803 201.036595 180.183207 210.46749 
C 184.089612 219.898384 189.815712 228.468099 197.033806 235.686194 
C 204.251901 242.904288 212.821616 248.630388 222.25251 252.536793 
C 231.683405 256.443197 241.792073 258.453936 252 258.453936 
C 262.207927 258.453936 272.316595 256.443197 281.74749 252.536793 
C 291.178384 248.630388 299.748099 242.904288 306.966194 235.686194 
C 314.184288 228.468099 319.910388 219.898384 323.816793 210.46749 
C 327.723197 201.036595 329.733936 190.927927 329.733936 180.72 
" clip-path="url(#pd9f391592c)" style="fill: none; stroke: #808080; stroke-width: 0.8; stroke-linecap: square"/>
     </g>
     <g id="text_12">
      <!-- 0.6 -->
      <g transform="translate(323.816793 148.892823) scale(0.1 -0.1)">
       <defs>
        <path id="DejaVuSans-36" d="M 2113 2584 
Q 1688 2584 1439 2293 
Q 1191 2003 1191 1497 
Q 1191 994 1439 701 
Q 1688 409 2113 409 
Q 2538 409 2786 701 
Q 3034 994 3034 1497 
Q 3034 2003 2786 2293 
Q 2538 2584 2113 2584 
z
M 3366 4563 
L 3366 3988 
Q 3128 4100 2886 4159 
Q 2644 4219 2406 4219 
Q 1781 4219 1451 3797 
Q 1122 3375 1075 2522 
Q 1259 2794 1537 2939 
Q 1816 3084 2150 3084 
Q 2853 3084 3261 2657 
Q 3669 2231 3669 1497 
Q 3669 778 3244 343 
Q 2819 -91 2113 -91 
Q 1303 -91 875 529 
Q 447 1150 447 2328 
Q 447 3434 972 4092 
Q 1497 4750 2381 4750 
Q 2619 4750 2861 4703 
Q 3103 4656 3366 4563 
z
" transform="scale(0.015625)"/>
       </defs>
       <use xlink:href="#DejaVuSans-30"/>
       <use xlink:href="#DejaVuSans-2e" x="63.623047"/>
       <use xlink:href="#DejaVuSans-36" x="95.410156"/>
      </g>
     </g>
    </g>
    <g id="ytick_4">
     <g id="line2d_12">
      <path d="M 355.645249 180.72 
C 355.645249 167.109431 352.964263 153.631207 347.755724 141.056681 
C 342.547184 128.482154 334.912384 117.055868 325.288258 107.431742 
C 315.664132 97.807616 304.237846 90.172816 291.663319 84.964276 
C 279.088793 79.755737 265.610569 77.074751 252 77.074751 
C 238.389431 77.074751 224.911207 79.755737 212.336681 84.964276 
C 199.762154 90.172816 188.335868 97.807616 178.711742 107.431742 
C 169.087616 117.055868 161.452816 128.482154 156.244276 141.056681 
C 151.035737 153.631207 148.354751 167.109431 148.354751 180.72 
C 148.354751 194.330569 151.035737 207.808793 156.244276 220.383319 
C 161.452816 232.957846 169.087616 244.384132 178.711742 254.008258 
C 188.335868 263.632384 199.762154 271.267184 212.336681 276.475724 
C 224.911207 281.684263 238.389431 284.365249 252 284.365249 
C 265.610569 284.365249 279.088793 281.684263 291.663319 276.475724 
C 304.237846 271.267184 315.664132 263.632384 325.288258 254.008258 
C 334.912384 244.384132 342.547184 232.957846 347.755724 220.383319 
C 352.964263 207.808793 355.645249 194.330569 355.645249 180.72 
" clip-path="url(#pd9f391592c)" style="fill: none; stroke: #808080; stroke-width: 0.8; stroke-linecap: square"/>
     </g>
     <g id="text_13">
      <!-- 0.8 -->
      <g transform="translate(347.755724 138.976993) scale(0.1 -0.1)">
       <use xlink:href="#DejaVuSans-30"/>
       <use xlink:href="#DejaVuSans-2e" x="63.623047"/>
       <use xlink:href="#DejaVuSans-38" x="95.410156"/>
      </g>
     </g>
    </g>
    <g id="ytick_5">
     <g id="line2d_13">
      <path d="M 381.556561 180.72 
C 381.556561 163.706788 378.205329 146.859009 371.694655 131.140851 
C 365.183981 115.422693 355.64048 101.139835 343.610323 89.109677 
C 331.580165 77.07952 317.297307 67.536019 301.579149 61.025345 
C 285.860991 54.514671 269.013212 51.163439 252 51.163439 
C 234.986788 51.163439 218.139009 54.514671 202.420851 61.025345 
C 186.702693 67.536019 172.419835 77.07952 160.389677 89.109677 
C 148.35952 101.139835 138.816019 115.422693 132.305345 131.140851 
C 125.794671 146.859009 122.443439 163.706788 122.443439 180.72 
C 122.443439 197.733212 125.794671 214.580991 132.305345 230.299149 
C 138.816019 246.017307 148.35952 260.300165 160.389677 272.330323 
C 172.419835 284.36048 186.702693 293.903981 202.420851 300.414655 
C 218.139009 306.925329 234.986788 310.276561 252 310.276561 
C 269.013212 310.276561 285.860991 306.925329 301.579149 300.414655 
C 317.297307 293.903981 331.580165 284.36048 343.610323 272.330323 
C 355.64048 260.300165 365.183981 246.017307 371.694655 230.299149 
C 378.205329 214.580991 381.556561 197.733212 381.556561 180.72 
" clip-path="url(#pd9f391592c)" style="fill: none; stroke: #808080; stroke-width: 0.8; stroke-linecap: square"/>
     </g>
     <g id="text_14">
      <!-- 1.0 -->
      <g transform="translate(371.694655 129.061163) scale(0.1 -0.1)">
       <use xlink:href="#DejaVuSans-31"/>
       <use xlink:href="#DejaVuSans-2e" x="63.623047"/>
       <use xlink:href="#DejaVuSans-30" x="95.410156"/>
      </g>
     </g>
    </g>
    <g id="text_15">
     <!-- magnitude [] -->
     <g transform="translate(109.9575 213.256719) rotate(-90) scale(0.1 -0.1)">
      <defs>
       <path id="DejaVuSans-6d" d="M 3328 2828 
Q 3544 3216 3844 3400 
Q 4144 3584 4550 3584 
Q 5097 3584 5394 3201 
Q 5691 2819 5691 2113 
L 5691 0 
L 5113 0 
L 5113 2094 
Q 5113 2597 4934 2840 
Q 4756 3084 4391 3084 
Q 3944 3084 3684 2787 
Q 3425 2491 3425 1978 
L 3425 0 
L 2847 0 
L 2847 2094 
Q 2847 2600 2669 2842 
Q 2491 3084 2119 3084 
Q 1678 3084 1418 2786 
Q 1159 2488 1159 1978 
L 1159 0 
L 581 0 
L 581 3500 
L 1159 3500 
L 1159 2956 
Q 1356 3278 1631 3431 
Q 1906 3584 2284 3584 
Q 2666 3584 2933 3390 
Q 3200 3197 3328 2828 
z
" transform="scale(0.015625)"/>
       <path id="DejaVuSans-61" d="M 2194 1759 
Q 1497 1759 1228 1600 
Q 959 1441 959 1056 
Q 959 750 1161 570 
Q 1363 391 1709 391 
Q 2188 391 2477 730 
Q 2766 1069 2766 1631 
L 2766 1759 
L 2194 1759 
z
M 3341 1997 
L 3341 0 
L 2766 0 
L 2766 531 
Q 2569 213 2275 61 
Q 1981 -91 1556 -91 
Q 1019 -91 701 211 
Q 384 513 384 1019 
Q 384 1609 779 1909 
Q 1175 2209 1959 2209 
L 2766 2209 
L 2766 2266 
Q 2766 2663 2505 2880 
Q 2244 3097 1772 3097 
Q 1472 3097 1187 3025 
Q 903 2953 641 2809 
L 641 3341 
Q 956 3463 1253 3523 
Q 1550 3584 1831 3584 
Q 2591 3584 2966 3190 
Q 3341 2797 3341 1997 
z
" transform="scale(0.015625)"/>
       <path id="DejaVuSans-67" d="M 2906 1791 
Q 2906 2416 2648 2759 
Q 2391 3103 1925 3103 
Q 1463 3103 1205 2759 
Q 947 2416 947 1791 
Q 947 1169 1205 825 
Q 1463 481 1925 481 
Q 2391 481 2648 825 
Q 2906 1169 2906 1791 
z
M 3481 434 
Q 3481 -459 3084 -895 
Q 2688 -1331 1869 -1331 
Q 1566 -1331 1297 -1286 
Q 1028 -1241 775 -1147 
L 775 -588 
Q 1028 -725 1275 -790 
Q 1522 -856 1778 -856 
Q 2344 -856 2625 -561 
Q 2906 -266 2906 331 
L 2906 616 
Q 2728 306 2450 153 
Q 2172 0 1784 0 
Q 1141 0 747 490 
Q 353 981 353 1791 
Q 353 2603 747 3093 
Q 1141 3584 1784 3584 
Q 2172 3584 2450 3431 
Q 2728 3278 2906 2969 
L 2906 3500 
L 3481 3500 
L 3481 434 
z
" transform="scale(0.015625)"/>
       <path id="DejaVuSans-69" d="M 603 3500 
L 1178 3500 
L 1178 0 
L 603 0 
L 603 3500 
z
M 603 4863 
L 1178 4863 
L 1178 4134 
L 603 4134 
L 603 4863 
z
" transform="scale(0.015625)"/>
       <path id="DejaVuSans-74" d="M 1172 4494 
L 1172 3500 
L 2356 3500 
L 2356 3053 
L 1172 3053 
L 1172 1153 
Q 1172 725 1289 603 
Q 1406 481 1766 481 
L 2356 481 
L 2356 0 
L 1766 0 
Q 1100 0 847 248 
Q 594 497 594 1153 
L 594 3053 
L 172 3053 
L 172 3500 
L 594 3500 
L 594 4494 
L 1172 4494 
z
" transform="scale(0.015625)"/>
       <path id="DejaVuSans-64" d="M 2906 2969 
L 2906 4863 
L 3481 4863 
L 3481 0 
L 2906 0 
L 2906 525 
Q 2725 213 2448 61 
Q 2172 -91 1784 -91 
Q 1150 -91 751 415 
Q 353 922 353 1747 
Q 353 2572 751 3078 
Q 1150 3584 1784 3584 
Q 2172 3584 2448 3432 
Q 2725 3281 2906 2969 
z
M 947 1747 
Q 947 1113 1208 752 
Q 1469 391 1925 391 
Q 2381 391 2643 752 
Q 2906 1113 2906 1747 
Q 2906 2381 2643 2742 
Q 2381 3103 1925 3103 
Q 1469 3103 1208 2742 
Q 947 2381 947 1747 
z
" transform="scale(0.015625)"/>
      </defs>
      <use xlink:href="#DejaVuSans-6d"/>
      <use xlink:href="#DejaVuSans-61" x="97.412109"/>
      <use xlink:href="#DejaVuSans-67" x="158.691406"/>
      <use xlink:href="#DejaVuSans-6e" x="222.167969"/>
      <use xlink:href="#DejaVuSans-69" x="285.546875"/>
      <use xlink:href="#DejaVuSans-74" x="313.330078"/>
      <use xlink:href="#DejaVuSans-75" x="352.539062"/>
      <use xlink:href="#DejaVuSans-64" x="415.917969"/>
      <use xlink:href="#DejaVuSans-65" x="479.394531"/>
      <use xlink:href="#DejaVuSans-20" x="540.917969"/>
      <use xlink:href="#DejaVuSans-5b" x="572.705078"/>
      <use xlink:href="#DejaVuSans-5d" x="611.71875"/>
     </g>
    </g>
   </g>
   <g id="line2d_14">
    <path d="M 381.543606 182.015436 
L 381.540957 182.14171 
L 381.537767 182.280287 
L 381.533924 182.432362 
L 381.529296 182.599248 
L 381.523722 182.782384 
L 381.517008 182.983346 
L 381.508922 183.203865 
L 381.499185 183.445834 
L 381.487457 183.711328 
L 381.473334 184.002621 
L 381.456327 184.322199 
L 381.435848 184.672784 
L 381.41119 185.057349 
L 381.381501 185.479143 
L 381.345759 185.941711 
L 381.302734 186.448915 
L 381.250948 187.004959 
L 381.188627 187.614408 
L 381.11364 188.282213 
L 381.023434 189.013721 
L 380.914948 189.814695 
L 380.784518 190.691318 
L 380.627764 191.650188 
L 380.43946 192.698307 
L 380.213377 193.843037 
L 379.942114 195.092045 
L 379.616897 196.453208 
L 379.227361 197.93447 
L 378.761308 199.543652 
L 378.204459 201.288182 
L 377.540195 203.174741 
L 376.74931 205.208797 
L 375.809818 207.394017 
L 374.696815 209.731532 
L 373.382482 212.219048 
L 371.836271 214.8498 
L 370.025365 217.611375 
L 367.915488 220.484452 
L 365.472173 223.441545 
L 362.662559 226.445907 
L 359.457744 229.450781 
L 355.835672 232.399259 
L 351.784412 235.225012 
L 347.305529 237.854164 
L 342.417139 240.20844 
L 337.1561 242.209593 
L 331.578772 243.784816 
L 325.759901 244.8726 
L 319.789392 245.428259 
L 313.767169 245.428259 
L 307.79666 244.8726 
L 301.977788 243.784816 
L 296.400461 242.209593 
L 291.139421 240.20844 
L 286.251031 237.854164 
L 281.772149 235.225012 
L 277.720889 232.399259 
L 274.098817 229.450781 
L 270.894001 226.445907 
L 268.084387 223.441545 
L 265.641073 220.484452 
L 263.531196 217.611375 
L 261.720289 214.8498 
L 260.174079 212.219048 
L 258.859746 209.731532 
L 257.746743 207.394017 
L 256.80725 205.208797 
L 256.016366 203.174741 
L 255.352101 201.288182 
L 254.795253 199.543652 
L 254.3292 197.93447 
L 253.939663 196.453208 
L 253.614446 195.092045 
L 253.343184 193.843037 
L 253.117101 192.698307 
L 252.928797 191.650188 
L 252.772043 190.691318 
L 252.641613 189.814695 
L 252.533126 189.013721 
L 252.44292 188.282213 
L 252.367934 187.614408 
L 252.305612 187.004959 
L 252.253827 186.448915 
L 252.210801 185.941711 
L 252.175059 185.479143 
L 252.145371 185.057349 
L 252.120712 184.672784 
L 252.100233 184.322199 
L 252.083226 184.002621 
L 252.069104 183.711328 
L 252.057376 183.445834 
L 252.047638 183.203865 
L 252.039553 182.983346 
L 252.032839 182.782384 
L 252.027265 182.599248 
L 252.022636 182.432362 
L 252.018794 182.280287 
L 252.015603 182.14171 
L 252.012954 182.015436 
" clip-path="url(#pd9f391592c)" style="fill: none; stroke: #0000ff; stroke-width: 2; stroke-linecap: square"/>
   </g>
   <g id="patch_3">
    <path d="M 387.962812 180.72 
C 387.962812 162.865527 384.445871 145.184666 377.61326 128.689284 
C 370.780649 112.193902 360.765246 97.204792 348.140227 84.579773 
C 335.515208 71.954754 320.526098 61.939351 304.030716 55.10674 
C 287.535334 48.274129 269.854473 44.757188 252 44.757188 
C 234.145527 44.757188 216.464666 48.274129 199.969284 55.10674 
C 183.473902 61.939351 168.484792 71.954754 155.859773 84.579773 
C 143.234754 97.204792 133.219351 112.193902 126.38674 128.689284 
C 119.554129 145.184666 116.037188 162.865527 116.037188 180.72 
C 116.037188 198.574473 119.554129 216.255334 126.38674 232.750716 
C 133.219351 249.246098 143.234754 264.235208 155.859773 276.860227 
C 168.484792 289.485246 183.473902 299.500649 199.969284 306.33326 
C 216.464666 313.165871 234.145527 316.682812 252 316.682812 
C 269.854473 316.682812 287.535334 313.165871 304.030716 306.33326 
C 320.526098 299.500649 335.515208 289.485246 348.140227 276.860227 
C 360.765246 264.235208 370.780649 249.246098 377.61326 232.750716 
C 384.445871 216.255334 387.962812 198.574473 387.962812 180.72 
" style="fill: none; stroke: #000000; stroke-width: 0.8; stroke-linejoin: miter; stroke-linecap: square"/>
   </g>
   <g id="text_16">
    <!-- Polar plot -->
    <g transform="translate(228.426562 19.918125) scale(0.1 -0.1)">
     <defs>
      <path id="DejaVuSans-50" d="M 1259 4147 
L 1259 2394 
L 2053 2394 
Q 2494 2394 2734 2622 
Q 2975 2850 2975 3272 
Q 2975 3691 2734 3919 
Q 2494 4147 2053 4147 
L 1259 4147 
z
M 628 4666 
L 2053 4666 
Q 2838 4666 3239 4311 
Q 3641 3956 3641 3272 
Q 3641 2581 3239 2228 
Q 2838 1875 2053 1875 
L 1259 1875 
L 1259 0 
L 628 0 
L 628 4666 
z
" transform="scale(0.015625)"/>
      <path id="DejaVuSans-6f" d="M 1959 3097 
Q 1497 3097 1228 2736 
Q 959 2375 959 1747 
Q 959 1119 1226 758 
Q 1494 397 1959 397 
Q 2419 397 2687 759 
Q 2956 1122 2956 1747 
Q 2956 2369 2687 2733 
Q 2419 3097 1959 3097 
z
M 1959 3584 
Q 2709 3584 3137 3096 
Q 3566 2609 3566 1747 
Q 3566 888 3137 398 
Q 2709 -91 1959 -91 
Q 1206 -91 779 398 
Q 353 888 353 1747 
Q 353 2609 779 3096 
Q 1206 3584 1959 3584 
z
" transform="scale(0.015625)"/>
      <path id="DejaVuSans-6c" d="M 603 4863 
L 1178 4863 
L 1178 0 
L 603 0 
L 603 4863 
z
" transform="scale(0.015625)"/>
      <path id="DejaVuSans-70" d="M 1159 525 
L 1159 -1331 
L 581 -1331 
L 581 3500 
L 1159 3500 
L 1159 2969 
Q 1341 3281 1617 3432 
Q 1894 3584 2278 3584 
Q 2916 3584 3314 3078 
Q 3713 2572 3713 1747 
Q 3713 922 3314 415 
Q 2916 -91 2278 -91 
Q 1894 -91 1617 61 
Q 1341 213 1159 525 
z
M 3116 1747 
Q 3116 2381 2855 2742 
Q 2594 3103 2138 3103 
Q 1681 3103 1420 2742 
Q 1159 2381 1159 1747 
Q 1159 1113 1420 752 
Q 1681 391 2138 391 
Q 2594 391 2855 752 
Q 3116 1113 3116 1747 
z
" transform="scale(0.015625)"/>
     </defs>
     <use xlink:href="#DejaVuSans-50"/>
     <use xlink:href="#DejaVuSans-6f" x="56.677734"/>
     <use xlink:href="#DejaVuSans-6c" x="117.859375"/>
     <use xlink:href="#DejaVuSans-61" x="145.642578"/>
     <use xlink:href="#DejaVuSans-72" x="206.921875"/>
     <use xlink:href="#DejaVuSans-20" x="248.035156"/>
     <use xlink:href="#DejaVuSans-70" x="279.822266"/>
     <use xlink:href="#DejaVuSans-6c" x="343.298828"/>
     <use xlink:href="#DejaVuSans-6f" x="371.082031"/>
     <use xlink:href="#DejaVuSans-74" x="432.263672"/>
    </g>
   </g>
   <g id="legend_1">
    <g id="patch_4">
     <path d="M 347.370625 63.435313 
L 380.962812 63.435313 
Q 382.962812 63.435313 382.962812 61.435313 
L 382.962812 51.757188 
Q 382.962812 49.757188 380.962812 49.757188 
L 347.370625 49.757188 
Q 345.370625 49.757188 345.370625 51.757188 
L 345.370625 61.435313 
Q 345.370625 63.435313 347.370625 63.435313 
z
" style="fill: #ffffff; opacity: 0.8; stroke: #cccccc; stroke-linejoin: miter"/>
    </g>
    <g id="line2d_15">
     <path d="M 347.370625 55.855625 
L 352.370625 55.855625 
L 357.370625 55.855625 
" style="fill: none; stroke: #0000ff; stroke-width: 2; stroke-linecap: square"/>
    </g>
    <g id="text_17">
     <!-- gain -->
     <g transform="translate(359.370625 59.355625) scale(0.1 -0.1)">
      <use xlink:href="#DejaVuSans-67"/>
      <use xlink:href="#DejaVuSans-61" x="63.476562"/>
      <use xlink:href="#DejaVuSans-69" x="124.755859"/>
      <use xlink:href="#DejaVuSans-6e" x="152.539062"/>
     </g>
    </g>
   </g>
  </g>
 </g>
 <defs>
  <clipPath id="pd9f391592c">
   <path d="M 387.962812 180.72 
C 387.962812 162.865527 384.445871 145.184666 377.61326 128.689284 
C 370.780649 112.193902 360.765246 97.204792 348.140227 84.579773 
C 335.515208 71.954754 320.526098 61.939351 304.030716 55.10674 
C 287.535334 48.274129 269.854473 44.757188 252 44.757188 
C 234.145527 44.757188 216.464666 48.274129 199.969284 55.10674 
C 183.473902 61.939351 168.484792 71.954754 155.859773 84.579773 
C 143.234754 97.204792 133.219351 112.193902 126.38674 128.689284 
C 119.554129 145.184666 116.037188 162.865527 116.037188 180.72 
C 116.037188 198.574473 119.554129 216.255334 126.38674 232.750716 
C 133.219351 249.246098 143.234754 264.235208 155.859773 276.860227 
C 168.484792 289.485246 183.473902 299.500649 199.969284 306.33326 
C 216.464666 313.165871 234.145527 316.682813 252 316.682813 
C 269.854473 316.682813 287.535334 313.165871 304.030716 306.33326 
C 320.526098 299.500649 335.515208 289.485246 348.140227 276.860227 
C 360.765246 264.235208 370.780649 249.246098 377.61326 232.750716 
C 384.445871 216.255334 387.962812 198.574473 387.962812 180.72 
M 252 180.72 
C 252 180.72 252 180.72 252 180.72 
C 252 180.72 252 180.72 252 180.72 
C 252 180.72 252 180.72 252 180.72 
C 252 180.72 252 180.72 252 180.72 
C 252 180.72 252 180.72 252 180.72 
C 252 180.72 252 180.72 252 180.72 
C 252 180.72 252 180.72 252 180.72 
C 252 180.72 252 180.72 252 180.72 
C 252 180.72 252 180.72 252 180.72 
C 252 180.72 252 180.72 252 180.72 
C 252 180.72 252 180.72 252 180.72 
C 252 180.72 252 180.72 252 180.72 
C 252 180.72 252 180.72 252 180.72 
C 252 180.72 252 180.72 252 180.72 
C 252 180.72 252 180.72 252 180.72 
C 252 180.72 252 180.72 252 180.72 
z
"/>
  </clipPath>
 </defs>
</svg>
