<?xml version="1.0" encoding="utf-8" standalone="no"?>
<!DOCTYPE svg PUBLIC "-//W3C//DTD SVG 1.1//EN"
  "http://www.w3.org/Graphics/SVG/1.1/DTD/svg11.dtd">
<svg xmlns:xlink="http://www.w3.org/1999/xlink" width="504pt" height="360pt" viewBox="0 0 504 360" xmlns="http://www.w3.org/2000/svg" version="1.1">
 <metadata>
  <rdf:RDF xmlns:dc="http://purl.org/dc/elements/1.1/" xmlns:cc="http://creativecommons.org/ns#" xmlns:rdf="http://www.w3.org/1999/02/22-rdf-syntax-ns#">
   <cc:Work>
    <dc:type rdf:resource="http://purl.org/dc/dcmitype/StillImage"/>
    <dc:date>2023-11-04T16:12:24.132658</dc:date>
    <dc:format>image/svg+xml</dc:format>
    <dc:creator>
     <cc:Agent>
      <dc:title>Matplotlib v3.7.3, https://matplotlib.org/</dc:title>
     </cc:Agent>
    </dc:creator>
   </cc:Work>
  </rdf:RDF>
 </metadata>
 <defs>
  <style type="text/css">*{stroke-linejoin: round; stroke-linecap: butt}</style>
 </defs>
 <g id="figure_1">
  <g id="patch_1">
   <path d="M 0 360 
L 504 360 
L 504 0 
L 0 0 
z
" style="fill: #ffffff"/>
  </g>
  <g id="axes_1">
   <g id="patch_2">
    <path d="M 396.9 181.8 
C 396.9 163.599215 393.314842 145.575409 386.349703 128.760076 
C 379.384564 111.944743 369.174899 96.664899 356.305 83.795 
C 343.435101 70.925101 328.155257 60.715436 311.339924 53.750297 
C 294.524591 46.785158 276.500785 43.2 258.3 43.2 
C 240.099215 43.2 222.075409 46.785158 205.260076 53.750297 
C 188.444743 60.715436 173.164899 70.925101 160.295 83.795 
C 147.425101 96.664899 137.215436 111.944743 130.250297 128.760076 
C 123.285158 145.575409 119.7 163.599215 119.7 181.8 
C 119.7 200.000785 123.285158 218.024591 130.250297 234.839924 
C 137.215436 251.655257 147.425101 266.935101 160.295 279.805 
C 173.164899 292.674899 188.444743 302.884564 205.260076 309.849703 
C 222.075409 316.814842 240.099215 320.4 258.3 320.4 
C 276.500785 320.4 294.524591 316.814842 311.339924 309.849703 
C 328.155257 302.884564 343.435101 292.674899 356.305 279.805 
C 369.174899 266.935101 379.384564 251.655257 386.349703 234.839924 
C 393.314842 218.024591 396.9 200.000785 396.9 181.8 
M 258.3 181.8 
C 258.3 181.8 258.3 181.8 258.3 181.8 
C 258.3 181.8 258.3 181.8 258.3 181.8 
C 258.3 181.8 258.3 181.8 258.3 181.8 
C 258.3 181.8 258.3 181.8 258.3 181.8 
C 258.3 181.8 258.3 181.8 258.3 181.8 
C 258.3 181.8 258.3 181.8 258.3 181.8 
C 258.3 181.8 258.3 181.8 258.3 181.8 
C 258.3 181.8 258.3 181.8 258.3 181.8 
C 258.3 181.8 258.3 181.8 258.3 181.8 
C 258.3 181.8 258.3 181.8 258.3 181.8 
C 258.3 181.8 258.3 181.8 258.3 181.8 
C 258.3 181.8 258.3 181.8 258.3 181.8 
C 258.3 181.8 258.3 181.8 258.3 181.8 
C 258.3 181.8 258.3 181.8 258.3 181.8 
C 258.3 181.8 258.3 181.8 258.3 181.8 
C 258.3 181.8 258.3 181.8 258.3 181.8 
z
" style="fill: #ffffff"/>
   </g>
   <g id="matplotlib.axis_1">
    <g id="xtick_1">
     <g id="line2d_1">
      <path d="M 258.3 181.8 
L 396.9 181.8 
" clip-path="url(#p19d64a6aac)" style="fill: none; stroke: #808080; stroke-width: 0.8; stroke-linecap: square"/>
     </g>
     <g id="text_1">
      <!-- 0° -->
      <g transform="translate(404.0825 185.11125) scale(0.12 -0.12)">
       <defs>
        <path id="DejaVuSans-30" d="M 2034 4250 
Q 1547 4250 1301 3770 
Q 1056 3291 1056 2328 
Q 1056 1369 1301 889 
Q 1547 409 2034 409 
Q 2525 409 2770 889 
Q 3016 1369 3016 2328 
Q 3016 3291 2770 3770 
Q 2525 4250 2034 4250 
z
M 2034 4750 
Q 2819 4750 3233 4129 
Q 3647 3509 3647 2328 
Q 3647 1150 3233 529 
Q 2819 -91 2034 -91 
Q 1250 -91 836 529 
Q 422 1150 422 2328 
Q 422 3509 836 4129 
Q 1250 4750 2034 4750 
z
" transform="scale(0.015625)"/>
        <path id="DejaVuSans-b0" d="M 1600 4347 
Q 1350 4347 1178 4173 
Q 1006 4000 1006 3750 
Q 1006 3503 1178 3333 
Q 1350 3163 1600 3163 
Q 1850 3163 2022 3333 
Q 2194 3503 2194 3750 
Q 2194 3997 2020 4172 
Q 1847 4347 1600 4347 
z
M 1600 4750 
Q 1800 4750 1984 4673 
Q 2169 4597 2303 4453 
Q 2447 4313 2519 4134 
Q 2591 3956 2591 3750 
Q 2591 3338 2302 3052 
Q 2013 2766 1594 2766 
Q 1172 2766 890 3047 
Q 609 3328 609 3750 
Q 609 4169 896 4459 
Q 1184 4750 1600 4750 
z
" transform="scale(0.015625)"/>
       </defs>
       <use xlink:href="#DejaVuSans-30"/>
       <use xlink:href="#DejaVuSans-b0" x="63.623047"/>
      </g>
     </g>
    </g>
    <g id="xtick_2">
     <g id="line2d_2">
      <path d="M 258.3 181.8 
L 356.305 83.795 
" clip-path="url(#p19d64a6aac)" style="fill: none; stroke: #808080; stroke-width: 0.8; stroke-linecap: square"/>
     </g>
     <g id="text_2">
      <!-- 45° -->
      <g transform="translate(355.569495 77.206755) scale(0.12 -0.12)">
       <defs>
        <path id="DejaVuSans-34" d="M 2419 4116 
L 825 1625 
L 2419 1625 
L 2419 4116 
z
M 2253 4666 
L 3047 4666 
L 3047 1625 
L 3713 1625 
L 3713 1100 
L 3047 1100 
L 3047 0 
L 2419 0 
L 2419 1100 
L 313 1100 
L 313 1709 
L 2253 4666 
z
" transform="scale(0.015625)"/>
        <path id="DejaVuSans-35" d="M 691 4666 
L 3169 4666 
L 3169 4134 
L 1269 4134 
L 1269 2991 
Q 1406 3038 1543 3061 
Q 1681 3084 1819 3084 
Q 2600 3084 3056 2656 
Q 3513 2228 3513 1497 
Q 3513 744 3044 326 
Q 2575 -91 1722 -91 
Q 1428 -91 1123 -41 
Q 819 9 494 109 
L 494 744 
Q 775 591 1075 516 
Q 1375 441 1709 441 
Q 2250 441 2565 725 
Q 2881 1009 2881 1497 
Q 2881 1984 2565 2268 
Q 2250 2553 1709 2553 
Q 1456 2553 1204 2497 
Q 953 2441 691 2322 
L 691 4666 
z
" transform="scale(0.015625)"/>
       </defs>
       <use xlink:href="#DejaVuSans-34"/>
       <use xlink:href="#DejaVuSans-35" x="63.623047"/>
       <use xlink:href="#DejaVuSans-b0" x="127.246094"/>
      </g>
     </g>
    </g>
    <g id="xtick_3">
     <g id="line2d_3">
      <path d="M 258.3 181.8 
L 258.3 43.2 
" clip-path="url(#p19d64a6aac)" style="fill: none; stroke: #808080; stroke-width: 0.8; stroke-linecap: square"/>
     </g>
     <g id="text_3">
      <!-- 90° -->
      <g transform="translate(247.665 32.51125) scale(0.12 -0.12)">
       <defs>
        <path id="DejaVuSans-39" d="M 703 97 
L 703 672 
Q 941 559 1184 500 
Q 1428 441 1663 441 
Q 2288 441 2617 861 
Q 2947 1281 2994 2138 
Q 2813 1869 2534 1725 
Q 2256 1581 1919 1581 
Q 1219 1581 811 2004 
Q 403 2428 403 3163 
Q 403 3881 828 4315 
Q 1253 4750 1959 4750 
Q 2769 4750 3195 4129 
Q 3622 3509 3622 2328 
Q 3622 1225 3098 567 
Q 2575 -91 1691 -91 
Q 1453 -91 1209 -44 
Q 966 3 703 97 
z
M 1959 2075 
Q 2384 2075 2632 2365 
Q 2881 2656 2881 3163 
Q 2881 3666 2632 3958 
Q 2384 4250 1959 4250 
Q 1534 4250 1286 3958 
Q 1038 3666 1038 3163 
Q 1038 2656 1286 2365 
Q 1534 2075 1959 2075 
z
" transform="scale(0.015625)"/>
       </defs>
       <use xlink:href="#DejaVuSans-39"/>
       <use xlink:href="#DejaVuSans-30" x="63.623047"/>
       <use xlink:href="#DejaVuSans-b0" x="127.246094"/>
      </g>
     </g>
    </g>
    <g id="xtick_4">
     <g id="line2d_4">
      <path d="M 258.3 181.8 
L 160.295 83.795 
" clip-path="url(#p19d64a6aac)" style="fill: none; stroke: #808080; stroke-width: 0.8; stroke-linecap: square"/>
     </g>
     <g id="text_4">
      <!-- 135° -->
      <g transform="translate(135.943005 77.206755) scale(0.12 -0.12)">
       <defs>
        <path id="DejaVuSans-31" d="M 794 531 
L 1825 531 
L 1825 4091 
L 703 3866 
L 703 4441 
L 1819 4666 
L 2450 4666 
L 2450 531 
L 3481 531 
L 3481 0 
L 794 0 
L 794 531 
z
" transform="scale(0.015625)"/>
        <path id="DejaVuSans-33" d="M 2597 2516 
Q 3050 2419 3304 2112 
Q 3559 1806 3559 1356 
Q 3559 666 3084 287 
Q 2609 -91 1734 -91 
Q 1441 -91 1130 -33 
Q 819 25 488 141 
L 488 750 
Q 750 597 1062 519 
Q 1375 441 1716 441 
Q 2309 441 2620 675 
Q 2931 909 2931 1356 
Q 2931 1769 2642 2001 
Q 2353 2234 1838 2234 
L 1294 2234 
L 1294 2753 
L 1863 2753 
Q 2328 2753 2575 2939 
Q 2822 3125 2822 3475 
Q 2822 3834 2567 4026 
Q 2313 4219 1838 4219 
Q 1578 4219 1281 4162 
Q 984 4106 628 3988 
L 628 4550 
Q 988 4650 1302 4700 
Q 1616 4750 1894 4750 
Q 2613 4750 3031 4423 
Q 3450 4097 3450 3541 
Q 3450 3153 3228 2886 
Q 3006 2619 2597 2516 
z
" transform="scale(0.015625)"/>
       </defs>
       <use xlink:href="#DejaVuSans-31"/>
       <use xlink:href="#DejaVuSans-33" x="63.623047"/>
       <use xlink:href="#DejaVuSans-35" x="127.246094"/>
       <use xlink:href="#DejaVuSans-b0" x="190.869141"/>
      </g>
     </g>
    </g>
    <g id="xtick_5">
     <g id="line2d_5">
      <path d="M 258.3 181.8 
L 119.7 181.8 
" clip-path="url(#p19d64a6aac)" style="fill: none; stroke: #808080; stroke-width: 0.8; stroke-linecap: square"/>
     </g>
     <g id="text_5">
      <!-- 180° -->
      <g transform="translate(91.2475 185.11125) scale(0.12 -0.12)">
       <defs>
        <path id="DejaVuSans-38" d="M 2034 2216 
Q 1584 2216 1326 1975 
Q 1069 1734 1069 1313 
Q 1069 891 1326 650 
Q 1584 409 2034 409 
Q 2484 409 2743 651 
Q 3003 894 3003 1313 
Q 3003 1734 2745 1975 
Q 2488 2216 2034 2216 
z
M 1403 2484 
Q 997 2584 770 2862 
Q 544 3141 544 3541 
Q 544 4100 942 4425 
Q 1341 4750 2034 4750 
Q 2731 4750 3128 4425 
Q 3525 4100 3525 3541 
Q 3525 3141 3298 2862 
Q 3072 2584 2669 2484 
Q 3125 2378 3379 2068 
Q 3634 1759 3634 1313 
Q 3634 634 3220 271 
Q 2806 -91 2034 -91 
Q 1263 -91 848 271 
Q 434 634 434 1313 
Q 434 1759 690 2068 
Q 947 2378 1403 2484 
z
M 1172 3481 
Q 1172 3119 1398 2916 
Q 1625 2713 2034 2713 
Q 2441 2713 2670 2916 
Q 2900 3119 2900 3481 
Q 2900 3844 2670 4047 
Q 2441 4250 2034 4250 
Q 1625 4250 1398 4047 
Q 1172 3844 1172 3481 
z
" transform="scale(0.015625)"/>
       </defs>
       <use xlink:href="#DejaVuSans-31"/>
       <use xlink:href="#DejaVuSans-38" x="63.623047"/>
       <use xlink:href="#DejaVuSans-30" x="127.246094"/>
       <use xlink:href="#DejaVuSans-b0" x="190.869141"/>
      </g>
     </g>
    </g>
    <g id="xtick_6">
     <g id="line2d_6">
      <path d="M 258.3 181.8 
L 160.295 279.805 
" clip-path="url(#p19d64a6aac)" style="fill: none; stroke: #808080; stroke-width: 0.8; stroke-linecap: square"/>
     </g>
     <g id="text_6">
      <!-- 225° -->
      <g transform="translate(135.943005 293.015745) scale(0.12 -0.12)">
       <defs>
        <path id="DejaVuSans-32" d="M 1228 531 
L 3431 531 
L 3431 0 
L 469 0 
L 469 531 
Q 828 903 1448 1529 
Q 2069 2156 2228 2338 
Q 2531 2678 2651 2914 
Q 2772 3150 2772 3378 
Q 2772 3750 2511 3984 
Q 2250 4219 1831 4219 
Q 1534 4219 1204 4116 
Q 875 4013 500 3803 
L 500 4441 
Q 881 4594 1212 4672 
Q 1544 4750 1819 4750 
Q 2544 4750 2975 4387 
Q 3406 4025 3406 3419 
Q 3406 3131 3298 2873 
Q 3191 2616 2906 2266 
Q 2828 2175 2409 1742 
Q 1991 1309 1228 531 
z
" transform="scale(0.015625)"/>
       </defs>
       <use xlink:href="#DejaVuSans-32"/>
       <use xlink:href="#DejaVuSans-32" x="63.623047"/>
       <use xlink:href="#DejaVuSans-35" x="127.246094"/>
       <use xlink:href="#DejaVuSans-b0" x="190.869141"/>
      </g>
     </g>
    </g>
    <g id="xtick_7">
     <g id="line2d_7">
      <path d="M 258.3 181.8 
L 258.3 320.4 
" clip-path="url(#p19d64a6aac)" style="fill: none; stroke: #808080; stroke-width: 0.8; stroke-linecap: square"/>
     </g>
     <g id="text_7">
      <!-- 270° -->
      <g transform="translate(243.8475 337.71125) scale(0.12 -0.12)">
       <defs>
        <path id="DejaVuSans-37" d="M 525 4666 
L 3525 4666 
L 3525 4397 
L 1831 0 
L 1172 0 
L 2766 4134 
L 525 4134 
L 525 4666 
z
" transform="scale(0.015625)"/>
       </defs>
       <use xlink:href="#DejaVuSans-32"/>
       <use xlink:href="#DejaVuSans-37" x="63.623047"/>
       <use xlink:href="#DejaVuSans-30" x="127.246094"/>
       <use xlink:href="#DejaVuSans-b0" x="190.869141"/>
      </g>
     </g>
    </g>
    <g id="xtick_8">
     <g id="line2d_8">
      <path d="M 258.3 181.8 
L 356.305 279.805 
" clip-path="url(#p19d64a6aac)" style="fill: none; stroke: #808080; stroke-width: 0.8; stroke-linecap: square"/>
     </g>
     <g id="text_8">
      <!-- 315° -->
      <g transform="translate(351.751995 293.015745) scale(0.12 -0.12)">
       <use xlink:href="#DejaVuSans-33"/>
       <use xlink:href="#DejaVuSans-31" x="63.623047"/>
       <use xlink:href="#DejaVuSans-35" x="127.246094"/>
       <use xlink:href="#DejaVuSans-b0" x="190.869141"/>
      </g>
     </g>
    </g>
    <g id="text_9">
     <!-- frequency [Hz] -->
     <g transform="translate(213.958125 353.325) scale(0.12 -0.12)">
      <defs>
       <path id="DejaVuSans-66" d="M 2375 4863 
L 2375 4384 
L 1825 4384 
Q 1516 4384 1395 4259 
Q 1275 4134 1275 3809 
L 1275 3500 
L 2222 3500 
L 2222 3053 
L 1275 3053 
L 1275 0 
L 697 0 
L 697 3053 
L 147 3053 
L 147 3500 
L 697 3500 
L 697 3744 
Q 697 4328 969 4595 
Q 1241 4863 1831 4863 
L 2375 4863 
z
" transform="scale(0.015625)"/>
       <path id="DejaVuSans-72" d="M 2631 2963 
Q 2534 3019 2420 3045 
Q 2306 3072 2169 3072 
Q 1681 3072 1420 2755 
Q 1159 2438 1159 1844 
L 1159 0 
L 581 0 
L 581 3500 
L 1159 3500 
L 1159 2956 
Q 1341 3275 1631 3429 
Q 1922 3584 2338 3584 
Q 2397 3584 2469 3576 
Q 2541 3569 2628 3553 
L 2631 2963 
z
" transform="scale(0.015625)"/>
       <path id="DejaVuSans-65" d="M 3597 1894 
L 3597 1613 
L 953 1613 
Q 991 1019 1311 708 
Q 1631 397 2203 397 
Q 2534 397 2845 478 
Q 3156 559 3463 722 
L 3463 178 
Q 3153 47 2828 -22 
Q 2503 -91 2169 -91 
Q 1331 -91 842 396 
Q 353 884 353 1716 
Q 353 2575 817 3079 
Q 1281 3584 2069 3584 
Q 2775 3584 3186 3129 
Q 3597 2675 3597 1894 
z
M 3022 2063 
Q 3016 2534 2758 2815 
Q 2500 3097 2075 3097 
Q 1594 3097 1305 2825 
Q 1016 2553 972 2059 
L 3022 2063 
z
" transform="scale(0.015625)"/>
       <path id="DejaVuSans-71" d="M 947 1747 
Q 947 1113 1208 752 
Q 1469 391 1925 391 
Q 2381 391 2643 752 
Q 2906 1113 2906 1747 
Q 2906 2381 2643 2742 
Q 2381 3103 1925 3103 
Q 1469 3103 1208 2742 
Q 947 2381 947 1747 
z
M 2906 525 
Q 2725 213 2448 61 
Q 2172 -91 1784 -91 
Q 1150 -91 751 415 
Q 353 922 353 1747 
Q 353 2572 751 3078 
Q 1150 3584 1784 3584 
Q 2172 3584 2448 3432 
Q 2725 3281 2906 2969 
L 2906 3500 
L 3481 3500 
L 3481 -1331 
L 2906 -1331 
L 2906 525 
z
" transform="scale(0.015625)"/>
       <path id="DejaVuSans-75" d="M 544 1381 
L 544 3500 
L 1119 3500 
L 1119 1403 
Q 1119 906 1312 657 
Q 1506 409 1894 409 
Q 2359 409 2629 706 
Q 2900 1003 2900 1516 
L 2900 3500 
L 3475 3500 
L 3475 0 
L 2900 0 
L 2900 538 
Q 2691 219 2414 64 
Q 2138 -91 1772 -91 
Q 1169 -91 856 284 
Q 544 659 544 1381 
z
M 1991 3584 
L 1991 3584 
z
" transform="scale(0.015625)"/>
       <path id="DejaVuSans-6e" d="M 3513 2113 
L 3513 0 
L 2938 0 
L 2938 2094 
Q 2938 2591 2744 2837 
Q 2550 3084 2163 3084 
Q 1697 3084 1428 2787 
Q 1159 2491 1159 1978 
L 1159 0 
L 581 0 
L 581 3500 
L 1159 3500 
L 1159 2956 
Q 1366 3272 1645 3428 
Q 1925 3584 2291 3584 
Q 2894 3584 3203 3211 
Q 3513 2838 3513 2113 
z
" transform="scale(0.015625)"/>
       <path id="DejaVuSans-63" d="M 3122 3366 
L 3122 2828 
Q 2878 2963 2633 3030 
Q 2388 3097 2138 3097 
Q 1578 3097 1268 2742 
Q 959 2388 959 1747 
Q 959 1106 1268 751 
Q 1578 397 2138 397 
Q 2388 397 2633 464 
Q 2878 531 3122 666 
L 3122 134 
Q 2881 22 2623 -34 
Q 2366 -91 2075 -91 
Q 1284 -91 818 406 
Q 353 903 353 1747 
Q 353 2603 823 3093 
Q 1294 3584 2113 3584 
Q 2378 3584 2631 3529 
Q 2884 3475 3122 3366 
z
" transform="scale(0.015625)"/>
       <path id="DejaVuSans-79" d="M 2059 -325 
Q 1816 -950 1584 -1140 
Q 1353 -1331 966 -1331 
L 506 -1331 
L 506 -850 
L 844 -850 
Q 1081 -850 1212 -737 
Q 1344 -625 1503 -206 
L 1606 56 
L 191 3500 
L 800 3500 
L 1894 763 
L 2988 3500 
L 3597 3500 
L 2059 -325 
z
" transform="scale(0.015625)"/>
       <path id="DejaVuSans-20" transform="scale(0.015625)"/>
       <path id="DejaVuSans-5b" d="M 550 4863 
L 1875 4863 
L 1875 4416 
L 1125 4416 
L 1125 -397 
L 1875 -397 
L 1875 -844 
L 550 -844 
L 550 4863 
z
" transform="scale(0.015625)"/>
       <path id="DejaVuSans-48" d="M 628 4666 
L 1259 4666 
L 1259 2753 
L 3553 2753 
L 3553 4666 
L 4184 4666 
L 4184 0 
L 3553 0 
L 3553 2222 
L 1259 2222 
L 1259 0 
L 628 0 
L 628 4666 
z
" transform="scale(0.015625)"/>
       <path id="DejaVuSans-7a" d="M 353 3500 
L 3084 3500 
L 3084 2975 
L 922 459 
L 3084 459 
L 3084 0 
L 275 0 
L 275 525 
L 2438 3041 
L 353 3041 
L 353 3500 
z
" transform="scale(0.015625)"/>
       <path id="DejaVuSans-5d" d="M 1947 4863 
L 1947 -844 
L 622 -844 
L 622 -397 
L 1369 -397 
L 1369 4416 
L 622 4416 
L 622 4863 
L 1947 4863 
z
" transform="scale(0.015625)"/>
      </defs>
      <use xlink:href="#DejaVuSans-66"/>
      <use xlink:href="#DejaVuSans-72" x="35.205078"/>
      <use xlink:href="#DejaVuSans-65" x="74.068359"/>
      <use xlink:href="#DejaVuSans-71" x="135.591797"/>
      <use xlink:href="#DejaVuSans-75" x="199.068359"/>
      <use xlink:href="#DejaVuSans-65" x="262.447266"/>
      <use xlink:href="#DejaVuSans-6e" x="323.970703"/>
      <use xlink:href="#DejaVuSans-63" x="387.349609"/>
      <use xlink:href="#DejaVuSans-79" x="442.330078"/>
      <use xlink:href="#DejaVuSans-20" x="501.509766"/>
      <use xlink:href="#DejaVuSans-5b" x="533.296875"/>
      <use xlink:href="#DejaVuSans-48" x="572.310547"/>
      <use xlink:href="#DejaVuSans-7a" x="647.505859"/>
      <use xlink:href="#DejaVuSans-5d" x="699.996094"/>
     </g>
    </g>
   </g>
   <g id="matplotlib.axis_2">
    <g id="ytick_1">
     <g id="line2d_9">
      <path d="M 284.713898 181.8 
C 284.713898 178.331359 284.030651 174.896446 282.70326 171.691839 
C 281.375868 168.487232 279.430146 165.575253 276.977446 163.122554 
C 274.524747 160.669854 271.612768 158.724132 268.408161 157.39674 
C 265.203554 156.069349 261.768641 155.386102 258.3 155.386102 
C 254.831359 155.386102 251.396446 156.069349 248.191839 157.39674 
C 244.987232 158.724132 242.075253 160.669854 239.622554 163.122554 
C 237.169854 165.575253 235.224132 168.487232 233.89674 171.691839 
C 232.569349 174.896446 231.886102 178.331359 231.886102 181.8 
C 231.886102 185.268641 232.569349 188.703554 233.89674 191.908161 
C 235.224132 195.112768 237.169854 198.024747 239.622554 200.477446 
C 242.075253 202.930146 244.987232 204.875868 248.191839 206.20326 
C 251.396446 207.530651 254.831359 208.213898 258.3 208.213898 
C 261.768641 208.213898 265.203554 207.530651 268.408161 206.20326 
C 271.612768 204.875868 274.524747 202.930146 276.977446 200.477446 
C 279.430146 198.024747 281.375868 195.112768 282.70326 191.908161 
C 284.030651 188.703554 284.713898 185.268641 284.713898 181.8 
" clip-path="url(#p19d64a6aac)" style="fill: none; stroke: #808080; stroke-width: 0.8; stroke-linecap: square"/>
     </g>
     <g id="text_10">
      <!-- 0.2 -->
      <g transform="translate(282.70326 169.196214) scale(0.12 -0.12)">
       <defs>
        <path id="DejaVuSans-2e" d="M 684 794 
L 1344 794 
L 1344 0 
L 684 0 
L 684 794 
z
" transform="scale(0.015625)"/>
       </defs>
       <use xlink:href="#DejaVuSans-30"/>
       <use xlink:href="#DejaVuSans-2e" x="63.623047"/>
       <use xlink:href="#DejaVuSans-32" x="95.410156"/>
      </g>
     </g>
    </g>
    <g id="ytick_2">
     <g id="line2d_10">
      <path d="M 311.127796 181.8 
C 311.127796 174.862717 309.761303 167.992891 307.106519 161.583678 
C 304.451736 155.174464 300.560292 149.350507 295.654893 144.445107 
C 290.749493 139.539708 284.925536 135.648264 278.516322 132.993481 
C 272.107109 130.338697 265.237283 128.972204 258.3 128.972204 
C 251.362717 128.972204 244.492891 130.338697 238.083678 132.993481 
C 231.674464 135.648264 225.850507 139.539708 220.945107 144.445107 
C 216.039708 149.350507 212.148264 155.174464 209.493481 161.583678 
C 206.838697 167.992891 205.472204 174.862717 205.472204 181.8 
C 205.472204 188.737283 206.838697 195.607109 209.493481 202.016322 
C 212.148264 208.425536 216.039708 214.249493 220.945107 219.154893 
C 225.850507 224.060292 231.674464 227.951736 238.083678 230.606519 
C 244.492891 233.261303 251.362717 234.627796 258.3 234.627796 
C 265.237283 234.627796 272.107109 233.261303 278.516322 230.606519 
C 284.925536 227.951736 290.749493 224.060292 295.654893 219.154893 
C 300.560292 214.249493 304.451736 208.425536 307.106519 202.016322 
C 309.761303 195.607109 311.127796 188.737283 311.127796 181.8 
" clip-path="url(#p19d64a6aac)" style="fill: none; stroke: #808080; stroke-width: 0.8; stroke-linecap: square"/>
     </g>
     <g id="text_11">
      <!-- 0.4 -->
      <g transform="translate(307.106519 159.088053) scale(0.12 -0.12)">
       <use xlink:href="#DejaVuSans-30"/>
       <use xlink:href="#DejaVuSans-2e" x="63.623047"/>
       <use xlink:href="#DejaVuSans-34" x="95.410156"/>
      </g>
     </g>
    </g>
    <g id="ytick_3">
     <g id="line2d_11">
      <path d="M 337.541694 181.8 
C 337.541694 171.394076 335.491954 161.089337 331.509779 151.475517 
C 327.527605 141.861696 321.690439 133.12576 314.332339 125.767661 
C 306.97424 118.409561 298.238304 112.572395 288.624483 108.590221 
C 279.010663 104.608046 268.705924 102.558306 258.3 102.558306 
C 247.894076 102.558306 237.589337 104.608046 227.975517 108.590221 
C 218.361696 112.572395 209.62576 118.409561 202.267661 125.767661 
C 194.909561 133.12576 189.072395 141.861696 185.090221 151.475517 
C 181.108046 161.089337 179.058306 171.394076 179.058306 181.8 
C 179.058306 192.205924 181.108046 202.510663 185.090221 212.124483 
C 189.072395 221.738304 194.909561 230.47424 202.267661 237.832339 
C 209.62576 245.190439 218.361696 251.027605 227.975517 255.009779 
C 237.589337 258.991954 247.894076 261.041694 258.3 261.041694 
C 268.705924 261.041694 279.010663 258.991954 288.624483 255.009779 
C 298.238304 251.027605 306.97424 245.190439 314.332339 237.832339 
C 321.690439 230.47424 327.527605 221.738304 331.509779 212.124483 
C 335.491954 202.510663 337.541694 192.205924 337.541694 181.8 
" clip-path="url(#p19d64a6aac)" style="fill: none; stroke: #808080; stroke-width: 0.8; stroke-linecap: square"/>
     </g>
     <g id="text_12">
      <!-- 0.6 -->
      <g transform="translate(331.509779 148.979892) scale(0.12 -0.12)">
       <defs>
        <path id="DejaVuSans-36" d="M 2113 2584 
Q 1688 2584 1439 2293 
Q 1191 2003 1191 1497 
Q 1191 994 1439 701 
Q 1688 409 2113 409 
Q 2538 409 2786 701 
Q 3034 994 3034 1497 
Q 3034 2003 2786 2293 
Q 2538 2584 2113 2584 
z
M 3366 4563 
L 3366 3988 
Q 3128 4100 2886 4159 
Q 2644 4219 2406 4219 
Q 1781 4219 1451 3797 
Q 1122 3375 1075 2522 
Q 1259 2794 1537 2939 
Q 1816 3084 2150 3084 
Q 2853 3084 3261 2657 
Q 3669 2231 3669 1497 
Q 3669 778 3244 343 
Q 2819 -91 2113 -91 
Q 1303 -91 875 529 
Q 447 1150 447 2328 
Q 447 3434 972 4092 
Q 1497 4750 2381 4750 
Q 2619 4750 2861 4703 
Q 3103 4656 3366 4563 
z
" transform="scale(0.015625)"/>
       </defs>
       <use xlink:href="#DejaVuSans-30"/>
       <use xlink:href="#DejaVuSans-2e" x="63.623047"/>
       <use xlink:href="#DejaVuSans-36" x="95.410156"/>
      </g>
     </g>
    </g>
    <g id="ytick_4">
     <g id="line2d_12">
      <path d="M 363.955592 181.8 
C 363.955592 167.925435 361.222605 154.185782 355.913039 141.367355 
C 350.603473 128.548929 342.820585 116.901014 333.009786 107.090214 
C 323.198986 97.279415 311.551071 89.496527 298.732645 84.186961 
C 285.914218 78.877395 272.174565 76.144408 258.3 76.144408 
C 244.425435 76.144408 230.685782 78.877395 217.867355 84.186961 
C 205.048929 89.496527 193.401014 97.279415 183.590214 107.090214 
C 173.779415 116.901014 165.996527 128.548929 160.686961 141.367355 
C 155.377395 154.185782 152.644408 167.925435 152.644408 181.8 
C 152.644408 195.674565 155.377395 209.414218 160.686961 222.232645 
C 165.996527 235.051071 173.779415 246.698986 183.590214 256.509786 
C 193.401014 266.320585 205.048929 274.103473 217.867355 279.413039 
C 230.685782 284.722605 244.425435 287.455592 258.3 287.455592 
C 272.174565 287.455592 285.914218 284.722605 298.732645 279.413039 
C 311.551071 274.103473 323.198986 266.320585 333.009786 256.509786 
C 342.820585 246.698986 350.603473 235.051071 355.913039 222.232645 
C 361.222605 209.414218 363.955592 195.674565 363.955592 181.8 
" clip-path="url(#p19d64a6aac)" style="fill: none; stroke: #808080; stroke-width: 0.8; stroke-linecap: square"/>
     </g>
     <g id="text_13">
      <!-- 0.8 -->
      <g transform="translate(355.913039 138.87173) scale(0.12 -0.12)">
       <use xlink:href="#DejaVuSans-30"/>
       <use xlink:href="#DejaVuSans-2e" x="63.623047"/>
       <use xlink:href="#DejaVuSans-38" x="95.410156"/>
      </g>
     </g>
    </g>
    <g id="ytick_5">
     <g id="line2d_13">
      <path d="M 390.36949 181.8 
C 390.36949 164.456793 386.953257 147.282228 380.316299 131.259194 
C 373.679341 115.236161 363.950731 100.676267 351.687232 88.412768 
C 339.423733 76.149269 324.863839 66.420659 308.840806 59.783701 
C 292.817772 53.146743 275.643207 49.73051 258.3 49.73051 
C 240.956793 49.73051 223.782228 53.146743 207.759194 59.783701 
C 191.736161 66.420659 177.176267 76.149269 164.912768 88.412768 
C 152.649269 100.676267 142.920659 115.236161 136.283701 131.259194 
C 129.646743 147.282228 126.23051 164.456793 126.23051 181.8 
C 126.23051 199.143207 129.646743 216.317772 136.283701 232.340806 
C 142.920659 248.363839 152.649269 262.923733 164.912768 275.187232 
C 177.176267 287.450731 191.736161 297.179341 207.759194 303.816299 
C 223.782228 310.453257 240.956793 313.86949 258.3 313.86949 
C 275.643207 313.86949 292.817772 310.453257 308.840806 303.816299 
C 324.863839 297.179341 339.423733 287.450731 351.687232 275.187232 
C 363.950731 262.923733 373.679341 248.363839 380.316299 232.340806 
C 386.953257 216.317772 390.36949 199.143207 390.36949 181.8 
" clip-path="url(#p19d64a6aac)" style="fill: none; stroke: #808080; stroke-width: 0.8; stroke-linecap: square"/>
     </g>
     <g id="text_14">
      <!-- 1.0 -->
      <g transform="translate(380.316299 128.763569) scale(0.12 -0.12)">
       <use xlink:href="#DejaVuSans-31"/>
       <use xlink:href="#DejaVuSans-2e" x="63.623047"/>
       <use xlink:href="#DejaVuSans-30" x="95.410156"/>
      </g>
     </g>
    </g>
    <g id="text_15">
     <!-- magnitude [] -->
     <g transform="translate(113.204375 220.844062) rotate(-90) scale(0.12 -0.12)">
      <defs>
       <path id="DejaVuSans-6d" d="M 3328 2828 
Q 3544 3216 3844 3400 
Q 4144 3584 4550 3584 
Q 5097 3584 5394 3201 
Q 5691 2819 5691 2113 
L 5691 0 
L 5113 0 
L 5113 2094 
Q 5113 2597 4934 2840 
Q 4756 3084 4391 3084 
Q 3944 3084 3684 2787 
Q 3425 2491 3425 1978 
L 3425 0 
L 2847 0 
L 2847 2094 
Q 2847 2600 2669 2842 
Q 2491 3084 2119 3084 
Q 1678 3084 1418 2786 
Q 1159 2488 1159 1978 
L 1159 0 
L 581 0 
L 581 3500 
L 1159 3500 
L 1159 2956 
Q 1356 3278 1631 3431 
Q 1906 3584 2284 3584 
Q 2666 3584 2933 3390 
Q 3200 3197 3328 2828 
z
" transform="scale(0.015625)"/>
       <path id="DejaVuSans-61" d="M 2194 1759 
Q 1497 1759 1228 1600 
Q 959 1441 959 1056 
Q 959 750 1161 570 
Q 1363 391 1709 391 
Q 2188 391 2477 730 
Q 2766 1069 2766 1631 
L 2766 1759 
L 2194 1759 
z
M 3341 1997 
L 3341 0 
L 2766 0 
L 2766 531 
Q 2569 213 2275 61 
Q 1981 -91 1556 -91 
Q 1019 -91 701 211 
Q 384 513 384 1019 
Q 384 1609 779 1909 
Q 1175 2209 1959 2209 
L 2766 2209 
L 2766 2266 
Q 2766 2663 2505 2880 
Q 2244 3097 1772 3097 
Q 1472 3097 1187 3025 
Q 903 2953 641 2809 
L 641 3341 
Q 956 3463 1253 3523 
Q 1550 3584 1831 3584 
Q 2591 3584 2966 3190 
Q 3341 2797 3341 1997 
z
" transform="scale(0.015625)"/>
       <path id="DejaVuSans-67" d="M 2906 1791 
Q 2906 2416 2648 2759 
Q 2391 3103 1925 3103 
Q 1463 3103 1205 2759 
Q 947 2416 947 1791 
Q 947 1169 1205 825 
Q 1463 481 1925 481 
Q 2391 481 2648 825 
Q 2906 1169 2906 1791 
z
M 3481 434 
Q 3481 -459 3084 -895 
Q 2688 -1331 1869 -1331 
Q 1566 -1331 1297 -1286 
Q 1028 -1241 775 -1147 
L 775 -588 
Q 1028 -725 1275 -790 
Q 1522 -856 1778 -856 
Q 2344 -856 2625 -561 
Q 2906 -266 2906 331 
L 2906 616 
Q 2728 306 2450 153 
Q 2172 0 1784 0 
Q 1141 0 747 490 
Q 353 981 353 1791 
Q 353 2603 747 3093 
Q 1141 3584 1784 3584 
Q 2172 3584 2450 3431 
Q 2728 3278 2906 2969 
L 2906 3500 
L 3481 3500 
L 3481 434 
z
" transform="scale(0.015625)"/>
       <path id="DejaVuSans-69" d="M 603 3500 
L 1178 3500 
L 1178 0 
L 603 0 
L 603 3500 
z
M 603 4863 
L 1178 4863 
L 1178 4134 
L 603 4134 
L 603 4863 
z
" transform="scale(0.015625)"/>
       <path id="DejaVuSans-74" d="M 1172 4494 
L 1172 3500 
L 2356 3500 
L 2356 3053 
L 1172 3053 
L 1172 1153 
Q 1172 725 1289 603 
Q 1406 481 1766 481 
L 2356 481 
L 2356 0 
L 1766 0 
Q 1100 0 847 248 
Q 594 497 594 1153 
L 594 3053 
L 172 3053 
L 172 3500 
L 594 3500 
L 594 4494 
L 1172 4494 
z
" transform="scale(0.015625)"/>
       <path id="DejaVuSans-64" d="M 2906 2969 
L 2906 4863 
L 3481 4863 
L 3481 0 
L 2906 0 
L 2906 525 
Q 2725 213 2448 61 
Q 2172 -91 1784 -91 
Q 1150 -91 751 415 
Q 353 922 353 1747 
Q 353 2572 751 3078 
Q 1150 3584 1784 3584 
Q 2172 3584 2448 3432 
Q 2725 3281 2906 2969 
z
M 947 1747 
Q 947 1113 1208 752 
Q 1469 391 1925 391 
Q 2381 391 2643 752 
Q 2906 1113 2906 1747 
Q 2906 2381 2643 2742 
Q 2381 3103 1925 3103 
Q 1469 3103 1208 2742 
Q 947 2381 947 1747 
z
" transform="scale(0.015625)"/>
      </defs>
      <use xlink:href="#DejaVuSans-6d"/>
      <use xlink:href="#DejaVuSans-61" x="97.412109"/>
      <use xlink:href="#DejaVuSans-67" x="158.691406"/>
      <use xlink:href="#DejaVuSans-6e" x="222.167969"/>
      <use xlink:href="#DejaVuSans-69" x="285.546875"/>
      <use xlink:href="#DejaVuSans-74" x="313.330078"/>
      <use xlink:href="#DejaVuSans-75" x="352.539062"/>
      <use xlink:href="#DejaVuSans-64" x="415.917969"/>
      <use xlink:href="#DejaVuSans-65" x="479.394531"/>
      <use xlink:href="#DejaVuSans-20" x="540.917969"/>
      <use xlink:href="#DejaVuSans-5b" x="572.705078"/>
      <use xlink:href="#DejaVuSans-5d" x="611.71875"/>
     </g>
    </g>
   </g>
   <g id="line2d_14">
    <path d="M 390.356284 183.120563 
L 390.353584 183.249286 
L 390.350332 183.390551 
L 390.346415 183.545576 
L 390.341697 183.715699 
L 390.336014 183.902387 
L 390.32917 184.107247 
L 390.320928 184.332043 
L 390.311001 184.578705 
L 390.299046 184.849349 
L 390.284649 185.146292 
L 390.267313 185.472069 
L 390.246436 185.829454 
L 390.2213 186.221478 
L 390.191035 186.651453 
L 390.1546 187.122993 
L 390.11074 187.640035 
L 390.05795 188.206864 
L 389.99442 188.828135 
L 389.917979 189.508892 
L 389.826023 190.254589 
L 389.715432 191.071099 
L 389.582472 191.964725 
L 389.422678 192.942195 
L 389.230721 194.010643 
L 389.000254 195.177576 
L 388.723729 196.450811 
L 388.392204 197.838375 
L 387.995112 199.348368 
L 387.52002 200.988763 
L 386.95237 202.767131 
L 386.275221 204.690282 
L 385.468996 206.763791 
L 384.511281 208.991396 
L 383.37669 211.374251 
L 382.036863 213.910016 
L 380.460662 216.591795 
L 378.614631 219.406935 
L 376.463829 222.335739 
L 373.973124 225.350189 
L 371.109013 228.412824 
L 367.842036 231.475982 
L 364.149709 234.48165 
L 360.019869 237.362212 
L 355.454112 240.04236 
L 350.470905 242.442301 
L 345.107821 244.482269 
L 339.422313 246.088046 
L 333.490576 247.196929 
L 327.404261 247.763366 
L 321.265229 247.763366 
L 315.178914 247.196929 
L 309.247177 246.088046 
L 303.56167 244.482269 
L 298.198585 242.442301 
L 293.215378 240.04236 
L 288.649621 237.362212 
L 284.519781 234.48165 
L 280.827454 231.475982 
L 277.560477 228.412824 
L 274.696366 225.350189 
L 272.205661 222.335739 
L 270.054859 219.406935 
L 268.208828 216.591795 
L 266.632627 213.910016 
L 265.2928 211.374251 
L 264.158209 208.991396 
L 263.200494 206.763791 
L 262.394269 204.690282 
L 261.71712 202.767131 
L 261.14947 200.988763 
L 260.674378 199.348368 
L 260.277286 197.838375 
L 259.945761 196.450811 
L 259.669236 195.177576 
L 259.438769 194.010643 
L 259.246812 192.942195 
L 259.087018 191.964725 
L 258.954058 191.071099 
L 258.843467 190.254589 
L 258.751511 189.508892 
L 258.67507 188.828135 
L 258.61154 188.206864 
L 258.55875 187.640035 
L 258.51489 187.122993 
L 258.478455 186.651453 
L 258.44819 186.221478 
L 258.423054 185.829454 
L 258.402177 185.472069 
L 258.384841 185.146292 
L 258.370444 184.849349 
L 258.358489 184.578705 
L 258.348562 184.332043 
L 258.34032 184.107247 
L 258.333476 183.902387 
L 258.327794 183.715699 
L 258.323075 183.545576 
L 258.319158 183.390551 
L 258.315906 183.249286 
L 258.313206 183.120563 
" clip-path="url(#p19d64a6aac)" style="fill: none; stroke: #0000ff; stroke-width: 2; stroke-linecap: square"/>
   </g>
   <g id="patch_3">
    <path d="M 396.9 181.8 
C 396.9 163.599215 393.314842 145.575409 386.349703 128.760076 
C 379.384564 111.944743 369.174899 96.664899 356.305 83.795 
C 343.435101 70.925101 328.155257 60.715436 311.339924 53.750297 
C 294.524591 46.785158 276.500785 43.2 258.3 43.2 
C 240.099215 43.2 222.075409 46.785158 205.260076 53.750297 
C 188.444743 60.715436 173.164899 70.925101 160.295 83.795 
C 147.425101 96.664899 137.215436 111.944743 130.250297 128.760076 
C 123.285158 145.575409 119.7 163.599215 119.7 181.8 
C 119.7 200.000785 123.285158 218.024591 130.250297 234.839924 
C 137.215436 251.655257 147.425101 266.935101 160.295 279.805 
C 173.164899 292.674899 188.444743 302.884564 205.260076 309.849703 
C 222.075409 316.814842 240.099215 320.4 258.3 320.4 
C 276.500785 320.4 294.524591 316.814842 311.339924 309.849703 
C 328.155257 302.884564 343.435101 292.674899 356.305 279.805 
C 369.174899 266.935101 379.384564 251.655257 386.349703 234.839924 
C 393.314842 218.024591 396.9 200.000785 396.9 181.8 
" style="fill: none; stroke: #000000; stroke-width: 0.8; stroke-linejoin: miter; stroke-linecap: square"/>
   </g>
   <g id="text_16">
    <!-- Polar plot -->
    <g transform="translate(230.011875 17.393125) scale(0.12 -0.12)">
     <defs>
      <path id="DejaVuSans-50" d="M 1259 4147 
L 1259 2394 
L 2053 2394 
Q 2494 2394 2734 2622 
Q 2975 2850 2975 3272 
Q 2975 3691 2734 3919 
Q 2494 4147 2053 4147 
L 1259 4147 
z
M 628 4666 
L 2053 4666 
Q 2838 4666 3239 4311 
Q 3641 3956 3641 3272 
Q 3641 2581 3239 2228 
Q 2838 1875 2053 1875 
L 1259 1875 
L 1259 0 
L 628 0 
L 628 4666 
z
" transform="scale(0.015625)"/>
      <path id="DejaVuSans-6f" d="M 1959 3097 
Q 1497 3097 1228 2736 
Q 959 2375 959 1747 
Q 959 1119 1226 758 
Q 1494 397 1959 397 
Q 2419 397 2687 759 
Q 2956 1122 2956 1747 
Q 2956 2369 2687 2733 
Q 2419 3097 1959 3097 
z
M 1959 3584 
Q 2709 3584 3137 3096 
Q 3566 2609 3566 1747 
Q 3566 888 3137 398 
Q 2709 -91 1959 -91 
Q 1206 -91 779 398 
Q 353 888 353 1747 
Q 353 2609 779 3096 
Q 1206 3584 1959 3584 
z
" transform="scale(0.015625)"/>
      <path id="DejaVuSans-6c" d="M 603 4863 
L 1178 4863 
L 1178 0 
L 603 0 
L 603 4863 
z
" transform="scale(0.015625)"/>
      <path id="DejaVuSans-70" d="M 1159 525 
L 1159 -1331 
L 581 -1331 
L 581 3500 
L 1159 3500 
L 1159 2969 
Q 1341 3281 1617 3432 
Q 1894 3584 2278 3584 
Q 2916 3584 3314 3078 
Q 3713 2572 3713 1747 
Q 3713 922 3314 415 
Q 2916 -91 2278 -91 
Q 1894 -91 1617 61 
Q 1341 213 1159 525 
z
M 3116 1747 
Q 3116 2381 2855 2742 
Q 2594 3103 2138 3103 
Q 1681 3103 1420 2742 
Q 1159 2381 1159 1747 
Q 1159 1113 1420 752 
Q 1681 391 2138 391 
Q 2594 391 2855 752 
Q 3116 1113 3116 1747 
z
" transform="scale(0.015625)"/>
     </defs>
     <use xlink:href="#DejaVuSans-50"/>
     <use xlink:href="#DejaVuSans-6f" x="56.677734"/>
     <use xlink:href="#DejaVuSans-6c" x="117.859375"/>
     <use xlink:href="#DejaVuSans-61" x="145.642578"/>
     <use xlink:href="#DejaVuSans-72" x="206.921875"/>
     <use xlink:href="#DejaVuSans-20" x="248.035156"/>
     <use xlink:href="#DejaVuSans-70" x="279.822266"/>
     <use xlink:href="#DejaVuSans-6c" x="343.298828"/>
     <use xlink:href="#DejaVuSans-6f" x="371.082031"/>
     <use xlink:href="#DejaVuSans-74" x="432.263672"/>
    </g>
   </g>
   <g id="legend_1">
    <g id="patch_4">
     <path d="M 351.989375 63.81375 
L 389.9 63.81375 
Q 391.9 63.81375 391.9 61.81375 
L 391.9 50.2 
Q 391.9 48.2 389.9 48.2 
L 351.989375 48.2 
Q 349.989375 48.2 349.989375 50.2 
L 349.989375 61.81375 
Q 349.989375 63.81375 351.989375 63.81375 
z
" style="fill: #ffffff; opacity: 0.8; stroke: #cccccc; stroke-linejoin: miter"/>
    </g>
    <g id="line2d_15">
     <path d="M 351.989375 55.818125 
L 356.989375 55.818125 
L 361.989375 55.818125 
" style="fill: none; stroke: #0000ff; stroke-width: 2; stroke-linecap: square"/>
    </g>
    <g id="text_17">
     <!-- gain -->
     <g transform="translate(363.989375 59.318125) scale(0.12 -0.12)">
      <use xlink:href="#DejaVuSans-67"/>
      <use xlink:href="#DejaVuSans-61" x="63.476562"/>
      <use xlink:href="#DejaVuSans-69" x="124.755859"/>
      <use xlink:href="#DejaVuSans-6e" x="152.539062"/>
     </g>
    </g>
   </g>
  </g>
 </g>
 <defs>
  <clipPath id="p19d64a6aac">
   <path d="M 396.9 181.8 
C 396.9 163.599215 393.314842 145.575409 386.349703 128.760076 
C 379.384564 111.944743 369.174899 96.664899 356.305 83.795 
C 343.435101 70.925101 328.155257 60.715436 311.339924 53.750297 
C 294.524591 46.785158 276.500785 43.2 258.3 43.2 
C 240.099215 43.2 222.075409 46.785158 205.260076 53.750297 
C 188.444743 60.715436 173.164899 70.925101 160.295 83.795 
C 147.425101 96.664899 137.215436 111.944743 130.250297 128.760076 
C 123.285158 145.575409 119.7 163.599215 119.7 181.8 
C 119.7 200.000785 123.285158 218.024591 130.250297 234.839924 
C 137.215436 251.655257 147.425101 266.935101 160.295 279.805 
C 173.164899 292.674899 188.444743 302.884564 205.260076 309.849703 
C 222.075409 316.814842 240.099215 320.4 258.3 320.4 
C 276.500785 320.4 294.524591 316.814842 311.339924 309.849703 
C 328.155257 302.884564 343.435101 292.674899 356.305 279.805 
C 369.174899 266.935101 379.384564 251.655257 386.349703 234.839924 
C 393.314842 218.024591 396.9 200.000785 396.9 181.8 
M 258.3 181.8 
C 258.3 181.8 258.3 181.8 258.3 181.8 
C 258.3 181.8 258.3 181.8 258.3 181.8 
C 258.3 181.8 258.3 181.8 258.3 181.8 
C 258.3 181.8 258.3 181.8 258.3 181.8 
C 258.3 181.8 258.3 181.8 258.3 181.8 
C 258.3 181.8 258.3 181.8 258.3 181.8 
C 258.3 181.8 258.3 181.8 258.3 181.8 
C 258.3 181.8 258.3 181.8 258.3 181.8 
C 258.3 181.8 258.3 181.8 258.3 181.8 
C 258.3 181.8 258.3 181.8 258.3 181.8 
C 258.3 181.8 258.3 181.8 258.3 181.8 
C 258.3 181.8 258.3 181.8 258.3 181.8 
C 258.3 181.8 258.3 181.8 258.3 181.8 
C 258.3 181.8 258.3 181.8 258.3 181.8 
C 258.3 181.8 258.3 181.8 258.3 181.8 
C 258.3 181.8 258.3 181.8 258.3 181.8 
z
"/>
  </clipPath>
 </defs>
</svg>
