<?xml version="1.0" encoding="utf-8" standalone="no"?>
<!DOCTYPE svg PUBLIC "-//W3C//DTD SVG 1.1//EN"
  "http://www.w3.org/Graphics/SVG/1.1/DTD/svg11.dtd">
<svg xmlns:xlink="http://www.w3.org/1999/xlink" width="504pt" height="360pt" viewBox="0 0 504 360" xmlns="http://www.w3.org/2000/svg" version="1.1">
 <metadata>
  <rdf:RDF xmlns:dc="http://purl.org/dc/elements/1.1/" xmlns:cc="http://creativecommons.org/ns#" xmlns:rdf="http://www.w3.org/1999/02/22-rdf-syntax-ns#">
   <cc:Work>
    <dc:type rdf:resource="http://purl.org/dc/dcmitype/StillImage"/>
    <dc:date>2026-10-09T17:00:07.935642</dc:date>
    <dc:format>image/svg+xml</dc:format>
    <dc:creator>
     <cc:Agent>
      <dc:title>Matplotlib v3.11.2, https://matplotlib.org/</dc:title>
     </cc:Agent>
    </dc:creator>
   </cc:Work>
  </rdf:RDF>
 </metadata>
 <defs>
  <style type="text/css">*{stroke-linejoin: round; stroke-linecap: butt}</style>
 </defs>
 <g id="figure_1">
  <g id="patch_1">
   <path d="M 0 360 
L 504 360 
L 504 0 
L 0 0 
z
" style="fill: #ffffff"/>
  </g>
  <g id="axes_1">
   <g id="patch_2">
    <path d="M 52.042813 313.957188 
L 493.2 313.957188 
L 493.2 26.16 
L 52.042813 26.16 
z
" style="fill: #ffffff"/>
   </g>
   <g id="matplotlib.axis_1">
    <g id="xtick_1">
     <g id="line2d_1">
      <path d="M 72.095412 313.957188 
L 72.095412 26.16 
" clip-path="url(#pb0336e44ee)" style="fill: none; stroke: #808080; stroke-width: 0.8; stroke-linecap: square"/>
     </g>
     <g id="line2d_2">
      <defs>
       <path id="m5646c64d18" d="M 0 0 
L 0 3.5 
" style="stroke: #000000; stroke-width: 0.8"/>
      </defs>
      <g>
       <use xlink:href="#m5646c64d18" x="72.095412" y="313.957188" style="stroke: #000000; stroke-width: 0.8"/>
      </g>
     </g>
     <g id="text_1">
      <!-- 0.0 -->
      <g transform="translate(62.553537 330.074375) scale(0.12 -0.12)">
       <defs>
        <path id="DejaVuSans-13" d="M 2034 4250 
Q 1547 4250 1301 3770 
Q 1056 3291 1056 2328 
Q 1056 1369 1301 889 
Q 1547 409 2034 409 
Q 2525 409 2770 889 
Q 3016 1369 3016 2328 
Q 3016 3291 2770 3770 
Q 2525 4250 2034 4250 
z
M 2034 4750 
Q 2819 4750 3233 4129 
Q 3647 3509 3647 2328 
Q 3647 1150 3233 529 
Q 2819 -91 2034 -91 
Q 1250 -91 836 529 
Q 422 1150 422 2328 
Q 422 3509 836 4129 
Q 1250 4750 2034 4750 
z
" transform="scale(0.015625)"/>
        <path id="DejaVuSans-11" d="M 684 794 
L 1344 794 
L 1344 0 
L 684 0 
L 684 794 
z
" transform="scale(0.015625)"/>
       </defs>
       <use xlink:href="#DejaVuSans-13"/>
       <use xlink:href="#DejaVuSans-11" transform="translate(63.625 0)"/>
       <use xlink:href="#DejaVuSans-13" transform="translate(95.40625 0)"/>
      </g>
     </g>
    </g>
    <g id="xtick_2">
     <g id="line2d_3">
      <path d="M 122.226911 313.957188 
L 122.226911 26.16 
" clip-path="url(#pb0336e44ee)" style="fill: none; stroke: #808080; stroke-width: 0.8; stroke-linecap: square"/>
     </g>
     <g id="line2d_4">
      <g>
       <use xlink:href="#m5646c64d18" x="122.226911" y="313.957188" style="stroke: #000000; stroke-width: 0.8"/>
      </g>
     </g>
     <g id="text_2">
      <!-- 2.5 -->
      <g transform="translate(112.685036 330.074375) scale(0.12 -0.12)">
       <defs>
        <path id="DejaVuSans-15" d="M 1228 531 
L 3431 531 
L 3431 0 
L 469 0 
L 469 531 
Q 828 903 1448 1529 
Q 2069 2156 2228 2338 
Q 2531 2678 2651 2914 
Q 2772 3150 2772 3378 
Q 2772 3750 2511 3984 
Q 2250 4219 1831 4219 
Q 1534 4219 1204 4116 
Q 875 4013 500 3803 
L 500 4441 
Q 881 4594 1212 4672 
Q 1544 4750 1819 4750 
Q 2544 4750 2975 4387 
Q 3406 4025 3406 3419 
Q 3406 3131 3298 2873 
Q 3191 2616 2906 2266 
Q 2828 2175 2409 1742 
Q 1991 1309 1228 531 
z
" transform="scale(0.015625)"/>
        <path id="DejaVuSans-18" d="M 691 4666 
L 3169 4666 
L 3169 4134 
L 1269 4134 
L 1269 2991 
Q 1406 3038 1543 3061 
Q 1681 3084 1819 3084 
Q 2600 3084 3056 2656 
Q 3513 2228 3513 1497 
Q 3513 744 3044 326 
Q 2575 -91 1722 -91 
Q 1428 -91 1123 -41 
Q 819 9 494 109 
L 494 744 
Q 775 591 1075 516 
Q 1375 441 1709 441 
Q 2250 441 2565 725 
Q 2881 1009 2881 1497 
Q 2881 1984 2565 2268 
Q 2250 2553 1709 2553 
Q 1456 2553 1204 2497 
Q 953 2441 691 2322 
L 691 4666 
z
" transform="scale(0.015625)"/>
       </defs>
       <use xlink:href="#DejaVuSans-15"/>
       <use xlink:href="#DejaVuSans-11" transform="translate(63.625 0)"/>
       <use xlink:href="#DejaVuSans-18" transform="translate(95.40625 0)"/>
      </g>
     </g>
    </g>
    <g id="xtick_3">
     <g id="line2d_5">
      <path d="M 172.358409 313.957188 
L 172.358409 26.16 
" clip-path="url(#pb0336e44ee)" style="fill: none; stroke: #808080; stroke-width: 0.8; stroke-linecap: square"/>
     </g>
     <g id="line2d_6">
      <g>
       <use xlink:href="#m5646c64d18" x="172.358409" y="313.957188" style="stroke: #000000; stroke-width: 0.8"/>
      </g>
     </g>
     <g id="text_3">
      <!-- 5.0 -->
      <g transform="translate(162.816534 330.074375) scale(0.12 -0.12)">
       <use xlink:href="#DejaVuSans-18"/>
       <use xlink:href="#DejaVuSans-11" transform="translate(63.625 0)"/>
       <use xlink:href="#DejaVuSans-13" transform="translate(95.40625 0)"/>
      </g>
     </g>
    </g>
    <g id="xtick_4">
     <g id="line2d_7">
      <path d="M 222.489908 313.957188 
L 222.489908 26.16 
" clip-path="url(#pb0336e44ee)" style="fill: none; stroke: #808080; stroke-width: 0.8; stroke-linecap: square"/>
     </g>
     <g id="line2d_8">
      <g>
       <use xlink:href="#m5646c64d18" x="222.489908" y="313.957188" style="stroke: #000000; stroke-width: 0.8"/>
      </g>
     </g>
     <g id="text_4">
      <!-- 7.5 -->
      <g transform="translate(212.948033 330.074375) scale(0.12 -0.12)">
       <defs>
        <path id="DejaVuSans-1a" d="M 525 4666 
L 3525 4666 
L 3525 4397 
L 1831 0 
L 1172 0 
L 2766 4134 
L 525 4134 
L 525 4666 
z
" transform="scale(0.015625)"/>
       </defs>
       <use xlink:href="#DejaVuSans-1a"/>
       <use xlink:href="#DejaVuSans-11" transform="translate(63.625 0)"/>
       <use xlink:href="#DejaVuSans-18" transform="translate(95.40625 0)"/>
      </g>
     </g>
    </g>
    <g id="xtick_5">
     <g id="line2d_9">
      <path d="M 272.621406 313.957188 
L 272.621406 26.16 
" clip-path="url(#pb0336e44ee)" style="fill: none; stroke: #808080; stroke-width: 0.8; stroke-linecap: square"/>
     </g>
     <g id="line2d_10">
      <g>
       <use xlink:href="#m5646c64d18" x="272.621406" y="313.957188" style="stroke: #000000; stroke-width: 0.8"/>
      </g>
     </g>
     <g id="text_5">
      <!-- 10.0 -->
      <g transform="translate(259.262031 330.074375) scale(0.12 -0.12)">
       <defs>
        <path id="DejaVuSans-14" d="M 794 531 
L 1825 531 
L 1825 4091 
L 703 3866 
L 703 4441 
L 1819 4666 
L 2450 4666 
L 2450 531 
L 3481 531 
L 3481 0 
L 794 0 
L 794 531 
z
" transform="scale(0.015625)"/>
       </defs>
       <use xlink:href="#DejaVuSans-14"/>
       <use xlink:href="#DejaVuSans-13" transform="translate(63.625 0)"/>
       <use xlink:href="#DejaVuSans-11" transform="translate(127.25 0)"/>
       <use xlink:href="#DejaVuSans-13" transform="translate(159.03125 0)"/>
      </g>
     </g>
    </g>
    <g id="xtick_6">
     <g id="line2d_11">
      <path d="M 322.752905 313.957188 
L 322.752905 26.16 
" clip-path="url(#pb0336e44ee)" style="fill: none; stroke: #808080; stroke-width: 0.8; stroke-linecap: square"/>
     </g>
     <g id="line2d_12">
      <g>
       <use xlink:href="#m5646c64d18" x="322.752905" y="313.957188" style="stroke: #000000; stroke-width: 0.8"/>
      </g>
     </g>
     <g id="text_6">
      <!-- 12.5 -->
      <g transform="translate(309.39353 330.074375) scale(0.12 -0.12)">
       <use xlink:href="#DejaVuSans-14"/>
       <use xlink:href="#DejaVuSans-15" transform="translate(63.625 0)"/>
       <use xlink:href="#DejaVuSans-11" transform="translate(127.25 0)"/>
       <use xlink:href="#DejaVuSans-18" transform="translate(159.03125 0)"/>
      </g>
     </g>
    </g>
    <g id="xtick_7">
     <g id="line2d_13">
      <path d="M 372.884403 313.957188 
L 372.884403 26.16 
" clip-path="url(#pb0336e44ee)" style="fill: none; stroke: #808080; stroke-width: 0.8; stroke-linecap: square"/>
     </g>
     <g id="line2d_14">
      <g>
       <use xlink:href="#m5646c64d18" x="372.884403" y="313.957188" style="stroke: #000000; stroke-width: 0.8"/>
      </g>
     </g>
     <g id="text_7">
      <!-- 15.0 -->
      <g transform="translate(359.525028 330.074375) scale(0.12 -0.12)">
       <use xlink:href="#DejaVuSans-14"/>
       <use xlink:href="#DejaVuSans-18" transform="translate(63.625 0)"/>
       <use xlink:href="#DejaVuSans-11" transform="translate(127.25 0)"/>
       <use xlink:href="#DejaVuSans-13" transform="translate(159.03125 0)"/>
      </g>
     </g>
    </g>
    <g id="xtick_8">
     <g id="line2d_15">
      <path d="M 423.015902 313.957188 
L 423.015902 26.16 
" clip-path="url(#pb0336e44ee)" style="fill: none; stroke: #808080; stroke-width: 0.8; stroke-linecap: square"/>
     </g>
     <g id="line2d_16">
      <g>
       <use xlink:href="#m5646c64d18" x="423.015902" y="313.957188" style="stroke: #000000; stroke-width: 0.8"/>
      </g>
     </g>
     <g id="text_8">
      <!-- 17.5 -->
      <g transform="translate(409.656527 330.074375) scale(0.12 -0.12)">
       <use xlink:href="#DejaVuSans-14"/>
       <use xlink:href="#DejaVuSans-1a" transform="translate(63.625 0)"/>
       <use xlink:href="#DejaVuSans-11" transform="translate(127.25 0)"/>
       <use xlink:href="#DejaVuSans-18" transform="translate(159.03125 0)"/>
      </g>
     </g>
    </g>
    <g id="xtick_9">
     <g id="line2d_17">
      <path d="M 473.147401 313.957188 
L 473.147401 26.16 
" clip-path="url(#pb0336e44ee)" style="fill: none; stroke: #808080; stroke-width: 0.8; stroke-linecap: square"/>
     </g>
     <g id="line2d_18">
      <g>
       <use xlink:href="#m5646c64d18" x="473.147401" y="313.957188" style="stroke: #000000; stroke-width: 0.8"/>
      </g>
     </g>
     <g id="text_9">
      <!-- 20.0 -->
      <g transform="translate(459.788026 330.074375) scale(0.12 -0.12)">
       <use xlink:href="#DejaVuSans-15"/>
       <use xlink:href="#DejaVuSans-13" transform="translate(63.625 0)"/>
       <use xlink:href="#DejaVuSans-11" transform="translate(127.25 0)"/>
       <use xlink:href="#DejaVuSans-13" transform="translate(159.03125 0)"/>
      </g>
     </g>
    </g>
    <g id="text_10">
     <!-- time [µs] -->
     <g transform="translate(245.534219 346.075312) scale(0.12 -0.12)">
      <defs>
       <path id="DejaVuSans-57" d="M 1172 4494 
L 1172 3500 
L 2356 3500 
L 2356 3053 
L 1172 3053 
L 1172 1153 
Q 1172 725 1289 603 
Q 1406 481 1766 481 
L 2356 481 
L 2356 0 
L 1766 0 
Q 1100 0 847 248 
Q 594 497 594 1153 
L 594 3053 
L 172 3053 
L 172 3500 
L 594 3500 
L 594 4494 
L 1172 4494 
z
" transform="scale(0.015625)"/>
       <path id="DejaVuSans-4c" d="M 603 3500 
L 1178 3500 
L 1178 0 
L 603 0 
L 603 3500 
z
M 603 4863 
L 1178 4863 
L 1178 4134 
L 603 4134 
L 603 4863 
z
" transform="scale(0.015625)"/>
       <path id="DejaVuSans-50" d="M 3328 2828 
Q 3544 3216 3844 3400 
Q 4144 3584 4550 3584 
Q 5097 3584 5394 3201 
Q 5691 2819 5691 2113 
L 5691 0 
L 5113 0 
L 5113 2094 
Q 5113 2597 4934 2840 
Q 4756 3084 4391 3084 
Q 3944 3084 3684 2787 
Q 3425 2491 3425 1978 
L 3425 0 
L 2847 0 
L 2847 2094 
Q 2847 2600 2669 2842 
Q 2491 3084 2119 3084 
Q 1678 3084 1418 2786 
Q 1159 2488 1159 1978 
L 1159 0 
L 581 0 
L 581 3500 
L 1159 3500 
L 1159 2956 
Q 1356 3278 1631 3431 
Q 1906 3584 2284 3584 
Q 2666 3584 2933 3390 
Q 3200 3197 3328 2828 
z
" transform="scale(0.015625)"/>
       <path id="DejaVuSans-48" d="M 3597 1894 
L 3597 1613 
L 953 1613 
Q 991 1019 1311 708 
Q 1631 397 2203 397 
Q 2534 397 2845 478 
Q 3156 559 3463 722 
L 3463 178 
Q 3153 47 2828 -22 
Q 2503 -91 2169 -91 
Q 1331 -91 842 396 
Q 353 884 353 1716 
Q 353 2575 817 3079 
Q 1281 3584 2069 3584 
Q 2775 3584 3186 3129 
Q 3597 2675 3597 1894 
z
M 3022 2063 
Q 3016 2534 2758 2815 
Q 2500 3097 2075 3097 
Q 1594 3097 1305 2825 
Q 1016 2553 972 2059 
L 3022 2063 
z
" transform="scale(0.015625)"/>
       <path id="DejaVuSans-3" transform="scale(0.015625)"/>
       <path id="DejaVuSans-3e" d="M 550 4863 
L 1875 4863 
L 1875 4416 
L 1125 4416 
L 1125 -397 
L 1875 -397 
L 1875 -844 
L 550 -844 
L 550 4863 
z
" transform="scale(0.015625)"/>
       <path id="DejaVuSans-77" d="M 544 -1331 
L 544 3500 
L 1119 3500 
L 1119 1325 
Q 1119 872 1334 640 
Q 1550 409 1972 409 
Q 2434 409 2667 671 
Q 2900 934 2900 1459 
L 2900 3500 
L 3475 3500 
L 3475 806 
Q 3475 619 3529 530 
Q 3584 441 3700 441 
Q 3728 441 3778 458 
Q 3828 475 3916 513 
L 3916 50 
Q 3788 -22 3673 -56 
Q 3559 -91 3450 -91 
Q 3234 -91 3106 31 
Q 2978 153 2931 403 
Q 2775 156 2548 32 
Q 2322 -91 2016 -91 
Q 1697 -91 1473 31 
Q 1250 153 1119 397 
L 1119 -1331 
L 544 -1331 
z
" transform="scale(0.015625)"/>
       <path id="DejaVuSans-56" d="M 2834 3397 
L 2834 2853 
Q 2591 2978 2328 3040 
Q 2066 3103 1784 3103 
Q 1356 3103 1142 2972 
Q 928 2841 928 2578 
Q 928 2378 1081 2264 
Q 1234 2150 1697 2047 
L 1894 2003 
Q 2506 1872 2764 1633 
Q 3022 1394 3022 966 
Q 3022 478 2636 193 
Q 2250 -91 1575 -91 
Q 1294 -91 989 -36 
Q 684 19 347 128 
L 347 722 
Q 666 556 975 473 
Q 1284 391 1588 391 
Q 1994 391 2212 530 
Q 2431 669 2431 922 
Q 2431 1156 2273 1281 
Q 2116 1406 1581 1522 
L 1381 1569 
Q 847 1681 609 1914 
Q 372 2147 372 2553 
Q 372 3047 722 3315 
Q 1072 3584 1716 3584 
Q 2034 3584 2315 3537 
Q 2597 3491 2834 3397 
z
" transform="scale(0.015625)"/>
       <path id="DejaVuSans-40" d="M 1947 4863 
L 1947 -844 
L 622 -844 
L 622 -397 
L 1369 -397 
L 1369 4416 
L 622 4416 
L 622 4863 
L 1947 4863 
z
" transform="scale(0.015625)"/>
      </defs>
      <use xlink:href="#DejaVuSans-57"/>
      <use xlink:href="#DejaVuSans-4c" transform="translate(39.203125 0)"/>
      <use xlink:href="#DejaVuSans-50" transform="translate(66.984375 0)"/>
      <use xlink:href="#DejaVuSans-48" transform="translate(164.390625 0)"/>
      <use xlink:href="#DejaVuSans-3" transform="translate(225.921875 0)"/>
      <use xlink:href="#DejaVuSans-3e" transform="translate(257.703125 0)"/>
      <use xlink:href="#DejaVuSans-77" transform="translate(296.71875 0)"/>
      <use xlink:href="#DejaVuSans-56" transform="translate(360.34375 0)"/>
      <use xlink:href="#DejaVuSans-40" transform="translate(412.4375 0)"/>
     </g>
    </g>
   </g>
   <g id="matplotlib.axis_2">
    <g id="ytick_1">
     <g id="line2d_19">
      <path d="M 52.042813 289.805631 
L 493.2 289.805631 
" clip-path="url(#pb0336e44ee)" style="fill: none; stroke: #808080; stroke-width: 0.8; stroke-linecap: square"/>
     </g>
     <g id="line2d_20">
      <defs>
       <path id="m085a853eae" d="M 0 0 
L -3.5 0 
" style="stroke: #000000; stroke-width: 0.8"/>
      </defs>
      <g>
       <use xlink:href="#m085a853eae" x="52.042813" y="289.805631" style="stroke: #000000; stroke-width: 0.8"/>
      </g>
     </g>
     <g id="text_11">
      <!-- −2 -->
      <g transform="translate(27.352188 294.364225) scale(0.12 -0.12)">
       <defs>
        <path id="DejaVuSans-c9c" d="M 678 2272 
L 4684 2272 
L 4684 1741 
L 678 1741 
L 678 2272 
z
" transform="scale(0.015625)"/>
       </defs>
       <use xlink:href="#DejaVuSans-c9c"/>
       <use xlink:href="#DejaVuSans-15" transform="translate(83.796875 0)"/>
      </g>
     </g>
    </g>
    <g id="ytick_2">
     <g id="line2d_21">
      <path d="M 52.042813 233.171072 
L 493.2 233.171072 
" clip-path="url(#pb0336e44ee)" style="fill: none; stroke: #808080; stroke-width: 0.8; stroke-linecap: square"/>
     </g>
     <g id="line2d_22">
      <g>
       <use xlink:href="#m085a853eae" x="52.042813" y="233.171072" style="stroke: #000000; stroke-width: 0.8"/>
      </g>
     </g>
     <g id="text_12">
      <!-- 0 -->
      <g transform="translate(37.407813 237.729666) scale(0.12 -0.12)">
       <use xlink:href="#DejaVuSans-13"/>
      </g>
     </g>
    </g>
    <g id="ytick_3">
     <g id="line2d_23">
      <path d="M 52.042813 176.536514 
L 493.2 176.536514 
" clip-path="url(#pb0336e44ee)" style="fill: none; stroke: #808080; stroke-width: 0.8; stroke-linecap: square"/>
     </g>
     <g id="line2d_24">
      <g>
       <use xlink:href="#m085a853eae" x="52.042813" y="176.536514" style="stroke: #000000; stroke-width: 0.8"/>
      </g>
     </g>
     <g id="text_13">
      <!-- 2 -->
      <g transform="translate(37.407813 181.095107) scale(0.12 -0.12)">
       <use xlink:href="#DejaVuSans-15"/>
      </g>
     </g>
    </g>
    <g id="ytick_4">
     <g id="line2d_25">
      <path d="M 52.042813 119.901955 
L 493.2 119.901955 
" clip-path="url(#pb0336e44ee)" style="fill: none; stroke: #808080; stroke-width: 0.8; stroke-linecap: square"/>
     </g>
     <g id="line2d_26">
      <g>
       <use xlink:href="#m085a853eae" x="52.042813" y="119.901955" style="stroke: #000000; stroke-width: 0.8"/>
      </g>
     </g>
     <g id="text_14">
      <!-- 4 -->
      <g transform="translate(37.407813 124.460549) scale(0.12 -0.12)">
       <defs>
        <path id="DejaVuSans-17" d="M 2419 4116 
L 825 1625 
L 2419 1625 
L 2419 4116 
z
M 2253 4666 
L 3047 4666 
L 3047 1625 
L 3713 1625 
L 3713 1100 
L 3047 1100 
L 3047 0 
L 2419 0 
L 2419 1100 
L 313 1100 
L 313 1709 
L 2253 4666 
z
" transform="scale(0.015625)"/>
       </defs>
       <use xlink:href="#DejaVuSans-17"/>
      </g>
     </g>
    </g>
    <g id="ytick_5">
     <g id="line2d_27">
      <path d="M 52.042813 63.267396 
L 493.2 63.267396 
" clip-path="url(#pb0336e44ee)" style="fill: none; stroke: #808080; stroke-width: 0.8; stroke-linecap: square"/>
     </g>
     <g id="line2d_28">
      <g>
       <use xlink:href="#m085a853eae" x="52.042813" y="63.267396" style="stroke: #000000; stroke-width: 0.8"/>
      </g>
     </g>
     <g id="text_15">
      <!-- 6 -->
      <g transform="translate(37.407813 67.82599) scale(0.12 -0.12)">
       <defs>
        <path id="DejaVuSans-19" d="M 2113 2584 
Q 1688 2584 1439 2293 
Q 1191 2003 1191 1497 
Q 1191 994 1439 701 
Q 1688 409 2113 409 
Q 2538 409 2786 701 
Q 3034 994 3034 1497 
Q 3034 2003 2786 2293 
Q 2538 2584 2113 2584 
z
M 3366 4563 
L 3366 3988 
Q 3128 4100 2886 4159 
Q 2644 4219 2406 4219 
Q 1781 4219 1451 3797 
Q 1122 3375 1075 2522 
Q 1259 2794 1537 2939 
Q 1816 3084 2150 3084 
Q 2853 3084 3261 2657 
Q 3669 2231 3669 1497 
Q 3669 778 3244 343 
Q 2819 -91 2113 -91 
Q 1303 -91 875 529 
Q 447 1150 447 2328 
Q 447 3434 972 4092 
Q 1497 4750 2381 4750 
Q 2619 4750 2861 4703 
Q 3103 4656 3366 4563 
z
" transform="scale(0.015625)"/>
       </defs>
       <use xlink:href="#DejaVuSans-19"/>
      </g>
     </g>
    </g>
    <g id="text_16">
     <!-- [V] -->
     <g transform="translate(20.469375 178.844844) rotate(-90) scale(0.12 -0.12)">
      <defs>
       <path id="DejaVuSans-39" d="M 1831 0 
L 50 4666 
L 709 4666 
L 2188 738 
L 3669 4666 
L 4325 4666 
L 2547 0 
L 1831 0 
z
" transform="scale(0.015625)"/>
      </defs>
      <use xlink:href="#DejaVuSans-3e"/>
      <use xlink:href="#DejaVuSans-39" transform="translate(39.015625 0)"/>
      <use xlink:href="#DejaVuSans-40" transform="translate(107.421875 0)"/>
     </g>
    </g>
   </g>
   <g id="line2d_29">
    <path d="M 72.095412 233.171072 
L 72.69699 233.109679 
L 73.098042 232.914191 
L 73.69962 232.298212 
L 74.902776 230.551786 
L 77.108562 226.95658 
L 85.530654 212.997917 
L 89.942225 206.177455 
L 93.752219 200.700569 
L 97.161161 196.191694 
L 100.169051 192.562283 
L 102.976415 189.498941 
L 105.583253 186.95501 
L 108.190091 184.717088 
L 110.596403 182.93514 
L 113.002715 181.435581 
L 115.208501 180.316175 
L 117.414287 179.446548 
L 119.620073 178.831376 
L 121.625333 178.496159 
L 123.630592 178.376555 
L 125.635852 178.47393 
L 127.641112 178.788722 
L 129.646372 179.32033 
L 131.651632 180.067055 
L 133.857418 181.133549 
L 136.063204 182.451763 
L 138.469516 184.169128 
L 140.875828 186.167913 
L 143.482666 188.636954 
L 146.29003 191.62984 
L 149.097394 194.945597 
L 152.30581 199.096523 
L 155.714752 203.883332 
L 159.524745 209.625289 
L 163.936317 216.685395 
L 169.751571 226.445698 
L 184.590495 251.561052 
L 189.202593 258.802252 
L 193.012587 264.386354 
L 196.421528 269.008401 
L 199.629944 272.987345 
L 202.637834 276.354984 
L 205.445198 279.155296 
L 208.052036 281.440494 
L 210.458348 283.26761 
L 212.86466 284.813517 
L 215.070446 285.976332 
L 217.276232 286.890286 
L 219.482018 287.55086 
L 221.487278 287.928455 
L 223.492538 288.091608 
L 225.497798 288.038952 
L 227.503058 287.769887 
L 229.508317 287.284685 
L 231.513577 286.584595 
L 233.719363 285.569062 
L 235.925149 284.300828 
L 238.130935 282.785914 
L 240.537247 280.860704 
L 243.144085 278.467016 
L 245.750923 275.769223 
L 248.558287 272.545299 
L 251.566177 268.753112 
L 254.975119 264.075482 
L 258.584587 258.741136 
L 262.795633 252.112634 
L 268.009308 243.468693 
L 287.259804 211.092737 
L 291.47085 204.694586 
L 295.080318 199.603506 
L 298.288734 195.437715 
L 301.296623 191.87789 
L 304.103987 188.884774 
L 306.710825 186.410105 
L 309.317663 184.244875 
L 311.723975 182.532675 
L 314.130287 181.105061 
L 316.336073 180.053265 
L 318.541859 179.252607 
L 320.547119 178.746421 
L 322.552379 178.454177 
L 324.557639 178.377888 
L 326.562899 178.518744 
L 328.568159 178.876981 
L 330.573419 179.451783 
L 332.779205 180.331875 
L 334.98499 181.467595 
L 337.190776 182.853373 
L 339.597088 184.642125 
L 342.0034 186.709461 
L 344.610238 189.249114 
L 347.417602 192.313286 
L 350.425492 195.947877 
L 353.633908 200.189076 
L 357.243376 205.356515 
L 361.253896 211.511211 
L 366.06652 219.336621 
L 372.884403 230.910408 
L 383.311755 248.613139 
L 388.124379 256.33616 
L 392.134899 262.375941 
L 395.744367 267.420283 
L 398.952783 271.53935 
L 401.960673 275.051298 
L 404.768037 277.996403 
L 407.374874 280.423765 
L 409.981712 282.5392 
L 412.388024 284.203386 
L 414.59381 285.477572 
L 416.799596 286.505261 
L 419.005382 287.281509 
L 421.010642 287.765598 
L 423.015902 288.036187 
L 425.021162 288.091561 
L 427.026422 287.930723 
L 429.031682 287.553497 
L 431.036942 286.960631 
L 433.242728 286.061551 
L 435.448514 284.907523 
L 437.6543 283.503897 
L 440.060612 281.696032 
L 442.466923 279.60989 
L 445.073761 277.050249 
L 447.881125 273.96516 
L 450.889015 270.309131 
L 454.097431 266.046538 
L 457.706899 260.857317 
L 461.717419 254.681825 
L 466.530043 246.836926 
L 473.147401 235.591678 
L 473.147401 235.591678 
" clip-path="url(#pb0336e44ee)" style="fill: none; stroke: #ff0000; stroke-width: 2; stroke-linecap: square"/>
   </g>
   <g id="line2d_30">
    <path d="M 72.095412 233.171072 
L 72.69699 233.067149 
L 73.098042 232.679536 
L 73.499094 231.925337 
L 74.301198 229.756018 
L 76.105932 224.118065 
L 86.73381 189.27878 
L 89.942225 179.749872 
L 92.148011 173.795684 
L 93.752219 170.023212 
L 94.955375 167.684779 
L 95.958005 166.134829 
L 96.960635 164.941264 
L 97.963265 164.046919 
L 99.166421 163.279464 
L 100.369577 162.782236 
L 103.176941 162.111167 
L 105.783779 161.742805 
L 109.794299 161.432159 
L 116.211131 161.186006 
L 124.23217 161.099788 
L 132.654262 161.23264 
L 141.477406 161.601103 
L 150.902128 162.223067 
L 155.514226 162.717805 
L 156.516856 162.909205 
L 156.917908 163.224587 
L 157.118434 163.637314 
L 157.31896 164.417584 
L 157.720012 167.764385 
L 158.321589 176.978613 
L 158.722641 182.730863 
L 159.123693 185.824961 
L 159.524745 186.936417 
L 160.326849 188.036831 
L 160.727901 189.07794 
L 161.730531 192.830373 
L 162.933687 196.848706 
L 165.139473 204.10163 
L 171.756831 226.550138 
L 182.184183 261.96515 
L 186.796281 276.782433 
L 190.405749 287.666536 
L 193.213112 295.496019 
L 194.616794 298.93335 
L 195.218372 299.723807 
L 195.81995 300.082957 
L 196.82258 300.397588 
L 198.426788 300.648012 
L 201.033626 300.814486 
L 206.046776 300.862227 
L 246.553027 300.706154 
L 249.159865 300.520133 
L 250.764073 300.175138 
L 251.766703 299.773836 
L 252.568807 299.248081 
L 253.170385 298.635914 
L 253.771963 297.74564 
L 254.574067 296.110037 
L 255.777223 293.047427 
L 257.581957 287.776553 
L 261.191425 276.444507 
L 266.204574 259.94609 
L 273.42351 235.307382 
L 282.046128 206.024872 
L 286.4577 191.801418 
L 289.866642 181.506523 
L 292.272954 174.856447 
L 294.077688 170.48722 
L 295.280844 168.065145 
L 296.484 166.157053 
L 297.48663 164.960844 
L 298.48926 164.064373 
L 299.692415 163.294941 
L 300.895571 162.795758 
L 303.702935 162.12398 
L 306.309773 161.755037 
L 310.320293 161.444068 
L 316.737125 161.197809 
L 324.758165 161.111576 
L 333.180257 161.24442 
L 342.0034 161.61287 
L 351.227596 162.218266 
L 355.839694 162.703347 
L 357.04285 162.923472 
L 357.443902 163.247509 
L 357.644428 163.671576 
L 357.844954 164.470695 
L 358.246006 167.871481 
L 358.847584 177.122791 
L 359.248636 182.830155 
L 359.649688 185.870062 
L 360.05074 186.956847 
L 360.852844 188.061345 
L 361.253896 189.111232 
L 362.256526 192.868491 
L 363.459682 196.881239 
L 365.665468 204.135371 
L 372.082299 225.895413 
L 382.710177 261.998578 
L 387.322275 276.815712 
L 390.931743 287.699512 
L 393.739107 295.528423 
L 395.142789 298.96002 
L 395.744367 299.743136 
L 396.345945 300.099188 
L 397.348575 300.412263 
L 398.952783 300.661759 
L 401.559621 300.827635 
L 406.57277 300.875064 
L 447.279547 300.713074 
L 449.685859 300.534088 
L 451.290067 300.190404 
L 452.292697 299.790613 
L 453.094801 299.267191 
L 453.696379 298.657932 
L 454.297957 297.771297 
L 455.100061 296.139622 
L 456.303217 293.079818 
L 458.107951 287.810396 
L 461.717419 276.478342 
L 466.730569 259.979709 
L 473.147401 238.10032 
L 473.147401 238.10032 
" clip-path="url(#pb0336e44ee)" style="fill: none; stroke: #0000ff; stroke-width: 2; stroke-linecap: square"/>
   </g>
   <g id="line2d_31">
    <path d="M 72.095412 233.171072 
L 83.926446 228.041766 
L 90.343277 225.509562 
L 95.757479 223.609316 
L 100.570103 222.149149 
L 105.182201 220.984184 
L 109.393247 220.141893 
L 113.604293 219.52611 
L 117.614813 219.160076 
L 121.625333 219.015004 
L 125.635852 219.093182 
L 129.646372 219.393376 
L 133.656892 219.910853 
L 137.867938 220.679078 
L 142.27951 221.716538 
L 146.891608 223.034426 
L 151.904758 224.705585 
L 157.519486 226.822601 
L 164.337369 229.649976 
L 176.168403 234.857319 
L 185.192073 238.712369 
L 191.408379 241.129377 
L 196.622054 242.927948 
L 201.434678 244.358548 
L 205.84625 245.447565 
L 210.057296 246.268855 
L 214.268342 246.862443 
L 218.278862 247.206584 
L 222.289382 247.329376 
L 226.299902 247.228883 
L 230.310421 246.90669 
L 234.320941 246.367879 
L 238.531987 245.578333 
L 242.943559 244.520125 
L 247.555657 243.182702 
L 252.568807 241.493279 
L 258.183535 239.360012 
L 265.001418 236.519563 
L 279.038238 230.343462 
L 286.858752 227.062266 
L 292.874532 224.777059 
L 298.088208 223.034426 
L 302.900831 221.664474 
L 307.312403 220.637451 
L 311.523449 219.879931 
L 315.734495 219.353473 
L 319.745015 219.075325 
L 323.755535 219.019475 
L 327.766055 219.186805 
L 331.776575 219.574674 
L 335.98762 220.212554 
L 340.198666 221.075714 
L 344.610238 222.205206 
L 349.422862 223.675115 
L 354.636538 225.509562 
L 360.652318 227.87634 
L 368.272306 231.132084 
L 386.720697 239.118891 
L 392.736477 241.421144 
L 397.950153 243.182703 
L 402.762777 244.573091 
L 407.174348 245.620945 
L 411.385394 246.399846 
L 415.59644 246.948769 
L 419.60696 247.248963 
L 423.61748 247.32714 
L 427.628 247.182068 
L 431.63852 246.816034 
L 435.849566 246.200251 
L 440.060612 245.35796 
L 444.472183 244.248618 
L 449.084281 242.863289 
L 454.297957 241.055642 
L 460.113211 238.794124 
L 467.332147 235.736689 
L 473.147401 233.171072 
L 473.147401 233.171072 
" clip-path="url(#pb0336e44ee)" style="fill: none; stroke: #008000; stroke-width: 2; stroke-linecap: square"/>
   </g>
   <g id="line2d_32">
    <path d="M 72.095412 233.171072 
L 82.121712 224.420559 
L 87.535913 219.99927 
L 91.947485 216.670877 
L 95.958005 213.916658 
L 99.567473 211.696344 
L 102.976415 209.850889 
L 106.184831 208.356471 
L 109.393247 207.112631 
L 112.401137 206.185312 
L 115.409027 205.49752 
L 118.216391 205.077106 
L 121.023755 204.873936 
L 123.831118 204.889582 
L 126.638482 205.123922 
L 129.445846 205.575145 
L 132.25321 206.239761 
L 135.2611 207.182779 
L 138.26899 208.356471 
L 141.477406 209.850889 
L 144.886348 211.696344 
L 148.495816 213.916658 
L 152.30581 216.526607 
L 156.516856 219.685313 
L 161.329479 223.578944 
L 167.545785 228.917096 
L 184.991547 244.089753 
L 189.804171 247.890873 
L 194.015216 250.945569 
L 197.82521 253.444429 
L 201.434678 255.546094 
L 204.84362 257.268901 
L 208.052036 258.639761 
L 211.059926 259.691595 
L 214.067816 260.508031 
L 216.87518 261.051233 
L 219.682544 261.378843 
L 222.489908 261.488328 
L 225.297272 261.378843 
L 228.104636 261.051233 
L 230.911999 260.508031 
L 233.919889 259.691595 
L 236.927779 258.639761 
L 240.136195 257.268901 
L 243.344611 255.654702 
L 246.753553 253.691261 
L 250.363021 251.357905 
L 254.373541 248.494141 
L 258.785113 245.066747 
L 263.998788 240.729004 
L 271.41825 234.238355 
L 282.647706 224.420559 
L 288.061908 219.99927 
L 292.47348 216.670877 
L 296.484 213.916658 
L 300.093467 211.696344 
L 303.502409 209.850889 
L 306.710825 208.356471 
L 309.919241 207.112631 
L 312.927131 206.185312 
L 315.935021 205.49752 
L 318.742385 205.077106 
L 321.549749 204.873936 
L 324.357113 204.889582 
L 327.164477 205.123922 
L 329.971841 205.575145 
L 332.779205 206.239761 
L 335.787094 207.182779 
L 338.794984 208.356471 
L 342.0034 209.850889 
L 345.412342 211.696344 
L 349.02181 213.916658 
L 352.831804 216.526607 
L 357.04285 219.685313 
L 361.855474 223.578944 
L 368.07178 228.917096 
L 385.517541 244.089753 
L 390.330165 247.890873 
L 394.541211 250.945569 
L 398.351205 253.444429 
L 401.960673 255.546094 
L 405.369614 257.268901 
L 408.57803 258.639761 
L 411.58592 259.691595 
L 414.59381 260.508031 
L 417.401174 261.051233 
L 420.208538 261.378843 
L 423.015902 261.488328 
L 425.823266 261.378843 
L 428.63063 261.051233 
L 431.437994 260.508031 
L 434.445884 259.691595 
L 437.453774 258.639761 
L 440.662189 257.268901 
L 443.870605 255.654702 
L 447.279547 253.691261 
L 450.889015 251.357905 
L 454.899535 248.494141 
L 459.311107 245.066747 
L 464.524783 240.729004 
L 471.944245 234.238355 
L 473.147401 233.171072 
L 473.147401 233.171072 
" clip-path="url(#pb0336e44ee)" style="fill: none; stroke: #00bfbf; stroke-width: 2; stroke-linecap: square"/>
   </g>
   <g id="line2d_33">
    <path d="M 72.095412 111.527807 
L 72.69699 111.466352 
L 73.098042 111.270666 
L 73.69962 110.654055 
L 74.902776 108.905779 
L 77.108562 105.306495 
L 85.530654 91.328304 
L 89.942225 84.495824 
L 93.752219 79.007805 
L 97.161161 74.488513 
L 100.169051 70.849649 
L 102.976415 67.777341 
L 105.783779 65.041169 
L 108.390617 62.819003 
L 110.796929 61.052538 
L 113.203241 59.569292 
L 115.409027 58.465515 
L 117.614813 57.612121 
L 119.820599 57.013739 
L 121.825859 56.694229 
L 123.831118 56.590702 
L 125.836378 56.704459 
L 127.841638 57.035862 
L 129.846898 57.584221 
L 131.852158 58.347748 
L 134.057944 59.432677 
L 136.26373 60.769168 
L 138.670042 62.506174 
L 141.076354 64.524172 
L 143.683192 67.013418 
L 146.490556 70.027207 
L 149.498446 73.612718 
L 152.706862 77.807609 
L 156.115804 82.63614 
L 159.925797 88.418097 
L 164.537895 95.845894 
L 170.553675 105.993907 
L 183.988917 128.789145 
L 188.601015 136.101543 
L 192.611535 142.04615 
L 196.020476 146.723085 
L 199.228892 150.759363 
L 202.236782 154.185208 
L 205.044146 157.043258 
L 207.650984 159.384615 
L 210.057296 161.265418 
L 212.463608 162.866487 
L 214.669394 164.080922 
L 216.87518 165.047288 
L 219.080966 165.760867 
L 221.086226 166.186996 
L 223.091486 166.398858 
L 225.096746 166.39492 
L 227.102006 166.174399 
L 229.107265 165.737362 
L 231.112525 165.084835 
L 233.318311 164.120652 
L 235.524097 162.902456 
L 237.729883 161.435983 
L 240.136195 159.561481 
L 242.542507 157.41112 
L 245.149345 154.785084 
L 247.956709 151.632681 
L 250.964599 147.909906 
L 254.173015 143.582872 
L 257.782483 138.330237 
L 261.793003 132.096452 
L 266.806152 123.863219 
L 274.42614 110.846071 
L 283.048758 96.218225 
L 287.861382 88.478619 
L 291.871902 82.424687 
L 295.48137 77.367653 
L 298.689786 73.237454 
L 301.697675 69.715184 
L 304.505039 66.760451 
L 307.111877 64.324023 
L 309.718715 62.199276 
L 312.125027 60.526222 
L 314.330813 59.243729 
L 316.536599 58.207732 
L 318.742385 57.423462 
L 320.747645 56.932651 
L 322.752905 56.656192 
L 324.758165 56.596046 
L 326.763425 56.753335 
L 328.768685 57.128219 
L 330.773945 57.71979 
L 332.979731 58.618361 
L 335.185516 59.772484 
L 337.391302 61.176478 
L 339.797614 62.984775 
L 342.203926 65.071199 
L 344.810764 67.630892 
L 347.618128 70.715758 
L 350.626018 74.37133 
L 353.834434 78.633358 
L 357.443902 83.822071 
L 361.454422 89.997424 
L 366.267046 97.843056 
L 373.084929 109.436182 
L 383.311755 126.815298 
L 388.124379 134.550684 
L 392.134899 140.601749 
L 395.744367 145.656853 
L 398.952783 149.785852 
L 401.960673 153.307335 
L 404.768037 156.261459 
L 407.374874 158.697236 
L 409.981712 160.821071 
L 412.388024 162.492947 
L 414.59381 163.774094 
L 416.799596 164.808623 
L 419.005382 165.591559 
L 421.010642 166.081569 
L 423.015902 166.357903 
L 425.021162 166.418824 
L 427.026422 166.263311 
L 429.031682 165.891167 
L 431.036942 165.303119 
L 433.242728 164.409009 
L 435.448514 163.259583 
L 437.6543 161.86017 
L 440.060612 160.056432 
L 442.466923 157.973903 
L 445.073761 155.417577 
L 447.881125 152.335334 
L 450.889015 148.681498 
L 454.097431 144.420248 
L 457.706899 139.231295 
L 461.717419 133.054553 
L 466.530043 125.206039 
L 473.147401 113.952209 
L 473.147401 113.952209 
" clip-path="url(#pb0336e44ee)" style="fill: none; stroke: #bf00bf; stroke-width: 2; stroke-linecap: square"/>
   </g>
   <g id="line2d_34">
    <path d="M 72.095412 111.527807 
L 72.69699 111.423779 
L 73.098042 111.035773 
L 73.499094 110.280803 
L 74.301198 108.109223 
L 76.105932 102.465077 
L 86.73381 67.576792 
L 89.942225 58.03056 
L 92.148011 52.064208 
L 93.752219 48.283059 
L 94.955375 45.938426 
L 95.958005 44.383611 
L 96.960635 43.18547 
L 97.963265 42.286795 
L 99.166421 41.514401 
L 100.369577 41.012466 
L 103.176941 40.330821 
L 105.783779 39.952827 
L 109.794299 39.627551 
L 116.211131 39.35815 
L 124.23217 39.243028 
L 132.654262 39.345763 
L 141.477406 39.683014 
L 150.701602 40.25618 
L 155.3137 40.72515 
L 156.516856 40.939138 
L 156.917908 41.253434 
L 157.118434 41.665876 
L 157.31896 42.446234 
L 157.720012 45.795038 
L 158.321589 55.016649 
L 158.722641 60.773588 
L 159.123693 63.869805 
L 159.524745 64.981438 
L 160.326849 66.081123 
L 160.727901 67.12238 
L 161.730531 70.876453 
L 162.933687 74.896509 
L 165.139473 82.153084 
L 171.556305 103.929197 
L 182.384709 140.735913 
L 186.996807 155.539447 
L 190.606275 166.400466 
L 193.413638 174.199643 
L 194.616794 177.109411 
L 195.218372 177.902645 
L 195.81995 178.264156 
L 196.82258 178.582456 
L 198.426788 178.83852 
L 201.033626 179.013945 
L 206.046776 179.078654 
L 246.553027 179.059042 
L 249.159865 178.881605 
L 250.764073 178.541641 
L 251.766703 178.143279 
L 252.568807 177.619652 
L 253.170385 177.008847 
L 253.771963 176.119634 
L 254.574067 174.484947 
L 255.777223 171.422961 
L 257.581957 166.151973 
L 261.191425 154.817413 
L 266.204574 138.311268 
L 273.42351 113.653143 
L 282.046128 84.335932 
L 286.4577 70.090704 
L 289.866642 59.777595 
L 292.272954 53.114264 
L 294.077688 48.735216 
L 295.280844 46.306884 
L 296.484 44.392917 
L 297.48663 43.192131 
L 298.48926 42.291329 
L 299.692415 41.516956 
L 300.895571 41.013066 
L 303.702935 40.330714 
L 306.309773 39.952139 
L 310.320293 39.626542 
L 316.737125 39.357039 
L 324.758165 39.241906 
L 333.180257 39.344638 
L 342.0034 39.681882 
L 351.227596 40.255097 
L 355.839694 40.724395 
L 357.04285 40.940517 
L 357.443902 41.263476 
L 357.644428 41.68727 
L 357.844954 42.486497 
L 358.246006 45.88934 
L 358.847584 55.148075 
L 359.248636 60.860085 
L 359.649688 63.902059 
L 360.05074 64.988998 
L 360.852844 66.092772 
L 361.253896 67.142816 
L 362.256526 70.901721 
L 363.459682 74.916188 
L 365.665468 82.173977 
L 372.082299 103.94995 
L 382.910703 140.756517 
L 387.322275 154.935295 
L 390.931743 165.838825 
L 393.739107 173.683754 
L 395.142789 177.123274 
L 395.744367 177.909161 
L 396.345945 178.267571 
L 397.348575 178.584314 
L 398.952783 178.83945 
L 401.559621 179.014279 
L 406.57277 179.078678 
L 447.279547 179.053845 
L 449.685859 178.882777 
L 451.290067 178.544126 
L 452.292697 178.147277 
L 453.094801 177.625986 
L 453.696379 177.018092 
L 454.297957 176.132523 
L 455.100061 174.50177 
L 456.303217 171.442594 
L 458.107951 166.173062 
L 461.717419 154.8385 
L 466.730569 138.332147 
L 473.147401 116.435971 
L 473.147401 116.435971 
" clip-path="url(#pb0336e44ee)" style="fill: none; stroke: #bfbf00; stroke-width: 2; stroke-linecap: square"/>
   </g>
   <g id="patch_3">
    <path d="M 52.042813 313.957188 
L 52.042813 26.16 
" style="fill: none; stroke: #000000; stroke-width: 0.8; stroke-linejoin: miter; stroke-linecap: square"/>
   </g>
   <g id="patch_4">
    <path d="M 493.2 313.957188 
L 493.2 26.16 
" style="fill: none; stroke: #000000; stroke-width: 0.8; stroke-linejoin: miter; stroke-linecap: square"/>
   </g>
   <g id="patch_5">
    <path d="M 52.042813 313.957188 
L 493.2 313.957188 
" style="fill: none; stroke: #000000; stroke-width: 0.8; stroke-linejoin: miter; stroke-linecap: square"/>
   </g>
   <g id="patch_6">
    <path d="M 52.042813 26.16 
L 493.2 26.16 
" style="fill: none; stroke: #000000; stroke-width: 0.8; stroke-linejoin: miter; stroke-linecap: square"/>
   </g>
   <g id="text_17">
    <!-- Sine overdrive $V_{out}$, $C_c$=18pF -->
    <g transform="translate(185.801406 20.16) scale(0.12 -0.12)">
     <defs>
      <path id="DejaVuSans-36" d="M 3425 4513 
L 3425 3897 
Q 3066 4069 2747 4153 
Q 2428 4238 2131 4238 
Q 1616 4238 1336 4038 
Q 1056 3838 1056 3469 
Q 1056 3159 1242 3001 
Q 1428 2844 1947 2747 
L 2328 2669 
Q 3034 2534 3370 2195 
Q 3706 1856 3706 1288 
Q 3706 609 3251 259 
Q 2797 -91 1919 -91 
Q 1588 -91 1214 -16 
Q 841 59 441 206 
L 441 856 
Q 825 641 1194 531 
Q 1563 422 1919 422 
Q 2459 422 2753 634 
Q 3047 847 3047 1241 
Q 3047 1584 2836 1778 
Q 2625 1972 2144 2069 
L 1759 2144 
Q 1053 2284 737 2584 
Q 422 2884 422 3419 
Q 422 4038 858 4394 
Q 1294 4750 2059 4750 
Q 2388 4750 2728 4690 
Q 3069 4631 3425 4513 
z
" transform="scale(0.015625)"/>
      <path id="DejaVuSans-51" d="M 3513 2113 
L 3513 0 
L 2938 0 
L 2938 2094 
Q 2938 2591 2744 2837 
Q 2550 3084 2163 3084 
Q 1697 3084 1428 2787 
Q 1159 2491 1159 1978 
L 1159 0 
L 581 0 
L 581 3500 
L 1159 3500 
L 1159 2956 
Q 1366 3272 1645 3428 
Q 1925 3584 2291 3584 
Q 2894 3584 3203 3211 
Q 3513 2838 3513 2113 
z
" transform="scale(0.015625)"/>
      <path id="DejaVuSans-52" d="M 1959 3097 
Q 1497 3097 1228 2736 
Q 959 2375 959 1747 
Q 959 1119 1226 758 
Q 1494 397 1959 397 
Q 2419 397 2687 759 
Q 2956 1122 2956 1747 
Q 2956 2369 2687 2733 
Q 2419 3097 1959 3097 
z
M 1959 3584 
Q 2709 3584 3137 3096 
Q 3566 2609 3566 1747 
Q 3566 888 3137 398 
Q 2709 -91 1959 -91 
Q 1206 -91 779 398 
Q 353 888 353 1747 
Q 353 2609 779 3096 
Q 1206 3584 1959 3584 
z
" transform="scale(0.015625)"/>
      <path id="DejaVuSans-59" d="M 191 3500 
L 800 3500 
L 1894 563 
L 2988 3500 
L 3597 3500 
L 2284 0 
L 1503 0 
L 191 3500 
z
" transform="scale(0.015625)"/>
      <path id="DejaVuSans-55" d="M 2631 2963 
Q 2534 3019 2420 3045 
Q 2306 3072 2169 3072 
Q 1681 3072 1420 2755 
Q 1159 2438 1159 1844 
L 1159 0 
L 581 0 
L 581 3500 
L 1159 3500 
L 1159 2956 
Q 1341 3275 1631 3429 
Q 1922 3584 2338 3584 
Q 2397 3584 2469 3576 
Q 2541 3569 2628 3553 
L 2631 2963 
z
" transform="scale(0.015625)"/>
      <path id="DejaVuSans-47" d="M 2906 2969 
L 2906 4863 
L 3481 4863 
L 3481 0 
L 2906 0 
L 2906 525 
Q 2725 213 2448 61 
Q 2172 -91 1784 -91 
Q 1150 -91 751 415 
Q 353 922 353 1747 
Q 353 2572 751 3078 
Q 1150 3584 1784 3584 
Q 2172 3584 2448 3432 
Q 2725 3281 2906 2969 
z
M 947 1747 
Q 947 1113 1208 752 
Q 1469 391 1925 391 
Q 2381 391 2643 752 
Q 2906 1113 2906 1747 
Q 2906 2381 2643 2742 
Q 2381 3103 1925 3103 
Q 1469 3103 1208 2742 
Q 947 2381 947 1747 
z
" transform="scale(0.015625)"/>
      <path id="DejaVuSans-Oblique-39" d="M 1319 0 
L 500 4666 
L 1119 4666 
L 1797 653 
L 4063 4666 
L 4750 4666 
L 2053 0 
L 1319 0 
z
" transform="scale(0.015625)"/>
      <path id="DejaVuSans-Oblique-52" d="M 1625 -91 
Q 1009 -91 651 289 
Q 294 669 294 1325 
Q 294 1706 417 2101 
Q 541 2497 738 2766 
Q 1047 3184 1428 3384 
Q 1809 3584 2291 3584 
Q 2888 3584 3255 3212 
Q 3622 2841 3622 2241 
Q 3622 1825 3500 1412 
Q 3378 1000 3181 728 
Q 2875 309 2494 109 
Q 2113 -91 1625 -91 
z
M 891 1344 
Q 891 869 1089 633 
Q 1288 397 1691 397 
Q 2269 397 2648 901 
Q 3028 1406 3028 2181 
Q 3028 2634 2825 2865 
Q 2622 3097 2228 3097 
Q 1903 3097 1650 2945 
Q 1397 2794 1197 2484 
Q 1050 2253 970 1956 
Q 891 1659 891 1344 
z
" transform="scale(0.015625)"/>
      <path id="DejaVuSans-Oblique-58" d="M 428 1388 
L 838 3500 
L 1416 3500 
L 1006 1409 
Q 975 1256 961 1147 
Q 947 1038 947 966 
Q 947 700 1109 554 
Q 1272 409 1569 409 
Q 2031 409 2368 721 
Q 2706 1034 2809 1563 
L 3194 3500 
L 3769 3500 
L 3091 0 
L 2516 0 
L 2631 550 
Q 2388 244 2052 76 
Q 1716 -91 1338 -91 
Q 878 -91 622 161 
Q 366 413 366 863 
Q 366 956 381 1097 
Q 397 1238 428 1388 
z
" transform="scale(0.015625)"/>
      <path id="DejaVuSans-Oblique-57" d="M 2706 3500 
L 2619 3053 
L 1472 3053 
L 1100 1153 
Q 1081 1047 1072 975 
Q 1063 903 1063 863 
Q 1063 663 1183 572 
Q 1303 481 1569 481 
L 2150 481 
L 2053 0 
L 1503 0 
Q 991 0 739 200 
Q 488 400 488 806 
Q 488 878 497 964 
Q 506 1050 525 1153 
L 897 3053 
L 409 3053 
L 500 3500 
L 978 3500 
L 1172 4494 
L 1747 4494 
L 1556 3500 
L 2706 3500 
z
" transform="scale(0.015625)"/>
      <path id="DejaVuSans-f" d="M 750 794 
L 1409 794 
L 1409 256 
L 897 -744 
L 494 -744 
L 750 256 
L 750 794 
z
" transform="scale(0.015625)"/>
      <path id="DejaVuSans-Oblique-26" d="M 4447 4306 
L 4319 3641 
Q 4019 3944 3683 4091 
Q 3347 4238 2956 4238 
Q 2422 4238 2017 3981 
Q 1613 3725 1319 3200 
Q 1131 2863 1032 2486 
Q 934 2109 934 1728 
Q 934 1091 1264 756 
Q 1594 422 2222 422 
Q 2656 422 3056 561 
Q 3456 700 3834 978 
L 3688 231 
Q 3316 72 2936 -9 
Q 2556 -91 2175 -91 
Q 1278 -91 773 396 
Q 269 884 269 1753 
Q 269 2309 461 2846 
Q 653 3384 1013 3828 
Q 1394 4300 1883 4525 
Q 2372 4750 3022 4750 
Q 3422 4750 3780 4639 
Q 4138 4528 4447 4306 
z
" transform="scale(0.015625)"/>
      <path id="DejaVuSans-Oblique-46" d="M 3431 3366 
L 3316 2797 
Q 3109 2947 2876 3022 
Q 2644 3097 2394 3097 
Q 2119 3097 1870 3000 
Q 1622 2903 1453 2725 
Q 1184 2453 1037 2087 
Q 891 1722 891 1331 
Q 891 859 1127 628 
Q 1363 397 1844 397 
Q 2081 397 2348 469 
Q 2616 541 2906 684 
L 2797 116 
Q 2547 13 2283 -39 
Q 2019 -91 1741 -91 
Q 1044 -91 669 257 
Q 294 606 294 1253 
Q 294 1797 489 2255 
Q 684 2713 1069 3078 
Q 1331 3328 1684 3456 
Q 2038 3584 2456 3584 
Q 2700 3584 2940 3529 
Q 3181 3475 3431 3366 
z
" transform="scale(0.015625)"/>
      <path id="DejaVuSans-20" d="M 678 2906 
L 4684 2906 
L 4684 2381 
L 678 2381 
L 678 2906 
z
M 678 1631 
L 4684 1631 
L 4684 1100 
L 678 1100 
L 678 1631 
z
" transform="scale(0.015625)"/>
      <path id="DejaVuSans-1b" d="M 2034 2216 
Q 1584 2216 1326 1975 
Q 1069 1734 1069 1313 
Q 1069 891 1326 650 
Q 1584 409 2034 409 
Q 2484 409 2743 651 
Q 3003 894 3003 1313 
Q 3003 1734 2745 1975 
Q 2488 2216 2034 2216 
z
M 1403 2484 
Q 997 2584 770 2862 
Q 544 3141 544 3541 
Q 544 4100 942 4425 
Q 1341 4750 2034 4750 
Q 2731 4750 3128 4425 
Q 3525 4100 3525 3541 
Q 3525 3141 3298 2862 
Q 3072 2584 2669 2484 
Q 3125 2378 3379 2068 
Q 3634 1759 3634 1313 
Q 3634 634 3220 271 
Q 2806 -91 2034 -91 
Q 1263 -91 848 271 
Q 434 634 434 1313 
Q 434 1759 690 2068 
Q 947 2378 1403 2484 
z
M 1172 3481 
Q 1172 3119 1398 2916 
Q 1625 2713 2034 2713 
Q 2441 2713 2670 2916 
Q 2900 3119 2900 3481 
Q 2900 3844 2670 4047 
Q 2441 4250 2034 4250 
Q 1625 4250 1398 4047 
Q 1172 3844 1172 3481 
z
" transform="scale(0.015625)"/>
      <path id="DejaVuSans-53" d="M 1159 525 
L 1159 -1331 
L 581 -1331 
L 581 3500 
L 1159 3500 
L 1159 2969 
Q 1341 3281 1617 3432 
Q 1894 3584 2278 3584 
Q 2916 3584 3314 3078 
Q 3713 2572 3713 1747 
Q 3713 922 3314 415 
Q 2916 -91 2278 -91 
Q 1894 -91 1617 61 
Q 1341 213 1159 525 
z
M 3116 1747 
Q 3116 2381 2855 2742 
Q 2594 3103 2138 3103 
Q 1681 3103 1420 2742 
Q 1159 2381 1159 1747 
Q 1159 1113 1420 752 
Q 1681 391 2138 391 
Q 2594 391 2855 752 
Q 3116 1113 3116 1747 
z
" transform="scale(0.015625)"/>
      <path id="DejaVuSans-29" d="M 628 4666 
L 3309 4666 
L 3309 4134 
L 1259 4134 
L 1259 2759 
L 3109 2759 
L 3109 2228 
L 1259 2228 
L 1259 0 
L 628 0 
L 628 4666 
z
" transform="scale(0.015625)"/>
     </defs>
     <use xlink:href="#DejaVuSans-36" transform="translate(0 0.015625)"/>
     <use xlink:href="#DejaVuSans-4c" transform="translate(63.476562 0.015625)"/>
     <use xlink:href="#DejaVuSans-51" transform="translate(91.259766 0.015625)"/>
     <use xlink:href="#DejaVuSans-48" transform="translate(154.638672 0.015625)"/>
     <use xlink:href="#DejaVuSans-3" transform="translate(216.162109 0.015625)"/>
     <use xlink:href="#DejaVuSans-52" transform="translate(247.949219 0.015625)"/>
     <use xlink:href="#DejaVuSans-59" transform="translate(309.130859 0.015625)"/>
     <use xlink:href="#DejaVuSans-48" transform="translate(368.310547 0.015625)"/>
     <use xlink:href="#DejaVuSans-55" transform="translate(429.833984 0.015625)"/>
     <use xlink:href="#DejaVuSans-47" transform="translate(468.947266 0.015625)"/>
     <use xlink:href="#DejaVuSans-55" transform="translate(532.423828 0.015625)"/>
     <use xlink:href="#DejaVuSans-4c" transform="translate(573.537109 0.015625)"/>
     <use xlink:href="#DejaVuSans-59" transform="translate(601.320312 0.015625)"/>
     <use xlink:href="#DejaVuSans-48" transform="translate(660.5 0.015625)"/>
     <use xlink:href="#DejaVuSans-3" transform="translate(722.023438 0.015625)"/>
     <use xlink:href="#DejaVuSans-Oblique-39" transform="translate(753.810547 0.015625)"/>
     <use xlink:href="#DejaVuSans-Oblique-52" transform="translate(822.21875 -14.984326) scale(0.7)"/>
     <use xlink:href="#DejaVuSans-Oblique-58" transform="translate(865.045898 -14.984326) scale(0.7)"/>
     <use xlink:href="#DejaVuSans-Oblique-57" transform="translate(909.411133 -14.984326) scale(0.7)"/>
     <use xlink:href="#DejaVuSans-f" transform="translate(939.591797 0.015625)"/>
     <use xlink:href="#DejaVuSans-3" transform="translate(971.378906 0.015625)"/>
     <use xlink:href="#DejaVuSans-Oblique-26" transform="translate(1003.166016 0.015625)"/>
     <use xlink:href="#DejaVuSans-Oblique-46" transform="translate(1072.990234 -14.984326) scale(0.7)"/>
     <use xlink:href="#DejaVuSans-20" transform="translate(1114.210938 0.015625)"/>
     <use xlink:href="#DejaVuSans-14" transform="translate(1198 0.015625)"/>
     <use xlink:href="#DejaVuSans-1b" transform="translate(1261.623047 0.015625)"/>
     <use xlink:href="#DejaVuSans-53" transform="translate(1325.246094 0.015625)"/>
     <use xlink:href="#DejaVuSans-29" transform="translate(1388.722656 0.015625)"/>
    </g>
   </g>
   <g id="legend_1">
    <g id="patch_7">
     <path d="M 393.2 107.165625 
L 486.2 107.165625 
Q 488.2 107.165625 488.2 105.165625 
L 488.2 33.16 
Q 488.2 31.16 486.2 31.16 
L 393.2 31.16 
Q 391.2 31.16 391.2 33.16 
L 391.2 105.165625 
Q 391.2 107.165625 393.2 107.165625 
z
" style="fill: #ffffff; opacity: 0.8; stroke: #cccccc; stroke-linejoin: miter"/>
    </g>
    <g id="line2d_35">
     <path d="M 393.2 38.778125 
L 398.2 38.778125 
L 403.2 38.778125 
" style="fill: none; stroke: #ff0000; stroke-width: 2; stroke-linecap: square"/>
    </g>
    <g id="text_18">
     <!-- $V_{out}$  V_p=0.5 -->
     <g transform="translate(405.2 42.278125) scale(0.12 -0.12)">
      <defs>
       <path id="DejaVuSans-42" d="M 3263 -1063 
L 3263 -1509 
L -63 -1509 
L -63 -1063 
L 3263 -1063 
z
" transform="scale(0.015625)"/>
      </defs>
      <use xlink:href="#DejaVuSans-Oblique-39" transform="translate(0 0.78125)"/>
      <use xlink:href="#DejaVuSans-Oblique-52" transform="translate(68.408203 -14.218701) scale(0.7)"/>
      <use xlink:href="#DejaVuSans-Oblique-58" transform="translate(111.235352 -14.218701) scale(0.7)"/>
      <use xlink:href="#DejaVuSans-Oblique-57" transform="translate(155.600586 -14.218701) scale(0.7)"/>
      <use xlink:href="#DejaVuSans-3" transform="translate(185.78125 0.78125)"/>
      <use xlink:href="#DejaVuSans-3" transform="translate(217.568359 0.78125)"/>
      <use xlink:href="#DejaVuSans-39" transform="translate(249.355469 0.78125)"/>
      <use xlink:href="#DejaVuSans-42" transform="translate(317.763672 0.78125)"/>
      <use xlink:href="#DejaVuSans-53" transform="translate(367.763672 0.78125)"/>
      <use xlink:href="#DejaVuSans-20" transform="translate(431.240234 0.78125)"/>
      <use xlink:href="#DejaVuSans-13" transform="translate(515.029297 0.78125)"/>
      <use xlink:href="#DejaVuSans-11" transform="translate(578.652344 0.78125)"/>
      <use xlink:href="#DejaVuSans-18" transform="translate(610.439453 0.78125)"/>
     </g>
    </g>
    <g id="line2d_36">
     <path d="M 393.2 50.779062 
L 398.2 50.779062 
L 403.2 50.779062 
" style="fill: none; stroke: #0000ff; stroke-width: 2; stroke-linecap: square"/>
    </g>
    <g id="text_19">
     <!-- $V_{out}$  V_p=1 -->
     <g transform="translate(405.2 54.279062) scale(0.12 -0.12)">
      <use xlink:href="#DejaVuSans-Oblique-39" transform="translate(0 0.09375)"/>
      <use xlink:href="#DejaVuSans-Oblique-52" transform="translate(68.408203 -14.906201) scale(0.7)"/>
      <use xlink:href="#DejaVuSans-Oblique-58" transform="translate(111.235352 -14.906201) scale(0.7)"/>
      <use xlink:href="#DejaVuSans-Oblique-57" transform="translate(155.600586 -14.906201) scale(0.7)"/>
      <use xlink:href="#DejaVuSans-3" transform="translate(185.78125 0.09375)"/>
      <use xlink:href="#DejaVuSans-3" transform="translate(217.568359 0.09375)"/>
      <use xlink:href="#DejaVuSans-39" transform="translate(249.355469 0.09375)"/>
      <use xlink:href="#DejaVuSans-42" transform="translate(317.763672 0.09375)"/>
      <use xlink:href="#DejaVuSans-53" transform="translate(367.763672 0.09375)"/>
      <use xlink:href="#DejaVuSans-20" transform="translate(431.240234 0.09375)"/>
      <use xlink:href="#DejaVuSans-14" transform="translate(515.029297 0.09375)"/>
     </g>
    </g>
    <g id="line2d_37">
     <path d="M 393.2 62.78 
L 398.2 62.78 
L 403.2 62.78 
" style="fill: none; stroke: #008000; stroke-width: 2; stroke-linecap: square"/>
    </g>
    <g id="text_20">
     <!-- $V_{in}$  V_p=0.5 -->
     <g transform="translate(405.2 66.28) scale(0.12 -0.12)">
      <defs>
       <path id="DejaVuSans-Oblique-4c" d="M 1172 4863 
L 1747 4863 
L 1606 4134 
L 1031 4134 
L 1172 4863 
z
M 909 3500 
L 1484 3500 
L 800 0 
L 225 0 
L 909 3500 
z
" transform="scale(0.015625)"/>
       <path id="DejaVuSans-Oblique-51" d="M 3566 2113 
L 3156 0 
L 2578 0 
L 2988 2091 
Q 3016 2238 3031 2350 
Q 3047 2463 3047 2528 
Q 3047 2791 2881 2937 
Q 2716 3084 2419 3084 
Q 1956 3084 1622 2776 
Q 1288 2469 1184 1941 
L 800 0 
L 225 0 
L 903 3500 
L 1478 3500 
L 1363 2950 
Q 1603 3253 1940 3418 
Q 2278 3584 2650 3584 
Q 3113 3584 3367 3334 
Q 3622 3084 3622 2631 
Q 3622 2519 3608 2391 
Q 3594 2263 3566 2113 
z
" transform="scale(0.015625)"/>
      </defs>
      <use xlink:href="#DejaVuSans-Oblique-39" transform="translate(0 0.78125)"/>
      <use xlink:href="#DejaVuSans-Oblique-4c" transform="translate(68.408203 -14.218701) scale(0.7)"/>
      <use xlink:href="#DejaVuSans-Oblique-51" transform="translate(87.856445 -14.218701) scale(0.7)"/>
      <use xlink:href="#DejaVuSans-3" transform="translate(134.956055 0.78125)"/>
      <use xlink:href="#DejaVuSans-3" transform="translate(166.743164 0.78125)"/>
      <use xlink:href="#DejaVuSans-39" transform="translate(198.530273 0.78125)"/>
      <use xlink:href="#DejaVuSans-42" transform="translate(266.938477 0.78125)"/>
      <use xlink:href="#DejaVuSans-53" transform="translate(316.938477 0.78125)"/>
      <use xlink:href="#DejaVuSans-20" transform="translate(380.415039 0.78125)"/>
      <use xlink:href="#DejaVuSans-13" transform="translate(464.204102 0.78125)"/>
      <use xlink:href="#DejaVuSans-11" transform="translate(527.827148 0.78125)"/>
      <use xlink:href="#DejaVuSans-18" transform="translate(559.614258 0.78125)"/>
     </g>
    </g>
    <g id="line2d_38">
     <path d="M 393.2 74.780937 
L 398.2 74.780937 
L 403.2 74.780937 
" style="fill: none; stroke: #00bfbf; stroke-width: 2; stroke-linecap: square"/>
    </g>
    <g id="text_21">
     <!-- $V_{in}$  V_p=1 -->
     <g transform="translate(405.2 78.280937) scale(0.12 -0.12)">
      <use xlink:href="#DejaVuSans-Oblique-39" transform="translate(0 0.09375)"/>
      <use xlink:href="#DejaVuSans-Oblique-4c" transform="translate(68.408203 -14.906201) scale(0.7)"/>
      <use xlink:href="#DejaVuSans-Oblique-51" transform="translate(87.856445 -14.906201) scale(0.7)"/>
      <use xlink:href="#DejaVuSans-3" transform="translate(134.956055 0.09375)"/>
      <use xlink:href="#DejaVuSans-3" transform="translate(166.743164 0.09375)"/>
      <use xlink:href="#DejaVuSans-39" transform="translate(198.530273 0.09375)"/>
      <use xlink:href="#DejaVuSans-42" transform="translate(266.938477 0.09375)"/>
      <use xlink:href="#DejaVuSans-53" transform="translate(316.938477 0.09375)"/>
      <use xlink:href="#DejaVuSans-20" transform="translate(380.415039 0.09375)"/>
      <use xlink:href="#DejaVuSans-14" transform="translate(464.204102 0.09375)"/>
     </g>
    </g>
    <g id="line2d_39">
     <path d="M 393.2 86.781875 
L 398.2 86.781875 
L 403.2 86.781875 
" style="fill: none; stroke: #bf00bf; stroke-width: 2; stroke-linecap: square"/>
    </g>
    <g id="text_22">
     <!-- $V_{c2}$  V_p=0.5 -->
     <g transform="translate(405.2 90.281875) scale(0.12 -0.12)">
      <use xlink:href="#DejaVuSans-Oblique-39" transform="translate(0 0.78125)"/>
      <use xlink:href="#DejaVuSans-Oblique-46" transform="translate(68.408203 -14.218701) scale(0.7)"/>
      <use xlink:href="#DejaVuSans-15" transform="translate(106.894531 -14.218701) scale(0.7)"/>
      <use xlink:href="#DejaVuSans-3" transform="translate(154.165039 0.78125)"/>
      <use xlink:href="#DejaVuSans-3" transform="translate(185.952148 0.78125)"/>
      <use xlink:href="#DejaVuSans-39" transform="translate(217.739258 0.78125)"/>
      <use xlink:href="#DejaVuSans-42" transform="translate(286.147461 0.78125)"/>
      <use xlink:href="#DejaVuSans-53" transform="translate(336.147461 0.78125)"/>
      <use xlink:href="#DejaVuSans-20" transform="translate(399.624023 0.78125)"/>
      <use xlink:href="#DejaVuSans-13" transform="translate(483.413086 0.78125)"/>
      <use xlink:href="#DejaVuSans-11" transform="translate(547.036133 0.78125)"/>
      <use xlink:href="#DejaVuSans-18" transform="translate(578.823242 0.78125)"/>
     </g>
    </g>
    <g id="line2d_40">
     <path d="M 393.2 98.782812 
L 398.2 98.782812 
L 403.2 98.782812 
" style="fill: none; stroke: #bfbf00; stroke-width: 2; stroke-linecap: square"/>
    </g>
    <g id="text_23">
     <!-- $V_{c2}$  V_p=1 -->
     <g transform="translate(405.2 102.282812) scale(0.12 -0.12)">
      <use xlink:href="#DejaVuSans-Oblique-39" transform="translate(0 0.09375)"/>
      <use xlink:href="#DejaVuSans-Oblique-46" transform="translate(68.408203 -14.906201) scale(0.7)"/>
      <use xlink:href="#DejaVuSans-15" transform="translate(106.894531 -14.906201) scale(0.7)"/>
      <use xlink:href="#DejaVuSans-3" transform="translate(154.165039 0.09375)"/>
      <use xlink:href="#DejaVuSans-3" transform="translate(185.952148 0.09375)"/>
      <use xlink:href="#DejaVuSans-39" transform="translate(217.739258 0.09375)"/>
      <use xlink:href="#DejaVuSans-42" transform="translate(286.147461 0.09375)"/>
      <use xlink:href="#DejaVuSans-53" transform="translate(336.147461 0.09375)"/>
      <use xlink:href="#DejaVuSans-20" transform="translate(399.624023 0.09375)"/>
      <use xlink:href="#DejaVuSans-14" transform="translate(483.413086 0.09375)"/>
     </g>
    </g>
   </g>
  </g>
 </g>
 <defs>
  <clipPath id="pb0336e44ee">
   <rect x="52.042813" y="26.16" width="441.157187" height="287.797188"/>
  </clipPath>
 </defs>
</svg>
