<?xml version="1.0" encoding="utf-8" standalone="no"?>
<!DOCTYPE svg PUBLIC "-//W3C//DTD SVG 1.1//EN"
  "http://www.w3.org/Graphics/SVG/1.1/DTD/svg11.dtd">
<svg xmlns:xlink="http://www.w3.org/1999/xlink" width="504pt" height="360pt" viewBox="0 0 504 360" xmlns="http://www.w3.org/2000/svg" version="1.1">
 <metadata>
  <rdf:RDF xmlns:dc="http://purl.org/dc/elements/1.1/" xmlns:cc="http://creativecommons.org/ns#" xmlns:rdf="http://www.w3.org/1999/02/22-rdf-syntax-ns#">
   <cc:Work>
    <dc:type rdf:resource="http://purl.org/dc/dcmitype/StillImage"/>
    <dc:date>2025-09-06T12:32:01.785523</dc:date>
    <dc:format>image/svg+xml</dc:format>
    <dc:creator>
     <cc:Agent>
      <dc:title>Matplotlib v3.9.2, https://matplotlib.org/</dc:title>
     </cc:Agent>
    </dc:creator>
   </cc:Work>
  </rdf:RDF>
 </metadata>
 <defs>
  <style type="text/css">*{stroke-linejoin: round; stroke-linecap: butt}</style>
 </defs>
 <g id="figure_1">
  <g id="patch_1">
   <path d="M 0 360 
L 504 360 
L 504 0 
L 0 0 
z
" style="fill: #ffffff"/>
  </g>
  <g id="axes_1">
   <g id="patch_2">
    <path d="M 46.55 318.2 
L 493.2 318.2 
L 493.2 26.8 
L 46.55 26.8 
z
" style="fill: #ffffff"/>
   </g>
   <g id="matplotlib.axis_1">
    <g id="xtick_1">
     <g id="line2d_1">
      <path d="M 66.852273 318.2 
L 66.852273 26.8 
" clip-path="url(#p2ac2c39aa3)" style="fill: none; stroke: #808080; stroke-width: 0.8; stroke-linecap: square"/>
     </g>
     <g id="line2d_2">
      <defs>
       <path id="m888bac7bcc" d="M 0 0 
L 0 3.5 
" style="stroke: #000000; stroke-width: 0.8"/>
      </defs>
      <g>
       <use xlink:href="#m888bac7bcc" x="66.852273" y="318.2" style="stroke: #000000; stroke-width: 0.8"/>
      </g>
     </g>
     <g id="text_1">
      <!-- 0.00 -->
      <g transform="translate(53.492898 334.318125) scale(0.12 -0.12)">
       <defs>
        <path id="DejaVuSans-30" d="M 2034 4250 
Q 1547 4250 1301 3770 
Q 1056 3291 1056 2328 
Q 1056 1369 1301 889 
Q 1547 409 2034 409 
Q 2525 409 2770 889 
Q 3016 1369 3016 2328 
Q 3016 3291 2770 3770 
Q 2525 4250 2034 4250 
z
M 2034 4750 
Q 2819 4750 3233 4129 
Q 3647 3509 3647 2328 
Q 3647 1150 3233 529 
Q 2819 -91 2034 -91 
Q 1250 -91 836 529 
Q 422 1150 422 2328 
Q 422 3509 836 4129 
Q 1250 4750 2034 4750 
z
" transform="scale(0.015625)"/>
        <path id="DejaVuSans-2e" d="M 684 794 
L 1344 794 
L 1344 0 
L 684 0 
L 684 794 
z
" transform="scale(0.015625)"/>
       </defs>
       <use xlink:href="#DejaVuSans-30"/>
       <use xlink:href="#DejaVuSans-2e" x="63.623047"/>
       <use xlink:href="#DejaVuSans-30" x="95.410156"/>
       <use xlink:href="#DejaVuSans-30" x="159.033203"/>
      </g>
     </g>
    </g>
    <g id="xtick_2">
     <g id="line2d_3">
      <path d="M 117.607955 318.2 
L 117.607955 26.8 
" clip-path="url(#p2ac2c39aa3)" style="fill: none; stroke: #808080; stroke-width: 0.8; stroke-linecap: square"/>
     </g>
     <g id="line2d_4">
      <g>
       <use xlink:href="#m888bac7bcc" x="117.607955" y="318.2" style="stroke: #000000; stroke-width: 0.8"/>
      </g>
     </g>
     <g id="text_2">
      <!-- 0.25 -->
      <g transform="translate(104.24858 334.318125) scale(0.12 -0.12)">
       <defs>
        <path id="DejaVuSans-32" d="M 1228 531 
L 3431 531 
L 3431 0 
L 469 0 
L 469 531 
Q 828 903 1448 1529 
Q 2069 2156 2228 2338 
Q 2531 2678 2651 2914 
Q 2772 3150 2772 3378 
Q 2772 3750 2511 3984 
Q 2250 4219 1831 4219 
Q 1534 4219 1204 4116 
Q 875 4013 500 3803 
L 500 4441 
Q 881 4594 1212 4672 
Q 1544 4750 1819 4750 
Q 2544 4750 2975 4387 
Q 3406 4025 3406 3419 
Q 3406 3131 3298 2873 
Q 3191 2616 2906 2266 
Q 2828 2175 2409 1742 
Q 1991 1309 1228 531 
z
" transform="scale(0.015625)"/>
        <path id="DejaVuSans-35" d="M 691 4666 
L 3169 4666 
L 3169 4134 
L 1269 4134 
L 1269 2991 
Q 1406 3038 1543 3061 
Q 1681 3084 1819 3084 
Q 2600 3084 3056 2656 
Q 3513 2228 3513 1497 
Q 3513 744 3044 326 
Q 2575 -91 1722 -91 
Q 1428 -91 1123 -41 
Q 819 9 494 109 
L 494 744 
Q 775 591 1075 516 
Q 1375 441 1709 441 
Q 2250 441 2565 725 
Q 2881 1009 2881 1497 
Q 2881 1984 2565 2268 
Q 2250 2553 1709 2553 
Q 1456 2553 1204 2497 
Q 953 2441 691 2322 
L 691 4666 
z
" transform="scale(0.015625)"/>
       </defs>
       <use xlink:href="#DejaVuSans-30"/>
       <use xlink:href="#DejaVuSans-2e" x="63.623047"/>
       <use xlink:href="#DejaVuSans-32" x="95.410156"/>
       <use xlink:href="#DejaVuSans-35" x="159.033203"/>
      </g>
     </g>
    </g>
    <g id="xtick_3">
     <g id="line2d_5">
      <path d="M 168.363636 318.2 
L 168.363636 26.8 
" clip-path="url(#p2ac2c39aa3)" style="fill: none; stroke: #808080; stroke-width: 0.8; stroke-linecap: square"/>
     </g>
     <g id="line2d_6">
      <g>
       <use xlink:href="#m888bac7bcc" x="168.363636" y="318.2" style="stroke: #000000; stroke-width: 0.8"/>
      </g>
     </g>
     <g id="text_3">
      <!-- 0.50 -->
      <g transform="translate(155.004261 334.318125) scale(0.12 -0.12)">
       <use xlink:href="#DejaVuSans-30"/>
       <use xlink:href="#DejaVuSans-2e" x="63.623047"/>
       <use xlink:href="#DejaVuSans-35" x="95.410156"/>
       <use xlink:href="#DejaVuSans-30" x="159.033203"/>
      </g>
     </g>
    </g>
    <g id="xtick_4">
     <g id="line2d_7">
      <path d="M 219.119318 318.2 
L 219.119318 26.8 
" clip-path="url(#p2ac2c39aa3)" style="fill: none; stroke: #808080; stroke-width: 0.8; stroke-linecap: square"/>
     </g>
     <g id="line2d_8">
      <g>
       <use xlink:href="#m888bac7bcc" x="219.119318" y="318.2" style="stroke: #000000; stroke-width: 0.8"/>
      </g>
     </g>
     <g id="text_4">
      <!-- 0.75 -->
      <g transform="translate(205.759943 334.318125) scale(0.12 -0.12)">
       <defs>
        <path id="DejaVuSans-37" d="M 525 4666 
L 3525 4666 
L 3525 4397 
L 1831 0 
L 1172 0 
L 2766 4134 
L 525 4134 
L 525 4666 
z
" transform="scale(0.015625)"/>
       </defs>
       <use xlink:href="#DejaVuSans-30"/>
       <use xlink:href="#DejaVuSans-2e" x="63.623047"/>
       <use xlink:href="#DejaVuSans-37" x="95.410156"/>
       <use xlink:href="#DejaVuSans-35" x="159.033203"/>
      </g>
     </g>
    </g>
    <g id="xtick_5">
     <g id="line2d_9">
      <path d="M 269.875 318.2 
L 269.875 26.8 
" clip-path="url(#p2ac2c39aa3)" style="fill: none; stroke: #808080; stroke-width: 0.8; stroke-linecap: square"/>
     </g>
     <g id="line2d_10">
      <g>
       <use xlink:href="#m888bac7bcc" x="269.875" y="318.2" style="stroke: #000000; stroke-width: 0.8"/>
      </g>
     </g>
     <g id="text_5">
      <!-- 1.00 -->
      <g transform="translate(256.515625 334.318125) scale(0.12 -0.12)">
       <defs>
        <path id="DejaVuSans-31" d="M 794 531 
L 1825 531 
L 1825 4091 
L 703 3866 
L 703 4441 
L 1819 4666 
L 2450 4666 
L 2450 531 
L 3481 531 
L 3481 0 
L 794 0 
L 794 531 
z
" transform="scale(0.015625)"/>
       </defs>
       <use xlink:href="#DejaVuSans-31"/>
       <use xlink:href="#DejaVuSans-2e" x="63.623047"/>
       <use xlink:href="#DejaVuSans-30" x="95.410156"/>
       <use xlink:href="#DejaVuSans-30" x="159.033203"/>
      </g>
     </g>
    </g>
    <g id="xtick_6">
     <g id="line2d_11">
      <path d="M 320.630682 318.2 
L 320.630682 26.8 
" clip-path="url(#p2ac2c39aa3)" style="fill: none; stroke: #808080; stroke-width: 0.8; stroke-linecap: square"/>
     </g>
     <g id="line2d_12">
      <g>
       <use xlink:href="#m888bac7bcc" x="320.630682" y="318.2" style="stroke: #000000; stroke-width: 0.8"/>
      </g>
     </g>
     <g id="text_6">
      <!-- 1.25 -->
      <g transform="translate(307.271307 334.318125) scale(0.12 -0.12)">
       <use xlink:href="#DejaVuSans-31"/>
       <use xlink:href="#DejaVuSans-2e" x="63.623047"/>
       <use xlink:href="#DejaVuSans-32" x="95.410156"/>
       <use xlink:href="#DejaVuSans-35" x="159.033203"/>
      </g>
     </g>
    </g>
    <g id="xtick_7">
     <g id="line2d_13">
      <path d="M 371.386364 318.2 
L 371.386364 26.8 
" clip-path="url(#p2ac2c39aa3)" style="fill: none; stroke: #808080; stroke-width: 0.8; stroke-linecap: square"/>
     </g>
     <g id="line2d_14">
      <g>
       <use xlink:href="#m888bac7bcc" x="371.386364" y="318.2" style="stroke: #000000; stroke-width: 0.8"/>
      </g>
     </g>
     <g id="text_7">
      <!-- 1.50 -->
      <g transform="translate(358.026989 334.318125) scale(0.12 -0.12)">
       <use xlink:href="#DejaVuSans-31"/>
       <use xlink:href="#DejaVuSans-2e" x="63.623047"/>
       <use xlink:href="#DejaVuSans-35" x="95.410156"/>
       <use xlink:href="#DejaVuSans-30" x="159.033203"/>
      </g>
     </g>
    </g>
    <g id="xtick_8">
     <g id="line2d_15">
      <path d="M 422.142045 318.2 
L 422.142045 26.8 
" clip-path="url(#p2ac2c39aa3)" style="fill: none; stroke: #808080; stroke-width: 0.8; stroke-linecap: square"/>
     </g>
     <g id="line2d_16">
      <g>
       <use xlink:href="#m888bac7bcc" x="422.142045" y="318.2" style="stroke: #000000; stroke-width: 0.8"/>
      </g>
     </g>
     <g id="text_8">
      <!-- 1.75 -->
      <g transform="translate(408.78267 334.318125) scale(0.12 -0.12)">
       <use xlink:href="#DejaVuSans-31"/>
       <use xlink:href="#DejaVuSans-2e" x="63.623047"/>
       <use xlink:href="#DejaVuSans-37" x="95.410156"/>
       <use xlink:href="#DejaVuSans-35" x="159.033203"/>
      </g>
     </g>
    </g>
    <g id="xtick_9">
     <g id="line2d_17">
      <path d="M 472.897727 318.2 
L 472.897727 26.8 
" clip-path="url(#p2ac2c39aa3)" style="fill: none; stroke: #808080; stroke-width: 0.8; stroke-linecap: square"/>
     </g>
     <g id="line2d_18">
      <g>
       <use xlink:href="#m888bac7bcc" x="472.897727" y="318.2" style="stroke: #000000; stroke-width: 0.8"/>
      </g>
     </g>
     <g id="text_9">
      <!-- 2.00 -->
      <g transform="translate(459.538352 334.318125) scale(0.12 -0.12)">
       <use xlink:href="#DejaVuSans-32"/>
       <use xlink:href="#DejaVuSans-2e" x="63.623047"/>
       <use xlink:href="#DejaVuSans-30" x="95.410156"/>
       <use xlink:href="#DejaVuSans-30" x="159.033203"/>
      </g>
     </g>
    </g>
    <g id="text_10">
     <!-- time [us] -->
     <g transform="translate(242.802813 349.931875) scale(0.12 -0.12)">
      <defs>
       <path id="DejaVuSans-74" d="M 1172 4494 
L 1172 3500 
L 2356 3500 
L 2356 3053 
L 1172 3053 
L 1172 1153 
Q 1172 725 1289 603 
Q 1406 481 1766 481 
L 2356 481 
L 2356 0 
L 1766 0 
Q 1100 0 847 248 
Q 594 497 594 1153 
L 594 3053 
L 172 3053 
L 172 3500 
L 594 3500 
L 594 4494 
L 1172 4494 
z
" transform="scale(0.015625)"/>
       <path id="DejaVuSans-69" d="M 603 3500 
L 1178 3500 
L 1178 0 
L 603 0 
L 603 3500 
z
M 603 4863 
L 1178 4863 
L 1178 4134 
L 603 4134 
L 603 4863 
z
" transform="scale(0.015625)"/>
       <path id="DejaVuSans-6d" d="M 3328 2828 
Q 3544 3216 3844 3400 
Q 4144 3584 4550 3584 
Q 5097 3584 5394 3201 
Q 5691 2819 5691 2113 
L 5691 0 
L 5113 0 
L 5113 2094 
Q 5113 2597 4934 2840 
Q 4756 3084 4391 3084 
Q 3944 3084 3684 2787 
Q 3425 2491 3425 1978 
L 3425 0 
L 2847 0 
L 2847 2094 
Q 2847 2600 2669 2842 
Q 2491 3084 2119 3084 
Q 1678 3084 1418 2786 
Q 1159 2488 1159 1978 
L 1159 0 
L 581 0 
L 581 3500 
L 1159 3500 
L 1159 2956 
Q 1356 3278 1631 3431 
Q 1906 3584 2284 3584 
Q 2666 3584 2933 3390 
Q 3200 3197 3328 2828 
z
" transform="scale(0.015625)"/>
       <path id="DejaVuSans-65" d="M 3597 1894 
L 3597 1613 
L 953 1613 
Q 991 1019 1311 708 
Q 1631 397 2203 397 
Q 2534 397 2845 478 
Q 3156 559 3463 722 
L 3463 178 
Q 3153 47 2828 -22 
Q 2503 -91 2169 -91 
Q 1331 -91 842 396 
Q 353 884 353 1716 
Q 353 2575 817 3079 
Q 1281 3584 2069 3584 
Q 2775 3584 3186 3129 
Q 3597 2675 3597 1894 
z
M 3022 2063 
Q 3016 2534 2758 2815 
Q 2500 3097 2075 3097 
Q 1594 3097 1305 2825 
Q 1016 2553 972 2059 
L 3022 2063 
z
" transform="scale(0.015625)"/>
       <path id="DejaVuSans-20" transform="scale(0.015625)"/>
       <path id="DejaVuSans-5b" d="M 550 4863 
L 1875 4863 
L 1875 4416 
L 1125 4416 
L 1125 -397 
L 1875 -397 
L 1875 -844 
L 550 -844 
L 550 4863 
z
" transform="scale(0.015625)"/>
       <path id="DejaVuSans-75" d="M 544 1381 
L 544 3500 
L 1119 3500 
L 1119 1403 
Q 1119 906 1312 657 
Q 1506 409 1894 409 
Q 2359 409 2629 706 
Q 2900 1003 2900 1516 
L 2900 3500 
L 3475 3500 
L 3475 0 
L 2900 0 
L 2900 538 
Q 2691 219 2414 64 
Q 2138 -91 1772 -91 
Q 1169 -91 856 284 
Q 544 659 544 1381 
z
M 1991 3584 
L 1991 3584 
z
" transform="scale(0.015625)"/>
       <path id="DejaVuSans-73" d="M 2834 3397 
L 2834 2853 
Q 2591 2978 2328 3040 
Q 2066 3103 1784 3103 
Q 1356 3103 1142 2972 
Q 928 2841 928 2578 
Q 928 2378 1081 2264 
Q 1234 2150 1697 2047 
L 1894 2003 
Q 2506 1872 2764 1633 
Q 3022 1394 3022 966 
Q 3022 478 2636 193 
Q 2250 -91 1575 -91 
Q 1294 -91 989 -36 
Q 684 19 347 128 
L 347 722 
Q 666 556 975 473 
Q 1284 391 1588 391 
Q 1994 391 2212 530 
Q 2431 669 2431 922 
Q 2431 1156 2273 1281 
Q 2116 1406 1581 1522 
L 1381 1569 
Q 847 1681 609 1914 
Q 372 2147 372 2553 
Q 372 3047 722 3315 
Q 1072 3584 1716 3584 
Q 2034 3584 2315 3537 
Q 2597 3491 2834 3397 
z
" transform="scale(0.015625)"/>
       <path id="DejaVuSans-5d" d="M 1947 4863 
L 1947 -844 
L 622 -844 
L 622 -397 
L 1369 -397 
L 1369 4416 
L 622 4416 
L 622 4863 
L 1947 4863 
z
" transform="scale(0.015625)"/>
      </defs>
      <use xlink:href="#DejaVuSans-74"/>
      <use xlink:href="#DejaVuSans-69" x="39.208984"/>
      <use xlink:href="#DejaVuSans-6d" x="66.992188"/>
      <use xlink:href="#DejaVuSans-65" x="164.404297"/>
      <use xlink:href="#DejaVuSans-20" x="225.927734"/>
      <use xlink:href="#DejaVuSans-5b" x="257.714844"/>
      <use xlink:href="#DejaVuSans-75" x="296.728516"/>
      <use xlink:href="#DejaVuSans-73" x="360.107422"/>
      <use xlink:href="#DejaVuSans-5d" x="412.207031"/>
     </g>
    </g>
   </g>
   <g id="matplotlib.axis_2">
    <g id="ytick_1">
     <g id="line2d_19">
      <path d="M 46.55 288.99263 
L 493.2 288.99263 
" clip-path="url(#p2ac2c39aa3)" style="fill: none; stroke: #808080; stroke-width: 0.8; stroke-linecap: square"/>
     </g>
     <g id="line2d_20">
      <defs>
       <path id="mc63a139df0" d="M 0 0 
L -3.5 0 
" style="stroke: #000000; stroke-width: 0.8"/>
      </defs>
      <g>
       <use xlink:href="#mc63a139df0" x="46.55" y="288.99263" style="stroke: #000000; stroke-width: 0.8"/>
      </g>
     </g>
     <g id="text_11">
      <!-- −1 -->
      <g transform="translate(21.859375 293.551693) scale(0.12 -0.12)">
       <defs>
        <path id="DejaVuSans-2212" d="M 678 2272 
L 4684 2272 
L 4684 1741 
L 678 1741 
L 678 2272 
z
" transform="scale(0.015625)"/>
       </defs>
       <use xlink:href="#DejaVuSans-2212"/>
       <use xlink:href="#DejaVuSans-31" x="83.789062"/>
      </g>
     </g>
    </g>
    <g id="ytick_2">
     <g id="line2d_21">
      <path d="M 46.55 241.531983 
L 493.2 241.531983 
" clip-path="url(#p2ac2c39aa3)" style="fill: none; stroke: #808080; stroke-width: 0.8; stroke-linecap: square"/>
     </g>
     <g id="line2d_22">
      <g>
       <use xlink:href="#mc63a139df0" x="46.55" y="241.531983" style="stroke: #000000; stroke-width: 0.8"/>
      </g>
     </g>
     <g id="text_12">
      <!-- 0 -->
      <g transform="translate(31.915 246.091046) scale(0.12 -0.12)">
       <use xlink:href="#DejaVuSans-30"/>
      </g>
     </g>
    </g>
    <g id="ytick_3">
     <g id="line2d_23">
      <path d="M 46.55 194.071337 
L 493.2 194.071337 
" clip-path="url(#p2ac2c39aa3)" style="fill: none; stroke: #808080; stroke-width: 0.8; stroke-linecap: square"/>
     </g>
     <g id="line2d_24">
      <g>
       <use xlink:href="#mc63a139df0" x="46.55" y="194.071337" style="stroke: #000000; stroke-width: 0.8"/>
      </g>
     </g>
     <g id="text_13">
      <!-- 1 -->
      <g transform="translate(31.915 198.630399) scale(0.12 -0.12)">
       <use xlink:href="#DejaVuSans-31"/>
      </g>
     </g>
    </g>
    <g id="ytick_4">
     <g id="line2d_25">
      <path d="M 46.55 146.61069 
L 493.2 146.61069 
" clip-path="url(#p2ac2c39aa3)" style="fill: none; stroke: #808080; stroke-width: 0.8; stroke-linecap: square"/>
     </g>
     <g id="line2d_26">
      <g>
       <use xlink:href="#mc63a139df0" x="46.55" y="146.61069" style="stroke: #000000; stroke-width: 0.8"/>
      </g>
     </g>
     <g id="text_14">
      <!-- 2 -->
      <g transform="translate(31.915 151.169752) scale(0.12 -0.12)">
       <use xlink:href="#DejaVuSans-32"/>
      </g>
     </g>
    </g>
    <g id="ytick_5">
     <g id="line2d_27">
      <path d="M 46.55 99.150043 
L 493.2 99.150043 
" clip-path="url(#p2ac2c39aa3)" style="fill: none; stroke: #808080; stroke-width: 0.8; stroke-linecap: square"/>
     </g>
     <g id="line2d_28">
      <g>
       <use xlink:href="#mc63a139df0" x="46.55" y="99.150043" style="stroke: #000000; stroke-width: 0.8"/>
      </g>
     </g>
     <g id="text_15">
      <!-- 3 -->
      <g transform="translate(31.915 103.709106) scale(0.12 -0.12)">
       <defs>
        <path id="DejaVuSans-33" d="M 2597 2516 
Q 3050 2419 3304 2112 
Q 3559 1806 3559 1356 
Q 3559 666 3084 287 
Q 2609 -91 1734 -91 
Q 1441 -91 1130 -33 
Q 819 25 488 141 
L 488 750 
Q 750 597 1062 519 
Q 1375 441 1716 441 
Q 2309 441 2620 675 
Q 2931 909 2931 1356 
Q 2931 1769 2642 2001 
Q 2353 2234 1838 2234 
L 1294 2234 
L 1294 2753 
L 1863 2753 
Q 2328 2753 2575 2939 
Q 2822 3125 2822 3475 
Q 2822 3834 2567 4026 
Q 2313 4219 1838 4219 
Q 1578 4219 1281 4162 
Q 984 4106 628 3988 
L 628 4550 
Q 988 4650 1302 4700 
Q 1616 4750 1894 4750 
Q 2613 4750 3031 4423 
Q 3450 4097 3450 3541 
Q 3450 3153 3228 2886 
Q 3006 2619 2597 2516 
z
" transform="scale(0.015625)"/>
       </defs>
       <use xlink:href="#DejaVuSans-33"/>
      </g>
     </g>
    </g>
    <g id="ytick_6">
     <g id="line2d_29">
      <path d="M 46.55 51.689396 
L 493.2 51.689396 
" clip-path="url(#p2ac2c39aa3)" style="fill: none; stroke: #808080; stroke-width: 0.8; stroke-linecap: square"/>
     </g>
     <g id="line2d_30">
      <g>
       <use xlink:href="#mc63a139df0" x="46.55" y="51.689396" style="stroke: #000000; stroke-width: 0.8"/>
      </g>
     </g>
     <g id="text_16">
      <!-- 4 -->
      <g transform="translate(31.915 56.248459) scale(0.12 -0.12)">
       <defs>
        <path id="DejaVuSans-34" d="M 2419 4116 
L 825 1625 
L 2419 1625 
L 2419 4116 
z
M 2253 4666 
L 3047 4666 
L 3047 1625 
L 3713 1625 
L 3713 1100 
L 3047 1100 
L 3047 0 
L 2419 0 
L 2419 1100 
L 313 1100 
L 313 1709 
L 2253 4666 
z
" transform="scale(0.015625)"/>
       </defs>
       <use xlink:href="#DejaVuSans-34"/>
      </g>
     </g>
    </g>
    <g id="text_17">
     <!-- [V] -->
     <g transform="translate(15.36375 181.28625) rotate(-90) scale(0.12 -0.12)">
      <defs>
       <path id="DejaVuSans-56" d="M 1831 0 
L 50 4666 
L 709 4666 
L 2188 738 
L 3669 4666 
L 4325 4666 
L 2547 0 
L 1831 0 
z
" transform="scale(0.015625)"/>
      </defs>
      <use xlink:href="#DejaVuSans-5b"/>
      <use xlink:href="#DejaVuSans-56" x="39.013672"/>
      <use xlink:href="#DejaVuSans-5d" x="107.421875"/>
     </g>
    </g>
   </g>
   <g id="line2d_31">
    <path d="M 66.852273 230.745473 
L 68.479709 187.845671 
L 69.293428 169.921295 
L 70.107146 155.846555 
L 70.920864 146.459849 
L 71.734583 142.304194 
L 72.548301 143.592963 
L 73.362019 150.196429 
L 74.175738 161.649939 
L 74.989456 177.183227 
L 76.616893 216.18776 
L 78.24433 257.153918 
L 79.058048 275.024618 
L 79.871766 289.543744 
L 80.685485 299.750014 
L 81.499203 304.954545 
L 82.312921 304.784316 
L 83.12664 299.205692 
L 83.940358 288.526547 
L 84.754076 273.376837 
L 86.381513 233.539702 
L 88.822668 168.798888 
L 89.636386 151.174323 
L 90.450105 137.446629 
L 91.263823 128.440554 
L 92.077541 124.683286 
L 92.89126 126.371194 
L 93.704978 133.357434 
L 94.518696 145.161214 
L 95.332415 160.998121 
L 96.959852 200.428485 
L 98.587288 241.548118 
L 99.401007 259.39787 
L 100.214725 273.841517 
L 101.028443 283.93009 
L 101.842162 288.989632 
L 102.65588 288.663711 
L 103.469598 282.935905 
L 104.283317 272.130835 
L 105.097035 256.893687 
L 106.724472 217.04483 
L 109.165627 152.7762 
L 109.979345 135.432231 
L 110.793063 122.031908 
L 111.606782 113.3862 
L 112.4205 110.006382 
L 113.234218 112.071782 
L 114.047937 119.418465 
L 114.861655 131.549576 
L 115.675373 147.666676 
L 117.30281 187.475243 
L 118.930247 228.701053 
L 119.743965 246.50686 
L 120.557684 260.852717 
L 121.371402 270.802118 
L 122.18512 275.696137 
L 122.998839 275.194988 
L 123.812557 269.299462 
L 124.626275 258.350877 
L 125.439994 243.009541 
L 127.06743 203.117368 
L 129.508585 139.27527 
L 130.322304 122.196302 
L 131.136022 109.107264 
L 131.94974 100.805214 
L 132.763459 97.785434 
L 133.577177 100.210181 
L 134.390895 107.898456 
L 135.204614 120.337414 
L 136.018332 136.714719 
L 137.645769 176.860693 
L 139.273206 218.152157 
L 140.086924 235.894388 
L 140.900642 250.123493 
L 141.714361 259.91558 
L 142.528079 264.626855 
L 143.341797 263.934232 
L 144.155516 257.855715 
L 144.969234 246.74926 
L 145.782952 231.290196 
L 147.410389 191.329434 
L 149.851544 127.877448 
L 150.665262 111.050899 
L 151.478981 98.260044 
L 152.292699 90.287901 
L 153.106417 87.613678 
L 153.920136 90.382538 
L 154.733854 98.396443 
L 155.547572 111.126641 
L 156.361291 127.747026 
L 157.988727 168.195299 
L 159.616164 209.517546 
L 160.429882 227.179378 
L 161.243601 241.275569 
L 162.057319 250.894983 
L 162.871038 255.409061 
L 163.684756 254.511467 
L 164.498474 248.237414 
L 165.312193 236.961442 
L 166.125911 221.373789 
L 167.753348 181.324438 
L 170.194503 118.233834 
L 171.008221 101.64963 
L 171.821939 89.146334 
L 172.635658 81.492803 
L 173.449376 79.152095 
L 174.263094 82.252253 
L 175.076813 90.57823 
L 175.890531 103.585453 
L 176.704249 120.434174 
L 178.331686 161.154378 
L 179.959123 202.477247 
L 180.772841 220.044205 
L 181.586559 233.993655 
L 182.400278 243.427365 
L 183.213996 247.732107 
L 184.027715 246.618344 
L 184.841433 240.138493 
L 185.655151 228.683615 
L 186.46887 212.958748 
L 188.096306 172.805209 
L 189.723743 129.514354 
L 190.537461 110.053659 
L 191.35118 93.703809 
L 192.164898 81.479512 
L 192.978616 74.13534 
L 193.792335 72.118127 
L 194.606053 75.538775 
L 195.419771 84.165265 
L 196.23349 97.437284 
L 197.047208 114.501577 
L 198.674645 155.467292 
L 200.302081 196.764555 
L 201.1158 214.224123 
L 201.929518 228.01496 
L 202.743236 237.251879 
L 203.556955 241.337082 
L 204.370673 239.997876 
L 205.184392 233.30387 
L 205.99811 221.662587 
L 206.811828 205.793753 
L 208.439265 165.524098 
L 210.066702 122.38287 
L 210.88042 103.094608 
L 211.694138 86.972851 
L 212.507857 75.020704 
L 213.321575 67.978332 
L 214.135293 66.276273 
L 214.949012 70.008273 
L 215.76273 78.925372 
L 216.576448 92.45161 
L 217.390167 109.720359 
L 219.017603 150.908449 
L 220.64504 192.15716 
L 221.458758 209.498458 
L 222.272477 223.120445 
L 223.086195 232.151116 
L 223.899913 236.008198 
L 224.713632 234.435882 
L 225.52735 227.520963 
L 226.341069 215.687357 
L 227.154787 199.669365 
L 228.782224 159.274733 
L 230.40966 116.274945 
L 231.223379 97.154742 
L 232.037097 81.256258 
L 232.850815 69.570831 
L 233.664534 62.824105 
L 234.478252 61.430253 
L 235.29197 65.465847 
L 236.105689 74.665029 
L 236.919407 88.436279 
L 237.733125 105.899735 
L 241.801717 205.683273 
L 242.615435 219.12754 
L 243.429154 227.943869 
L 244.242872 231.565604 
L 245.05659 229.753863 
L 245.870309 222.612609 
L 246.684027 210.582086 
L 247.497745 194.411052 
L 249.125182 153.885139 
L 250.752619 111.021085 
L 251.566337 92.065779 
L 252.380056 76.38694 
L 253.193774 64.963983 
L 254.007492 58.507913 
L 254.821211 57.416473 
L 255.634929 61.749049 
L 256.448647 71.222926 
L 257.262366 85.23112 
L 258.076084 102.880672 
L 262.144676 202.625244 
L 262.958394 215.884066 
L 263.772112 224.479102 
L 264.585831 227.859405 
L 265.399549 225.803054 
L 266.213267 218.431165 
L 267.026986 206.20024 
L 267.840704 189.873374 
L 269.468141 149.212015 
L 271.095578 106.480053 
L 271.909296 87.687488 
L 272.723014 72.225655 
L 273.536733 61.06189 
L 274.350451 54.892449 
L 275.164169 54.09858 
L 275.977888 58.722475 
L 276.791606 68.464604 
L 277.605324 82.702616 
L 278.419043 100.530595 
L 282.487634 200.196565 
L 283.301353 213.263177 
L 284.115071 221.630932 
L 284.928789 224.764671 
L 285.742508 222.459477 
L 286.556226 214.853594 
L 287.369944 202.419711 
L 288.183663 185.93514 
L 289.811099 145.135954 
L 291.438536 102.53416 
L 292.252255 83.903013 
L 293.065973 68.656365 
L 293.879691 57.749324 
L 294.69341 51.863281 
L 295.507128 51.362931 
L 296.320846 56.273261 
L 297.134565 66.27798 
L 297.948283 80.739463 
L 299.57572 119.134668 
L 302.016875 181.507001 
L 302.830593 198.290695 
L 303.644311 211.159142 
L 304.45803 219.294431 
L 305.271748 222.177282 
L 306.085466 219.619808 
L 306.899185 211.777364 
L 307.712903 199.138748 
L 308.526621 182.495367 
L 310.154058 141.557466 
L 311.781495 99.085344 
L 312.595213 80.614982 
L 313.408931 65.582379 
L 314.22265 54.930256 
L 315.036368 49.325036 
L 315.850087 49.1148 
L 316.663805 54.307331 
L 317.477523 64.56962 
L 318.291242 79.248876 
L 319.918678 117.912862 
L 322.359833 180.191192 
L 323.173552 196.818821 
L 323.98727 209.483824 
L 324.800988 217.382143 
L 325.614707 220.010458 
L 326.428425 217.197942 
L 327.242143 209.117035 
L 328.055862 196.272569 
L 328.86958 179.469916 
L 330.497017 138.393659 
L 332.124453 96.0519 
L 332.938172 77.742263 
L 333.75189 62.92312 
L 334.565608 52.52466 
L 335.379327 47.198227 
L 336.193045 47.275237 
L 337.006764 52.746264 
L 337.820482 63.261636 
L 338.6342 78.153496 
L 340.261637 117.074516 
L 342.702792 179.240694 
L 343.51651 195.706903 
L 344.330229 208.163756 
L 345.143947 215.821174 
L 345.957665 218.191876 
L 346.771384 215.122123 
L 347.585102 206.801413 
L 348.39882 193.750531 
L 349.212539 176.788687 
L 350.839975 135.575477 
L 352.467412 93.365757 
L 353.28113 75.217258 
L 354.094849 60.611452 
L 354.908567 50.465847 
L 355.722285 45.41661 
L 356.536004 45.778434 
L 357.349722 51.524687 
L 358.163441 62.289091 
L 358.977159 77.388827 
L 360.604596 116.556027 
L 363.045751 178.5933 
L 363.859469 194.893214 
L 364.673187 207.137693 
L 365.486906 214.550762 
L 366.300624 216.661258 
L 367.114342 213.332555 
L 367.928061 204.771178 
L 368.741779 191.513779 
L 369.555497 174.393281 
L 371.182934 133.045391 
L 372.810371 90.970205 
L 373.624089 72.983646 
L 374.437807 58.591432 
L 375.251526 48.698245 
L 376.065244 43.924972 
L 376.878962 44.569537 
L 377.692681 50.588104 
L 378.506399 61.597845 
L 379.320118 76.901091 
L 380.947554 116.30436 
L 383.388709 178.197144 
L 384.202428 194.326289 
L 385.016146 206.354577 
L 385.829864 213.520262 
L 386.643583 215.368371 
L 387.457301 211.779411 
L 388.271019 202.976902 
L 389.084738 189.513281 
L 389.898456 172.235049 
L 391.525893 130.755486 
L 393.153329 88.818007 
L 393.967048 70.994508 
L 394.780766 56.81645 
L 395.594484 47.175545 
L 396.408203 42.677301 
L 397.221921 43.602823 
L 398.035639 49.891081 
L 398.849358 61.142759 
L 399.663076 76.645444 
L 401.290513 116.275281 
L 402.91795 158.918051 
L 403.731668 178.008972 
L 404.545386 193.963218 
L 405.359105 205.771847 
L 406.172823 212.68746 
L 406.986541 214.271349 
L 407.80026 210.421172 
L 408.613978 201.37741 
L 409.427696 187.708195 
L 410.241415 170.273473 
L 411.868851 128.665854 
L 413.496288 86.869814 
L 414.310006 69.21076 
L 415.123725 55.247674 
L 415.937443 45.859158 
L 416.751161 41.635245 
L 417.56488 42.840178 
L 418.378598 49.39574 
L 419.192316 60.886189 
L 420.006035 76.584486 
L 421.633471 116.431897 
L 423.260908 159.024752 
L 424.074627 177.992715 
L 424.888345 193.76822 
L 425.702063 205.354015 
L 426.515782 212.017167 
L 427.3295 213.335301 
L 428.143218 209.223244 
L 428.956937 199.938398 
L 429.770655 186.064501 
L 430.584373 168.474806 
L 434.652965 67.599846 
L 435.466683 53.852754 
L 436.280402 44.716931 
L 437.09412 40.766843 
L 437.907838 42.249828 
L 438.721557 49.070495 
L 439.535275 60.796744 
L 440.348993 76.687021 
L 441.97643 116.743429 
L 443.603867 159.277391 
L 444.417585 178.118286 
L 445.231304 193.711456 
L 446.045022 205.071495 
L 446.85874 211.480052 
L 447.672459 212.531153 
L 448.486177 208.156806 
L 449.299895 198.631293 
L 450.113614 184.553868 
L 450.927332 166.81095 
L 454.995924 66.134655 
L 455.809642 52.60474 
L 456.62336 43.722072 
L 457.437079 40.045455 
L 458.250797 41.805283 
L 459.064515 48.88901 
L 459.878234 60.84824 
L 460.691952 76.927026 
L 462.319389 117.184198 
L 463.946825 159.650665 
L 464.760544 178.360589 
L 465.574262 193.768041 
L 466.387981 204.899617 
L 467.201699 211.051666 
L 468.015417 211.834676 
L 468.829136 207.197847 
L 469.642854 197.4323 
L 470.456572 183.152705 
L 471.270291 165.258512 
L 472.897727 123.293164 
L 472.897727 123.293164 
" clip-path="url(#p2ac2c39aa3)" style="fill: none; stroke: #ff0000; stroke-width: 2; stroke-linecap: square"/>
   </g>
   <g id="patch_3">
    <path d="M 46.55 318.2 
L 46.55 26.8 
" style="fill: none; stroke: #000000; stroke-width: 0.8; stroke-linejoin: miter; stroke-linecap: square"/>
   </g>
   <g id="patch_4">
    <path d="M 493.2 318.2 
L 493.2 26.8 
" style="fill: none; stroke: #000000; stroke-width: 0.8; stroke-linejoin: miter; stroke-linecap: square"/>
   </g>
   <g id="patch_5">
    <path d="M 46.55 318.2 
L 493.2 318.2 
" style="fill: none; stroke: #000000; stroke-width: 0.8; stroke-linejoin: miter; stroke-linecap: square"/>
   </g>
   <g id="patch_6">
    <path d="M 46.55 26.8 
L 493.2 26.8 
" style="fill: none; stroke: #000000; stroke-width: 0.8; stroke-linejoin: miter; stroke-linecap: square"/>
   </g>
   <g id="text_18">
    <!-- Time-domain response -->
    <g transform="translate(201.402812 20.8) scale(0.12 -0.12)">
     <defs>
      <path id="DejaVuSans-54" d="M -19 4666 
L 3928 4666 
L 3928 4134 
L 2272 4134 
L 2272 0 
L 1638 0 
L 1638 4134 
L -19 4134 
L -19 4666 
z
" transform="scale(0.015625)"/>
      <path id="DejaVuSans-2d" d="M 313 2009 
L 1997 2009 
L 1997 1497 
L 313 1497 
L 313 2009 
z
" transform="scale(0.015625)"/>
      <path id="DejaVuSans-64" d="M 2906 2969 
L 2906 4863 
L 3481 4863 
L 3481 0 
L 2906 0 
L 2906 525 
Q 2725 213 2448 61 
Q 2172 -91 1784 -91 
Q 1150 -91 751 415 
Q 353 922 353 1747 
Q 353 2572 751 3078 
Q 1150 3584 1784 3584 
Q 2172 3584 2448 3432 
Q 2725 3281 2906 2969 
z
M 947 1747 
Q 947 1113 1208 752 
Q 1469 391 1925 391 
Q 2381 391 2643 752 
Q 2906 1113 2906 1747 
Q 2906 2381 2643 2742 
Q 2381 3103 1925 3103 
Q 1469 3103 1208 2742 
Q 947 2381 947 1747 
z
" transform="scale(0.015625)"/>
      <path id="DejaVuSans-6f" d="M 1959 3097 
Q 1497 3097 1228 2736 
Q 959 2375 959 1747 
Q 959 1119 1226 758 
Q 1494 397 1959 397 
Q 2419 397 2687 759 
Q 2956 1122 2956 1747 
Q 2956 2369 2687 2733 
Q 2419 3097 1959 3097 
z
M 1959 3584 
Q 2709 3584 3137 3096 
Q 3566 2609 3566 1747 
Q 3566 888 3137 398 
Q 2709 -91 1959 -91 
Q 1206 -91 779 398 
Q 353 888 353 1747 
Q 353 2609 779 3096 
Q 1206 3584 1959 3584 
z
" transform="scale(0.015625)"/>
      <path id="DejaVuSans-61" d="M 2194 1759 
Q 1497 1759 1228 1600 
Q 959 1441 959 1056 
Q 959 750 1161 570 
Q 1363 391 1709 391 
Q 2188 391 2477 730 
Q 2766 1069 2766 1631 
L 2766 1759 
L 2194 1759 
z
M 3341 1997 
L 3341 0 
L 2766 0 
L 2766 531 
Q 2569 213 2275 61 
Q 1981 -91 1556 -91 
Q 1019 -91 701 211 
Q 384 513 384 1019 
Q 384 1609 779 1909 
Q 1175 2209 1959 2209 
L 2766 2209 
L 2766 2266 
Q 2766 2663 2505 2880 
Q 2244 3097 1772 3097 
Q 1472 3097 1187 3025 
Q 903 2953 641 2809 
L 641 3341 
Q 956 3463 1253 3523 
Q 1550 3584 1831 3584 
Q 2591 3584 2966 3190 
Q 3341 2797 3341 1997 
z
" transform="scale(0.015625)"/>
      <path id="DejaVuSans-6e" d="M 3513 2113 
L 3513 0 
L 2938 0 
L 2938 2094 
Q 2938 2591 2744 2837 
Q 2550 3084 2163 3084 
Q 1697 3084 1428 2787 
Q 1159 2491 1159 1978 
L 1159 0 
L 581 0 
L 581 3500 
L 1159 3500 
L 1159 2956 
Q 1366 3272 1645 3428 
Q 1925 3584 2291 3584 
Q 2894 3584 3203 3211 
Q 3513 2838 3513 2113 
z
" transform="scale(0.015625)"/>
      <path id="DejaVuSans-72" d="M 2631 2963 
Q 2534 3019 2420 3045 
Q 2306 3072 2169 3072 
Q 1681 3072 1420 2755 
Q 1159 2438 1159 1844 
L 1159 0 
L 581 0 
L 581 3500 
L 1159 3500 
L 1159 2956 
Q 1341 3275 1631 3429 
Q 1922 3584 2338 3584 
Q 2397 3584 2469 3576 
Q 2541 3569 2628 3553 
L 2631 2963 
z
" transform="scale(0.015625)"/>
      <path id="DejaVuSans-70" d="M 1159 525 
L 1159 -1331 
L 581 -1331 
L 581 3500 
L 1159 3500 
L 1159 2969 
Q 1341 3281 1617 3432 
Q 1894 3584 2278 3584 
Q 2916 3584 3314 3078 
Q 3713 2572 3713 1747 
Q 3713 922 3314 415 
Q 2916 -91 2278 -91 
Q 1894 -91 1617 61 
Q 1341 213 1159 525 
z
M 3116 1747 
Q 3116 2381 2855 2742 
Q 2594 3103 2138 3103 
Q 1681 3103 1420 2742 
Q 1159 2381 1159 1747 
Q 1159 1113 1420 752 
Q 1681 391 2138 391 
Q 2594 391 2855 752 
Q 3116 1113 3116 1747 
z
" transform="scale(0.015625)"/>
     </defs>
     <use xlink:href="#DejaVuSans-54"/>
     <use xlink:href="#DejaVuSans-69" x="57.958984"/>
     <use xlink:href="#DejaVuSans-6d" x="85.742188"/>
     <use xlink:href="#DejaVuSans-65" x="183.154297"/>
     <use xlink:href="#DejaVuSans-2d" x="244.677734"/>
     <use xlink:href="#DejaVuSans-64" x="280.761719"/>
     <use xlink:href="#DejaVuSans-6f" x="344.238281"/>
     <use xlink:href="#DejaVuSans-6d" x="405.419922"/>
     <use xlink:href="#DejaVuSans-61" x="502.832031"/>
     <use xlink:href="#DejaVuSans-69" x="564.111328"/>
     <use xlink:href="#DejaVuSans-6e" x="591.894531"/>
     <use xlink:href="#DejaVuSans-20" x="655.273438"/>
     <use xlink:href="#DejaVuSans-72" x="687.060547"/>
     <use xlink:href="#DejaVuSans-65" x="725.923828"/>
     <use xlink:href="#DejaVuSans-73" x="787.447266"/>
     <use xlink:href="#DejaVuSans-70" x="839.546875"/>
     <use xlink:href="#DejaVuSans-6f" x="903.023438"/>
     <use xlink:href="#DejaVuSans-6e" x="964.205078"/>
     <use xlink:href="#DejaVuSans-73" x="1027.583984"/>
     <use xlink:href="#DejaVuSans-65" x="1079.683594"/>
    </g>
   </g>
   <g id="legend_1">
    <g id="patch_7">
     <path d="M 53.55 47.7475 
L 99.410625 47.7475 
Q 101.410625 47.7475 101.410625 45.7475 
L 101.410625 33.8 
Q 101.410625 31.8 99.410625 31.8 
L 53.55 31.8 
Q 51.55 31.8 51.55 33.8 
L 51.55 45.7475 
Q 51.55 47.7475 53.55 47.7475 
z
" style="fill: #ffffff; opacity: 0.8; stroke: #cccccc; stroke-linejoin: miter"/>
    </g>
    <g id="line2d_32">
     <path d="M 53.55 39.418125 
L 58.55 39.418125 
L 63.55 39.418125 
" style="fill: none; stroke: #ff0000; stroke-width: 2; stroke-linecap: square"/>
    </g>
    <g id="text_19">
     <!-- V_out -->
     <g transform="translate(65.55 42.918125) scale(0.12 -0.12)">
      <defs>
       <path id="DejaVuSans-5f" d="M 3263 -1063 
L 3263 -1509 
L -63 -1509 
L -63 -1063 
L 3263 -1063 
z
" transform="scale(0.015625)"/>
      </defs>
      <use xlink:href="#DejaVuSans-56"/>
      <use xlink:href="#DejaVuSans-5f" x="68.408203"/>
      <use xlink:href="#DejaVuSans-6f" x="118.408203"/>
      <use xlink:href="#DejaVuSans-75" x="179.589844"/>
      <use xlink:href="#DejaVuSans-74" x="242.96875"/>
     </g>
    </g>
   </g>
  </g>
 </g>
 <defs>
  <clipPath id="p2ac2c39aa3">
   <rect x="46.55" y="26.8" width="446.65" height="291.4"/>
  </clipPath>
 </defs>
</svg>
