<?xml version="1.0" encoding="utf-8" standalone="no"?>
<!DOCTYPE svg PUBLIC "-//W3C//DTD SVG 1.1//EN"
  "http://www.w3.org/Graphics/SVG/1.1/DTD/svg11.dtd">
<svg xmlns:xlink="http://www.w3.org/1999/xlink" width="504pt" height="360pt" viewBox="0 0 504 360" xmlns="http://www.w3.org/2000/svg" version="1.1">
 <metadata>
  <rdf:RDF xmlns:dc="http://purl.org/dc/elements/1.1/" xmlns:cc="http://creativecommons.org/ns#" xmlns:rdf="http://www.w3.org/1999/02/22-rdf-syntax-ns#">
   <cc:Work>
    <dc:type rdf:resource="http://purl.org/dc/dcmitype/StillImage"/>
    <dc:date>2025-08-13T13:31:35.561148</dc:date>
    <dc:format>image/svg+xml</dc:format>
    <dc:creator>
     <cc:Agent>
      <dc:title>Matplotlib v3.9.2, https://matplotlib.org/</dc:title>
     </cc:Agent>
    </dc:creator>
   </cc:Work>
  </rdf:RDF>
 </metadata>
 <defs>
  <style type="text/css">*{stroke-linejoin: round; stroke-linecap: butt}</style>
 </defs>
 <g id="figure_1">
  <g id="patch_1">
   <path d="M 0 360 
L 504 360 
L 504 0 
L 0 0 
z
" style="fill: #ffffff"/>
  </g>
  <g id="axes_1">
   <g id="patch_2">
    <path d="M 46.64 318.04 
L 493.2 318.04 
L 493.2 26.88 
L 46.64 26.88 
z
" style="fill: #ffffff"/>
   </g>
   <g id="matplotlib.axis_1">
    <g id="xtick_1">
     <g id="line2d_1">
      <path d="M 66.938182 318.04 
L 66.938182 26.88 
" clip-path="url(#p2130504b90)" style="fill: none; stroke: #808080; stroke-width: 0.8; stroke-linecap: square"/>
     </g>
     <g id="line2d_2">
      <defs>
       <path id="m64d791a107" d="M 0 0 
L 0 3.5 
" style="stroke: #000000; stroke-width: 0.8"/>
      </defs>
      <g>
       <use xlink:href="#m64d791a107" x="66.938182" y="318.04" style="stroke: #000000; stroke-width: 0.8"/>
      </g>
     </g>
     <g id="text_1">
      <!-- 0.00 -->
      <g transform="translate(53.578807 334.158125) scale(0.12 -0.12)">
       <defs>
        <path id="DejaVuSans-30" d="M 2034 4250 
Q 1547 4250 1301 3770 
Q 1056 3291 1056 2328 
Q 1056 1369 1301 889 
Q 1547 409 2034 409 
Q 2525 409 2770 889 
Q 3016 1369 3016 2328 
Q 3016 3291 2770 3770 
Q 2525 4250 2034 4250 
z
M 2034 4750 
Q 2819 4750 3233 4129 
Q 3647 3509 3647 2328 
Q 3647 1150 3233 529 
Q 2819 -91 2034 -91 
Q 1250 -91 836 529 
Q 422 1150 422 2328 
Q 422 3509 836 4129 
Q 1250 4750 2034 4750 
z
" transform="scale(0.015625)"/>
        <path id="DejaVuSans-2e" d="M 684 794 
L 1344 794 
L 1344 0 
L 684 0 
L 684 794 
z
" transform="scale(0.015625)"/>
       </defs>
       <use xlink:href="#DejaVuSans-30"/>
       <use xlink:href="#DejaVuSans-2e" x="63.623047"/>
       <use xlink:href="#DejaVuSans-30" x="95.410156"/>
       <use xlink:href="#DejaVuSans-30" x="159.033203"/>
      </g>
     </g>
    </g>
    <g id="xtick_2">
     <g id="line2d_3">
      <path d="M 117.683636 318.04 
L 117.683636 26.88 
" clip-path="url(#p2130504b90)" style="fill: none; stroke: #808080; stroke-width: 0.8; stroke-linecap: square"/>
     </g>
     <g id="line2d_4">
      <g>
       <use xlink:href="#m64d791a107" x="117.683636" y="318.04" style="stroke: #000000; stroke-width: 0.8"/>
      </g>
     </g>
     <g id="text_2">
      <!-- 0.25 -->
      <g transform="translate(104.324261 334.158125) scale(0.12 -0.12)">
       <defs>
        <path id="DejaVuSans-32" d="M 1228 531 
L 3431 531 
L 3431 0 
L 469 0 
L 469 531 
Q 828 903 1448 1529 
Q 2069 2156 2228 2338 
Q 2531 2678 2651 2914 
Q 2772 3150 2772 3378 
Q 2772 3750 2511 3984 
Q 2250 4219 1831 4219 
Q 1534 4219 1204 4116 
Q 875 4013 500 3803 
L 500 4441 
Q 881 4594 1212 4672 
Q 1544 4750 1819 4750 
Q 2544 4750 2975 4387 
Q 3406 4025 3406 3419 
Q 3406 3131 3298 2873 
Q 3191 2616 2906 2266 
Q 2828 2175 2409 1742 
Q 1991 1309 1228 531 
z
" transform="scale(0.015625)"/>
        <path id="DejaVuSans-35" d="M 691 4666 
L 3169 4666 
L 3169 4134 
L 1269 4134 
L 1269 2991 
Q 1406 3038 1543 3061 
Q 1681 3084 1819 3084 
Q 2600 3084 3056 2656 
Q 3513 2228 3513 1497 
Q 3513 744 3044 326 
Q 2575 -91 1722 -91 
Q 1428 -91 1123 -41 
Q 819 9 494 109 
L 494 744 
Q 775 591 1075 516 
Q 1375 441 1709 441 
Q 2250 441 2565 725 
Q 2881 1009 2881 1497 
Q 2881 1984 2565 2268 
Q 2250 2553 1709 2553 
Q 1456 2553 1204 2497 
Q 953 2441 691 2322 
L 691 4666 
z
" transform="scale(0.015625)"/>
       </defs>
       <use xlink:href="#DejaVuSans-30"/>
       <use xlink:href="#DejaVuSans-2e" x="63.623047"/>
       <use xlink:href="#DejaVuSans-32" x="95.410156"/>
       <use xlink:href="#DejaVuSans-35" x="159.033203"/>
      </g>
     </g>
    </g>
    <g id="xtick_3">
     <g id="line2d_5">
      <path d="M 168.429091 318.04 
L 168.429091 26.88 
" clip-path="url(#p2130504b90)" style="fill: none; stroke: #808080; stroke-width: 0.8; stroke-linecap: square"/>
     </g>
     <g id="line2d_6">
      <g>
       <use xlink:href="#m64d791a107" x="168.429091" y="318.04" style="stroke: #000000; stroke-width: 0.8"/>
      </g>
     </g>
     <g id="text_3">
      <!-- 0.50 -->
      <g transform="translate(155.069716 334.158125) scale(0.12 -0.12)">
       <use xlink:href="#DejaVuSans-30"/>
       <use xlink:href="#DejaVuSans-2e" x="63.623047"/>
       <use xlink:href="#DejaVuSans-35" x="95.410156"/>
       <use xlink:href="#DejaVuSans-30" x="159.033203"/>
      </g>
     </g>
    </g>
    <g id="xtick_4">
     <g id="line2d_7">
      <path d="M 219.174545 318.04 
L 219.174545 26.88 
" clip-path="url(#p2130504b90)" style="fill: none; stroke: #808080; stroke-width: 0.8; stroke-linecap: square"/>
     </g>
     <g id="line2d_8">
      <g>
       <use xlink:href="#m64d791a107" x="219.174545" y="318.04" style="stroke: #000000; stroke-width: 0.8"/>
      </g>
     </g>
     <g id="text_4">
      <!-- 0.75 -->
      <g transform="translate(205.81517 334.158125) scale(0.12 -0.12)">
       <defs>
        <path id="DejaVuSans-37" d="M 525 4666 
L 3525 4666 
L 3525 4397 
L 1831 0 
L 1172 0 
L 2766 4134 
L 525 4134 
L 525 4666 
z
" transform="scale(0.015625)"/>
       </defs>
       <use xlink:href="#DejaVuSans-30"/>
       <use xlink:href="#DejaVuSans-2e" x="63.623047"/>
       <use xlink:href="#DejaVuSans-37" x="95.410156"/>
       <use xlink:href="#DejaVuSans-35" x="159.033203"/>
      </g>
     </g>
    </g>
    <g id="xtick_5">
     <g id="line2d_9">
      <path d="M 269.92 318.04 
L 269.92 26.88 
" clip-path="url(#p2130504b90)" style="fill: none; stroke: #808080; stroke-width: 0.8; stroke-linecap: square"/>
     </g>
     <g id="line2d_10">
      <g>
       <use xlink:href="#m64d791a107" x="269.92" y="318.04" style="stroke: #000000; stroke-width: 0.8"/>
      </g>
     </g>
     <g id="text_5">
      <!-- 1.00 -->
      <g transform="translate(256.560625 334.158125) scale(0.12 -0.12)">
       <defs>
        <path id="DejaVuSans-31" d="M 794 531 
L 1825 531 
L 1825 4091 
L 703 3866 
L 703 4441 
L 1819 4666 
L 2450 4666 
L 2450 531 
L 3481 531 
L 3481 0 
L 794 0 
L 794 531 
z
" transform="scale(0.015625)"/>
       </defs>
       <use xlink:href="#DejaVuSans-31"/>
       <use xlink:href="#DejaVuSans-2e" x="63.623047"/>
       <use xlink:href="#DejaVuSans-30" x="95.410156"/>
       <use xlink:href="#DejaVuSans-30" x="159.033203"/>
      </g>
     </g>
    </g>
    <g id="xtick_6">
     <g id="line2d_11">
      <path d="M 320.665455 318.04 
L 320.665455 26.88 
" clip-path="url(#p2130504b90)" style="fill: none; stroke: #808080; stroke-width: 0.8; stroke-linecap: square"/>
     </g>
     <g id="line2d_12">
      <g>
       <use xlink:href="#m64d791a107" x="320.665455" y="318.04" style="stroke: #000000; stroke-width: 0.8"/>
      </g>
     </g>
     <g id="text_6">
      <!-- 1.25 -->
      <g transform="translate(307.30608 334.158125) scale(0.12 -0.12)">
       <use xlink:href="#DejaVuSans-31"/>
       <use xlink:href="#DejaVuSans-2e" x="63.623047"/>
       <use xlink:href="#DejaVuSans-32" x="95.410156"/>
       <use xlink:href="#DejaVuSans-35" x="159.033203"/>
      </g>
     </g>
    </g>
    <g id="xtick_7">
     <g id="line2d_13">
      <path d="M 371.410909 318.04 
L 371.410909 26.88 
" clip-path="url(#p2130504b90)" style="fill: none; stroke: #808080; stroke-width: 0.8; stroke-linecap: square"/>
     </g>
     <g id="line2d_14">
      <g>
       <use xlink:href="#m64d791a107" x="371.410909" y="318.04" style="stroke: #000000; stroke-width: 0.8"/>
      </g>
     </g>
     <g id="text_7">
      <!-- 1.50 -->
      <g transform="translate(358.051534 334.158125) scale(0.12 -0.12)">
       <use xlink:href="#DejaVuSans-31"/>
       <use xlink:href="#DejaVuSans-2e" x="63.623047"/>
       <use xlink:href="#DejaVuSans-35" x="95.410156"/>
       <use xlink:href="#DejaVuSans-30" x="159.033203"/>
      </g>
     </g>
    </g>
    <g id="xtick_8">
     <g id="line2d_15">
      <path d="M 422.156364 318.04 
L 422.156364 26.88 
" clip-path="url(#p2130504b90)" style="fill: none; stroke: #808080; stroke-width: 0.8; stroke-linecap: square"/>
     </g>
     <g id="line2d_16">
      <g>
       <use xlink:href="#m64d791a107" x="422.156364" y="318.04" style="stroke: #000000; stroke-width: 0.8"/>
      </g>
     </g>
     <g id="text_8">
      <!-- 1.75 -->
      <g transform="translate(408.796989 334.158125) scale(0.12 -0.12)">
       <use xlink:href="#DejaVuSans-31"/>
       <use xlink:href="#DejaVuSans-2e" x="63.623047"/>
       <use xlink:href="#DejaVuSans-37" x="95.410156"/>
       <use xlink:href="#DejaVuSans-35" x="159.033203"/>
      </g>
     </g>
    </g>
    <g id="xtick_9">
     <g id="line2d_17">
      <path d="M 472.901818 318.04 
L 472.901818 26.88 
" clip-path="url(#p2130504b90)" style="fill: none; stroke: #808080; stroke-width: 0.8; stroke-linecap: square"/>
     </g>
     <g id="line2d_18">
      <g>
       <use xlink:href="#m64d791a107" x="472.901818" y="318.04" style="stroke: #000000; stroke-width: 0.8"/>
      </g>
     </g>
     <g id="text_9">
      <!-- 2.00 -->
      <g transform="translate(459.542443 334.158125) scale(0.12 -0.12)">
       <use xlink:href="#DejaVuSans-32"/>
       <use xlink:href="#DejaVuSans-2e" x="63.623047"/>
       <use xlink:href="#DejaVuSans-30" x="95.410156"/>
       <use xlink:href="#DejaVuSans-30" x="159.033203"/>
      </g>
     </g>
    </g>
    <g id="text_10">
     <!-- time [us] -->
     <g transform="translate(242.847813 349.771875) scale(0.12 -0.12)">
      <defs>
       <path id="DejaVuSans-74" d="M 1172 4494 
L 1172 3500 
L 2356 3500 
L 2356 3053 
L 1172 3053 
L 1172 1153 
Q 1172 725 1289 603 
Q 1406 481 1766 481 
L 2356 481 
L 2356 0 
L 1766 0 
Q 1100 0 847 248 
Q 594 497 594 1153 
L 594 3053 
L 172 3053 
L 172 3500 
L 594 3500 
L 594 4494 
L 1172 4494 
z
" transform="scale(0.015625)"/>
       <path id="DejaVuSans-69" d="M 603 3500 
L 1178 3500 
L 1178 0 
L 603 0 
L 603 3500 
z
M 603 4863 
L 1178 4863 
L 1178 4134 
L 603 4134 
L 603 4863 
z
" transform="scale(0.015625)"/>
       <path id="DejaVuSans-6d" d="M 3328 2828 
Q 3544 3216 3844 3400 
Q 4144 3584 4550 3584 
Q 5097 3584 5394 3201 
Q 5691 2819 5691 2113 
L 5691 0 
L 5113 0 
L 5113 2094 
Q 5113 2597 4934 2840 
Q 4756 3084 4391 3084 
Q 3944 3084 3684 2787 
Q 3425 2491 3425 1978 
L 3425 0 
L 2847 0 
L 2847 2094 
Q 2847 2600 2669 2842 
Q 2491 3084 2119 3084 
Q 1678 3084 1418 2786 
Q 1159 2488 1159 1978 
L 1159 0 
L 581 0 
L 581 3500 
L 1159 3500 
L 1159 2956 
Q 1356 3278 1631 3431 
Q 1906 3584 2284 3584 
Q 2666 3584 2933 3390 
Q 3200 3197 3328 2828 
z
" transform="scale(0.015625)"/>
       <path id="DejaVuSans-65" d="M 3597 1894 
L 3597 1613 
L 953 1613 
Q 991 1019 1311 708 
Q 1631 397 2203 397 
Q 2534 397 2845 478 
Q 3156 559 3463 722 
L 3463 178 
Q 3153 47 2828 -22 
Q 2503 -91 2169 -91 
Q 1331 -91 842 396 
Q 353 884 353 1716 
Q 353 2575 817 3079 
Q 1281 3584 2069 3584 
Q 2775 3584 3186 3129 
Q 3597 2675 3597 1894 
z
M 3022 2063 
Q 3016 2534 2758 2815 
Q 2500 3097 2075 3097 
Q 1594 3097 1305 2825 
Q 1016 2553 972 2059 
L 3022 2063 
z
" transform="scale(0.015625)"/>
       <path id="DejaVuSans-20" transform="scale(0.015625)"/>
       <path id="DejaVuSans-5b" d="M 550 4863 
L 1875 4863 
L 1875 4416 
L 1125 4416 
L 1125 -397 
L 1875 -397 
L 1875 -844 
L 550 -844 
L 550 4863 
z
" transform="scale(0.015625)"/>
       <path id="DejaVuSans-75" d="M 544 1381 
L 544 3500 
L 1119 3500 
L 1119 1403 
Q 1119 906 1312 657 
Q 1506 409 1894 409 
Q 2359 409 2629 706 
Q 2900 1003 2900 1516 
L 2900 3500 
L 3475 3500 
L 3475 0 
L 2900 0 
L 2900 538 
Q 2691 219 2414 64 
Q 2138 -91 1772 -91 
Q 1169 -91 856 284 
Q 544 659 544 1381 
z
M 1991 3584 
L 1991 3584 
z
" transform="scale(0.015625)"/>
       <path id="DejaVuSans-73" d="M 2834 3397 
L 2834 2853 
Q 2591 2978 2328 3040 
Q 2066 3103 1784 3103 
Q 1356 3103 1142 2972 
Q 928 2841 928 2578 
Q 928 2378 1081 2264 
Q 1234 2150 1697 2047 
L 1894 2003 
Q 2506 1872 2764 1633 
Q 3022 1394 3022 966 
Q 3022 478 2636 193 
Q 2250 -91 1575 -91 
Q 1294 -91 989 -36 
Q 684 19 347 128 
L 347 722 
Q 666 556 975 473 
Q 1284 391 1588 391 
Q 1994 391 2212 530 
Q 2431 669 2431 922 
Q 2431 1156 2273 1281 
Q 2116 1406 1581 1522 
L 1381 1569 
Q 847 1681 609 1914 
Q 372 2147 372 2553 
Q 372 3047 722 3315 
Q 1072 3584 1716 3584 
Q 2034 3584 2315 3537 
Q 2597 3491 2834 3397 
z
" transform="scale(0.015625)"/>
       <path id="DejaVuSans-5d" d="M 1947 4863 
L 1947 -844 
L 622 -844 
L 622 -397 
L 1369 -397 
L 1369 4416 
L 622 4416 
L 622 4863 
L 1947 4863 
z
" transform="scale(0.015625)"/>
      </defs>
      <use xlink:href="#DejaVuSans-74"/>
      <use xlink:href="#DejaVuSans-69" x="39.208984"/>
      <use xlink:href="#DejaVuSans-6d" x="66.992188"/>
      <use xlink:href="#DejaVuSans-65" x="164.404297"/>
      <use xlink:href="#DejaVuSans-20" x="225.927734"/>
      <use xlink:href="#DejaVuSans-5b" x="257.714844"/>
      <use xlink:href="#DejaVuSans-75" x="296.728516"/>
      <use xlink:href="#DejaVuSans-73" x="360.107422"/>
      <use xlink:href="#DejaVuSans-5d" x="412.207031"/>
     </g>
    </g>
   </g>
   <g id="matplotlib.axis_2">
    <g id="ytick_1">
     <g id="line2d_19">
      <path d="M 46.64 288.856686 
L 493.2 288.856686 
" clip-path="url(#p2130504b90)" style="fill: none; stroke: #808080; stroke-width: 0.8; stroke-linecap: square"/>
     </g>
     <g id="line2d_20">
      <defs>
       <path id="m5fdd6cdae2" d="M 0 0 
L -3.5 0 
" style="stroke: #000000; stroke-width: 0.8"/>
      </defs>
      <g>
       <use xlink:href="#m5fdd6cdae2" x="46.64" y="288.856686" style="stroke: #000000; stroke-width: 0.8"/>
      </g>
     </g>
     <g id="text_11">
      <!-- −1 -->
      <g transform="translate(21.949375 293.415748) scale(0.12 -0.12)">
       <defs>
        <path id="DejaVuSans-2212" d="M 678 2272 
L 4684 2272 
L 4684 1741 
L 678 1741 
L 678 2272 
z
" transform="scale(0.015625)"/>
       </defs>
       <use xlink:href="#DejaVuSans-2212"/>
       <use xlink:href="#DejaVuSans-31" x="83.789062"/>
      </g>
     </g>
    </g>
    <g id="ytick_2">
     <g id="line2d_21">
      <path d="M 46.64 241.435128 
L 493.2 241.435128 
" clip-path="url(#p2130504b90)" style="fill: none; stroke: #808080; stroke-width: 0.8; stroke-linecap: square"/>
     </g>
     <g id="line2d_22">
      <g>
       <use xlink:href="#m5fdd6cdae2" x="46.64" y="241.435128" style="stroke: #000000; stroke-width: 0.8"/>
      </g>
     </g>
     <g id="text_12">
      <!-- 0 -->
      <g transform="translate(32.005 245.994191) scale(0.12 -0.12)">
       <use xlink:href="#DejaVuSans-30"/>
      </g>
     </g>
    </g>
    <g id="ytick_3">
     <g id="line2d_23">
      <path d="M 46.64 194.01357 
L 493.2 194.01357 
" clip-path="url(#p2130504b90)" style="fill: none; stroke: #808080; stroke-width: 0.8; stroke-linecap: square"/>
     </g>
     <g id="line2d_24">
      <g>
       <use xlink:href="#m5fdd6cdae2" x="46.64" y="194.01357" style="stroke: #000000; stroke-width: 0.8"/>
      </g>
     </g>
     <g id="text_13">
      <!-- 1 -->
      <g transform="translate(32.005 198.572633) scale(0.12 -0.12)">
       <use xlink:href="#DejaVuSans-31"/>
      </g>
     </g>
    </g>
    <g id="ytick_4">
     <g id="line2d_25">
      <path d="M 46.64 146.592013 
L 493.2 146.592013 
" clip-path="url(#p2130504b90)" style="fill: none; stroke: #808080; stroke-width: 0.8; stroke-linecap: square"/>
     </g>
     <g id="line2d_26">
      <g>
       <use xlink:href="#m5fdd6cdae2" x="46.64" y="146.592013" style="stroke: #000000; stroke-width: 0.8"/>
      </g>
     </g>
     <g id="text_14">
      <!-- 2 -->
      <g transform="translate(32.005 151.151075) scale(0.12 -0.12)">
       <use xlink:href="#DejaVuSans-32"/>
      </g>
     </g>
    </g>
    <g id="ytick_5">
     <g id="line2d_27">
      <path d="M 46.64 99.170455 
L 493.2 99.170455 
" clip-path="url(#p2130504b90)" style="fill: none; stroke: #808080; stroke-width: 0.8; stroke-linecap: square"/>
     </g>
     <g id="line2d_28">
      <g>
       <use xlink:href="#m5fdd6cdae2" x="46.64" y="99.170455" style="stroke: #000000; stroke-width: 0.8"/>
      </g>
     </g>
     <g id="text_15">
      <!-- 3 -->
      <g transform="translate(32.005 103.729517) scale(0.12 -0.12)">
       <defs>
        <path id="DejaVuSans-33" d="M 2597 2516 
Q 3050 2419 3304 2112 
Q 3559 1806 3559 1356 
Q 3559 666 3084 287 
Q 2609 -91 1734 -91 
Q 1441 -91 1130 -33 
Q 819 25 488 141 
L 488 750 
Q 750 597 1062 519 
Q 1375 441 1716 441 
Q 2309 441 2620 675 
Q 2931 909 2931 1356 
Q 2931 1769 2642 2001 
Q 2353 2234 1838 2234 
L 1294 2234 
L 1294 2753 
L 1863 2753 
Q 2328 2753 2575 2939 
Q 2822 3125 2822 3475 
Q 2822 3834 2567 4026 
Q 2313 4219 1838 4219 
Q 1578 4219 1281 4162 
Q 984 4106 628 3988 
L 628 4550 
Q 988 4650 1302 4700 
Q 1616 4750 1894 4750 
Q 2613 4750 3031 4423 
Q 3450 4097 3450 3541 
Q 3450 3153 3228 2886 
Q 3006 2619 2597 2516 
z
" transform="scale(0.015625)"/>
       </defs>
       <use xlink:href="#DejaVuSans-33"/>
      </g>
     </g>
    </g>
    <g id="ytick_6">
     <g id="line2d_29">
      <path d="M 46.64 51.748897 
L 493.2 51.748897 
" clip-path="url(#p2130504b90)" style="fill: none; stroke: #808080; stroke-width: 0.8; stroke-linecap: square"/>
     </g>
     <g id="line2d_30">
      <g>
       <use xlink:href="#m5fdd6cdae2" x="46.64" y="51.748897" style="stroke: #000000; stroke-width: 0.8"/>
      </g>
     </g>
     <g id="text_16">
      <!-- 4 -->
      <g transform="translate(32.005 56.30796) scale(0.12 -0.12)">
       <defs>
        <path id="DejaVuSans-34" d="M 2419 4116 
L 825 1625 
L 2419 1625 
L 2419 4116 
z
M 2253 4666 
L 3047 4666 
L 3047 1625 
L 3713 1625 
L 3713 1100 
L 3047 1100 
L 3047 0 
L 2419 0 
L 2419 1100 
L 313 1100 
L 313 1709 
L 2253 4666 
z
" transform="scale(0.015625)"/>
       </defs>
       <use xlink:href="#DejaVuSans-34"/>
      </g>
     </g>
    </g>
    <g id="text_17">
     <!-- [V] -->
     <g transform="translate(15.45375 181.24625) rotate(-90) scale(0.12 -0.12)">
      <defs>
       <path id="DejaVuSans-56" d="M 1831 0 
L 50 4666 
L 709 4666 
L 2188 738 
L 3669 4666 
L 4325 4666 
L 2547 0 
L 1831 0 
z
" transform="scale(0.015625)"/>
      </defs>
      <use xlink:href="#DejaVuSans-5b"/>
      <use xlink:href="#DejaVuSans-56" x="39.013672"/>
      <use xlink:href="#DejaVuSans-5d" x="107.421875"/>
     </g>
    </g>
   </g>
   <g id="line2d_31">
    <path d="M 66.938182 230.657501 
L 68.565291 187.793032 
L 69.378845 169.883419 
L 70.192399 155.820271 
L 71.005954 146.441296 
L 71.819508 142.289063 
L 72.633062 143.576771 
L 73.446617 150.174798 
L 74.260171 161.618875 
L 75.073726 177.139369 
L 76.700834 216.111778 
L 78.327943 257.044196 
L 79.141498 274.900177 
L 79.955052 289.407346 
L 80.768606 299.60521 
L 81.582161 304.805455 
L 82.395715 304.635365 
L 83.209269 299.061336 
L 84.022824 288.390986 
L 84.836378 273.253754 
L 86.463487 233.449429 
L 88.90415 168.761936 
L 89.717704 151.151888 
L 90.531259 137.435499 
L 91.344813 128.436842 
L 92.158368 124.682668 
L 92.971922 126.369186 
L 93.785476 133.349672 
L 94.599031 145.14373 
L 95.412585 160.967594 
L 97.039694 200.365483 
L 98.666803 241.45125 
L 99.480357 259.2863 
L 100.293911 273.718051 
L 101.107466 283.798315 
L 101.92102 288.85369 
L 102.734575 288.528037 
L 103.548129 282.804949 
L 104.361683 272.008778 
L 105.175238 256.784179 
L 106.802347 216.968142 
L 109.24301 152.752445 
L 110.056564 135.422761 
L 110.870118 122.033474 
L 111.683673 113.394887 
L 112.497227 110.017852 
L 113.310782 112.081551 
L 114.124336 119.422184 
L 114.93789 131.543303 
L 115.751445 147.647129 
L 117.378553 187.42291 
L 119.005662 228.614766 
L 119.819217 246.405907 
L 120.632771 260.739949 
L 121.446325 270.681156 
L 122.25988 275.571144 
L 123.073434 275.070407 
L 123.886989 269.179737 
L 124.700543 258.24017 
L 125.514097 242.911469 
L 127.141206 203.052151 
L 129.581869 139.262634 
L 130.395424 122.197733 
L 131.208978 109.119475 
L 132.022532 100.824263 
L 132.836087 97.806969 
L 133.649641 100.22972 
L 134.463195 107.911662 
L 135.27675 120.340375 
L 136.090304 136.704192 
L 137.717413 176.817101 
L 139.344522 218.074558 
L 140.158076 235.802175 
L 140.971631 250.019561 
L 141.785185 259.803584 
L 142.598739 264.510978 
L 143.412294 263.818925 
L 144.225848 257.745415 
L 145.039402 246.648108 
L 145.852957 231.201776 
L 147.480066 191.273926 
L 149.920729 127.874199 
L 150.734283 111.06151 
L 151.547837 98.281188 
L 152.361392 90.315611 
L 153.174946 87.643591 
L 153.988501 90.410171 
L 154.802055 98.417475 
L 155.615609 111.137189 
L 156.429164 127.743885 
L 158.056273 168.158845 
L 159.683381 209.447058 
L 160.496936 227.094344 
L 161.31049 241.178924 
L 162.124044 250.790416 
L 162.937599 255.300776 
L 163.751153 254.403922 
L 164.564708 248.135036 
L 165.378262 236.868351 
L 166.191816 221.293536 
L 167.818925 181.27717 
L 170.259588 118.238528 
L 171.073143 101.667983 
L 171.886697 89.174985 
L 172.700251 81.527757 
L 173.513806 79.188977 
L 174.32736 82.286582 
L 175.140915 90.605702 
L 175.954469 103.602212 
L 176.768023 120.437056 
L 178.395132 161.123723 
L 180.022241 202.412557 
L 180.835795 219.965047 
L 181.64935 233.903008 
L 182.462904 243.328948 
L 183.276458 247.630145 
L 184.090013 246.5173 
L 184.903567 240.042785 
L 185.717122 228.597341 
L 186.530676 212.885426 
L 188.157785 172.764957 
L 189.784893 129.509758 
L 190.598448 110.065091 
L 191.412002 93.728706 
L 192.225557 81.514477 
L 193.039111 74.176354 
L 193.852665 72.160802 
L 194.66622 75.578634 
L 195.479774 84.198018 
L 196.293328 97.459106 
L 197.106883 114.509345 
L 198.733992 155.44132 
L 200.3611 196.704571 
L 201.174655 214.149758 
L 201.988209 227.929237 
L 202.801764 237.158549 
L 203.615318 241.240388 
L 204.428872 239.902284 
L 205.242427 233.213791 
L 206.055981 221.582096 
L 206.869535 205.726332 
L 208.496644 165.489844 
L 210.123753 122.384147 
L 210.937307 103.111771 
L 211.750862 87.003292 
L 212.564416 75.060989 
L 213.37797 68.024417 
L 214.191525 66.32376 
L 215.005079 70.052686 
L 215.818634 78.962441 
L 216.632188 92.477539 
L 217.445742 109.732065 
L 219.072851 150.886232 
L 220.69996 192.10097 
L 221.513514 209.427986 
L 222.327069 223.038754 
L 223.140623 232.061987 
L 223.954177 235.915892 
L 224.767732 234.344871 
L 225.581286 227.435647 
L 226.394841 215.611787 
L 227.208395 199.606988 
L 228.835504 159.245625 
L 230.462612 116.281252 
L 231.276167 97.176797 
L 232.089721 81.291407 
L 232.903276 69.615605 
L 233.71683 62.874435 
L 234.530384 61.481731 
L 235.343939 65.514001 
L 236.157493 74.705607 
L 236.971048 88.465515 
L 237.784602 105.914588 
L 241.852374 205.615943 
L 242.665928 219.049137 
L 243.479483 227.858204 
L 244.293037 231.476957 
L 245.106591 229.666708 
L 245.920146 222.531335 
L 246.7337 210.510721 
L 247.547255 194.353006 
L 249.174363 153.86047 
L 250.801472 111.03172 
L 251.615026 92.092026 
L 252.428581 76.4261 
L 253.242135 65.01255 
L 254.05569 58.561798 
L 254.869244 57.471257 
L 255.682798 61.800264 
L 256.496353 71.266339 
L 257.309907 85.262996 
L 258.123461 102.898011 
L 262.191233 202.560433 
L 263.004788 215.808334 
L 263.818342 224.396292 
L 264.631897 227.77381 
L 265.445451 225.719154 
L 266.259005 218.353336 
L 267.07256 206.132484 
L 267.886114 189.819065 
L 269.513223 149.191195 
L 271.140332 106.494428 
L 271.953886 87.71734 
L 272.76744 72.268242 
L 273.580995 61.113672 
L 274.394549 54.949312 
L 275.208103 54.156097 
L 276.021658 58.776183 
L 276.835212 68.510288 
L 277.648767 82.736574 
L 278.462321 100.54987 
L 282.530093 200.133753 
L 283.343647 213.189604 
L 284.157202 221.550467 
L 284.970756 224.681625 
L 285.78431 222.37833 
L 286.597865 214.778711 
L 287.411419 202.355069 
L 288.224974 185.884075 
L 289.852082 145.118491 
L 291.479191 102.551785 
L 292.292745 83.935982 
L 293.1063 68.701892 
L 293.919854 57.803834 
L 294.733409 51.922639 
L 295.546963 51.4227 
L 296.360517 56.328987 
L 297.174072 66.325465 
L 297.987626 80.775038 
L 299.614735 119.13862 
L 302.055398 181.459583 
L 302.868952 198.229453 
L 303.682507 211.087302 
L 304.496061 219.21589 
L 305.309616 222.096367 
L 306.12317 219.540999 
L 306.936724 211.705015 
L 307.750279 199.076808 
L 308.563833 182.447134 
L 310.190942 141.542951 
L 311.818051 99.105809 
L 312.631605 80.650659 
L 313.445159 65.630437 
L 314.258714 54.987087 
L 315.072268 49.386484 
L 315.885823 49.176421 
L 316.699377 54.364676 
L 317.512931 64.618513 
L 318.326486 79.285678 
L 319.953594 117.917821 
L 322.394258 180.144858 
L 323.207812 196.758792 
L 324.021366 209.413364 
L 324.834921 217.305178 
L 325.648475 219.931328 
L 326.46203 217.121128 
L 327.275584 209.046877 
L 328.089138 196.21299 
L 328.902693 179.424175 
L 330.529801 138.381749 
L 332.15691 96.074863 
L 332.970465 77.780307 
L 333.784019 62.973369 
L 334.597573 52.583472 
L 335.411128 47.261427 
L 336.224682 47.338373 
L 337.038236 52.804894 
L 337.851791 63.311606 
L 338.665345 78.1912 
L 340.292454 117.080165 
L 342.733117 179.195142 
L 343.546672 195.647789 
L 344.360226 208.094383 
L 345.17378 215.745494 
L 345.987335 218.114243 
L 346.800889 215.047019 
L 347.614443 206.733162 
L 348.427998 193.693028 
L 349.241552 176.745155 
L 350.868661 135.565888 
L 352.49577 93.390932 
L 353.309324 75.257381 
L 354.122878 60.663605 
L 354.936433 50.526355 
L 355.749987 45.481277 
L 356.563542 45.842803 
L 357.377096 51.584323 
L 358.19065 62.339861 
L 359.004205 77.427161 
L 360.631314 116.562103 
L 363.071977 178.548282 
L 363.885531 194.83477 
L 364.699085 207.069165 
L 365.51264 214.476128 
L 366.326194 216.584887 
L 367.139749 213.258925 
L 367.953303 204.704599 
L 368.766857 191.458119 
L 369.580412 174.351722 
L 371.20752 133.037886 
L 372.834629 90.997354 
L 373.648184 73.025608 
L 374.461738 58.645248 
L 375.275292 48.760209 
L 376.088847 43.990868 
L 376.902401 44.634902 
L 377.715956 50.648512 
L 378.52951 61.649186 
L 379.343064 76.939828 
L 380.970173 116.310643 
L 383.410836 178.152451 
L 384.224391 194.268312 
L 385.037945 206.286694 
L 385.851499 213.446477 
L 386.665054 215.293064 
L 387.478608 211.70706 
L 388.292163 202.911801 
L 389.105717 189.459269 
L 389.919271 172.195268 
L 391.54638 130.749868 
L 393.173489 88.846928 
L 393.987043 71.038109 
L 394.800598 56.871728 
L 395.614152 47.238763 
L 396.427706 42.744224 
L 397.241261 43.668984 
L 398.054815 49.952063 
L 398.868369 61.194474 
L 399.681924 76.684391 
L 401.309033 116.281588 
L 402.936141 158.889237 
L 403.749696 177.964435 
L 404.56325 193.905541 
L 405.376805 205.704444 
L 406.190359 212.614361 
L 407.003913 214.196945 
L 407.817468 210.34994 
L 408.631022 201.313626 
L 409.444576 187.65567 
L 410.258131 170.235307 
L 411.88524 128.661957 
L 413.512348 86.90034 
L 414.325903 69.25583 
L 415.139457 55.304244 
L 415.953011 45.923461 
L 416.766566 41.703027 
L 417.58012 42.906967 
L 418.393675 49.45713 
L 419.207229 60.938116 
L 420.020783 76.623483 
L 421.647892 116.438075 
L 423.275001 158.995851 
L 424.088555 177.948191 
L 424.90211 193.710703 
L 425.715664 205.286956 
L 426.529218 211.94462 
L 427.342773 213.261669 
L 428.156327 209.152998 
L 428.969882 199.875799 
L 429.783436 186.01333 
L 430.59699 168.438121 
L 434.664762 67.646243 
L 435.478317 53.910473 
L 436.291871 44.782174 
L 437.105425 40.835339 
L 437.91898 42.317103 
L 438.732534 49.132153 
L 439.546089 60.848744 
L 440.359643 76.725933 
L 441.986752 116.749351 
L 443.61386 159.248281 
L 444.427415 178.073659 
L 445.240969 193.653986 
L 446.054524 205.004668 
L 446.868078 211.407948 
L 447.681632 212.458183 
L 448.495187 208.087439 
L 449.308741 198.569771 
L 450.122296 184.503941 
L 450.93585 166.775636 
L 455.003622 66.182258 
L 455.817176 52.663487 
L 456.630731 43.788135 
L 457.444285 40.114545 
L 458.257839 41.872925 
L 459.071394 48.950817 
L 459.884948 60.900198 
L 460.698502 76.965741 
L 462.325611 117.189757 
L 463.95272 159.621248 
L 464.766274 178.315762 
L 465.579829 193.710524 
L 466.393383 204.832933 
L 467.206938 210.979915 
L 468.020492 211.762279 
L 468.834046 207.12927 
L 469.647601 197.371765 
L 470.461155 183.103932 
L 471.274709 165.224476 
L 472.901818 123.293691 
L 472.901818 123.293691 
" clip-path="url(#p2130504b90)" style="fill: none; stroke: #ff0000; stroke-width: 2; stroke-linecap: square"/>
   </g>
   <g id="patch_3">
    <path d="M 46.64 318.04 
L 46.64 26.88 
" style="fill: none; stroke: #000000; stroke-width: 0.8; stroke-linejoin: miter; stroke-linecap: square"/>
   </g>
   <g id="patch_4">
    <path d="M 493.2 318.04 
L 493.2 26.88 
" style="fill: none; stroke: #000000; stroke-width: 0.8; stroke-linejoin: miter; stroke-linecap: square"/>
   </g>
   <g id="patch_5">
    <path d="M 46.64 318.04 
L 493.2 318.04 
" style="fill: none; stroke: #000000; stroke-width: 0.8; stroke-linejoin: miter; stroke-linecap: square"/>
   </g>
   <g id="patch_6">
    <path d="M 46.64 26.88 
L 493.2 26.88 
" style="fill: none; stroke: #000000; stroke-width: 0.8; stroke-linejoin: miter; stroke-linecap: square"/>
   </g>
   <g id="text_18">
    <!-- Time-domain response -->
    <g transform="translate(201.447812 20.88) scale(0.12 -0.12)">
     <defs>
      <path id="DejaVuSans-54" d="M -19 4666 
L 3928 4666 
L 3928 4134 
L 2272 4134 
L 2272 0 
L 1638 0 
L 1638 4134 
L -19 4134 
L -19 4666 
z
" transform="scale(0.015625)"/>
      <path id="DejaVuSans-2d" d="M 313 2009 
L 1997 2009 
L 1997 1497 
L 313 1497 
L 313 2009 
z
" transform="scale(0.015625)"/>
      <path id="DejaVuSans-64" d="M 2906 2969 
L 2906 4863 
L 3481 4863 
L 3481 0 
L 2906 0 
L 2906 525 
Q 2725 213 2448 61 
Q 2172 -91 1784 -91 
Q 1150 -91 751 415 
Q 353 922 353 1747 
Q 353 2572 751 3078 
Q 1150 3584 1784 3584 
Q 2172 3584 2448 3432 
Q 2725 3281 2906 2969 
z
M 947 1747 
Q 947 1113 1208 752 
Q 1469 391 1925 391 
Q 2381 391 2643 752 
Q 2906 1113 2906 1747 
Q 2906 2381 2643 2742 
Q 2381 3103 1925 3103 
Q 1469 3103 1208 2742 
Q 947 2381 947 1747 
z
" transform="scale(0.015625)"/>
      <path id="DejaVuSans-6f" d="M 1959 3097 
Q 1497 3097 1228 2736 
Q 959 2375 959 1747 
Q 959 1119 1226 758 
Q 1494 397 1959 397 
Q 2419 397 2687 759 
Q 2956 1122 2956 1747 
Q 2956 2369 2687 2733 
Q 2419 3097 1959 3097 
z
M 1959 3584 
Q 2709 3584 3137 3096 
Q 3566 2609 3566 1747 
Q 3566 888 3137 398 
Q 2709 -91 1959 -91 
Q 1206 -91 779 398 
Q 353 888 353 1747 
Q 353 2609 779 3096 
Q 1206 3584 1959 3584 
z
" transform="scale(0.015625)"/>
      <path id="DejaVuSans-61" d="M 2194 1759 
Q 1497 1759 1228 1600 
Q 959 1441 959 1056 
Q 959 750 1161 570 
Q 1363 391 1709 391 
Q 2188 391 2477 730 
Q 2766 1069 2766 1631 
L 2766 1759 
L 2194 1759 
z
M 3341 1997 
L 3341 0 
L 2766 0 
L 2766 531 
Q 2569 213 2275 61 
Q 1981 -91 1556 -91 
Q 1019 -91 701 211 
Q 384 513 384 1019 
Q 384 1609 779 1909 
Q 1175 2209 1959 2209 
L 2766 2209 
L 2766 2266 
Q 2766 2663 2505 2880 
Q 2244 3097 1772 3097 
Q 1472 3097 1187 3025 
Q 903 2953 641 2809 
L 641 3341 
Q 956 3463 1253 3523 
Q 1550 3584 1831 3584 
Q 2591 3584 2966 3190 
Q 3341 2797 3341 1997 
z
" transform="scale(0.015625)"/>
      <path id="DejaVuSans-6e" d="M 3513 2113 
L 3513 0 
L 2938 0 
L 2938 2094 
Q 2938 2591 2744 2837 
Q 2550 3084 2163 3084 
Q 1697 3084 1428 2787 
Q 1159 2491 1159 1978 
L 1159 0 
L 581 0 
L 581 3500 
L 1159 3500 
L 1159 2956 
Q 1366 3272 1645 3428 
Q 1925 3584 2291 3584 
Q 2894 3584 3203 3211 
Q 3513 2838 3513 2113 
z
" transform="scale(0.015625)"/>
      <path id="DejaVuSans-72" d="M 2631 2963 
Q 2534 3019 2420 3045 
Q 2306 3072 2169 3072 
Q 1681 3072 1420 2755 
Q 1159 2438 1159 1844 
L 1159 0 
L 581 0 
L 581 3500 
L 1159 3500 
L 1159 2956 
Q 1341 3275 1631 3429 
Q 1922 3584 2338 3584 
Q 2397 3584 2469 3576 
Q 2541 3569 2628 3553 
L 2631 2963 
z
" transform="scale(0.015625)"/>
      <path id="DejaVuSans-70" d="M 1159 525 
L 1159 -1331 
L 581 -1331 
L 581 3500 
L 1159 3500 
L 1159 2969 
Q 1341 3281 1617 3432 
Q 1894 3584 2278 3584 
Q 2916 3584 3314 3078 
Q 3713 2572 3713 1747 
Q 3713 922 3314 415 
Q 2916 -91 2278 -91 
Q 1894 -91 1617 61 
Q 1341 213 1159 525 
z
M 3116 1747 
Q 3116 2381 2855 2742 
Q 2594 3103 2138 3103 
Q 1681 3103 1420 2742 
Q 1159 2381 1159 1747 
Q 1159 1113 1420 752 
Q 1681 391 2138 391 
Q 2594 391 2855 752 
Q 3116 1113 3116 1747 
z
" transform="scale(0.015625)"/>
     </defs>
     <use xlink:href="#DejaVuSans-54"/>
     <use xlink:href="#DejaVuSans-69" x="57.958984"/>
     <use xlink:href="#DejaVuSans-6d" x="85.742188"/>
     <use xlink:href="#DejaVuSans-65" x="183.154297"/>
     <use xlink:href="#DejaVuSans-2d" x="244.677734"/>
     <use xlink:href="#DejaVuSans-64" x="280.761719"/>
     <use xlink:href="#DejaVuSans-6f" x="344.238281"/>
     <use xlink:href="#DejaVuSans-6d" x="405.419922"/>
     <use xlink:href="#DejaVuSans-61" x="502.832031"/>
     <use xlink:href="#DejaVuSans-69" x="564.111328"/>
     <use xlink:href="#DejaVuSans-6e" x="591.894531"/>
     <use xlink:href="#DejaVuSans-20" x="655.273438"/>
     <use xlink:href="#DejaVuSans-72" x="687.060547"/>
     <use xlink:href="#DejaVuSans-65" x="725.923828"/>
     <use xlink:href="#DejaVuSans-73" x="787.447266"/>
     <use xlink:href="#DejaVuSans-70" x="839.546875"/>
     <use xlink:href="#DejaVuSans-6f" x="903.023438"/>
     <use xlink:href="#DejaVuSans-6e" x="964.205078"/>
     <use xlink:href="#DejaVuSans-73" x="1027.583984"/>
     <use xlink:href="#DejaVuSans-65" x="1079.683594"/>
    </g>
   </g>
   <g id="legend_1">
    <g id="patch_7">
     <path d="M 53.64 47.8275 
L 99.500625 47.8275 
Q 101.500625 47.8275 101.500625 45.8275 
L 101.500625 33.88 
Q 101.500625 31.88 99.500625 31.88 
L 53.64 31.88 
Q 51.64 31.88 51.64 33.88 
L 51.64 45.8275 
Q 51.64 47.8275 53.64 47.8275 
z
" style="fill: #ffffff; opacity: 0.8; stroke: #cccccc; stroke-linejoin: miter"/>
    </g>
    <g id="line2d_32">
     <path d="M 53.64 39.498125 
L 58.64 39.498125 
L 63.64 39.498125 
" style="fill: none; stroke: #ff0000; stroke-width: 2; stroke-linecap: square"/>
    </g>
    <g id="text_19">
     <!-- V_out -->
     <g transform="translate(65.64 42.998125) scale(0.12 -0.12)">
      <defs>
       <path id="DejaVuSans-5f" d="M 3263 -1063 
L 3263 -1509 
L -63 -1509 
L -63 -1063 
L 3263 -1063 
z
" transform="scale(0.015625)"/>
      </defs>
      <use xlink:href="#DejaVuSans-56"/>
      <use xlink:href="#DejaVuSans-5f" x="68.408203"/>
      <use xlink:href="#DejaVuSans-6f" x="118.408203"/>
      <use xlink:href="#DejaVuSans-75" x="179.589844"/>
      <use xlink:href="#DejaVuSans-74" x="242.96875"/>
     </g>
    </g>
   </g>
  </g>
 </g>
 <defs>
  <clipPath id="p2130504b90">
   <rect x="46.64" y="26.88" width="446.56" height="291.16"/>
  </clipPath>
 </defs>
</svg>
