<?xml version="1.0" encoding="utf-8" standalone="no"?>
<!DOCTYPE svg PUBLIC "-//W3C//DTD SVG 1.1//EN"
  "http://www.w3.org/Graphics/SVG/1.1/DTD/svg11.dtd">
<svg xmlns:xlink="http://www.w3.org/1999/xlink" width="504pt" height="360pt" viewBox="0 0 504 360" xmlns="http://www.w3.org/2000/svg" version="1.1">
 <metadata>
  <rdf:RDF xmlns:dc="http://purl.org/dc/elements/1.1/" xmlns:cc="http://creativecommons.org/ns#" xmlns:rdf="http://www.w3.org/1999/02/22-rdf-syntax-ns#">
   <cc:Work>
    <dc:type rdf:resource="http://purl.org/dc/dcmitype/StillImage"/>
    <dc:date>2025-08-13T13:39:22.734560</dc:date>
    <dc:format>image/svg+xml</dc:format>
    <dc:creator>
     <cc:Agent>
      <dc:title>Matplotlib v3.9.2, https://matplotlib.org/</dc:title>
     </cc:Agent>
    </dc:creator>
   </cc:Work>
  </rdf:RDF>
 </metadata>
 <defs>
  <style type="text/css">*{stroke-linejoin: round; stroke-linecap: butt}</style>
 </defs>
 <g id="figure_1">
  <g id="patch_1">
   <path d="M 0 360 
L 504 360 
L 504 0 
L 0 0 
z
" style="fill: #ffffff"/>
  </g>
  <g id="axes_1">
   <g id="patch_2">
    <path d="M 58.476107 310.12 
L 493.2 310.12 
L 493.2 28.32 
L 58.476107 28.32 
z
" style="fill: #ffffff"/>
   </g>
   <g id="matplotlib.axis_1">
    <g id="xtick_1">
     <g id="line2d_1">
      <path d="M 78.236284 310.12 
L 78.236284 28.32 
" clip-path="url(#p433df8cc85)" style="fill: none; stroke: #808080; stroke-width: 0.8; stroke-linecap: square"/>
     </g>
     <g id="line2d_2">
      <defs>
       <path id="ma064a20130" d="M 0 0 
L 0 3.5 
" style="stroke: #000000; stroke-width: 0.8"/>
      </defs>
      <g>
       <use xlink:href="#ma064a20130" x="78.236284" y="310.12" style="stroke: #000000; stroke-width: 0.8"/>
      </g>
     </g>
     <g id="text_1">
      <!-- 1.0 -->
      <g transform="translate(68.694409 326.238125) scale(0.12 -0.12)">
       <defs>
        <path id="DejaVuSans-31" d="M 794 531 
L 1825 531 
L 1825 4091 
L 703 3866 
L 703 4441 
L 1819 4666 
L 2450 4666 
L 2450 531 
L 3481 531 
L 3481 0 
L 794 0 
L 794 531 
z
" transform="scale(0.015625)"/>
        <path id="DejaVuSans-2e" d="M 684 794 
L 1344 794 
L 1344 0 
L 684 0 
L 684 794 
z
" transform="scale(0.015625)"/>
        <path id="DejaVuSans-30" d="M 2034 4250 
Q 1547 4250 1301 3770 
Q 1056 3291 1056 2328 
Q 1056 1369 1301 889 
Q 1547 409 2034 409 
Q 2525 409 2770 889 
Q 3016 1369 3016 2328 
Q 3016 3291 2770 3770 
Q 2525 4250 2034 4250 
z
M 2034 4750 
Q 2819 4750 3233 4129 
Q 3647 3509 3647 2328 
Q 3647 1150 3233 529 
Q 2819 -91 2034 -91 
Q 1250 -91 836 529 
Q 422 1150 422 2328 
Q 422 3509 836 4129 
Q 1250 4750 2034 4750 
z
" transform="scale(0.015625)"/>
       </defs>
       <use xlink:href="#DejaVuSans-31"/>
       <use xlink:href="#DejaVuSans-2e" x="63.623047"/>
       <use xlink:href="#DejaVuSans-30" x="95.410156"/>
      </g>
     </g>
    </g>
    <g id="xtick_2">
     <g id="line2d_3">
      <path d="M 127.636727 310.12 
L 127.636727 28.32 
" clip-path="url(#p433df8cc85)" style="fill: none; stroke: #808080; stroke-width: 0.8; stroke-linecap: square"/>
     </g>
     <g id="line2d_4">
      <g>
       <use xlink:href="#ma064a20130" x="127.636727" y="310.12" style="stroke: #000000; stroke-width: 0.8"/>
      </g>
     </g>
     <g id="text_2">
      <!-- 1.5 -->
      <g transform="translate(118.094852 326.238125) scale(0.12 -0.12)">
       <defs>
        <path id="DejaVuSans-35" d="M 691 4666 
L 3169 4666 
L 3169 4134 
L 1269 4134 
L 1269 2991 
Q 1406 3038 1543 3061 
Q 1681 3084 1819 3084 
Q 2600 3084 3056 2656 
Q 3513 2228 3513 1497 
Q 3513 744 3044 326 
Q 2575 -91 1722 -91 
Q 1428 -91 1123 -41 
Q 819 9 494 109 
L 494 744 
Q 775 591 1075 516 
Q 1375 441 1709 441 
Q 2250 441 2565 725 
Q 2881 1009 2881 1497 
Q 2881 1984 2565 2268 
Q 2250 2553 1709 2553 
Q 1456 2553 1204 2497 
Q 953 2441 691 2322 
L 691 4666 
z
" transform="scale(0.015625)"/>
       </defs>
       <use xlink:href="#DejaVuSans-31"/>
       <use xlink:href="#DejaVuSans-2e" x="63.623047"/>
       <use xlink:href="#DejaVuSans-35" x="95.410156"/>
      </g>
     </g>
    </g>
    <g id="xtick_3">
     <g id="line2d_5">
      <path d="M 177.037169 310.12 
L 177.037169 28.32 
" clip-path="url(#p433df8cc85)" style="fill: none; stroke: #808080; stroke-width: 0.8; stroke-linecap: square"/>
     </g>
     <g id="line2d_6">
      <g>
       <use xlink:href="#ma064a20130" x="177.037169" y="310.12" style="stroke: #000000; stroke-width: 0.8"/>
      </g>
     </g>
     <g id="text_3">
      <!-- 2.0 -->
      <g transform="translate(167.495294 326.238125) scale(0.12 -0.12)">
       <defs>
        <path id="DejaVuSans-32" d="M 1228 531 
L 3431 531 
L 3431 0 
L 469 0 
L 469 531 
Q 828 903 1448 1529 
Q 2069 2156 2228 2338 
Q 2531 2678 2651 2914 
Q 2772 3150 2772 3378 
Q 2772 3750 2511 3984 
Q 2250 4219 1831 4219 
Q 1534 4219 1204 4116 
Q 875 4013 500 3803 
L 500 4441 
Q 881 4594 1212 4672 
Q 1544 4750 1819 4750 
Q 2544 4750 2975 4387 
Q 3406 4025 3406 3419 
Q 3406 3131 3298 2873 
Q 3191 2616 2906 2266 
Q 2828 2175 2409 1742 
Q 1991 1309 1228 531 
z
" transform="scale(0.015625)"/>
       </defs>
       <use xlink:href="#DejaVuSans-32"/>
       <use xlink:href="#DejaVuSans-2e" x="63.623047"/>
       <use xlink:href="#DejaVuSans-30" x="95.410156"/>
      </g>
     </g>
    </g>
    <g id="xtick_4">
     <g id="line2d_7">
      <path d="M 226.437611 310.12 
L 226.437611 28.32 
" clip-path="url(#p433df8cc85)" style="fill: none; stroke: #808080; stroke-width: 0.8; stroke-linecap: square"/>
     </g>
     <g id="line2d_8">
      <g>
       <use xlink:href="#ma064a20130" x="226.437611" y="310.12" style="stroke: #000000; stroke-width: 0.8"/>
      </g>
     </g>
     <g id="text_4">
      <!-- 2.5 -->
      <g transform="translate(216.895736 326.238125) scale(0.12 -0.12)">
       <use xlink:href="#DejaVuSans-32"/>
       <use xlink:href="#DejaVuSans-2e" x="63.623047"/>
       <use xlink:href="#DejaVuSans-35" x="95.410156"/>
      </g>
     </g>
    </g>
    <g id="xtick_5">
     <g id="line2d_9">
      <path d="M 275.838054 310.12 
L 275.838054 28.32 
" clip-path="url(#p433df8cc85)" style="fill: none; stroke: #808080; stroke-width: 0.8; stroke-linecap: square"/>
     </g>
     <g id="line2d_10">
      <g>
       <use xlink:href="#ma064a20130" x="275.838054" y="310.12" style="stroke: #000000; stroke-width: 0.8"/>
      </g>
     </g>
     <g id="text_5">
      <!-- 3.0 -->
      <g transform="translate(266.296179 326.238125) scale(0.12 -0.12)">
       <defs>
        <path id="DejaVuSans-33" d="M 2597 2516 
Q 3050 2419 3304 2112 
Q 3559 1806 3559 1356 
Q 3559 666 3084 287 
Q 2609 -91 1734 -91 
Q 1441 -91 1130 -33 
Q 819 25 488 141 
L 488 750 
Q 750 597 1062 519 
Q 1375 441 1716 441 
Q 2309 441 2620 675 
Q 2931 909 2931 1356 
Q 2931 1769 2642 2001 
Q 2353 2234 1838 2234 
L 1294 2234 
L 1294 2753 
L 1863 2753 
Q 2328 2753 2575 2939 
Q 2822 3125 2822 3475 
Q 2822 3834 2567 4026 
Q 2313 4219 1838 4219 
Q 1578 4219 1281 4162 
Q 984 4106 628 3988 
L 628 4550 
Q 988 4650 1302 4700 
Q 1616 4750 1894 4750 
Q 2613 4750 3031 4423 
Q 3450 4097 3450 3541 
Q 3450 3153 3228 2886 
Q 3006 2619 2597 2516 
z
" transform="scale(0.015625)"/>
       </defs>
       <use xlink:href="#DejaVuSans-33"/>
       <use xlink:href="#DejaVuSans-2e" x="63.623047"/>
       <use xlink:href="#DejaVuSans-30" x="95.410156"/>
      </g>
     </g>
    </g>
    <g id="xtick_6">
     <g id="line2d_11">
      <path d="M 325.238496 310.12 
L 325.238496 28.32 
" clip-path="url(#p433df8cc85)" style="fill: none; stroke: #808080; stroke-width: 0.8; stroke-linecap: square"/>
     </g>
     <g id="line2d_12">
      <g>
       <use xlink:href="#ma064a20130" x="325.238496" y="310.12" style="stroke: #000000; stroke-width: 0.8"/>
      </g>
     </g>
     <g id="text_6">
      <!-- 3.5 -->
      <g transform="translate(315.696621 326.238125) scale(0.12 -0.12)">
       <use xlink:href="#DejaVuSans-33"/>
       <use xlink:href="#DejaVuSans-2e" x="63.623047"/>
       <use xlink:href="#DejaVuSans-35" x="95.410156"/>
      </g>
     </g>
    </g>
    <g id="xtick_7">
     <g id="line2d_13">
      <path d="M 374.638938 310.12 
L 374.638938 28.32 
" clip-path="url(#p433df8cc85)" style="fill: none; stroke: #808080; stroke-width: 0.8; stroke-linecap: square"/>
     </g>
     <g id="line2d_14">
      <g>
       <use xlink:href="#ma064a20130" x="374.638938" y="310.12" style="stroke: #000000; stroke-width: 0.8"/>
      </g>
     </g>
     <g id="text_7">
      <!-- 4.0 -->
      <g transform="translate(365.097063 326.238125) scale(0.12 -0.12)">
       <defs>
        <path id="DejaVuSans-34" d="M 2419 4116 
L 825 1625 
L 2419 1625 
L 2419 4116 
z
M 2253 4666 
L 3047 4666 
L 3047 1625 
L 3713 1625 
L 3713 1100 
L 3047 1100 
L 3047 0 
L 2419 0 
L 2419 1100 
L 313 1100 
L 313 1709 
L 2253 4666 
z
" transform="scale(0.015625)"/>
       </defs>
       <use xlink:href="#DejaVuSans-34"/>
       <use xlink:href="#DejaVuSans-2e" x="63.623047"/>
       <use xlink:href="#DejaVuSans-30" x="95.410156"/>
      </g>
     </g>
    </g>
    <g id="xtick_8">
     <g id="line2d_15">
      <path d="M 424.039381 310.12 
L 424.039381 28.32 
" clip-path="url(#p433df8cc85)" style="fill: none; stroke: #808080; stroke-width: 0.8; stroke-linecap: square"/>
     </g>
     <g id="line2d_16">
      <g>
       <use xlink:href="#ma064a20130" x="424.039381" y="310.12" style="stroke: #000000; stroke-width: 0.8"/>
      </g>
     </g>
     <g id="text_8">
      <!-- 4.5 -->
      <g transform="translate(414.497506 326.238125) scale(0.12 -0.12)">
       <use xlink:href="#DejaVuSans-34"/>
       <use xlink:href="#DejaVuSans-2e" x="63.623047"/>
       <use xlink:href="#DejaVuSans-35" x="95.410156"/>
      </g>
     </g>
    </g>
    <g id="xtick_9">
     <g id="line2d_17">
      <path d="M 473.439823 310.12 
L 473.439823 28.32 
" clip-path="url(#p433df8cc85)" style="fill: none; stroke: #808080; stroke-width: 0.8; stroke-linecap: square"/>
     </g>
     <g id="line2d_18">
      <g>
       <use xlink:href="#ma064a20130" x="473.439823" y="310.12" style="stroke: #000000; stroke-width: 0.8"/>
      </g>
     </g>
     <g id="text_9">
      <!-- 5.0 -->
      <g transform="translate(463.897948 326.238125) scale(0.12 -0.12)">
       <use xlink:href="#DejaVuSans-35"/>
       <use xlink:href="#DejaVuSans-2e" x="63.623047"/>
       <use xlink:href="#DejaVuSans-30" x="95.410156"/>
      </g>
     </g>
    </g>
    <g id="text_10">
     <!-- $f_{s}$ [MHz] -->
     <g transform="translate(251.898054 341.851875) scale(0.12 -0.12)">
      <defs>
       <path id="DejaVuSans-Oblique-66" d="M 3059 4863 
L 2969 4384 
L 2419 4384 
Q 2106 4384 1964 4261 
Q 1822 4138 1753 3809 
L 1691 3500 
L 2638 3500 
L 2553 3053 
L 1606 3053 
L 1013 0 
L 434 0 
L 1031 3053 
L 481 3053 
L 563 3500 
L 1113 3500 
L 1159 3744 
Q 1278 4363 1576 4613 
Q 1875 4863 2516 4863 
L 3059 4863 
z
" transform="scale(0.015625)"/>
       <path id="DejaVuSans-Oblique-73" d="M 3200 3397 
L 3091 2853 
Q 2863 2978 2609 3040 
Q 2356 3103 2088 3103 
Q 1634 3103 1373 2948 
Q 1113 2794 1113 2528 
Q 1113 2219 1719 2053 
Q 1766 2041 1788 2034 
L 1972 1978 
Q 2547 1819 2739 1644 
Q 2931 1469 2931 1166 
Q 2931 609 2489 259 
Q 2047 -91 1331 -91 
Q 1053 -91 747 -37 
Q 441 16 72 128 
L 184 722 
Q 500 559 806 475 
Q 1113 391 1394 391 
Q 1816 391 2080 572 
Q 2344 753 2344 1031 
Q 2344 1331 1650 1516 
L 1591 1531 
L 1394 1581 
Q 956 1697 753 1886 
Q 550 2075 550 2369 
Q 550 2928 970 3256 
Q 1391 3584 2113 3584 
Q 2397 3584 2667 3537 
Q 2938 3491 3200 3397 
z
" transform="scale(0.015625)"/>
       <path id="DejaVuSans-20" transform="scale(0.015625)"/>
       <path id="DejaVuSans-5b" d="M 550 4863 
L 1875 4863 
L 1875 4416 
L 1125 4416 
L 1125 -397 
L 1875 -397 
L 1875 -844 
L 550 -844 
L 550 4863 
z
" transform="scale(0.015625)"/>
       <path id="DejaVuSans-4d" d="M 628 4666 
L 1569 4666 
L 2759 1491 
L 3956 4666 
L 4897 4666 
L 4897 0 
L 4281 0 
L 4281 4097 
L 3078 897 
L 2444 897 
L 1241 4097 
L 1241 0 
L 628 0 
L 628 4666 
z
" transform="scale(0.015625)"/>
       <path id="DejaVuSans-48" d="M 628 4666 
L 1259 4666 
L 1259 2753 
L 3553 2753 
L 3553 4666 
L 4184 4666 
L 4184 0 
L 3553 0 
L 3553 2222 
L 1259 2222 
L 1259 0 
L 628 0 
L 628 4666 
z
" transform="scale(0.015625)"/>
       <path id="DejaVuSans-7a" d="M 353 3500 
L 3084 3500 
L 3084 2975 
L 922 459 
L 3084 459 
L 3084 0 
L 275 0 
L 275 525 
L 2438 3041 
L 353 3041 
L 353 3500 
z
" transform="scale(0.015625)"/>
       <path id="DejaVuSans-5d" d="M 1947 4863 
L 1947 -844 
L 622 -844 
L 622 -397 
L 1369 -397 
L 1369 4416 
L 622 4416 
L 622 4863 
L 1947 4863 
z
" transform="scale(0.015625)"/>
      </defs>
      <use xlink:href="#DejaVuSans-Oblique-66" transform="translate(0 0.015625)"/>
      <use xlink:href="#DejaVuSans-Oblique-73" transform="translate(35.205078 -16.390625) scale(0.7)"/>
      <use xlink:href="#DejaVuSans-20" transform="translate(74.40918 0.015625)"/>
      <use xlink:href="#DejaVuSans-5b" transform="translate(106.196289 0.015625)"/>
      <use xlink:href="#DejaVuSans-4d" transform="translate(145.209961 0.015625)"/>
      <use xlink:href="#DejaVuSans-48" transform="translate(231.489258 0.015625)"/>
      <use xlink:href="#DejaVuSans-7a" transform="translate(306.68457 0.015625)"/>
      <use xlink:href="#DejaVuSans-5d" transform="translate(359.174805 0.015625)"/>
     </g>
    </g>
   </g>
   <g id="matplotlib.axis_2">
    <g id="ytick_1">
     <g id="line2d_19">
      <path d="M 58.476107 212.613376 
L 493.2 212.613376 
" clip-path="url(#p433df8cc85)" style="fill: none; stroke: #808080; stroke-width: 0.8; stroke-linecap: square"/>
     </g>
     <g id="line2d_20">
      <defs>
       <path id="me046e0aea0" d="M 0 0 
L -3.5 0 
" style="stroke: #000000; stroke-width: 0.8"/>
      </defs>
      <g>
       <use xlink:href="#me046e0aea0" x="58.476107" y="212.613376" style="stroke: #000000; stroke-width: 0.8"/>
      </g>
     </g>
     <g id="text_11">
      <!-- $\mathdefault{10^{0}}$ -->
      <g transform="translate(30.356107 217.172439) scale(0.12 -0.12)">
       <use xlink:href="#DejaVuSans-31" transform="translate(0 0.765625)"/>
       <use xlink:href="#DejaVuSans-30" transform="translate(63.623047 0.765625)"/>
       <use xlink:href="#DejaVuSans-30" transform="translate(128.203125 39.046875) scale(0.7)"/>
      </g>
     </g>
    </g>
    <g id="ytick_2">
     <g id="line2d_21">
      <path d="M 58.476107 90.442269 
L 493.2 90.442269 
" clip-path="url(#p433df8cc85)" style="fill: none; stroke: #808080; stroke-width: 0.8; stroke-linecap: square"/>
     </g>
     <g id="line2d_22">
      <g>
       <use xlink:href="#me046e0aea0" x="58.476107" y="90.442269" style="stroke: #000000; stroke-width: 0.8"/>
      </g>
     </g>
     <g id="text_12">
      <!-- $\mathdefault{10^{1}}$ -->
      <g transform="translate(30.356107 95.001331) scale(0.12 -0.12)">
       <use xlink:href="#DejaVuSans-31" transform="translate(0 0.684375)"/>
       <use xlink:href="#DejaVuSans-30" transform="translate(63.623047 0.684375)"/>
       <use xlink:href="#DejaVuSans-31" transform="translate(128.203125 38.965625) scale(0.7)"/>
      </g>
     </g>
    </g>
    <g id="ytick_3">
     <g id="line2d_23">
      <path d="M 58.476107 298.007316 
L 493.2 298.007316 
" clip-path="url(#p433df8cc85)" style="fill: none; stroke-dasharray: 0.8,1.32; stroke-dashoffset: 0; stroke: #808080; stroke-width: 0.8"/>
     </g>
     <g id="line2d_24">
      <defs>
       <path id="mf9fc80a647" d="M 0 0 
L -2 0 
" style="stroke: #000000; stroke-width: 0.6"/>
      </defs>
      <g>
       <use xlink:href="#mf9fc80a647" x="58.476107" y="298.007316" style="stroke: #000000; stroke-width: 0.6"/>
      </g>
     </g>
    </g>
    <g id="ytick_4">
     <g id="line2d_25">
      <path d="M 58.476107 276.494051 
L 493.2 276.494051 
" clip-path="url(#p433df8cc85)" style="fill: none; stroke-dasharray: 0.8,1.32; stroke-dashoffset: 0; stroke: #808080; stroke-width: 0.8"/>
     </g>
     <g id="line2d_26">
      <g>
       <use xlink:href="#mf9fc80a647" x="58.476107" y="276.494051" style="stroke: #000000; stroke-width: 0.6"/>
      </g>
     </g>
    </g>
    <g id="ytick_5">
     <g id="line2d_27">
      <path d="M 58.476107 261.230148 
L 493.2 261.230148 
" clip-path="url(#p433df8cc85)" style="fill: none; stroke-dasharray: 0.8,1.32; stroke-dashoffset: 0; stroke: #808080; stroke-width: 0.8"/>
     </g>
     <g id="line2d_28">
      <g>
       <use xlink:href="#mf9fc80a647" x="58.476107" y="261.230148" style="stroke: #000000; stroke-width: 0.6"/>
      </g>
     </g>
    </g>
    <g id="ytick_6">
     <g id="line2d_29">
      <path d="M 58.476107 249.390544 
L 493.2 249.390544 
" clip-path="url(#p433df8cc85)" style="fill: none; stroke-dasharray: 0.8,1.32; stroke-dashoffset: 0; stroke: #808080; stroke-width: 0.8"/>
     </g>
     <g id="line2d_30">
      <g>
       <use xlink:href="#mf9fc80a647" x="58.476107" y="249.390544" style="stroke: #000000; stroke-width: 0.6"/>
      </g>
     </g>
    </g>
    <g id="ytick_7">
     <g id="line2d_31">
      <path d="M 58.476107 239.716884 
L 493.2 239.716884 
" clip-path="url(#p433df8cc85)" style="fill: none; stroke-dasharray: 0.8,1.32; stroke-dashoffset: 0; stroke: #808080; stroke-width: 0.8"/>
     </g>
     <g id="line2d_32">
      <g>
       <use xlink:href="#mf9fc80a647" x="58.476107" y="239.716884" style="stroke: #000000; stroke-width: 0.6"/>
      </g>
     </g>
    </g>
    <g id="ytick_8">
     <g id="line2d_33">
      <path d="M 58.476107 231.53792 
L 493.2 231.53792 
" clip-path="url(#p433df8cc85)" style="fill: none; stroke-dasharray: 0.8,1.32; stroke-dashoffset: 0; stroke: #808080; stroke-width: 0.8"/>
     </g>
     <g id="line2d_34">
      <g>
       <use xlink:href="#mf9fc80a647" x="58.476107" y="231.53792" style="stroke: #000000; stroke-width: 0.6"/>
      </g>
     </g>
    </g>
    <g id="ytick_9">
     <g id="line2d_35">
      <path d="M 58.476107 224.45298 
L 493.2 224.45298 
" clip-path="url(#p433df8cc85)" style="fill: none; stroke-dasharray: 0.8,1.32; stroke-dashoffset: 0; stroke: #808080; stroke-width: 0.8"/>
     </g>
     <g id="line2d_36">
      <g>
       <use xlink:href="#mf9fc80a647" x="58.476107" y="224.45298" style="stroke: #000000; stroke-width: 0.6"/>
      </g>
     </g>
    </g>
    <g id="ytick_10">
     <g id="line2d_37">
      <path d="M 58.476107 218.203619 
L 493.2 218.203619 
" clip-path="url(#p433df8cc85)" style="fill: none; stroke-dasharray: 0.8,1.32; stroke-dashoffset: 0; stroke: #808080; stroke-width: 0.8"/>
     </g>
     <g id="line2d_38">
      <g>
       <use xlink:href="#mf9fc80a647" x="58.476107" y="218.203619" style="stroke: #000000; stroke-width: 0.6"/>
      </g>
     </g>
    </g>
    <g id="ytick_11">
     <g id="line2d_39">
      <path d="M 58.476107 175.836208 
L 493.2 175.836208 
" clip-path="url(#p433df8cc85)" style="fill: none; stroke-dasharray: 0.8,1.32; stroke-dashoffset: 0; stroke: #808080; stroke-width: 0.8"/>
     </g>
     <g id="line2d_40">
      <g>
       <use xlink:href="#mf9fc80a647" x="58.476107" y="175.836208" style="stroke: #000000; stroke-width: 0.6"/>
      </g>
     </g>
    </g>
    <g id="ytick_12">
     <g id="line2d_41">
      <path d="M 58.476107 154.322944 
L 493.2 154.322944 
" clip-path="url(#p433df8cc85)" style="fill: none; stroke-dasharray: 0.8,1.32; stroke-dashoffset: 0; stroke: #808080; stroke-width: 0.8"/>
     </g>
     <g id="line2d_42">
      <g>
       <use xlink:href="#mf9fc80a647" x="58.476107" y="154.322944" style="stroke: #000000; stroke-width: 0.6"/>
      </g>
     </g>
    </g>
    <g id="ytick_13">
     <g id="line2d_43">
      <path d="M 58.476107 139.05904 
L 493.2 139.05904 
" clip-path="url(#p433df8cc85)" style="fill: none; stroke-dasharray: 0.8,1.32; stroke-dashoffset: 0; stroke: #808080; stroke-width: 0.8"/>
     </g>
     <g id="line2d_44">
      <g>
       <use xlink:href="#mf9fc80a647" x="58.476107" y="139.05904" style="stroke: #000000; stroke-width: 0.6"/>
      </g>
     </g>
    </g>
    <g id="ytick_14">
     <g id="line2d_45">
      <path d="M 58.476107 127.219437 
L 493.2 127.219437 
" clip-path="url(#p433df8cc85)" style="fill: none; stroke-dasharray: 0.8,1.32; stroke-dashoffset: 0; stroke: #808080; stroke-width: 0.8"/>
     </g>
     <g id="line2d_46">
      <g>
       <use xlink:href="#mf9fc80a647" x="58.476107" y="127.219437" style="stroke: #000000; stroke-width: 0.6"/>
      </g>
     </g>
    </g>
    <g id="ytick_15">
     <g id="line2d_47">
      <path d="M 58.476107 117.545776 
L 493.2 117.545776 
" clip-path="url(#p433df8cc85)" style="fill: none; stroke-dasharray: 0.8,1.32; stroke-dashoffset: 0; stroke: #808080; stroke-width: 0.8"/>
     </g>
     <g id="line2d_48">
      <g>
       <use xlink:href="#mf9fc80a647" x="58.476107" y="117.545776" style="stroke: #000000; stroke-width: 0.6"/>
      </g>
     </g>
    </g>
    <g id="ytick_16">
     <g id="line2d_49">
      <path d="M 58.476107 109.366813 
L 493.2 109.366813 
" clip-path="url(#p433df8cc85)" style="fill: none; stroke-dasharray: 0.8,1.32; stroke-dashoffset: 0; stroke: #808080; stroke-width: 0.8"/>
     </g>
     <g id="line2d_50">
      <g>
       <use xlink:href="#mf9fc80a647" x="58.476107" y="109.366813" style="stroke: #000000; stroke-width: 0.6"/>
      </g>
     </g>
    </g>
    <g id="ytick_17">
     <g id="line2d_51">
      <path d="M 58.476107 102.281872 
L 493.2 102.281872 
" clip-path="url(#p433df8cc85)" style="fill: none; stroke-dasharray: 0.8,1.32; stroke-dashoffset: 0; stroke: #808080; stroke-width: 0.8"/>
     </g>
     <g id="line2d_52">
      <g>
       <use xlink:href="#mf9fc80a647" x="58.476107" y="102.281872" style="stroke: #000000; stroke-width: 0.6"/>
      </g>
     </g>
    </g>
    <g id="ytick_18">
     <g id="line2d_53">
      <path d="M 58.476107 96.032512 
L 493.2 96.032512 
" clip-path="url(#p433df8cc85)" style="fill: none; stroke-dasharray: 0.8,1.32; stroke-dashoffset: 0; stroke: #808080; stroke-width: 0.8"/>
     </g>
     <g id="line2d_54">
      <g>
       <use xlink:href="#mf9fc80a647" x="58.476107" y="96.032512" style="stroke: #000000; stroke-width: 0.6"/>
      </g>
     </g>
    </g>
    <g id="ytick_19">
     <g id="line2d_55">
      <path d="M 58.476107 53.665101 
L 493.2 53.665101 
" clip-path="url(#p433df8cc85)" style="fill: none; stroke-dasharray: 0.8,1.32; stroke-dashoffset: 0; stroke: #808080; stroke-width: 0.8"/>
     </g>
     <g id="line2d_56">
      <g>
       <use xlink:href="#mf9fc80a647" x="58.476107" y="53.665101" style="stroke: #000000; stroke-width: 0.6"/>
      </g>
     </g>
    </g>
    <g id="ytick_20">
     <g id="line2d_57">
      <path d="M 58.476107 32.151837 
L 493.2 32.151837 
" clip-path="url(#p433df8cc85)" style="fill: none; stroke-dasharray: 0.8,1.32; stroke-dashoffset: 0; stroke: #808080; stroke-width: 0.8"/>
     </g>
     <g id="line2d_58">
      <g>
       <use xlink:href="#mf9fc80a647" x="58.476107" y="32.151837" style="stroke: #000000; stroke-width: 0.6"/>
      </g>
     </g>
    </g>
    <g id="text_13">
     <!-- $C_{b}\,$ [nF] -->
     <g transform="translate(23.860482 191.06) rotate(-90) scale(0.12 -0.12)">
      <defs>
       <path id="DejaVuSans-Oblique-43" d="M 4447 4306 
L 4319 3641 
Q 4019 3944 3683 4091 
Q 3347 4238 2956 4238 
Q 2422 4238 2017 3981 
Q 1613 3725 1319 3200 
Q 1131 2863 1032 2486 
Q 934 2109 934 1728 
Q 934 1091 1264 756 
Q 1594 422 2222 422 
Q 2656 422 3056 561 
Q 3456 700 3834 978 
L 3688 231 
Q 3316 72 2936 -9 
Q 2556 -91 2175 -91 
Q 1278 -91 773 396 
Q 269 884 269 1753 
Q 269 2309 461 2846 
Q 653 3384 1013 3828 
Q 1394 4300 1883 4525 
Q 2372 4750 3022 4750 
Q 3422 4750 3780 4639 
Q 4138 4528 4447 4306 
z
" transform="scale(0.015625)"/>
       <path id="DejaVuSans-Oblique-62" d="M 3169 2138 
Q 3169 2591 2961 2847 
Q 2753 3103 2388 3103 
Q 2122 3103 1889 2973 
Q 1656 2844 1484 2597 
Q 1303 2338 1198 1995 
Q 1094 1653 1094 1313 
Q 1094 881 1298 636 
Q 1503 391 1863 391 
Q 2134 391 2365 517 
Q 2597 644 2772 891 
Q 2950 1147 3059 1487 
Q 3169 1828 3169 2138 
z
M 1381 2969 
Q 1594 3256 1914 3420 
Q 2234 3584 2584 3584 
Q 3122 3584 3439 3221 
Q 3756 2859 3756 2241 
Q 3756 1734 3570 1259 
Q 3384 784 3041 416 
Q 2816 172 2522 40 
Q 2228 -91 1906 -91 
Q 1566 -91 1316 65 
Q 1066 222 909 531 
L 806 0 
L 231 0 
L 1178 4863 
L 1753 4863 
L 1381 2969 
z
" transform="scale(0.015625)"/>
       <path id="DejaVuSans-6e" d="M 3513 2113 
L 3513 0 
L 2938 0 
L 2938 2094 
Q 2938 2591 2744 2837 
Q 2550 3084 2163 3084 
Q 1697 3084 1428 2787 
Q 1159 2491 1159 1978 
L 1159 0 
L 581 0 
L 581 3500 
L 1159 3500 
L 1159 2956 
Q 1366 3272 1645 3428 
Q 1925 3584 2291 3584 
Q 2894 3584 3203 3211 
Q 3513 2838 3513 2113 
z
" transform="scale(0.015625)"/>
       <path id="DejaVuSans-46" d="M 628 4666 
L 3309 4666 
L 3309 4134 
L 1259 4134 
L 1259 2759 
L 3109 2759 
L 3109 2228 
L 1259 2228 
L 1259 0 
L 628 0 
L 628 4666 
z
" transform="scale(0.015625)"/>
      </defs>
      <use xlink:href="#DejaVuSans-Oblique-43" transform="translate(0 0.015625)"/>
      <use xlink:href="#DejaVuSans-Oblique-62" transform="translate(69.824219 -16.390625) scale(0.7)"/>
      <use xlink:href="#DejaVuSans-20" transform="translate(133.227864 0.015625)"/>
      <use xlink:href="#DejaVuSans-5b" transform="translate(165.014973 0.015625)"/>
      <use xlink:href="#DejaVuSans-6e" transform="translate(204.028645 0.015625)"/>
      <use xlink:href="#DejaVuSans-46" transform="translate(267.407551 0.015625)"/>
      <use xlink:href="#DejaVuSans-5d" transform="translate(324.927083 0.015625)"/>
     </g>
    </g>
   </g>
   <g id="line2d_59">
    <path d="M 78.236284 41.129091 
L 82.228239 45.332273 
L 86.220194 49.375294 
L 90.212149 53.269914 
L 94.204104 57.026642 
L 98.196059 60.654909 
L 102.188014 64.163211 
L 106.179969 67.559228 
L 110.171924 70.849925 
L 114.163879 74.041639 
L 118.155834 77.14015 
L 122.147789 80.150749 
L 126.139744 83.078285 
L 130.131699 85.927221 
L 134.123653 88.701666 
L 138.115608 91.405416 
L 142.107563 94.041986 
L 146.099518 96.614633 
L 150.091473 99.126383 
L 154.083428 101.580052 
L 158.075383 103.978267 
L 162.067338 106.323478 
L 166.059293 108.617977 
L 170.051248 110.863912 
L 174.043203 113.063296 
L 178.035158 115.21802 
L 182.027113 117.32986 
L 186.019068 119.400491 
L 190.011023 121.43149 
L 194.002978 123.424347 
L 197.994932 125.380466 
L 201.986887 127.301179 
L 205.978842 129.187744 
L 209.970797 131.041354 
L 213.962752 132.86314 
L 217.954707 134.654178 
L 221.946662 136.415488 
L 225.938617 138.14804 
L 229.930572 139.852759 
L 233.922527 141.530525 
L 237.914482 143.182177 
L 241.906437 144.808515 
L 245.898392 146.410303 
L 249.890347 147.988273 
L 253.882302 149.54312 
L 257.874256 151.075515 
L 261.866211 152.586095 
L 265.858166 154.075474 
L 269.850121 155.544237 
L 273.842076 156.992949 
L 277.834031 158.422149 
L 281.825986 159.832355 
L 285.817941 161.224067 
L 289.809896 162.597762 
L 293.801851 163.953901 
L 297.793806 165.292928 
L 301.785761 166.615269 
L 305.777716 167.921335 
L 309.769671 169.21152 
L 313.761626 170.486208 
L 317.753581 171.745766 
L 321.745535 172.990548 
L 325.73749 174.220898 
L 329.729445 175.437146 
L 333.7214 176.639611 
L 337.713355 177.828604 
L 341.70531 179.004422 
L 345.697265 180.167354 
L 349.68922 181.317679 
L 353.681175 182.455668 
L 357.67313 183.581583 
L 361.665085 184.695677 
L 365.65704 185.798196 
L 369.648995 186.889377 
L 373.64095 187.969453 
L 377.632905 189.038645 
L 381.62486 190.097173 
L 385.616814 191.145245 
L 389.608769 192.183067 
L 393.600724 193.210838 
L 397.592679 194.228749 
L 401.584634 195.23699 
L 405.576589 196.23574 
L 409.568544 197.225178 
L 413.560499 198.205476 
L 417.552454 199.176801 
L 421.544409 200.139315 
L 425.536364 201.093177 
L 429.528319 202.038542 
L 433.520274 202.975559 
L 437.512229 203.904374 
L 441.504184 204.82513 
L 445.496139 205.737966 
L 449.488093 206.643016 
L 453.480048 207.540412 
L 457.472003 208.430283 
L 461.463958 209.312754 
L 465.455913 210.187946 
L 469.447868 211.055979 
L 473.439823 211.91697 
" clip-path="url(#p433df8cc85)" style="fill: none; stroke: #ff0000; stroke-width: 2; stroke-linecap: square"/>
   </g>
   <g id="line2d_60">
    <path d="M 78.236284 77.906259 
L 82.228239 82.109441 
L 86.220194 86.152462 
L 90.212149 90.047082 
L 94.204104 93.80381 
L 98.196059 97.432077 
L 102.188014 100.940379 
L 106.179969 104.336396 
L 110.171924 107.627093 
L 114.163879 110.818807 
L 118.155834 113.917318 
L 122.147789 116.927916 
L 126.139744 119.855453 
L 130.131699 122.704389 
L 134.123653 125.478834 
L 138.115608 128.182584 
L 142.107563 130.819154 
L 146.099518 133.391801 
L 150.091473 135.903551 
L 154.083428 138.35722 
L 158.075383 140.755435 
L 162.067338 143.100646 
L 166.059293 145.395145 
L 170.051248 147.64108 
L 174.043203 149.840464 
L 178.035158 151.995188 
L 182.027113 154.107028 
L 186.019068 156.177659 
L 190.011023 158.208658 
L 194.002978 160.201515 
L 197.994932 162.157634 
L 201.986887 164.078347 
L 205.978842 165.964911 
L 209.970797 167.818521 
L 213.962752 169.640308 
L 217.954707 171.431346 
L 221.946662 173.192656 
L 225.938617 174.925208 
L 229.930572 176.629927 
L 233.922527 178.307693 
L 237.914482 179.959345 
L 241.906437 181.585683 
L 245.898392 183.187471 
L 249.890347 184.76544 
L 253.882302 186.320288 
L 257.874256 187.852683 
L 261.866211 189.363263 
L 265.858166 190.852642 
L 269.850121 192.321405 
L 273.842076 193.770117 
L 277.834031 195.199317 
L 281.825986 196.609523 
L 285.817941 198.001234 
L 289.809896 199.37493 
L 293.801851 200.731069 
L 297.793806 202.070096 
L 301.785761 203.392437 
L 305.777716 204.698502 
L 309.769671 205.988688 
L 313.761626 207.263376 
L 317.753581 208.522933 
L 321.745535 209.767716 
L 325.73749 210.998066 
L 329.729445 212.214313 
L 333.7214 213.416779 
L 337.713355 214.605772 
L 341.70531 215.78159 
L 345.697265 216.944522 
L 349.68922 218.094847 
L 353.681175 219.232836 
L 357.67313 220.358751 
L 361.665085 221.472845 
L 365.65704 222.575364 
L 369.648995 223.666545 
L 373.64095 224.746621 
L 377.632905 225.815813 
L 381.62486 226.87434 
L 385.616814 227.922413 
L 389.608769 228.960235 
L 393.600724 229.988006 
L 397.592679 231.005917 
L 401.584634 232.014157 
L 405.576589 233.012908 
L 409.568544 234.002346 
L 413.560499 234.982644 
L 417.552454 235.953969 
L 421.544409 236.916483 
L 425.536364 237.870345 
L 429.528319 238.81571 
L 433.520274 239.752727 
L 437.512229 240.681542 
L 441.504184 241.602298 
L 445.496139 242.515134 
L 449.488093 243.420184 
L 453.480048 244.31758 
L 457.472003 245.207451 
L 461.463958 246.089922 
L 465.455913 246.965114 
L 469.447868 247.833147 
L 473.439823 248.694138 
" clip-path="url(#p433df8cc85)" style="fill: none; stroke: #0000ff; stroke-width: 2; stroke-linecap: square"/>
   </g>
   <g id="line2d_61">
    <path d="M 78.236284 99.419523 
L 82.228239 103.622705 
L 86.220194 107.665726 
L 90.212149 111.560346 
L 94.204104 115.317074 
L 98.196059 118.945341 
L 102.188014 122.453643 
L 106.179969 125.84966 
L 110.171924 129.140357 
L 114.163879 132.332071 
L 118.155834 135.430582 
L 122.147789 138.441181 
L 126.139744 141.368717 
L 130.131699 144.217653 
L 134.123653 146.992098 
L 138.115608 149.695848 
L 142.107563 152.332418 
L 146.099518 154.905065 
L 150.091473 157.416815 
L 154.083428 159.870484 
L 158.075383 162.268699 
L 162.067338 164.61391 
L 166.059293 166.908409 
L 170.051248 169.154344 
L 174.043203 171.353728 
L 178.035158 173.508452 
L 182.027113 175.620292 
L 186.019068 177.690923 
L 190.011023 179.721922 
L 194.002978 181.714779 
L 197.994932 183.670898 
L 201.986887 185.591611 
L 205.978842 187.478176 
L 209.970797 189.331786 
L 213.962752 191.153572 
L 217.954707 192.94461 
L 221.946662 194.70592 
L 225.938617 196.438472 
L 229.930572 198.143191 
L 233.922527 199.820957 
L 237.914482 201.472609 
L 241.906437 203.098947 
L 245.898392 204.700735 
L 249.890347 206.278705 
L 253.882302 207.833552 
L 257.874256 209.365947 
L 261.866211 210.876527 
L 265.858166 212.365906 
L 269.850121 213.834669 
L 273.842076 215.283381 
L 277.834031 216.712581 
L 281.825986 218.122787 
L 285.817941 219.514499 
L 289.809896 220.888194 
L 293.801851 222.244333 
L 297.793806 223.58336 
L 301.785761 224.905701 
L 305.777716 226.211767 
L 309.769671 227.501952 
L 313.761626 228.77664 
L 317.753581 230.036198 
L 321.745535 231.28098 
L 325.73749 232.51133 
L 329.729445 233.727578 
L 333.7214 234.930043 
L 337.713355 236.119036 
L 341.70531 237.294854 
L 345.697265 238.457786 
L 349.68922 239.608111 
L 353.681175 240.7461 
L 357.67313 241.872015 
L 361.665085 242.986109 
L 365.65704 244.088628 
L 369.648995 245.179809 
L 373.64095 246.259885 
L 377.632905 247.329077 
L 381.62486 248.387605 
L 385.616814 249.435677 
L 389.608769 250.473499 
L 393.600724 251.50127 
L 397.592679 252.519181 
L 401.584634 253.527422 
L 405.576589 254.526172 
L 409.568544 255.51561 
L 413.560499 256.495908 
L 417.552454 257.467233 
L 421.544409 258.429747 
L 425.536364 259.383609 
L 429.528319 260.328974 
L 433.520274 261.265991 
L 437.512229 262.194806 
L 441.504184 263.115562 
L 445.496139 264.028398 
L 449.488093 264.933448 
L 453.480048 265.830844 
L 457.472003 266.720715 
L 461.463958 267.603186 
L 465.455913 268.478378 
L 469.447868 269.346411 
L 473.439823 270.207402 
" clip-path="url(#p433df8cc85)" style="fill: none; stroke: #008000; stroke-width: 2; stroke-linecap: square"/>
   </g>
   <g id="line2d_62">
    <path d="M 78.236284 114.683427 
L 82.228239 118.886609 
L 86.220194 122.92963 
L 90.212149 126.82425 
L 94.204104 130.580978 
L 98.196059 134.209245 
L 102.188014 137.717547 
L 106.179969 141.113564 
L 110.171924 144.404261 
L 114.163879 147.595975 
L 118.155834 150.694486 
L 122.147789 153.705084 
L 126.139744 156.632621 
L 130.131699 159.481557 
L 134.123653 162.256002 
L 138.115608 164.959752 
L 142.107563 167.596322 
L 146.099518 170.168969 
L 150.091473 172.680719 
L 154.083428 175.134388 
L 158.075383 177.532602 
L 162.067338 179.877813 
L 166.059293 182.172313 
L 170.051248 184.418248 
L 174.043203 186.617632 
L 178.035158 188.772355 
L 182.027113 190.884196 
L 186.019068 192.954827 
L 190.011023 194.985826 
L 194.002978 196.978682 
L 197.994932 198.934802 
L 201.986887 200.855515 
L 205.978842 202.742079 
L 209.970797 204.595689 
L 213.962752 206.417476 
L 217.954707 208.208514 
L 221.946662 209.969824 
L 225.938617 211.702376 
L 229.930572 213.407095 
L 233.922527 215.084861 
L 237.914482 216.736513 
L 241.906437 218.362851 
L 245.898392 219.964639 
L 249.890347 221.542608 
L 253.882302 223.097456 
L 257.874256 224.629851 
L 261.866211 226.140431 
L 265.858166 227.62981 
L 269.850121 229.098573 
L 273.842076 230.547285 
L 277.834031 231.976484 
L 281.825986 233.386691 
L 285.817941 234.778402 
L 289.809896 236.152098 
L 293.801851 237.508237 
L 297.793806 238.847264 
L 301.785761 240.169605 
L 305.777716 241.47567 
L 309.769671 242.765856 
L 313.761626 244.040544 
L 317.753581 245.300101 
L 321.745535 246.544884 
L 325.73749 247.775233 
L 329.729445 248.991481 
L 333.7214 250.193947 
L 337.713355 251.38294 
L 341.70531 252.558758 
L 345.697265 253.72169 
L 349.68922 254.872015 
L 353.681175 256.010004 
L 357.67313 257.135919 
L 361.665085 258.250013 
L 365.65704 259.352532 
L 369.648995 260.443713 
L 373.64095 261.523788 
L 377.632905 262.592981 
L 381.62486 263.651508 
L 385.616814 264.699581 
L 389.608769 265.737403 
L 393.600724 266.765174 
L 397.592679 267.783085 
L 401.584634 268.791325 
L 405.576589 269.790076 
L 409.568544 270.779514 
L 413.560499 271.759812 
L 417.552454 272.731137 
L 421.544409 273.693651 
L 425.536364 274.647513 
L 429.528319 275.592878 
L 433.520274 276.529895 
L 437.512229 277.45871 
L 441.504184 278.379466 
L 445.496139 279.292302 
L 449.488093 280.197352 
L 453.480048 281.094748 
L 457.472003 281.984619 
L 461.463958 282.86709 
L 465.455913 283.742282 
L 469.447868 284.610315 
L 473.439823 285.471305 
" clip-path="url(#p433df8cc85)" style="fill: none; stroke: #00bfbf; stroke-width: 2; stroke-linecap: square"/>
   </g>
   <g id="line2d_63">
    <path d="M 78.236284 126.52303 
L 82.228239 130.726212 
L 86.220194 134.769234 
L 90.212149 138.663854 
L 94.204104 142.420581 
L 98.196059 146.048848 
L 102.188014 149.557151 
L 106.179969 152.953168 
L 110.171924 156.243865 
L 114.163879 159.435578 
L 118.155834 162.53409 
L 122.147789 165.544688 
L 126.139744 168.472225 
L 130.131699 171.32116 
L 134.123653 174.095605 
L 138.115608 176.799356 
L 142.107563 179.435926 
L 146.099518 182.008572 
L 150.091473 184.520322 
L 154.083428 186.973992 
L 158.075383 189.372206 
L 162.067338 191.717417 
L 166.059293 194.011917 
L 170.051248 196.257852 
L 174.043203 198.457236 
L 178.035158 200.611959 
L 182.027113 202.723799 
L 186.019068 204.79443 
L 190.011023 206.82543 
L 194.002978 208.818286 
L 197.994932 210.774405 
L 201.986887 212.695118 
L 205.978842 214.581683 
L 209.970797 216.435293 
L 213.962752 218.25708 
L 217.954707 220.048118 
L 221.946662 221.809427 
L 225.938617 223.54198 
L 229.930572 225.246699 
L 233.922527 226.924465 
L 237.914482 228.576116 
L 241.906437 230.202454 
L 245.898392 231.804243 
L 249.890347 233.382212 
L 253.882302 234.93706 
L 257.874256 236.469454 
L 261.866211 237.980035 
L 265.858166 239.469413 
L 269.850121 240.938177 
L 273.842076 242.386888 
L 277.834031 243.816088 
L 281.825986 245.226295 
L 285.817941 246.618006 
L 289.809896 247.991701 
L 293.801851 249.347841 
L 297.793806 250.686868 
L 301.785761 252.009208 
L 305.777716 253.315274 
L 309.769671 254.60546 
L 313.761626 255.880147 
L 317.753581 257.139705 
L 321.745535 258.384487 
L 325.73749 259.614837 
L 329.729445 260.831085 
L 333.7214 262.033551 
L 337.713355 263.222543 
L 341.70531 264.398361 
L 345.697265 265.561293 
L 349.68922 266.711619 
L 353.681175 267.849608 
L 357.67313 268.975523 
L 361.665085 270.089616 
L 365.65704 271.192135 
L 369.648995 272.283317 
L 373.64095 273.363392 
L 377.632905 274.432585 
L 381.62486 275.491112 
L 385.616814 276.539184 
L 389.608769 277.577007 
L 393.600724 278.604777 
L 397.592679 279.622689 
L 401.584634 280.630929 
L 405.576589 281.62968 
L 409.568544 282.619118 
L 413.560499 283.599416 
L 417.552454 284.57074 
L 421.544409 285.533255 
L 425.536364 286.487117 
L 429.528319 287.432481 
L 433.520274 288.369498 
L 437.512229 289.298314 
L 441.504184 290.21907 
L 445.496139 291.131905 
L 449.488093 292.036955 
L 453.480048 292.934352 
L 457.472003 293.824223 
L 461.463958 294.706693 
L 465.455913 295.581885 
L 469.447868 296.449919 
L 473.439823 297.310909 
" clip-path="url(#p433df8cc85)" style="fill: none; stroke: #bf00bf; stroke-width: 2; stroke-linecap: square"/>
   </g>
   <g id="patch_3">
    <path d="M 58.476107 310.12 
L 58.476107 28.32 
" style="fill: none; stroke: #000000; stroke-width: 0.8; stroke-linejoin: miter; stroke-linecap: square"/>
   </g>
   <g id="patch_4">
    <path d="M 493.2 310.12 
L 493.2 28.32 
" style="fill: none; stroke: #000000; stroke-width: 0.8; stroke-linejoin: miter; stroke-linecap: square"/>
   </g>
   <g id="patch_5">
    <path d="M 58.476107 310.12 
L 493.2 310.12 
" style="fill: none; stroke: #000000; stroke-width: 0.8; stroke-linejoin: miter; stroke-linecap: square"/>
   </g>
   <g id="patch_6">
    <path d="M 58.476107 28.32 
L 493.2 28.32 
" style="fill: none; stroke: #000000; stroke-width: 0.8; stroke-linejoin: miter; stroke-linecap: square"/>
   </g>
   <g id="text_14">
    <!-- $C_b$ versus $f_s$ -->
    <g transform="translate(240.738054 22.32) scale(0.12 -0.12)">
     <defs>
      <path id="DejaVuSans-76" d="M 191 3500 
L 800 3500 
L 1894 563 
L 2988 3500 
L 3597 3500 
L 2284 0 
L 1503 0 
L 191 3500 
z
" transform="scale(0.015625)"/>
      <path id="DejaVuSans-65" d="M 3597 1894 
L 3597 1613 
L 953 1613 
Q 991 1019 1311 708 
Q 1631 397 2203 397 
Q 2534 397 2845 478 
Q 3156 559 3463 722 
L 3463 178 
Q 3153 47 2828 -22 
Q 2503 -91 2169 -91 
Q 1331 -91 842 396 
Q 353 884 353 1716 
Q 353 2575 817 3079 
Q 1281 3584 2069 3584 
Q 2775 3584 3186 3129 
Q 3597 2675 3597 1894 
z
M 3022 2063 
Q 3016 2534 2758 2815 
Q 2500 3097 2075 3097 
Q 1594 3097 1305 2825 
Q 1016 2553 972 2059 
L 3022 2063 
z
" transform="scale(0.015625)"/>
      <path id="DejaVuSans-72" d="M 2631 2963 
Q 2534 3019 2420 3045 
Q 2306 3072 2169 3072 
Q 1681 3072 1420 2755 
Q 1159 2438 1159 1844 
L 1159 0 
L 581 0 
L 581 3500 
L 1159 3500 
L 1159 2956 
Q 1341 3275 1631 3429 
Q 1922 3584 2338 3584 
Q 2397 3584 2469 3576 
Q 2541 3569 2628 3553 
L 2631 2963 
z
" transform="scale(0.015625)"/>
      <path id="DejaVuSans-73" d="M 2834 3397 
L 2834 2853 
Q 2591 2978 2328 3040 
Q 2066 3103 1784 3103 
Q 1356 3103 1142 2972 
Q 928 2841 928 2578 
Q 928 2378 1081 2264 
Q 1234 2150 1697 2047 
L 1894 2003 
Q 2506 1872 2764 1633 
Q 3022 1394 3022 966 
Q 3022 478 2636 193 
Q 2250 -91 1575 -91 
Q 1294 -91 989 -36 
Q 684 19 347 128 
L 347 722 
Q 666 556 975 473 
Q 1284 391 1588 391 
Q 1994 391 2212 530 
Q 2431 669 2431 922 
Q 2431 1156 2273 1281 
Q 2116 1406 1581 1522 
L 1381 1569 
Q 847 1681 609 1914 
Q 372 2147 372 2553 
Q 372 3047 722 3315 
Q 1072 3584 1716 3584 
Q 2034 3584 2315 3537 
Q 2597 3491 2834 3397 
z
" transform="scale(0.015625)"/>
      <path id="DejaVuSans-75" d="M 544 1381 
L 544 3500 
L 1119 3500 
L 1119 1403 
Q 1119 906 1312 657 
Q 1506 409 1894 409 
Q 2359 409 2629 706 
Q 2900 1003 2900 1516 
L 2900 3500 
L 3475 3500 
L 3475 0 
L 2900 0 
L 2900 538 
Q 2691 219 2414 64 
Q 2138 -91 1772 -91 
Q 1169 -91 856 284 
Q 544 659 544 1381 
z
M 1991 3584 
L 1991 3584 
z
" transform="scale(0.015625)"/>
     </defs>
     <use xlink:href="#DejaVuSans-Oblique-43" transform="translate(0 0.015625)"/>
     <use xlink:href="#DejaVuSans-Oblique-62" transform="translate(69.824219 -16.390625) scale(0.7)"/>
     <use xlink:href="#DejaVuSans-20" transform="translate(116.992188 0.015625)"/>
     <use xlink:href="#DejaVuSans-76" transform="translate(148.779297 0.015625)"/>
     <use xlink:href="#DejaVuSans-65" transform="translate(207.958984 0.015625)"/>
     <use xlink:href="#DejaVuSans-72" transform="translate(269.482422 0.015625)"/>
     <use xlink:href="#DejaVuSans-73" transform="translate(310.595703 0.015625)"/>
     <use xlink:href="#DejaVuSans-75" transform="translate(362.695312 0.015625)"/>
     <use xlink:href="#DejaVuSans-73" transform="translate(426.074219 0.015625)"/>
     <use xlink:href="#DejaVuSans-20" transform="translate(478.173828 0.015625)"/>
     <use xlink:href="#DejaVuSans-Oblique-66" transform="translate(509.960938 0.015625)"/>
     <use xlink:href="#DejaVuSans-Oblique-73" transform="translate(545.166016 -16.390625) scale(0.7)"/>
    </g>
   </g>
   <g id="legend_1">
    <g id="patch_7">
     <path d="M 377.12 95.38875 
L 486.2 95.38875 
Q 488.2 95.38875 488.2 93.38875 
L 488.2 35.32 
Q 488.2 33.32 486.2 33.32 
L 377.12 33.32 
Q 375.12 33.32 375.12 35.32 
L 375.12 93.38875 
Q 375.12 95.38875 377.12 95.38875 
z
" style="fill: #ffffff; opacity: 0.8; stroke: #cccccc; stroke-linejoin: miter"/>
    </g>
    <g id="line2d_64">
     <path d="M 377.12 40.938125 
L 382.12 40.938125 
L 387.12 40.938125 
" style="fill: none; stroke: #ff0000; stroke-width: 2; stroke-linecap: square"/>
    </g>
    <g id="text_15">
     <!-- $C_{b}: L$ =  1.0e-06 -->
     <g transform="translate(389.12 44.438125) scale(0.12 -0.12)">
      <defs>
       <path id="DejaVuSans-3a" d="M 750 794 
L 1409 794 
L 1409 0 
L 750 0 
L 750 794 
z
M 750 3309 
L 1409 3309 
L 1409 2516 
L 750 2516 
L 750 3309 
z
" transform="scale(0.015625)"/>
       <path id="DejaVuSans-Oblique-4c" d="M 1075 4666 
L 1709 4666 
L 909 525 
L 3181 525 
L 3078 0 
L 172 0 
L 1075 4666 
z
" transform="scale(0.015625)"/>
       <path id="DejaVuSans-3d" d="M 678 2906 
L 4684 2906 
L 4684 2381 
L 678 2381 
L 678 2906 
z
M 678 1631 
L 4684 1631 
L 4684 1100 
L 678 1100 
L 678 1631 
z
" transform="scale(0.015625)"/>
       <path id="DejaVuSans-2d" d="M 313 2009 
L 1997 2009 
L 1997 1497 
L 313 1497 
L 313 2009 
z
" transform="scale(0.015625)"/>
       <path id="DejaVuSans-36" d="M 2113 2584 
Q 1688 2584 1439 2293 
Q 1191 2003 1191 1497 
Q 1191 994 1439 701 
Q 1688 409 2113 409 
Q 2538 409 2786 701 
Q 3034 994 3034 1497 
Q 3034 2003 2786 2293 
Q 2538 2584 2113 2584 
z
M 3366 4563 
L 3366 3988 
Q 3128 4100 2886 4159 
Q 2644 4219 2406 4219 
Q 1781 4219 1451 3797 
Q 1122 3375 1075 2522 
Q 1259 2794 1537 2939 
Q 1816 3084 2150 3084 
Q 2853 3084 3261 2657 
Q 3669 2231 3669 1497 
Q 3669 778 3244 343 
Q 2819 -91 2113 -91 
Q 1303 -91 875 529 
Q 447 1150 447 2328 
Q 447 3434 972 4092 
Q 1497 4750 2381 4750 
Q 2619 4750 2861 4703 
Q 3103 4656 3366 4563 
z
" transform="scale(0.015625)"/>
      </defs>
      <use xlink:href="#DejaVuSans-Oblique-43" transform="translate(0 0.78125)"/>
      <use xlink:href="#DejaVuSans-Oblique-62" transform="translate(69.824219 -15.625) scale(0.7)"/>
      <use xlink:href="#DejaVuSans-3a" transform="translate(136.474609 0.78125)"/>
      <use xlink:href="#DejaVuSans-Oblique-4c" transform="translate(189.648438 0.78125)"/>
      <use xlink:href="#DejaVuSans-20" transform="translate(245.361328 0.78125)"/>
      <use xlink:href="#DejaVuSans-3d" transform="translate(277.148438 0.78125)"/>
      <use xlink:href="#DejaVuSans-20" transform="translate(360.9375 0.78125)"/>
      <use xlink:href="#DejaVuSans-20" transform="translate(392.724609 0.78125)"/>
      <use xlink:href="#DejaVuSans-31" transform="translate(424.511719 0.78125)"/>
      <use xlink:href="#DejaVuSans-2e" transform="translate(488.134766 0.78125)"/>
      <use xlink:href="#DejaVuSans-30" transform="translate(519.921875 0.78125)"/>
      <use xlink:href="#DejaVuSans-65" transform="translate(583.544922 0.78125)"/>
      <use xlink:href="#DejaVuSans-2d" transform="translate(645.068359 0.78125)"/>
      <use xlink:href="#DejaVuSans-30" transform="translate(681.152344 0.78125)"/>
      <use xlink:href="#DejaVuSans-36" transform="translate(744.775391 0.78125)"/>
     </g>
    </g>
    <g id="line2d_65">
     <path d="M 377.12 52.551875 
L 382.12 52.551875 
L 387.12 52.551875 
" style="fill: none; stroke: #0000ff; stroke-width: 2; stroke-linecap: square"/>
    </g>
    <g id="text_16">
     <!-- $C_{b}: L$ =  2.0e-06 -->
     <g transform="translate(389.12 56.051875) scale(0.12 -0.12)">
      <use xlink:href="#DejaVuSans-Oblique-43" transform="translate(0 0.78125)"/>
      <use xlink:href="#DejaVuSans-Oblique-62" transform="translate(69.824219 -15.625) scale(0.7)"/>
      <use xlink:href="#DejaVuSans-3a" transform="translate(136.474609 0.78125)"/>
      <use xlink:href="#DejaVuSans-Oblique-4c" transform="translate(189.648438 0.78125)"/>
      <use xlink:href="#DejaVuSans-20" transform="translate(245.361328 0.78125)"/>
      <use xlink:href="#DejaVuSans-3d" transform="translate(277.148438 0.78125)"/>
      <use xlink:href="#DejaVuSans-20" transform="translate(360.9375 0.78125)"/>
      <use xlink:href="#DejaVuSans-20" transform="translate(392.724609 0.78125)"/>
      <use xlink:href="#DejaVuSans-32" transform="translate(424.511719 0.78125)"/>
      <use xlink:href="#DejaVuSans-2e" transform="translate(488.134766 0.78125)"/>
      <use xlink:href="#DejaVuSans-30" transform="translate(519.921875 0.78125)"/>
      <use xlink:href="#DejaVuSans-65" transform="translate(583.544922 0.78125)"/>
      <use xlink:href="#DejaVuSans-2d" transform="translate(645.068359 0.78125)"/>
      <use xlink:href="#DejaVuSans-30" transform="translate(681.152344 0.78125)"/>
      <use xlink:href="#DejaVuSans-36" transform="translate(744.775391 0.78125)"/>
     </g>
    </g>
    <g id="line2d_66">
     <path d="M 377.12 64.165625 
L 382.12 64.165625 
L 387.12 64.165625 
" style="fill: none; stroke: #008000; stroke-width: 2; stroke-linecap: square"/>
    </g>
    <g id="text_17">
     <!-- $C_{b}: L$ =  3.0e-06 -->
     <g transform="translate(389.12 67.665625) scale(0.12 -0.12)">
      <use xlink:href="#DejaVuSans-Oblique-43" transform="translate(0 0.78125)"/>
      <use xlink:href="#DejaVuSans-Oblique-62" transform="translate(69.824219 -15.625) scale(0.7)"/>
      <use xlink:href="#DejaVuSans-3a" transform="translate(136.474609 0.78125)"/>
      <use xlink:href="#DejaVuSans-Oblique-4c" transform="translate(189.648438 0.78125)"/>
      <use xlink:href="#DejaVuSans-20" transform="translate(245.361328 0.78125)"/>
      <use xlink:href="#DejaVuSans-3d" transform="translate(277.148438 0.78125)"/>
      <use xlink:href="#DejaVuSans-20" transform="translate(360.9375 0.78125)"/>
      <use xlink:href="#DejaVuSans-20" transform="translate(392.724609 0.78125)"/>
      <use xlink:href="#DejaVuSans-33" transform="translate(424.511719 0.78125)"/>
      <use xlink:href="#DejaVuSans-2e" transform="translate(488.134766 0.78125)"/>
      <use xlink:href="#DejaVuSans-30" transform="translate(519.921875 0.78125)"/>
      <use xlink:href="#DejaVuSans-65" transform="translate(583.544922 0.78125)"/>
      <use xlink:href="#DejaVuSans-2d" transform="translate(645.068359 0.78125)"/>
      <use xlink:href="#DejaVuSans-30" transform="translate(681.152344 0.78125)"/>
      <use xlink:href="#DejaVuSans-36" transform="translate(744.775391 0.78125)"/>
     </g>
    </g>
    <g id="line2d_67">
     <path d="M 377.12 75.779375 
L 382.12 75.779375 
L 387.12 75.779375 
" style="fill: none; stroke: #00bfbf; stroke-width: 2; stroke-linecap: square"/>
    </g>
    <g id="text_18">
     <!-- $C_{b}: L$ =  4.0e-06 -->
     <g transform="translate(389.12 79.279375) scale(0.12 -0.12)">
      <use xlink:href="#DejaVuSans-Oblique-43" transform="translate(0 0.78125)"/>
      <use xlink:href="#DejaVuSans-Oblique-62" transform="translate(69.824219 -15.625) scale(0.7)"/>
      <use xlink:href="#DejaVuSans-3a" transform="translate(136.474609 0.78125)"/>
      <use xlink:href="#DejaVuSans-Oblique-4c" transform="translate(189.648438 0.78125)"/>
      <use xlink:href="#DejaVuSans-20" transform="translate(245.361328 0.78125)"/>
      <use xlink:href="#DejaVuSans-3d" transform="translate(277.148438 0.78125)"/>
      <use xlink:href="#DejaVuSans-20" transform="translate(360.9375 0.78125)"/>
      <use xlink:href="#DejaVuSans-20" transform="translate(392.724609 0.78125)"/>
      <use xlink:href="#DejaVuSans-34" transform="translate(424.511719 0.78125)"/>
      <use xlink:href="#DejaVuSans-2e" transform="translate(488.134766 0.78125)"/>
      <use xlink:href="#DejaVuSans-30" transform="translate(519.921875 0.78125)"/>
      <use xlink:href="#DejaVuSans-65" transform="translate(583.544922 0.78125)"/>
      <use xlink:href="#DejaVuSans-2d" transform="translate(645.068359 0.78125)"/>
      <use xlink:href="#DejaVuSans-30" transform="translate(681.152344 0.78125)"/>
      <use xlink:href="#DejaVuSans-36" transform="translate(744.775391 0.78125)"/>
     </g>
    </g>
    <g id="line2d_68">
     <path d="M 377.12 87.393125 
L 382.12 87.393125 
L 387.12 87.393125 
" style="fill: none; stroke: #bf00bf; stroke-width: 2; stroke-linecap: square"/>
    </g>
    <g id="text_19">
     <!-- $C_{b}: L$ =  5.0e-06 -->
     <g transform="translate(389.12 90.893125) scale(0.12 -0.12)">
      <use xlink:href="#DejaVuSans-Oblique-43" transform="translate(0 0.78125)"/>
      <use xlink:href="#DejaVuSans-Oblique-62" transform="translate(69.824219 -15.625) scale(0.7)"/>
      <use xlink:href="#DejaVuSans-3a" transform="translate(136.474609 0.78125)"/>
      <use xlink:href="#DejaVuSans-Oblique-4c" transform="translate(189.648438 0.78125)"/>
      <use xlink:href="#DejaVuSans-20" transform="translate(245.361328 0.78125)"/>
      <use xlink:href="#DejaVuSans-3d" transform="translate(277.148438 0.78125)"/>
      <use xlink:href="#DejaVuSans-20" transform="translate(360.9375 0.78125)"/>
      <use xlink:href="#DejaVuSans-20" transform="translate(392.724609 0.78125)"/>
      <use xlink:href="#DejaVuSans-35" transform="translate(424.511719 0.78125)"/>
      <use xlink:href="#DejaVuSans-2e" transform="translate(488.134766 0.78125)"/>
      <use xlink:href="#DejaVuSans-30" transform="translate(519.921875 0.78125)"/>
      <use xlink:href="#DejaVuSans-65" transform="translate(583.544922 0.78125)"/>
      <use xlink:href="#DejaVuSans-2d" transform="translate(645.068359 0.78125)"/>
      <use xlink:href="#DejaVuSans-30" transform="translate(681.152344 0.78125)"/>
      <use xlink:href="#DejaVuSans-36" transform="translate(744.775391 0.78125)"/>
     </g>
    </g>
   </g>
  </g>
 </g>
 <defs>
  <clipPath id="p433df8cc85">
   <rect x="58.476107" y="28.32" width="434.723893" height="281.8"/>
  </clipPath>
 </defs>
</svg>
