<?xml version="1.0" encoding="utf-8" standalone="no"?>
<!DOCTYPE svg PUBLIC "-//W3C//DTD SVG 1.1//EN"
  "http://www.w3.org/Graphics/SVG/1.1/DTD/svg11.dtd">
<svg xmlns:xlink="http://www.w3.org/1999/xlink" width="504pt" height="360pt" viewBox="0 0 504 360" xmlns="http://www.w3.org/2000/svg" version="1.1">
 <metadata>
  <rdf:RDF xmlns:dc="http://purl.org/dc/elements/1.1/" xmlns:cc="http://creativecommons.org/ns#" xmlns:rdf="http://www.w3.org/1999/02/22-rdf-syntax-ns#">
   <cc:Work>
    <dc:type rdf:resource="http://purl.org/dc/dcmitype/StillImage"/>
    <dc:date>2025-09-06T12:39:43.290414</dc:date>
    <dc:format>image/svg+xml</dc:format>
    <dc:creator>
     <cc:Agent>
      <dc:title>Matplotlib v3.9.2, https://matplotlib.org/</dc:title>
     </cc:Agent>
    </dc:creator>
   </cc:Work>
  </rdf:RDF>
 </metadata>
 <defs>
  <style type="text/css">*{stroke-linejoin: round; stroke-linecap: butt}</style>
 </defs>
 <g id="figure_1">
  <g id="patch_1">
   <path d="M 0 360 
L 504 360 
L 504 0 
L 0 0 
z
" style="fill: #ffffff"/>
  </g>
  <g id="axes_1">
   <g id="patch_2">
    <path d="M 59.963906 309.1 
L 493.2 309.1 
L 493.2 28.8 
L 59.963906 28.8 
z
" style="fill: #ffffff"/>
   </g>
   <g id="matplotlib.axis_1">
    <g id="xtick_1">
     <g id="line2d_1">
      <path d="M 79.656456 309.1 
L 79.656456 28.8 
" clip-path="url(#pc755b50fe0)" style="fill: none; stroke: #808080; stroke-width: 0.8; stroke-linecap: square"/>
     </g>
     <g id="line2d_2">
      <defs>
       <path id="mbf079301bb" d="M 0 0 
L 0 3.5 
" style="stroke: #000000; stroke-width: 0.8"/>
      </defs>
      <g>
       <use xlink:href="#mbf079301bb" x="79.656456" y="309.1" style="stroke: #000000; stroke-width: 0.8"/>
      </g>
     </g>
     <g id="text_1">
      <!-- 1.0 -->
      <g transform="translate(70.114581 325.218125) scale(0.12 -0.12)">
       <defs>
        <path id="DejaVuSans-31" d="M 794 531 
L 1825 531 
L 1825 4091 
L 703 3866 
L 703 4441 
L 1819 4666 
L 2450 4666 
L 2450 531 
L 3481 531 
L 3481 0 
L 794 0 
L 794 531 
z
" transform="scale(0.015625)"/>
        <path id="DejaVuSans-2e" d="M 684 794 
L 1344 794 
L 1344 0 
L 684 0 
L 684 794 
z
" transform="scale(0.015625)"/>
        <path id="DejaVuSans-30" d="M 2034 4250 
Q 1547 4250 1301 3770 
Q 1056 3291 1056 2328 
Q 1056 1369 1301 889 
Q 1547 409 2034 409 
Q 2525 409 2770 889 
Q 3016 1369 3016 2328 
Q 3016 3291 2770 3770 
Q 2525 4250 2034 4250 
z
M 2034 4750 
Q 2819 4750 3233 4129 
Q 3647 3509 3647 2328 
Q 3647 1150 3233 529 
Q 2819 -91 2034 -91 
Q 1250 -91 836 529 
Q 422 1150 422 2328 
Q 422 3509 836 4129 
Q 1250 4750 2034 4750 
z
" transform="scale(0.015625)"/>
       </defs>
       <use xlink:href="#DejaVuSans-31"/>
       <use xlink:href="#DejaVuSans-2e" x="63.623047"/>
       <use xlink:href="#DejaVuSans-30" x="95.410156"/>
      </g>
     </g>
    </g>
    <g id="xtick_2">
     <g id="line2d_3">
      <path d="M 128.88783 309.1 
L 128.88783 28.8 
" clip-path="url(#pc755b50fe0)" style="fill: none; stroke: #808080; stroke-width: 0.8; stroke-linecap: square"/>
     </g>
     <g id="line2d_4">
      <g>
       <use xlink:href="#mbf079301bb" x="128.88783" y="309.1" style="stroke: #000000; stroke-width: 0.8"/>
      </g>
     </g>
     <g id="text_2">
      <!-- 1.5 -->
      <g transform="translate(119.345955 325.218125) scale(0.12 -0.12)">
       <defs>
        <path id="DejaVuSans-35" d="M 691 4666 
L 3169 4666 
L 3169 4134 
L 1269 4134 
L 1269 2991 
Q 1406 3038 1543 3061 
Q 1681 3084 1819 3084 
Q 2600 3084 3056 2656 
Q 3513 2228 3513 1497 
Q 3513 744 3044 326 
Q 2575 -91 1722 -91 
Q 1428 -91 1123 -41 
Q 819 9 494 109 
L 494 744 
Q 775 591 1075 516 
Q 1375 441 1709 441 
Q 2250 441 2565 725 
Q 2881 1009 2881 1497 
Q 2881 1984 2565 2268 
Q 2250 2553 1709 2553 
Q 1456 2553 1204 2497 
Q 953 2441 691 2322 
L 691 4666 
z
" transform="scale(0.015625)"/>
       </defs>
       <use xlink:href="#DejaVuSans-31"/>
       <use xlink:href="#DejaVuSans-2e" x="63.623047"/>
       <use xlink:href="#DejaVuSans-35" x="95.410156"/>
      </g>
     </g>
    </g>
    <g id="xtick_3">
     <g id="line2d_5">
      <path d="M 178.119205 309.1 
L 178.119205 28.8 
" clip-path="url(#pc755b50fe0)" style="fill: none; stroke: #808080; stroke-width: 0.8; stroke-linecap: square"/>
     </g>
     <g id="line2d_6">
      <g>
       <use xlink:href="#mbf079301bb" x="178.119205" y="309.1" style="stroke: #000000; stroke-width: 0.8"/>
      </g>
     </g>
     <g id="text_3">
      <!-- 2.0 -->
      <g transform="translate(168.57733 325.218125) scale(0.12 -0.12)">
       <defs>
        <path id="DejaVuSans-32" d="M 1228 531 
L 3431 531 
L 3431 0 
L 469 0 
L 469 531 
Q 828 903 1448 1529 
Q 2069 2156 2228 2338 
Q 2531 2678 2651 2914 
Q 2772 3150 2772 3378 
Q 2772 3750 2511 3984 
Q 2250 4219 1831 4219 
Q 1534 4219 1204 4116 
Q 875 4013 500 3803 
L 500 4441 
Q 881 4594 1212 4672 
Q 1544 4750 1819 4750 
Q 2544 4750 2975 4387 
Q 3406 4025 3406 3419 
Q 3406 3131 3298 2873 
Q 3191 2616 2906 2266 
Q 2828 2175 2409 1742 
Q 1991 1309 1228 531 
z
" transform="scale(0.015625)"/>
       </defs>
       <use xlink:href="#DejaVuSans-32"/>
       <use xlink:href="#DejaVuSans-2e" x="63.623047"/>
       <use xlink:href="#DejaVuSans-30" x="95.410156"/>
      </g>
     </g>
    </g>
    <g id="xtick_4">
     <g id="line2d_7">
      <path d="M 227.350579 309.1 
L 227.350579 28.8 
" clip-path="url(#pc755b50fe0)" style="fill: none; stroke: #808080; stroke-width: 0.8; stroke-linecap: square"/>
     </g>
     <g id="line2d_8">
      <g>
       <use xlink:href="#mbf079301bb" x="227.350579" y="309.1" style="stroke: #000000; stroke-width: 0.8"/>
      </g>
     </g>
     <g id="text_4">
      <!-- 2.5 -->
      <g transform="translate(217.808704 325.218125) scale(0.12 -0.12)">
       <use xlink:href="#DejaVuSans-32"/>
       <use xlink:href="#DejaVuSans-2e" x="63.623047"/>
       <use xlink:href="#DejaVuSans-35" x="95.410156"/>
      </g>
     </g>
    </g>
    <g id="xtick_5">
     <g id="line2d_9">
      <path d="M 276.581953 309.1 
L 276.581953 28.8 
" clip-path="url(#pc755b50fe0)" style="fill: none; stroke: #808080; stroke-width: 0.8; stroke-linecap: square"/>
     </g>
     <g id="line2d_10">
      <g>
       <use xlink:href="#mbf079301bb" x="276.581953" y="309.1" style="stroke: #000000; stroke-width: 0.8"/>
      </g>
     </g>
     <g id="text_5">
      <!-- 3.0 -->
      <g transform="translate(267.040078 325.218125) scale(0.12 -0.12)">
       <defs>
        <path id="DejaVuSans-33" d="M 2597 2516 
Q 3050 2419 3304 2112 
Q 3559 1806 3559 1356 
Q 3559 666 3084 287 
Q 2609 -91 1734 -91 
Q 1441 -91 1130 -33 
Q 819 25 488 141 
L 488 750 
Q 750 597 1062 519 
Q 1375 441 1716 441 
Q 2309 441 2620 675 
Q 2931 909 2931 1356 
Q 2931 1769 2642 2001 
Q 2353 2234 1838 2234 
L 1294 2234 
L 1294 2753 
L 1863 2753 
Q 2328 2753 2575 2939 
Q 2822 3125 2822 3475 
Q 2822 3834 2567 4026 
Q 2313 4219 1838 4219 
Q 1578 4219 1281 4162 
Q 984 4106 628 3988 
L 628 4550 
Q 988 4650 1302 4700 
Q 1616 4750 1894 4750 
Q 2613 4750 3031 4423 
Q 3450 4097 3450 3541 
Q 3450 3153 3228 2886 
Q 3006 2619 2597 2516 
z
" transform="scale(0.015625)"/>
       </defs>
       <use xlink:href="#DejaVuSans-33"/>
       <use xlink:href="#DejaVuSans-2e" x="63.623047"/>
       <use xlink:href="#DejaVuSans-30" x="95.410156"/>
      </g>
     </g>
    </g>
    <g id="xtick_6">
     <g id="line2d_11">
      <path d="M 325.813327 309.1 
L 325.813327 28.8 
" clip-path="url(#pc755b50fe0)" style="fill: none; stroke: #808080; stroke-width: 0.8; stroke-linecap: square"/>
     </g>
     <g id="line2d_12">
      <g>
       <use xlink:href="#mbf079301bb" x="325.813327" y="309.1" style="stroke: #000000; stroke-width: 0.8"/>
      </g>
     </g>
     <g id="text_6">
      <!-- 3.5 -->
      <g transform="translate(316.271452 325.218125) scale(0.12 -0.12)">
       <use xlink:href="#DejaVuSans-33"/>
       <use xlink:href="#DejaVuSans-2e" x="63.623047"/>
       <use xlink:href="#DejaVuSans-35" x="95.410156"/>
      </g>
     </g>
    </g>
    <g id="xtick_7">
     <g id="line2d_13">
      <path d="M 375.044702 309.1 
L 375.044702 28.8 
" clip-path="url(#pc755b50fe0)" style="fill: none; stroke: #808080; stroke-width: 0.8; stroke-linecap: square"/>
     </g>
     <g id="line2d_14">
      <g>
       <use xlink:href="#mbf079301bb" x="375.044702" y="309.1" style="stroke: #000000; stroke-width: 0.8"/>
      </g>
     </g>
     <g id="text_7">
      <!-- 4.0 -->
      <g transform="translate(365.502827 325.218125) scale(0.12 -0.12)">
       <defs>
        <path id="DejaVuSans-34" d="M 2419 4116 
L 825 1625 
L 2419 1625 
L 2419 4116 
z
M 2253 4666 
L 3047 4666 
L 3047 1625 
L 3713 1625 
L 3713 1100 
L 3047 1100 
L 3047 0 
L 2419 0 
L 2419 1100 
L 313 1100 
L 313 1709 
L 2253 4666 
z
" transform="scale(0.015625)"/>
       </defs>
       <use xlink:href="#DejaVuSans-34"/>
       <use xlink:href="#DejaVuSans-2e" x="63.623047"/>
       <use xlink:href="#DejaVuSans-30" x="95.410156"/>
      </g>
     </g>
    </g>
    <g id="xtick_8">
     <g id="line2d_15">
      <path d="M 424.276076 309.1 
L 424.276076 28.8 
" clip-path="url(#pc755b50fe0)" style="fill: none; stroke: #808080; stroke-width: 0.8; stroke-linecap: square"/>
     </g>
     <g id="line2d_16">
      <g>
       <use xlink:href="#mbf079301bb" x="424.276076" y="309.1" style="stroke: #000000; stroke-width: 0.8"/>
      </g>
     </g>
     <g id="text_8">
      <!-- 4.5 -->
      <g transform="translate(414.734201 325.218125) scale(0.12 -0.12)">
       <use xlink:href="#DejaVuSans-34"/>
       <use xlink:href="#DejaVuSans-2e" x="63.623047"/>
       <use xlink:href="#DejaVuSans-35" x="95.410156"/>
      </g>
     </g>
    </g>
    <g id="xtick_9">
     <g id="line2d_17">
      <path d="M 473.50745 309.1 
L 473.50745 28.8 
" clip-path="url(#pc755b50fe0)" style="fill: none; stroke: #808080; stroke-width: 0.8; stroke-linecap: square"/>
     </g>
     <g id="line2d_18">
      <g>
       <use xlink:href="#mbf079301bb" x="473.50745" y="309.1" style="stroke: #000000; stroke-width: 0.8"/>
      </g>
     </g>
     <g id="text_9">
      <!-- 5.0 -->
      <g transform="translate(463.965575 325.218125) scale(0.12 -0.12)">
       <use xlink:href="#DejaVuSans-35"/>
       <use xlink:href="#DejaVuSans-2e" x="63.623047"/>
       <use xlink:href="#DejaVuSans-30" x="95.410156"/>
      </g>
     </g>
    </g>
    <g id="text_10">
     <!-- $f_{s}$ [MHz] -->
     <g transform="translate(252.641953 340.831875) scale(0.12 -0.12)">
      <defs>
       <path id="DejaVuSans-Oblique-66" d="M 3059 4863 
L 2969 4384 
L 2419 4384 
Q 2106 4384 1964 4261 
Q 1822 4138 1753 3809 
L 1691 3500 
L 2638 3500 
L 2553 3053 
L 1606 3053 
L 1013 0 
L 434 0 
L 1031 3053 
L 481 3053 
L 563 3500 
L 1113 3500 
L 1159 3744 
Q 1278 4363 1576 4613 
Q 1875 4863 2516 4863 
L 3059 4863 
z
" transform="scale(0.015625)"/>
       <path id="DejaVuSans-Oblique-73" d="M 3200 3397 
L 3091 2853 
Q 2863 2978 2609 3040 
Q 2356 3103 2088 3103 
Q 1634 3103 1373 2948 
Q 1113 2794 1113 2528 
Q 1113 2219 1719 2053 
Q 1766 2041 1788 2034 
L 1972 1978 
Q 2547 1819 2739 1644 
Q 2931 1469 2931 1166 
Q 2931 609 2489 259 
Q 2047 -91 1331 -91 
Q 1053 -91 747 -37 
Q 441 16 72 128 
L 184 722 
Q 500 559 806 475 
Q 1113 391 1394 391 
Q 1816 391 2080 572 
Q 2344 753 2344 1031 
Q 2344 1331 1650 1516 
L 1591 1531 
L 1394 1581 
Q 956 1697 753 1886 
Q 550 2075 550 2369 
Q 550 2928 970 3256 
Q 1391 3584 2113 3584 
Q 2397 3584 2667 3537 
Q 2938 3491 3200 3397 
z
" transform="scale(0.015625)"/>
       <path id="DejaVuSans-20" transform="scale(0.015625)"/>
       <path id="DejaVuSans-5b" d="M 550 4863 
L 1875 4863 
L 1875 4416 
L 1125 4416 
L 1125 -397 
L 1875 -397 
L 1875 -844 
L 550 -844 
L 550 4863 
z
" transform="scale(0.015625)"/>
       <path id="DejaVuSans-4d" d="M 628 4666 
L 1569 4666 
L 2759 1491 
L 3956 4666 
L 4897 4666 
L 4897 0 
L 4281 0 
L 4281 4097 
L 3078 897 
L 2444 897 
L 1241 4097 
L 1241 0 
L 628 0 
L 628 4666 
z
" transform="scale(0.015625)"/>
       <path id="DejaVuSans-48" d="M 628 4666 
L 1259 4666 
L 1259 2753 
L 3553 2753 
L 3553 4666 
L 4184 4666 
L 4184 0 
L 3553 0 
L 3553 2222 
L 1259 2222 
L 1259 0 
L 628 0 
L 628 4666 
z
" transform="scale(0.015625)"/>
       <path id="DejaVuSans-7a" d="M 353 3500 
L 3084 3500 
L 3084 2975 
L 922 459 
L 3084 459 
L 3084 0 
L 275 0 
L 275 525 
L 2438 3041 
L 353 3041 
L 353 3500 
z
" transform="scale(0.015625)"/>
       <path id="DejaVuSans-5d" d="M 1947 4863 
L 1947 -844 
L 622 -844 
L 622 -397 
L 1369 -397 
L 1369 4416 
L 622 4416 
L 622 4863 
L 1947 4863 
z
" transform="scale(0.015625)"/>
      </defs>
      <use xlink:href="#DejaVuSans-Oblique-66" transform="translate(0 0.015625)"/>
      <use xlink:href="#DejaVuSans-Oblique-73" transform="translate(35.205078 -16.390625) scale(0.7)"/>
      <use xlink:href="#DejaVuSans-20" transform="translate(74.40918 0.015625)"/>
      <use xlink:href="#DejaVuSans-5b" transform="translate(106.196289 0.015625)"/>
      <use xlink:href="#DejaVuSans-4d" transform="translate(145.209961 0.015625)"/>
      <use xlink:href="#DejaVuSans-48" transform="translate(231.489258 0.015625)"/>
      <use xlink:href="#DejaVuSans-7a" transform="translate(306.68457 0.015625)"/>
      <use xlink:href="#DejaVuSans-5d" transform="translate(359.174805 0.015625)"/>
     </g>
    </g>
   </g>
   <g id="matplotlib.axis_2">
    <g id="ytick_1">
     <g id="line2d_19">
      <path d="M 59.963906 212.112396 
L 493.2 212.112396 
" clip-path="url(#pc755b50fe0)" style="fill: none; stroke: #808080; stroke-width: 0.8; stroke-linecap: square"/>
     </g>
     <g id="line2d_20">
      <defs>
       <path id="m7dcf9c8178" d="M 0 0 
L -3.5 0 
" style="stroke: #000000; stroke-width: 0.8"/>
      </defs>
      <g>
       <use xlink:href="#m7dcf9c8178" x="59.963906" y="212.112396" style="stroke: #000000; stroke-width: 0.8"/>
      </g>
     </g>
     <g id="text_11">
      <!-- $\mathdefault{10^{0}}$ -->
      <g transform="translate(31.843906 216.671459) scale(0.12 -0.12)">
       <use xlink:href="#DejaVuSans-31" transform="translate(0 0.765625)"/>
       <use xlink:href="#DejaVuSans-30" transform="translate(63.623047 0.765625)"/>
       <use xlink:href="#DejaVuSans-30" transform="translate(128.203125 39.046875) scale(0.7)"/>
      </g>
     </g>
    </g>
    <g id="ytick_2">
     <g id="line2d_21">
      <path d="M 59.963906 90.591597 
L 493.2 90.591597 
" clip-path="url(#pc755b50fe0)" style="fill: none; stroke: #808080; stroke-width: 0.8; stroke-linecap: square"/>
     </g>
     <g id="line2d_22">
      <g>
       <use xlink:href="#m7dcf9c8178" x="59.963906" y="90.591597" style="stroke: #000000; stroke-width: 0.8"/>
      </g>
     </g>
     <g id="text_12">
      <!-- $\mathdefault{10^{1}}$ -->
      <g transform="translate(31.843906 95.150659) scale(0.12 -0.12)">
       <use xlink:href="#DejaVuSans-31" transform="translate(0 0.684375)"/>
       <use xlink:href="#DejaVuSans-30" transform="translate(63.623047 0.684375)"/>
       <use xlink:href="#DejaVuSans-31" transform="translate(128.203125 38.965625) scale(0.7)"/>
      </g>
     </g>
    </g>
    <g id="ytick_3">
     <g id="line2d_23">
      <path d="M 59.963906 297.05179 
L 493.2 297.05179 
" clip-path="url(#pc755b50fe0)" style="fill: none; stroke-dasharray: 0.8,1.32; stroke-dashoffset: 0; stroke: #808080; stroke-width: 0.8"/>
     </g>
     <g id="line2d_24">
      <defs>
       <path id="m4c03258d0d" d="M 0 0 
L -2 0 
" style="stroke: #000000; stroke-width: 0.6"/>
      </defs>
      <g>
       <use xlink:href="#m4c03258d0d" x="59.963906" y="297.05179" style="stroke: #000000; stroke-width: 0.6"/>
      </g>
     </g>
    </g>
    <g id="ytick_4">
     <g id="line2d_25">
      <path d="M 59.963906 275.65304 
L 493.2 275.65304 
" clip-path="url(#pc755b50fe0)" style="fill: none; stroke-dasharray: 0.8,1.32; stroke-dashoffset: 0; stroke: #808080; stroke-width: 0.8"/>
     </g>
     <g id="line2d_26">
      <g>
       <use xlink:href="#m4c03258d0d" x="59.963906" y="275.65304" style="stroke: #000000; stroke-width: 0.6"/>
      </g>
     </g>
    </g>
    <g id="ytick_5">
     <g id="line2d_27">
      <path d="M 59.963906 260.470385 
L 493.2 260.470385 
" clip-path="url(#pc755b50fe0)" style="fill: none; stroke-dasharray: 0.8,1.32; stroke-dashoffset: 0; stroke: #808080; stroke-width: 0.8"/>
     </g>
     <g id="line2d_28">
      <g>
       <use xlink:href="#m4c03258d0d" x="59.963906" y="260.470385" style="stroke: #000000; stroke-width: 0.6"/>
      </g>
     </g>
    </g>
    <g id="ytick_6">
     <g id="line2d_29">
      <path d="M 59.963906 248.693802 
L 493.2 248.693802 
" clip-path="url(#pc755b50fe0)" style="fill: none; stroke-dasharray: 0.8,1.32; stroke-dashoffset: 0; stroke: #808080; stroke-width: 0.8"/>
     </g>
     <g id="line2d_30">
      <g>
       <use xlink:href="#m4c03258d0d" x="59.963906" y="248.693802" style="stroke: #000000; stroke-width: 0.6"/>
      </g>
     </g>
    </g>
    <g id="ytick_7">
     <g id="line2d_31">
      <path d="M 59.963906 239.071634 
L 493.2 239.071634 
" clip-path="url(#pc755b50fe0)" style="fill: none; stroke-dasharray: 0.8,1.32; stroke-dashoffset: 0; stroke: #808080; stroke-width: 0.8"/>
     </g>
     <g id="line2d_32">
      <g>
       <use xlink:href="#m4c03258d0d" x="59.963906" y="239.071634" style="stroke: #000000; stroke-width: 0.6"/>
      </g>
     </g>
    </g>
    <g id="ytick_8">
     <g id="line2d_33">
      <path d="M 59.963906 230.936207 
L 493.2 230.936207 
" clip-path="url(#pc755b50fe0)" style="fill: none; stroke-dasharray: 0.8,1.32; stroke-dashoffset: 0; stroke: #808080; stroke-width: 0.8"/>
     </g>
     <g id="line2d_34">
      <g>
       <use xlink:href="#m4c03258d0d" x="59.963906" y="230.936207" style="stroke: #000000; stroke-width: 0.6"/>
      </g>
     </g>
    </g>
    <g id="ytick_9">
     <g id="line2d_35">
      <path d="M 59.963906 223.888979 
L 493.2 223.888979 
" clip-path="url(#pc755b50fe0)" style="fill: none; stroke-dasharray: 0.8,1.32; stroke-dashoffset: 0; stroke: #808080; stroke-width: 0.8"/>
     </g>
     <g id="line2d_36">
      <g>
       <use xlink:href="#m4c03258d0d" x="59.963906" y="223.888979" style="stroke: #000000; stroke-width: 0.6"/>
      </g>
     </g>
    </g>
    <g id="ytick_10">
     <g id="line2d_37">
      <path d="M 59.963906 217.672883 
L 493.2 217.672883 
" clip-path="url(#pc755b50fe0)" style="fill: none; stroke-dasharray: 0.8,1.32; stroke-dashoffset: 0; stroke: #808080; stroke-width: 0.8"/>
     </g>
     <g id="line2d_38">
      <g>
       <use xlink:href="#m4c03258d0d" x="59.963906" y="217.672883" style="stroke: #000000; stroke-width: 0.6"/>
      </g>
     </g>
    </g>
    <g id="ytick_11">
     <g id="line2d_39">
      <path d="M 59.963906 175.530991 
L 493.2 175.530991 
" clip-path="url(#pc755b50fe0)" style="fill: none; stroke-dasharray: 0.8,1.32; stroke-dashoffset: 0; stroke: #808080; stroke-width: 0.8"/>
     </g>
     <g id="line2d_40">
      <g>
       <use xlink:href="#m4c03258d0d" x="59.963906" y="175.530991" style="stroke: #000000; stroke-width: 0.6"/>
      </g>
     </g>
    </g>
    <g id="ytick_12">
     <g id="line2d_41">
      <path d="M 59.963906 154.13224 
L 493.2 154.13224 
" clip-path="url(#pc755b50fe0)" style="fill: none; stroke-dasharray: 0.8,1.32; stroke-dashoffset: 0; stroke: #808080; stroke-width: 0.8"/>
     </g>
     <g id="line2d_42">
      <g>
       <use xlink:href="#m4c03258d0d" x="59.963906" y="154.13224" style="stroke: #000000; stroke-width: 0.6"/>
      </g>
     </g>
    </g>
    <g id="ytick_13">
     <g id="line2d_43">
      <path d="M 59.963906 138.949585 
L 493.2 138.949585 
" clip-path="url(#pc755b50fe0)" style="fill: none; stroke-dasharray: 0.8,1.32; stroke-dashoffset: 0; stroke: #808080; stroke-width: 0.8"/>
     </g>
     <g id="line2d_44">
      <g>
       <use xlink:href="#m4c03258d0d" x="59.963906" y="138.949585" style="stroke: #000000; stroke-width: 0.6"/>
      </g>
     </g>
    </g>
    <g id="ytick_14">
     <g id="line2d_45">
      <path d="M 59.963906 127.173003 
L 493.2 127.173003 
" clip-path="url(#pc755b50fe0)" style="fill: none; stroke-dasharray: 0.8,1.32; stroke-dashoffset: 0; stroke: #808080; stroke-width: 0.8"/>
     </g>
     <g id="line2d_46">
      <g>
       <use xlink:href="#m4c03258d0d" x="59.963906" y="127.173003" style="stroke: #000000; stroke-width: 0.6"/>
      </g>
     </g>
    </g>
    <g id="ytick_15">
     <g id="line2d_47">
      <path d="M 59.963906 117.550834 
L 493.2 117.550834 
" clip-path="url(#pc755b50fe0)" style="fill: none; stroke-dasharray: 0.8,1.32; stroke-dashoffset: 0; stroke: #808080; stroke-width: 0.8"/>
     </g>
     <g id="line2d_48">
      <g>
       <use xlink:href="#m4c03258d0d" x="59.963906" y="117.550834" style="stroke: #000000; stroke-width: 0.6"/>
      </g>
     </g>
    </g>
    <g id="ytick_16">
     <g id="line2d_49">
      <path d="M 59.963906 109.415407 
L 493.2 109.415407 
" clip-path="url(#pc755b50fe0)" style="fill: none; stroke-dasharray: 0.8,1.32; stroke-dashoffset: 0; stroke: #808080; stroke-width: 0.8"/>
     </g>
     <g id="line2d_50">
      <g>
       <use xlink:href="#m4c03258d0d" x="59.963906" y="109.415407" style="stroke: #000000; stroke-width: 0.6"/>
      </g>
     </g>
    </g>
    <g id="ytick_17">
     <g id="line2d_51">
      <path d="M 59.963906 102.368179 
L 493.2 102.368179 
" clip-path="url(#pc755b50fe0)" style="fill: none; stroke-dasharray: 0.8,1.32; stroke-dashoffset: 0; stroke: #808080; stroke-width: 0.8"/>
     </g>
     <g id="line2d_52">
      <g>
       <use xlink:href="#m4c03258d0d" x="59.963906" y="102.368179" style="stroke: #000000; stroke-width: 0.6"/>
      </g>
     </g>
    </g>
    <g id="ytick_18">
     <g id="line2d_53">
      <path d="M 59.963906 96.152084 
L 493.2 96.152084 
" clip-path="url(#pc755b50fe0)" style="fill: none; stroke-dasharray: 0.8,1.32; stroke-dashoffset: 0; stroke: #808080; stroke-width: 0.8"/>
     </g>
     <g id="line2d_54">
      <g>
       <use xlink:href="#m4c03258d0d" x="59.963906" y="96.152084" style="stroke: #000000; stroke-width: 0.6"/>
      </g>
     </g>
    </g>
    <g id="ytick_19">
     <g id="line2d_55">
      <path d="M 59.963906 54.010191 
L 493.2 54.010191 
" clip-path="url(#pc755b50fe0)" style="fill: none; stroke-dasharray: 0.8,1.32; stroke-dashoffset: 0; stroke: #808080; stroke-width: 0.8"/>
     </g>
     <g id="line2d_56">
      <g>
       <use xlink:href="#m4c03258d0d" x="59.963906" y="54.010191" style="stroke: #000000; stroke-width: 0.6"/>
      </g>
     </g>
    </g>
    <g id="ytick_20">
     <g id="line2d_57">
      <path d="M 59.963906 32.61144 
L 493.2 32.61144 
" clip-path="url(#pc755b50fe0)" style="fill: none; stroke-dasharray: 0.8,1.32; stroke-dashoffset: 0; stroke: #808080; stroke-width: 0.8"/>
     </g>
     <g id="line2d_58">
      <g>
       <use xlink:href="#m4c03258d0d" x="59.963906" y="32.61144" style="stroke: #000000; stroke-width: 0.6"/>
      </g>
     </g>
    </g>
    <g id="text_13">
     <!-- $C_{b}\,$ [nF] -->
     <g transform="translate(25.348281 190.79) rotate(-90) scale(0.12 -0.12)">
      <defs>
       <path id="DejaVuSans-Oblique-43" d="M 4447 4306 
L 4319 3641 
Q 4019 3944 3683 4091 
Q 3347 4238 2956 4238 
Q 2422 4238 2017 3981 
Q 1613 3725 1319 3200 
Q 1131 2863 1032 2486 
Q 934 2109 934 1728 
Q 934 1091 1264 756 
Q 1594 422 2222 422 
Q 2656 422 3056 561 
Q 3456 700 3834 978 
L 3688 231 
Q 3316 72 2936 -9 
Q 2556 -91 2175 -91 
Q 1278 -91 773 396 
Q 269 884 269 1753 
Q 269 2309 461 2846 
Q 653 3384 1013 3828 
Q 1394 4300 1883 4525 
Q 2372 4750 3022 4750 
Q 3422 4750 3780 4639 
Q 4138 4528 4447 4306 
z
" transform="scale(0.015625)"/>
       <path id="DejaVuSans-Oblique-62" d="M 3169 2138 
Q 3169 2591 2961 2847 
Q 2753 3103 2388 3103 
Q 2122 3103 1889 2973 
Q 1656 2844 1484 2597 
Q 1303 2338 1198 1995 
Q 1094 1653 1094 1313 
Q 1094 881 1298 636 
Q 1503 391 1863 391 
Q 2134 391 2365 517 
Q 2597 644 2772 891 
Q 2950 1147 3059 1487 
Q 3169 1828 3169 2138 
z
M 1381 2969 
Q 1594 3256 1914 3420 
Q 2234 3584 2584 3584 
Q 3122 3584 3439 3221 
Q 3756 2859 3756 2241 
Q 3756 1734 3570 1259 
Q 3384 784 3041 416 
Q 2816 172 2522 40 
Q 2228 -91 1906 -91 
Q 1566 -91 1316 65 
Q 1066 222 909 531 
L 806 0 
L 231 0 
L 1178 4863 
L 1753 4863 
L 1381 2969 
z
" transform="scale(0.015625)"/>
       <path id="DejaVuSans-6e" d="M 3513 2113 
L 3513 0 
L 2938 0 
L 2938 2094 
Q 2938 2591 2744 2837 
Q 2550 3084 2163 3084 
Q 1697 3084 1428 2787 
Q 1159 2491 1159 1978 
L 1159 0 
L 581 0 
L 581 3500 
L 1159 3500 
L 1159 2956 
Q 1366 3272 1645 3428 
Q 1925 3584 2291 3584 
Q 2894 3584 3203 3211 
Q 3513 2838 3513 2113 
z
" transform="scale(0.015625)"/>
       <path id="DejaVuSans-46" d="M 628 4666 
L 3309 4666 
L 3309 4134 
L 1259 4134 
L 1259 2759 
L 3109 2759 
L 3109 2228 
L 1259 2228 
L 1259 0 
L 628 0 
L 628 4666 
z
" transform="scale(0.015625)"/>
      </defs>
      <use xlink:href="#DejaVuSans-Oblique-43" transform="translate(0 0.015625)"/>
      <use xlink:href="#DejaVuSans-Oblique-62" transform="translate(69.824219 -16.390625) scale(0.7)"/>
      <use xlink:href="#DejaVuSans-20" transform="translate(133.227864 0.015625)"/>
      <use xlink:href="#DejaVuSans-5b" transform="translate(165.014973 0.015625)"/>
      <use xlink:href="#DejaVuSans-6e" transform="translate(204.028645 0.015625)"/>
      <use xlink:href="#DejaVuSans-46" transform="translate(267.407551 0.015625)"/>
      <use xlink:href="#DejaVuSans-5d" transform="translate(324.927083 0.015625)"/>
     </g>
    </g>
   </g>
   <g id="line2d_59">
    <path d="M 79.656456 41.540909 
L 83.634749 45.721718 
L 87.613042 49.743219 
L 91.591335 53.617108 
L 95.569627 57.353839 
L 99.54792 60.962793 
L 103.526213 64.45242 
L 107.504506 67.830361 
L 111.482799 71.103542 
L 115.461092 74.278266 
L 119.439385 77.360284 
L 123.417678 80.354857 
L 127.39597 83.266811 
L 131.374263 86.100582 
L 135.352556 88.860259 
L 139.330849 91.549618 
L 143.309142 94.172153 
L 147.287435 96.731106 
L 151.265728 99.229486 
L 155.244021 101.670094 
L 159.222313 104.055543 
L 163.200606 106.388271 
L 167.178899 108.670557 
L 171.157192 110.904537 
L 175.135485 113.092214 
L 179.113778 115.235468 
L 183.092071 117.336067 
L 187.070364 119.395677 
L 191.048656 121.415865 
L 195.026949 123.398113 
L 199.005242 125.343821 
L 202.983535 127.254309 
L 206.961828 129.130832 
L 210.940121 130.974576 
L 214.918414 132.786665 
L 218.896706 134.568169 
L 222.874999 136.320104 
L 226.853292 138.043434 
L 230.831585 139.739079 
L 234.809878 141.407914 
L 238.788171 143.050774 
L 242.766464 144.668455 
L 246.744757 146.261718 
L 250.723049 147.831287 
L 254.701342 149.377859 
L 258.679635 150.902097 
L 262.657928 152.404636 
L 266.636221 153.886087 
L 270.614514 155.347032 
L 274.592807 156.788033 
L 278.5711 158.209625 
L 282.549392 159.612325 
L 286.527685 160.996628 
L 290.505978 162.363012 
L 294.484271 163.711932 
L 298.462564 165.043832 
L 302.440857 166.359134 
L 306.41915 167.658247 
L 310.397443 168.941565 
L 314.375735 170.209468 
L 318.354028 171.462321 
L 322.332321 172.700478 
L 326.310614 173.924278 
L 330.288907 175.134052 
L 334.2672 176.330117 
L 338.245493 177.512781 
L 342.223786 178.68234 
L 346.202078 179.839082 
L 350.180371 180.983284 
L 354.158664 182.115216 
L 358.136957 183.235138 
L 362.11525 184.343301 
L 366.093543 185.439951 
L 370.071836 186.525325 
L 374.050128 187.599651 
L 378.028421 188.663152 
L 382.006714 189.716045 
L 385.985007 190.758539 
L 389.9633 191.790837 
L 393.941593 192.813136 
L 397.919886 193.82563 
L 401.898179 194.828503 
L 405.876471 195.821938 
L 409.854764 196.806109 
L 413.833057 197.781189 
L 417.81135 198.747343 
L 421.789643 199.704734 
L 425.767936 200.653519 
L 429.746229 201.593851 
L 433.724522 202.525881 
L 437.702814 203.449752 
L 441.681107 204.365607 
L 445.6594 205.273584 
L 449.637693 206.173816 
L 453.615986 207.066436 
L 457.594279 207.95157 
L 461.572572 208.829343 
L 465.550865 209.699877 
L 469.529157 210.56329 
L 473.50745 211.419697 
" clip-path="url(#pc755b50fe0)" style="fill: none; stroke: #ff0000; stroke-width: 2; stroke-linecap: square"/>
   </g>
   <g id="line2d_60">
    <path d="M 79.656456 78.122315 
L 83.634749 82.303124 
L 87.613042 86.324625 
L 91.591335 90.198513 
L 95.569627 93.935244 
L 99.54792 97.544199 
L 103.526213 101.033826 
L 107.504506 104.411767 
L 111.482799 107.684947 
L 115.461092 110.859672 
L 119.439385 113.94169 
L 123.417678 116.936263 
L 127.39597 119.848217 
L 131.374263 122.681988 
L 135.352556 125.441665 
L 139.330849 128.131023 
L 143.309142 130.753559 
L 147.287435 133.312512 
L 151.265728 135.810892 
L 155.244021 138.2515 
L 159.222313 140.636949 
L 163.200606 142.969677 
L 167.178899 145.251963 
L 171.157192 147.485943 
L 175.135485 149.67362 
L 179.113778 151.816874 
L 183.092071 153.917473 
L 187.070364 155.977082 
L 191.048656 157.997271 
L 195.026949 159.979519 
L 199.005242 161.925226 
L 202.983535 163.835715 
L 206.961828 165.712238 
L 210.940121 167.555981 
L 214.918414 169.368071 
L 218.896706 171.149575 
L 222.874999 172.90151 
L 226.853292 174.62484 
L 230.831585 176.320485 
L 234.809878 177.98932 
L 238.788171 179.63218 
L 242.766464 181.249861 
L 246.744757 182.843123 
L 250.723049 184.412693 
L 254.701342 185.959265 
L 258.679635 187.483503 
L 262.657928 188.986042 
L 266.636221 190.467493 
L 270.614514 191.928438 
L 274.592807 193.369438 
L 278.5711 194.791031 
L 282.549392 196.193731 
L 286.527685 197.578034 
L 290.505978 198.944417 
L 294.484271 200.293338 
L 298.462564 201.625238 
L 302.440857 202.94054 
L 306.41915 204.239653 
L 310.397443 205.522971 
L 314.375735 206.790874 
L 318.354028 208.043727 
L 322.332321 209.281883 
L 326.310614 210.505684 
L 330.288907 211.715458 
L 334.2672 212.911523 
L 338.245493 214.094187 
L 342.223786 215.263746 
L 346.202078 216.420488 
L 350.180371 217.56469 
L 354.158664 218.696622 
L 358.136957 219.816543 
L 362.11525 220.924707 
L 366.093543 222.021357 
L 370.071836 223.106731 
L 374.050128 224.181057 
L 378.028421 225.244558 
L 382.006714 226.297451 
L 385.985007 227.339944 
L 389.9633 228.372242 
L 393.941593 229.394542 
L 397.919886 230.407036 
L 401.898179 231.409909 
L 405.876471 232.403343 
L 409.854764 233.387515 
L 413.833057 234.362594 
L 417.81135 235.328749 
L 421.789643 236.28614 
L 425.767936 237.234925 
L 429.746229 238.175257 
L 433.724522 239.107287 
L 437.702814 240.031158 
L 441.681107 240.947013 
L 445.6594 241.854989 
L 449.637693 242.755222 
L 453.615986 243.647841 
L 457.594279 244.532976 
L 461.572572 245.410749 
L 465.550865 246.281283 
L 469.529157 247.144695 
L 473.50745 248.001103 
" clip-path="url(#pc755b50fe0)" style="fill: none; stroke: #0000ff; stroke-width: 2; stroke-linecap: square"/>
   </g>
   <g id="line2d_61">
    <path d="M 79.656456 99.521066 
L 83.634749 103.701874 
L 87.613042 107.723375 
L 91.591335 111.597264 
L 95.569627 115.333995 
L 99.54792 118.942949 
L 103.526213 122.432577 
L 107.504506 125.810517 
L 111.482799 129.083698 
L 115.461092 132.258422 
L 119.439385 135.340441 
L 123.417678 138.335014 
L 127.39597 141.246968 
L 131.374263 144.080738 
L 135.352556 146.840415 
L 139.330849 149.529774 
L 143.309142 152.15231 
L 147.287435 154.711262 
L 151.265728 157.209642 
L 155.244021 159.650251 
L 159.222313 162.0357 
L 163.200606 164.368427 
L 167.178899 166.650714 
L 171.157192 168.884694 
L 175.135485 171.072371 
L 179.113778 173.215625 
L 183.092071 175.316224 
L 187.070364 177.375833 
L 191.048656 179.396021 
L 195.026949 181.37827 
L 199.005242 183.323977 
L 202.983535 185.234466 
L 206.961828 187.110989 
L 210.940121 188.954732 
L 214.918414 190.766822 
L 218.896706 192.548326 
L 222.874999 194.30026 
L 226.853292 196.02359 
L 230.831585 197.719235 
L 234.809878 199.388071 
L 238.788171 201.030931 
L 242.766464 202.648612 
L 246.744757 204.241874 
L 250.723049 205.811444 
L 254.701342 207.358015 
L 258.679635 208.882253 
L 262.657928 210.384793 
L 266.636221 211.866243 
L 270.614514 213.327189 
L 274.592807 214.768189 
L 278.5711 216.189781 
L 282.549392 217.592481 
L 286.527685 218.976785 
L 290.505978 220.343168 
L 294.484271 221.692089 
L 298.462564 223.023988 
L 302.440857 224.33929 
L 306.41915 225.638404 
L 310.397443 226.921722 
L 314.375735 228.189625 
L 318.354028 229.442478 
L 322.332321 230.680634 
L 326.310614 231.904435 
L 330.288907 233.114209 
L 334.2672 234.310274 
L 338.245493 235.492938 
L 342.223786 236.662497 
L 346.202078 237.819238 
L 350.180371 238.963441 
L 354.158664 240.095372 
L 358.136957 241.215294 
L 362.11525 242.323458 
L 366.093543 243.420108 
L 370.071836 244.505481 
L 374.050128 245.579807 
L 378.028421 246.643309 
L 382.006714 247.696201 
L 385.985007 248.738695 
L 389.9633 249.770993 
L 393.941593 250.793293 
L 397.919886 251.805786 
L 401.898179 252.80866 
L 405.876471 253.802094 
L 409.854764 254.786265 
L 413.833057 255.761345 
L 417.81135 256.727499 
L 421.789643 257.68489 
L 425.767936 258.633675 
L 429.746229 259.574008 
L 433.724522 260.506037 
L 437.702814 261.429909 
L 441.681107 262.345764 
L 445.6594 263.25374 
L 449.637693 264.153973 
L 453.615986 265.046592 
L 457.594279 265.931726 
L 461.572572 266.809499 
L 465.550865 267.680033 
L 469.529157 268.543446 
L 473.50745 269.399853 
" clip-path="url(#pc755b50fe0)" style="fill: none; stroke: #008000; stroke-width: 2; stroke-linecap: square"/>
   </g>
   <g id="line2d_62">
    <path d="M 79.656456 114.703721 
L 83.634749 118.88453 
L 87.613042 122.90603 
L 91.591335 126.779919 
L 95.569627 130.51665 
L 99.54792 134.125604 
L 103.526213 137.615232 
L 107.504506 140.993172 
L 111.482799 144.266353 
L 115.461092 147.441078 
L 119.439385 150.523096 
L 123.417678 153.517669 
L 127.39597 156.429623 
L 131.374263 159.263394 
L 135.352556 162.02307 
L 139.330849 164.712429 
L 143.309142 167.334965 
L 147.287435 169.893917 
L 151.265728 172.392297 
L 155.244021 174.832906 
L 159.222313 177.218355 
L 163.200606 179.551083 
L 167.178899 181.833369 
L 171.157192 184.067349 
L 175.135485 186.255026 
L 179.113778 188.39828 
L 183.092071 190.498879 
L 187.070364 192.558488 
L 191.048656 194.578677 
L 195.026949 196.560925 
L 199.005242 198.506632 
L 202.983535 200.417121 
L 206.961828 202.293644 
L 210.940121 204.137387 
L 214.918414 205.949477 
L 218.896706 207.730981 
L 222.874999 209.482916 
L 226.853292 211.206246 
L 230.831585 212.901891 
L 234.809878 214.570726 
L 238.788171 216.213586 
L 242.766464 217.831267 
L 246.744757 219.424529 
L 250.723049 220.994099 
L 254.701342 222.540671 
L 258.679635 224.064908 
L 262.657928 225.567448 
L 266.636221 227.048899 
L 270.614514 228.509844 
L 274.592807 229.950844 
L 278.5711 231.372436 
L 282.549392 232.775137 
L 286.527685 234.15944 
L 290.505978 235.525823 
L 294.484271 236.874744 
L 298.462564 238.206643 
L 302.440857 239.521946 
L 306.41915 240.821059 
L 310.397443 242.104377 
L 314.375735 243.37228 
L 318.354028 244.625133 
L 322.332321 245.863289 
L 326.310614 247.08709 
L 330.288907 248.296864 
L 334.2672 249.492929 
L 338.245493 250.675593 
L 342.223786 251.845152 
L 346.202078 253.001893 
L 350.180371 254.146096 
L 354.158664 255.278028 
L 358.136957 256.397949 
L 362.11525 257.506113 
L 366.093543 258.602763 
L 370.071836 259.688136 
L 374.050128 260.762462 
L 378.028421 261.825964 
L 382.006714 262.878857 
L 385.985007 263.92135 
L 389.9633 264.953648 
L 393.941593 265.975948 
L 397.919886 266.988441 
L 401.898179 267.991315 
L 405.876471 268.984749 
L 409.854764 269.968921 
L 413.833057 270.944 
L 417.81135 271.910155 
L 421.789643 272.867546 
L 425.767936 273.816331 
L 429.746229 274.756663 
L 433.724522 275.688692 
L 437.702814 276.612564 
L 441.681107 277.528419 
L 445.6594 278.436395 
L 449.637693 279.336628 
L 453.615986 280.229247 
L 457.594279 281.114381 
L 461.572572 281.992155 
L 465.550865 282.862688 
L 469.529157 283.726101 
L 473.50745 284.582509 
" clip-path="url(#pc755b50fe0)" style="fill: none; stroke: #00bfbf; stroke-width: 2; stroke-linecap: square"/>
   </g>
   <g id="line2d_63">
    <path d="M 79.656456 126.480303 
L 83.634749 130.661112 
L 87.613042 134.682613 
L 91.591335 138.556502 
L 95.569627 142.293233 
L 99.54792 145.902187 
L 103.526213 149.391814 
L 107.504506 152.769755 
L 111.482799 156.042936 
L 115.461092 159.21766 
L 119.439385 162.299678 
L 123.417678 165.294251 
L 127.39597 168.206205 
L 131.374263 171.039976 
L 135.352556 173.799653 
L 139.330849 176.489012 
L 143.309142 179.111547 
L 147.287435 181.6705 
L 151.265728 184.16888 
L 155.244021 186.609488 
L 159.222313 188.994937 
L 163.200606 191.327665 
L 167.178899 193.609951 
L 171.157192 195.843931 
L 175.135485 198.031608 
L 179.113778 200.174862 
L 183.092071 202.275461 
L 187.070364 204.33507 
L 191.048656 206.355259 
L 195.026949 208.337507 
L 199.005242 210.283215 
L 202.983535 212.193703 
L 206.961828 214.070226 
L 210.940121 215.91397 
L 214.918414 217.726059 
L 218.896706 219.507563 
L 222.874999 221.259498 
L 226.853292 222.982828 
L 230.831585 224.678473 
L 234.809878 226.347308 
L 238.788171 227.990168 
L 242.766464 229.607849 
L 246.744757 231.201111 
L 250.723049 232.770681 
L 254.701342 234.317253 
L 258.679635 235.841491 
L 262.657928 237.34403 
L 266.636221 238.825481 
L 270.614514 240.286426 
L 274.592807 241.727427 
L 278.5711 243.149019 
L 282.549392 244.551719 
L 286.527685 245.936022 
L 290.505978 247.302405 
L 294.484271 248.651326 
L 298.462564 249.983226 
L 302.440857 251.298528 
L 306.41915 252.597641 
L 310.397443 253.880959 
L 314.375735 255.148862 
L 318.354028 256.401715 
L 322.332321 257.639871 
L 326.310614 258.863672 
L 330.288907 260.073446 
L 334.2672 261.269511 
L 338.245493 262.452175 
L 342.223786 263.621734 
L 346.202078 264.778476 
L 350.180371 265.922678 
L 354.158664 267.05461 
L 358.136957 268.174531 
L 362.11525 269.282695 
L 366.093543 270.379345 
L 370.071836 271.464719 
L 374.050128 272.539045 
L 378.028421 273.602546 
L 382.006714 274.655439 
L 385.985007 275.697933 
L 389.9633 276.730231 
L 393.941593 277.75253 
L 397.919886 278.765024 
L 401.898179 279.767897 
L 405.876471 280.761331 
L 409.854764 281.745503 
L 413.833057 282.720583 
L 417.81135 283.686737 
L 421.789643 284.644128 
L 425.767936 285.592913 
L 429.746229 286.533245 
L 433.724522 287.465275 
L 437.702814 288.389146 
L 441.681107 289.305001 
L 445.6594 290.212978 
L 449.637693 291.11321 
L 453.615986 292.00583 
L 457.594279 292.890964 
L 461.572572 293.768737 
L 465.550865 294.639271 
L 469.529157 295.502684 
L 473.50745 296.359091 
" clip-path="url(#pc755b50fe0)" style="fill: none; stroke: #bf00bf; stroke-width: 2; stroke-linecap: square"/>
   </g>
   <g id="patch_3">
    <path d="M 59.963906 309.1 
L 59.963906 28.8 
" style="fill: none; stroke: #000000; stroke-width: 0.8; stroke-linejoin: miter; stroke-linecap: square"/>
   </g>
   <g id="patch_4">
    <path d="M 493.2 309.1 
L 493.2 28.8 
" style="fill: none; stroke: #000000; stroke-width: 0.8; stroke-linejoin: miter; stroke-linecap: square"/>
   </g>
   <g id="patch_5">
    <path d="M 59.963906 309.1 
L 493.2 309.1 
" style="fill: none; stroke: #000000; stroke-width: 0.8; stroke-linejoin: miter; stroke-linecap: square"/>
   </g>
   <g id="patch_6">
    <path d="M 59.963906 28.8 
L 493.2 28.8 
" style="fill: none; stroke: #000000; stroke-width: 0.8; stroke-linejoin: miter; stroke-linecap: square"/>
   </g>
   <g id="text_14">
    <!-- $C_b$ versus $f_s$ -->
    <g transform="translate(241.481953 22.8) scale(0.12 -0.12)">
     <defs>
      <path id="DejaVuSans-76" d="M 191 3500 
L 800 3500 
L 1894 563 
L 2988 3500 
L 3597 3500 
L 2284 0 
L 1503 0 
L 191 3500 
z
" transform="scale(0.015625)"/>
      <path id="DejaVuSans-65" d="M 3597 1894 
L 3597 1613 
L 953 1613 
Q 991 1019 1311 708 
Q 1631 397 2203 397 
Q 2534 397 2845 478 
Q 3156 559 3463 722 
L 3463 178 
Q 3153 47 2828 -22 
Q 2503 -91 2169 -91 
Q 1331 -91 842 396 
Q 353 884 353 1716 
Q 353 2575 817 3079 
Q 1281 3584 2069 3584 
Q 2775 3584 3186 3129 
Q 3597 2675 3597 1894 
z
M 3022 2063 
Q 3016 2534 2758 2815 
Q 2500 3097 2075 3097 
Q 1594 3097 1305 2825 
Q 1016 2553 972 2059 
L 3022 2063 
z
" transform="scale(0.015625)"/>
      <path id="DejaVuSans-72" d="M 2631 2963 
Q 2534 3019 2420 3045 
Q 2306 3072 2169 3072 
Q 1681 3072 1420 2755 
Q 1159 2438 1159 1844 
L 1159 0 
L 581 0 
L 581 3500 
L 1159 3500 
L 1159 2956 
Q 1341 3275 1631 3429 
Q 1922 3584 2338 3584 
Q 2397 3584 2469 3576 
Q 2541 3569 2628 3553 
L 2631 2963 
z
" transform="scale(0.015625)"/>
      <path id="DejaVuSans-73" d="M 2834 3397 
L 2834 2853 
Q 2591 2978 2328 3040 
Q 2066 3103 1784 3103 
Q 1356 3103 1142 2972 
Q 928 2841 928 2578 
Q 928 2378 1081 2264 
Q 1234 2150 1697 2047 
L 1894 2003 
Q 2506 1872 2764 1633 
Q 3022 1394 3022 966 
Q 3022 478 2636 193 
Q 2250 -91 1575 -91 
Q 1294 -91 989 -36 
Q 684 19 347 128 
L 347 722 
Q 666 556 975 473 
Q 1284 391 1588 391 
Q 1994 391 2212 530 
Q 2431 669 2431 922 
Q 2431 1156 2273 1281 
Q 2116 1406 1581 1522 
L 1381 1569 
Q 847 1681 609 1914 
Q 372 2147 372 2553 
Q 372 3047 722 3315 
Q 1072 3584 1716 3584 
Q 2034 3584 2315 3537 
Q 2597 3491 2834 3397 
z
" transform="scale(0.015625)"/>
      <path id="DejaVuSans-75" d="M 544 1381 
L 544 3500 
L 1119 3500 
L 1119 1403 
Q 1119 906 1312 657 
Q 1506 409 1894 409 
Q 2359 409 2629 706 
Q 2900 1003 2900 1516 
L 2900 3500 
L 3475 3500 
L 3475 0 
L 2900 0 
L 2900 538 
Q 2691 219 2414 64 
Q 2138 -91 1772 -91 
Q 1169 -91 856 284 
Q 544 659 544 1381 
z
M 1991 3584 
L 1991 3584 
z
" transform="scale(0.015625)"/>
     </defs>
     <use xlink:href="#DejaVuSans-Oblique-43" transform="translate(0 0.015625)"/>
     <use xlink:href="#DejaVuSans-Oblique-62" transform="translate(69.824219 -16.390625) scale(0.7)"/>
     <use xlink:href="#DejaVuSans-20" transform="translate(116.992188 0.015625)"/>
     <use xlink:href="#DejaVuSans-76" transform="translate(148.779297 0.015625)"/>
     <use xlink:href="#DejaVuSans-65" transform="translate(207.958984 0.015625)"/>
     <use xlink:href="#DejaVuSans-72" transform="translate(269.482422 0.015625)"/>
     <use xlink:href="#DejaVuSans-73" transform="translate(310.595703 0.015625)"/>
     <use xlink:href="#DejaVuSans-75" transform="translate(362.695312 0.015625)"/>
     <use xlink:href="#DejaVuSans-73" transform="translate(426.074219 0.015625)"/>
     <use xlink:href="#DejaVuSans-20" transform="translate(478.173828 0.015625)"/>
     <use xlink:href="#DejaVuSans-Oblique-66" transform="translate(509.960938 0.015625)"/>
     <use xlink:href="#DejaVuSans-Oblique-73" transform="translate(545.166016 -16.390625) scale(0.7)"/>
    </g>
   </g>
   <g id="legend_1">
    <g id="patch_7">
     <path d="M 377.12 95.86875 
L 486.2 95.86875 
Q 488.2 95.86875 488.2 93.86875 
L 488.2 35.8 
Q 488.2 33.8 486.2 33.8 
L 377.12 33.8 
Q 375.12 33.8 375.12 35.8 
L 375.12 93.86875 
Q 375.12 95.86875 377.12 95.86875 
z
" style="fill: #ffffff; opacity: 0.8; stroke: #cccccc; stroke-linejoin: miter"/>
    </g>
    <g id="line2d_64">
     <path d="M 377.12 41.418125 
L 382.12 41.418125 
L 387.12 41.418125 
" style="fill: none; stroke: #ff0000; stroke-width: 2; stroke-linecap: square"/>
    </g>
    <g id="text_15">
     <!-- $C_{b}: L$ =  1.0e-06 -->
     <g transform="translate(389.12 44.918125) scale(0.12 -0.12)">
      <defs>
       <path id="DejaVuSans-3a" d="M 750 794 
L 1409 794 
L 1409 0 
L 750 0 
L 750 794 
z
M 750 3309 
L 1409 3309 
L 1409 2516 
L 750 2516 
L 750 3309 
z
" transform="scale(0.015625)"/>
       <path id="DejaVuSans-Oblique-4c" d="M 1075 4666 
L 1709 4666 
L 909 525 
L 3181 525 
L 3078 0 
L 172 0 
L 1075 4666 
z
" transform="scale(0.015625)"/>
       <path id="DejaVuSans-3d" d="M 678 2906 
L 4684 2906 
L 4684 2381 
L 678 2381 
L 678 2906 
z
M 678 1631 
L 4684 1631 
L 4684 1100 
L 678 1100 
L 678 1631 
z
" transform="scale(0.015625)"/>
       <path id="DejaVuSans-2d" d="M 313 2009 
L 1997 2009 
L 1997 1497 
L 313 1497 
L 313 2009 
z
" transform="scale(0.015625)"/>
       <path id="DejaVuSans-36" d="M 2113 2584 
Q 1688 2584 1439 2293 
Q 1191 2003 1191 1497 
Q 1191 994 1439 701 
Q 1688 409 2113 409 
Q 2538 409 2786 701 
Q 3034 994 3034 1497 
Q 3034 2003 2786 2293 
Q 2538 2584 2113 2584 
z
M 3366 4563 
L 3366 3988 
Q 3128 4100 2886 4159 
Q 2644 4219 2406 4219 
Q 1781 4219 1451 3797 
Q 1122 3375 1075 2522 
Q 1259 2794 1537 2939 
Q 1816 3084 2150 3084 
Q 2853 3084 3261 2657 
Q 3669 2231 3669 1497 
Q 3669 778 3244 343 
Q 2819 -91 2113 -91 
Q 1303 -91 875 529 
Q 447 1150 447 2328 
Q 447 3434 972 4092 
Q 1497 4750 2381 4750 
Q 2619 4750 2861 4703 
Q 3103 4656 3366 4563 
z
" transform="scale(0.015625)"/>
      </defs>
      <use xlink:href="#DejaVuSans-Oblique-43" transform="translate(0 0.78125)"/>
      <use xlink:href="#DejaVuSans-Oblique-62" transform="translate(69.824219 -15.625) scale(0.7)"/>
      <use xlink:href="#DejaVuSans-3a" transform="translate(136.474609 0.78125)"/>
      <use xlink:href="#DejaVuSans-Oblique-4c" transform="translate(189.648438 0.78125)"/>
      <use xlink:href="#DejaVuSans-20" transform="translate(245.361328 0.78125)"/>
      <use xlink:href="#DejaVuSans-3d" transform="translate(277.148438 0.78125)"/>
      <use xlink:href="#DejaVuSans-20" transform="translate(360.9375 0.78125)"/>
      <use xlink:href="#DejaVuSans-20" transform="translate(392.724609 0.78125)"/>
      <use xlink:href="#DejaVuSans-31" transform="translate(424.511719 0.78125)"/>
      <use xlink:href="#DejaVuSans-2e" transform="translate(488.134766 0.78125)"/>
      <use xlink:href="#DejaVuSans-30" transform="translate(519.921875 0.78125)"/>
      <use xlink:href="#DejaVuSans-65" transform="translate(583.544922 0.78125)"/>
      <use xlink:href="#DejaVuSans-2d" transform="translate(645.068359 0.78125)"/>
      <use xlink:href="#DejaVuSans-30" transform="translate(681.152344 0.78125)"/>
      <use xlink:href="#DejaVuSans-36" transform="translate(744.775391 0.78125)"/>
     </g>
    </g>
    <g id="line2d_65">
     <path d="M 377.12 53.031875 
L 382.12 53.031875 
L 387.12 53.031875 
" style="fill: none; stroke: #0000ff; stroke-width: 2; stroke-linecap: square"/>
    </g>
    <g id="text_16">
     <!-- $C_{b}: L$ =  2.0e-06 -->
     <g transform="translate(389.12 56.531875) scale(0.12 -0.12)">
      <use xlink:href="#DejaVuSans-Oblique-43" transform="translate(0 0.78125)"/>
      <use xlink:href="#DejaVuSans-Oblique-62" transform="translate(69.824219 -15.625) scale(0.7)"/>
      <use xlink:href="#DejaVuSans-3a" transform="translate(136.474609 0.78125)"/>
      <use xlink:href="#DejaVuSans-Oblique-4c" transform="translate(189.648438 0.78125)"/>
      <use xlink:href="#DejaVuSans-20" transform="translate(245.361328 0.78125)"/>
      <use xlink:href="#DejaVuSans-3d" transform="translate(277.148438 0.78125)"/>
      <use xlink:href="#DejaVuSans-20" transform="translate(360.9375 0.78125)"/>
      <use xlink:href="#DejaVuSans-20" transform="translate(392.724609 0.78125)"/>
      <use xlink:href="#DejaVuSans-32" transform="translate(424.511719 0.78125)"/>
      <use xlink:href="#DejaVuSans-2e" transform="translate(488.134766 0.78125)"/>
      <use xlink:href="#DejaVuSans-30" transform="translate(519.921875 0.78125)"/>
      <use xlink:href="#DejaVuSans-65" transform="translate(583.544922 0.78125)"/>
      <use xlink:href="#DejaVuSans-2d" transform="translate(645.068359 0.78125)"/>
      <use xlink:href="#DejaVuSans-30" transform="translate(681.152344 0.78125)"/>
      <use xlink:href="#DejaVuSans-36" transform="translate(744.775391 0.78125)"/>
     </g>
    </g>
    <g id="line2d_66">
     <path d="M 377.12 64.645625 
L 382.12 64.645625 
L 387.12 64.645625 
" style="fill: none; stroke: #008000; stroke-width: 2; stroke-linecap: square"/>
    </g>
    <g id="text_17">
     <!-- $C_{b}: L$ =  3.0e-06 -->
     <g transform="translate(389.12 68.145625) scale(0.12 -0.12)">
      <use xlink:href="#DejaVuSans-Oblique-43" transform="translate(0 0.78125)"/>
      <use xlink:href="#DejaVuSans-Oblique-62" transform="translate(69.824219 -15.625) scale(0.7)"/>
      <use xlink:href="#DejaVuSans-3a" transform="translate(136.474609 0.78125)"/>
      <use xlink:href="#DejaVuSans-Oblique-4c" transform="translate(189.648438 0.78125)"/>
      <use xlink:href="#DejaVuSans-20" transform="translate(245.361328 0.78125)"/>
      <use xlink:href="#DejaVuSans-3d" transform="translate(277.148438 0.78125)"/>
      <use xlink:href="#DejaVuSans-20" transform="translate(360.9375 0.78125)"/>
      <use xlink:href="#DejaVuSans-20" transform="translate(392.724609 0.78125)"/>
      <use xlink:href="#DejaVuSans-33" transform="translate(424.511719 0.78125)"/>
      <use xlink:href="#DejaVuSans-2e" transform="translate(488.134766 0.78125)"/>
      <use xlink:href="#DejaVuSans-30" transform="translate(519.921875 0.78125)"/>
      <use xlink:href="#DejaVuSans-65" transform="translate(583.544922 0.78125)"/>
      <use xlink:href="#DejaVuSans-2d" transform="translate(645.068359 0.78125)"/>
      <use xlink:href="#DejaVuSans-30" transform="translate(681.152344 0.78125)"/>
      <use xlink:href="#DejaVuSans-36" transform="translate(744.775391 0.78125)"/>
     </g>
    </g>
    <g id="line2d_67">
     <path d="M 377.12 76.259375 
L 382.12 76.259375 
L 387.12 76.259375 
" style="fill: none; stroke: #00bfbf; stroke-width: 2; stroke-linecap: square"/>
    </g>
    <g id="text_18">
     <!-- $C_{b}: L$ =  4.0e-06 -->
     <g transform="translate(389.12 79.759375) scale(0.12 -0.12)">
      <use xlink:href="#DejaVuSans-Oblique-43" transform="translate(0 0.78125)"/>
      <use xlink:href="#DejaVuSans-Oblique-62" transform="translate(69.824219 -15.625) scale(0.7)"/>
      <use xlink:href="#DejaVuSans-3a" transform="translate(136.474609 0.78125)"/>
      <use xlink:href="#DejaVuSans-Oblique-4c" transform="translate(189.648438 0.78125)"/>
      <use xlink:href="#DejaVuSans-20" transform="translate(245.361328 0.78125)"/>
      <use xlink:href="#DejaVuSans-3d" transform="translate(277.148438 0.78125)"/>
      <use xlink:href="#DejaVuSans-20" transform="translate(360.9375 0.78125)"/>
      <use xlink:href="#DejaVuSans-20" transform="translate(392.724609 0.78125)"/>
      <use xlink:href="#DejaVuSans-34" transform="translate(424.511719 0.78125)"/>
      <use xlink:href="#DejaVuSans-2e" transform="translate(488.134766 0.78125)"/>
      <use xlink:href="#DejaVuSans-30" transform="translate(519.921875 0.78125)"/>
      <use xlink:href="#DejaVuSans-65" transform="translate(583.544922 0.78125)"/>
      <use xlink:href="#DejaVuSans-2d" transform="translate(645.068359 0.78125)"/>
      <use xlink:href="#DejaVuSans-30" transform="translate(681.152344 0.78125)"/>
      <use xlink:href="#DejaVuSans-36" transform="translate(744.775391 0.78125)"/>
     </g>
    </g>
    <g id="line2d_68">
     <path d="M 377.12 87.873125 
L 382.12 87.873125 
L 387.12 87.873125 
" style="fill: none; stroke: #bf00bf; stroke-width: 2; stroke-linecap: square"/>
    </g>
    <g id="text_19">
     <!-- $C_{b}: L$ =  5.0e-06 -->
     <g transform="translate(389.12 91.373125) scale(0.12 -0.12)">
      <use xlink:href="#DejaVuSans-Oblique-43" transform="translate(0 0.78125)"/>
      <use xlink:href="#DejaVuSans-Oblique-62" transform="translate(69.824219 -15.625) scale(0.7)"/>
      <use xlink:href="#DejaVuSans-3a" transform="translate(136.474609 0.78125)"/>
      <use xlink:href="#DejaVuSans-Oblique-4c" transform="translate(189.648438 0.78125)"/>
      <use xlink:href="#DejaVuSans-20" transform="translate(245.361328 0.78125)"/>
      <use xlink:href="#DejaVuSans-3d" transform="translate(277.148438 0.78125)"/>
      <use xlink:href="#DejaVuSans-20" transform="translate(360.9375 0.78125)"/>
      <use xlink:href="#DejaVuSans-20" transform="translate(392.724609 0.78125)"/>
      <use xlink:href="#DejaVuSans-35" transform="translate(424.511719 0.78125)"/>
      <use xlink:href="#DejaVuSans-2e" transform="translate(488.134766 0.78125)"/>
      <use xlink:href="#DejaVuSans-30" transform="translate(519.921875 0.78125)"/>
      <use xlink:href="#DejaVuSans-65" transform="translate(583.544922 0.78125)"/>
      <use xlink:href="#DejaVuSans-2d" transform="translate(645.068359 0.78125)"/>
      <use xlink:href="#DejaVuSans-30" transform="translate(681.152344 0.78125)"/>
      <use xlink:href="#DejaVuSans-36" transform="translate(744.775391 0.78125)"/>
     </g>
    </g>
   </g>
  </g>
 </g>
 <defs>
  <clipPath id="pc755b50fe0">
   <rect x="59.963906" y="28.8" width="433.236094" height="280.3"/>
  </clipPath>
 </defs>
</svg>
