<?xml version="1.0" encoding="utf-8" standalone="no"?>
<!DOCTYPE svg PUBLIC "-//W3C//DTD SVG 1.1//EN"
  "http://www.w3.org/Graphics/SVG/1.1/DTD/svg11.dtd">
<svg xmlns:xlink="http://www.w3.org/1999/xlink" width="504pt" height="360pt" viewBox="0 0 504 360" xmlns="http://www.w3.org/2000/svg" version="1.1">
 <metadata>
  <rdf:RDF xmlns:dc="http://purl.org/dc/elements/1.1/" xmlns:cc="http://creativecommons.org/ns#" xmlns:rdf="http://www.w3.org/1999/02/22-rdf-syntax-ns#">
   <cc:Work>
    <dc:type rdf:resource="http://purl.org/dc/dcmitype/StillImage"/>
    <dc:date>2025-09-06T12:39:42.633526</dc:date>
    <dc:format>image/svg+xml</dc:format>
    <dc:creator>
     <cc:Agent>
      <dc:title>Matplotlib v3.9.2, https://matplotlib.org/</dc:title>
     </cc:Agent>
    </dc:creator>
   </cc:Work>
  </rdf:RDF>
 </metadata>
 <defs>
  <style type="text/css">*{stroke-linejoin: round; stroke-linecap: butt}</style>
 </defs>
 <g id="figure_1">
  <g id="patch_1">
   <path d="M 0 360 
L 504 360 
L 504 0 
L 0 0 
z
" style="fill: #ffffff"/>
  </g>
  <g id="axes_1">
   <g id="patch_2">
    <path d="M 60.05 308.6 
L 493.2 308.6 
L 493.2 26.8 
L 60.05 26.8 
z
" style="fill: #ffffff"/>
   </g>
   <g id="matplotlib.axis_1">
    <g id="xtick_1">
     <g id="line2d_1">
      <path d="M 79.738636 308.6 
L 79.738636 26.8 
" clip-path="url(#pc17db7474e)" style="fill: none; stroke: #808080; stroke-width: 0.8; stroke-linecap: square"/>
     </g>
     <g id="line2d_2">
      <defs>
       <path id="mb66a3d33cc" d="M 0 0 
L 0 3.5 
" style="stroke: #000000; stroke-width: 0.8"/>
      </defs>
      <g>
       <use xlink:href="#mb66a3d33cc" x="79.738636" y="308.6" style="stroke: #000000; stroke-width: 0.8"/>
      </g>
     </g>
     <g id="text_1">
      <!-- $\mathdefault{10^{-2}}$ -->
      <g transform="translate(65.638636 324.718125) scale(0.12 -0.12)">
       <defs>
        <path id="DejaVuSans-31" d="M 794 531 
L 1825 531 
L 1825 4091 
L 703 3866 
L 703 4441 
L 1819 4666 
L 2450 4666 
L 2450 531 
L 3481 531 
L 3481 0 
L 794 0 
L 794 531 
z
" transform="scale(0.015625)"/>
        <path id="DejaVuSans-30" d="M 2034 4250 
Q 1547 4250 1301 3770 
Q 1056 3291 1056 2328 
Q 1056 1369 1301 889 
Q 1547 409 2034 409 
Q 2525 409 2770 889 
Q 3016 1369 3016 2328 
Q 3016 3291 2770 3770 
Q 2525 4250 2034 4250 
z
M 2034 4750 
Q 2819 4750 3233 4129 
Q 3647 3509 3647 2328 
Q 3647 1150 3233 529 
Q 2819 -91 2034 -91 
Q 1250 -91 836 529 
Q 422 1150 422 2328 
Q 422 3509 836 4129 
Q 1250 4750 2034 4750 
z
" transform="scale(0.015625)"/>
        <path id="DejaVuSans-2212" d="M 678 2272 
L 4684 2272 
L 4684 1741 
L 678 1741 
L 678 2272 
z
" transform="scale(0.015625)"/>
        <path id="DejaVuSans-32" d="M 1228 531 
L 3431 531 
L 3431 0 
L 469 0 
L 469 531 
Q 828 903 1448 1529 
Q 2069 2156 2228 2338 
Q 2531 2678 2651 2914 
Q 2772 3150 2772 3378 
Q 2772 3750 2511 3984 
Q 2250 4219 1831 4219 
Q 1534 4219 1204 4116 
Q 875 4013 500 3803 
L 500 4441 
Q 881 4594 1212 4672 
Q 1544 4750 1819 4750 
Q 2544 4750 2975 4387 
Q 3406 4025 3406 3419 
Q 3406 3131 3298 2873 
Q 3191 2616 2906 2266 
Q 2828 2175 2409 1742 
Q 1991 1309 1228 531 
z
" transform="scale(0.015625)"/>
       </defs>
       <use xlink:href="#DejaVuSans-31" transform="translate(0 0.765625)"/>
       <use xlink:href="#DejaVuSans-30" transform="translate(63.623047 0.765625)"/>
       <use xlink:href="#DejaVuSans-2212" transform="translate(128.203125 39.046875) scale(0.7)"/>
       <use xlink:href="#DejaVuSans-32" transform="translate(186.855469 39.046875) scale(0.7)"/>
      </g>
     </g>
    </g>
    <g id="xtick_2">
     <g id="line2d_3">
      <path d="M 178.181818 308.6 
L 178.181818 26.8 
" clip-path="url(#pc17db7474e)" style="fill: none; stroke: #808080; stroke-width: 0.8; stroke-linecap: square"/>
     </g>
     <g id="line2d_4">
      <g>
       <use xlink:href="#mb66a3d33cc" x="178.181818" y="308.6" style="stroke: #000000; stroke-width: 0.8"/>
      </g>
     </g>
     <g id="text_2">
      <!-- $\mathdefault{10^{-1}}$ -->
      <g transform="translate(164.081818 324.718125) scale(0.12 -0.12)">
       <use xlink:href="#DejaVuSans-31" transform="translate(0 0.684375)"/>
       <use xlink:href="#DejaVuSans-30" transform="translate(63.623047 0.684375)"/>
       <use xlink:href="#DejaVuSans-2212" transform="translate(128.203125 38.965625) scale(0.7)"/>
       <use xlink:href="#DejaVuSans-31" transform="translate(186.855469 38.965625) scale(0.7)"/>
      </g>
     </g>
    </g>
    <g id="xtick_3">
     <g id="line2d_5">
      <path d="M 276.625 308.6 
L 276.625 26.8 
" clip-path="url(#pc17db7474e)" style="fill: none; stroke: #808080; stroke-width: 0.8; stroke-linecap: square"/>
     </g>
     <g id="line2d_6">
      <g>
       <use xlink:href="#mb66a3d33cc" x="276.625" y="308.6" style="stroke: #000000; stroke-width: 0.8"/>
      </g>
     </g>
     <g id="text_3">
      <!-- $\mathdefault{10^{0}}$ -->
      <g transform="translate(266.065 324.718125) scale(0.12 -0.12)">
       <use xlink:href="#DejaVuSans-31" transform="translate(0 0.765625)"/>
       <use xlink:href="#DejaVuSans-30" transform="translate(63.623047 0.765625)"/>
       <use xlink:href="#DejaVuSans-30" transform="translate(128.203125 39.046875) scale(0.7)"/>
      </g>
     </g>
    </g>
    <g id="xtick_4">
     <g id="line2d_7">
      <path d="M 375.068182 308.6 
L 375.068182 26.8 
" clip-path="url(#pc17db7474e)" style="fill: none; stroke: #808080; stroke-width: 0.8; stroke-linecap: square"/>
     </g>
     <g id="line2d_8">
      <g>
       <use xlink:href="#mb66a3d33cc" x="375.068182" y="308.6" style="stroke: #000000; stroke-width: 0.8"/>
      </g>
     </g>
     <g id="text_4">
      <!-- $\mathdefault{10^{1}}$ -->
      <g transform="translate(364.508182 324.718125) scale(0.12 -0.12)">
       <use xlink:href="#DejaVuSans-31" transform="translate(0 0.684375)"/>
       <use xlink:href="#DejaVuSans-30" transform="translate(63.623047 0.684375)"/>
       <use xlink:href="#DejaVuSans-31" transform="translate(128.203125 38.965625) scale(0.7)"/>
      </g>
     </g>
    </g>
    <g id="xtick_5">
     <g id="line2d_9">
      <path d="M 473.511364 308.6 
L 473.511364 26.8 
" clip-path="url(#pc17db7474e)" style="fill: none; stroke: #808080; stroke-width: 0.8; stroke-linecap: square"/>
     </g>
     <g id="line2d_10">
      <g>
       <use xlink:href="#mb66a3d33cc" x="473.511364" y="308.6" style="stroke: #000000; stroke-width: 0.8"/>
      </g>
     </g>
     <g id="text_5">
      <!-- $\mathdefault{10^{2}}$ -->
      <g transform="translate(462.951364 324.718125) scale(0.12 -0.12)">
       <use xlink:href="#DejaVuSans-31" transform="translate(0 0.765625)"/>
       <use xlink:href="#DejaVuSans-30" transform="translate(63.623047 0.765625)"/>
       <use xlink:href="#DejaVuSans-32" transform="translate(128.203125 39.046875) scale(0.7)"/>
      </g>
     </g>
    </g>
    <g id="xtick_6">
     <g id="line2d_11">
      <path d="M 64.489595 308.6 
L 64.489595 26.8 
" clip-path="url(#pc17db7474e)" style="fill: none; stroke-dasharray: 0.8,1.32; stroke-dashoffset: 0; stroke: #808080; stroke-width: 0.8"/>
     </g>
     <g id="line2d_12">
      <defs>
       <path id="m5b643c4c67" d="M 0 0 
L 0 2 
" style="stroke: #000000; stroke-width: 0.6"/>
      </defs>
      <g>
       <use xlink:href="#m5b643c4c67" x="64.489595" y="308.6" style="stroke: #000000; stroke-width: 0.6"/>
      </g>
     </g>
    </g>
    <g id="xtick_7">
     <g id="line2d_13">
      <path d="M 70.198506 308.6 
L 70.198506 26.8 
" clip-path="url(#pc17db7474e)" style="fill: none; stroke-dasharray: 0.8,1.32; stroke-dashoffset: 0; stroke: #808080; stroke-width: 0.8"/>
     </g>
     <g id="line2d_14">
      <g>
       <use xlink:href="#m5b643c4c67" x="70.198506" y="308.6" style="stroke: #000000; stroke-width: 0.6"/>
      </g>
     </g>
    </g>
    <g id="xtick_8">
     <g id="line2d_15">
      <path d="M 75.234123 308.6 
L 75.234123 26.8 
" clip-path="url(#pc17db7474e)" style="fill: none; stroke-dasharray: 0.8,1.32; stroke-dashoffset: 0; stroke: #808080; stroke-width: 0.8"/>
     </g>
     <g id="line2d_16">
      <g>
       <use xlink:href="#m5b643c4c67" x="75.234123" y="308.6" style="stroke: #000000; stroke-width: 0.6"/>
      </g>
     </g>
    </g>
    <g id="xtick_9">
     <g id="line2d_17">
      <path d="M 109.372987 308.6 
L 109.372987 26.8 
" clip-path="url(#pc17db7474e)" style="fill: none; stroke-dasharray: 0.8,1.32; stroke-dashoffset: 0; stroke: #808080; stroke-width: 0.8"/>
     </g>
     <g id="line2d_18">
      <g>
       <use xlink:href="#m5b643c4c67" x="109.372987" y="308.6" style="stroke: #000000; stroke-width: 0.6"/>
      </g>
     </g>
    </g>
    <g id="xtick_10">
     <g id="line2d_19">
      <path d="M 126.707971 308.6 
L 126.707971 26.8 
" clip-path="url(#pc17db7474e)" style="fill: none; stroke-dasharray: 0.8,1.32; stroke-dashoffset: 0; stroke: #808080; stroke-width: 0.8"/>
     </g>
     <g id="line2d_20">
      <g>
       <use xlink:href="#m5b643c4c67" x="126.707971" y="308.6" style="stroke: #000000; stroke-width: 0.6"/>
      </g>
     </g>
    </g>
    <g id="xtick_11">
     <g id="line2d_21">
      <path d="M 139.007338 308.6 
L 139.007338 26.8 
" clip-path="url(#pc17db7474e)" style="fill: none; stroke-dasharray: 0.8,1.32; stroke-dashoffset: 0; stroke: #808080; stroke-width: 0.8"/>
     </g>
     <g id="line2d_22">
      <g>
       <use xlink:href="#m5b643c4c67" x="139.007338" y="308.6" style="stroke: #000000; stroke-width: 0.6"/>
      </g>
     </g>
    </g>
    <g id="xtick_12">
     <g id="line2d_23">
      <path d="M 148.547468 308.6 
L 148.547468 26.8 
" clip-path="url(#pc17db7474e)" style="fill: none; stroke-dasharray: 0.8,1.32; stroke-dashoffset: 0; stroke: #808080; stroke-width: 0.8"/>
     </g>
     <g id="line2d_24">
      <g>
       <use xlink:href="#m5b643c4c67" x="148.547468" y="308.6" style="stroke: #000000; stroke-width: 0.6"/>
      </g>
     </g>
    </g>
    <g id="xtick_13">
     <g id="line2d_25">
      <path d="M 156.342321 308.6 
L 156.342321 26.8 
" clip-path="url(#pc17db7474e)" style="fill: none; stroke-dasharray: 0.8,1.32; stroke-dashoffset: 0; stroke: #808080; stroke-width: 0.8"/>
     </g>
     <g id="line2d_26">
      <g>
       <use xlink:href="#m5b643c4c67" x="156.342321" y="308.6" style="stroke: #000000; stroke-width: 0.6"/>
      </g>
     </g>
    </g>
    <g id="xtick_14">
     <g id="line2d_27">
      <path d="M 162.932776 308.6 
L 162.932776 26.8 
" clip-path="url(#pc17db7474e)" style="fill: none; stroke-dasharray: 0.8,1.32; stroke-dashoffset: 0; stroke: #808080; stroke-width: 0.8"/>
     </g>
     <g id="line2d_28">
      <g>
       <use xlink:href="#m5b643c4c67" x="162.932776" y="308.6" style="stroke: #000000; stroke-width: 0.6"/>
      </g>
     </g>
    </g>
    <g id="xtick_15">
     <g id="line2d_29">
      <path d="M 168.641688 308.6 
L 168.641688 26.8 
" clip-path="url(#pc17db7474e)" style="fill: none; stroke-dasharray: 0.8,1.32; stroke-dashoffset: 0; stroke: #808080; stroke-width: 0.8"/>
     </g>
     <g id="line2d_30">
      <g>
       <use xlink:href="#m5b643c4c67" x="168.641688" y="308.6" style="stroke: #000000; stroke-width: 0.6"/>
      </g>
     </g>
    </g>
    <g id="xtick_16">
     <g id="line2d_31">
      <path d="M 173.677305 308.6 
L 173.677305 26.8 
" clip-path="url(#pc17db7474e)" style="fill: none; stroke-dasharray: 0.8,1.32; stroke-dashoffset: 0; stroke: #808080; stroke-width: 0.8"/>
     </g>
     <g id="line2d_32">
      <g>
       <use xlink:href="#m5b643c4c67" x="173.677305" y="308.6" style="stroke: #000000; stroke-width: 0.6"/>
      </g>
     </g>
    </g>
    <g id="xtick_17">
     <g id="line2d_33">
      <path d="M 207.816169 308.6 
L 207.816169 26.8 
" clip-path="url(#pc17db7474e)" style="fill: none; stroke-dasharray: 0.8,1.32; stroke-dashoffset: 0; stroke: #808080; stroke-width: 0.8"/>
     </g>
     <g id="line2d_34">
      <g>
       <use xlink:href="#m5b643c4c67" x="207.816169" y="308.6" style="stroke: #000000; stroke-width: 0.6"/>
      </g>
     </g>
    </g>
    <g id="xtick_18">
     <g id="line2d_35">
      <path d="M 225.151153 308.6 
L 225.151153 26.8 
" clip-path="url(#pc17db7474e)" style="fill: none; stroke-dasharray: 0.8,1.32; stroke-dashoffset: 0; stroke: #808080; stroke-width: 0.8"/>
     </g>
     <g id="line2d_36">
      <g>
       <use xlink:href="#m5b643c4c67" x="225.151153" y="308.6" style="stroke: #000000; stroke-width: 0.6"/>
      </g>
     </g>
    </g>
    <g id="xtick_19">
     <g id="line2d_37">
      <path d="M 237.450519 308.6 
L 237.450519 26.8 
" clip-path="url(#pc17db7474e)" style="fill: none; stroke-dasharray: 0.8,1.32; stroke-dashoffset: 0; stroke: #808080; stroke-width: 0.8"/>
     </g>
     <g id="line2d_38">
      <g>
       <use xlink:href="#m5b643c4c67" x="237.450519" y="308.6" style="stroke: #000000; stroke-width: 0.6"/>
      </g>
     </g>
    </g>
    <g id="xtick_20">
     <g id="line2d_39">
      <path d="M 246.990649 308.6 
L 246.990649 26.8 
" clip-path="url(#pc17db7474e)" style="fill: none; stroke-dasharray: 0.8,1.32; stroke-dashoffset: 0; stroke: #808080; stroke-width: 0.8"/>
     </g>
     <g id="line2d_40">
      <g>
       <use xlink:href="#m5b643c4c67" x="246.990649" y="308.6" style="stroke: #000000; stroke-width: 0.6"/>
      </g>
     </g>
    </g>
    <g id="xtick_21">
     <g id="line2d_41">
      <path d="M 254.785503 308.6 
L 254.785503 26.8 
" clip-path="url(#pc17db7474e)" style="fill: none; stroke-dasharray: 0.8,1.32; stroke-dashoffset: 0; stroke: #808080; stroke-width: 0.8"/>
     </g>
     <g id="line2d_42">
      <g>
       <use xlink:href="#m5b643c4c67" x="254.785503" y="308.6" style="stroke: #000000; stroke-width: 0.6"/>
      </g>
     </g>
    </g>
    <g id="xtick_22">
     <g id="line2d_43">
      <path d="M 261.375958 308.6 
L 261.375958 26.8 
" clip-path="url(#pc17db7474e)" style="fill: none; stroke-dasharray: 0.8,1.32; stroke-dashoffset: 0; stroke: #808080; stroke-width: 0.8"/>
     </g>
     <g id="line2d_44">
      <g>
       <use xlink:href="#m5b643c4c67" x="261.375958" y="308.6" style="stroke: #000000; stroke-width: 0.6"/>
      </g>
     </g>
    </g>
    <g id="xtick_23">
     <g id="line2d_45">
      <path d="M 267.08487 308.6 
L 267.08487 26.8 
" clip-path="url(#pc17db7474e)" style="fill: none; stroke-dasharray: 0.8,1.32; stroke-dashoffset: 0; stroke: #808080; stroke-width: 0.8"/>
     </g>
     <g id="line2d_46">
      <g>
       <use xlink:href="#m5b643c4c67" x="267.08487" y="308.6" style="stroke: #000000; stroke-width: 0.6"/>
      </g>
     </g>
    </g>
    <g id="xtick_24">
     <g id="line2d_47">
      <path d="M 272.120487 308.6 
L 272.120487 26.8 
" clip-path="url(#pc17db7474e)" style="fill: none; stroke-dasharray: 0.8,1.32; stroke-dashoffset: 0; stroke: #808080; stroke-width: 0.8"/>
     </g>
     <g id="line2d_48">
      <g>
       <use xlink:href="#m5b643c4c67" x="272.120487" y="308.6" style="stroke: #000000; stroke-width: 0.6"/>
      </g>
     </g>
    </g>
    <g id="xtick_25">
     <g id="line2d_49">
      <path d="M 306.259351 308.6 
L 306.259351 26.8 
" clip-path="url(#pc17db7474e)" style="fill: none; stroke-dasharray: 0.8,1.32; stroke-dashoffset: 0; stroke: #808080; stroke-width: 0.8"/>
     </g>
     <g id="line2d_50">
      <g>
       <use xlink:href="#m5b643c4c67" x="306.259351" y="308.6" style="stroke: #000000; stroke-width: 0.6"/>
      </g>
     </g>
    </g>
    <g id="xtick_26">
     <g id="line2d_51">
      <path d="M 323.594334 308.6 
L 323.594334 26.8 
" clip-path="url(#pc17db7474e)" style="fill: none; stroke-dasharray: 0.8,1.32; stroke-dashoffset: 0; stroke: #808080; stroke-width: 0.8"/>
     </g>
     <g id="line2d_52">
      <g>
       <use xlink:href="#m5b643c4c67" x="323.594334" y="308.6" style="stroke: #000000; stroke-width: 0.6"/>
      </g>
     </g>
    </g>
    <g id="xtick_27">
     <g id="line2d_53">
      <path d="M 335.893701 308.6 
L 335.893701 26.8 
" clip-path="url(#pc17db7474e)" style="fill: none; stroke-dasharray: 0.8,1.32; stroke-dashoffset: 0; stroke: #808080; stroke-width: 0.8"/>
     </g>
     <g id="line2d_54">
      <g>
       <use xlink:href="#m5b643c4c67" x="335.893701" y="308.6" style="stroke: #000000; stroke-width: 0.6"/>
      </g>
     </g>
    </g>
    <g id="xtick_28">
     <g id="line2d_55">
      <path d="M 345.433831 308.6 
L 345.433831 26.8 
" clip-path="url(#pc17db7474e)" style="fill: none; stroke-dasharray: 0.8,1.32; stroke-dashoffset: 0; stroke: #808080; stroke-width: 0.8"/>
     </g>
     <g id="line2d_56">
      <g>
       <use xlink:href="#m5b643c4c67" x="345.433831" y="308.6" style="stroke: #000000; stroke-width: 0.6"/>
      </g>
     </g>
    </g>
    <g id="xtick_29">
     <g id="line2d_57">
      <path d="M 353.228685 308.6 
L 353.228685 26.8 
" clip-path="url(#pc17db7474e)" style="fill: none; stroke-dasharray: 0.8,1.32; stroke-dashoffset: 0; stroke: #808080; stroke-width: 0.8"/>
     </g>
     <g id="line2d_58">
      <g>
       <use xlink:href="#m5b643c4c67" x="353.228685" y="308.6" style="stroke: #000000; stroke-width: 0.6"/>
      </g>
     </g>
    </g>
    <g id="xtick_30">
     <g id="line2d_59">
      <path d="M 359.81914 308.6 
L 359.81914 26.8 
" clip-path="url(#pc17db7474e)" style="fill: none; stroke-dasharray: 0.8,1.32; stroke-dashoffset: 0; stroke: #808080; stroke-width: 0.8"/>
     </g>
     <g id="line2d_60">
      <g>
       <use xlink:href="#m5b643c4c67" x="359.81914" y="308.6" style="stroke: #000000; stroke-width: 0.6"/>
      </g>
     </g>
    </g>
    <g id="xtick_31">
     <g id="line2d_61">
      <path d="M 365.528052 308.6 
L 365.528052 26.8 
" clip-path="url(#pc17db7474e)" style="fill: none; stroke-dasharray: 0.8,1.32; stroke-dashoffset: 0; stroke: #808080; stroke-width: 0.8"/>
     </g>
     <g id="line2d_62">
      <g>
       <use xlink:href="#m5b643c4c67" x="365.528052" y="308.6" style="stroke: #000000; stroke-width: 0.6"/>
      </g>
     </g>
    </g>
    <g id="xtick_32">
     <g id="line2d_63">
      <path d="M 370.563669 308.6 
L 370.563669 26.8 
" clip-path="url(#pc17db7474e)" style="fill: none; stroke-dasharray: 0.8,1.32; stroke-dashoffset: 0; stroke: #808080; stroke-width: 0.8"/>
     </g>
     <g id="line2d_64">
      <g>
       <use xlink:href="#m5b643c4c67" x="370.563669" y="308.6" style="stroke: #000000; stroke-width: 0.6"/>
      </g>
     </g>
    </g>
    <g id="xtick_33">
     <g id="line2d_65">
      <path d="M 404.702532 308.6 
L 404.702532 26.8 
" clip-path="url(#pc17db7474e)" style="fill: none; stroke-dasharray: 0.8,1.32; stroke-dashoffset: 0; stroke: #808080; stroke-width: 0.8"/>
     </g>
     <g id="line2d_66">
      <g>
       <use xlink:href="#m5b643c4c67" x="404.702532" y="308.6" style="stroke: #000000; stroke-width: 0.6"/>
      </g>
     </g>
    </g>
    <g id="xtick_34">
     <g id="line2d_67">
      <path d="M 422.037516 308.6 
L 422.037516 26.8 
" clip-path="url(#pc17db7474e)" style="fill: none; stroke-dasharray: 0.8,1.32; stroke-dashoffset: 0; stroke: #808080; stroke-width: 0.8"/>
     </g>
     <g id="line2d_68">
      <g>
       <use xlink:href="#m5b643c4c67" x="422.037516" y="308.6" style="stroke: #000000; stroke-width: 0.6"/>
      </g>
     </g>
    </g>
    <g id="xtick_35">
     <g id="line2d_69">
      <path d="M 434.336883 308.6 
L 434.336883 26.8 
" clip-path="url(#pc17db7474e)" style="fill: none; stroke-dasharray: 0.8,1.32; stroke-dashoffset: 0; stroke: #808080; stroke-width: 0.8"/>
     </g>
     <g id="line2d_70">
      <g>
       <use xlink:href="#m5b643c4c67" x="434.336883" y="308.6" style="stroke: #000000; stroke-width: 0.6"/>
      </g>
     </g>
    </g>
    <g id="xtick_36">
     <g id="line2d_71">
      <path d="M 443.877013 308.6 
L 443.877013 26.8 
" clip-path="url(#pc17db7474e)" style="fill: none; stroke-dasharray: 0.8,1.32; stroke-dashoffset: 0; stroke: #808080; stroke-width: 0.8"/>
     </g>
     <g id="line2d_72">
      <g>
       <use xlink:href="#m5b643c4c67" x="443.877013" y="308.6" style="stroke: #000000; stroke-width: 0.6"/>
      </g>
     </g>
    </g>
    <g id="xtick_37">
     <g id="line2d_73">
      <path d="M 451.671867 308.6 
L 451.671867 26.8 
" clip-path="url(#pc17db7474e)" style="fill: none; stroke-dasharray: 0.8,1.32; stroke-dashoffset: 0; stroke: #808080; stroke-width: 0.8"/>
     </g>
     <g id="line2d_74">
      <g>
       <use xlink:href="#m5b643c4c67" x="451.671867" y="308.6" style="stroke: #000000; stroke-width: 0.6"/>
      </g>
     </g>
    </g>
    <g id="xtick_38">
     <g id="line2d_75">
      <path d="M 458.262322 308.6 
L 458.262322 26.8 
" clip-path="url(#pc17db7474e)" style="fill: none; stroke-dasharray: 0.8,1.32; stroke-dashoffset: 0; stroke: #808080; stroke-width: 0.8"/>
     </g>
     <g id="line2d_76">
      <g>
       <use xlink:href="#m5b643c4c67" x="458.262322" y="308.6" style="stroke: #000000; stroke-width: 0.6"/>
      </g>
     </g>
    </g>
    <g id="xtick_39">
     <g id="line2d_77">
      <path d="M 463.971234 308.6 
L 463.971234 26.8 
" clip-path="url(#pc17db7474e)" style="fill: none; stroke-dasharray: 0.8,1.32; stroke-dashoffset: 0; stroke: #808080; stroke-width: 0.8"/>
     </g>
     <g id="line2d_78">
      <g>
       <use xlink:href="#m5b643c4c67" x="463.971234" y="308.6" style="stroke: #000000; stroke-width: 0.6"/>
      </g>
     </g>
    </g>
    <g id="xtick_40">
     <g id="line2d_79">
      <path d="M 469.006851 308.6 
L 469.006851 26.8 
" clip-path="url(#pc17db7474e)" style="fill: none; stroke-dasharray: 0.8,1.32; stroke-dashoffset: 0; stroke: #808080; stroke-width: 0.8"/>
     </g>
     <g id="line2d_80">
      <g>
       <use xlink:href="#m5b643c4c67" x="469.006851" y="308.6" style="stroke: #000000; stroke-width: 0.6"/>
      </g>
     </g>
    </g>
    <g id="text_6">
     <!-- frequency [MHz] -->
     <g transform="translate(227.10625 340.331875) scale(0.12 -0.12)">
      <defs>
       <path id="DejaVuSans-66" d="M 2375 4863 
L 2375 4384 
L 1825 4384 
Q 1516 4384 1395 4259 
Q 1275 4134 1275 3809 
L 1275 3500 
L 2222 3500 
L 2222 3053 
L 1275 3053 
L 1275 0 
L 697 0 
L 697 3053 
L 147 3053 
L 147 3500 
L 697 3500 
L 697 3744 
Q 697 4328 969 4595 
Q 1241 4863 1831 4863 
L 2375 4863 
z
" transform="scale(0.015625)"/>
       <path id="DejaVuSans-72" d="M 2631 2963 
Q 2534 3019 2420 3045 
Q 2306 3072 2169 3072 
Q 1681 3072 1420 2755 
Q 1159 2438 1159 1844 
L 1159 0 
L 581 0 
L 581 3500 
L 1159 3500 
L 1159 2956 
Q 1341 3275 1631 3429 
Q 1922 3584 2338 3584 
Q 2397 3584 2469 3576 
Q 2541 3569 2628 3553 
L 2631 2963 
z
" transform="scale(0.015625)"/>
       <path id="DejaVuSans-65" d="M 3597 1894 
L 3597 1613 
L 953 1613 
Q 991 1019 1311 708 
Q 1631 397 2203 397 
Q 2534 397 2845 478 
Q 3156 559 3463 722 
L 3463 178 
Q 3153 47 2828 -22 
Q 2503 -91 2169 -91 
Q 1331 -91 842 396 
Q 353 884 353 1716 
Q 353 2575 817 3079 
Q 1281 3584 2069 3584 
Q 2775 3584 3186 3129 
Q 3597 2675 3597 1894 
z
M 3022 2063 
Q 3016 2534 2758 2815 
Q 2500 3097 2075 3097 
Q 1594 3097 1305 2825 
Q 1016 2553 972 2059 
L 3022 2063 
z
" transform="scale(0.015625)"/>
       <path id="DejaVuSans-71" d="M 947 1747 
Q 947 1113 1208 752 
Q 1469 391 1925 391 
Q 2381 391 2643 752 
Q 2906 1113 2906 1747 
Q 2906 2381 2643 2742 
Q 2381 3103 1925 3103 
Q 1469 3103 1208 2742 
Q 947 2381 947 1747 
z
M 2906 525 
Q 2725 213 2448 61 
Q 2172 -91 1784 -91 
Q 1150 -91 751 415 
Q 353 922 353 1747 
Q 353 2572 751 3078 
Q 1150 3584 1784 3584 
Q 2172 3584 2448 3432 
Q 2725 3281 2906 2969 
L 2906 3500 
L 3481 3500 
L 3481 -1331 
L 2906 -1331 
L 2906 525 
z
" transform="scale(0.015625)"/>
       <path id="DejaVuSans-75" d="M 544 1381 
L 544 3500 
L 1119 3500 
L 1119 1403 
Q 1119 906 1312 657 
Q 1506 409 1894 409 
Q 2359 409 2629 706 
Q 2900 1003 2900 1516 
L 2900 3500 
L 3475 3500 
L 3475 0 
L 2900 0 
L 2900 538 
Q 2691 219 2414 64 
Q 2138 -91 1772 -91 
Q 1169 -91 856 284 
Q 544 659 544 1381 
z
M 1991 3584 
L 1991 3584 
z
" transform="scale(0.015625)"/>
       <path id="DejaVuSans-6e" d="M 3513 2113 
L 3513 0 
L 2938 0 
L 2938 2094 
Q 2938 2591 2744 2837 
Q 2550 3084 2163 3084 
Q 1697 3084 1428 2787 
Q 1159 2491 1159 1978 
L 1159 0 
L 581 0 
L 581 3500 
L 1159 3500 
L 1159 2956 
Q 1366 3272 1645 3428 
Q 1925 3584 2291 3584 
Q 2894 3584 3203 3211 
Q 3513 2838 3513 2113 
z
" transform="scale(0.015625)"/>
       <path id="DejaVuSans-63" d="M 3122 3366 
L 3122 2828 
Q 2878 2963 2633 3030 
Q 2388 3097 2138 3097 
Q 1578 3097 1268 2742 
Q 959 2388 959 1747 
Q 959 1106 1268 751 
Q 1578 397 2138 397 
Q 2388 397 2633 464 
Q 2878 531 3122 666 
L 3122 134 
Q 2881 22 2623 -34 
Q 2366 -91 2075 -91 
Q 1284 -91 818 406 
Q 353 903 353 1747 
Q 353 2603 823 3093 
Q 1294 3584 2113 3584 
Q 2378 3584 2631 3529 
Q 2884 3475 3122 3366 
z
" transform="scale(0.015625)"/>
       <path id="DejaVuSans-79" d="M 2059 -325 
Q 1816 -950 1584 -1140 
Q 1353 -1331 966 -1331 
L 506 -1331 
L 506 -850 
L 844 -850 
Q 1081 -850 1212 -737 
Q 1344 -625 1503 -206 
L 1606 56 
L 191 3500 
L 800 3500 
L 1894 763 
L 2988 3500 
L 3597 3500 
L 2059 -325 
z
" transform="scale(0.015625)"/>
       <path id="DejaVuSans-20" transform="scale(0.015625)"/>
       <path id="DejaVuSans-5b" d="M 550 4863 
L 1875 4863 
L 1875 4416 
L 1125 4416 
L 1125 -397 
L 1875 -397 
L 1875 -844 
L 550 -844 
L 550 4863 
z
" transform="scale(0.015625)"/>
       <path id="DejaVuSans-4d" d="M 628 4666 
L 1569 4666 
L 2759 1491 
L 3956 4666 
L 4897 4666 
L 4897 0 
L 4281 0 
L 4281 4097 
L 3078 897 
L 2444 897 
L 1241 4097 
L 1241 0 
L 628 0 
L 628 4666 
z
" transform="scale(0.015625)"/>
       <path id="DejaVuSans-48" d="M 628 4666 
L 1259 4666 
L 1259 2753 
L 3553 2753 
L 3553 4666 
L 4184 4666 
L 4184 0 
L 3553 0 
L 3553 2222 
L 1259 2222 
L 1259 0 
L 628 0 
L 628 4666 
z
" transform="scale(0.015625)"/>
       <path id="DejaVuSans-7a" d="M 353 3500 
L 3084 3500 
L 3084 2975 
L 922 459 
L 3084 459 
L 3084 0 
L 275 0 
L 275 525 
L 2438 3041 
L 353 3041 
L 353 3500 
z
" transform="scale(0.015625)"/>
       <path id="DejaVuSans-5d" d="M 1947 4863 
L 1947 -844 
L 622 -844 
L 622 -397 
L 1369 -397 
L 1369 4416 
L 622 4416 
L 622 4863 
L 1947 4863 
z
" transform="scale(0.015625)"/>
      </defs>
      <use xlink:href="#DejaVuSans-66"/>
      <use xlink:href="#DejaVuSans-72" x="35.205078"/>
      <use xlink:href="#DejaVuSans-65" x="74.068359"/>
      <use xlink:href="#DejaVuSans-71" x="135.591797"/>
      <use xlink:href="#DejaVuSans-75" x="199.068359"/>
      <use xlink:href="#DejaVuSans-65" x="262.447266"/>
      <use xlink:href="#DejaVuSans-6e" x="323.970703"/>
      <use xlink:href="#DejaVuSans-63" x="387.349609"/>
      <use xlink:href="#DejaVuSans-79" x="442.330078"/>
      <use xlink:href="#DejaVuSans-20" x="501.509766"/>
      <use xlink:href="#DejaVuSans-5b" x="533.296875"/>
      <use xlink:href="#DejaVuSans-4d" x="572.310547"/>
      <use xlink:href="#DejaVuSans-48" x="658.589844"/>
      <use xlink:href="#DejaVuSans-7a" x="733.785156"/>
      <use xlink:href="#DejaVuSans-5d" x="786.275391"/>
     </g>
    </g>
   </g>
   <g id="matplotlib.axis_2">
    <g id="ytick_1">
     <g id="line2d_81">
      <path d="M 60.05 291.867814 
L 493.2 291.867814 
" clip-path="url(#pc17db7474e)" style="fill: none; stroke: #808080; stroke-width: 0.8; stroke-linecap: square"/>
     </g>
     <g id="line2d_82">
      <defs>
       <path id="mb5f629f67b" d="M 0 0 
L -3.5 0 
" style="stroke: #000000; stroke-width: 0.8"/>
      </defs>
      <g>
       <use xlink:href="#mb5f629f67b" x="60.05" y="291.867814" style="stroke: #000000; stroke-width: 0.8"/>
      </g>
     </g>
     <g id="text_7">
      <!-- −80 -->
      <g transform="translate(27.724375 296.426876) scale(0.12 -0.12)">
       <defs>
        <path id="DejaVuSans-38" d="M 2034 2216 
Q 1584 2216 1326 1975 
Q 1069 1734 1069 1313 
Q 1069 891 1326 650 
Q 1584 409 2034 409 
Q 2484 409 2743 651 
Q 3003 894 3003 1313 
Q 3003 1734 2745 1975 
Q 2488 2216 2034 2216 
z
M 1403 2484 
Q 997 2584 770 2862 
Q 544 3141 544 3541 
Q 544 4100 942 4425 
Q 1341 4750 2034 4750 
Q 2731 4750 3128 4425 
Q 3525 4100 3525 3541 
Q 3525 3141 3298 2862 
Q 3072 2584 2669 2484 
Q 3125 2378 3379 2068 
Q 3634 1759 3634 1313 
Q 3634 634 3220 271 
Q 2806 -91 2034 -91 
Q 1263 -91 848 271 
Q 434 634 434 1313 
Q 434 1759 690 2068 
Q 947 2378 1403 2484 
z
M 1172 3481 
Q 1172 3119 1398 2916 
Q 1625 2713 2034 2713 
Q 2441 2713 2670 2916 
Q 2900 3119 2900 3481 
Q 2900 3844 2670 4047 
Q 2441 4250 2034 4250 
Q 1625 4250 1398 4047 
Q 1172 3844 1172 3481 
z
" transform="scale(0.015625)"/>
       </defs>
       <use xlink:href="#DejaVuSans-2212"/>
       <use xlink:href="#DejaVuSans-38" x="83.789062"/>
       <use xlink:href="#DejaVuSans-30" x="147.412109"/>
      </g>
     </g>
    </g>
    <g id="ytick_2">
     <g id="line2d_83">
      <path d="M 60.05 259.962136 
L 493.2 259.962136 
" clip-path="url(#pc17db7474e)" style="fill: none; stroke: #808080; stroke-width: 0.8; stroke-linecap: square"/>
     </g>
     <g id="line2d_84">
      <g>
       <use xlink:href="#mb5f629f67b" x="60.05" y="259.962136" style="stroke: #000000; stroke-width: 0.8"/>
      </g>
     </g>
     <g id="text_8">
      <!-- −70 -->
      <g transform="translate(27.724375 264.521198) scale(0.12 -0.12)">
       <defs>
        <path id="DejaVuSans-37" d="M 525 4666 
L 3525 4666 
L 3525 4397 
L 1831 0 
L 1172 0 
L 2766 4134 
L 525 4134 
L 525 4666 
z
" transform="scale(0.015625)"/>
       </defs>
       <use xlink:href="#DejaVuSans-2212"/>
       <use xlink:href="#DejaVuSans-37" x="83.789062"/>
       <use xlink:href="#DejaVuSans-30" x="147.412109"/>
      </g>
     </g>
    </g>
    <g id="ytick_3">
     <g id="line2d_85">
      <path d="M 60.05 228.056457 
L 493.2 228.056457 
" clip-path="url(#pc17db7474e)" style="fill: none; stroke: #808080; stroke-width: 0.8; stroke-linecap: square"/>
     </g>
     <g id="line2d_86">
      <g>
       <use xlink:href="#mb5f629f67b" x="60.05" y="228.056457" style="stroke: #000000; stroke-width: 0.8"/>
      </g>
     </g>
     <g id="text_9">
      <!-- −60 -->
      <g transform="translate(27.724375 232.61552) scale(0.12 -0.12)">
       <defs>
        <path id="DejaVuSans-36" d="M 2113 2584 
Q 1688 2584 1439 2293 
Q 1191 2003 1191 1497 
Q 1191 994 1439 701 
Q 1688 409 2113 409 
Q 2538 409 2786 701 
Q 3034 994 3034 1497 
Q 3034 2003 2786 2293 
Q 2538 2584 2113 2584 
z
M 3366 4563 
L 3366 3988 
Q 3128 4100 2886 4159 
Q 2644 4219 2406 4219 
Q 1781 4219 1451 3797 
Q 1122 3375 1075 2522 
Q 1259 2794 1537 2939 
Q 1816 3084 2150 3084 
Q 2853 3084 3261 2657 
Q 3669 2231 3669 1497 
Q 3669 778 3244 343 
Q 2819 -91 2113 -91 
Q 1303 -91 875 529 
Q 447 1150 447 2328 
Q 447 3434 972 4092 
Q 1497 4750 2381 4750 
Q 2619 4750 2861 4703 
Q 3103 4656 3366 4563 
z
" transform="scale(0.015625)"/>
       </defs>
       <use xlink:href="#DejaVuSans-2212"/>
       <use xlink:href="#DejaVuSans-36" x="83.789062"/>
       <use xlink:href="#DejaVuSans-30" x="147.412109"/>
      </g>
     </g>
    </g>
    <g id="ytick_4">
     <g id="line2d_87">
      <path d="M 60.05 196.150779 
L 493.2 196.150779 
" clip-path="url(#pc17db7474e)" style="fill: none; stroke: #808080; stroke-width: 0.8; stroke-linecap: square"/>
     </g>
     <g id="line2d_88">
      <g>
       <use xlink:href="#mb5f629f67b" x="60.05" y="196.150779" style="stroke: #000000; stroke-width: 0.8"/>
      </g>
     </g>
     <g id="text_10">
      <!-- −50 -->
      <g transform="translate(27.724375 200.709841) scale(0.12 -0.12)">
       <defs>
        <path id="DejaVuSans-35" d="M 691 4666 
L 3169 4666 
L 3169 4134 
L 1269 4134 
L 1269 2991 
Q 1406 3038 1543 3061 
Q 1681 3084 1819 3084 
Q 2600 3084 3056 2656 
Q 3513 2228 3513 1497 
Q 3513 744 3044 326 
Q 2575 -91 1722 -91 
Q 1428 -91 1123 -41 
Q 819 9 494 109 
L 494 744 
Q 775 591 1075 516 
Q 1375 441 1709 441 
Q 2250 441 2565 725 
Q 2881 1009 2881 1497 
Q 2881 1984 2565 2268 
Q 2250 2553 1709 2553 
Q 1456 2553 1204 2497 
Q 953 2441 691 2322 
L 691 4666 
z
" transform="scale(0.015625)"/>
       </defs>
       <use xlink:href="#DejaVuSans-2212"/>
       <use xlink:href="#DejaVuSans-35" x="83.789062"/>
       <use xlink:href="#DejaVuSans-30" x="147.412109"/>
      </g>
     </g>
    </g>
    <g id="ytick_5">
     <g id="line2d_89">
      <path d="M 60.05 164.2451 
L 493.2 164.2451 
" clip-path="url(#pc17db7474e)" style="fill: none; stroke: #808080; stroke-width: 0.8; stroke-linecap: square"/>
     </g>
     <g id="line2d_90">
      <g>
       <use xlink:href="#mb5f629f67b" x="60.05" y="164.2451" style="stroke: #000000; stroke-width: 0.8"/>
      </g>
     </g>
     <g id="text_11">
      <!-- −40 -->
      <g transform="translate(27.724375 168.804163) scale(0.12 -0.12)">
       <defs>
        <path id="DejaVuSans-34" d="M 2419 4116 
L 825 1625 
L 2419 1625 
L 2419 4116 
z
M 2253 4666 
L 3047 4666 
L 3047 1625 
L 3713 1625 
L 3713 1100 
L 3047 1100 
L 3047 0 
L 2419 0 
L 2419 1100 
L 313 1100 
L 313 1709 
L 2253 4666 
z
" transform="scale(0.015625)"/>
       </defs>
       <use xlink:href="#DejaVuSans-2212"/>
       <use xlink:href="#DejaVuSans-34" x="83.789062"/>
       <use xlink:href="#DejaVuSans-30" x="147.412109"/>
      </g>
     </g>
    </g>
    <g id="ytick_6">
     <g id="line2d_91">
      <path d="M 60.05 132.339422 
L 493.2 132.339422 
" clip-path="url(#pc17db7474e)" style="fill: none; stroke: #808080; stroke-width: 0.8; stroke-linecap: square"/>
     </g>
     <g id="line2d_92">
      <g>
       <use xlink:href="#mb5f629f67b" x="60.05" y="132.339422" style="stroke: #000000; stroke-width: 0.8"/>
      </g>
     </g>
     <g id="text_12">
      <!-- −30 -->
      <g transform="translate(27.724375 136.898484) scale(0.12 -0.12)">
       <defs>
        <path id="DejaVuSans-33" d="M 2597 2516 
Q 3050 2419 3304 2112 
Q 3559 1806 3559 1356 
Q 3559 666 3084 287 
Q 2609 -91 1734 -91 
Q 1441 -91 1130 -33 
Q 819 25 488 141 
L 488 750 
Q 750 597 1062 519 
Q 1375 441 1716 441 
Q 2309 441 2620 675 
Q 2931 909 2931 1356 
Q 2931 1769 2642 2001 
Q 2353 2234 1838 2234 
L 1294 2234 
L 1294 2753 
L 1863 2753 
Q 2328 2753 2575 2939 
Q 2822 3125 2822 3475 
Q 2822 3834 2567 4026 
Q 2313 4219 1838 4219 
Q 1578 4219 1281 4162 
Q 984 4106 628 3988 
L 628 4550 
Q 988 4650 1302 4700 
Q 1616 4750 1894 4750 
Q 2613 4750 3031 4423 
Q 3450 4097 3450 3541 
Q 3450 3153 3228 2886 
Q 3006 2619 2597 2516 
z
" transform="scale(0.015625)"/>
       </defs>
       <use xlink:href="#DejaVuSans-2212"/>
       <use xlink:href="#DejaVuSans-33" x="83.789062"/>
       <use xlink:href="#DejaVuSans-30" x="147.412109"/>
      </g>
     </g>
    </g>
    <g id="ytick_7">
     <g id="line2d_93">
      <path d="M 60.05 100.433743 
L 493.2 100.433743 
" clip-path="url(#pc17db7474e)" style="fill: none; stroke: #808080; stroke-width: 0.8; stroke-linecap: square"/>
     </g>
     <g id="line2d_94">
      <g>
       <use xlink:href="#mb5f629f67b" x="60.05" y="100.433743" style="stroke: #000000; stroke-width: 0.8"/>
      </g>
     </g>
     <g id="text_13">
      <!-- −20 -->
      <g transform="translate(27.724375 104.992806) scale(0.12 -0.12)">
       <use xlink:href="#DejaVuSans-2212"/>
       <use xlink:href="#DejaVuSans-32" x="83.789062"/>
       <use xlink:href="#DejaVuSans-30" x="147.412109"/>
      </g>
     </g>
    </g>
    <g id="ytick_8">
     <g id="line2d_95">
      <path d="M 60.05 68.528065 
L 493.2 68.528065 
" clip-path="url(#pc17db7474e)" style="fill: none; stroke: #808080; stroke-width: 0.8; stroke-linecap: square"/>
     </g>
     <g id="line2d_96">
      <g>
       <use xlink:href="#mb5f629f67b" x="60.05" y="68.528065" style="stroke: #000000; stroke-width: 0.8"/>
      </g>
     </g>
     <g id="text_14">
      <!-- −10 -->
      <g transform="translate(27.724375 73.087128) scale(0.12 -0.12)">
       <use xlink:href="#DejaVuSans-2212"/>
       <use xlink:href="#DejaVuSans-31" x="83.789062"/>
       <use xlink:href="#DejaVuSans-30" x="147.412109"/>
      </g>
     </g>
    </g>
    <g id="ytick_9">
     <g id="line2d_97">
      <path d="M 60.05 36.622387 
L 493.2 36.622387 
" clip-path="url(#pc17db7474e)" style="fill: none; stroke: #808080; stroke-width: 0.8; stroke-linecap: square"/>
     </g>
     <g id="line2d_98">
      <g>
       <use xlink:href="#mb5f629f67b" x="60.05" y="36.622387" style="stroke: #000000; stroke-width: 0.8"/>
      </g>
     </g>
     <g id="text_15">
      <!-- 0 -->
      <g transform="translate(45.415 41.181449) scale(0.12 -0.12)">
       <use xlink:href="#DejaVuSans-30"/>
      </g>
     </g>
    </g>
    <g id="text_16">
     <!-- magnitude [dB] -->
     <g transform="translate(21.22875 214.669687) rotate(-90) scale(0.12 -0.12)">
      <defs>
       <path id="DejaVuSans-6d" d="M 3328 2828 
Q 3544 3216 3844 3400 
Q 4144 3584 4550 3584 
Q 5097 3584 5394 3201 
Q 5691 2819 5691 2113 
L 5691 0 
L 5113 0 
L 5113 2094 
Q 5113 2597 4934 2840 
Q 4756 3084 4391 3084 
Q 3944 3084 3684 2787 
Q 3425 2491 3425 1978 
L 3425 0 
L 2847 0 
L 2847 2094 
Q 2847 2600 2669 2842 
Q 2491 3084 2119 3084 
Q 1678 3084 1418 2786 
Q 1159 2488 1159 1978 
L 1159 0 
L 581 0 
L 581 3500 
L 1159 3500 
L 1159 2956 
Q 1356 3278 1631 3431 
Q 1906 3584 2284 3584 
Q 2666 3584 2933 3390 
Q 3200 3197 3328 2828 
z
" transform="scale(0.015625)"/>
       <path id="DejaVuSans-61" d="M 2194 1759 
Q 1497 1759 1228 1600 
Q 959 1441 959 1056 
Q 959 750 1161 570 
Q 1363 391 1709 391 
Q 2188 391 2477 730 
Q 2766 1069 2766 1631 
L 2766 1759 
L 2194 1759 
z
M 3341 1997 
L 3341 0 
L 2766 0 
L 2766 531 
Q 2569 213 2275 61 
Q 1981 -91 1556 -91 
Q 1019 -91 701 211 
Q 384 513 384 1019 
Q 384 1609 779 1909 
Q 1175 2209 1959 2209 
L 2766 2209 
L 2766 2266 
Q 2766 2663 2505 2880 
Q 2244 3097 1772 3097 
Q 1472 3097 1187 3025 
Q 903 2953 641 2809 
L 641 3341 
Q 956 3463 1253 3523 
Q 1550 3584 1831 3584 
Q 2591 3584 2966 3190 
Q 3341 2797 3341 1997 
z
" transform="scale(0.015625)"/>
       <path id="DejaVuSans-67" d="M 2906 1791 
Q 2906 2416 2648 2759 
Q 2391 3103 1925 3103 
Q 1463 3103 1205 2759 
Q 947 2416 947 1791 
Q 947 1169 1205 825 
Q 1463 481 1925 481 
Q 2391 481 2648 825 
Q 2906 1169 2906 1791 
z
M 3481 434 
Q 3481 -459 3084 -895 
Q 2688 -1331 1869 -1331 
Q 1566 -1331 1297 -1286 
Q 1028 -1241 775 -1147 
L 775 -588 
Q 1028 -725 1275 -790 
Q 1522 -856 1778 -856 
Q 2344 -856 2625 -561 
Q 2906 -266 2906 331 
L 2906 616 
Q 2728 306 2450 153 
Q 2172 0 1784 0 
Q 1141 0 747 490 
Q 353 981 353 1791 
Q 353 2603 747 3093 
Q 1141 3584 1784 3584 
Q 2172 3584 2450 3431 
Q 2728 3278 2906 2969 
L 2906 3500 
L 3481 3500 
L 3481 434 
z
" transform="scale(0.015625)"/>
       <path id="DejaVuSans-69" d="M 603 3500 
L 1178 3500 
L 1178 0 
L 603 0 
L 603 3500 
z
M 603 4863 
L 1178 4863 
L 1178 4134 
L 603 4134 
L 603 4863 
z
" transform="scale(0.015625)"/>
       <path id="DejaVuSans-74" d="M 1172 4494 
L 1172 3500 
L 2356 3500 
L 2356 3053 
L 1172 3053 
L 1172 1153 
Q 1172 725 1289 603 
Q 1406 481 1766 481 
L 2356 481 
L 2356 0 
L 1766 0 
Q 1100 0 847 248 
Q 594 497 594 1153 
L 594 3053 
L 172 3053 
L 172 3500 
L 594 3500 
L 594 4494 
L 1172 4494 
z
" transform="scale(0.015625)"/>
       <path id="DejaVuSans-64" d="M 2906 2969 
L 2906 4863 
L 3481 4863 
L 3481 0 
L 2906 0 
L 2906 525 
Q 2725 213 2448 61 
Q 2172 -91 1784 -91 
Q 1150 -91 751 415 
Q 353 922 353 1747 
Q 353 2572 751 3078 
Q 1150 3584 1784 3584 
Q 2172 3584 2448 3432 
Q 2725 3281 2906 2969 
z
M 947 1747 
Q 947 1113 1208 752 
Q 1469 391 1925 391 
Q 2381 391 2643 752 
Q 2906 1113 2906 1747 
Q 2906 2381 2643 2742 
Q 2381 3103 1925 3103 
Q 1469 3103 1208 2742 
Q 947 2381 947 1747 
z
" transform="scale(0.015625)"/>
       <path id="DejaVuSans-42" d="M 1259 2228 
L 1259 519 
L 2272 519 
Q 2781 519 3026 730 
Q 3272 941 3272 1375 
Q 3272 1813 3026 2020 
Q 2781 2228 2272 2228 
L 1259 2228 
z
M 1259 4147 
L 1259 2741 
L 2194 2741 
Q 2656 2741 2882 2914 
Q 3109 3088 3109 3444 
Q 3109 3797 2882 3972 
Q 2656 4147 2194 4147 
L 1259 4147 
z
M 628 4666 
L 2241 4666 
Q 2963 4666 3353 4366 
Q 3744 4066 3744 3513 
Q 3744 3084 3544 2831 
Q 3344 2578 2956 2516 
Q 3422 2416 3680 2098 
Q 3938 1781 3938 1306 
Q 3938 681 3513 340 
Q 3088 0 2303 0 
L 628 0 
L 628 4666 
z
" transform="scale(0.015625)"/>
      </defs>
      <use xlink:href="#DejaVuSans-6d"/>
      <use xlink:href="#DejaVuSans-61" x="97.412109"/>
      <use xlink:href="#DejaVuSans-67" x="158.691406"/>
      <use xlink:href="#DejaVuSans-6e" x="222.167969"/>
      <use xlink:href="#DejaVuSans-69" x="285.546875"/>
      <use xlink:href="#DejaVuSans-74" x="313.330078"/>
      <use xlink:href="#DejaVuSans-75" x="352.539062"/>
      <use xlink:href="#DejaVuSans-64" x="415.917969"/>
      <use xlink:href="#DejaVuSans-65" x="479.394531"/>
      <use xlink:href="#DejaVuSans-20" x="540.917969"/>
      <use xlink:href="#DejaVuSans-5b" x="572.705078"/>
      <use xlink:href="#DejaVuSans-64" x="611.71875"/>
      <use xlink:href="#DejaVuSans-42" x="675.195312"/>
      <use xlink:href="#DejaVuSans-5d" x="743.798828"/>
     </g>
    </g>
   </g>
   <g id="line2d_99">
    <path d="M 79.738636 39.609091 
L 109.725337 39.812116 
L 127.086058 40.142942 
L 138.922914 40.571111 
L 148.392398 41.113019 
L 156.283635 41.760679 
L 163.385749 42.545798 
L 169.698738 43.443686 
L 176.011728 44.56509 
L 181.535594 45.754619 
L 187.05946 47.157057 
L 192.583326 48.784496 
L 198.107192 50.642144 
L 203.631058 52.727657 
L 209.154923 55.031419 
L 215.467913 57.911146 
L 221.780903 61.02504 
L 228.883016 64.765909 
L 237.563377 69.612286 
L 247.032861 75.157495 
L 258.080593 81.886811 
L 264.393583 85.934687 
L 267.550077 88.191403 
L 269.128325 89.521181 
L 270.706572 91.208888 
L 271.495696 92.332612 
L 272.28482 93.819483 
L 273.073943 95.95676 
L 273.863067 99.331089 
L 274.652191 105.224159 
L 275.441314 116.786713 
L 276.230438 146.423306 
L 277.019562 147.949383 
L 277.808686 120.926747 
L 278.597809 111.145367 
L 279.386933 106.419606 
L 280.176057 103.914113 
L 280.96518 102.53839 
L 281.754304 101.793079 
L 282.543428 101.424952 
L 283.332551 101.29552 
L 284.910799 101.462055 
L 286.489046 101.949541 
L 288.856417 102.984395 
L 292.012912 104.642192 
L 297.536778 107.865166 
L 306.217139 113.23276 
L 322.788737 123.784405 
L 359.877551 147.723484 
L 473.511364 221.362094 
L 473.511364 221.362094 
" clip-path="url(#pc17db7474e)" style="fill: none; stroke: #ff0000; stroke-width: 2; stroke-linecap: square"/>
   </g>
   <g id="line2d_100">
    <path d="M 79.738636 39.609091 
L 109.725337 39.812118 
L 127.086058 40.142955 
L 138.922914 40.571151 
L 148.392398 41.113111 
L 156.283635 41.760861 
L 163.385749 42.546134 
L 169.698738 43.444254 
L 176.011728 44.566036 
L 181.535594 45.756075 
L 187.05946 47.159266 
L 192.583326 48.787792 
L 198.107192 50.646984 
L 203.631058 52.734649 
L 209.154923 55.041366 
L 215.467913 57.925772 
L 221.780903 61.046194 
L 228.883016 64.797398 
L 236.774253 69.209223 
L 246.243737 74.763816 
L 257.291469 81.505455 
L 269.917449 89.467644 
L 280.176057 96.166457 
L 286.489046 100.52117 
L 290.434665 103.4911 
L 292.802036 105.484473 
L 295.169407 107.802878 
L 296.747654 109.680175 
L 298.325902 112.040535 
L 299.115026 113.510471 
L 299.904149 115.270136 
L 300.693273 117.434073 
L 301.482397 120.173411 
L 302.27152 123.751351 
L 303.060644 128.591513 
L 303.849768 135.434485 
L 304.638891 145.805899 
L 305.428015 164.176521 
L 306.217139 247.215438 
L 307.006263 168.613429 
L 307.795386 150.174625 
L 308.58451 140.639103 
L 309.373634 134.783864 
L 310.162757 130.944733 
L 310.951881 128.350108 
L 311.741005 126.574339 
L 312.530128 125.359711 
L 313.319252 124.541245 
L 314.108376 124.009287 
L 314.8975 123.688854 
L 315.686623 123.527466 
L 317.264871 123.542126 
L 318.843118 123.858477 
L 321.210489 124.673438 
L 324.366984 126.120784 
L 328.312602 128.230853 
L 333.836468 131.45559 
L 342.516829 136.799278 
L 358.299303 146.821098 
L 391.442499 168.191119 
L 473.511364 221.362556 
L 473.511364 221.362556 
" clip-path="url(#pc17db7474e)" style="fill: none; stroke: #0000ff; stroke-width: 2; stroke-linecap: square"/>
   </g>
   <g id="line2d_101">
    <path d="M 79.738636 39.609091 
L 109.725337 39.812119 
L 127.086058 40.142958 
L 138.922914 40.571158 
L 148.392398 41.113128 
L 156.283635 41.760895 
L 163.385749 42.546196 
L 169.698738 43.444358 
L 176.011728 44.566209 
L 181.535594 45.756342 
L 187.05946 47.159669 
L 192.583326 48.788392 
L 198.107192 50.64786 
L 203.631058 52.735906 
L 209.154923 55.043139 
L 215.467913 57.928345 
L 221.780903 61.049849 
L 228.883016 64.802694 
L 236.774253 69.21697 
L 246.243737 74.775398 
L 257.291469 81.521601 
L 270.706572 89.982168 
L 284.121675 98.705191 
L 293.59116 105.119668 
L 299.115026 109.089963 
L 303.060644 112.153997 
L 306.217139 114.871194 
L 308.58451 117.185691 
L 310.162757 118.942082 
L 311.741005 120.957341 
L 313.319252 123.355626 
L 314.8975 126.337921 
L 315.686623 128.145562 
L 316.475747 130.241643 
L 317.264871 132.709219 
L 318.053994 135.662231 
L 318.843118 139.261928 
L 319.632242 143.74751 
L 320.421365 149.50071 
L 321.210489 157.205246 
L 321.999613 168.341273 
L 322.788737 187.501604 
L 323.57786 295.790909 
L 324.366984 189.899418 
L 325.156108 171.389229 
L 325.945231 161.267771 
L 326.734355 154.646475 
L 327.523479 149.984627 
L 328.312602 146.579682 
L 329.101726 144.044283 
L 329.89085 142.13892 
L 330.679974 140.704233 
L 331.469097 139.628912 
L 332.258221 138.832578 
L 333.047345 138.25578 
L 333.836468 137.853737 
L 335.414716 137.444786 
L 336.992963 137.413662 
L 338.571211 137.641192 
L 340.938582 138.307364 
L 343.305953 139.229839 
L 346.462448 140.707527 
L 350.408066 142.795104 
L 355.931932 145.967349 
L 364.612293 151.242896 
L 378.027396 159.688866 
L 402.49023 175.389409 
L 465.620127 216.250049 
L 473.511364 221.364203 
L 473.511364 221.364203 
" clip-path="url(#pc17db7474e)" style="fill: none; stroke: #008000; stroke-width: 2; stroke-linecap: square"/>
   </g>
   <g id="line2d_102">
    <path d="M 79.738636 39.609091 
L 109.725337 39.812119 
L 127.086058 40.142959 
L 138.922914 40.57116 
L 148.392398 41.113134 
L 156.283635 41.760907 
L 163.385749 42.546217 
L 169.698738 43.444395 
L 176.011728 44.56627 
L 181.535594 45.756435 
L 187.05946 47.15981 
L 192.583326 48.788601 
L 198.107192 50.648165 
L 203.631058 52.736344 
L 209.154923 55.043754 
L 215.467913 57.929236 
L 221.780903 61.05111 
L 228.883016 64.804512 
L 236.774253 69.219609 
L 246.243737 74.779294 
L 257.291469 81.526966 
L 270.706572 89.985865 
L 284.910799 99.200902 
L 295.958531 106.61114 
L 303.849768 112.167223 
L 309.373634 116.337363 
L 313.319252 119.595184 
L 316.475747 122.500875 
L 318.843118 124.965909 
L 321.210489 127.817479 
L 322.788737 130.037159 
L 324.366984 132.625876 
L 325.945231 135.734814 
L 327.523479 139.594728 
L 329.101726 144.573135 
L 329.89085 147.661835 
L 330.679974 151.29964 
L 331.469097 155.660456 
L 332.258221 161.012918 
L 333.047345 167.813196 
L 333.836468 176.953215 
L 334.625592 190.637795 
L 335.414716 218.036434 
L 336.203839 230.642735 
L 336.992963 196.27863 
L 337.782087 182.123353 
L 338.571211 173.41379 
L 339.360334 167.337219 
L 340.149458 162.835827 
L 340.938582 159.389692 
L 341.727705 156.700771 
L 342.516829 154.58008 
L 343.305953 152.899076 
L 344.095077 151.565821 
L 344.8842 150.512112 
L 345.673324 149.685973 
L 346.462448 149.046979 
L 348.040695 148.20909 
L 349.618942 147.811208 
L 351.19719 147.729527 
L 352.775437 147.879794 
L 355.142808 148.416554 
L 357.510179 149.215013 
L 360.666674 150.549395 
L 364.612293 152.495142 
L 370.136159 155.52476 
L 377.238272 159.705734 
L 387.49688 166.023528 
L 404.068478 176.524352 
L 434.844302 196.337172 
L 473.511364 221.368357 
L 473.511364 221.368357 
" clip-path="url(#pc17db7474e)" style="fill: none; stroke: #00bfbf; stroke-width: 2; stroke-linecap: square"/>
   </g>
   <g id="line2d_103">
    <path d="M 79.738636 39.609091 
L 109.725337 39.812119 
L 127.086058 40.142959 
L 138.922914 40.571162 
L 148.392398 41.113136 
L 156.283635 41.760912 
L 163.385749 42.546227 
L 169.698738 43.444412 
L 176.011728 44.566298 
L 181.535594 45.756478 
L 187.05946 47.159875 
L 192.583326 48.788697 
L 198.107192 50.648306 
L 203.631058 52.736546 
L 209.154923 55.044038 
L 215.467913 57.929646 
L 221.780903 61.051691 
L 228.883016 64.805347 
L 236.774253 69.220817 
L 246.243737 74.78107 
L 257.291469 81.529402 
L 270.706572 89.987665 
L 285.699923 99.710102 
L 297.536778 107.627327 
L 306.217139 113.678871 
L 312.530128 118.33742 
L 317.264871 122.095991 
L 321.210489 125.529163 
L 324.366984 128.597973 
L 326.734355 131.188969 
L 329.101726 134.14745 
L 330.679974 136.405398 
L 332.258221 138.975386 
L 333.836468 141.960769 
L 335.414716 145.508951 
L 336.992963 149.837451 
L 338.571211 155.284938 
L 339.360334 158.593018 
L 340.149458 162.427771 
L 340.938582 166.949894 
L 341.727705 172.409102 
L 342.516829 179.230398 
L 343.305953 188.239935 
L 344.095077 201.436288 
L 345.673324 250.108686 
L 346.462448 210.34411 
L 347.251571 195.278758 
L 348.040695 186.085064 
L 348.829819 179.634106 
L 349.618942 174.794519 
L 350.408066 171.02423 
L 351.19719 168.018973 
L 351.986314 165.589264 
L 352.775437 163.608057 
L 353.564561 161.985373 
L 354.353685 160.654773 
L 355.142808 159.565605 
L 355.931932 158.678278 
L 357.510179 157.388945 
L 359.088427 156.598503 
L 360.666674 156.178575 
L 362.244922 156.038774 
L 363.823169 156.113967 
L 366.19054 156.528764 
L 368.557911 157.209078 
L 371.714406 158.403201 
L 375.660025 160.205161 
L 380.394767 162.654752 
L 386.707756 166.211502 
L 395.388117 171.401433 
L 408.014096 179.254498 
L 427.742189 191.824924 
L 466.40925 216.779148 
L 473.511364 221.376876 
L 473.511364 221.376876 
" clip-path="url(#pc17db7474e)" style="fill: none; stroke: #bf00bf; stroke-width: 2; stroke-linecap: square"/>
   </g>
   <g id="patch_3">
    <path d="M 60.05 308.6 
L 60.05 26.8 
" style="fill: none; stroke: #000000; stroke-width: 0.8; stroke-linejoin: miter; stroke-linecap: square"/>
   </g>
   <g id="patch_4">
    <path d="M 493.2 308.6 
L 493.2 26.8 
" style="fill: none; stroke: #000000; stroke-width: 0.8; stroke-linejoin: miter; stroke-linecap: square"/>
   </g>
   <g id="patch_5">
    <path d="M 60.05 308.6 
L 493.2 308.6 
" style="fill: none; stroke: #000000; stroke-width: 0.8; stroke-linejoin: miter; stroke-linecap: square"/>
   </g>
   <g id="patch_6">
    <path d="M 60.05 26.8 
L 493.2 26.8 
" style="fill: none; stroke: #000000; stroke-width: 0.8; stroke-linejoin: miter; stroke-linecap: square"/>
   </g>
   <g id="text_17">
    <!-- dB magnitude plot -->
    <g transform="translate(220.930937 20.8) scale(0.12 -0.12)">
     <defs>
      <path id="DejaVuSans-70" d="M 1159 525 
L 1159 -1331 
L 581 -1331 
L 581 3500 
L 1159 3500 
L 1159 2969 
Q 1341 3281 1617 3432 
Q 1894 3584 2278 3584 
Q 2916 3584 3314 3078 
Q 3713 2572 3713 1747 
Q 3713 922 3314 415 
Q 2916 -91 2278 -91 
Q 1894 -91 1617 61 
Q 1341 213 1159 525 
z
M 3116 1747 
Q 3116 2381 2855 2742 
Q 2594 3103 2138 3103 
Q 1681 3103 1420 2742 
Q 1159 2381 1159 1747 
Q 1159 1113 1420 752 
Q 1681 391 2138 391 
Q 2594 391 2855 752 
Q 3116 1113 3116 1747 
z
" transform="scale(0.015625)"/>
      <path id="DejaVuSans-6c" d="M 603 4863 
L 1178 4863 
L 1178 0 
L 603 0 
L 603 4863 
z
" transform="scale(0.015625)"/>
      <path id="DejaVuSans-6f" d="M 1959 3097 
Q 1497 3097 1228 2736 
Q 959 2375 959 1747 
Q 959 1119 1226 758 
Q 1494 397 1959 397 
Q 2419 397 2687 759 
Q 2956 1122 2956 1747 
Q 2956 2369 2687 2733 
Q 2419 3097 1959 3097 
z
M 1959 3584 
Q 2709 3584 3137 3096 
Q 3566 2609 3566 1747 
Q 3566 888 3137 398 
Q 2709 -91 1959 -91 
Q 1206 -91 779 398 
Q 353 888 353 1747 
Q 353 2609 779 3096 
Q 1206 3584 1959 3584 
z
" transform="scale(0.015625)"/>
     </defs>
     <use xlink:href="#DejaVuSans-64"/>
     <use xlink:href="#DejaVuSans-42" x="63.476562"/>
     <use xlink:href="#DejaVuSans-20" x="132.080078"/>
     <use xlink:href="#DejaVuSans-6d" x="163.867188"/>
     <use xlink:href="#DejaVuSans-61" x="261.279297"/>
     <use xlink:href="#DejaVuSans-67" x="322.558594"/>
     <use xlink:href="#DejaVuSans-6e" x="386.035156"/>
     <use xlink:href="#DejaVuSans-69" x="449.414062"/>
     <use xlink:href="#DejaVuSans-74" x="477.197266"/>
     <use xlink:href="#DejaVuSans-75" x="516.40625"/>
     <use xlink:href="#DejaVuSans-64" x="579.785156"/>
     <use xlink:href="#DejaVuSans-65" x="643.261719"/>
     <use xlink:href="#DejaVuSans-20" x="704.785156"/>
     <use xlink:href="#DejaVuSans-70" x="736.572266"/>
     <use xlink:href="#DejaVuSans-6c" x="800.048828"/>
     <use xlink:href="#DejaVuSans-6f" x="827.832031"/>
     <use xlink:href="#DejaVuSans-74" x="889.013672"/>
    </g>
   </g>
   <g id="legend_1">
    <g id="patch_7">
     <path d="M 350.89625 95.5375 
L 486.2 95.5375 
Q 488.2 95.5375 488.2 93.5375 
L 488.2 33.8 
Q 488.2 31.8 486.2 31.8 
L 350.89625 31.8 
Q 348.89625 31.8 348.89625 33.8 
L 348.89625 93.5375 
Q 348.89625 95.5375 350.89625 95.5375 
z
" style="fill: #ffffff; opacity: 0.8; stroke: #cccccc; stroke-linejoin: miter"/>
    </g>
    <g id="line2d_104">
     <path d="M 350.89625 39.418125 
L 355.89625 39.418125 
L 360.89625 39.418125 
" style="fill: none; stroke: #ff0000; stroke-width: 2; stroke-linecap: square"/>
    </g>
    <g id="text_18">
     <!-- gain, f_s =  1.0e+06 -->
     <g transform="translate(362.89625 42.918125) scale(0.12 -0.12)">
      <defs>
       <path id="DejaVuSans-2c" d="M 750 794 
L 1409 794 
L 1409 256 
L 897 -744 
L 494 -744 
L 750 256 
L 750 794 
z
" transform="scale(0.015625)"/>
       <path id="DejaVuSans-5f" d="M 3263 -1063 
L 3263 -1509 
L -63 -1509 
L -63 -1063 
L 3263 -1063 
z
" transform="scale(0.015625)"/>
       <path id="DejaVuSans-73" d="M 2834 3397 
L 2834 2853 
Q 2591 2978 2328 3040 
Q 2066 3103 1784 3103 
Q 1356 3103 1142 2972 
Q 928 2841 928 2578 
Q 928 2378 1081 2264 
Q 1234 2150 1697 2047 
L 1894 2003 
Q 2506 1872 2764 1633 
Q 3022 1394 3022 966 
Q 3022 478 2636 193 
Q 2250 -91 1575 -91 
Q 1294 -91 989 -36 
Q 684 19 347 128 
L 347 722 
Q 666 556 975 473 
Q 1284 391 1588 391 
Q 1994 391 2212 530 
Q 2431 669 2431 922 
Q 2431 1156 2273 1281 
Q 2116 1406 1581 1522 
L 1381 1569 
Q 847 1681 609 1914 
Q 372 2147 372 2553 
Q 372 3047 722 3315 
Q 1072 3584 1716 3584 
Q 2034 3584 2315 3537 
Q 2597 3491 2834 3397 
z
" transform="scale(0.015625)"/>
       <path id="DejaVuSans-3d" d="M 678 2906 
L 4684 2906 
L 4684 2381 
L 678 2381 
L 678 2906 
z
M 678 1631 
L 4684 1631 
L 4684 1100 
L 678 1100 
L 678 1631 
z
" transform="scale(0.015625)"/>
       <path id="DejaVuSans-2e" d="M 684 794 
L 1344 794 
L 1344 0 
L 684 0 
L 684 794 
z
" transform="scale(0.015625)"/>
       <path id="DejaVuSans-2b" d="M 2944 4013 
L 2944 2272 
L 4684 2272 
L 4684 1741 
L 2944 1741 
L 2944 0 
L 2419 0 
L 2419 1741 
L 678 1741 
L 678 2272 
L 2419 2272 
L 2419 4013 
L 2944 4013 
z
" transform="scale(0.015625)"/>
      </defs>
      <use xlink:href="#DejaVuSans-67"/>
      <use xlink:href="#DejaVuSans-61" x="63.476562"/>
      <use xlink:href="#DejaVuSans-69" x="124.755859"/>
      <use xlink:href="#DejaVuSans-6e" x="152.539062"/>
      <use xlink:href="#DejaVuSans-2c" x="215.917969"/>
      <use xlink:href="#DejaVuSans-20" x="247.705078"/>
      <use xlink:href="#DejaVuSans-66" x="279.492188"/>
      <use xlink:href="#DejaVuSans-5f" x="314.697266"/>
      <use xlink:href="#DejaVuSans-73" x="364.697266"/>
      <use xlink:href="#DejaVuSans-20" x="416.796875"/>
      <use xlink:href="#DejaVuSans-3d" x="448.583984"/>
      <use xlink:href="#DejaVuSans-20" x="532.373047"/>
      <use xlink:href="#DejaVuSans-20" x="564.160156"/>
      <use xlink:href="#DejaVuSans-31" x="595.947266"/>
      <use xlink:href="#DejaVuSans-2e" x="659.570312"/>
      <use xlink:href="#DejaVuSans-30" x="691.357422"/>
      <use xlink:href="#DejaVuSans-65" x="754.980469"/>
      <use xlink:href="#DejaVuSans-2b" x="816.503906"/>
      <use xlink:href="#DejaVuSans-30" x="900.292969"/>
      <use xlink:href="#DejaVuSans-36" x="963.916016"/>
     </g>
    </g>
    <g id="line2d_105">
     <path d="M 350.89625 51.365625 
L 355.89625 51.365625 
L 360.89625 51.365625 
" style="fill: none; stroke: #0000ff; stroke-width: 2; stroke-linecap: square"/>
    </g>
    <g id="text_19">
     <!-- gain, f_s =  2.0e+06 -->
     <g transform="translate(362.89625 54.865625) scale(0.12 -0.12)">
      <use xlink:href="#DejaVuSans-67"/>
      <use xlink:href="#DejaVuSans-61" x="63.476562"/>
      <use xlink:href="#DejaVuSans-69" x="124.755859"/>
      <use xlink:href="#DejaVuSans-6e" x="152.539062"/>
      <use xlink:href="#DejaVuSans-2c" x="215.917969"/>
      <use xlink:href="#DejaVuSans-20" x="247.705078"/>
      <use xlink:href="#DejaVuSans-66" x="279.492188"/>
      <use xlink:href="#DejaVuSans-5f" x="314.697266"/>
      <use xlink:href="#DejaVuSans-73" x="364.697266"/>
      <use xlink:href="#DejaVuSans-20" x="416.796875"/>
      <use xlink:href="#DejaVuSans-3d" x="448.583984"/>
      <use xlink:href="#DejaVuSans-20" x="532.373047"/>
      <use xlink:href="#DejaVuSans-20" x="564.160156"/>
      <use xlink:href="#DejaVuSans-32" x="595.947266"/>
      <use xlink:href="#DejaVuSans-2e" x="659.570312"/>
      <use xlink:href="#DejaVuSans-30" x="691.357422"/>
      <use xlink:href="#DejaVuSans-65" x="754.980469"/>
      <use xlink:href="#DejaVuSans-2b" x="816.503906"/>
      <use xlink:href="#DejaVuSans-30" x="900.292969"/>
      <use xlink:href="#DejaVuSans-36" x="963.916016"/>
     </g>
    </g>
    <g id="line2d_106">
     <path d="M 350.89625 63.313125 
L 355.89625 63.313125 
L 360.89625 63.313125 
" style="fill: none; stroke: #008000; stroke-width: 2; stroke-linecap: square"/>
    </g>
    <g id="text_20">
     <!-- gain, f_s =  3.0e+06 -->
     <g transform="translate(362.89625 66.813125) scale(0.12 -0.12)">
      <use xlink:href="#DejaVuSans-67"/>
      <use xlink:href="#DejaVuSans-61" x="63.476562"/>
      <use xlink:href="#DejaVuSans-69" x="124.755859"/>
      <use xlink:href="#DejaVuSans-6e" x="152.539062"/>
      <use xlink:href="#DejaVuSans-2c" x="215.917969"/>
      <use xlink:href="#DejaVuSans-20" x="247.705078"/>
      <use xlink:href="#DejaVuSans-66" x="279.492188"/>
      <use xlink:href="#DejaVuSans-5f" x="314.697266"/>
      <use xlink:href="#DejaVuSans-73" x="364.697266"/>
      <use xlink:href="#DejaVuSans-20" x="416.796875"/>
      <use xlink:href="#DejaVuSans-3d" x="448.583984"/>
      <use xlink:href="#DejaVuSans-20" x="532.373047"/>
      <use xlink:href="#DejaVuSans-20" x="564.160156"/>
      <use xlink:href="#DejaVuSans-33" x="595.947266"/>
      <use xlink:href="#DejaVuSans-2e" x="659.570312"/>
      <use xlink:href="#DejaVuSans-30" x="691.357422"/>
      <use xlink:href="#DejaVuSans-65" x="754.980469"/>
      <use xlink:href="#DejaVuSans-2b" x="816.503906"/>
      <use xlink:href="#DejaVuSans-30" x="900.292969"/>
      <use xlink:href="#DejaVuSans-36" x="963.916016"/>
     </g>
    </g>
    <g id="line2d_107">
     <path d="M 350.89625 75.260625 
L 355.89625 75.260625 
L 360.89625 75.260625 
" style="fill: none; stroke: #00bfbf; stroke-width: 2; stroke-linecap: square"/>
    </g>
    <g id="text_21">
     <!-- gain, f_s =  4.0e+06 -->
     <g transform="translate(362.89625 78.760625) scale(0.12 -0.12)">
      <use xlink:href="#DejaVuSans-67"/>
      <use xlink:href="#DejaVuSans-61" x="63.476562"/>
      <use xlink:href="#DejaVuSans-69" x="124.755859"/>
      <use xlink:href="#DejaVuSans-6e" x="152.539062"/>
      <use xlink:href="#DejaVuSans-2c" x="215.917969"/>
      <use xlink:href="#DejaVuSans-20" x="247.705078"/>
      <use xlink:href="#DejaVuSans-66" x="279.492188"/>
      <use xlink:href="#DejaVuSans-5f" x="314.697266"/>
      <use xlink:href="#DejaVuSans-73" x="364.697266"/>
      <use xlink:href="#DejaVuSans-20" x="416.796875"/>
      <use xlink:href="#DejaVuSans-3d" x="448.583984"/>
      <use xlink:href="#DejaVuSans-20" x="532.373047"/>
      <use xlink:href="#DejaVuSans-20" x="564.160156"/>
      <use xlink:href="#DejaVuSans-34" x="595.947266"/>
      <use xlink:href="#DejaVuSans-2e" x="659.570312"/>
      <use xlink:href="#DejaVuSans-30" x="691.357422"/>
      <use xlink:href="#DejaVuSans-65" x="754.980469"/>
      <use xlink:href="#DejaVuSans-2b" x="816.503906"/>
      <use xlink:href="#DejaVuSans-30" x="900.292969"/>
      <use xlink:href="#DejaVuSans-36" x="963.916016"/>
     </g>
    </g>
    <g id="line2d_108">
     <path d="M 350.89625 87.208125 
L 355.89625 87.208125 
L 360.89625 87.208125 
" style="fill: none; stroke: #bf00bf; stroke-width: 2; stroke-linecap: square"/>
    </g>
    <g id="text_22">
     <!-- gain, f_s =  5.0e+06 -->
     <g transform="translate(362.89625 90.708125) scale(0.12 -0.12)">
      <use xlink:href="#DejaVuSans-67"/>
      <use xlink:href="#DejaVuSans-61" x="63.476562"/>
      <use xlink:href="#DejaVuSans-69" x="124.755859"/>
      <use xlink:href="#DejaVuSans-6e" x="152.539062"/>
      <use xlink:href="#DejaVuSans-2c" x="215.917969"/>
      <use xlink:href="#DejaVuSans-20" x="247.705078"/>
      <use xlink:href="#DejaVuSans-66" x="279.492188"/>
      <use xlink:href="#DejaVuSans-5f" x="314.697266"/>
      <use xlink:href="#DejaVuSans-73" x="364.697266"/>
      <use xlink:href="#DejaVuSans-20" x="416.796875"/>
      <use xlink:href="#DejaVuSans-3d" x="448.583984"/>
      <use xlink:href="#DejaVuSans-20" x="532.373047"/>
      <use xlink:href="#DejaVuSans-20" x="564.160156"/>
      <use xlink:href="#DejaVuSans-35" x="595.947266"/>
      <use xlink:href="#DejaVuSans-2e" x="659.570312"/>
      <use xlink:href="#DejaVuSans-30" x="691.357422"/>
      <use xlink:href="#DejaVuSans-65" x="754.980469"/>
      <use xlink:href="#DejaVuSans-2b" x="816.503906"/>
      <use xlink:href="#DejaVuSans-30" x="900.292969"/>
      <use xlink:href="#DejaVuSans-36" x="963.916016"/>
     </g>
    </g>
   </g>
  </g>
 </g>
 <defs>
  <clipPath id="pc17db7474e">
   <rect x="60.05" y="26.8" width="433.15" height="281.8"/>
  </clipPath>
 </defs>
</svg>
