<?xml version="1.0" encoding="utf-8" standalone="no"?>
<!DOCTYPE svg PUBLIC "-//W3C//DTD SVG 1.1//EN"
  "http://www.w3.org/Graphics/SVG/1.1/DTD/svg11.dtd">
<svg xmlns:xlink="http://www.w3.org/1999/xlink" width="504pt" height="360pt" viewBox="0 0 504 360" xmlns="http://www.w3.org/2000/svg" version="1.1">
 <metadata>
  <rdf:RDF xmlns:dc="http://purl.org/dc/elements/1.1/" xmlns:cc="http://creativecommons.org/ns#" xmlns:rdf="http://www.w3.org/1999/02/22-rdf-syntax-ns#">
   <cc:Work>
    <dc:type rdf:resource="http://purl.org/dc/dcmitype/StillImage"/>
    <dc:date>2025-09-06T12:38:43.755853</dc:date>
    <dc:format>image/svg+xml</dc:format>
    <dc:creator>
     <cc:Agent>
      <dc:title>Matplotlib v3.9.2, https://matplotlib.org/</dc:title>
     </cc:Agent>
    </dc:creator>
   </cc:Work>
  </rdf:RDF>
 </metadata>
 <defs>
  <style type="text/css">*{stroke-linejoin: round; stroke-linecap: butt}</style>
 </defs>
 <g id="figure_1">
  <g id="patch_1">
   <path d="M 0 360 
L 504 360 
L 504 0 
L 0 0 
z
" style="fill: #ffffff"/>
  </g>
  <g id="axes_1">
   <g id="patch_2">
    <path d="M 387.2 181 
C 387.2 163.245699 383.70279 145.664036 376.908513 129.2612 
C 370.114236 112.858364 360.155024 97.95335 347.600837 85.399163 
C 335.04665 72.844976 320.141636 62.885764 303.7388 56.091487 
C 287.335964 49.29721 269.754301 45.8 252 45.8 
C 234.245699 45.8 216.664036 49.29721 200.2612 56.091487 
C 183.858364 62.885764 168.95335 72.844976 156.399163 85.399163 
C 143.844976 97.95335 133.885764 112.858364 127.091487 129.2612 
C 120.29721 145.664036 116.8 163.245699 116.8 181 
C 116.8 198.754301 120.29721 216.335964 127.091487 232.7388 
C 133.885764 249.141636 143.844976 264.04665 156.399163 276.600837 
C 168.95335 289.155024 183.858364 299.114236 200.2612 305.908513 
C 216.664036 312.70279 234.245699 316.2 252 316.2 
C 269.754301 316.2 287.335964 312.70279 303.7388 305.908513 
C 320.141636 299.114236 335.04665 289.155024 347.600837 276.600837 
C 360.155024 264.04665 370.114236 249.141636 376.908513 232.7388 
C 383.70279 216.335964 387.2 198.754301 387.2 181 
M 252 181 
C 252 181 252 181 252 181 
C 252 181 252 181 252 181 
C 252 181 252 181 252 181 
C 252 181 252 181 252 181 
C 252 181 252 181 252 181 
C 252 181 252 181 252 181 
C 252 181 252 181 252 181 
C 252 181 252 181 252 181 
C 252 181 252 181 252 181 
C 252 181 252 181 252 181 
C 252 181 252 181 252 181 
C 252 181 252 181 252 181 
C 252 181 252 181 252 181 
C 252 181 252 181 252 181 
C 252 181 252 181 252 181 
C 252 181 252 181 252 181 
z
" style="fill: #ffffff"/>
   </g>
   <g id="matplotlib.axis_1">
    <g id="xtick_1">
     <g id="line2d_1">
      <path d="M 252 181 
L 387.2 181 
" clip-path="url(#pc734ecf26c)" style="fill: none; stroke: #808080; stroke-width: 0.8; stroke-linecap: square"/>
     </g>
     <g id="text_1">
      <!-- 0° -->
      <g transform="translate(394.3825 184.31125) scale(0.12 -0.12)">
       <defs>
        <path id="DejaVuSans-30" d="M 2034 4250 
Q 1547 4250 1301 3770 
Q 1056 3291 1056 2328 
Q 1056 1369 1301 889 
Q 1547 409 2034 409 
Q 2525 409 2770 889 
Q 3016 1369 3016 2328 
Q 3016 3291 2770 3770 
Q 2525 4250 2034 4250 
z
M 2034 4750 
Q 2819 4750 3233 4129 
Q 3647 3509 3647 2328 
Q 3647 1150 3233 529 
Q 2819 -91 2034 -91 
Q 1250 -91 836 529 
Q 422 1150 422 2328 
Q 422 3509 836 4129 
Q 1250 4750 2034 4750 
z
" transform="scale(0.015625)"/>
        <path id="DejaVuSans-b0" d="M 1600 4347 
Q 1350 4347 1178 4173 
Q 1006 4000 1006 3750 
Q 1006 3503 1178 3333 
Q 1350 3163 1600 3163 
Q 1850 3163 2022 3333 
Q 2194 3503 2194 3750 
Q 2194 3997 2020 4172 
Q 1847 4347 1600 4347 
z
M 1600 4750 
Q 1800 4750 1984 4673 
Q 2169 4597 2303 4453 
Q 2447 4313 2519 4134 
Q 2591 3956 2591 3750 
Q 2591 3338 2302 3052 
Q 2013 2766 1594 2766 
Q 1172 2766 890 3047 
Q 609 3328 609 3750 
Q 609 4169 896 4459 
Q 1184 4750 1600 4750 
z
" transform="scale(0.015625)"/>
       </defs>
       <use xlink:href="#DejaVuSans-30"/>
       <use xlink:href="#DejaVuSans-b0" x="63.623047"/>
      </g>
     </g>
    </g>
    <g id="xtick_2">
     <g id="line2d_2">
      <path d="M 252 181 
L 347.600837 85.399163 
" clip-path="url(#pc734ecf26c)" style="fill: none; stroke: #808080; stroke-width: 0.8; stroke-linecap: square"/>
     </g>
     <g id="text_2">
      <!-- 45° -->
      <g transform="translate(346.865332 78.810918) scale(0.12 -0.12)">
       <defs>
        <path id="DejaVuSans-34" d="M 2419 4116 
L 825 1625 
L 2419 1625 
L 2419 4116 
z
M 2253 4666 
L 3047 4666 
L 3047 1625 
L 3713 1625 
L 3713 1100 
L 3047 1100 
L 3047 0 
L 2419 0 
L 2419 1100 
L 313 1100 
L 313 1709 
L 2253 4666 
z
" transform="scale(0.015625)"/>
        <path id="DejaVuSans-35" d="M 691 4666 
L 3169 4666 
L 3169 4134 
L 1269 4134 
L 1269 2991 
Q 1406 3038 1543 3061 
Q 1681 3084 1819 3084 
Q 2600 3084 3056 2656 
Q 3513 2228 3513 1497 
Q 3513 744 3044 326 
Q 2575 -91 1722 -91 
Q 1428 -91 1123 -41 
Q 819 9 494 109 
L 494 744 
Q 775 591 1075 516 
Q 1375 441 1709 441 
Q 2250 441 2565 725 
Q 2881 1009 2881 1497 
Q 2881 1984 2565 2268 
Q 2250 2553 1709 2553 
Q 1456 2553 1204 2497 
Q 953 2441 691 2322 
L 691 4666 
z
" transform="scale(0.015625)"/>
       </defs>
       <use xlink:href="#DejaVuSans-34"/>
       <use xlink:href="#DejaVuSans-35" x="63.623047"/>
       <use xlink:href="#DejaVuSans-b0" x="127.246094"/>
      </g>
     </g>
    </g>
    <g id="xtick_3">
     <g id="line2d_3">
      <path d="M 252 181 
L 252 45.8 
" clip-path="url(#pc734ecf26c)" style="fill: none; stroke: #808080; stroke-width: 0.8; stroke-linecap: square"/>
     </g>
     <g id="text_3">
      <!-- 90° -->
      <g transform="translate(241.365 35.11125) scale(0.12 -0.12)">
       <defs>
        <path id="DejaVuSans-39" d="M 703 97 
L 703 672 
Q 941 559 1184 500 
Q 1428 441 1663 441 
Q 2288 441 2617 861 
Q 2947 1281 2994 2138 
Q 2813 1869 2534 1725 
Q 2256 1581 1919 1581 
Q 1219 1581 811 2004 
Q 403 2428 403 3163 
Q 403 3881 828 4315 
Q 1253 4750 1959 4750 
Q 2769 4750 3195 4129 
Q 3622 3509 3622 2328 
Q 3622 1225 3098 567 
Q 2575 -91 1691 -91 
Q 1453 -91 1209 -44 
Q 966 3 703 97 
z
M 1959 2075 
Q 2384 2075 2632 2365 
Q 2881 2656 2881 3163 
Q 2881 3666 2632 3958 
Q 2384 4250 1959 4250 
Q 1534 4250 1286 3958 
Q 1038 3666 1038 3163 
Q 1038 2656 1286 2365 
Q 1534 2075 1959 2075 
z
" transform="scale(0.015625)"/>
       </defs>
       <use xlink:href="#DejaVuSans-39"/>
       <use xlink:href="#DejaVuSans-30" x="63.623047"/>
       <use xlink:href="#DejaVuSans-b0" x="127.246094"/>
      </g>
     </g>
    </g>
    <g id="xtick_4">
     <g id="line2d_4">
      <path d="M 252 181 
L 156.399163 85.399163 
" clip-path="url(#pc734ecf26c)" style="fill: none; stroke: #808080; stroke-width: 0.8; stroke-linecap: square"/>
     </g>
     <g id="text_4">
      <!-- 135° -->
      <g transform="translate(132.047168 78.810918) scale(0.12 -0.12)">
       <defs>
        <path id="DejaVuSans-31" d="M 794 531 
L 1825 531 
L 1825 4091 
L 703 3866 
L 703 4441 
L 1819 4666 
L 2450 4666 
L 2450 531 
L 3481 531 
L 3481 0 
L 794 0 
L 794 531 
z
" transform="scale(0.015625)"/>
        <path id="DejaVuSans-33" d="M 2597 2516 
Q 3050 2419 3304 2112 
Q 3559 1806 3559 1356 
Q 3559 666 3084 287 
Q 2609 -91 1734 -91 
Q 1441 -91 1130 -33 
Q 819 25 488 141 
L 488 750 
Q 750 597 1062 519 
Q 1375 441 1716 441 
Q 2309 441 2620 675 
Q 2931 909 2931 1356 
Q 2931 1769 2642 2001 
Q 2353 2234 1838 2234 
L 1294 2234 
L 1294 2753 
L 1863 2753 
Q 2328 2753 2575 2939 
Q 2822 3125 2822 3475 
Q 2822 3834 2567 4026 
Q 2313 4219 1838 4219 
Q 1578 4219 1281 4162 
Q 984 4106 628 3988 
L 628 4550 
Q 988 4650 1302 4700 
Q 1616 4750 1894 4750 
Q 2613 4750 3031 4423 
Q 3450 4097 3450 3541 
Q 3450 3153 3228 2886 
Q 3006 2619 2597 2516 
z
" transform="scale(0.015625)"/>
       </defs>
       <use xlink:href="#DejaVuSans-31"/>
       <use xlink:href="#DejaVuSans-33" x="63.623047"/>
       <use xlink:href="#DejaVuSans-35" x="127.246094"/>
       <use xlink:href="#DejaVuSans-b0" x="190.869141"/>
      </g>
     </g>
    </g>
    <g id="xtick_5">
     <g id="line2d_5">
      <path d="M 252 181 
L 116.8 181 
" clip-path="url(#pc734ecf26c)" style="fill: none; stroke: #808080; stroke-width: 0.8; stroke-linecap: square"/>
     </g>
     <g id="text_5">
      <!-- 180° -->
      <g transform="translate(88.3475 184.31125) scale(0.12 -0.12)">
       <defs>
        <path id="DejaVuSans-38" d="M 2034 2216 
Q 1584 2216 1326 1975 
Q 1069 1734 1069 1313 
Q 1069 891 1326 650 
Q 1584 409 2034 409 
Q 2484 409 2743 651 
Q 3003 894 3003 1313 
Q 3003 1734 2745 1975 
Q 2488 2216 2034 2216 
z
M 1403 2484 
Q 997 2584 770 2862 
Q 544 3141 544 3541 
Q 544 4100 942 4425 
Q 1341 4750 2034 4750 
Q 2731 4750 3128 4425 
Q 3525 4100 3525 3541 
Q 3525 3141 3298 2862 
Q 3072 2584 2669 2484 
Q 3125 2378 3379 2068 
Q 3634 1759 3634 1313 
Q 3634 634 3220 271 
Q 2806 -91 2034 -91 
Q 1263 -91 848 271 
Q 434 634 434 1313 
Q 434 1759 690 2068 
Q 947 2378 1403 2484 
z
M 1172 3481 
Q 1172 3119 1398 2916 
Q 1625 2713 2034 2713 
Q 2441 2713 2670 2916 
Q 2900 3119 2900 3481 
Q 2900 3844 2670 4047 
Q 2441 4250 2034 4250 
Q 1625 4250 1398 4047 
Q 1172 3844 1172 3481 
z
" transform="scale(0.015625)"/>
       </defs>
       <use xlink:href="#DejaVuSans-31"/>
       <use xlink:href="#DejaVuSans-38" x="63.623047"/>
       <use xlink:href="#DejaVuSans-30" x="127.246094"/>
       <use xlink:href="#DejaVuSans-b0" x="190.869141"/>
      </g>
     </g>
    </g>
    <g id="xtick_6">
     <g id="line2d_6">
      <path d="M 252 181 
L 156.399163 276.600837 
" clip-path="url(#pc734ecf26c)" style="fill: none; stroke: #808080; stroke-width: 0.8; stroke-linecap: square"/>
     </g>
     <g id="text_6">
      <!-- 225° -->
      <g transform="translate(132.047168 289.811582) scale(0.12 -0.12)">
       <defs>
        <path id="DejaVuSans-32" d="M 1228 531 
L 3431 531 
L 3431 0 
L 469 0 
L 469 531 
Q 828 903 1448 1529 
Q 2069 2156 2228 2338 
Q 2531 2678 2651 2914 
Q 2772 3150 2772 3378 
Q 2772 3750 2511 3984 
Q 2250 4219 1831 4219 
Q 1534 4219 1204 4116 
Q 875 4013 500 3803 
L 500 4441 
Q 881 4594 1212 4672 
Q 1544 4750 1819 4750 
Q 2544 4750 2975 4387 
Q 3406 4025 3406 3419 
Q 3406 3131 3298 2873 
Q 3191 2616 2906 2266 
Q 2828 2175 2409 1742 
Q 1991 1309 1228 531 
z
" transform="scale(0.015625)"/>
       </defs>
       <use xlink:href="#DejaVuSans-32"/>
       <use xlink:href="#DejaVuSans-32" x="63.623047"/>
       <use xlink:href="#DejaVuSans-35" x="127.246094"/>
       <use xlink:href="#DejaVuSans-b0" x="190.869141"/>
      </g>
     </g>
    </g>
    <g id="xtick_7">
     <g id="line2d_7">
      <path d="M 252 181 
L 252 316.2 
" clip-path="url(#pc734ecf26c)" style="fill: none; stroke: #808080; stroke-width: 0.8; stroke-linecap: square"/>
     </g>
     <g id="text_7">
      <!-- 270° -->
      <g transform="translate(237.5475 333.51125) scale(0.12 -0.12)">
       <defs>
        <path id="DejaVuSans-37" d="M 525 4666 
L 3525 4666 
L 3525 4397 
L 1831 0 
L 1172 0 
L 2766 4134 
L 525 4134 
L 525 4666 
z
" transform="scale(0.015625)"/>
       </defs>
       <use xlink:href="#DejaVuSans-32"/>
       <use xlink:href="#DejaVuSans-37" x="63.623047"/>
       <use xlink:href="#DejaVuSans-30" x="127.246094"/>
       <use xlink:href="#DejaVuSans-b0" x="190.869141"/>
      </g>
     </g>
    </g>
    <g id="xtick_8">
     <g id="line2d_8">
      <path d="M 252 181 
L 347.600837 276.600837 
" clip-path="url(#pc734ecf26c)" style="fill: none; stroke: #808080; stroke-width: 0.8; stroke-linecap: square"/>
     </g>
     <g id="text_8">
      <!-- 315° -->
      <g transform="translate(343.047832 289.811582) scale(0.12 -0.12)">
       <use xlink:href="#DejaVuSans-33"/>
       <use xlink:href="#DejaVuSans-31" x="63.623047"/>
       <use xlink:href="#DejaVuSans-35" x="127.246094"/>
       <use xlink:href="#DejaVuSans-b0" x="190.869141"/>
      </g>
     </g>
    </g>
    <g id="text_9">
     <!-- frequency [MHz] -->
     <g transform="translate(202.48125 349.125) scale(0.12 -0.12)">
      <defs>
       <path id="DejaVuSans-66" d="M 2375 4863 
L 2375 4384 
L 1825 4384 
Q 1516 4384 1395 4259 
Q 1275 4134 1275 3809 
L 1275 3500 
L 2222 3500 
L 2222 3053 
L 1275 3053 
L 1275 0 
L 697 0 
L 697 3053 
L 147 3053 
L 147 3500 
L 697 3500 
L 697 3744 
Q 697 4328 969 4595 
Q 1241 4863 1831 4863 
L 2375 4863 
z
" transform="scale(0.015625)"/>
       <path id="DejaVuSans-72" d="M 2631 2963 
Q 2534 3019 2420 3045 
Q 2306 3072 2169 3072 
Q 1681 3072 1420 2755 
Q 1159 2438 1159 1844 
L 1159 0 
L 581 0 
L 581 3500 
L 1159 3500 
L 1159 2956 
Q 1341 3275 1631 3429 
Q 1922 3584 2338 3584 
Q 2397 3584 2469 3576 
Q 2541 3569 2628 3553 
L 2631 2963 
z
" transform="scale(0.015625)"/>
       <path id="DejaVuSans-65" d="M 3597 1894 
L 3597 1613 
L 953 1613 
Q 991 1019 1311 708 
Q 1631 397 2203 397 
Q 2534 397 2845 478 
Q 3156 559 3463 722 
L 3463 178 
Q 3153 47 2828 -22 
Q 2503 -91 2169 -91 
Q 1331 -91 842 396 
Q 353 884 353 1716 
Q 353 2575 817 3079 
Q 1281 3584 2069 3584 
Q 2775 3584 3186 3129 
Q 3597 2675 3597 1894 
z
M 3022 2063 
Q 3016 2534 2758 2815 
Q 2500 3097 2075 3097 
Q 1594 3097 1305 2825 
Q 1016 2553 972 2059 
L 3022 2063 
z
" transform="scale(0.015625)"/>
       <path id="DejaVuSans-71" d="M 947 1747 
Q 947 1113 1208 752 
Q 1469 391 1925 391 
Q 2381 391 2643 752 
Q 2906 1113 2906 1747 
Q 2906 2381 2643 2742 
Q 2381 3103 1925 3103 
Q 1469 3103 1208 2742 
Q 947 2381 947 1747 
z
M 2906 525 
Q 2725 213 2448 61 
Q 2172 -91 1784 -91 
Q 1150 -91 751 415 
Q 353 922 353 1747 
Q 353 2572 751 3078 
Q 1150 3584 1784 3584 
Q 2172 3584 2448 3432 
Q 2725 3281 2906 2969 
L 2906 3500 
L 3481 3500 
L 3481 -1331 
L 2906 -1331 
L 2906 525 
z
" transform="scale(0.015625)"/>
       <path id="DejaVuSans-75" d="M 544 1381 
L 544 3500 
L 1119 3500 
L 1119 1403 
Q 1119 906 1312 657 
Q 1506 409 1894 409 
Q 2359 409 2629 706 
Q 2900 1003 2900 1516 
L 2900 3500 
L 3475 3500 
L 3475 0 
L 2900 0 
L 2900 538 
Q 2691 219 2414 64 
Q 2138 -91 1772 -91 
Q 1169 -91 856 284 
Q 544 659 544 1381 
z
M 1991 3584 
L 1991 3584 
z
" transform="scale(0.015625)"/>
       <path id="DejaVuSans-6e" d="M 3513 2113 
L 3513 0 
L 2938 0 
L 2938 2094 
Q 2938 2591 2744 2837 
Q 2550 3084 2163 3084 
Q 1697 3084 1428 2787 
Q 1159 2491 1159 1978 
L 1159 0 
L 581 0 
L 581 3500 
L 1159 3500 
L 1159 2956 
Q 1366 3272 1645 3428 
Q 1925 3584 2291 3584 
Q 2894 3584 3203 3211 
Q 3513 2838 3513 2113 
z
" transform="scale(0.015625)"/>
       <path id="DejaVuSans-63" d="M 3122 3366 
L 3122 2828 
Q 2878 2963 2633 3030 
Q 2388 3097 2138 3097 
Q 1578 3097 1268 2742 
Q 959 2388 959 1747 
Q 959 1106 1268 751 
Q 1578 397 2138 397 
Q 2388 397 2633 464 
Q 2878 531 3122 666 
L 3122 134 
Q 2881 22 2623 -34 
Q 2366 -91 2075 -91 
Q 1284 -91 818 406 
Q 353 903 353 1747 
Q 353 2603 823 3093 
Q 1294 3584 2113 3584 
Q 2378 3584 2631 3529 
Q 2884 3475 3122 3366 
z
" transform="scale(0.015625)"/>
       <path id="DejaVuSans-79" d="M 2059 -325 
Q 1816 -950 1584 -1140 
Q 1353 -1331 966 -1331 
L 506 -1331 
L 506 -850 
L 844 -850 
Q 1081 -850 1212 -737 
Q 1344 -625 1503 -206 
L 1606 56 
L 191 3500 
L 800 3500 
L 1894 763 
L 2988 3500 
L 3597 3500 
L 2059 -325 
z
" transform="scale(0.015625)"/>
       <path id="DejaVuSans-20" transform="scale(0.015625)"/>
       <path id="DejaVuSans-5b" d="M 550 4863 
L 1875 4863 
L 1875 4416 
L 1125 4416 
L 1125 -397 
L 1875 -397 
L 1875 -844 
L 550 -844 
L 550 4863 
z
" transform="scale(0.015625)"/>
       <path id="DejaVuSans-4d" d="M 628 4666 
L 1569 4666 
L 2759 1491 
L 3956 4666 
L 4897 4666 
L 4897 0 
L 4281 0 
L 4281 4097 
L 3078 897 
L 2444 897 
L 1241 4097 
L 1241 0 
L 628 0 
L 628 4666 
z
" transform="scale(0.015625)"/>
       <path id="DejaVuSans-48" d="M 628 4666 
L 1259 4666 
L 1259 2753 
L 3553 2753 
L 3553 4666 
L 4184 4666 
L 4184 0 
L 3553 0 
L 3553 2222 
L 1259 2222 
L 1259 0 
L 628 0 
L 628 4666 
z
" transform="scale(0.015625)"/>
       <path id="DejaVuSans-7a" d="M 353 3500 
L 3084 3500 
L 3084 2975 
L 922 459 
L 3084 459 
L 3084 0 
L 275 0 
L 275 525 
L 2438 3041 
L 353 3041 
L 353 3500 
z
" transform="scale(0.015625)"/>
       <path id="DejaVuSans-5d" d="M 1947 4863 
L 1947 -844 
L 622 -844 
L 622 -397 
L 1369 -397 
L 1369 4416 
L 622 4416 
L 622 4863 
L 1947 4863 
z
" transform="scale(0.015625)"/>
      </defs>
      <use xlink:href="#DejaVuSans-66"/>
      <use xlink:href="#DejaVuSans-72" x="35.205078"/>
      <use xlink:href="#DejaVuSans-65" x="74.068359"/>
      <use xlink:href="#DejaVuSans-71" x="135.591797"/>
      <use xlink:href="#DejaVuSans-75" x="199.068359"/>
      <use xlink:href="#DejaVuSans-65" x="262.447266"/>
      <use xlink:href="#DejaVuSans-6e" x="323.970703"/>
      <use xlink:href="#DejaVuSans-63" x="387.349609"/>
      <use xlink:href="#DejaVuSans-79" x="442.330078"/>
      <use xlink:href="#DejaVuSans-20" x="501.509766"/>
      <use xlink:href="#DejaVuSans-5b" x="533.296875"/>
      <use xlink:href="#DejaVuSans-4d" x="572.310547"/>
      <use xlink:href="#DejaVuSans-48" x="658.589844"/>
      <use xlink:href="#DejaVuSans-7a" x="733.785156"/>
      <use xlink:href="#DejaVuSans-5d" x="786.275391"/>
     </g>
    </g>
   </g>
   <g id="matplotlib.axis_2">
    <g id="ytick_1">
     <g id="line2d_9">
      <path d="M 270.365254 181 
C 270.365254 178.588297 269.890201 176.200045 268.967282 173.971922 
C 268.044363 171.743799 266.691527 169.719136 264.986195 168.013805 
C 263.280864 166.308473 261.256201 164.955637 259.028078 164.032718 
C 256.799955 163.109799 254.411703 162.634746 252 162.634746 
C 249.588297 162.634746 247.200045 163.109799 244.971922 164.032718 
C 242.743799 164.955637 240.719136 166.308473 239.013805 168.013805 
C 237.308473 169.719136 235.955637 171.743799 235.032718 173.971922 
C 234.109799 176.200045 233.634746 178.588297 233.634746 181 
C 233.634746 183.411703 234.109799 185.799955 235.032718 188.028078 
C 235.955637 190.256201 237.308473 192.280864 239.013805 193.986195 
C 240.719136 195.691527 242.743799 197.044363 244.971922 197.967282 
C 247.200045 198.890201 249.588297 199.365254 252 199.365254 
C 254.411703 199.365254 256.799955 198.890201 259.028078 197.967282 
C 261.256201 197.044363 263.280864 195.691527 264.986195 193.986195 
C 266.691527 192.280864 268.044363 190.256201 268.967282 188.028078 
C 269.890201 185.799955 270.365254 183.411703 270.365254 181 
" clip-path="url(#pc734ecf26c)" style="fill: none; stroke: #808080; stroke-width: 0.8; stroke-linecap: square"/>
     </g>
     <g id="text_10">
      <!-- 0.5 -->
      <g transform="translate(268.967282 171.476297) scale(0.12 -0.12)">
       <defs>
        <path id="DejaVuSans-2e" d="M 684 794 
L 1344 794 
L 1344 0 
L 684 0 
L 684 794 
z
" transform="scale(0.015625)"/>
       </defs>
       <use xlink:href="#DejaVuSans-30"/>
       <use xlink:href="#DejaVuSans-2e" x="63.623047"/>
       <use xlink:href="#DejaVuSans-35" x="95.410156"/>
      </g>
     </g>
    </g>
    <g id="ytick_2">
     <g id="line2d_10">
      <path d="M 288.730508 181 
C 288.730508 176.176594 287.780402 171.400089 285.934564 166.943843 
C 284.088727 162.487597 281.383054 158.438272 277.972391 155.027609 
C 274.561728 151.616946 270.512403 148.911273 266.056157 147.065436 
C 261.599911 145.219598 256.823406 144.269492 252 144.269492 
C 247.176594 144.269492 242.400089 145.219598 237.943843 147.065436 
C 233.487597 148.911273 229.438272 151.616946 226.027609 155.027609 
C 222.616946 158.438272 219.911273 162.487597 218.065436 166.943843 
C 216.219598 171.400089 215.269492 176.176594 215.269492 181 
C 215.269492 185.823406 216.219598 190.599911 218.065436 195.056157 
C 219.911273 199.512403 222.616946 203.561728 226.027609 206.972391 
C 229.438272 210.383054 233.487597 213.088727 237.943843 214.934564 
C 242.400089 216.780402 247.176594 217.730508 252 217.730508 
C 256.823406 217.730508 261.599911 216.780402 266.056157 214.934564 
C 270.512403 213.088727 274.561728 210.383054 277.972391 206.972391 
C 281.383054 203.561728 284.088727 199.512403 285.934564 195.056157 
C 287.780402 190.599911 288.730508 185.823406 288.730508 181 
" clip-path="url(#pc734ecf26c)" style="fill: none; stroke: #808080; stroke-width: 0.8; stroke-linecap: square"/>
     </g>
     <g id="text_11">
      <!-- 1.0 -->
      <g transform="translate(285.934564 164.448218) scale(0.12 -0.12)">
       <use xlink:href="#DejaVuSans-31"/>
       <use xlink:href="#DejaVuSans-2e" x="63.623047"/>
       <use xlink:href="#DejaVuSans-30" x="95.410156"/>
      </g>
     </g>
    </g>
    <g id="ytick_3">
     <g id="line2d_11">
      <path d="M 307.095761 181 
C 307.095761 173.764891 305.670603 166.600134 302.901846 159.915765 
C 300.13309 153.231396 296.074581 147.157408 290.958586 142.041414 
C 285.842592 136.925419 279.768604 132.86691 273.084235 130.098154 
C 266.399866 127.329397 259.235109 125.904239 252 125.904239 
C 244.764891 125.904239 237.600134 127.329397 230.915765 130.098154 
C 224.231396 132.86691 218.157408 136.925419 213.041414 142.041414 
C 207.925419 147.157408 203.86691 153.231396 201.098154 159.915765 
C 198.329397 166.600134 196.904239 173.764891 196.904239 181 
C 196.904239 188.235109 198.329397 195.399866 201.098154 202.084235 
C 203.86691 208.768604 207.925419 214.842592 213.041414 219.958586 
C 218.157408 225.074581 224.231396 229.13309 230.915765 231.901846 
C 237.600134 234.670603 244.764891 236.095761 252 236.095761 
C 259.235109 236.095761 266.399866 234.670603 273.084235 231.901846 
C 279.768604 229.13309 285.842592 225.074581 290.958586 219.958586 
C 296.074581 214.842592 300.13309 208.768604 302.901846 202.084235 
C 305.670603 195.399866 307.095761 188.235109 307.095761 181 
" clip-path="url(#pc734ecf26c)" style="fill: none; stroke: #808080; stroke-width: 0.8; stroke-linecap: square"/>
     </g>
     <g id="text_12">
      <!-- 1.5 -->
      <g transform="translate(302.901846 157.42014) scale(0.12 -0.12)">
       <use xlink:href="#DejaVuSans-31"/>
       <use xlink:href="#DejaVuSans-2e" x="63.623047"/>
       <use xlink:href="#DejaVuSans-35" x="95.410156"/>
      </g>
     </g>
    </g>
    <g id="ytick_4">
     <g id="line2d_12">
      <path d="M 325.461015 181 
C 325.461015 171.353188 323.560803 161.800179 319.869128 152.887687 
C 316.177453 143.975194 310.766108 135.876544 303.944782 129.055218 
C 297.123456 122.233892 289.024806 116.822547 280.112313 113.130872 
C 271.199821 109.439197 261.646812 107.538985 252 107.538985 
C 242.353188 107.538985 232.800179 109.439197 223.887687 113.130872 
C 214.975194 116.822547 206.876544 122.233892 200.055218 129.055218 
C 193.233892 135.876544 187.822547 143.975194 184.130872 152.887687 
C 180.439197 161.800179 178.538985 171.353188 178.538985 181 
C 178.538985 190.646812 180.439197 200.199821 184.130872 209.112313 
C 187.822547 218.024806 193.233892 226.123456 200.055218 232.944782 
C 206.876544 239.766108 214.975194 245.177453 223.887687 248.869128 
C 232.800179 252.560803 242.353188 254.461015 252 254.461015 
C 261.646812 254.461015 271.199821 252.560803 280.112313 248.869128 
C 289.024806 245.177453 297.123456 239.766108 303.944782 232.944782 
C 310.766108 226.123456 316.177453 218.024806 319.869128 209.112313 
C 323.560803 200.199821 325.461015 190.646812 325.461015 181 
" clip-path="url(#pc734ecf26c)" style="fill: none; stroke: #808080; stroke-width: 0.8; stroke-linecap: square"/>
     </g>
     <g id="text_13">
      <!-- 2.0 -->
      <g transform="translate(319.869128 150.392062) scale(0.12 -0.12)">
       <use xlink:href="#DejaVuSans-32"/>
       <use xlink:href="#DejaVuSans-2e" x="63.623047"/>
       <use xlink:href="#DejaVuSans-30" x="95.410156"/>
      </g>
     </g>
    </g>
    <g id="ytick_5">
     <g id="line2d_13">
      <path d="M 343.826269 181 
C 343.826269 168.941485 341.451004 157.000224 336.83641 145.859608 
C 332.221816 134.718993 325.457635 124.59568 316.930977 116.069023 
C 308.40432 107.542365 298.281007 100.778184 287.140392 96.16359 
C 275.999776 91.548996 264.058515 89.173731 252 89.173731 
C 239.941485 89.173731 228.000224 91.548996 216.859608 96.16359 
C 205.718993 100.778184 195.59568 107.542365 187.069023 116.069023 
C 178.542365 124.59568 171.778184 134.718993 167.16359 145.859608 
C 162.548996 157.000224 160.173731 168.941485 160.173731 181 
C 160.173731 193.058515 162.548996 204.999776 167.16359 216.140392 
C 171.778184 227.281007 178.542365 237.40432 187.069023 245.930977 
C 195.59568 254.457635 205.718993 261.221816 216.859608 265.83641 
C 228.000224 270.451004 239.941485 272.826269 252 272.826269 
C 264.058515 272.826269 275.999776 270.451004 287.140392 265.83641 
C 298.281007 261.221816 308.40432 254.457635 316.930977 245.930977 
C 325.457635 237.40432 332.221816 227.281007 336.83641 216.140392 
C 341.451004 204.999776 343.826269 193.058515 343.826269 181 
" clip-path="url(#pc734ecf26c)" style="fill: none; stroke: #808080; stroke-width: 0.8; stroke-linecap: square"/>
     </g>
     <g id="text_14">
      <!-- 2.5 -->
      <g transform="translate(336.83641 143.363983) scale(0.12 -0.12)">
       <use xlink:href="#DejaVuSans-32"/>
       <use xlink:href="#DejaVuSans-2e" x="63.623047"/>
       <use xlink:href="#DejaVuSans-35" x="95.410156"/>
      </g>
     </g>
    </g>
    <g id="ytick_6">
     <g id="line2d_14">
      <path d="M 362.191523 181 
C 362.191523 166.529782 359.341205 152.200268 353.803692 138.83153 
C 348.26618 125.462792 340.149162 113.314817 329.917173 103.082827 
C 319.685183 92.850838 307.537208 84.73382 294.16847 79.196308 
C 280.799732 73.658795 266.470218 70.808477 252 70.808477 
C 237.529782 70.808477 223.200268 73.658795 209.83153 79.196308 
C 196.462792 84.73382 184.314817 92.850838 174.082827 103.082827 
C 163.850838 113.314817 155.73382 125.462792 150.196308 138.83153 
C 144.658795 152.200268 141.808477 166.529782 141.808477 181 
C 141.808477 195.470218 144.658795 209.799732 150.196308 223.16847 
C 155.73382 236.537208 163.850838 248.685183 174.082827 258.917173 
C 184.314817 269.149162 196.462792 277.26618 209.83153 282.803692 
C 223.200268 288.341205 237.529782 291.191523 252 291.191523 
C 266.470218 291.191523 280.799732 288.341205 294.16847 282.803692 
C 307.537208 277.26618 319.685183 269.149162 329.917173 258.917173 
C 340.149162 248.685183 348.26618 236.537208 353.803692 223.16847 
C 359.341205 209.799732 362.191523 195.470218 362.191523 181 
" clip-path="url(#pc734ecf26c)" style="fill: none; stroke: #808080; stroke-width: 0.8; stroke-linecap: square"/>
     </g>
     <g id="text_15">
      <!-- 3.0 -->
      <g transform="translate(353.803692 136.335905) scale(0.12 -0.12)">
       <use xlink:href="#DejaVuSans-33"/>
       <use xlink:href="#DejaVuSans-2e" x="63.623047"/>
       <use xlink:href="#DejaVuSans-30" x="95.410156"/>
      </g>
     </g>
    </g>
    <g id="ytick_7">
     <g id="line2d_15">
      <path d="M 380.556776 181 
C 380.556776 164.118079 377.231406 147.400313 370.770974 131.803452 
C 364.310543 116.20659 354.840689 102.033953 342.903368 90.096632 
C 330.966047 78.159311 316.79341 68.689457 301.196548 62.229026 
C 285.599687 55.768594 268.881921 52.443224 252 52.443224 
C 235.118079 52.443224 218.400313 55.768594 202.803452 62.229026 
C 187.20659 68.689457 173.033953 78.159311 161.096632 90.096632 
C 149.159311 102.033953 139.689457 116.20659 133.229026 131.803452 
C 126.768594 147.400313 123.443224 164.118079 123.443224 181 
C 123.443224 197.881921 126.768594 214.599687 133.229026 230.196548 
C 139.689457 245.79341 149.159311 259.966047 161.096632 271.903368 
C 173.033953 283.840689 187.20659 293.310543 202.803452 299.770974 
C 218.400313 306.231406 235.118079 309.556776 252 309.556776 
C 268.881921 309.556776 285.599687 306.231406 301.196548 299.770974 
C 316.79341 293.310543 330.966047 283.840689 342.903368 271.903368 
C 354.840689 259.966047 364.310543 245.79341 370.770974 230.196548 
C 377.231406 214.599687 380.556776 197.881921 380.556776 181 
" clip-path="url(#pc734ecf26c)" style="fill: none; stroke: #808080; stroke-width: 0.8; stroke-linecap: square"/>
     </g>
     <g id="text_16">
      <!-- 3.5 -->
      <g transform="translate(370.770974 129.307827) scale(0.12 -0.12)">
       <use xlink:href="#DejaVuSans-33"/>
       <use xlink:href="#DejaVuSans-2e" x="63.623047"/>
       <use xlink:href="#DejaVuSans-35" x="95.410156"/>
      </g>
     </g>
    </g>
    <g id="text_17">
     <!-- magnitude [] -->
     <g transform="translate(110.304375 220.044063) rotate(-90) scale(0.12 -0.12)">
      <defs>
       <path id="DejaVuSans-6d" d="M 3328 2828 
Q 3544 3216 3844 3400 
Q 4144 3584 4550 3584 
Q 5097 3584 5394 3201 
Q 5691 2819 5691 2113 
L 5691 0 
L 5113 0 
L 5113 2094 
Q 5113 2597 4934 2840 
Q 4756 3084 4391 3084 
Q 3944 3084 3684 2787 
Q 3425 2491 3425 1978 
L 3425 0 
L 2847 0 
L 2847 2094 
Q 2847 2600 2669 2842 
Q 2491 3084 2119 3084 
Q 1678 3084 1418 2786 
Q 1159 2488 1159 1978 
L 1159 0 
L 581 0 
L 581 3500 
L 1159 3500 
L 1159 2956 
Q 1356 3278 1631 3431 
Q 1906 3584 2284 3584 
Q 2666 3584 2933 3390 
Q 3200 3197 3328 2828 
z
" transform="scale(0.015625)"/>
       <path id="DejaVuSans-61" d="M 2194 1759 
Q 1497 1759 1228 1600 
Q 959 1441 959 1056 
Q 959 750 1161 570 
Q 1363 391 1709 391 
Q 2188 391 2477 730 
Q 2766 1069 2766 1631 
L 2766 1759 
L 2194 1759 
z
M 3341 1997 
L 3341 0 
L 2766 0 
L 2766 531 
Q 2569 213 2275 61 
Q 1981 -91 1556 -91 
Q 1019 -91 701 211 
Q 384 513 384 1019 
Q 384 1609 779 1909 
Q 1175 2209 1959 2209 
L 2766 2209 
L 2766 2266 
Q 2766 2663 2505 2880 
Q 2244 3097 1772 3097 
Q 1472 3097 1187 3025 
Q 903 2953 641 2809 
L 641 3341 
Q 956 3463 1253 3523 
Q 1550 3584 1831 3584 
Q 2591 3584 2966 3190 
Q 3341 2797 3341 1997 
z
" transform="scale(0.015625)"/>
       <path id="DejaVuSans-67" d="M 2906 1791 
Q 2906 2416 2648 2759 
Q 2391 3103 1925 3103 
Q 1463 3103 1205 2759 
Q 947 2416 947 1791 
Q 947 1169 1205 825 
Q 1463 481 1925 481 
Q 2391 481 2648 825 
Q 2906 1169 2906 1791 
z
M 3481 434 
Q 3481 -459 3084 -895 
Q 2688 -1331 1869 -1331 
Q 1566 -1331 1297 -1286 
Q 1028 -1241 775 -1147 
L 775 -588 
Q 1028 -725 1275 -790 
Q 1522 -856 1778 -856 
Q 2344 -856 2625 -561 
Q 2906 -266 2906 331 
L 2906 616 
Q 2728 306 2450 153 
Q 2172 0 1784 0 
Q 1141 0 747 490 
Q 353 981 353 1791 
Q 353 2603 747 3093 
Q 1141 3584 1784 3584 
Q 2172 3584 2450 3431 
Q 2728 3278 2906 2969 
L 2906 3500 
L 3481 3500 
L 3481 434 
z
" transform="scale(0.015625)"/>
       <path id="DejaVuSans-69" d="M 603 3500 
L 1178 3500 
L 1178 0 
L 603 0 
L 603 3500 
z
M 603 4863 
L 1178 4863 
L 1178 4134 
L 603 4134 
L 603 4863 
z
" transform="scale(0.015625)"/>
       <path id="DejaVuSans-74" d="M 1172 4494 
L 1172 3500 
L 2356 3500 
L 2356 3053 
L 1172 3053 
L 1172 1153 
Q 1172 725 1289 603 
Q 1406 481 1766 481 
L 2356 481 
L 2356 0 
L 1766 0 
Q 1100 0 847 248 
Q 594 497 594 1153 
L 594 3053 
L 172 3053 
L 172 3500 
L 594 3500 
L 594 4494 
L 1172 4494 
z
" transform="scale(0.015625)"/>
       <path id="DejaVuSans-64" d="M 2906 2969 
L 2906 4863 
L 3481 4863 
L 3481 0 
L 2906 0 
L 2906 525 
Q 2725 213 2448 61 
Q 2172 -91 1784 -91 
Q 1150 -91 751 415 
Q 353 922 353 1747 
Q 353 2572 751 3078 
Q 1150 3584 1784 3584 
Q 2172 3584 2448 3432 
Q 2725 3281 2906 2969 
z
M 947 1747 
Q 947 1113 1208 752 
Q 1469 391 1925 391 
Q 2381 391 2643 752 
Q 2906 1113 2906 1747 
Q 2906 2381 2643 2742 
Q 2381 3103 1925 3103 
Q 1469 3103 1208 2742 
Q 947 2381 947 1747 
z
" transform="scale(0.015625)"/>
      </defs>
      <use xlink:href="#DejaVuSans-6d"/>
      <use xlink:href="#DejaVuSans-61" x="97.412109"/>
      <use xlink:href="#DejaVuSans-67" x="158.691406"/>
      <use xlink:href="#DejaVuSans-6e" x="222.167969"/>
      <use xlink:href="#DejaVuSans-69" x="285.546875"/>
      <use xlink:href="#DejaVuSans-74" x="313.330078"/>
      <use xlink:href="#DejaVuSans-75" x="352.539062"/>
      <use xlink:href="#DejaVuSans-64" x="415.917969"/>
      <use xlink:href="#DejaVuSans-65" x="479.394531"/>
      <use xlink:href="#DejaVuSans-20" x="540.917969"/>
      <use xlink:href="#DejaVuSans-5b" x="572.705078"/>
      <use xlink:href="#DejaVuSans-5d" x="611.71875"/>
     </g>
    </g>
   </g>
   <g id="line2d_16">
    <path d="M 245.882334 309.741646 
L 242.228237 304.713277 
L 238.894669 299.640644 
L 235.879239 294.547884 
L 233.177334 289.458348 
L 230.782263 284.394375 
L 228.68543 279.377089 
L 226.876519 274.426228 
L 225.343699 269.559998 
L 224.073842 264.794962 
L 223.052741 260.145956 
L 222.265339 255.626041 
L 221.695942 251.246474 
L 221.32844 247.016721 
L 221.146505 242.944486 
L 221.164341 237.769992 
L 221.444754 232.895734 
L 221.950591 228.326687 
L 222.646365 224.063529 
L 223.498685 220.103151 
L 224.476582 216.439197 
L 225.832657 212.262076 
L 227.291667 208.511433 
L 228.811236 205.161081 
L 230.664853 201.628598 
L 232.504874 198.579427 
L 234.584404 195.563479 
L 236.821744 192.733109 
L 239.116434 190.203655 
L 241.362412 188.044793 
L 243.804667 186.014436 
L 246.260534 184.278155 
L 248.671634 182.851296 
L 249.723714 182.30782 
L 249.723714 182.30782 
" clip-path="url(#pc734ecf26c)" style="fill: none; stroke: #000000; stroke-width: 2; stroke-linecap: square"/>
   </g>
   <g id="patch_3">
    <path d="M 387.2 181 
C 387.2 163.245699 383.70279 145.664036 376.908513 129.2612 
C 370.114236 112.858364 360.155024 97.95335 347.600837 85.399163 
C 335.04665 72.844976 320.141636 62.885764 303.7388 56.091487 
C 287.335964 49.29721 269.754301 45.8 252 45.8 
C 234.245699 45.8 216.664036 49.29721 200.2612 56.091487 
C 183.858364 62.885764 168.95335 72.844976 156.399163 85.399163 
C 143.844976 97.95335 133.885764 112.858364 127.091487 129.2612 
C 120.29721 145.664036 116.8 163.245699 116.8 181 
C 116.8 198.754301 120.29721 216.335964 127.091487 232.7388 
C 133.885764 249.141636 143.844976 264.04665 156.399163 276.600837 
C 168.95335 289.155024 183.858364 299.114236 200.2612 305.908513 
C 216.664036 312.70279 234.245699 316.2 252 316.2 
C 269.754301 316.2 287.335964 312.70279 303.7388 305.908513 
C 320.141636 299.114236 335.04665 289.155024 347.600837 276.600837 
C 360.155024 264.04665 370.114236 249.141636 376.908513 232.7388 
C 383.70279 216.335964 387.2 198.754301 387.2 181 
" style="fill: none; stroke: #000000; stroke-width: 0.8; stroke-linejoin: miter; stroke-linecap: square"/>
   </g>
   <g id="text_18">
    <!-- Nyquist plot loop gain QVamp -->
    <g transform="translate(162.610313 19.993125) scale(0.12 -0.12)">
     <defs>
      <path id="DejaVuSans-4e" d="M 628 4666 
L 1478 4666 
L 3547 763 
L 3547 4666 
L 4159 4666 
L 4159 0 
L 3309 0 
L 1241 3903 
L 1241 0 
L 628 0 
L 628 4666 
z
" transform="scale(0.015625)"/>
      <path id="DejaVuSans-73" d="M 2834 3397 
L 2834 2853 
Q 2591 2978 2328 3040 
Q 2066 3103 1784 3103 
Q 1356 3103 1142 2972 
Q 928 2841 928 2578 
Q 928 2378 1081 2264 
Q 1234 2150 1697 2047 
L 1894 2003 
Q 2506 1872 2764 1633 
Q 3022 1394 3022 966 
Q 3022 478 2636 193 
Q 2250 -91 1575 -91 
Q 1294 -91 989 -36 
Q 684 19 347 128 
L 347 722 
Q 666 556 975 473 
Q 1284 391 1588 391 
Q 1994 391 2212 530 
Q 2431 669 2431 922 
Q 2431 1156 2273 1281 
Q 2116 1406 1581 1522 
L 1381 1569 
Q 847 1681 609 1914 
Q 372 2147 372 2553 
Q 372 3047 722 3315 
Q 1072 3584 1716 3584 
Q 2034 3584 2315 3537 
Q 2597 3491 2834 3397 
z
" transform="scale(0.015625)"/>
      <path id="DejaVuSans-70" d="M 1159 525 
L 1159 -1331 
L 581 -1331 
L 581 3500 
L 1159 3500 
L 1159 2969 
Q 1341 3281 1617 3432 
Q 1894 3584 2278 3584 
Q 2916 3584 3314 3078 
Q 3713 2572 3713 1747 
Q 3713 922 3314 415 
Q 2916 -91 2278 -91 
Q 1894 -91 1617 61 
Q 1341 213 1159 525 
z
M 3116 1747 
Q 3116 2381 2855 2742 
Q 2594 3103 2138 3103 
Q 1681 3103 1420 2742 
Q 1159 2381 1159 1747 
Q 1159 1113 1420 752 
Q 1681 391 2138 391 
Q 2594 391 2855 752 
Q 3116 1113 3116 1747 
z
" transform="scale(0.015625)"/>
      <path id="DejaVuSans-6c" d="M 603 4863 
L 1178 4863 
L 1178 0 
L 603 0 
L 603 4863 
z
" transform="scale(0.015625)"/>
      <path id="DejaVuSans-6f" d="M 1959 3097 
Q 1497 3097 1228 2736 
Q 959 2375 959 1747 
Q 959 1119 1226 758 
Q 1494 397 1959 397 
Q 2419 397 2687 759 
Q 2956 1122 2956 1747 
Q 2956 2369 2687 2733 
Q 2419 3097 1959 3097 
z
M 1959 3584 
Q 2709 3584 3137 3096 
Q 3566 2609 3566 1747 
Q 3566 888 3137 398 
Q 2709 -91 1959 -91 
Q 1206 -91 779 398 
Q 353 888 353 1747 
Q 353 2609 779 3096 
Q 1206 3584 1959 3584 
z
" transform="scale(0.015625)"/>
      <path id="DejaVuSans-51" d="M 2522 4238 
Q 1834 4238 1429 3725 
Q 1025 3213 1025 2328 
Q 1025 1447 1429 934 
Q 1834 422 2522 422 
Q 3209 422 3611 934 
Q 4013 1447 4013 2328 
Q 4013 3213 3611 3725 
Q 3209 4238 2522 4238 
z
M 3406 84 
L 4238 -825 
L 3475 -825 
L 2784 -78 
Q 2681 -84 2626 -87 
Q 2572 -91 2522 -91 
Q 1538 -91 948 567 
Q 359 1225 359 2328 
Q 359 3434 948 4092 
Q 1538 4750 2522 4750 
Q 3503 4750 4090 4092 
Q 4678 3434 4678 2328 
Q 4678 1516 4351 937 
Q 4025 359 3406 84 
z
" transform="scale(0.015625)"/>
      <path id="DejaVuSans-56" d="M 1831 0 
L 50 4666 
L 709 4666 
L 2188 738 
L 3669 4666 
L 4325 4666 
L 2547 0 
L 1831 0 
z
" transform="scale(0.015625)"/>
     </defs>
     <use xlink:href="#DejaVuSans-4e"/>
     <use xlink:href="#DejaVuSans-79" x="74.804688"/>
     <use xlink:href="#DejaVuSans-71" x="133.984375"/>
     <use xlink:href="#DejaVuSans-75" x="197.460938"/>
     <use xlink:href="#DejaVuSans-69" x="260.839844"/>
     <use xlink:href="#DejaVuSans-73" x="288.623047"/>
     <use xlink:href="#DejaVuSans-74" x="340.722656"/>
     <use xlink:href="#DejaVuSans-20" x="379.931641"/>
     <use xlink:href="#DejaVuSans-70" x="411.71875"/>
     <use xlink:href="#DejaVuSans-6c" x="475.195312"/>
     <use xlink:href="#DejaVuSans-6f" x="502.978516"/>
     <use xlink:href="#DejaVuSans-74" x="564.160156"/>
     <use xlink:href="#DejaVuSans-20" x="603.369141"/>
     <use xlink:href="#DejaVuSans-6c" x="635.15625"/>
     <use xlink:href="#DejaVuSans-6f" x="662.939453"/>
     <use xlink:href="#DejaVuSans-6f" x="724.121094"/>
     <use xlink:href="#DejaVuSans-70" x="785.302734"/>
     <use xlink:href="#DejaVuSans-20" x="848.779297"/>
     <use xlink:href="#DejaVuSans-67" x="880.566406"/>
     <use xlink:href="#DejaVuSans-61" x="944.042969"/>
     <use xlink:href="#DejaVuSans-69" x="1005.322266"/>
     <use xlink:href="#DejaVuSans-6e" x="1033.105469"/>
     <use xlink:href="#DejaVuSans-20" x="1096.484375"/>
     <use xlink:href="#DejaVuSans-51" x="1128.271484"/>
     <use xlink:href="#DejaVuSans-56" x="1206.982422"/>
     <use xlink:href="#DejaVuSans-61" x="1267.640625"/>
     <use xlink:href="#DejaVuSans-6d" x="1328.919922"/>
     <use xlink:href="#DejaVuSans-70" x="1426.332031"/>
    </g>
   </g>
   <g id="legend_1">
    <g id="patch_4">
     <path d="M 316.6525 66.41375 
L 380.2 66.41375 
Q 382.2 66.41375 382.2 64.41375 
L 382.2 52.8 
Q 382.2 50.8 380.2 50.8 
L 316.6525 50.8 
Q 314.6525 50.8 314.6525 52.8 
L 314.6525 64.41375 
Q 314.6525 66.41375 316.6525 66.41375 
z
" style="fill: #ffffff; opacity: 0.8; stroke: #cccccc; stroke-linejoin: miter"/>
    </g>
    <g id="line2d_17">
     <path d="M 316.6525 58.418125 
L 321.6525 58.418125 
L 326.6525 58.418125 
" style="fill: none; stroke: #000000; stroke-width: 2; stroke-linecap: square"/>
    </g>
    <g id="text_19">
     <!-- loopgain -->
     <g transform="translate(328.6525 61.918125) scale(0.12 -0.12)">
      <use xlink:href="#DejaVuSans-6c"/>
      <use xlink:href="#DejaVuSans-6f" x="27.783203"/>
      <use xlink:href="#DejaVuSans-6f" x="88.964844"/>
      <use xlink:href="#DejaVuSans-70" x="150.146484"/>
      <use xlink:href="#DejaVuSans-67" x="213.623047"/>
      <use xlink:href="#DejaVuSans-61" x="277.099609"/>
      <use xlink:href="#DejaVuSans-69" x="338.378906"/>
      <use xlink:href="#DejaVuSans-6e" x="366.162109"/>
     </g>
    </g>
   </g>
  </g>
 </g>
 <defs>
  <clipPath id="pc734ecf26c">
   <path d="M 387.2 181 
C 387.2 163.245699 383.70279 145.664036 376.908513 129.2612 
C 370.114236 112.858364 360.155024 97.95335 347.600837 85.399163 
C 335.04665 72.844976 320.141636 62.885764 303.7388 56.091487 
C 287.335964 49.29721 269.754301 45.8 252 45.8 
C 234.245699 45.8 216.664036 49.29721 200.2612 56.091487 
C 183.858364 62.885764 168.95335 72.844976 156.399163 85.399163 
C 143.844976 97.95335 133.885764 112.858364 127.091487 129.2612 
C 120.29721 145.664036 116.8 163.245699 116.8 181 
C 116.8 198.754301 120.29721 216.335964 127.091487 232.7388 
C 133.885764 249.141636 143.844976 264.04665 156.399163 276.600837 
C 168.95335 289.155024 183.858364 299.114236 200.2612 305.908513 
C 216.664036 312.70279 234.245699 316.2 252 316.2 
C 269.754301 316.2 287.335964 312.70279 303.7388 305.908513 
C 320.141636 299.114236 335.04665 289.155024 347.600837 276.600837 
C 360.155024 264.04665 370.114236 249.141636 376.908513 232.7388 
C 383.70279 216.335964 387.2 198.754301 387.2 181 
M 252 181 
C 252 181 252 181 252 181 
C 252 181 252 181 252 181 
C 252 181 252 181 252 181 
C 252 181 252 181 252 181 
C 252 181 252 181 252 181 
C 252 181 252 181 252 181 
C 252 181 252 181 252 181 
C 252 181 252 181 252 181 
C 252 181 252 181 252 181 
C 252 181 252 181 252 181 
C 252 181 252 181 252 181 
C 252 181 252 181 252 181 
C 252 181 252 181 252 181 
C 252 181 252 181 252 181 
C 252 181 252 181 252 181 
C 252 181 252 181 252 181 
z
"/>
  </clipPath>
 </defs>
</svg>
