<?xml version="1.0" encoding="utf-8" standalone="no"?>
<!DOCTYPE svg PUBLIC "-//W3C//DTD SVG 1.1//EN"
  "http://www.w3.org/Graphics/SVG/1.1/DTD/svg11.dtd">
<svg xmlns:xlink="http://www.w3.org/1999/xlink" width="504pt" height="360pt" viewBox="0 0 504 360" xmlns="http://www.w3.org/2000/svg" version="1.1">
 <metadata>
  <rdf:RDF xmlns:dc="http://purl.org/dc/elements/1.1/" xmlns:cc="http://creativecommons.org/ns#" xmlns:rdf="http://www.w3.org/1999/02/22-rdf-syntax-ns#">
   <cc:Work>
    <dc:type rdf:resource="http://purl.org/dc/dcmitype/StillImage"/>
    <dc:date>2025-08-13T13:38:22.454942</dc:date>
    <dc:format>image/svg+xml</dc:format>
    <dc:creator>
     <cc:Agent>
      <dc:title>Matplotlib v3.9.2, https://matplotlib.org/</dc:title>
     </cc:Agent>
    </dc:creator>
   </cc:Work>
  </rdf:RDF>
 </metadata>
 <defs>
  <style type="text/css">*{stroke-linejoin: round; stroke-linecap: butt}</style>
 </defs>
 <g id="figure_1">
  <g id="patch_1">
   <path d="M 0 360 
L 504 360 
L 504 0 
L 0 0 
z
" style="fill: #ffffff"/>
  </g>
  <g id="axes_1">
   <g id="patch_2">
    <path d="M 387.08 181 
C 387.08 163.261457 383.585894 145.695399 376.797647 129.307122 
C 370.009401 112.918845 360.059028 98.02706 347.515984 85.484016 
C 334.97294 72.940972 320.081155 62.990599 303.692878 56.202353 
C 287.304601 49.414106 269.738543 45.92 252 45.92 
C 234.261457 45.92 216.695399 49.414106 200.307122 56.202353 
C 183.918845 62.990599 169.02706 72.940972 156.484016 85.484016 
C 143.940972 98.02706 133.990599 112.918845 127.202353 129.307122 
C 120.414106 145.695399 116.92 163.261457 116.92 181 
C 116.92 198.738543 120.414106 216.304601 127.202353 232.692878 
C 133.990599 249.081155 143.940972 263.97294 156.484016 276.515984 
C 169.02706 289.059028 183.918845 299.009401 200.307122 305.797647 
C 216.695399 312.585894 234.261457 316.08 252 316.08 
C 269.738543 316.08 287.304601 312.585894 303.692878 305.797647 
C 320.081155 299.009401 334.97294 289.059028 347.515984 276.515984 
C 360.059028 263.97294 370.009401 249.081155 376.797647 232.692878 
C 383.585894 216.304601 387.08 198.738543 387.08 181 
M 252 181 
C 252 181 252 181 252 181 
C 252 181 252 181 252 181 
C 252 181 252 181 252 181 
C 252 181 252 181 252 181 
C 252 181 252 181 252 181 
C 252 181 252 181 252 181 
C 252 181 252 181 252 181 
C 252 181 252 181 252 181 
C 252 181 252 181 252 181 
C 252 181 252 181 252 181 
C 252 181 252 181 252 181 
C 252 181 252 181 252 181 
C 252 181 252 181 252 181 
C 252 181 252 181 252 181 
C 252 181 252 181 252 181 
C 252 181 252 181 252 181 
z
" style="fill: #ffffff"/>
   </g>
   <g id="matplotlib.axis_1">
    <g id="xtick_1">
     <g id="line2d_1">
      <path d="M 252 181 
L 387.08 181 
" clip-path="url(#p07f3078fe3)" style="fill: none; stroke: #808080; stroke-width: 0.8; stroke-linecap: square"/>
     </g>
     <g id="text_1">
      <!-- 0° -->
      <g transform="translate(394.2625 184.31125) scale(0.12 -0.12)">
       <defs>
        <path id="DejaVuSans-30" d="M 2034 4250 
Q 1547 4250 1301 3770 
Q 1056 3291 1056 2328 
Q 1056 1369 1301 889 
Q 1547 409 2034 409 
Q 2525 409 2770 889 
Q 3016 1369 3016 2328 
Q 3016 3291 2770 3770 
Q 2525 4250 2034 4250 
z
M 2034 4750 
Q 2819 4750 3233 4129 
Q 3647 3509 3647 2328 
Q 3647 1150 3233 529 
Q 2819 -91 2034 -91 
Q 1250 -91 836 529 
Q 422 1150 422 2328 
Q 422 3509 836 4129 
Q 1250 4750 2034 4750 
z
" transform="scale(0.015625)"/>
        <path id="DejaVuSans-b0" d="M 1600 4347 
Q 1350 4347 1178 4173 
Q 1006 4000 1006 3750 
Q 1006 3503 1178 3333 
Q 1350 3163 1600 3163 
Q 1850 3163 2022 3333 
Q 2194 3503 2194 3750 
Q 2194 3997 2020 4172 
Q 1847 4347 1600 4347 
z
M 1600 4750 
Q 1800 4750 1984 4673 
Q 2169 4597 2303 4453 
Q 2447 4313 2519 4134 
Q 2591 3956 2591 3750 
Q 2591 3338 2302 3052 
Q 2013 2766 1594 2766 
Q 1172 2766 890 3047 
Q 609 3328 609 3750 
Q 609 4169 896 4459 
Q 1184 4750 1600 4750 
z
" transform="scale(0.015625)"/>
       </defs>
       <use xlink:href="#DejaVuSans-30"/>
       <use xlink:href="#DejaVuSans-b0" x="63.623047"/>
      </g>
     </g>
    </g>
    <g id="xtick_2">
     <g id="line2d_2">
      <path d="M 252 181 
L 347.515984 85.484016 
" clip-path="url(#p07f3078fe3)" style="fill: none; stroke: #808080; stroke-width: 0.8; stroke-linecap: square"/>
     </g>
     <g id="text_2">
      <!-- 45° -->
      <g transform="translate(346.780479 78.895771) scale(0.12 -0.12)">
       <defs>
        <path id="DejaVuSans-34" d="M 2419 4116 
L 825 1625 
L 2419 1625 
L 2419 4116 
z
M 2253 4666 
L 3047 4666 
L 3047 1625 
L 3713 1625 
L 3713 1100 
L 3047 1100 
L 3047 0 
L 2419 0 
L 2419 1100 
L 313 1100 
L 313 1709 
L 2253 4666 
z
" transform="scale(0.015625)"/>
        <path id="DejaVuSans-35" d="M 691 4666 
L 3169 4666 
L 3169 4134 
L 1269 4134 
L 1269 2991 
Q 1406 3038 1543 3061 
Q 1681 3084 1819 3084 
Q 2600 3084 3056 2656 
Q 3513 2228 3513 1497 
Q 3513 744 3044 326 
Q 2575 -91 1722 -91 
Q 1428 -91 1123 -41 
Q 819 9 494 109 
L 494 744 
Q 775 591 1075 516 
Q 1375 441 1709 441 
Q 2250 441 2565 725 
Q 2881 1009 2881 1497 
Q 2881 1984 2565 2268 
Q 2250 2553 1709 2553 
Q 1456 2553 1204 2497 
Q 953 2441 691 2322 
L 691 4666 
z
" transform="scale(0.015625)"/>
       </defs>
       <use xlink:href="#DejaVuSans-34"/>
       <use xlink:href="#DejaVuSans-35" x="63.623047"/>
       <use xlink:href="#DejaVuSans-b0" x="127.246094"/>
      </g>
     </g>
    </g>
    <g id="xtick_3">
     <g id="line2d_3">
      <path d="M 252 181 
L 252 45.92 
" clip-path="url(#p07f3078fe3)" style="fill: none; stroke: #808080; stroke-width: 0.8; stroke-linecap: square"/>
     </g>
     <g id="text_3">
      <!-- 90° -->
      <g transform="translate(241.365 35.23125) scale(0.12 -0.12)">
       <defs>
        <path id="DejaVuSans-39" d="M 703 97 
L 703 672 
Q 941 559 1184 500 
Q 1428 441 1663 441 
Q 2288 441 2617 861 
Q 2947 1281 2994 2138 
Q 2813 1869 2534 1725 
Q 2256 1581 1919 1581 
Q 1219 1581 811 2004 
Q 403 2428 403 3163 
Q 403 3881 828 4315 
Q 1253 4750 1959 4750 
Q 2769 4750 3195 4129 
Q 3622 3509 3622 2328 
Q 3622 1225 3098 567 
Q 2575 -91 1691 -91 
Q 1453 -91 1209 -44 
Q 966 3 703 97 
z
M 1959 2075 
Q 2384 2075 2632 2365 
Q 2881 2656 2881 3163 
Q 2881 3666 2632 3958 
Q 2384 4250 1959 4250 
Q 1534 4250 1286 3958 
Q 1038 3666 1038 3163 
Q 1038 2656 1286 2365 
Q 1534 2075 1959 2075 
z
" transform="scale(0.015625)"/>
       </defs>
       <use xlink:href="#DejaVuSans-39"/>
       <use xlink:href="#DejaVuSans-30" x="63.623047"/>
       <use xlink:href="#DejaVuSans-b0" x="127.246094"/>
      </g>
     </g>
    </g>
    <g id="xtick_4">
     <g id="line2d_4">
      <path d="M 252 181 
L 156.484016 85.484016 
" clip-path="url(#p07f3078fe3)" style="fill: none; stroke: #808080; stroke-width: 0.8; stroke-linecap: square"/>
     </g>
     <g id="text_4">
      <!-- 135° -->
      <g transform="translate(132.132021 78.895771) scale(0.12 -0.12)">
       <defs>
        <path id="DejaVuSans-31" d="M 794 531 
L 1825 531 
L 1825 4091 
L 703 3866 
L 703 4441 
L 1819 4666 
L 2450 4666 
L 2450 531 
L 3481 531 
L 3481 0 
L 794 0 
L 794 531 
z
" transform="scale(0.015625)"/>
        <path id="DejaVuSans-33" d="M 2597 2516 
Q 3050 2419 3304 2112 
Q 3559 1806 3559 1356 
Q 3559 666 3084 287 
Q 2609 -91 1734 -91 
Q 1441 -91 1130 -33 
Q 819 25 488 141 
L 488 750 
Q 750 597 1062 519 
Q 1375 441 1716 441 
Q 2309 441 2620 675 
Q 2931 909 2931 1356 
Q 2931 1769 2642 2001 
Q 2353 2234 1838 2234 
L 1294 2234 
L 1294 2753 
L 1863 2753 
Q 2328 2753 2575 2939 
Q 2822 3125 2822 3475 
Q 2822 3834 2567 4026 
Q 2313 4219 1838 4219 
Q 1578 4219 1281 4162 
Q 984 4106 628 3988 
L 628 4550 
Q 988 4650 1302 4700 
Q 1616 4750 1894 4750 
Q 2613 4750 3031 4423 
Q 3450 4097 3450 3541 
Q 3450 3153 3228 2886 
Q 3006 2619 2597 2516 
z
" transform="scale(0.015625)"/>
       </defs>
       <use xlink:href="#DejaVuSans-31"/>
       <use xlink:href="#DejaVuSans-33" x="63.623047"/>
       <use xlink:href="#DejaVuSans-35" x="127.246094"/>
       <use xlink:href="#DejaVuSans-b0" x="190.869141"/>
      </g>
     </g>
    </g>
    <g id="xtick_5">
     <g id="line2d_5">
      <path d="M 252 181 
L 116.92 181 
" clip-path="url(#p07f3078fe3)" style="fill: none; stroke: #808080; stroke-width: 0.8; stroke-linecap: square"/>
     </g>
     <g id="text_5">
      <!-- 180° -->
      <g transform="translate(88.4675 184.31125) scale(0.12 -0.12)">
       <defs>
        <path id="DejaVuSans-38" d="M 2034 2216 
Q 1584 2216 1326 1975 
Q 1069 1734 1069 1313 
Q 1069 891 1326 650 
Q 1584 409 2034 409 
Q 2484 409 2743 651 
Q 3003 894 3003 1313 
Q 3003 1734 2745 1975 
Q 2488 2216 2034 2216 
z
M 1403 2484 
Q 997 2584 770 2862 
Q 544 3141 544 3541 
Q 544 4100 942 4425 
Q 1341 4750 2034 4750 
Q 2731 4750 3128 4425 
Q 3525 4100 3525 3541 
Q 3525 3141 3298 2862 
Q 3072 2584 2669 2484 
Q 3125 2378 3379 2068 
Q 3634 1759 3634 1313 
Q 3634 634 3220 271 
Q 2806 -91 2034 -91 
Q 1263 -91 848 271 
Q 434 634 434 1313 
Q 434 1759 690 2068 
Q 947 2378 1403 2484 
z
M 1172 3481 
Q 1172 3119 1398 2916 
Q 1625 2713 2034 2713 
Q 2441 2713 2670 2916 
Q 2900 3119 2900 3481 
Q 2900 3844 2670 4047 
Q 2441 4250 2034 4250 
Q 1625 4250 1398 4047 
Q 1172 3844 1172 3481 
z
" transform="scale(0.015625)"/>
       </defs>
       <use xlink:href="#DejaVuSans-31"/>
       <use xlink:href="#DejaVuSans-38" x="63.623047"/>
       <use xlink:href="#DejaVuSans-30" x="127.246094"/>
       <use xlink:href="#DejaVuSans-b0" x="190.869141"/>
      </g>
     </g>
    </g>
    <g id="xtick_6">
     <g id="line2d_6">
      <path d="M 252 181 
L 156.484016 276.515984 
" clip-path="url(#p07f3078fe3)" style="fill: none; stroke: #808080; stroke-width: 0.8; stroke-linecap: square"/>
     </g>
     <g id="text_6">
      <!-- 225° -->
      <g transform="translate(132.132021 289.726729) scale(0.12 -0.12)">
       <defs>
        <path id="DejaVuSans-32" d="M 1228 531 
L 3431 531 
L 3431 0 
L 469 0 
L 469 531 
Q 828 903 1448 1529 
Q 2069 2156 2228 2338 
Q 2531 2678 2651 2914 
Q 2772 3150 2772 3378 
Q 2772 3750 2511 3984 
Q 2250 4219 1831 4219 
Q 1534 4219 1204 4116 
Q 875 4013 500 3803 
L 500 4441 
Q 881 4594 1212 4672 
Q 1544 4750 1819 4750 
Q 2544 4750 2975 4387 
Q 3406 4025 3406 3419 
Q 3406 3131 3298 2873 
Q 3191 2616 2906 2266 
Q 2828 2175 2409 1742 
Q 1991 1309 1228 531 
z
" transform="scale(0.015625)"/>
       </defs>
       <use xlink:href="#DejaVuSans-32"/>
       <use xlink:href="#DejaVuSans-32" x="63.623047"/>
       <use xlink:href="#DejaVuSans-35" x="127.246094"/>
       <use xlink:href="#DejaVuSans-b0" x="190.869141"/>
      </g>
     </g>
    </g>
    <g id="xtick_7">
     <g id="line2d_7">
      <path d="M 252 181 
L 252 316.08 
" clip-path="url(#p07f3078fe3)" style="fill: none; stroke: #808080; stroke-width: 0.8; stroke-linecap: square"/>
     </g>
     <g id="text_7">
      <!-- 270° -->
      <g transform="translate(237.5475 333.39125) scale(0.12 -0.12)">
       <defs>
        <path id="DejaVuSans-37" d="M 525 4666 
L 3525 4666 
L 3525 4397 
L 1831 0 
L 1172 0 
L 2766 4134 
L 525 4134 
L 525 4666 
z
" transform="scale(0.015625)"/>
       </defs>
       <use xlink:href="#DejaVuSans-32"/>
       <use xlink:href="#DejaVuSans-37" x="63.623047"/>
       <use xlink:href="#DejaVuSans-30" x="127.246094"/>
       <use xlink:href="#DejaVuSans-b0" x="190.869141"/>
      </g>
     </g>
    </g>
    <g id="xtick_8">
     <g id="line2d_8">
      <path d="M 252 181 
L 347.515984 276.515984 
" clip-path="url(#p07f3078fe3)" style="fill: none; stroke: #808080; stroke-width: 0.8; stroke-linecap: square"/>
     </g>
     <g id="text_8">
      <!-- 315° -->
      <g transform="translate(342.962979 289.726729) scale(0.12 -0.12)">
       <use xlink:href="#DejaVuSans-33"/>
       <use xlink:href="#DejaVuSans-31" x="63.623047"/>
       <use xlink:href="#DejaVuSans-35" x="127.246094"/>
       <use xlink:href="#DejaVuSans-b0" x="190.869141"/>
      </g>
     </g>
    </g>
    <g id="text_9">
     <!-- frequency [MHz] -->
     <g transform="translate(202.48125 349.005) scale(0.12 -0.12)">
      <defs>
       <path id="DejaVuSans-66" d="M 2375 4863 
L 2375 4384 
L 1825 4384 
Q 1516 4384 1395 4259 
Q 1275 4134 1275 3809 
L 1275 3500 
L 2222 3500 
L 2222 3053 
L 1275 3053 
L 1275 0 
L 697 0 
L 697 3053 
L 147 3053 
L 147 3500 
L 697 3500 
L 697 3744 
Q 697 4328 969 4595 
Q 1241 4863 1831 4863 
L 2375 4863 
z
" transform="scale(0.015625)"/>
       <path id="DejaVuSans-72" d="M 2631 2963 
Q 2534 3019 2420 3045 
Q 2306 3072 2169 3072 
Q 1681 3072 1420 2755 
Q 1159 2438 1159 1844 
L 1159 0 
L 581 0 
L 581 3500 
L 1159 3500 
L 1159 2956 
Q 1341 3275 1631 3429 
Q 1922 3584 2338 3584 
Q 2397 3584 2469 3576 
Q 2541 3569 2628 3553 
L 2631 2963 
z
" transform="scale(0.015625)"/>
       <path id="DejaVuSans-65" d="M 3597 1894 
L 3597 1613 
L 953 1613 
Q 991 1019 1311 708 
Q 1631 397 2203 397 
Q 2534 397 2845 478 
Q 3156 559 3463 722 
L 3463 178 
Q 3153 47 2828 -22 
Q 2503 -91 2169 -91 
Q 1331 -91 842 396 
Q 353 884 353 1716 
Q 353 2575 817 3079 
Q 1281 3584 2069 3584 
Q 2775 3584 3186 3129 
Q 3597 2675 3597 1894 
z
M 3022 2063 
Q 3016 2534 2758 2815 
Q 2500 3097 2075 3097 
Q 1594 3097 1305 2825 
Q 1016 2553 972 2059 
L 3022 2063 
z
" transform="scale(0.015625)"/>
       <path id="DejaVuSans-71" d="M 947 1747 
Q 947 1113 1208 752 
Q 1469 391 1925 391 
Q 2381 391 2643 752 
Q 2906 1113 2906 1747 
Q 2906 2381 2643 2742 
Q 2381 3103 1925 3103 
Q 1469 3103 1208 2742 
Q 947 2381 947 1747 
z
M 2906 525 
Q 2725 213 2448 61 
Q 2172 -91 1784 -91 
Q 1150 -91 751 415 
Q 353 922 353 1747 
Q 353 2572 751 3078 
Q 1150 3584 1784 3584 
Q 2172 3584 2448 3432 
Q 2725 3281 2906 2969 
L 2906 3500 
L 3481 3500 
L 3481 -1331 
L 2906 -1331 
L 2906 525 
z
" transform="scale(0.015625)"/>
       <path id="DejaVuSans-75" d="M 544 1381 
L 544 3500 
L 1119 3500 
L 1119 1403 
Q 1119 906 1312 657 
Q 1506 409 1894 409 
Q 2359 409 2629 706 
Q 2900 1003 2900 1516 
L 2900 3500 
L 3475 3500 
L 3475 0 
L 2900 0 
L 2900 538 
Q 2691 219 2414 64 
Q 2138 -91 1772 -91 
Q 1169 -91 856 284 
Q 544 659 544 1381 
z
M 1991 3584 
L 1991 3584 
z
" transform="scale(0.015625)"/>
       <path id="DejaVuSans-6e" d="M 3513 2113 
L 3513 0 
L 2938 0 
L 2938 2094 
Q 2938 2591 2744 2837 
Q 2550 3084 2163 3084 
Q 1697 3084 1428 2787 
Q 1159 2491 1159 1978 
L 1159 0 
L 581 0 
L 581 3500 
L 1159 3500 
L 1159 2956 
Q 1366 3272 1645 3428 
Q 1925 3584 2291 3584 
Q 2894 3584 3203 3211 
Q 3513 2838 3513 2113 
z
" transform="scale(0.015625)"/>
       <path id="DejaVuSans-63" d="M 3122 3366 
L 3122 2828 
Q 2878 2963 2633 3030 
Q 2388 3097 2138 3097 
Q 1578 3097 1268 2742 
Q 959 2388 959 1747 
Q 959 1106 1268 751 
Q 1578 397 2138 397 
Q 2388 397 2633 464 
Q 2878 531 3122 666 
L 3122 134 
Q 2881 22 2623 -34 
Q 2366 -91 2075 -91 
Q 1284 -91 818 406 
Q 353 903 353 1747 
Q 353 2603 823 3093 
Q 1294 3584 2113 3584 
Q 2378 3584 2631 3529 
Q 2884 3475 3122 3366 
z
" transform="scale(0.015625)"/>
       <path id="DejaVuSans-79" d="M 2059 -325 
Q 1816 -950 1584 -1140 
Q 1353 -1331 966 -1331 
L 506 -1331 
L 506 -850 
L 844 -850 
Q 1081 -850 1212 -737 
Q 1344 -625 1503 -206 
L 1606 56 
L 191 3500 
L 800 3500 
L 1894 763 
L 2988 3500 
L 3597 3500 
L 2059 -325 
z
" transform="scale(0.015625)"/>
       <path id="DejaVuSans-20" transform="scale(0.015625)"/>
       <path id="DejaVuSans-5b" d="M 550 4863 
L 1875 4863 
L 1875 4416 
L 1125 4416 
L 1125 -397 
L 1875 -397 
L 1875 -844 
L 550 -844 
L 550 4863 
z
" transform="scale(0.015625)"/>
       <path id="DejaVuSans-4d" d="M 628 4666 
L 1569 4666 
L 2759 1491 
L 3956 4666 
L 4897 4666 
L 4897 0 
L 4281 0 
L 4281 4097 
L 3078 897 
L 2444 897 
L 1241 4097 
L 1241 0 
L 628 0 
L 628 4666 
z
" transform="scale(0.015625)"/>
       <path id="DejaVuSans-48" d="M 628 4666 
L 1259 4666 
L 1259 2753 
L 3553 2753 
L 3553 4666 
L 4184 4666 
L 4184 0 
L 3553 0 
L 3553 2222 
L 1259 2222 
L 1259 0 
L 628 0 
L 628 4666 
z
" transform="scale(0.015625)"/>
       <path id="DejaVuSans-7a" d="M 353 3500 
L 3084 3500 
L 3084 2975 
L 922 459 
L 3084 459 
L 3084 0 
L 275 0 
L 275 525 
L 2438 3041 
L 353 3041 
L 353 3500 
z
" transform="scale(0.015625)"/>
       <path id="DejaVuSans-5d" d="M 1947 4863 
L 1947 -844 
L 622 -844 
L 622 -397 
L 1369 -397 
L 1369 4416 
L 622 4416 
L 622 4863 
L 1947 4863 
z
" transform="scale(0.015625)"/>
      </defs>
      <use xlink:href="#DejaVuSans-66"/>
      <use xlink:href="#DejaVuSans-72" x="35.205078"/>
      <use xlink:href="#DejaVuSans-65" x="74.068359"/>
      <use xlink:href="#DejaVuSans-71" x="135.591797"/>
      <use xlink:href="#DejaVuSans-75" x="199.068359"/>
      <use xlink:href="#DejaVuSans-65" x="262.447266"/>
      <use xlink:href="#DejaVuSans-6e" x="323.970703"/>
      <use xlink:href="#DejaVuSans-63" x="387.349609"/>
      <use xlink:href="#DejaVuSans-79" x="442.330078"/>
      <use xlink:href="#DejaVuSans-20" x="501.509766"/>
      <use xlink:href="#DejaVuSans-5b" x="533.296875"/>
      <use xlink:href="#DejaVuSans-4d" x="572.310547"/>
      <use xlink:href="#DejaVuSans-48" x="658.589844"/>
      <use xlink:href="#DejaVuSans-7a" x="733.785156"/>
      <use xlink:href="#DejaVuSans-5d" x="786.275391"/>
     </g>
    </g>
   </g>
   <g id="matplotlib.axis_2">
    <g id="ytick_1">
     <g id="line2d_9">
      <path d="M 270.348953 181 
C 270.348953 178.590438 269.874322 176.204305 268.952222 173.97816 
C 268.030123 171.752014 266.678487 169.729149 264.974669 168.025331 
C 263.270851 166.321513 261.247986 164.969877 259.02184 164.047778 
C 256.795695 163.125678 254.409562 162.651047 252 162.651047 
C 249.590438 162.651047 247.204305 163.125678 244.97816 164.047778 
C 242.752014 164.969877 240.729149 166.321513 239.025331 168.025331 
C 237.321513 169.729149 235.969877 171.752014 235.047778 173.97816 
C 234.125678 176.204305 233.651047 178.590438 233.651047 181 
C 233.651047 183.409562 234.125678 185.795695 235.047778 188.02184 
C 235.969877 190.247986 237.321513 192.270851 239.025331 193.974669 
C 240.729149 195.678487 242.752014 197.030123 244.97816 197.952222 
C 247.204305 198.874322 249.590438 199.348953 252 199.348953 
C 254.409562 199.348953 256.795695 198.874322 259.02184 197.952222 
C 261.247986 197.030123 263.270851 195.678487 264.974669 193.974669 
C 266.678487 192.270851 268.030123 190.247986 268.952222 188.02184 
C 269.874322 185.795695 270.348953 183.409562 270.348953 181 
" clip-path="url(#p07f3078fe3)" style="fill: none; stroke: #808080; stroke-width: 0.8; stroke-linecap: square"/>
     </g>
     <g id="text_10">
      <!-- 0.5 -->
      <g transform="translate(268.952222 171.482535) scale(0.12 -0.12)">
       <defs>
        <path id="DejaVuSans-2e" d="M 684 794 
L 1344 794 
L 1344 0 
L 684 0 
L 684 794 
z
" transform="scale(0.015625)"/>
       </defs>
       <use xlink:href="#DejaVuSans-30"/>
       <use xlink:href="#DejaVuSans-2e" x="63.623047"/>
       <use xlink:href="#DejaVuSans-35" x="95.410156"/>
      </g>
     </g>
    </g>
    <g id="ytick_2">
     <g id="line2d_10">
      <path d="M 288.697906 181 
C 288.697906 176.180875 287.748644 171.40861 285.904445 166.956319 
C 284.060245 162.504028 281.356974 158.458297 277.949339 155.050661 
C 274.541703 151.643026 270.495972 148.939755 266.043681 147.095555 
C 261.59139 145.251356 256.819125 144.302094 252 144.302094 
C 247.180875 144.302094 242.40861 145.251356 237.956319 147.095555 
C 233.504028 148.939755 229.458297 151.643026 226.050661 155.050661 
C 222.643026 158.458297 219.939755 162.504028 218.095555 166.956319 
C 216.251356 171.40861 215.302094 176.180875 215.302094 181 
C 215.302094 185.819125 216.251356 190.59139 218.095555 195.043681 
C 219.939755 199.495972 222.643026 203.541703 226.050661 206.949339 
C 229.458297 210.356974 233.504028 213.060245 237.956319 214.904445 
C 242.40861 216.748644 247.180875 217.697906 252 217.697906 
C 256.819125 217.697906 261.59139 216.748644 266.043681 214.904445 
C 270.495972 213.060245 274.541703 210.356974 277.949339 206.949339 
C 281.356974 203.541703 284.060245 199.495972 285.904445 195.043681 
C 287.748644 190.59139 288.697906 185.819125 288.697906 181 
" clip-path="url(#p07f3078fe3)" style="fill: none; stroke: #808080; stroke-width: 0.8; stroke-linecap: square"/>
     </g>
     <g id="text_11">
      <!-- 1.0 -->
      <g transform="translate(285.904445 164.460694) scale(0.12 -0.12)">
       <use xlink:href="#DejaVuSans-31"/>
       <use xlink:href="#DejaVuSans-2e" x="63.623047"/>
       <use xlink:href="#DejaVuSans-30" x="95.410156"/>
      </g>
     </g>
    </g>
    <g id="ytick_3">
     <g id="line2d_11">
      <path d="M 307.04686 181 
C 307.04686 173.771313 305.622966 166.612915 302.856667 159.934479 
C 300.090368 153.256042 296.035462 147.187446 290.924008 142.075992 
C 285.812554 136.964538 279.743958 132.909632 273.065521 130.143333 
C 266.387085 127.377034 259.228687 125.95314 252 125.95314 
C 244.771313 125.95314 237.612915 127.377034 230.934479 130.143333 
C 224.256042 132.909632 218.187446 136.964538 213.075992 142.075992 
C 207.964538 147.187446 203.909632 153.256042 201.143333 159.934479 
C 198.377034 166.612915 196.95314 173.771313 196.95314 181 
C 196.95314 188.228687 198.377034 195.387085 201.143333 202.065521 
C 203.909632 208.743958 207.964538 214.812554 213.075992 219.924008 
C 218.187446 225.035462 224.256042 229.090368 230.934479 231.856667 
C 237.612915 234.622966 244.771313 236.04686 252 236.04686 
C 259.228687 236.04686 266.387085 234.622966 273.065521 231.856667 
C 279.743958 229.090368 285.812554 225.035462 290.924008 219.924008 
C 296.035462 214.812554 300.090368 208.743958 302.856667 202.065521 
C 305.622966 195.387085 307.04686 188.228687 307.04686 181 
" clip-path="url(#p07f3078fe3)" style="fill: none; stroke: #808080; stroke-width: 0.8; stroke-linecap: square"/>
     </g>
     <g id="text_12">
      <!-- 1.5 -->
      <g transform="translate(302.856667 157.438854) scale(0.12 -0.12)">
       <use xlink:href="#DejaVuSans-31"/>
       <use xlink:href="#DejaVuSans-2e" x="63.623047"/>
       <use xlink:href="#DejaVuSans-35" x="95.410156"/>
      </g>
     </g>
    </g>
    <g id="ytick_4">
     <g id="line2d_12">
      <path d="M 325.395813 181 
C 325.395813 171.36175 323.497288 161.81722 319.808889 152.912638 
C 316.120491 144.008057 310.713949 135.916595 303.898677 129.101323 
C 297.083405 122.286051 288.991943 116.879509 280.087362 113.191111 
C 271.18278 109.502712 261.63825 107.604187 252 107.604187 
C 242.36175 107.604187 232.81722 109.502712 223.912638 113.191111 
C 215.008057 116.879509 206.916595 122.286051 200.101323 129.101323 
C 193.286051 135.916595 187.879509 144.008057 184.191111 152.912638 
C 180.502712 161.81722 178.604187 171.36175 178.604187 181 
C 178.604187 190.63825 180.502712 200.18278 184.191111 209.087362 
C 187.879509 217.991943 193.286051 226.083405 200.101323 232.898677 
C 206.916595 239.713949 215.008057 245.120491 223.912638 248.808889 
C 232.81722 252.497288 242.36175 254.395813 252 254.395813 
C 261.63825 254.395813 271.18278 252.497288 280.087362 248.808889 
C 288.991943 245.120491 297.083405 239.713949 303.898677 232.898677 
C 310.713949 226.083405 316.120491 217.991943 319.808889 209.087362 
C 323.497288 200.18278 325.395813 190.63825 325.395813 181 
" clip-path="url(#p07f3078fe3)" style="fill: none; stroke: #808080; stroke-width: 0.8; stroke-linecap: square"/>
     </g>
     <g id="text_13">
      <!-- 2.0 -->
      <g transform="translate(319.808889 150.417013) scale(0.12 -0.12)">
       <use xlink:href="#DejaVuSans-32"/>
       <use xlink:href="#DejaVuSans-2e" x="63.623047"/>
       <use xlink:href="#DejaVuSans-30" x="95.410156"/>
      </g>
     </g>
    </g>
    <g id="ytick_5">
     <g id="line2d_13">
      <path d="M 343.744766 181 
C 343.744766 168.952188 341.37161 157.021525 336.761112 145.890798 
C 332.150613 134.760071 325.392436 124.645743 316.873346 116.126654 
C 308.354257 107.607564 298.239929 100.849387 287.109202 96.238888 
C 275.978475 91.62839 264.047812 89.255234 252 89.255234 
C 239.952188 89.255234 228.021525 91.62839 216.890798 96.238888 
C 205.760071 100.849387 195.645743 107.607564 187.126654 116.126654 
C 178.607564 124.645743 171.849387 134.760071 167.238888 145.890798 
C 162.62839 157.021525 160.255234 168.952188 160.255234 181 
C 160.255234 193.047812 162.62839 204.978475 167.238888 216.109202 
C 171.849387 227.239929 178.607564 237.354257 187.126654 245.873346 
C 195.645743 254.392436 205.760071 261.150613 216.890798 265.761112 
C 228.021525 270.37161 239.952188 272.744766 252 272.744766 
C 264.047812 272.744766 275.978475 270.37161 287.109202 265.761112 
C 298.239929 261.150613 308.354257 254.392436 316.873346 245.873346 
C 325.392436 237.354257 332.150613 227.239929 336.761112 216.109202 
C 341.37161 204.978475 343.744766 193.047812 343.744766 181 
" clip-path="url(#p07f3078fe3)" style="fill: none; stroke: #808080; stroke-width: 0.8; stroke-linecap: square"/>
     </g>
     <g id="text_14">
      <!-- 2.5 -->
      <g transform="translate(336.761112 143.395173) scale(0.12 -0.12)">
       <use xlink:href="#DejaVuSans-32"/>
       <use xlink:href="#DejaVuSans-2e" x="63.623047"/>
       <use xlink:href="#DejaVuSans-35" x="95.410156"/>
      </g>
     </g>
    </g>
    <g id="ytick_6">
     <g id="line2d_14">
      <path d="M 362.093719 181 
C 362.093719 166.542625 359.245932 152.22583 353.713334 138.868958 
C 348.180736 125.512085 340.070923 113.374892 329.848016 103.151984 
C 319.625108 92.929077 307.487915 84.819264 294.131042 79.286666 
C 280.77417 73.754068 266.457375 70.906281 252 70.906281 
C 237.542625 70.906281 223.22583 73.754068 209.868958 79.286666 
C 196.512085 84.819264 184.374892 92.929077 174.151984 103.151984 
C 163.929077 113.374892 155.819264 125.512085 150.286666 138.868958 
C 144.754068 152.22583 141.906281 166.542625 141.906281 181 
C 141.906281 195.457375 144.754068 209.77417 150.286666 223.131042 
C 155.819264 236.487915 163.929077 248.625108 174.151984 258.848016 
C 184.374892 269.070923 196.512085 277.180736 209.868958 282.713334 
C 223.22583 288.245932 237.542625 291.093719 252 291.093719 
C 266.457375 291.093719 280.77417 288.245932 294.131042 282.713334 
C 307.487915 277.180736 319.625108 269.070923 329.848016 258.848016 
C 340.070923 248.625108 348.180736 236.487915 353.713334 223.131042 
C 359.245932 209.77417 362.093719 195.457375 362.093719 181 
" clip-path="url(#p07f3078fe3)" style="fill: none; stroke: #808080; stroke-width: 0.8; stroke-linecap: square"/>
     </g>
     <g id="text_15">
      <!-- 3.0 -->
      <g transform="translate(353.713334 136.373333) scale(0.12 -0.12)">
       <use xlink:href="#DejaVuSans-33"/>
       <use xlink:href="#DejaVuSans-2e" x="63.623047"/>
       <use xlink:href="#DejaVuSans-30" x="95.410156"/>
      </g>
     </g>
    </g>
    <g id="ytick_7">
     <g id="line2d_15">
      <path d="M 380.442673 181 
C 380.442673 164.133063 377.120254 147.430135 370.665556 131.847117 
C 364.210859 116.264099 354.74941 102.104041 342.822685 90.177315 
C 330.895959 78.25059 316.735901 68.789141 301.152883 62.334444 
C 285.569865 55.879746 268.866937 52.557327 252 52.557327 
C 235.133063 52.557327 218.430135 55.879746 202.847117 62.334444 
C 187.264099 68.789141 173.104041 78.25059 161.177315 90.177315 
C 149.25059 102.104041 139.789141 116.264099 133.334444 131.847117 
C 126.879746 147.430135 123.557327 164.133063 123.557327 181 
C 123.557327 197.866937 126.879746 214.569865 133.334444 230.152883 
C 139.789141 245.735901 149.25059 259.895959 161.177315 271.822685 
C 173.104041 283.74941 187.264099 293.210859 202.847117 299.665556 
C 218.430135 306.120254 235.133063 309.442673 252 309.442673 
C 268.866937 309.442673 285.569865 306.120254 301.152883 299.665556 
C 316.735901 293.210859 330.895959 283.74941 342.822685 271.822685 
C 354.74941 259.895959 364.210859 245.735901 370.665556 230.152883 
C 377.120254 214.569865 380.442673 197.866937 380.442673 181 
" clip-path="url(#p07f3078fe3)" style="fill: none; stroke: #808080; stroke-width: 0.8; stroke-linecap: square"/>
     </g>
     <g id="text_16">
      <!-- 3.5 -->
      <g transform="translate(370.665556 129.351492) scale(0.12 -0.12)">
       <use xlink:href="#DejaVuSans-33"/>
       <use xlink:href="#DejaVuSans-2e" x="63.623047"/>
       <use xlink:href="#DejaVuSans-35" x="95.410156"/>
      </g>
     </g>
    </g>
    <g id="text_17">
     <!-- magnitude [] -->
     <g transform="translate(110.424375 220.044062) rotate(-90) scale(0.12 -0.12)">
      <defs>
       <path id="DejaVuSans-6d" d="M 3328 2828 
Q 3544 3216 3844 3400 
Q 4144 3584 4550 3584 
Q 5097 3584 5394 3201 
Q 5691 2819 5691 2113 
L 5691 0 
L 5113 0 
L 5113 2094 
Q 5113 2597 4934 2840 
Q 4756 3084 4391 3084 
Q 3944 3084 3684 2787 
Q 3425 2491 3425 1978 
L 3425 0 
L 2847 0 
L 2847 2094 
Q 2847 2600 2669 2842 
Q 2491 3084 2119 3084 
Q 1678 3084 1418 2786 
Q 1159 2488 1159 1978 
L 1159 0 
L 581 0 
L 581 3500 
L 1159 3500 
L 1159 2956 
Q 1356 3278 1631 3431 
Q 1906 3584 2284 3584 
Q 2666 3584 2933 3390 
Q 3200 3197 3328 2828 
z
" transform="scale(0.015625)"/>
       <path id="DejaVuSans-61" d="M 2194 1759 
Q 1497 1759 1228 1600 
Q 959 1441 959 1056 
Q 959 750 1161 570 
Q 1363 391 1709 391 
Q 2188 391 2477 730 
Q 2766 1069 2766 1631 
L 2766 1759 
L 2194 1759 
z
M 3341 1997 
L 3341 0 
L 2766 0 
L 2766 531 
Q 2569 213 2275 61 
Q 1981 -91 1556 -91 
Q 1019 -91 701 211 
Q 384 513 384 1019 
Q 384 1609 779 1909 
Q 1175 2209 1959 2209 
L 2766 2209 
L 2766 2266 
Q 2766 2663 2505 2880 
Q 2244 3097 1772 3097 
Q 1472 3097 1187 3025 
Q 903 2953 641 2809 
L 641 3341 
Q 956 3463 1253 3523 
Q 1550 3584 1831 3584 
Q 2591 3584 2966 3190 
Q 3341 2797 3341 1997 
z
" transform="scale(0.015625)"/>
       <path id="DejaVuSans-67" d="M 2906 1791 
Q 2906 2416 2648 2759 
Q 2391 3103 1925 3103 
Q 1463 3103 1205 2759 
Q 947 2416 947 1791 
Q 947 1169 1205 825 
Q 1463 481 1925 481 
Q 2391 481 2648 825 
Q 2906 1169 2906 1791 
z
M 3481 434 
Q 3481 -459 3084 -895 
Q 2688 -1331 1869 -1331 
Q 1566 -1331 1297 -1286 
Q 1028 -1241 775 -1147 
L 775 -588 
Q 1028 -725 1275 -790 
Q 1522 -856 1778 -856 
Q 2344 -856 2625 -561 
Q 2906 -266 2906 331 
L 2906 616 
Q 2728 306 2450 153 
Q 2172 0 1784 0 
Q 1141 0 747 490 
Q 353 981 353 1791 
Q 353 2603 747 3093 
Q 1141 3584 1784 3584 
Q 2172 3584 2450 3431 
Q 2728 3278 2906 2969 
L 2906 3500 
L 3481 3500 
L 3481 434 
z
" transform="scale(0.015625)"/>
       <path id="DejaVuSans-69" d="M 603 3500 
L 1178 3500 
L 1178 0 
L 603 0 
L 603 3500 
z
M 603 4863 
L 1178 4863 
L 1178 4134 
L 603 4134 
L 603 4863 
z
" transform="scale(0.015625)"/>
       <path id="DejaVuSans-74" d="M 1172 4494 
L 1172 3500 
L 2356 3500 
L 2356 3053 
L 1172 3053 
L 1172 1153 
Q 1172 725 1289 603 
Q 1406 481 1766 481 
L 2356 481 
L 2356 0 
L 1766 0 
Q 1100 0 847 248 
Q 594 497 594 1153 
L 594 3053 
L 172 3053 
L 172 3500 
L 594 3500 
L 594 4494 
L 1172 4494 
z
" transform="scale(0.015625)"/>
       <path id="DejaVuSans-64" d="M 2906 2969 
L 2906 4863 
L 3481 4863 
L 3481 0 
L 2906 0 
L 2906 525 
Q 2725 213 2448 61 
Q 2172 -91 1784 -91 
Q 1150 -91 751 415 
Q 353 922 353 1747 
Q 353 2572 751 3078 
Q 1150 3584 1784 3584 
Q 2172 3584 2448 3432 
Q 2725 3281 2906 2969 
z
M 947 1747 
Q 947 1113 1208 752 
Q 1469 391 1925 391 
Q 2381 391 2643 752 
Q 2906 1113 2906 1747 
Q 2906 2381 2643 2742 
Q 2381 3103 1925 3103 
Q 1469 3103 1208 2742 
Q 947 2381 947 1747 
z
" transform="scale(0.015625)"/>
      </defs>
      <use xlink:href="#DejaVuSans-6d"/>
      <use xlink:href="#DejaVuSans-61" x="97.412109"/>
      <use xlink:href="#DejaVuSans-67" x="158.691406"/>
      <use xlink:href="#DejaVuSans-6e" x="222.167969"/>
      <use xlink:href="#DejaVuSans-69" x="285.546875"/>
      <use xlink:href="#DejaVuSans-74" x="313.330078"/>
      <use xlink:href="#DejaVuSans-75" x="352.539062"/>
      <use xlink:href="#DejaVuSans-64" x="415.917969"/>
      <use xlink:href="#DejaVuSans-65" x="479.394531"/>
      <use xlink:href="#DejaVuSans-20" x="540.917969"/>
      <use xlink:href="#DejaVuSans-5b" x="572.705078"/>
      <use xlink:href="#DejaVuSans-5d" x="611.71875"/>
     </g>
    </g>
   </g>
   <g id="line2d_16">
    <path d="M 245.887764 309.627378 
L 242.23691 304.603472 
L 238.906301 299.535341 
L 235.893548 294.447102 
L 233.19404 289.362084 
L 230.801096 284.302605 
L 228.706124 279.289772 
L 226.898818 274.343305 
L 225.367358 269.481394 
L 224.098628 264.720587 
L 223.078434 260.075708 
L 222.291731 255.559804 
L 221.72284 251.184125 
L 221.355663 246.958127 
L 221.151672 241.569355 
L 221.23863 236.473727 
L 221.578523 231.679741 
L 222.134602 227.191247 
L 222.871898 223.007927 
L 223.757629 219.125815 
L 225.027624 214.685713 
L 226.429151 210.685666 
L 227.915769 207.101632 
L 229.756689 203.311336 
L 231.607308 200.029965 
L 233.72108 196.775366 
L 235.738774 194.061053 
L 237.885115 191.522009 
L 240.290453 189.041308 
L 242.563413 187.008616 
L 244.916345 185.192641 
L 247.275847 183.645085 
L 249.725734 182.306659 
L 249.725734 182.306659 
" clip-path="url(#p07f3078fe3)" style="fill: none; stroke: #000000; stroke-width: 2; stroke-linecap: square"/>
   </g>
   <g id="patch_3">
    <path d="M 387.08 181 
C 387.08 163.261457 383.585894 145.695399 376.797647 129.307122 
C 370.009401 112.918845 360.059028 98.02706 347.515984 85.484016 
C 334.97294 72.940972 320.081155 62.990599 303.692878 56.202353 
C 287.304601 49.414106 269.738543 45.92 252 45.92 
C 234.261457 45.92 216.695399 49.414106 200.307122 56.202353 
C 183.918845 62.990599 169.02706 72.940972 156.484016 85.484016 
C 143.940972 98.02706 133.990599 112.918845 127.202353 129.307122 
C 120.414106 145.695399 116.92 163.261457 116.92 181 
C 116.92 198.738543 120.414106 216.304601 127.202353 232.692878 
C 133.990599 249.081155 143.940972 263.97294 156.484016 276.515984 
C 169.02706 289.059028 183.918845 299.009401 200.307122 305.797647 
C 216.695399 312.585894 234.261457 316.08 252 316.08 
C 269.738543 316.08 287.304601 312.585894 303.692878 305.797647 
C 320.081155 299.009401 334.97294 289.059028 347.515984 276.515984 
C 360.059028 263.97294 370.009401 249.081155 376.797647 232.692878 
C 383.585894 216.304601 387.08 198.738543 387.08 181 
" style="fill: none; stroke: #000000; stroke-width: 0.8; stroke-linejoin: miter; stroke-linecap: square"/>
   </g>
   <g id="text_18">
    <!-- Nyquist plot loop gain QVamp -->
    <g transform="translate(162.610313 20.113125) scale(0.12 -0.12)">
     <defs>
      <path id="DejaVuSans-4e" d="M 628 4666 
L 1478 4666 
L 3547 763 
L 3547 4666 
L 4159 4666 
L 4159 0 
L 3309 0 
L 1241 3903 
L 1241 0 
L 628 0 
L 628 4666 
z
" transform="scale(0.015625)"/>
      <path id="DejaVuSans-73" d="M 2834 3397 
L 2834 2853 
Q 2591 2978 2328 3040 
Q 2066 3103 1784 3103 
Q 1356 3103 1142 2972 
Q 928 2841 928 2578 
Q 928 2378 1081 2264 
Q 1234 2150 1697 2047 
L 1894 2003 
Q 2506 1872 2764 1633 
Q 3022 1394 3022 966 
Q 3022 478 2636 193 
Q 2250 -91 1575 -91 
Q 1294 -91 989 -36 
Q 684 19 347 128 
L 347 722 
Q 666 556 975 473 
Q 1284 391 1588 391 
Q 1994 391 2212 530 
Q 2431 669 2431 922 
Q 2431 1156 2273 1281 
Q 2116 1406 1581 1522 
L 1381 1569 
Q 847 1681 609 1914 
Q 372 2147 372 2553 
Q 372 3047 722 3315 
Q 1072 3584 1716 3584 
Q 2034 3584 2315 3537 
Q 2597 3491 2834 3397 
z
" transform="scale(0.015625)"/>
      <path id="DejaVuSans-70" d="M 1159 525 
L 1159 -1331 
L 581 -1331 
L 581 3500 
L 1159 3500 
L 1159 2969 
Q 1341 3281 1617 3432 
Q 1894 3584 2278 3584 
Q 2916 3584 3314 3078 
Q 3713 2572 3713 1747 
Q 3713 922 3314 415 
Q 2916 -91 2278 -91 
Q 1894 -91 1617 61 
Q 1341 213 1159 525 
z
M 3116 1747 
Q 3116 2381 2855 2742 
Q 2594 3103 2138 3103 
Q 1681 3103 1420 2742 
Q 1159 2381 1159 1747 
Q 1159 1113 1420 752 
Q 1681 391 2138 391 
Q 2594 391 2855 752 
Q 3116 1113 3116 1747 
z
" transform="scale(0.015625)"/>
      <path id="DejaVuSans-6c" d="M 603 4863 
L 1178 4863 
L 1178 0 
L 603 0 
L 603 4863 
z
" transform="scale(0.015625)"/>
      <path id="DejaVuSans-6f" d="M 1959 3097 
Q 1497 3097 1228 2736 
Q 959 2375 959 1747 
Q 959 1119 1226 758 
Q 1494 397 1959 397 
Q 2419 397 2687 759 
Q 2956 1122 2956 1747 
Q 2956 2369 2687 2733 
Q 2419 3097 1959 3097 
z
M 1959 3584 
Q 2709 3584 3137 3096 
Q 3566 2609 3566 1747 
Q 3566 888 3137 398 
Q 2709 -91 1959 -91 
Q 1206 -91 779 398 
Q 353 888 353 1747 
Q 353 2609 779 3096 
Q 1206 3584 1959 3584 
z
" transform="scale(0.015625)"/>
      <path id="DejaVuSans-51" d="M 2522 4238 
Q 1834 4238 1429 3725 
Q 1025 3213 1025 2328 
Q 1025 1447 1429 934 
Q 1834 422 2522 422 
Q 3209 422 3611 934 
Q 4013 1447 4013 2328 
Q 4013 3213 3611 3725 
Q 3209 4238 2522 4238 
z
M 3406 84 
L 4238 -825 
L 3475 -825 
L 2784 -78 
Q 2681 -84 2626 -87 
Q 2572 -91 2522 -91 
Q 1538 -91 948 567 
Q 359 1225 359 2328 
Q 359 3434 948 4092 
Q 1538 4750 2522 4750 
Q 3503 4750 4090 4092 
Q 4678 3434 4678 2328 
Q 4678 1516 4351 937 
Q 4025 359 3406 84 
z
" transform="scale(0.015625)"/>
      <path id="DejaVuSans-56" d="M 1831 0 
L 50 4666 
L 709 4666 
L 2188 738 
L 3669 4666 
L 4325 4666 
L 2547 0 
L 1831 0 
z
" transform="scale(0.015625)"/>
     </defs>
     <use xlink:href="#DejaVuSans-4e"/>
     <use xlink:href="#DejaVuSans-79" x="74.804688"/>
     <use xlink:href="#DejaVuSans-71" x="133.984375"/>
     <use xlink:href="#DejaVuSans-75" x="197.460938"/>
     <use xlink:href="#DejaVuSans-69" x="260.839844"/>
     <use xlink:href="#DejaVuSans-73" x="288.623047"/>
     <use xlink:href="#DejaVuSans-74" x="340.722656"/>
     <use xlink:href="#DejaVuSans-20" x="379.931641"/>
     <use xlink:href="#DejaVuSans-70" x="411.71875"/>
     <use xlink:href="#DejaVuSans-6c" x="475.195312"/>
     <use xlink:href="#DejaVuSans-6f" x="502.978516"/>
     <use xlink:href="#DejaVuSans-74" x="564.160156"/>
     <use xlink:href="#DejaVuSans-20" x="603.369141"/>
     <use xlink:href="#DejaVuSans-6c" x="635.15625"/>
     <use xlink:href="#DejaVuSans-6f" x="662.939453"/>
     <use xlink:href="#DejaVuSans-6f" x="724.121094"/>
     <use xlink:href="#DejaVuSans-70" x="785.302734"/>
     <use xlink:href="#DejaVuSans-20" x="848.779297"/>
     <use xlink:href="#DejaVuSans-67" x="880.566406"/>
     <use xlink:href="#DejaVuSans-61" x="944.042969"/>
     <use xlink:href="#DejaVuSans-69" x="1005.322266"/>
     <use xlink:href="#DejaVuSans-6e" x="1033.105469"/>
     <use xlink:href="#DejaVuSans-20" x="1096.484375"/>
     <use xlink:href="#DejaVuSans-51" x="1128.271484"/>
     <use xlink:href="#DejaVuSans-56" x="1206.982422"/>
     <use xlink:href="#DejaVuSans-61" x="1267.640625"/>
     <use xlink:href="#DejaVuSans-6d" x="1328.919922"/>
     <use xlink:href="#DejaVuSans-70" x="1426.332031"/>
    </g>
   </g>
   <g id="legend_1">
    <g id="patch_4">
     <path d="M 316.5325 66.53375 
L 380.08 66.53375 
Q 382.08 66.53375 382.08 64.53375 
L 382.08 52.92 
Q 382.08 50.92 380.08 50.92 
L 316.5325 50.92 
Q 314.5325 50.92 314.5325 52.92 
L 314.5325 64.53375 
Q 314.5325 66.53375 316.5325 66.53375 
z
" style="fill: #ffffff; opacity: 0.8; stroke: #cccccc; stroke-linejoin: miter"/>
    </g>
    <g id="line2d_17">
     <path d="M 316.5325 58.538125 
L 321.5325 58.538125 
L 326.5325 58.538125 
" style="fill: none; stroke: #000000; stroke-width: 2; stroke-linecap: square"/>
    </g>
    <g id="text_19">
     <!-- loopgain -->
     <g transform="translate(328.5325 62.038125) scale(0.12 -0.12)">
      <use xlink:href="#DejaVuSans-6c"/>
      <use xlink:href="#DejaVuSans-6f" x="27.783203"/>
      <use xlink:href="#DejaVuSans-6f" x="88.964844"/>
      <use xlink:href="#DejaVuSans-70" x="150.146484"/>
      <use xlink:href="#DejaVuSans-67" x="213.623047"/>
      <use xlink:href="#DejaVuSans-61" x="277.099609"/>
      <use xlink:href="#DejaVuSans-69" x="338.378906"/>
      <use xlink:href="#DejaVuSans-6e" x="366.162109"/>
     </g>
    </g>
   </g>
  </g>
 </g>
 <defs>
  <clipPath id="p07f3078fe3">
   <path d="M 387.08 181 
C 387.08 163.261457 383.585894 145.695399 376.797647 129.307122 
C 370.009401 112.918845 360.059028 98.02706 347.515984 85.484016 
C 334.97294 72.940972 320.081155 62.990599 303.692878 56.202353 
C 287.304601 49.414106 269.738543 45.92 252 45.92 
C 234.261457 45.92 216.695399 49.414106 200.307122 56.202353 
C 183.918845 62.990599 169.02706 72.940972 156.484016 85.484016 
C 143.940972 98.02706 133.990599 112.918845 127.202353 129.307122 
C 120.414106 145.695399 116.92 163.261457 116.92 181 
C 116.92 198.738543 120.414106 216.304601 127.202353 232.692878 
C 133.990599 249.081155 143.940972 263.97294 156.484016 276.515984 
C 169.02706 289.059028 183.918845 299.009401 200.307122 305.797647 
C 216.695399 312.585894 234.261457 316.08 252 316.08 
C 269.738543 316.08 287.304601 312.585894 303.692878 305.797647 
C 320.081155 299.009401 334.97294 289.059028 347.515984 276.515984 
C 360.059028 263.97294 370.009401 249.081155 376.797647 232.692878 
C 383.585894 216.304601 387.08 198.738543 387.08 181 
M 252 181 
C 252 181 252 181 252 181 
C 252 181 252 181 252 181 
C 252 181 252 181 252 181 
C 252 181 252 181 252 181 
C 252 181 252 181 252 181 
C 252 181 252 181 252 181 
C 252 181 252 181 252 181 
C 252 181 252 181 252 181 
C 252 181 252 181 252 181 
C 252 181 252 181 252 181 
C 252 181 252 181 252 181 
C 252 181 252 181 252 181 
C 252 181 252 181 252 181 
C 252 181 252 181 252 181 
C 252 181 252 181 252 181 
C 252 181 252 181 252 181 
z
"/>
  </clipPath>
 </defs>
</svg>
