<?xml version="1.0" encoding="utf-8" standalone="no"?>
<!DOCTYPE svg PUBLIC "-//W3C//DTD SVG 1.1//EN"
  "http://www.w3.org/Graphics/SVG/1.1/DTD/svg11.dtd">
<svg xmlns:xlink="http://www.w3.org/1999/xlink" width="504pt" height="360pt" viewBox="0 0 504 360" xmlns="http://www.w3.org/2000/svg" version="1.1">
 <metadata>
  <rdf:RDF xmlns:dc="http://purl.org/dc/elements/1.1/" xmlns:cc="http://creativecommons.org/ns#" xmlns:rdf="http://www.w3.org/1999/02/22-rdf-syntax-ns#">
   <cc:Work>
    <dc:type rdf:resource="http://purl.org/dc/dcmitype/StillImage"/>
    <dc:date>2025-09-06T12:39:04.911037</dc:date>
    <dc:format>image/svg+xml</dc:format>
    <dc:creator>
     <cc:Agent>
      <dc:title>Matplotlib v3.9.2, https://matplotlib.org/</dc:title>
     </cc:Agent>
    </dc:creator>
   </cc:Work>
  </rdf:RDF>
 </metadata>
 <defs>
  <style type="text/css">*{stroke-linejoin: round; stroke-linecap: butt}</style>
 </defs>
 <g id="figure_1">
  <g id="patch_1">
   <path d="M 0 360 
L 504 360 
L 504 0 
L 0 0 
z
" style="fill: #ffffff"/>
  </g>
  <g id="axes_1">
   <g id="patch_2">
    <path d="M 387.2 181 
C 387.2 163.245699 383.70279 145.664036 376.908513 129.2612 
C 370.114236 112.858364 360.155024 97.95335 347.600837 85.399163 
C 335.04665 72.844976 320.141636 62.885764 303.7388 56.091487 
C 287.335964 49.29721 269.754301 45.8 252 45.8 
C 234.245699 45.8 216.664036 49.29721 200.2612 56.091487 
C 183.858364 62.885764 168.95335 72.844976 156.399163 85.399163 
C 143.844976 97.95335 133.885764 112.858364 127.091487 129.2612 
C 120.29721 145.664036 116.8 163.245699 116.8 181 
C 116.8 198.754301 120.29721 216.335964 127.091487 232.7388 
C 133.885764 249.141636 143.844976 264.04665 156.399163 276.600837 
C 168.95335 289.155024 183.858364 299.114236 200.2612 305.908513 
C 216.664036 312.70279 234.245699 316.2 252 316.2 
C 269.754301 316.2 287.335964 312.70279 303.7388 305.908513 
C 320.141636 299.114236 335.04665 289.155024 347.600837 276.600837 
C 360.155024 264.04665 370.114236 249.141636 376.908513 232.7388 
C 383.70279 216.335964 387.2 198.754301 387.2 181 
M 252 181 
C 252 181 252 181 252 181 
C 252 181 252 181 252 181 
C 252 181 252 181 252 181 
C 252 181 252 181 252 181 
C 252 181 252 181 252 181 
C 252 181 252 181 252 181 
C 252 181 252 181 252 181 
C 252 181 252 181 252 181 
C 252 181 252 181 252 181 
C 252 181 252 181 252 181 
C 252 181 252 181 252 181 
C 252 181 252 181 252 181 
C 252 181 252 181 252 181 
C 252 181 252 181 252 181 
C 252 181 252 181 252 181 
C 252 181 252 181 252 181 
z
" style="fill: #ffffff"/>
   </g>
   <g id="matplotlib.axis_1">
    <g id="xtick_1">
     <g id="line2d_1">
      <path d="M 252 181 
L 387.2 181 
" clip-path="url(#p1143cd6a3e)" style="fill: none; stroke: #808080; stroke-width: 0.8; stroke-linecap: square"/>
     </g>
     <g id="text_1">
      <!-- 0° -->
      <g transform="translate(394.3825 184.31125) scale(0.12 -0.12)">
       <defs>
        <path id="DejaVuSans-30" d="M 2034 4250 
Q 1547 4250 1301 3770 
Q 1056 3291 1056 2328 
Q 1056 1369 1301 889 
Q 1547 409 2034 409 
Q 2525 409 2770 889 
Q 3016 1369 3016 2328 
Q 3016 3291 2770 3770 
Q 2525 4250 2034 4250 
z
M 2034 4750 
Q 2819 4750 3233 4129 
Q 3647 3509 3647 2328 
Q 3647 1150 3233 529 
Q 2819 -91 2034 -91 
Q 1250 -91 836 529 
Q 422 1150 422 2328 
Q 422 3509 836 4129 
Q 1250 4750 2034 4750 
z
" transform="scale(0.015625)"/>
        <path id="DejaVuSans-b0" d="M 1600 4347 
Q 1350 4347 1178 4173 
Q 1006 4000 1006 3750 
Q 1006 3503 1178 3333 
Q 1350 3163 1600 3163 
Q 1850 3163 2022 3333 
Q 2194 3503 2194 3750 
Q 2194 3997 2020 4172 
Q 1847 4347 1600 4347 
z
M 1600 4750 
Q 1800 4750 1984 4673 
Q 2169 4597 2303 4453 
Q 2447 4313 2519 4134 
Q 2591 3956 2591 3750 
Q 2591 3338 2302 3052 
Q 2013 2766 1594 2766 
Q 1172 2766 890 3047 
Q 609 3328 609 3750 
Q 609 4169 896 4459 
Q 1184 4750 1600 4750 
z
" transform="scale(0.015625)"/>
       </defs>
       <use xlink:href="#DejaVuSans-30"/>
       <use xlink:href="#DejaVuSans-b0" x="63.623047"/>
      </g>
     </g>
    </g>
    <g id="xtick_2">
     <g id="line2d_2">
      <path d="M 252 181 
L 347.600837 85.399163 
" clip-path="url(#p1143cd6a3e)" style="fill: none; stroke: #808080; stroke-width: 0.8; stroke-linecap: square"/>
     </g>
     <g id="text_2">
      <!-- 45° -->
      <g transform="translate(346.865332 78.810918) scale(0.12 -0.12)">
       <defs>
        <path id="DejaVuSans-34" d="M 2419 4116 
L 825 1625 
L 2419 1625 
L 2419 4116 
z
M 2253 4666 
L 3047 4666 
L 3047 1625 
L 3713 1625 
L 3713 1100 
L 3047 1100 
L 3047 0 
L 2419 0 
L 2419 1100 
L 313 1100 
L 313 1709 
L 2253 4666 
z
" transform="scale(0.015625)"/>
        <path id="DejaVuSans-35" d="M 691 4666 
L 3169 4666 
L 3169 4134 
L 1269 4134 
L 1269 2991 
Q 1406 3038 1543 3061 
Q 1681 3084 1819 3084 
Q 2600 3084 3056 2656 
Q 3513 2228 3513 1497 
Q 3513 744 3044 326 
Q 2575 -91 1722 -91 
Q 1428 -91 1123 -41 
Q 819 9 494 109 
L 494 744 
Q 775 591 1075 516 
Q 1375 441 1709 441 
Q 2250 441 2565 725 
Q 2881 1009 2881 1497 
Q 2881 1984 2565 2268 
Q 2250 2553 1709 2553 
Q 1456 2553 1204 2497 
Q 953 2441 691 2322 
L 691 4666 
z
" transform="scale(0.015625)"/>
       </defs>
       <use xlink:href="#DejaVuSans-34"/>
       <use xlink:href="#DejaVuSans-35" x="63.623047"/>
       <use xlink:href="#DejaVuSans-b0" x="127.246094"/>
      </g>
     </g>
    </g>
    <g id="xtick_3">
     <g id="line2d_3">
      <path d="M 252 181 
L 252 45.8 
" clip-path="url(#p1143cd6a3e)" style="fill: none; stroke: #808080; stroke-width: 0.8; stroke-linecap: square"/>
     </g>
     <g id="text_3">
      <!-- 90° -->
      <g transform="translate(241.365 35.11125) scale(0.12 -0.12)">
       <defs>
        <path id="DejaVuSans-39" d="M 703 97 
L 703 672 
Q 941 559 1184 500 
Q 1428 441 1663 441 
Q 2288 441 2617 861 
Q 2947 1281 2994 2138 
Q 2813 1869 2534 1725 
Q 2256 1581 1919 1581 
Q 1219 1581 811 2004 
Q 403 2428 403 3163 
Q 403 3881 828 4315 
Q 1253 4750 1959 4750 
Q 2769 4750 3195 4129 
Q 3622 3509 3622 2328 
Q 3622 1225 3098 567 
Q 2575 -91 1691 -91 
Q 1453 -91 1209 -44 
Q 966 3 703 97 
z
M 1959 2075 
Q 2384 2075 2632 2365 
Q 2881 2656 2881 3163 
Q 2881 3666 2632 3958 
Q 2384 4250 1959 4250 
Q 1534 4250 1286 3958 
Q 1038 3666 1038 3163 
Q 1038 2656 1286 2365 
Q 1534 2075 1959 2075 
z
" transform="scale(0.015625)"/>
       </defs>
       <use xlink:href="#DejaVuSans-39"/>
       <use xlink:href="#DejaVuSans-30" x="63.623047"/>
       <use xlink:href="#DejaVuSans-b0" x="127.246094"/>
      </g>
     </g>
    </g>
    <g id="xtick_4">
     <g id="line2d_4">
      <path d="M 252 181 
L 156.399163 85.399163 
" clip-path="url(#p1143cd6a3e)" style="fill: none; stroke: #808080; stroke-width: 0.8; stroke-linecap: square"/>
     </g>
     <g id="text_4">
      <!-- 135° -->
      <g transform="translate(132.047168 78.810918) scale(0.12 -0.12)">
       <defs>
        <path id="DejaVuSans-31" d="M 794 531 
L 1825 531 
L 1825 4091 
L 703 3866 
L 703 4441 
L 1819 4666 
L 2450 4666 
L 2450 531 
L 3481 531 
L 3481 0 
L 794 0 
L 794 531 
z
" transform="scale(0.015625)"/>
        <path id="DejaVuSans-33" d="M 2597 2516 
Q 3050 2419 3304 2112 
Q 3559 1806 3559 1356 
Q 3559 666 3084 287 
Q 2609 -91 1734 -91 
Q 1441 -91 1130 -33 
Q 819 25 488 141 
L 488 750 
Q 750 597 1062 519 
Q 1375 441 1716 441 
Q 2309 441 2620 675 
Q 2931 909 2931 1356 
Q 2931 1769 2642 2001 
Q 2353 2234 1838 2234 
L 1294 2234 
L 1294 2753 
L 1863 2753 
Q 2328 2753 2575 2939 
Q 2822 3125 2822 3475 
Q 2822 3834 2567 4026 
Q 2313 4219 1838 4219 
Q 1578 4219 1281 4162 
Q 984 4106 628 3988 
L 628 4550 
Q 988 4650 1302 4700 
Q 1616 4750 1894 4750 
Q 2613 4750 3031 4423 
Q 3450 4097 3450 3541 
Q 3450 3153 3228 2886 
Q 3006 2619 2597 2516 
z
" transform="scale(0.015625)"/>
       </defs>
       <use xlink:href="#DejaVuSans-31"/>
       <use xlink:href="#DejaVuSans-33" x="63.623047"/>
       <use xlink:href="#DejaVuSans-35" x="127.246094"/>
       <use xlink:href="#DejaVuSans-b0" x="190.869141"/>
      </g>
     </g>
    </g>
    <g id="xtick_5">
     <g id="line2d_5">
      <path d="M 252 181 
L 116.8 181 
" clip-path="url(#p1143cd6a3e)" style="fill: none; stroke: #808080; stroke-width: 0.8; stroke-linecap: square"/>
     </g>
     <g id="text_5">
      <!-- 180° -->
      <g transform="translate(88.3475 184.31125) scale(0.12 -0.12)">
       <defs>
        <path id="DejaVuSans-38" d="M 2034 2216 
Q 1584 2216 1326 1975 
Q 1069 1734 1069 1313 
Q 1069 891 1326 650 
Q 1584 409 2034 409 
Q 2484 409 2743 651 
Q 3003 894 3003 1313 
Q 3003 1734 2745 1975 
Q 2488 2216 2034 2216 
z
M 1403 2484 
Q 997 2584 770 2862 
Q 544 3141 544 3541 
Q 544 4100 942 4425 
Q 1341 4750 2034 4750 
Q 2731 4750 3128 4425 
Q 3525 4100 3525 3541 
Q 3525 3141 3298 2862 
Q 3072 2584 2669 2484 
Q 3125 2378 3379 2068 
Q 3634 1759 3634 1313 
Q 3634 634 3220 271 
Q 2806 -91 2034 -91 
Q 1263 -91 848 271 
Q 434 634 434 1313 
Q 434 1759 690 2068 
Q 947 2378 1403 2484 
z
M 1172 3481 
Q 1172 3119 1398 2916 
Q 1625 2713 2034 2713 
Q 2441 2713 2670 2916 
Q 2900 3119 2900 3481 
Q 2900 3844 2670 4047 
Q 2441 4250 2034 4250 
Q 1625 4250 1398 4047 
Q 1172 3844 1172 3481 
z
" transform="scale(0.015625)"/>
       </defs>
       <use xlink:href="#DejaVuSans-31"/>
       <use xlink:href="#DejaVuSans-38" x="63.623047"/>
       <use xlink:href="#DejaVuSans-30" x="127.246094"/>
       <use xlink:href="#DejaVuSans-b0" x="190.869141"/>
      </g>
     </g>
    </g>
    <g id="xtick_6">
     <g id="line2d_6">
      <path d="M 252 181 
L 156.399163 276.600837 
" clip-path="url(#p1143cd6a3e)" style="fill: none; stroke: #808080; stroke-width: 0.8; stroke-linecap: square"/>
     </g>
     <g id="text_6">
      <!-- 225° -->
      <g transform="translate(132.047168 289.811582) scale(0.12 -0.12)">
       <defs>
        <path id="DejaVuSans-32" d="M 1228 531 
L 3431 531 
L 3431 0 
L 469 0 
L 469 531 
Q 828 903 1448 1529 
Q 2069 2156 2228 2338 
Q 2531 2678 2651 2914 
Q 2772 3150 2772 3378 
Q 2772 3750 2511 3984 
Q 2250 4219 1831 4219 
Q 1534 4219 1204 4116 
Q 875 4013 500 3803 
L 500 4441 
Q 881 4594 1212 4672 
Q 1544 4750 1819 4750 
Q 2544 4750 2975 4387 
Q 3406 4025 3406 3419 
Q 3406 3131 3298 2873 
Q 3191 2616 2906 2266 
Q 2828 2175 2409 1742 
Q 1991 1309 1228 531 
z
" transform="scale(0.015625)"/>
       </defs>
       <use xlink:href="#DejaVuSans-32"/>
       <use xlink:href="#DejaVuSans-32" x="63.623047"/>
       <use xlink:href="#DejaVuSans-35" x="127.246094"/>
       <use xlink:href="#DejaVuSans-b0" x="190.869141"/>
      </g>
     </g>
    </g>
    <g id="xtick_7">
     <g id="line2d_7">
      <path d="M 252 181 
L 252 316.2 
" clip-path="url(#p1143cd6a3e)" style="fill: none; stroke: #808080; stroke-width: 0.8; stroke-linecap: square"/>
     </g>
     <g id="text_7">
      <!-- 270° -->
      <g transform="translate(237.5475 333.51125) scale(0.12 -0.12)">
       <defs>
        <path id="DejaVuSans-37" d="M 525 4666 
L 3525 4666 
L 3525 4397 
L 1831 0 
L 1172 0 
L 2766 4134 
L 525 4134 
L 525 4666 
z
" transform="scale(0.015625)"/>
       </defs>
       <use xlink:href="#DejaVuSans-32"/>
       <use xlink:href="#DejaVuSans-37" x="63.623047"/>
       <use xlink:href="#DejaVuSans-30" x="127.246094"/>
       <use xlink:href="#DejaVuSans-b0" x="190.869141"/>
      </g>
     </g>
    </g>
    <g id="xtick_8">
     <g id="line2d_8">
      <path d="M 252 181 
L 347.600837 276.600837 
" clip-path="url(#p1143cd6a3e)" style="fill: none; stroke: #808080; stroke-width: 0.8; stroke-linecap: square"/>
     </g>
     <g id="text_8">
      <!-- 315° -->
      <g transform="translate(343.047832 289.811582) scale(0.12 -0.12)">
       <use xlink:href="#DejaVuSans-33"/>
       <use xlink:href="#DejaVuSans-31" x="63.623047"/>
       <use xlink:href="#DejaVuSans-35" x="127.246094"/>
       <use xlink:href="#DejaVuSans-b0" x="190.869141"/>
      </g>
     </g>
    </g>
    <g id="text_9">
     <!-- frequency [MHz] -->
     <g transform="translate(202.48125 349.125) scale(0.12 -0.12)">
      <defs>
       <path id="DejaVuSans-66" d="M 2375 4863 
L 2375 4384 
L 1825 4384 
Q 1516 4384 1395 4259 
Q 1275 4134 1275 3809 
L 1275 3500 
L 2222 3500 
L 2222 3053 
L 1275 3053 
L 1275 0 
L 697 0 
L 697 3053 
L 147 3053 
L 147 3500 
L 697 3500 
L 697 3744 
Q 697 4328 969 4595 
Q 1241 4863 1831 4863 
L 2375 4863 
z
" transform="scale(0.015625)"/>
       <path id="DejaVuSans-72" d="M 2631 2963 
Q 2534 3019 2420 3045 
Q 2306 3072 2169 3072 
Q 1681 3072 1420 2755 
Q 1159 2438 1159 1844 
L 1159 0 
L 581 0 
L 581 3500 
L 1159 3500 
L 1159 2956 
Q 1341 3275 1631 3429 
Q 1922 3584 2338 3584 
Q 2397 3584 2469 3576 
Q 2541 3569 2628 3553 
L 2631 2963 
z
" transform="scale(0.015625)"/>
       <path id="DejaVuSans-65" d="M 3597 1894 
L 3597 1613 
L 953 1613 
Q 991 1019 1311 708 
Q 1631 397 2203 397 
Q 2534 397 2845 478 
Q 3156 559 3463 722 
L 3463 178 
Q 3153 47 2828 -22 
Q 2503 -91 2169 -91 
Q 1331 -91 842 396 
Q 353 884 353 1716 
Q 353 2575 817 3079 
Q 1281 3584 2069 3584 
Q 2775 3584 3186 3129 
Q 3597 2675 3597 1894 
z
M 3022 2063 
Q 3016 2534 2758 2815 
Q 2500 3097 2075 3097 
Q 1594 3097 1305 2825 
Q 1016 2553 972 2059 
L 3022 2063 
z
" transform="scale(0.015625)"/>
       <path id="DejaVuSans-71" d="M 947 1747 
Q 947 1113 1208 752 
Q 1469 391 1925 391 
Q 2381 391 2643 752 
Q 2906 1113 2906 1747 
Q 2906 2381 2643 2742 
Q 2381 3103 1925 3103 
Q 1469 3103 1208 2742 
Q 947 2381 947 1747 
z
M 2906 525 
Q 2725 213 2448 61 
Q 2172 -91 1784 -91 
Q 1150 -91 751 415 
Q 353 922 353 1747 
Q 353 2572 751 3078 
Q 1150 3584 1784 3584 
Q 2172 3584 2448 3432 
Q 2725 3281 2906 2969 
L 2906 3500 
L 3481 3500 
L 3481 -1331 
L 2906 -1331 
L 2906 525 
z
" transform="scale(0.015625)"/>
       <path id="DejaVuSans-75" d="M 544 1381 
L 544 3500 
L 1119 3500 
L 1119 1403 
Q 1119 906 1312 657 
Q 1506 409 1894 409 
Q 2359 409 2629 706 
Q 2900 1003 2900 1516 
L 2900 3500 
L 3475 3500 
L 3475 0 
L 2900 0 
L 2900 538 
Q 2691 219 2414 64 
Q 2138 -91 1772 -91 
Q 1169 -91 856 284 
Q 544 659 544 1381 
z
M 1991 3584 
L 1991 3584 
z
" transform="scale(0.015625)"/>
       <path id="DejaVuSans-6e" d="M 3513 2113 
L 3513 0 
L 2938 0 
L 2938 2094 
Q 2938 2591 2744 2837 
Q 2550 3084 2163 3084 
Q 1697 3084 1428 2787 
Q 1159 2491 1159 1978 
L 1159 0 
L 581 0 
L 581 3500 
L 1159 3500 
L 1159 2956 
Q 1366 3272 1645 3428 
Q 1925 3584 2291 3584 
Q 2894 3584 3203 3211 
Q 3513 2838 3513 2113 
z
" transform="scale(0.015625)"/>
       <path id="DejaVuSans-63" d="M 3122 3366 
L 3122 2828 
Q 2878 2963 2633 3030 
Q 2388 3097 2138 3097 
Q 1578 3097 1268 2742 
Q 959 2388 959 1747 
Q 959 1106 1268 751 
Q 1578 397 2138 397 
Q 2388 397 2633 464 
Q 2878 531 3122 666 
L 3122 134 
Q 2881 22 2623 -34 
Q 2366 -91 2075 -91 
Q 1284 -91 818 406 
Q 353 903 353 1747 
Q 353 2603 823 3093 
Q 1294 3584 2113 3584 
Q 2378 3584 2631 3529 
Q 2884 3475 3122 3366 
z
" transform="scale(0.015625)"/>
       <path id="DejaVuSans-79" d="M 2059 -325 
Q 1816 -950 1584 -1140 
Q 1353 -1331 966 -1331 
L 506 -1331 
L 506 -850 
L 844 -850 
Q 1081 -850 1212 -737 
Q 1344 -625 1503 -206 
L 1606 56 
L 191 3500 
L 800 3500 
L 1894 763 
L 2988 3500 
L 3597 3500 
L 2059 -325 
z
" transform="scale(0.015625)"/>
       <path id="DejaVuSans-20" transform="scale(0.015625)"/>
       <path id="DejaVuSans-5b" d="M 550 4863 
L 1875 4863 
L 1875 4416 
L 1125 4416 
L 1125 -397 
L 1875 -397 
L 1875 -844 
L 550 -844 
L 550 4863 
z
" transform="scale(0.015625)"/>
       <path id="DejaVuSans-4d" d="M 628 4666 
L 1569 4666 
L 2759 1491 
L 3956 4666 
L 4897 4666 
L 4897 0 
L 4281 0 
L 4281 4097 
L 3078 897 
L 2444 897 
L 1241 4097 
L 1241 0 
L 628 0 
L 628 4666 
z
" transform="scale(0.015625)"/>
       <path id="DejaVuSans-48" d="M 628 4666 
L 1259 4666 
L 1259 2753 
L 3553 2753 
L 3553 4666 
L 4184 4666 
L 4184 0 
L 3553 0 
L 3553 2222 
L 1259 2222 
L 1259 0 
L 628 0 
L 628 4666 
z
" transform="scale(0.015625)"/>
       <path id="DejaVuSans-7a" d="M 353 3500 
L 3084 3500 
L 3084 2975 
L 922 459 
L 3084 459 
L 3084 0 
L 275 0 
L 275 525 
L 2438 3041 
L 353 3041 
L 353 3500 
z
" transform="scale(0.015625)"/>
       <path id="DejaVuSans-5d" d="M 1947 4863 
L 1947 -844 
L 622 -844 
L 622 -397 
L 1369 -397 
L 1369 4416 
L 622 4416 
L 622 4863 
L 1947 4863 
z
" transform="scale(0.015625)"/>
      </defs>
      <use xlink:href="#DejaVuSans-66"/>
      <use xlink:href="#DejaVuSans-72" x="35.205078"/>
      <use xlink:href="#DejaVuSans-65" x="74.068359"/>
      <use xlink:href="#DejaVuSans-71" x="135.591797"/>
      <use xlink:href="#DejaVuSans-75" x="199.068359"/>
      <use xlink:href="#DejaVuSans-65" x="262.447266"/>
      <use xlink:href="#DejaVuSans-6e" x="323.970703"/>
      <use xlink:href="#DejaVuSans-63" x="387.349609"/>
      <use xlink:href="#DejaVuSans-79" x="442.330078"/>
      <use xlink:href="#DejaVuSans-20" x="501.509766"/>
      <use xlink:href="#DejaVuSans-5b" x="533.296875"/>
      <use xlink:href="#DejaVuSans-4d" x="572.310547"/>
      <use xlink:href="#DejaVuSans-48" x="658.589844"/>
      <use xlink:href="#DejaVuSans-7a" x="733.785156"/>
      <use xlink:href="#DejaVuSans-5d" x="786.275391"/>
     </g>
    </g>
   </g>
   <g id="matplotlib.axis_2">
    <g id="ytick_1">
     <g id="line2d_9">
      <path d="M 252.405296 181 
C 252.405296 180.946777 252.394812 180.894071 252.374445 180.8449 
C 252.354077 180.795728 252.324222 180.751047 252.286588 180.713412 
C 252.248953 180.675778 252.204272 180.645923 252.1551 180.625555 
C 252.105929 180.605188 252.053223 180.594704 252 180.594704 
C 251.946777 180.594704 251.894071 180.605188 251.8449 180.625555 
C 251.795728 180.645923 251.751047 180.675778 251.713412 180.713412 
C 251.675778 180.751047 251.645923 180.795728 251.625555 180.8449 
C 251.605188 180.894071 251.594704 180.946777 251.594704 181 
C 251.594704 181.053223 251.605188 181.105929 251.625555 181.1551 
C 251.645923 181.204272 251.675778 181.248953 251.713412 181.286588 
C 251.751047 181.324222 251.795728 181.354077 251.8449 181.374445 
C 251.894071 181.394812 251.946777 181.405296 252 181.405296 
C 252.053223 181.405296 252.105929 181.394812 252.1551 181.374445 
C 252.204272 181.354077 252.248953 181.324222 252.286588 181.286588 
C 252.324222 181.248953 252.354077 181.204272 252.374445 181.1551 
C 252.394812 181.105929 252.405296 181.053223 252.405296 181 
" clip-path="url(#p1143cd6a3e)" style="fill: none; stroke: #808080; stroke-width: 0.8; stroke-linecap: square"/>
     </g>
     <g id="text_10">
      <!-- −70 -->
      <g transform="translate(252.374445 178.349275) scale(0.12 -0.12)">
       <defs>
        <path id="DejaVuSans-2212" d="M 678 2272 
L 4684 2272 
L 4684 1741 
L 678 1741 
L 678 2272 
z
" transform="scale(0.015625)"/>
       </defs>
       <use xlink:href="#DejaVuSans-2212"/>
       <use xlink:href="#DejaVuSans-37" x="83.789062"/>
       <use xlink:href="#DejaVuSans-30" x="147.412109"/>
      </g>
     </g>
    </g>
    <g id="ytick_2">
     <g id="line2d_10">
      <path d="M 271.661683 181 
C 271.661683 178.418052 271.153095 175.861209 270.165026 173.4758 
C 269.176957 171.09039 267.728622 168.922804 265.902909 167.097091 
C 264.077196 165.271378 261.90961 163.823043 259.5242 162.834974 
C 257.138791 161.846905 254.581948 161.338317 252 161.338317 
C 249.418052 161.338317 246.861209 161.846905 244.4758 162.834974 
C 242.09039 163.823043 239.922804 165.271378 238.097091 167.097091 
C 236.271378 168.922804 234.823043 171.09039 233.834974 173.4758 
C 232.846905 175.861209 232.338317 178.418052 232.338317 181 
C 232.338317 183.581948 232.846905 186.138791 233.834974 188.5242 
C 234.823043 190.90961 236.271378 193.077196 238.097091 194.902909 
C 239.922804 196.728622 242.09039 198.176957 244.4758 199.165026 
C 246.861209 200.153095 249.418052 200.661683 252 200.661683 
C 254.581948 200.661683 257.138791 200.153095 259.5242 199.165026 
C 261.90961 198.176957 264.077196 196.728622 265.902909 194.902909 
C 267.728622 193.077196 269.176957 190.90961 270.165026 188.5242 
C 271.153095 186.138791 271.661683 183.581948 271.661683 181 
" clip-path="url(#p1143cd6a3e)" style="fill: none; stroke: #808080; stroke-width: 0.8; stroke-linecap: square"/>
     </g>
     <g id="text_11">
      <!-- −60 -->
      <g transform="translate(270.165026 170.980175) scale(0.12 -0.12)">
       <defs>
        <path id="DejaVuSans-36" d="M 2113 2584 
Q 1688 2584 1439 2293 
Q 1191 2003 1191 1497 
Q 1191 994 1439 701 
Q 1688 409 2113 409 
Q 2538 409 2786 701 
Q 3034 994 3034 1497 
Q 3034 2003 2786 2293 
Q 2538 2584 2113 2584 
z
M 3366 4563 
L 3366 3988 
Q 3128 4100 2886 4159 
Q 2644 4219 2406 4219 
Q 1781 4219 1451 3797 
Q 1122 3375 1075 2522 
Q 1259 2794 1537 2939 
Q 1816 3084 2150 3084 
Q 2853 3084 3261 2657 
Q 3669 2231 3669 1497 
Q 3669 778 3244 343 
Q 2819 -91 2113 -91 
Q 1303 -91 875 529 
Q 447 1150 447 2328 
Q 447 3434 972 4092 
Q 1497 4750 2381 4750 
Q 2619 4750 2861 4703 
Q 3103 4656 3366 4563 
z
" transform="scale(0.015625)"/>
       </defs>
       <use xlink:href="#DejaVuSans-2212"/>
       <use xlink:href="#DejaVuSans-36" x="83.789062"/>
       <use xlink:href="#DejaVuSans-30" x="147.412109"/>
      </g>
     </g>
    </g>
    <g id="ytick_3">
     <g id="line2d_11">
      <path d="M 290.918069 181 
C 290.918069 175.889326 289.911377 170.828347 287.955607 166.1067 
C 285.999837 161.385053 283.133023 157.094562 279.51923 153.48077 
C 275.905438 149.866977 271.614947 147.000163 266.8933 145.044393 
C 262.171653 143.088623 257.110674 142.081931 252 142.081931 
C 246.889326 142.081931 241.828347 143.088623 237.1067 145.044393 
C 232.385053 147.000163 228.094562 149.866977 224.48077 153.48077 
C 220.866977 157.094562 218.000163 161.385053 216.044393 166.1067 
C 214.088623 170.828347 213.081931 175.889326 213.081931 181 
C 213.081931 186.110674 214.088623 191.171653 216.044393 195.8933 
C 218.000163 200.614947 220.866977 204.905438 224.48077 208.51923 
C 228.094562 212.133023 232.385053 214.999837 237.1067 216.955607 
C 241.828347 218.911377 246.889326 219.918069 252 219.918069 
C 257.110674 219.918069 262.171653 218.911377 266.8933 216.955607 
C 271.614947 214.999837 275.905438 212.133023 279.51923 208.51923 
C 283.133023 204.905438 285.999837 200.614947 287.955607 195.8933 
C 289.911377 191.171653 290.918069 186.110674 290.918069 181 
" clip-path="url(#p1143cd6a3e)" style="fill: none; stroke: #808080; stroke-width: 0.8; stroke-linecap: square"/>
     </g>
     <g id="text_12">
      <!-- −50 -->
      <g transform="translate(287.955607 163.611075) scale(0.12 -0.12)">
       <use xlink:href="#DejaVuSans-2212"/>
       <use xlink:href="#DejaVuSans-35" x="83.789062"/>
       <use xlink:href="#DejaVuSans-30" x="147.412109"/>
      </g>
     </g>
    </g>
    <g id="ytick_4">
     <g id="line2d_12">
      <path d="M 310.174455 181 
C 310.174455 173.360601 308.66966 165.795485 305.746188 158.7376 
C 302.822717 151.679715 298.537423 145.26632 293.135552 139.864448 
C 287.73368 134.462577 281.320285 130.177283 274.2624 127.253812 
C 267.204515 124.33034 259.639399 122.825545 252 122.825545 
C 244.360601 122.825545 236.795485 124.33034 229.7376 127.253812 
C 222.679715 130.177283 216.26632 134.462577 210.864448 139.864448 
C 205.462577 145.26632 201.177283 151.679715 198.253812 158.7376 
C 195.33034 165.795485 193.825545 173.360601 193.825545 181 
C 193.825545 188.639399 195.33034 196.204515 198.253812 203.2624 
C 201.177283 210.320285 205.462577 216.73368 210.864448 222.135552 
C 216.26632 227.537423 222.679715 231.822717 229.7376 234.746188 
C 236.795485 237.66966 244.360601 239.174455 252 239.174455 
C 259.639399 239.174455 267.204515 237.66966 274.2624 234.746188 
C 281.320285 231.822717 287.73368 227.537423 293.135552 222.135552 
C 298.537423 216.73368 302.822717 210.320285 305.746188 203.2624 
C 308.66966 196.204515 310.174455 188.639399 310.174455 181 
" clip-path="url(#p1143cd6a3e)" style="fill: none; stroke: #808080; stroke-width: 0.8; stroke-linecap: square"/>
     </g>
     <g id="text_13">
      <!-- −40 -->
      <g transform="translate(305.746188 156.241975) scale(0.12 -0.12)">
       <use xlink:href="#DejaVuSans-2212"/>
       <use xlink:href="#DejaVuSans-34" x="83.789062"/>
       <use xlink:href="#DejaVuSans-30" x="147.412109"/>
      </g>
     </g>
    </g>
    <g id="ytick_5">
     <g id="line2d_13">
      <path d="M 329.430841 181 
C 329.430841 170.831875 327.427942 160.762622 323.536769 151.3685 
C 319.645596 141.974377 313.941823 133.438077 306.751873 126.248127 
C 299.561923 119.058177 291.025623 113.354404 281.6315 109.463231 
C 272.237378 105.572058 262.168125 103.569159 252 103.569159 
C 241.831875 103.569159 231.762622 105.572058 222.3685 109.463231 
C 212.974377 113.354404 204.438077 119.058177 197.248127 126.248127 
C 190.058177 133.438077 184.354404 141.974377 180.463231 151.3685 
C 176.572058 160.762622 174.569159 170.831875 174.569159 181 
C 174.569159 191.168125 176.572058 201.237378 180.463231 210.6315 
C 184.354404 220.025623 190.058177 228.561923 197.248127 235.751873 
C 204.438077 242.941823 212.974377 248.645596 222.3685 252.536769 
C 231.762622 256.427942 241.831875 258.430841 252 258.430841 
C 262.168125 258.430841 272.237378 256.427942 281.6315 252.536769 
C 291.025623 248.645596 299.561923 242.941823 306.751873 235.751873 
C 313.941823 228.561923 319.645596 220.025623 323.536769 210.6315 
C 327.427942 201.237378 329.430841 191.168125 329.430841 181 
" clip-path="url(#p1143cd6a3e)" style="fill: none; stroke: #808080; stroke-width: 0.8; stroke-linecap: square"/>
     </g>
     <g id="text_14">
      <!-- −30 -->
      <g transform="translate(323.536769 148.872875) scale(0.12 -0.12)">
       <use xlink:href="#DejaVuSans-2212"/>
       <use xlink:href="#DejaVuSans-33" x="83.789062"/>
       <use xlink:href="#DejaVuSans-30" x="147.412109"/>
      </g>
     </g>
    </g>
    <g id="ytick_6">
     <g id="line2d_14">
      <path d="M 348.687228 181 
C 348.687228 168.30315 346.186225 155.72976 341.327351 143.9994 
C 336.468476 132.26904 329.346223 121.609835 320.368194 112.631806 
C 311.390165 103.653777 300.73096 96.531524 289.0006 91.672649 
C 277.27024 86.813775 264.69685 84.312772 252 84.312772 
C 239.30315 84.312772 226.72976 86.813775 214.9994 91.672649 
C 203.26904 96.531524 192.609835 103.653777 183.631806 112.631806 
C 174.653777 121.609835 167.531524 132.26904 162.672649 143.9994 
C 157.813775 155.72976 155.312772 168.30315 155.312772 181 
C 155.312772 193.69685 157.813775 206.27024 162.672649 218.0006 
C 167.531524 229.73096 174.653777 240.390165 183.631806 249.368194 
C 192.609835 258.346223 203.26904 265.468476 214.9994 270.327351 
C 226.72976 275.186225 239.30315 277.687228 252 277.687228 
C 264.69685 277.687228 277.27024 275.186225 289.0006 270.327351 
C 300.73096 265.468476 311.390165 258.346223 320.368194 249.368194 
C 329.346223 240.390165 336.468476 229.73096 341.327351 218.0006 
C 346.186225 206.27024 348.687228 193.69685 348.687228 181 
" clip-path="url(#p1143cd6a3e)" style="fill: none; stroke: #808080; stroke-width: 0.8; stroke-linecap: square"/>
     </g>
     <g id="text_15">
      <!-- −20 -->
      <g transform="translate(341.327351 141.503775) scale(0.12 -0.12)">
       <use xlink:href="#DejaVuSans-2212"/>
       <use xlink:href="#DejaVuSans-32" x="83.789062"/>
       <use xlink:href="#DejaVuSans-30" x="147.412109"/>
      </g>
     </g>
    </g>
    <g id="ytick_7">
     <g id="line2d_15">
      <path d="M 367.943614 181 
C 367.943614 165.774424 364.944507 150.696898 359.117932 136.6303 
C 353.291356 122.563702 344.750623 109.781592 333.984516 99.015484 
C 323.218408 88.249377 310.436298 79.708644 296.3697 73.882068 
C 282.303102 68.055493 267.225576 65.056386 252 65.056386 
C 236.774424 65.056386 221.696898 68.055493 207.6303 73.882068 
C 193.563702 79.708644 180.781592 88.249377 170.015484 99.015484 
C 159.249377 109.781592 150.708644 122.563702 144.882068 136.6303 
C 139.055493 150.696898 136.056386 165.774424 136.056386 181 
C 136.056386 196.225576 139.055493 211.303102 144.882068 225.3697 
C 150.708644 239.436298 159.249377 252.218408 170.015484 262.984516 
C 180.781592 273.750623 193.563702 282.291356 207.6303 288.117932 
C 221.696898 293.944507 236.774424 296.943614 252 296.943614 
C 267.225576 296.943614 282.303102 293.944507 296.3697 288.117932 
C 310.436298 282.291356 323.218408 273.750623 333.984516 262.984516 
C 344.750623 252.218408 353.291356 239.436298 359.117932 225.3697 
C 364.944507 211.303102 367.943614 196.225576 367.943614 181 
" clip-path="url(#p1143cd6a3e)" style="fill: none; stroke: #808080; stroke-width: 0.8; stroke-linecap: square"/>
     </g>
     <g id="text_16">
      <!-- −10 -->
      <g transform="translate(359.117932 134.134675) scale(0.12 -0.12)">
       <use xlink:href="#DejaVuSans-2212"/>
       <use xlink:href="#DejaVuSans-31" x="83.789062"/>
       <use xlink:href="#DejaVuSans-30" x="147.412109"/>
      </g>
     </g>
    </g>
    <g id="ytick_8">
     <g id="line2d_16">
      <path d="M 387.2 181 
C 387.2 163.245699 383.70279 145.664036 376.908513 129.2612 
C 370.114236 112.858364 360.155024 97.95335 347.600837 85.399163 
C 335.04665 72.844976 320.141636 62.885764 303.7388 56.091487 
C 287.335964 49.29721 269.754301 45.8 252 45.8 
C 234.245699 45.8 216.664036 49.29721 200.2612 56.091487 
C 183.858364 62.885764 168.95335 72.844976 156.399163 85.399163 
C 143.844976 97.95335 133.885764 112.858364 127.091487 129.2612 
C 120.29721 145.664036 116.8 163.245699 116.8 181 
C 116.8 198.754301 120.29721 216.335964 127.091487 232.7388 
C 133.885764 249.141636 143.844976 264.04665 156.399163 276.600837 
C 168.95335 289.155024 183.858364 299.114236 200.2612 305.908513 
C 216.664036 312.70279 234.245699 316.2 252 316.2 
C 269.754301 316.2 287.335964 312.70279 303.7388 305.908513 
C 320.141636 299.114236 335.04665 289.155024 347.600837 276.600837 
C 360.155024 264.04665 370.114236 249.141636 376.908513 232.7388 
C 383.70279 216.335964 387.2 198.754301 387.2 181 
" clip-path="url(#p1143cd6a3e)" style="fill: none; stroke: #808080; stroke-width: 0.8; stroke-linecap: square"/>
     </g>
     <g id="text_17">
      <!-- 0 -->
      <g transform="translate(376.908513 126.765575) scale(0.12 -0.12)">
       <use xlink:href="#DejaVuSans-30"/>
      </g>
     </g>
    </g>
    <g id="text_18">
     <!-- magnitude [dB] -->
     <g transform="translate(110.304375 227.969688) rotate(-90) scale(0.12 -0.12)">
      <defs>
       <path id="DejaVuSans-6d" d="M 3328 2828 
Q 3544 3216 3844 3400 
Q 4144 3584 4550 3584 
Q 5097 3584 5394 3201 
Q 5691 2819 5691 2113 
L 5691 0 
L 5113 0 
L 5113 2094 
Q 5113 2597 4934 2840 
Q 4756 3084 4391 3084 
Q 3944 3084 3684 2787 
Q 3425 2491 3425 1978 
L 3425 0 
L 2847 0 
L 2847 2094 
Q 2847 2600 2669 2842 
Q 2491 3084 2119 3084 
Q 1678 3084 1418 2786 
Q 1159 2488 1159 1978 
L 1159 0 
L 581 0 
L 581 3500 
L 1159 3500 
L 1159 2956 
Q 1356 3278 1631 3431 
Q 1906 3584 2284 3584 
Q 2666 3584 2933 3390 
Q 3200 3197 3328 2828 
z
" transform="scale(0.015625)"/>
       <path id="DejaVuSans-61" d="M 2194 1759 
Q 1497 1759 1228 1600 
Q 959 1441 959 1056 
Q 959 750 1161 570 
Q 1363 391 1709 391 
Q 2188 391 2477 730 
Q 2766 1069 2766 1631 
L 2766 1759 
L 2194 1759 
z
M 3341 1997 
L 3341 0 
L 2766 0 
L 2766 531 
Q 2569 213 2275 61 
Q 1981 -91 1556 -91 
Q 1019 -91 701 211 
Q 384 513 384 1019 
Q 384 1609 779 1909 
Q 1175 2209 1959 2209 
L 2766 2209 
L 2766 2266 
Q 2766 2663 2505 2880 
Q 2244 3097 1772 3097 
Q 1472 3097 1187 3025 
Q 903 2953 641 2809 
L 641 3341 
Q 956 3463 1253 3523 
Q 1550 3584 1831 3584 
Q 2591 3584 2966 3190 
Q 3341 2797 3341 1997 
z
" transform="scale(0.015625)"/>
       <path id="DejaVuSans-67" d="M 2906 1791 
Q 2906 2416 2648 2759 
Q 2391 3103 1925 3103 
Q 1463 3103 1205 2759 
Q 947 2416 947 1791 
Q 947 1169 1205 825 
Q 1463 481 1925 481 
Q 2391 481 2648 825 
Q 2906 1169 2906 1791 
z
M 3481 434 
Q 3481 -459 3084 -895 
Q 2688 -1331 1869 -1331 
Q 1566 -1331 1297 -1286 
Q 1028 -1241 775 -1147 
L 775 -588 
Q 1028 -725 1275 -790 
Q 1522 -856 1778 -856 
Q 2344 -856 2625 -561 
Q 2906 -266 2906 331 
L 2906 616 
Q 2728 306 2450 153 
Q 2172 0 1784 0 
Q 1141 0 747 490 
Q 353 981 353 1791 
Q 353 2603 747 3093 
Q 1141 3584 1784 3584 
Q 2172 3584 2450 3431 
Q 2728 3278 2906 2969 
L 2906 3500 
L 3481 3500 
L 3481 434 
z
" transform="scale(0.015625)"/>
       <path id="DejaVuSans-69" d="M 603 3500 
L 1178 3500 
L 1178 0 
L 603 0 
L 603 3500 
z
M 603 4863 
L 1178 4863 
L 1178 4134 
L 603 4134 
L 603 4863 
z
" transform="scale(0.015625)"/>
       <path id="DejaVuSans-74" d="M 1172 4494 
L 1172 3500 
L 2356 3500 
L 2356 3053 
L 1172 3053 
L 1172 1153 
Q 1172 725 1289 603 
Q 1406 481 1766 481 
L 2356 481 
L 2356 0 
L 1766 0 
Q 1100 0 847 248 
Q 594 497 594 1153 
L 594 3053 
L 172 3053 
L 172 3500 
L 594 3500 
L 594 4494 
L 1172 4494 
z
" transform="scale(0.015625)"/>
       <path id="DejaVuSans-64" d="M 2906 2969 
L 2906 4863 
L 3481 4863 
L 3481 0 
L 2906 0 
L 2906 525 
Q 2725 213 2448 61 
Q 2172 -91 1784 -91 
Q 1150 -91 751 415 
Q 353 922 353 1747 
Q 353 2572 751 3078 
Q 1150 3584 1784 3584 
Q 2172 3584 2448 3432 
Q 2725 3281 2906 2969 
z
M 947 1747 
Q 947 1113 1208 752 
Q 1469 391 1925 391 
Q 2381 391 2643 752 
Q 2906 1113 2906 1747 
Q 2906 2381 2643 2742 
Q 2381 3103 1925 3103 
Q 1469 3103 1208 2742 
Q 947 2381 947 1747 
z
" transform="scale(0.015625)"/>
       <path id="DejaVuSans-42" d="M 1259 2228 
L 1259 519 
L 2272 519 
Q 2781 519 3026 730 
Q 3272 941 3272 1375 
Q 3272 1813 3026 2020 
Q 2781 2228 2272 2228 
L 1259 2228 
z
M 1259 4147 
L 1259 2741 
L 2194 2741 
Q 2656 2741 2882 2914 
Q 3109 3088 3109 3444 
Q 3109 3797 2882 3972 
Q 2656 4147 2194 4147 
L 1259 4147 
z
M 628 4666 
L 2241 4666 
Q 2963 4666 3353 4366 
Q 3744 4066 3744 3513 
Q 3744 3084 3544 2831 
Q 3344 2578 2956 2516 
Q 3422 2416 3680 2098 
Q 3938 1781 3938 1306 
Q 3938 681 3513 340 
Q 3088 0 2303 0 
L 628 0 
L 628 4666 
z
" transform="scale(0.015625)"/>
      </defs>
      <use xlink:href="#DejaVuSans-6d"/>
      <use xlink:href="#DejaVuSans-61" x="97.412109"/>
      <use xlink:href="#DejaVuSans-67" x="158.691406"/>
      <use xlink:href="#DejaVuSans-6e" x="222.167969"/>
      <use xlink:href="#DejaVuSans-69" x="285.546875"/>
      <use xlink:href="#DejaVuSans-74" x="313.330078"/>
      <use xlink:href="#DejaVuSans-75" x="352.539062"/>
      <use xlink:href="#DejaVuSans-64" x="415.917969"/>
      <use xlink:href="#DejaVuSans-65" x="479.394531"/>
      <use xlink:href="#DejaVuSans-20" x="540.917969"/>
      <use xlink:href="#DejaVuSans-5b" x="572.705078"/>
      <use xlink:href="#DejaVuSans-64" x="611.71875"/>
      <use xlink:href="#DejaVuSans-42" x="675.195312"/>
      <use xlink:href="#DejaVuSans-5d" x="743.798828"/>
     </g>
    </g>
   </g>
   <g id="line2d_17">
    <path d="M 385.06415 190.423309 
L 384.53641 195.618989 
L 383.82232 200.539028 
L 382.852819 205.660938 
L 381.740773 210.416113 
L 380.356786 215.373812 
L 378.726242 220.35438 
L 376.912367 225.163419 
L 375.013421 229.612056 
L 372.747211 234.341112 
L 370.544844 238.471339 
L 368.031043 242.743091 
L 365.185505 247.118808 
L 361.994017 251.552612 
L 359.18735 255.105836 
L 356.156658 258.632078 
L 352.907983 262.099567 
L 349.452239 265.475829 
L 345.805256 268.728769 
L 341.987529 271.827808 
L 338.023707 274.744995 
L 333.941798 277.455994 
L 329.77219 279.940881 
L 325.546531 282.184681 
L 321.29657 284.177612 
L 317.053054 285.915045 
L 312.844747 287.397198 
L 308.697634 288.628625 
L 304.63434 289.617552 
L 300.673782 290.375142 
L 296.83102 290.914736 
L 293.117298 291.251126 
L 288.667883 291.409635 
L 284.439355 291.305832 
L 280.432256 290.96975 
L 276.641218 290.429634 
L 273.056113 289.711273 
L 269.006083 288.646046 
L 265.203205 287.390873 
L 261.613901 285.973192 
L 257.647087 284.141614 
L 253.857793 282.139928 
L 249.656834 279.657093 
L 244.959987 276.606411 
L 239.552125 272.83005 
L 232.974924 267.976946 
L 226.66481 263.059622 
L 221.730416 258.94174 
L 218.015814 255.597065 
L 214.975329 252.64048 
L 211.710718 249.172259 
L 209.41926 246.501339 
L 207.055689 243.478825 
L 204.654175 240.039228 
L 202.272568 236.109131 
L 200.003503 231.610899 
L 198.953257 229.125204 
L 197.989516 226.470881 
L 197.141182 223.641839 
L 196.443129 220.634661 
L 195.937282 217.449649 
L 195.673997 214.092064 
L 195.714021 210.573552 
L 196.131588 206.913728 
L 197.019818 203.141931 
L 198.50106 199.299215 
L 200.748461 195.440852 
L 204.035811 191.640224 
L 208.87127 187.996776 
L 216.459648 184.657424 
L 231.449947 181.900916 
L 258.351542 181.095335 
L 282.269775 183.230053 
L 291.104245 186.168779 
L 296.197809 189.422377 
L 299.439772 192.805238 
L 301.525178 196.207512 
L 302.800478 199.554764 
L 303.472762 202.794572 
L 303.681762 205.890397 
L 303.529705 208.817954 
L 303.09535 211.562617 
L 302.441282 214.117327 
L 301.618077 216.480848 
L 300.666919 218.656291 
L 299.621408 220.649887 
L 298.508903 222.469993 
L 296.167345 225.629202 
L 293.772324 228.217417 
L 291.405794 230.317752 
L 289.117109 232.006371 
L 286.933947 233.34991 
L 284.869876 234.405093 
L 282.005518 235.548873 
L 279.412639 236.276323 
L 277.07254 236.683017 
L 274.961726 236.840531 
L 273.056086 236.802693 
L 270.795334 236.517372 
L 268.811111 236.027263 
L 267.062707 235.382804 
L 265.157606 234.414593 
L 263.514287 233.311769 
L 262.089863 232.109302 
L 260.621714 230.569173 
L 259.372813 228.950997 
L 258.144183 226.991971 
L 256.986154 224.686567 
L 255.935269 222.034875 
L 255.014575 219.040697 
L 254.234906 215.709775 
L 253.551764 211.742369 
L 252.997989 207.140695 
L 252.779306 204.680264 
L 252.779306 204.680264 
" clip-path="url(#p1143cd6a3e)" style="fill: none; stroke: #0000ff; stroke-width: 2; stroke-linecap: square"/>
   </g>
   <g id="patch_3">
    <path d="M 387.2 181 
C 387.2 163.245699 383.70279 145.664036 376.908513 129.2612 
C 370.114236 112.858364 360.155024 97.95335 347.600837 85.399163 
C 335.04665 72.844976 320.141636 62.885764 303.7388 56.091487 
C 287.335964 49.29721 269.754301 45.8 252 45.8 
C 234.245699 45.8 216.664036 49.29721 200.2612 56.091487 
C 183.858364 62.885764 168.95335 72.844976 156.399163 85.399163 
C 143.844976 97.95335 133.885764 112.858364 127.091487 129.2612 
C 120.29721 145.664036 116.8 163.245699 116.8 181 
C 116.8 198.754301 120.29721 216.335964 127.091487 232.7388 
C 133.885764 249.141636 143.844976 264.04665 156.399163 276.600837 
C 168.95335 289.155024 183.858364 299.114236 200.2612 305.908513 
C 216.664036 312.70279 234.245699 316.2 252 316.2 
C 269.754301 316.2 287.335964 312.70279 303.7388 305.908513 
C 320.141636 299.114236 335.04665 289.155024 347.600837 276.600837 
C 360.155024 264.04665 370.114236 249.141636 376.908513 232.7388 
C 383.70279 216.335964 387.2 198.754301 387.2 181 
" style="fill: none; stroke: #000000; stroke-width: 0.8; stroke-linejoin: miter; stroke-linecap: square"/>
   </g>
   <g id="text_19">
    <!-- dB magnitude-phase plot -->
    <g transform="translate(176.035313 19.993125) scale(0.12 -0.12)">
     <defs>
      <path id="DejaVuSans-2d" d="M 313 2009 
L 1997 2009 
L 1997 1497 
L 313 1497 
L 313 2009 
z
" transform="scale(0.015625)"/>
      <path id="DejaVuSans-70" d="M 1159 525 
L 1159 -1331 
L 581 -1331 
L 581 3500 
L 1159 3500 
L 1159 2969 
Q 1341 3281 1617 3432 
Q 1894 3584 2278 3584 
Q 2916 3584 3314 3078 
Q 3713 2572 3713 1747 
Q 3713 922 3314 415 
Q 2916 -91 2278 -91 
Q 1894 -91 1617 61 
Q 1341 213 1159 525 
z
M 3116 1747 
Q 3116 2381 2855 2742 
Q 2594 3103 2138 3103 
Q 1681 3103 1420 2742 
Q 1159 2381 1159 1747 
Q 1159 1113 1420 752 
Q 1681 391 2138 391 
Q 2594 391 2855 752 
Q 3116 1113 3116 1747 
z
" transform="scale(0.015625)"/>
      <path id="DejaVuSans-68" d="M 3513 2113 
L 3513 0 
L 2938 0 
L 2938 2094 
Q 2938 2591 2744 2837 
Q 2550 3084 2163 3084 
Q 1697 3084 1428 2787 
Q 1159 2491 1159 1978 
L 1159 0 
L 581 0 
L 581 4863 
L 1159 4863 
L 1159 2956 
Q 1366 3272 1645 3428 
Q 1925 3584 2291 3584 
Q 2894 3584 3203 3211 
Q 3513 2838 3513 2113 
z
" transform="scale(0.015625)"/>
      <path id="DejaVuSans-73" d="M 2834 3397 
L 2834 2853 
Q 2591 2978 2328 3040 
Q 2066 3103 1784 3103 
Q 1356 3103 1142 2972 
Q 928 2841 928 2578 
Q 928 2378 1081 2264 
Q 1234 2150 1697 2047 
L 1894 2003 
Q 2506 1872 2764 1633 
Q 3022 1394 3022 966 
Q 3022 478 2636 193 
Q 2250 -91 1575 -91 
Q 1294 -91 989 -36 
Q 684 19 347 128 
L 347 722 
Q 666 556 975 473 
Q 1284 391 1588 391 
Q 1994 391 2212 530 
Q 2431 669 2431 922 
Q 2431 1156 2273 1281 
Q 2116 1406 1581 1522 
L 1381 1569 
Q 847 1681 609 1914 
Q 372 2147 372 2553 
Q 372 3047 722 3315 
Q 1072 3584 1716 3584 
Q 2034 3584 2315 3537 
Q 2597 3491 2834 3397 
z
" transform="scale(0.015625)"/>
      <path id="DejaVuSans-6c" d="M 603 4863 
L 1178 4863 
L 1178 0 
L 603 0 
L 603 4863 
z
" transform="scale(0.015625)"/>
      <path id="DejaVuSans-6f" d="M 1959 3097 
Q 1497 3097 1228 2736 
Q 959 2375 959 1747 
Q 959 1119 1226 758 
Q 1494 397 1959 397 
Q 2419 397 2687 759 
Q 2956 1122 2956 1747 
Q 2956 2369 2687 2733 
Q 2419 3097 1959 3097 
z
M 1959 3584 
Q 2709 3584 3137 3096 
Q 3566 2609 3566 1747 
Q 3566 888 3137 398 
Q 2709 -91 1959 -91 
Q 1206 -91 779 398 
Q 353 888 353 1747 
Q 353 2609 779 3096 
Q 1206 3584 1959 3584 
z
" transform="scale(0.015625)"/>
     </defs>
     <use xlink:href="#DejaVuSans-64"/>
     <use xlink:href="#DejaVuSans-42" x="63.476562"/>
     <use xlink:href="#DejaVuSans-20" x="132.080078"/>
     <use xlink:href="#DejaVuSans-6d" x="163.867188"/>
     <use xlink:href="#DejaVuSans-61" x="261.279297"/>
     <use xlink:href="#DejaVuSans-67" x="322.558594"/>
     <use xlink:href="#DejaVuSans-6e" x="386.035156"/>
     <use xlink:href="#DejaVuSans-69" x="449.414062"/>
     <use xlink:href="#DejaVuSans-74" x="477.197266"/>
     <use xlink:href="#DejaVuSans-75" x="516.40625"/>
     <use xlink:href="#DejaVuSans-64" x="579.785156"/>
     <use xlink:href="#DejaVuSans-65" x="643.261719"/>
     <use xlink:href="#DejaVuSans-2d" x="704.785156"/>
     <use xlink:href="#DejaVuSans-70" x="740.869141"/>
     <use xlink:href="#DejaVuSans-68" x="804.345703"/>
     <use xlink:href="#DejaVuSans-61" x="867.724609"/>
     <use xlink:href="#DejaVuSans-73" x="929.003906"/>
     <use xlink:href="#DejaVuSans-65" x="981.103516"/>
     <use xlink:href="#DejaVuSans-20" x="1042.626953"/>
     <use xlink:href="#DejaVuSans-70" x="1074.414062"/>
     <use xlink:href="#DejaVuSans-6c" x="1137.890625"/>
     <use xlink:href="#DejaVuSans-6f" x="1165.673828"/>
     <use xlink:href="#DejaVuSans-74" x="1226.855469"/>
    </g>
   </g>
   <g id="legend_1">
    <g id="patch_4">
     <path d="M 342.289375 66.41375 
L 380.2 66.41375 
Q 382.2 66.41375 382.2 64.41375 
L 382.2 52.8 
Q 382.2 50.8 380.2 50.8 
L 342.289375 50.8 
Q 340.289375 50.8 340.289375 52.8 
L 340.289375 64.41375 
Q 340.289375 66.41375 342.289375 66.41375 
z
" style="fill: #ffffff; opacity: 0.8; stroke: #cccccc; stroke-linejoin: miter"/>
    </g>
    <g id="line2d_18">
     <path d="M 342.289375 58.418125 
L 347.289375 58.418125 
L 352.289375 58.418125 
" style="fill: none; stroke: #0000ff; stroke-width: 2; stroke-linecap: square"/>
    </g>
    <g id="text_20">
     <!-- gain -->
     <g transform="translate(354.289375 61.918125) scale(0.12 -0.12)">
      <use xlink:href="#DejaVuSans-67"/>
      <use xlink:href="#DejaVuSans-61" x="63.476562"/>
      <use xlink:href="#DejaVuSans-69" x="124.755859"/>
      <use xlink:href="#DejaVuSans-6e" x="152.539062"/>
     </g>
    </g>
   </g>
  </g>
 </g>
 <defs>
  <clipPath id="p1143cd6a3e">
   <path d="M 387.2 181 
C 387.2 163.245699 383.70279 145.664036 376.908513 129.2612 
C 370.114236 112.858364 360.155024 97.95335 347.600837 85.399163 
C 335.04665 72.844976 320.141636 62.885764 303.7388 56.091487 
C 287.335964 49.29721 269.754301 45.8 252 45.8 
C 234.245699 45.8 216.664036 49.29721 200.2612 56.091487 
C 183.858364 62.885764 168.95335 72.844976 156.399163 85.399163 
C 143.844976 97.95335 133.885764 112.858364 127.091487 129.2612 
C 120.29721 145.664036 116.8 163.245699 116.8 181 
C 116.8 198.754301 120.29721 216.335964 127.091487 232.7388 
C 133.885764 249.141636 143.844976 264.04665 156.399163 276.600837 
C 168.95335 289.155024 183.858364 299.114236 200.2612 305.908513 
C 216.664036 312.70279 234.245699 316.2 252 316.2 
C 269.754301 316.2 287.335964 312.70279 303.7388 305.908513 
C 320.141636 299.114236 335.04665 289.155024 347.600837 276.600837 
C 360.155024 264.04665 370.114236 249.141636 376.908513 232.7388 
C 383.70279 216.335964 387.2 198.754301 387.2 181 
M 252 181 
C 252 181 252 181 252 181 
C 252 181 252 181 252 181 
C 252 181 252 181 252 181 
C 252 181 252 181 252 181 
C 252 181 252 181 252 181 
C 252 181 252 181 252 181 
C 252 181 252 181 252 181 
C 252 181 252 181 252 181 
C 252 181 252 181 252 181 
C 252 181 252 181 252 181 
C 252 181 252 181 252 181 
C 252 181 252 181 252 181 
C 252 181 252 181 252 181 
C 252 181 252 181 252 181 
C 252 181 252 181 252 181 
C 252 181 252 181 252 181 
z
"/>
  </clipPath>
 </defs>
</svg>
