<?xml version="1.0" encoding="utf-8" standalone="no"?>
<!DOCTYPE svg PUBLIC "-//W3C//DTD SVG 1.1//EN"
  "http://www.w3.org/Graphics/SVG/1.1/DTD/svg11.dtd">
<svg xmlns:xlink="http://www.w3.org/1999/xlink" width="504pt" height="360pt" viewBox="0 0 504 360" xmlns="http://www.w3.org/2000/svg" version="1.1">
 <metadata>
  <rdf:RDF xmlns:dc="http://purl.org/dc/elements/1.1/" xmlns:cc="http://creativecommons.org/ns#" xmlns:rdf="http://www.w3.org/1999/02/22-rdf-syntax-ns#">
   <cc:Work>
    <dc:type rdf:resource="http://purl.org/dc/dcmitype/StillImage"/>
    <dc:date>2025-08-03T20:58:23.306498</dc:date>
    <dc:format>image/svg+xml</dc:format>
    <dc:creator>
     <cc:Agent>
      <dc:title>Matplotlib v3.9.2, https://matplotlib.org/</dc:title>
     </cc:Agent>
    </dc:creator>
   </cc:Work>
  </rdf:RDF>
 </metadata>
 <defs>
  <style type="text/css">*{stroke-linejoin: round; stroke-linecap: butt}</style>
 </defs>
 <g id="figure_1">
  <g id="patch_1">
   <path d="M 0 360 
L 504 360 
L 504 0 
L 0 0 
z
" style="fill: #ffffff"/>
  </g>
  <g id="axes_1">
   <g id="patch_2">
    <path d="M 387.08 181 
C 387.08 163.261457 383.585894 145.695399 376.797647 129.307122 
C 370.009401 112.918845 360.059028 98.02706 347.515984 85.484016 
C 334.97294 72.940972 320.081155 62.990599 303.692878 56.202353 
C 287.304601 49.414106 269.738543 45.92 252 45.92 
C 234.261457 45.92 216.695399 49.414106 200.307122 56.202353 
C 183.918845 62.990599 169.02706 72.940972 156.484016 85.484016 
C 143.940972 98.02706 133.990599 112.918845 127.202353 129.307122 
C 120.414106 145.695399 116.92 163.261457 116.92 181 
C 116.92 198.738543 120.414106 216.304601 127.202353 232.692878 
C 133.990599 249.081155 143.940972 263.97294 156.484016 276.515984 
C 169.02706 289.059028 183.918845 299.009401 200.307122 305.797647 
C 216.695399 312.585894 234.261457 316.08 252 316.08 
C 269.738543 316.08 287.304601 312.585894 303.692878 305.797647 
C 320.081155 299.009401 334.97294 289.059028 347.515984 276.515984 
C 360.059028 263.97294 370.009401 249.081155 376.797647 232.692878 
C 383.585894 216.304601 387.08 198.738543 387.08 181 
M 252 181 
C 252 181 252 181 252 181 
C 252 181 252 181 252 181 
C 252 181 252 181 252 181 
C 252 181 252 181 252 181 
C 252 181 252 181 252 181 
C 252 181 252 181 252 181 
C 252 181 252 181 252 181 
C 252 181 252 181 252 181 
C 252 181 252 181 252 181 
C 252 181 252 181 252 181 
C 252 181 252 181 252 181 
C 252 181 252 181 252 181 
C 252 181 252 181 252 181 
C 252 181 252 181 252 181 
C 252 181 252 181 252 181 
C 252 181 252 181 252 181 
z
" style="fill: #ffffff"/>
   </g>
   <g id="matplotlib.axis_1">
    <g id="xtick_1">
     <g id="line2d_1">
      <path d="M 252 181 
L 387.08 181 
" clip-path="url(#pde946d206a)" style="fill: none; stroke: #808080; stroke-width: 0.8; stroke-linecap: square"/>
     </g>
     <g id="text_1">
      <!-- 0° -->
      <g transform="translate(394.2625 184.31125) scale(0.12 -0.12)">
       <defs>
        <path id="DejaVuSans-30" d="M 2034 4250 
Q 1547 4250 1301 3770 
Q 1056 3291 1056 2328 
Q 1056 1369 1301 889 
Q 1547 409 2034 409 
Q 2525 409 2770 889 
Q 3016 1369 3016 2328 
Q 3016 3291 2770 3770 
Q 2525 4250 2034 4250 
z
M 2034 4750 
Q 2819 4750 3233 4129 
Q 3647 3509 3647 2328 
Q 3647 1150 3233 529 
Q 2819 -91 2034 -91 
Q 1250 -91 836 529 
Q 422 1150 422 2328 
Q 422 3509 836 4129 
Q 1250 4750 2034 4750 
z
" transform="scale(0.015625)"/>
        <path id="DejaVuSans-b0" d="M 1600 4347 
Q 1350 4347 1178 4173 
Q 1006 4000 1006 3750 
Q 1006 3503 1178 3333 
Q 1350 3163 1600 3163 
Q 1850 3163 2022 3333 
Q 2194 3503 2194 3750 
Q 2194 3997 2020 4172 
Q 1847 4347 1600 4347 
z
M 1600 4750 
Q 1800 4750 1984 4673 
Q 2169 4597 2303 4453 
Q 2447 4313 2519 4134 
Q 2591 3956 2591 3750 
Q 2591 3338 2302 3052 
Q 2013 2766 1594 2766 
Q 1172 2766 890 3047 
Q 609 3328 609 3750 
Q 609 4169 896 4459 
Q 1184 4750 1600 4750 
z
" transform="scale(0.015625)"/>
       </defs>
       <use xlink:href="#DejaVuSans-30"/>
       <use xlink:href="#DejaVuSans-b0" x="63.623047"/>
      </g>
     </g>
    </g>
    <g id="xtick_2">
     <g id="line2d_2">
      <path d="M 252 181 
L 347.515984 85.484016 
" clip-path="url(#pde946d206a)" style="fill: none; stroke: #808080; stroke-width: 0.8; stroke-linecap: square"/>
     </g>
     <g id="text_2">
      <!-- 45° -->
      <g transform="translate(346.780479 78.895771) scale(0.12 -0.12)">
       <defs>
        <path id="DejaVuSans-34" d="M 2419 4116 
L 825 1625 
L 2419 1625 
L 2419 4116 
z
M 2253 4666 
L 3047 4666 
L 3047 1625 
L 3713 1625 
L 3713 1100 
L 3047 1100 
L 3047 0 
L 2419 0 
L 2419 1100 
L 313 1100 
L 313 1709 
L 2253 4666 
z
" transform="scale(0.015625)"/>
        <path id="DejaVuSans-35" d="M 691 4666 
L 3169 4666 
L 3169 4134 
L 1269 4134 
L 1269 2991 
Q 1406 3038 1543 3061 
Q 1681 3084 1819 3084 
Q 2600 3084 3056 2656 
Q 3513 2228 3513 1497 
Q 3513 744 3044 326 
Q 2575 -91 1722 -91 
Q 1428 -91 1123 -41 
Q 819 9 494 109 
L 494 744 
Q 775 591 1075 516 
Q 1375 441 1709 441 
Q 2250 441 2565 725 
Q 2881 1009 2881 1497 
Q 2881 1984 2565 2268 
Q 2250 2553 1709 2553 
Q 1456 2553 1204 2497 
Q 953 2441 691 2322 
L 691 4666 
z
" transform="scale(0.015625)"/>
       </defs>
       <use xlink:href="#DejaVuSans-34"/>
       <use xlink:href="#DejaVuSans-35" x="63.623047"/>
       <use xlink:href="#DejaVuSans-b0" x="127.246094"/>
      </g>
     </g>
    </g>
    <g id="xtick_3">
     <g id="line2d_3">
      <path d="M 252 181 
L 252 45.92 
" clip-path="url(#pde946d206a)" style="fill: none; stroke: #808080; stroke-width: 0.8; stroke-linecap: square"/>
     </g>
     <g id="text_3">
      <!-- 90° -->
      <g transform="translate(241.365 35.23125) scale(0.12 -0.12)">
       <defs>
        <path id="DejaVuSans-39" d="M 703 97 
L 703 672 
Q 941 559 1184 500 
Q 1428 441 1663 441 
Q 2288 441 2617 861 
Q 2947 1281 2994 2138 
Q 2813 1869 2534 1725 
Q 2256 1581 1919 1581 
Q 1219 1581 811 2004 
Q 403 2428 403 3163 
Q 403 3881 828 4315 
Q 1253 4750 1959 4750 
Q 2769 4750 3195 4129 
Q 3622 3509 3622 2328 
Q 3622 1225 3098 567 
Q 2575 -91 1691 -91 
Q 1453 -91 1209 -44 
Q 966 3 703 97 
z
M 1959 2075 
Q 2384 2075 2632 2365 
Q 2881 2656 2881 3163 
Q 2881 3666 2632 3958 
Q 2384 4250 1959 4250 
Q 1534 4250 1286 3958 
Q 1038 3666 1038 3163 
Q 1038 2656 1286 2365 
Q 1534 2075 1959 2075 
z
" transform="scale(0.015625)"/>
       </defs>
       <use xlink:href="#DejaVuSans-39"/>
       <use xlink:href="#DejaVuSans-30" x="63.623047"/>
       <use xlink:href="#DejaVuSans-b0" x="127.246094"/>
      </g>
     </g>
    </g>
    <g id="xtick_4">
     <g id="line2d_4">
      <path d="M 252 181 
L 156.484016 85.484016 
" clip-path="url(#pde946d206a)" style="fill: none; stroke: #808080; stroke-width: 0.8; stroke-linecap: square"/>
     </g>
     <g id="text_4">
      <!-- 135° -->
      <g transform="translate(132.132021 78.895771) scale(0.12 -0.12)">
       <defs>
        <path id="DejaVuSans-31" d="M 794 531 
L 1825 531 
L 1825 4091 
L 703 3866 
L 703 4441 
L 1819 4666 
L 2450 4666 
L 2450 531 
L 3481 531 
L 3481 0 
L 794 0 
L 794 531 
z
" transform="scale(0.015625)"/>
        <path id="DejaVuSans-33" d="M 2597 2516 
Q 3050 2419 3304 2112 
Q 3559 1806 3559 1356 
Q 3559 666 3084 287 
Q 2609 -91 1734 -91 
Q 1441 -91 1130 -33 
Q 819 25 488 141 
L 488 750 
Q 750 597 1062 519 
Q 1375 441 1716 441 
Q 2309 441 2620 675 
Q 2931 909 2931 1356 
Q 2931 1769 2642 2001 
Q 2353 2234 1838 2234 
L 1294 2234 
L 1294 2753 
L 1863 2753 
Q 2328 2753 2575 2939 
Q 2822 3125 2822 3475 
Q 2822 3834 2567 4026 
Q 2313 4219 1838 4219 
Q 1578 4219 1281 4162 
Q 984 4106 628 3988 
L 628 4550 
Q 988 4650 1302 4700 
Q 1616 4750 1894 4750 
Q 2613 4750 3031 4423 
Q 3450 4097 3450 3541 
Q 3450 3153 3228 2886 
Q 3006 2619 2597 2516 
z
" transform="scale(0.015625)"/>
       </defs>
       <use xlink:href="#DejaVuSans-31"/>
       <use xlink:href="#DejaVuSans-33" x="63.623047"/>
       <use xlink:href="#DejaVuSans-35" x="127.246094"/>
       <use xlink:href="#DejaVuSans-b0" x="190.869141"/>
      </g>
     </g>
    </g>
    <g id="xtick_5">
     <g id="line2d_5">
      <path d="M 252 181 
L 116.92 181 
" clip-path="url(#pde946d206a)" style="fill: none; stroke: #808080; stroke-width: 0.8; stroke-linecap: square"/>
     </g>
     <g id="text_5">
      <!-- 180° -->
      <g transform="translate(88.4675 184.31125) scale(0.12 -0.12)">
       <defs>
        <path id="DejaVuSans-38" d="M 2034 2216 
Q 1584 2216 1326 1975 
Q 1069 1734 1069 1313 
Q 1069 891 1326 650 
Q 1584 409 2034 409 
Q 2484 409 2743 651 
Q 3003 894 3003 1313 
Q 3003 1734 2745 1975 
Q 2488 2216 2034 2216 
z
M 1403 2484 
Q 997 2584 770 2862 
Q 544 3141 544 3541 
Q 544 4100 942 4425 
Q 1341 4750 2034 4750 
Q 2731 4750 3128 4425 
Q 3525 4100 3525 3541 
Q 3525 3141 3298 2862 
Q 3072 2584 2669 2484 
Q 3125 2378 3379 2068 
Q 3634 1759 3634 1313 
Q 3634 634 3220 271 
Q 2806 -91 2034 -91 
Q 1263 -91 848 271 
Q 434 634 434 1313 
Q 434 1759 690 2068 
Q 947 2378 1403 2484 
z
M 1172 3481 
Q 1172 3119 1398 2916 
Q 1625 2713 2034 2713 
Q 2441 2713 2670 2916 
Q 2900 3119 2900 3481 
Q 2900 3844 2670 4047 
Q 2441 4250 2034 4250 
Q 1625 4250 1398 4047 
Q 1172 3844 1172 3481 
z
" transform="scale(0.015625)"/>
       </defs>
       <use xlink:href="#DejaVuSans-31"/>
       <use xlink:href="#DejaVuSans-38" x="63.623047"/>
       <use xlink:href="#DejaVuSans-30" x="127.246094"/>
       <use xlink:href="#DejaVuSans-b0" x="190.869141"/>
      </g>
     </g>
    </g>
    <g id="xtick_6">
     <g id="line2d_6">
      <path d="M 252 181 
L 156.484016 276.515984 
" clip-path="url(#pde946d206a)" style="fill: none; stroke: #808080; stroke-width: 0.8; stroke-linecap: square"/>
     </g>
     <g id="text_6">
      <!-- 225° -->
      <g transform="translate(132.132021 289.726729) scale(0.12 -0.12)">
       <defs>
        <path id="DejaVuSans-32" d="M 1228 531 
L 3431 531 
L 3431 0 
L 469 0 
L 469 531 
Q 828 903 1448 1529 
Q 2069 2156 2228 2338 
Q 2531 2678 2651 2914 
Q 2772 3150 2772 3378 
Q 2772 3750 2511 3984 
Q 2250 4219 1831 4219 
Q 1534 4219 1204 4116 
Q 875 4013 500 3803 
L 500 4441 
Q 881 4594 1212 4672 
Q 1544 4750 1819 4750 
Q 2544 4750 2975 4387 
Q 3406 4025 3406 3419 
Q 3406 3131 3298 2873 
Q 3191 2616 2906 2266 
Q 2828 2175 2409 1742 
Q 1991 1309 1228 531 
z
" transform="scale(0.015625)"/>
       </defs>
       <use xlink:href="#DejaVuSans-32"/>
       <use xlink:href="#DejaVuSans-32" x="63.623047"/>
       <use xlink:href="#DejaVuSans-35" x="127.246094"/>
       <use xlink:href="#DejaVuSans-b0" x="190.869141"/>
      </g>
     </g>
    </g>
    <g id="xtick_7">
     <g id="line2d_7">
      <path d="M 252 181 
L 252 316.08 
" clip-path="url(#pde946d206a)" style="fill: none; stroke: #808080; stroke-width: 0.8; stroke-linecap: square"/>
     </g>
     <g id="text_7">
      <!-- 270° -->
      <g transform="translate(237.5475 333.39125) scale(0.12 -0.12)">
       <defs>
        <path id="DejaVuSans-37" d="M 525 4666 
L 3525 4666 
L 3525 4397 
L 1831 0 
L 1172 0 
L 2766 4134 
L 525 4134 
L 525 4666 
z
" transform="scale(0.015625)"/>
       </defs>
       <use xlink:href="#DejaVuSans-32"/>
       <use xlink:href="#DejaVuSans-37" x="63.623047"/>
       <use xlink:href="#DejaVuSans-30" x="127.246094"/>
       <use xlink:href="#DejaVuSans-b0" x="190.869141"/>
      </g>
     </g>
    </g>
    <g id="xtick_8">
     <g id="line2d_8">
      <path d="M 252 181 
L 347.515984 276.515984 
" clip-path="url(#pde946d206a)" style="fill: none; stroke: #808080; stroke-width: 0.8; stroke-linecap: square"/>
     </g>
     <g id="text_8">
      <!-- 315° -->
      <g transform="translate(342.962979 289.726729) scale(0.12 -0.12)">
       <use xlink:href="#DejaVuSans-33"/>
       <use xlink:href="#DejaVuSans-31" x="63.623047"/>
       <use xlink:href="#DejaVuSans-35" x="127.246094"/>
       <use xlink:href="#DejaVuSans-b0" x="190.869141"/>
      </g>
     </g>
    </g>
    <g id="text_9">
     <!-- frequency [MHz] -->
     <g transform="translate(202.48125 349.005) scale(0.12 -0.12)">
      <defs>
       <path id="DejaVuSans-66" d="M 2375 4863 
L 2375 4384 
L 1825 4384 
Q 1516 4384 1395 4259 
Q 1275 4134 1275 3809 
L 1275 3500 
L 2222 3500 
L 2222 3053 
L 1275 3053 
L 1275 0 
L 697 0 
L 697 3053 
L 147 3053 
L 147 3500 
L 697 3500 
L 697 3744 
Q 697 4328 969 4595 
Q 1241 4863 1831 4863 
L 2375 4863 
z
" transform="scale(0.015625)"/>
       <path id="DejaVuSans-72" d="M 2631 2963 
Q 2534 3019 2420 3045 
Q 2306 3072 2169 3072 
Q 1681 3072 1420 2755 
Q 1159 2438 1159 1844 
L 1159 0 
L 581 0 
L 581 3500 
L 1159 3500 
L 1159 2956 
Q 1341 3275 1631 3429 
Q 1922 3584 2338 3584 
Q 2397 3584 2469 3576 
Q 2541 3569 2628 3553 
L 2631 2963 
z
" transform="scale(0.015625)"/>
       <path id="DejaVuSans-65" d="M 3597 1894 
L 3597 1613 
L 953 1613 
Q 991 1019 1311 708 
Q 1631 397 2203 397 
Q 2534 397 2845 478 
Q 3156 559 3463 722 
L 3463 178 
Q 3153 47 2828 -22 
Q 2503 -91 2169 -91 
Q 1331 -91 842 396 
Q 353 884 353 1716 
Q 353 2575 817 3079 
Q 1281 3584 2069 3584 
Q 2775 3584 3186 3129 
Q 3597 2675 3597 1894 
z
M 3022 2063 
Q 3016 2534 2758 2815 
Q 2500 3097 2075 3097 
Q 1594 3097 1305 2825 
Q 1016 2553 972 2059 
L 3022 2063 
z
" transform="scale(0.015625)"/>
       <path id="DejaVuSans-71" d="M 947 1747 
Q 947 1113 1208 752 
Q 1469 391 1925 391 
Q 2381 391 2643 752 
Q 2906 1113 2906 1747 
Q 2906 2381 2643 2742 
Q 2381 3103 1925 3103 
Q 1469 3103 1208 2742 
Q 947 2381 947 1747 
z
M 2906 525 
Q 2725 213 2448 61 
Q 2172 -91 1784 -91 
Q 1150 -91 751 415 
Q 353 922 353 1747 
Q 353 2572 751 3078 
Q 1150 3584 1784 3584 
Q 2172 3584 2448 3432 
Q 2725 3281 2906 2969 
L 2906 3500 
L 3481 3500 
L 3481 -1331 
L 2906 -1331 
L 2906 525 
z
" transform="scale(0.015625)"/>
       <path id="DejaVuSans-75" d="M 544 1381 
L 544 3500 
L 1119 3500 
L 1119 1403 
Q 1119 906 1312 657 
Q 1506 409 1894 409 
Q 2359 409 2629 706 
Q 2900 1003 2900 1516 
L 2900 3500 
L 3475 3500 
L 3475 0 
L 2900 0 
L 2900 538 
Q 2691 219 2414 64 
Q 2138 -91 1772 -91 
Q 1169 -91 856 284 
Q 544 659 544 1381 
z
M 1991 3584 
L 1991 3584 
z
" transform="scale(0.015625)"/>
       <path id="DejaVuSans-6e" d="M 3513 2113 
L 3513 0 
L 2938 0 
L 2938 2094 
Q 2938 2591 2744 2837 
Q 2550 3084 2163 3084 
Q 1697 3084 1428 2787 
Q 1159 2491 1159 1978 
L 1159 0 
L 581 0 
L 581 3500 
L 1159 3500 
L 1159 2956 
Q 1366 3272 1645 3428 
Q 1925 3584 2291 3584 
Q 2894 3584 3203 3211 
Q 3513 2838 3513 2113 
z
" transform="scale(0.015625)"/>
       <path id="DejaVuSans-63" d="M 3122 3366 
L 3122 2828 
Q 2878 2963 2633 3030 
Q 2388 3097 2138 3097 
Q 1578 3097 1268 2742 
Q 959 2388 959 1747 
Q 959 1106 1268 751 
Q 1578 397 2138 397 
Q 2388 397 2633 464 
Q 2878 531 3122 666 
L 3122 134 
Q 2881 22 2623 -34 
Q 2366 -91 2075 -91 
Q 1284 -91 818 406 
Q 353 903 353 1747 
Q 353 2603 823 3093 
Q 1294 3584 2113 3584 
Q 2378 3584 2631 3529 
Q 2884 3475 3122 3366 
z
" transform="scale(0.015625)"/>
       <path id="DejaVuSans-79" d="M 2059 -325 
Q 1816 -950 1584 -1140 
Q 1353 -1331 966 -1331 
L 506 -1331 
L 506 -850 
L 844 -850 
Q 1081 -850 1212 -737 
Q 1344 -625 1503 -206 
L 1606 56 
L 191 3500 
L 800 3500 
L 1894 763 
L 2988 3500 
L 3597 3500 
L 2059 -325 
z
" transform="scale(0.015625)"/>
       <path id="DejaVuSans-20" transform="scale(0.015625)"/>
       <path id="DejaVuSans-5b" d="M 550 4863 
L 1875 4863 
L 1875 4416 
L 1125 4416 
L 1125 -397 
L 1875 -397 
L 1875 -844 
L 550 -844 
L 550 4863 
z
" transform="scale(0.015625)"/>
       <path id="DejaVuSans-4d" d="M 628 4666 
L 1569 4666 
L 2759 1491 
L 3956 4666 
L 4897 4666 
L 4897 0 
L 4281 0 
L 4281 4097 
L 3078 897 
L 2444 897 
L 1241 4097 
L 1241 0 
L 628 0 
L 628 4666 
z
" transform="scale(0.015625)"/>
       <path id="DejaVuSans-48" d="M 628 4666 
L 1259 4666 
L 1259 2753 
L 3553 2753 
L 3553 4666 
L 4184 4666 
L 4184 0 
L 3553 0 
L 3553 2222 
L 1259 2222 
L 1259 0 
L 628 0 
L 628 4666 
z
" transform="scale(0.015625)"/>
       <path id="DejaVuSans-7a" d="M 353 3500 
L 3084 3500 
L 3084 2975 
L 922 459 
L 3084 459 
L 3084 0 
L 275 0 
L 275 525 
L 2438 3041 
L 353 3041 
L 353 3500 
z
" transform="scale(0.015625)"/>
       <path id="DejaVuSans-5d" d="M 1947 4863 
L 1947 -844 
L 622 -844 
L 622 -397 
L 1369 -397 
L 1369 4416 
L 622 4416 
L 622 4863 
L 1947 4863 
z
" transform="scale(0.015625)"/>
      </defs>
      <use xlink:href="#DejaVuSans-66"/>
      <use xlink:href="#DejaVuSans-72" x="35.205078"/>
      <use xlink:href="#DejaVuSans-65" x="74.068359"/>
      <use xlink:href="#DejaVuSans-71" x="135.591797"/>
      <use xlink:href="#DejaVuSans-75" x="199.068359"/>
      <use xlink:href="#DejaVuSans-65" x="262.447266"/>
      <use xlink:href="#DejaVuSans-6e" x="323.970703"/>
      <use xlink:href="#DejaVuSans-63" x="387.349609"/>
      <use xlink:href="#DejaVuSans-79" x="442.330078"/>
      <use xlink:href="#DejaVuSans-20" x="501.509766"/>
      <use xlink:href="#DejaVuSans-5b" x="533.296875"/>
      <use xlink:href="#DejaVuSans-4d" x="572.310547"/>
      <use xlink:href="#DejaVuSans-48" x="658.589844"/>
      <use xlink:href="#DejaVuSans-7a" x="733.785156"/>
      <use xlink:href="#DejaVuSans-5d" x="786.275391"/>
     </g>
    </g>
   </g>
   <g id="matplotlib.axis_2">
    <g id="ytick_1">
     <g id="line2d_9">
      <path d="M 252.404937 181 
C 252.404937 180.946824 252.394462 180.894166 252.374113 180.845037 
C 252.353763 180.795909 252.323934 180.751268 252.286333 180.713667 
C 252.248732 180.676066 252.204091 180.646237 252.154963 180.625887 
C 252.105834 180.605538 252.053176 180.595063 252 180.595063 
C 251.946824 180.595063 251.894166 180.605538 251.845037 180.625887 
C 251.795909 180.646237 251.751268 180.676066 251.713667 180.713667 
C 251.676066 180.751268 251.646237 180.795909 251.625887 180.845037 
C 251.605538 180.894166 251.595063 180.946824 251.595063 181 
C 251.595063 181.053176 251.605538 181.105834 251.625887 181.154963 
C 251.646237 181.204091 251.676066 181.248732 251.713667 181.286333 
C 251.751268 181.323934 251.795909 181.353763 251.845037 181.374113 
C 251.894166 181.394462 251.946824 181.404937 252 181.404937 
C 252.053176 181.404937 252.105834 181.394462 252.154963 181.374113 
C 252.204091 181.353763 252.248732 181.323934 252.286333 181.286333 
C 252.323934 181.248732 252.353763 181.204091 252.374113 181.154963 
C 252.394462 181.105834 252.404937 181.053176 252.404937 181 
" clip-path="url(#pde946d206a)" style="fill: none; stroke: #808080; stroke-width: 0.8; stroke-linecap: square"/>
     </g>
     <g id="text_10">
      <!-- −70 -->
      <g transform="translate(252.374113 178.349412) scale(0.12 -0.12)">
       <defs>
        <path id="DejaVuSans-2212" d="M 678 2272 
L 4684 2272 
L 4684 1741 
L 678 1741 
L 678 2272 
z
" transform="scale(0.015625)"/>
       </defs>
       <use xlink:href="#DejaVuSans-2212"/>
       <use xlink:href="#DejaVuSans-37" x="83.789062"/>
       <use xlink:href="#DejaVuSans-30" x="147.412109"/>
      </g>
     </g>
    </g>
    <g id="ytick_2">
     <g id="line2d_10">
      <path d="M 271.644231 181 
C 271.644231 178.420343 271.136095 175.86577 270.148903 173.482478 
C 269.161711 171.099186 267.714662 168.933524 265.890569 167.109431 
C 264.066476 165.285338 261.900814 163.838289 259.517522 162.851097 
C 257.13423 161.863905 254.579657 161.355769 252 161.355769 
C 249.420343 161.355769 246.86577 161.863905 244.482478 162.851097 
C 242.099186 163.838289 239.933524 165.285338 238.109431 167.109431 
C 236.285338 168.933524 234.838289 171.099186 233.851097 173.482478 
C 232.863905 175.86577 232.355769 178.420343 232.355769 181 
C 232.355769 183.579657 232.863905 186.13423 233.851097 188.517522 
C 234.838289 190.900814 236.285338 193.066476 238.109431 194.890569 
C 239.933524 196.714662 242.099186 198.161711 244.482478 199.148903 
C 246.86577 200.136095 249.420343 200.644231 252 200.644231 
C 254.579657 200.644231 257.13423 200.136095 259.517522 199.148903 
C 261.900814 198.161711 264.066476 196.714662 265.890569 194.890569 
C 267.714662 193.066476 269.161711 190.900814 270.148903 188.517522 
C 271.136095 186.13423 271.644231 183.579657 271.644231 181 
" clip-path="url(#pde946d206a)" style="fill: none; stroke: #808080; stroke-width: 0.8; stroke-linecap: square"/>
     </g>
     <g id="text_11">
      <!-- −60 -->
      <g transform="translate(270.148903 170.986853) scale(0.12 -0.12)">
       <defs>
        <path id="DejaVuSans-36" d="M 2113 2584 
Q 1688 2584 1439 2293 
Q 1191 2003 1191 1497 
Q 1191 994 1439 701 
Q 1688 409 2113 409 
Q 2538 409 2786 701 
Q 3034 994 3034 1497 
Q 3034 2003 2786 2293 
Q 2538 2584 2113 2584 
z
M 3366 4563 
L 3366 3988 
Q 3128 4100 2886 4159 
Q 2644 4219 2406 4219 
Q 1781 4219 1451 3797 
Q 1122 3375 1075 2522 
Q 1259 2794 1537 2939 
Q 1816 3084 2150 3084 
Q 2853 3084 3261 2657 
Q 3669 2231 3669 1497 
Q 3669 778 3244 343 
Q 2819 -91 2113 -91 
Q 1303 -91 875 529 
Q 447 1150 447 2328 
Q 447 3434 972 4092 
Q 1497 4750 2381 4750 
Q 2619 4750 2861 4703 
Q 3103 4656 3366 4563 
z
" transform="scale(0.015625)"/>
       </defs>
       <use xlink:href="#DejaVuSans-2212"/>
       <use xlink:href="#DejaVuSans-36" x="83.789062"/>
       <use xlink:href="#DejaVuSans-30" x="147.412109"/>
      </g>
     </g>
    </g>
    <g id="ytick_3">
     <g id="line2d_11">
      <path d="M 290.883526 181 
C 290.883526 175.893862 289.877728 170.837375 287.923694 166.119919 
C 285.96966 161.402463 283.10539 157.11578 279.494805 153.505195 
C 275.88422 149.89461 271.597537 147.03034 266.880081 145.076306 
C 262.162625 143.122272 257.106138 142.116474 252 142.116474 
C 246.893862 142.116474 241.837375 143.122272 237.119919 145.076306 
C 232.402463 147.03034 228.11578 149.89461 224.505195 153.505195 
C 220.89461 157.11578 218.03034 161.402463 216.076306 166.119919 
C 214.122272 170.837375 213.116474 175.893862 213.116474 181 
C 213.116474 186.106138 214.122272 191.162625 216.076306 195.880081 
C 218.03034 200.597537 220.89461 204.88422 224.505195 208.494805 
C 228.11578 212.10539 232.402463 214.96966 237.119919 216.923694 
C 241.837375 218.877728 246.893862 219.883526 252 219.883526 
C 257.106138 219.883526 262.162625 218.877728 266.880081 216.923694 
C 271.597537 214.96966 275.88422 212.10539 279.494805 208.494805 
C 283.10539 204.88422 285.96966 200.597537 287.923694 195.880081 
C 289.877728 191.162625 290.883526 186.106138 290.883526 181 
" clip-path="url(#pde946d206a)" style="fill: none; stroke: #808080; stroke-width: 0.8; stroke-linecap: square"/>
     </g>
     <g id="text_12">
      <!-- −50 -->
      <g transform="translate(287.923694 163.624294) scale(0.12 -0.12)">
       <use xlink:href="#DejaVuSans-2212"/>
       <use xlink:href="#DejaVuSans-35" x="83.789062"/>
       <use xlink:href="#DejaVuSans-30" x="147.412109"/>
      </g>
     </g>
    </g>
    <g id="ytick_4">
     <g id="line2d_12">
      <path d="M 310.122821 181 
C 310.122821 173.367381 308.619361 165.80898 305.698485 158.757359 
C 302.777608 151.705739 298.496117 145.298036 293.099041 139.900959 
C 287.701964 134.503883 281.294261 130.222392 274.242641 127.301515 
C 267.19102 124.380639 259.632619 122.877179 252 122.877179 
C 244.367381 122.877179 236.80898 124.380639 229.757359 127.301515 
C 222.705739 130.222392 216.298036 134.503883 210.900959 139.900959 
C 205.503883 145.298036 201.222392 151.705739 198.301515 158.757359 
C 195.380639 165.80898 193.877179 173.367381 193.877179 181 
C 193.877179 188.632619 195.380639 196.19102 198.301515 203.242641 
C 201.222392 210.294261 205.503883 216.701964 210.900959 222.099041 
C 216.298036 227.496117 222.705739 231.777608 229.757359 234.698485 
C 236.80898 237.619361 244.367381 239.122821 252 239.122821 
C 259.632619 239.122821 267.19102 237.619361 274.242641 234.698485 
C 281.294261 231.777608 287.701964 227.496117 293.099041 222.099041 
C 298.496117 216.701964 302.777608 210.294261 305.698485 203.242641 
C 308.619361 196.19102 310.122821 188.632619 310.122821 181 
" clip-path="url(#pde946d206a)" style="fill: none; stroke: #808080; stroke-width: 0.8; stroke-linecap: square"/>
     </g>
     <g id="text_13">
      <!-- −40 -->
      <g transform="translate(305.698485 156.261734) scale(0.12 -0.12)">
       <use xlink:href="#DejaVuSans-2212"/>
       <use xlink:href="#DejaVuSans-34" x="83.789062"/>
       <use xlink:href="#DejaVuSans-30" x="147.412109"/>
      </g>
     </g>
    </g>
    <g id="ytick_5">
     <g id="line2d_13">
      <path d="M 329.362116 181 
C 329.362116 170.8409 327.360994 160.780585 323.473275 151.3948 
C 319.585556 142.009016 313.886845 133.480292 306.703277 126.296723 
C 299.519708 119.113155 290.990984 113.414444 281.6052 109.526725 
C 272.219415 105.639006 262.1591 103.637884 252 103.637884 
C 241.8409 103.637884 231.780585 105.639006 222.3948 109.526725 
C 213.009016 113.414444 204.480292 119.113155 197.296723 126.296723 
C 190.113155 133.480292 184.414444 142.009016 180.526725 151.3948 
C 176.639006 160.780585 174.637884 170.8409 174.637884 181 
C 174.637884 191.1591 176.639006 201.219415 180.526725 210.6052 
C 184.414444 219.990984 190.113155 228.519708 197.296723 235.703277 
C 204.480292 242.886845 213.009016 248.585556 222.3948 252.473275 
C 231.780585 256.360994 241.8409 258.362116 252 258.362116 
C 262.1591 258.362116 272.219415 256.360994 281.6052 252.473275 
C 290.990984 248.585556 299.519708 242.886845 306.703277 235.703277 
C 313.886845 228.519708 319.585556 219.990984 323.473275 210.6052 
C 327.360994 201.219415 329.362116 191.1591 329.362116 181 
" clip-path="url(#pde946d206a)" style="fill: none; stroke: #808080; stroke-width: 0.8; stroke-linecap: square"/>
     </g>
     <g id="text_14">
      <!-- −30 -->
      <g transform="translate(323.473275 148.899175) scale(0.12 -0.12)">
       <use xlink:href="#DejaVuSans-2212"/>
       <use xlink:href="#DejaVuSans-33" x="83.789062"/>
       <use xlink:href="#DejaVuSans-30" x="147.412109"/>
      </g>
     </g>
    </g>
    <g id="ytick_6">
     <g id="line2d_14">
      <path d="M 348.60141 181 
C 348.60141 168.314419 346.102628 155.752189 341.248066 144.032241 
C 336.393504 132.312292 329.277573 121.662548 320.307512 112.692488 
C 311.337452 103.722427 300.687708 96.606496 288.967759 91.751934 
C 277.247811 86.897372 264.685581 84.39859 252 84.39859 
C 239.314419 84.39859 226.752189 86.897372 215.032241 91.751934 
C 203.312292 96.606496 192.662548 103.722427 183.692488 112.692488 
C 174.722427 121.662548 167.606496 132.312292 162.751934 144.032241 
C 157.897372 155.752189 155.39859 168.314419 155.39859 181 
C 155.39859 193.685581 157.897372 206.247811 162.751934 217.967759 
C 167.606496 229.687708 174.722427 240.337452 183.692488 249.307512 
C 192.662548 258.277573 203.312292 265.393504 215.032241 270.248066 
C 226.752189 275.102628 239.314419 277.60141 252 277.60141 
C 264.685581 277.60141 277.247811 275.102628 288.967759 270.248066 
C 300.687708 265.393504 311.337452 258.277573 320.307512 249.307512 
C 329.277573 240.337452 336.393504 229.687708 341.248066 217.967759 
C 346.102628 206.247811 348.60141 193.685581 348.60141 181 
" clip-path="url(#pde946d206a)" style="fill: none; stroke: #808080; stroke-width: 0.8; stroke-linecap: square"/>
     </g>
     <g id="text_15">
      <!-- −20 -->
      <g transform="translate(341.248066 141.536616) scale(0.12 -0.12)">
       <use xlink:href="#DejaVuSans-2212"/>
       <use xlink:href="#DejaVuSans-32" x="83.789062"/>
       <use xlink:href="#DejaVuSans-30" x="147.412109"/>
      </g>
     </g>
    </g>
    <g id="ytick_7">
     <g id="line2d_15">
      <path d="M 367.840705 181 
C 367.840705 165.787938 364.844261 150.723794 359.022857 136.669681 
C 353.201452 122.615569 344.6683 109.844804 333.911748 99.088252 
C 323.155196 88.3317 310.384431 79.798548 296.330319 73.977143 
C 282.276206 68.155739 267.212062 65.159295 252 65.159295 
C 236.787938 65.159295 221.723794 68.155739 207.669681 73.977143 
C 193.615569 79.798548 180.844804 88.3317 170.088252 99.088252 
C 159.3317 109.844804 150.798548 122.615569 144.977143 136.669681 
C 139.155739 150.723794 136.159295 165.787938 136.159295 181 
C 136.159295 196.212062 139.155739 211.276206 144.977143 225.330319 
C 150.798548 239.384431 159.3317 252.155196 170.088252 262.911748 
C 180.844804 273.6683 193.615569 282.201452 207.669681 288.022857 
C 221.723794 293.844261 236.787938 296.840705 252 296.840705 
C 267.212062 296.840705 282.276206 293.844261 296.330319 288.022857 
C 310.384431 282.201452 323.155196 273.6683 333.911748 262.911748 
C 344.6683 252.155196 353.201452 239.384431 359.022857 225.330319 
C 364.844261 211.276206 367.840705 196.212062 367.840705 181 
" clip-path="url(#pde946d206a)" style="fill: none; stroke: #808080; stroke-width: 0.8; stroke-linecap: square"/>
     </g>
     <g id="text_16">
      <!-- −10 -->
      <g transform="translate(359.022857 134.174056) scale(0.12 -0.12)">
       <use xlink:href="#DejaVuSans-2212"/>
       <use xlink:href="#DejaVuSans-31" x="83.789062"/>
       <use xlink:href="#DejaVuSans-30" x="147.412109"/>
      </g>
     </g>
    </g>
    <g id="ytick_8">
     <g id="line2d_16">
      <path d="M 387.08 181 
C 387.08 163.261457 383.585894 145.695399 376.797647 129.307122 
C 370.009401 112.918845 360.059028 98.02706 347.515984 85.484016 
C 334.97294 72.940972 320.081155 62.990599 303.692878 56.202353 
C 287.304601 49.414106 269.738543 45.92 252 45.92 
C 234.261457 45.92 216.695399 49.414106 200.307122 56.202353 
C 183.918845 62.990599 169.02706 72.940972 156.484016 85.484016 
C 143.940972 98.02706 133.990599 112.918845 127.202353 129.307122 
C 120.414106 145.695399 116.92 163.261457 116.92 181 
C 116.92 198.738543 120.414106 216.304601 127.202353 232.692878 
C 133.990599 249.081155 143.940972 263.97294 156.484016 276.515984 
C 169.02706 289.059028 183.918845 299.009401 200.307122 305.797647 
C 216.695399 312.585894 234.261457 316.08 252 316.08 
C 269.738543 316.08 287.304601 312.585894 303.692878 305.797647 
C 320.081155 299.009401 334.97294 289.059028 347.515984 276.515984 
C 360.059028 263.97294 370.009401 249.081155 376.797647 232.692878 
C 383.585894 216.304601 387.08 198.738543 387.08 181 
" clip-path="url(#pde946d206a)" style="fill: none; stroke: #808080; stroke-width: 0.8; stroke-linecap: square"/>
     </g>
     <g id="text_17">
      <!-- 0 -->
      <g transform="translate(376.797647 126.811497) scale(0.12 -0.12)">
       <use xlink:href="#DejaVuSans-30"/>
      </g>
     </g>
    </g>
    <g id="text_18">
     <!-- magnitude [dB] -->
     <g transform="translate(110.424375 227.969687) rotate(-90) scale(0.12 -0.12)">
      <defs>
       <path id="DejaVuSans-6d" d="M 3328 2828 
Q 3544 3216 3844 3400 
Q 4144 3584 4550 3584 
Q 5097 3584 5394 3201 
Q 5691 2819 5691 2113 
L 5691 0 
L 5113 0 
L 5113 2094 
Q 5113 2597 4934 2840 
Q 4756 3084 4391 3084 
Q 3944 3084 3684 2787 
Q 3425 2491 3425 1978 
L 3425 0 
L 2847 0 
L 2847 2094 
Q 2847 2600 2669 2842 
Q 2491 3084 2119 3084 
Q 1678 3084 1418 2786 
Q 1159 2488 1159 1978 
L 1159 0 
L 581 0 
L 581 3500 
L 1159 3500 
L 1159 2956 
Q 1356 3278 1631 3431 
Q 1906 3584 2284 3584 
Q 2666 3584 2933 3390 
Q 3200 3197 3328 2828 
z
" transform="scale(0.015625)"/>
       <path id="DejaVuSans-61" d="M 2194 1759 
Q 1497 1759 1228 1600 
Q 959 1441 959 1056 
Q 959 750 1161 570 
Q 1363 391 1709 391 
Q 2188 391 2477 730 
Q 2766 1069 2766 1631 
L 2766 1759 
L 2194 1759 
z
M 3341 1997 
L 3341 0 
L 2766 0 
L 2766 531 
Q 2569 213 2275 61 
Q 1981 -91 1556 -91 
Q 1019 -91 701 211 
Q 384 513 384 1019 
Q 384 1609 779 1909 
Q 1175 2209 1959 2209 
L 2766 2209 
L 2766 2266 
Q 2766 2663 2505 2880 
Q 2244 3097 1772 3097 
Q 1472 3097 1187 3025 
Q 903 2953 641 2809 
L 641 3341 
Q 956 3463 1253 3523 
Q 1550 3584 1831 3584 
Q 2591 3584 2966 3190 
Q 3341 2797 3341 1997 
z
" transform="scale(0.015625)"/>
       <path id="DejaVuSans-67" d="M 2906 1791 
Q 2906 2416 2648 2759 
Q 2391 3103 1925 3103 
Q 1463 3103 1205 2759 
Q 947 2416 947 1791 
Q 947 1169 1205 825 
Q 1463 481 1925 481 
Q 2391 481 2648 825 
Q 2906 1169 2906 1791 
z
M 3481 434 
Q 3481 -459 3084 -895 
Q 2688 -1331 1869 -1331 
Q 1566 -1331 1297 -1286 
Q 1028 -1241 775 -1147 
L 775 -588 
Q 1028 -725 1275 -790 
Q 1522 -856 1778 -856 
Q 2344 -856 2625 -561 
Q 2906 -266 2906 331 
L 2906 616 
Q 2728 306 2450 153 
Q 2172 0 1784 0 
Q 1141 0 747 490 
Q 353 981 353 1791 
Q 353 2603 747 3093 
Q 1141 3584 1784 3584 
Q 2172 3584 2450 3431 
Q 2728 3278 2906 2969 
L 2906 3500 
L 3481 3500 
L 3481 434 
z
" transform="scale(0.015625)"/>
       <path id="DejaVuSans-69" d="M 603 3500 
L 1178 3500 
L 1178 0 
L 603 0 
L 603 3500 
z
M 603 4863 
L 1178 4863 
L 1178 4134 
L 603 4134 
L 603 4863 
z
" transform="scale(0.015625)"/>
       <path id="DejaVuSans-74" d="M 1172 4494 
L 1172 3500 
L 2356 3500 
L 2356 3053 
L 1172 3053 
L 1172 1153 
Q 1172 725 1289 603 
Q 1406 481 1766 481 
L 2356 481 
L 2356 0 
L 1766 0 
Q 1100 0 847 248 
Q 594 497 594 1153 
L 594 3053 
L 172 3053 
L 172 3500 
L 594 3500 
L 594 4494 
L 1172 4494 
z
" transform="scale(0.015625)"/>
       <path id="DejaVuSans-64" d="M 2906 2969 
L 2906 4863 
L 3481 4863 
L 3481 0 
L 2906 0 
L 2906 525 
Q 2725 213 2448 61 
Q 2172 -91 1784 -91 
Q 1150 -91 751 415 
Q 353 922 353 1747 
Q 353 2572 751 3078 
Q 1150 3584 1784 3584 
Q 2172 3584 2448 3432 
Q 2725 3281 2906 2969 
z
M 947 1747 
Q 947 1113 1208 752 
Q 1469 391 1925 391 
Q 2381 391 2643 752 
Q 2906 1113 2906 1747 
Q 2906 2381 2643 2742 
Q 2381 3103 1925 3103 
Q 1469 3103 1208 2742 
Q 947 2381 947 1747 
z
" transform="scale(0.015625)"/>
       <path id="DejaVuSans-42" d="M 1259 2228 
L 1259 519 
L 2272 519 
Q 2781 519 3026 730 
Q 3272 941 3272 1375 
Q 3272 1813 3026 2020 
Q 2781 2228 2272 2228 
L 1259 2228 
z
M 1259 4147 
L 1259 2741 
L 2194 2741 
Q 2656 2741 2882 2914 
Q 3109 3088 3109 3444 
Q 3109 3797 2882 3972 
Q 2656 4147 2194 4147 
L 1259 4147 
z
M 628 4666 
L 2241 4666 
Q 2963 4666 3353 4366 
Q 3744 4066 3744 3513 
Q 3744 3084 3544 2831 
Q 3344 2578 2956 2516 
Q 3422 2416 3680 2098 
Q 3938 1781 3938 1306 
Q 3938 681 3513 340 
Q 3088 0 2303 0 
L 628 0 
L 628 4666 
z
" transform="scale(0.015625)"/>
      </defs>
      <use xlink:href="#DejaVuSans-6d"/>
      <use xlink:href="#DejaVuSans-61" x="97.412109"/>
      <use xlink:href="#DejaVuSans-67" x="158.691406"/>
      <use xlink:href="#DejaVuSans-6e" x="222.167969"/>
      <use xlink:href="#DejaVuSans-69" x="285.546875"/>
      <use xlink:href="#DejaVuSans-74" x="313.330078"/>
      <use xlink:href="#DejaVuSans-75" x="352.539062"/>
      <use xlink:href="#DejaVuSans-64" x="415.917969"/>
      <use xlink:href="#DejaVuSans-65" x="479.394531"/>
      <use xlink:href="#DejaVuSans-20" x="540.917969"/>
      <use xlink:href="#DejaVuSans-5b" x="572.705078"/>
      <use xlink:href="#DejaVuSans-64" x="611.71875"/>
      <use xlink:href="#DejaVuSans-42" x="675.195312"/>
      <use xlink:href="#DejaVuSans-5d" x="743.798828"/>
     </g>
    </g>
   </g>
   <g id="line2d_17">
    <path d="M 384.946045 190.414945 
L 384.418775 195.606014 
L 383.705318 200.521686 
L 382.736677 205.63905 
L 381.625619 210.390004 
L 380.24286 215.343303 
L 378.613763 220.31945 
L 376.801498 225.124221 
L 374.904238 229.568909 
L 372.640038 234.293767 
L 370.439627 238.420329 
L 367.928057 242.688289 
L 365.085045 247.060122 
L 361.896389 251.489992 
L 359.092214 255.040062 
L 356.064212 258.563174 
L 352.818419 262.027585 
L 349.365743 265.40085 
L 345.721996 268.650903 
L 341.907659 271.747192 
L 337.947354 274.66179 
L 333.869068 277.370382 
L 329.703162 279.853064 
L 325.481253 282.094872 
L 321.235064 284.086034 
L 316.995315 285.821925 
L 312.790743 287.302763 
L 308.64731 288.533096 
L 304.587623 289.521146 
L 300.63058 290.278064 
L 296.791229 290.817179 
L 293.080803 291.15327 
L 288.635337 291.311638 
L 284.410563 291.207927 
L 280.40702 290.872144 
L 276.619347 290.332508 
L 273.037424 289.614784 
L 268.990988 288.550502 
L 265.191486 287.296443 
L 261.605368 285.88002 
L 257.642075 284.050069 
L 253.856144 282.050159 
L 249.658914 279.569527 
L 244.966235 276.521553 
L 239.563173 272.748544 
L 232.99181 267.899748 
L 226.687297 262.986788 
L 221.757283 258.872561 
L 218.045978 255.530855 
L 215.008191 252.576894 
L 211.746478 249.111751 
L 209.457054 246.443202 
L 207.09558 243.423371 
L 204.696197 239.986826 
L 202.316704 236.060218 
L 200.049653 231.565978 
L 199.00034 229.082489 
L 198.037455 226.430522 
L 197.189873 223.603992 
L 196.49244 220.599483 
L 195.987042 217.417297 
L 195.72399 214.062693 
L 195.763979 210.547304 
L 196.181176 206.890728 
L 197.068617 203.122279 
L 198.548544 199.282974 
L 200.793951 195.428034 
L 204.078383 191.63078 
L 208.90955 187.990566 
L 216.491193 184.654178 
L 231.468187 181.900116 
L 258.345904 181.095251 
L 282.242908 183.228073 
L 291.069537 186.164191 
L 296.15858 189.414902 
L 299.397666 192.79476 
L 301.481221 196.194014 
L 302.755389 199.538295 
L 303.427077 202.775228 
L 303.63589 205.868305 
L 303.483968 208.793264 
L 303.049999 211.535491 
L 302.396512 214.087933 
L 301.574037 216.449356 
L 300.623723 218.622868 
L 299.57914 220.614695 
L 298.467623 222.433186 
L 296.128144 225.58959 
L 293.735248 228.175508 
L 291.370818 230.273979 
L 289.084164 231.961099 
L 286.902941 233.303445 
L 284.840701 234.357692 
L 281.978886 235.500456 
L 279.388308 236.227262 
L 277.050286 236.633594 
L 274.941345 236.790968 
L 273.037397 236.753164 
L 270.778652 236.468096 
L 268.79619 235.978422 
L 267.049338 235.334535 
L 265.145928 234.367184 
L 263.504067 233.265338 
L 262.080908 232.063939 
L 260.614062 230.525176 
L 259.366269 228.908437 
L 258.13873 226.95115 
L 256.981728 224.647792 
L 255.931776 221.998454 
L 255.0119 219.006933 
L 254.232922 215.678968 
L 253.550387 211.715083 
L 252.997103 207.117494 
L 252.778614 204.659246 
L 252.778614 204.659246 
" clip-path="url(#pde946d206a)" style="fill: none; stroke: #0000ff; stroke-width: 2; stroke-linecap: square"/>
   </g>
   <g id="patch_3">
    <path d="M 387.08 181 
C 387.08 163.261457 383.585894 145.695399 376.797647 129.307122 
C 370.009401 112.918845 360.059028 98.02706 347.515984 85.484016 
C 334.97294 72.940972 320.081155 62.990599 303.692878 56.202353 
C 287.304601 49.414106 269.738543 45.92 252 45.92 
C 234.261457 45.92 216.695399 49.414106 200.307122 56.202353 
C 183.918845 62.990599 169.02706 72.940972 156.484016 85.484016 
C 143.940972 98.02706 133.990599 112.918845 127.202353 129.307122 
C 120.414106 145.695399 116.92 163.261457 116.92 181 
C 116.92 198.738543 120.414106 216.304601 127.202353 232.692878 
C 133.990599 249.081155 143.940972 263.97294 156.484016 276.515984 
C 169.02706 289.059028 183.918845 299.009401 200.307122 305.797647 
C 216.695399 312.585894 234.261457 316.08 252 316.08 
C 269.738543 316.08 287.304601 312.585894 303.692878 305.797647 
C 320.081155 299.009401 334.97294 289.059028 347.515984 276.515984 
C 360.059028 263.97294 370.009401 249.081155 376.797647 232.692878 
C 383.585894 216.304601 387.08 198.738543 387.08 181 
" style="fill: none; stroke: #000000; stroke-width: 0.8; stroke-linejoin: miter; stroke-linecap: square"/>
   </g>
   <g id="text_19">
    <!-- dB magnitude-phase plot -->
    <g transform="translate(176.035313 20.113125) scale(0.12 -0.12)">
     <defs>
      <path id="DejaVuSans-2d" d="M 313 2009 
L 1997 2009 
L 1997 1497 
L 313 1497 
L 313 2009 
z
" transform="scale(0.015625)"/>
      <path id="DejaVuSans-70" d="M 1159 525 
L 1159 -1331 
L 581 -1331 
L 581 3500 
L 1159 3500 
L 1159 2969 
Q 1341 3281 1617 3432 
Q 1894 3584 2278 3584 
Q 2916 3584 3314 3078 
Q 3713 2572 3713 1747 
Q 3713 922 3314 415 
Q 2916 -91 2278 -91 
Q 1894 -91 1617 61 
Q 1341 213 1159 525 
z
M 3116 1747 
Q 3116 2381 2855 2742 
Q 2594 3103 2138 3103 
Q 1681 3103 1420 2742 
Q 1159 2381 1159 1747 
Q 1159 1113 1420 752 
Q 1681 391 2138 391 
Q 2594 391 2855 752 
Q 3116 1113 3116 1747 
z
" transform="scale(0.015625)"/>
      <path id="DejaVuSans-68" d="M 3513 2113 
L 3513 0 
L 2938 0 
L 2938 2094 
Q 2938 2591 2744 2837 
Q 2550 3084 2163 3084 
Q 1697 3084 1428 2787 
Q 1159 2491 1159 1978 
L 1159 0 
L 581 0 
L 581 4863 
L 1159 4863 
L 1159 2956 
Q 1366 3272 1645 3428 
Q 1925 3584 2291 3584 
Q 2894 3584 3203 3211 
Q 3513 2838 3513 2113 
z
" transform="scale(0.015625)"/>
      <path id="DejaVuSans-73" d="M 2834 3397 
L 2834 2853 
Q 2591 2978 2328 3040 
Q 2066 3103 1784 3103 
Q 1356 3103 1142 2972 
Q 928 2841 928 2578 
Q 928 2378 1081 2264 
Q 1234 2150 1697 2047 
L 1894 2003 
Q 2506 1872 2764 1633 
Q 3022 1394 3022 966 
Q 3022 478 2636 193 
Q 2250 -91 1575 -91 
Q 1294 -91 989 -36 
Q 684 19 347 128 
L 347 722 
Q 666 556 975 473 
Q 1284 391 1588 391 
Q 1994 391 2212 530 
Q 2431 669 2431 922 
Q 2431 1156 2273 1281 
Q 2116 1406 1581 1522 
L 1381 1569 
Q 847 1681 609 1914 
Q 372 2147 372 2553 
Q 372 3047 722 3315 
Q 1072 3584 1716 3584 
Q 2034 3584 2315 3537 
Q 2597 3491 2834 3397 
z
" transform="scale(0.015625)"/>
      <path id="DejaVuSans-6c" d="M 603 4863 
L 1178 4863 
L 1178 0 
L 603 0 
L 603 4863 
z
" transform="scale(0.015625)"/>
      <path id="DejaVuSans-6f" d="M 1959 3097 
Q 1497 3097 1228 2736 
Q 959 2375 959 1747 
Q 959 1119 1226 758 
Q 1494 397 1959 397 
Q 2419 397 2687 759 
Q 2956 1122 2956 1747 
Q 2956 2369 2687 2733 
Q 2419 3097 1959 3097 
z
M 1959 3584 
Q 2709 3584 3137 3096 
Q 3566 2609 3566 1747 
Q 3566 888 3137 398 
Q 2709 -91 1959 -91 
Q 1206 -91 779 398 
Q 353 888 353 1747 
Q 353 2609 779 3096 
Q 1206 3584 1959 3584 
z
" transform="scale(0.015625)"/>
     </defs>
     <use xlink:href="#DejaVuSans-64"/>
     <use xlink:href="#DejaVuSans-42" x="63.476562"/>
     <use xlink:href="#DejaVuSans-20" x="132.080078"/>
     <use xlink:href="#DejaVuSans-6d" x="163.867188"/>
     <use xlink:href="#DejaVuSans-61" x="261.279297"/>
     <use xlink:href="#DejaVuSans-67" x="322.558594"/>
     <use xlink:href="#DejaVuSans-6e" x="386.035156"/>
     <use xlink:href="#DejaVuSans-69" x="449.414062"/>
     <use xlink:href="#DejaVuSans-74" x="477.197266"/>
     <use xlink:href="#DejaVuSans-75" x="516.40625"/>
     <use xlink:href="#DejaVuSans-64" x="579.785156"/>
     <use xlink:href="#DejaVuSans-65" x="643.261719"/>
     <use xlink:href="#DejaVuSans-2d" x="704.785156"/>
     <use xlink:href="#DejaVuSans-70" x="740.869141"/>
     <use xlink:href="#DejaVuSans-68" x="804.345703"/>
     <use xlink:href="#DejaVuSans-61" x="867.724609"/>
     <use xlink:href="#DejaVuSans-73" x="929.003906"/>
     <use xlink:href="#DejaVuSans-65" x="981.103516"/>
     <use xlink:href="#DejaVuSans-20" x="1042.626953"/>
     <use xlink:href="#DejaVuSans-70" x="1074.414062"/>
     <use xlink:href="#DejaVuSans-6c" x="1137.890625"/>
     <use xlink:href="#DejaVuSans-6f" x="1165.673828"/>
     <use xlink:href="#DejaVuSans-74" x="1226.855469"/>
    </g>
   </g>
   <g id="legend_1">
    <g id="patch_4">
     <path d="M 342.169375 66.53375 
L 380.08 66.53375 
Q 382.08 66.53375 382.08 64.53375 
L 382.08 52.92 
Q 382.08 50.92 380.08 50.92 
L 342.169375 50.92 
Q 340.169375 50.92 340.169375 52.92 
L 340.169375 64.53375 
Q 340.169375 66.53375 342.169375 66.53375 
z
" style="fill: #ffffff; opacity: 0.8; stroke: #cccccc; stroke-linejoin: miter"/>
    </g>
    <g id="line2d_18">
     <path d="M 342.169375 58.538125 
L 347.169375 58.538125 
L 352.169375 58.538125 
" style="fill: none; stroke: #0000ff; stroke-width: 2; stroke-linecap: square"/>
    </g>
    <g id="text_20">
     <!-- gain -->
     <g transform="translate(354.169375 62.038125) scale(0.12 -0.12)">
      <use xlink:href="#DejaVuSans-67"/>
      <use xlink:href="#DejaVuSans-61" x="63.476562"/>
      <use xlink:href="#DejaVuSans-69" x="124.755859"/>
      <use xlink:href="#DejaVuSans-6e" x="152.539062"/>
     </g>
    </g>
   </g>
  </g>
 </g>
 <defs>
  <clipPath id="pde946d206a">
   <path d="M 387.08 181 
C 387.08 163.261457 383.585894 145.695399 376.797647 129.307122 
C 370.009401 112.918845 360.059028 98.02706 347.515984 85.484016 
C 334.97294 72.940972 320.081155 62.990599 303.692878 56.202353 
C 287.304601 49.414106 269.738543 45.92 252 45.92 
C 234.261457 45.92 216.695399 49.414106 200.307122 56.202353 
C 183.918845 62.990599 169.02706 72.940972 156.484016 85.484016 
C 143.940972 98.02706 133.990599 112.918845 127.202353 129.307122 
C 120.414106 145.695399 116.92 163.261457 116.92 181 
C 116.92 198.738543 120.414106 216.304601 127.202353 232.692878 
C 133.990599 249.081155 143.940972 263.97294 156.484016 276.515984 
C 169.02706 289.059028 183.918845 299.009401 200.307122 305.797647 
C 216.695399 312.585894 234.261457 316.08 252 316.08 
C 269.738543 316.08 287.304601 312.585894 303.692878 305.797647 
C 320.081155 299.009401 334.97294 289.059028 347.515984 276.515984 
C 360.059028 263.97294 370.009401 249.081155 376.797647 232.692878 
C 383.585894 216.304601 387.08 198.738543 387.08 181 
M 252 181 
C 252 181 252 181 252 181 
C 252 181 252 181 252 181 
C 252 181 252 181 252 181 
C 252 181 252 181 252 181 
C 252 181 252 181 252 181 
C 252 181 252 181 252 181 
C 252 181 252 181 252 181 
C 252 181 252 181 252 181 
C 252 181 252 181 252 181 
C 252 181 252 181 252 181 
C 252 181 252 181 252 181 
C 252 181 252 181 252 181 
C 252 181 252 181 252 181 
C 252 181 252 181 252 181 
C 252 181 252 181 252 181 
C 252 181 252 181 252 181 
z
"/>
  </clipPath>
 </defs>
</svg>
