<?xml version="1.0" encoding="utf-8" standalone="no"?>
<!DOCTYPE svg PUBLIC "-//W3C//DTD SVG 1.1//EN"
  "http://www.w3.org/Graphics/SVG/1.1/DTD/svg11.dtd">
<svg xmlns:xlink="http://www.w3.org/1999/xlink" width="504pt" height="360pt" viewBox="0 0 504 360" xmlns="http://www.w3.org/2000/svg" version="1.1">
 <metadata>
  <rdf:RDF xmlns:dc="http://purl.org/dc/elements/1.1/" xmlns:cc="http://creativecommons.org/ns#" xmlns:rdf="http://www.w3.org/1999/02/22-rdf-syntax-ns#">
   <cc:Work>
    <dc:type rdf:resource="http://purl.org/dc/dcmitype/StillImage"/>
    <dc:date>2025-08-03T20:58:23.062395</dc:date>
    <dc:format>image/svg+xml</dc:format>
    <dc:creator>
     <cc:Agent>
      <dc:title>Matplotlib v3.9.2, https://matplotlib.org/</dc:title>
     </cc:Agent>
    </dc:creator>
   </cc:Work>
  </rdf:RDF>
 </metadata>
 <defs>
  <style type="text/css">*{stroke-linejoin: round; stroke-linecap: butt}</style>
 </defs>
 <g id="figure_1">
  <g id="patch_1">
   <path d="M 0 360 
L 504 360 
L 504 0 
L 0 0 
z
" style="fill: #ffffff"/>
  </g>
  <g id="axes_1">
   <g id="patch_2">
    <path d="M 387.08 181 
C 387.08 163.261457 383.585894 145.695399 376.797647 129.307122 
C 370.009401 112.918845 360.059028 98.02706 347.515984 85.484016 
C 334.97294 72.940972 320.081155 62.990599 303.692878 56.202353 
C 287.304601 49.414106 269.738543 45.92 252 45.92 
C 234.261457 45.92 216.695399 49.414106 200.307122 56.202353 
C 183.918845 62.990599 169.02706 72.940972 156.484016 85.484016 
C 143.940972 98.02706 133.990599 112.918845 127.202353 129.307122 
C 120.414106 145.695399 116.92 163.261457 116.92 181 
C 116.92 198.738543 120.414106 216.304601 127.202353 232.692878 
C 133.990599 249.081155 143.940972 263.97294 156.484016 276.515984 
C 169.02706 289.059028 183.918845 299.009401 200.307122 305.797647 
C 216.695399 312.585894 234.261457 316.08 252 316.08 
C 269.738543 316.08 287.304601 312.585894 303.692878 305.797647 
C 320.081155 299.009401 334.97294 289.059028 347.515984 276.515984 
C 360.059028 263.97294 370.009401 249.081155 376.797647 232.692878 
C 383.585894 216.304601 387.08 198.738543 387.08 181 
M 252 181 
C 252 181 252 181 252 181 
C 252 181 252 181 252 181 
C 252 181 252 181 252 181 
C 252 181 252 181 252 181 
C 252 181 252 181 252 181 
C 252 181 252 181 252 181 
C 252 181 252 181 252 181 
C 252 181 252 181 252 181 
C 252 181 252 181 252 181 
C 252 181 252 181 252 181 
C 252 181 252 181 252 181 
C 252 181 252 181 252 181 
C 252 181 252 181 252 181 
C 252 181 252 181 252 181 
C 252 181 252 181 252 181 
C 252 181 252 181 252 181 
z
" style="fill: #ffffff"/>
   </g>
   <g id="matplotlib.axis_1">
    <g id="xtick_1">
     <g id="line2d_1">
      <path d="M 252 181 
L 387.08 181 
" clip-path="url(#p8579b8b363)" style="fill: none; stroke: #808080; stroke-width: 0.8; stroke-linecap: square"/>
     </g>
     <g id="text_1">
      <!-- 0° -->
      <g transform="translate(394.2625 184.31125) scale(0.12 -0.12)">
       <defs>
        <path id="DejaVuSans-30" d="M 2034 4250 
Q 1547 4250 1301 3770 
Q 1056 3291 1056 2328 
Q 1056 1369 1301 889 
Q 1547 409 2034 409 
Q 2525 409 2770 889 
Q 3016 1369 3016 2328 
Q 3016 3291 2770 3770 
Q 2525 4250 2034 4250 
z
M 2034 4750 
Q 2819 4750 3233 4129 
Q 3647 3509 3647 2328 
Q 3647 1150 3233 529 
Q 2819 -91 2034 -91 
Q 1250 -91 836 529 
Q 422 1150 422 2328 
Q 422 3509 836 4129 
Q 1250 4750 2034 4750 
z
" transform="scale(0.015625)"/>
        <path id="DejaVuSans-b0" d="M 1600 4347 
Q 1350 4347 1178 4173 
Q 1006 4000 1006 3750 
Q 1006 3503 1178 3333 
Q 1350 3163 1600 3163 
Q 1850 3163 2022 3333 
Q 2194 3503 2194 3750 
Q 2194 3997 2020 4172 
Q 1847 4347 1600 4347 
z
M 1600 4750 
Q 1800 4750 1984 4673 
Q 2169 4597 2303 4453 
Q 2447 4313 2519 4134 
Q 2591 3956 2591 3750 
Q 2591 3338 2302 3052 
Q 2013 2766 1594 2766 
Q 1172 2766 890 3047 
Q 609 3328 609 3750 
Q 609 4169 896 4459 
Q 1184 4750 1600 4750 
z
" transform="scale(0.015625)"/>
       </defs>
       <use xlink:href="#DejaVuSans-30"/>
       <use xlink:href="#DejaVuSans-b0" x="63.623047"/>
      </g>
     </g>
    </g>
    <g id="xtick_2">
     <g id="line2d_2">
      <path d="M 252 181 
L 347.515984 85.484016 
" clip-path="url(#p8579b8b363)" style="fill: none; stroke: #808080; stroke-width: 0.8; stroke-linecap: square"/>
     </g>
     <g id="text_2">
      <!-- 45° -->
      <g transform="translate(346.780479 78.895771) scale(0.12 -0.12)">
       <defs>
        <path id="DejaVuSans-34" d="M 2419 4116 
L 825 1625 
L 2419 1625 
L 2419 4116 
z
M 2253 4666 
L 3047 4666 
L 3047 1625 
L 3713 1625 
L 3713 1100 
L 3047 1100 
L 3047 0 
L 2419 0 
L 2419 1100 
L 313 1100 
L 313 1709 
L 2253 4666 
z
" transform="scale(0.015625)"/>
        <path id="DejaVuSans-35" d="M 691 4666 
L 3169 4666 
L 3169 4134 
L 1269 4134 
L 1269 2991 
Q 1406 3038 1543 3061 
Q 1681 3084 1819 3084 
Q 2600 3084 3056 2656 
Q 3513 2228 3513 1497 
Q 3513 744 3044 326 
Q 2575 -91 1722 -91 
Q 1428 -91 1123 -41 
Q 819 9 494 109 
L 494 744 
Q 775 591 1075 516 
Q 1375 441 1709 441 
Q 2250 441 2565 725 
Q 2881 1009 2881 1497 
Q 2881 1984 2565 2268 
Q 2250 2553 1709 2553 
Q 1456 2553 1204 2497 
Q 953 2441 691 2322 
L 691 4666 
z
" transform="scale(0.015625)"/>
       </defs>
       <use xlink:href="#DejaVuSans-34"/>
       <use xlink:href="#DejaVuSans-35" x="63.623047"/>
       <use xlink:href="#DejaVuSans-b0" x="127.246094"/>
      </g>
     </g>
    </g>
    <g id="xtick_3">
     <g id="line2d_3">
      <path d="M 252 181 
L 252 45.92 
" clip-path="url(#p8579b8b363)" style="fill: none; stroke: #808080; stroke-width: 0.8; stroke-linecap: square"/>
     </g>
     <g id="text_3">
      <!-- 90° -->
      <g transform="translate(241.365 35.23125) scale(0.12 -0.12)">
       <defs>
        <path id="DejaVuSans-39" d="M 703 97 
L 703 672 
Q 941 559 1184 500 
Q 1428 441 1663 441 
Q 2288 441 2617 861 
Q 2947 1281 2994 2138 
Q 2813 1869 2534 1725 
Q 2256 1581 1919 1581 
Q 1219 1581 811 2004 
Q 403 2428 403 3163 
Q 403 3881 828 4315 
Q 1253 4750 1959 4750 
Q 2769 4750 3195 4129 
Q 3622 3509 3622 2328 
Q 3622 1225 3098 567 
Q 2575 -91 1691 -91 
Q 1453 -91 1209 -44 
Q 966 3 703 97 
z
M 1959 2075 
Q 2384 2075 2632 2365 
Q 2881 2656 2881 3163 
Q 2881 3666 2632 3958 
Q 2384 4250 1959 4250 
Q 1534 4250 1286 3958 
Q 1038 3666 1038 3163 
Q 1038 2656 1286 2365 
Q 1534 2075 1959 2075 
z
" transform="scale(0.015625)"/>
       </defs>
       <use xlink:href="#DejaVuSans-39"/>
       <use xlink:href="#DejaVuSans-30" x="63.623047"/>
       <use xlink:href="#DejaVuSans-b0" x="127.246094"/>
      </g>
     </g>
    </g>
    <g id="xtick_4">
     <g id="line2d_4">
      <path d="M 252 181 
L 156.484016 85.484016 
" clip-path="url(#p8579b8b363)" style="fill: none; stroke: #808080; stroke-width: 0.8; stroke-linecap: square"/>
     </g>
     <g id="text_4">
      <!-- 135° -->
      <g transform="translate(132.132021 78.895771) scale(0.12 -0.12)">
       <defs>
        <path id="DejaVuSans-31" d="M 794 531 
L 1825 531 
L 1825 4091 
L 703 3866 
L 703 4441 
L 1819 4666 
L 2450 4666 
L 2450 531 
L 3481 531 
L 3481 0 
L 794 0 
L 794 531 
z
" transform="scale(0.015625)"/>
        <path id="DejaVuSans-33" d="M 2597 2516 
Q 3050 2419 3304 2112 
Q 3559 1806 3559 1356 
Q 3559 666 3084 287 
Q 2609 -91 1734 -91 
Q 1441 -91 1130 -33 
Q 819 25 488 141 
L 488 750 
Q 750 597 1062 519 
Q 1375 441 1716 441 
Q 2309 441 2620 675 
Q 2931 909 2931 1356 
Q 2931 1769 2642 2001 
Q 2353 2234 1838 2234 
L 1294 2234 
L 1294 2753 
L 1863 2753 
Q 2328 2753 2575 2939 
Q 2822 3125 2822 3475 
Q 2822 3834 2567 4026 
Q 2313 4219 1838 4219 
Q 1578 4219 1281 4162 
Q 984 4106 628 3988 
L 628 4550 
Q 988 4650 1302 4700 
Q 1616 4750 1894 4750 
Q 2613 4750 3031 4423 
Q 3450 4097 3450 3541 
Q 3450 3153 3228 2886 
Q 3006 2619 2597 2516 
z
" transform="scale(0.015625)"/>
       </defs>
       <use xlink:href="#DejaVuSans-31"/>
       <use xlink:href="#DejaVuSans-33" x="63.623047"/>
       <use xlink:href="#DejaVuSans-35" x="127.246094"/>
       <use xlink:href="#DejaVuSans-b0" x="190.869141"/>
      </g>
     </g>
    </g>
    <g id="xtick_5">
     <g id="line2d_5">
      <path d="M 252 181 
L 116.92 181 
" clip-path="url(#p8579b8b363)" style="fill: none; stroke: #808080; stroke-width: 0.8; stroke-linecap: square"/>
     </g>
     <g id="text_5">
      <!-- 180° -->
      <g transform="translate(88.4675 184.31125) scale(0.12 -0.12)">
       <defs>
        <path id="DejaVuSans-38" d="M 2034 2216 
Q 1584 2216 1326 1975 
Q 1069 1734 1069 1313 
Q 1069 891 1326 650 
Q 1584 409 2034 409 
Q 2484 409 2743 651 
Q 3003 894 3003 1313 
Q 3003 1734 2745 1975 
Q 2488 2216 2034 2216 
z
M 1403 2484 
Q 997 2584 770 2862 
Q 544 3141 544 3541 
Q 544 4100 942 4425 
Q 1341 4750 2034 4750 
Q 2731 4750 3128 4425 
Q 3525 4100 3525 3541 
Q 3525 3141 3298 2862 
Q 3072 2584 2669 2484 
Q 3125 2378 3379 2068 
Q 3634 1759 3634 1313 
Q 3634 634 3220 271 
Q 2806 -91 2034 -91 
Q 1263 -91 848 271 
Q 434 634 434 1313 
Q 434 1759 690 2068 
Q 947 2378 1403 2484 
z
M 1172 3481 
Q 1172 3119 1398 2916 
Q 1625 2713 2034 2713 
Q 2441 2713 2670 2916 
Q 2900 3119 2900 3481 
Q 2900 3844 2670 4047 
Q 2441 4250 2034 4250 
Q 1625 4250 1398 4047 
Q 1172 3844 1172 3481 
z
" transform="scale(0.015625)"/>
       </defs>
       <use xlink:href="#DejaVuSans-31"/>
       <use xlink:href="#DejaVuSans-38" x="63.623047"/>
       <use xlink:href="#DejaVuSans-30" x="127.246094"/>
       <use xlink:href="#DejaVuSans-b0" x="190.869141"/>
      </g>
     </g>
    </g>
    <g id="xtick_6">
     <g id="line2d_6">
      <path d="M 252 181 
L 156.484016 276.515984 
" clip-path="url(#p8579b8b363)" style="fill: none; stroke: #808080; stroke-width: 0.8; stroke-linecap: square"/>
     </g>
     <g id="text_6">
      <!-- 225° -->
      <g transform="translate(132.132021 289.726729) scale(0.12 -0.12)">
       <defs>
        <path id="DejaVuSans-32" d="M 1228 531 
L 3431 531 
L 3431 0 
L 469 0 
L 469 531 
Q 828 903 1448 1529 
Q 2069 2156 2228 2338 
Q 2531 2678 2651 2914 
Q 2772 3150 2772 3378 
Q 2772 3750 2511 3984 
Q 2250 4219 1831 4219 
Q 1534 4219 1204 4116 
Q 875 4013 500 3803 
L 500 4441 
Q 881 4594 1212 4672 
Q 1544 4750 1819 4750 
Q 2544 4750 2975 4387 
Q 3406 4025 3406 3419 
Q 3406 3131 3298 2873 
Q 3191 2616 2906 2266 
Q 2828 2175 2409 1742 
Q 1991 1309 1228 531 
z
" transform="scale(0.015625)"/>
       </defs>
       <use xlink:href="#DejaVuSans-32"/>
       <use xlink:href="#DejaVuSans-32" x="63.623047"/>
       <use xlink:href="#DejaVuSans-35" x="127.246094"/>
       <use xlink:href="#DejaVuSans-b0" x="190.869141"/>
      </g>
     </g>
    </g>
    <g id="xtick_7">
     <g id="line2d_7">
      <path d="M 252 181 
L 252 316.08 
" clip-path="url(#p8579b8b363)" style="fill: none; stroke: #808080; stroke-width: 0.8; stroke-linecap: square"/>
     </g>
     <g id="text_7">
      <!-- 270° -->
      <g transform="translate(237.5475 333.39125) scale(0.12 -0.12)">
       <defs>
        <path id="DejaVuSans-37" d="M 525 4666 
L 3525 4666 
L 3525 4397 
L 1831 0 
L 1172 0 
L 2766 4134 
L 525 4134 
L 525 4666 
z
" transform="scale(0.015625)"/>
       </defs>
       <use xlink:href="#DejaVuSans-32"/>
       <use xlink:href="#DejaVuSans-37" x="63.623047"/>
       <use xlink:href="#DejaVuSans-30" x="127.246094"/>
       <use xlink:href="#DejaVuSans-b0" x="190.869141"/>
      </g>
     </g>
    </g>
    <g id="xtick_8">
     <g id="line2d_8">
      <path d="M 252 181 
L 347.515984 276.515984 
" clip-path="url(#p8579b8b363)" style="fill: none; stroke: #808080; stroke-width: 0.8; stroke-linecap: square"/>
     </g>
     <g id="text_8">
      <!-- 315° -->
      <g transform="translate(342.962979 289.726729) scale(0.12 -0.12)">
       <use xlink:href="#DejaVuSans-33"/>
       <use xlink:href="#DejaVuSans-31" x="63.623047"/>
       <use xlink:href="#DejaVuSans-35" x="127.246094"/>
       <use xlink:href="#DejaVuSans-b0" x="190.869141"/>
      </g>
     </g>
    </g>
    <g id="text_9">
     <!-- frequency [MHz] -->
     <g transform="translate(202.48125 349.005) scale(0.12 -0.12)">
      <defs>
       <path id="DejaVuSans-66" d="M 2375 4863 
L 2375 4384 
L 1825 4384 
Q 1516 4384 1395 4259 
Q 1275 4134 1275 3809 
L 1275 3500 
L 2222 3500 
L 2222 3053 
L 1275 3053 
L 1275 0 
L 697 0 
L 697 3053 
L 147 3053 
L 147 3500 
L 697 3500 
L 697 3744 
Q 697 4328 969 4595 
Q 1241 4863 1831 4863 
L 2375 4863 
z
" transform="scale(0.015625)"/>
       <path id="DejaVuSans-72" d="M 2631 2963 
Q 2534 3019 2420 3045 
Q 2306 3072 2169 3072 
Q 1681 3072 1420 2755 
Q 1159 2438 1159 1844 
L 1159 0 
L 581 0 
L 581 3500 
L 1159 3500 
L 1159 2956 
Q 1341 3275 1631 3429 
Q 1922 3584 2338 3584 
Q 2397 3584 2469 3576 
Q 2541 3569 2628 3553 
L 2631 2963 
z
" transform="scale(0.015625)"/>
       <path id="DejaVuSans-65" d="M 3597 1894 
L 3597 1613 
L 953 1613 
Q 991 1019 1311 708 
Q 1631 397 2203 397 
Q 2534 397 2845 478 
Q 3156 559 3463 722 
L 3463 178 
Q 3153 47 2828 -22 
Q 2503 -91 2169 -91 
Q 1331 -91 842 396 
Q 353 884 353 1716 
Q 353 2575 817 3079 
Q 1281 3584 2069 3584 
Q 2775 3584 3186 3129 
Q 3597 2675 3597 1894 
z
M 3022 2063 
Q 3016 2534 2758 2815 
Q 2500 3097 2075 3097 
Q 1594 3097 1305 2825 
Q 1016 2553 972 2059 
L 3022 2063 
z
" transform="scale(0.015625)"/>
       <path id="DejaVuSans-71" d="M 947 1747 
Q 947 1113 1208 752 
Q 1469 391 1925 391 
Q 2381 391 2643 752 
Q 2906 1113 2906 1747 
Q 2906 2381 2643 2742 
Q 2381 3103 1925 3103 
Q 1469 3103 1208 2742 
Q 947 2381 947 1747 
z
M 2906 525 
Q 2725 213 2448 61 
Q 2172 -91 1784 -91 
Q 1150 -91 751 415 
Q 353 922 353 1747 
Q 353 2572 751 3078 
Q 1150 3584 1784 3584 
Q 2172 3584 2448 3432 
Q 2725 3281 2906 2969 
L 2906 3500 
L 3481 3500 
L 3481 -1331 
L 2906 -1331 
L 2906 525 
z
" transform="scale(0.015625)"/>
       <path id="DejaVuSans-75" d="M 544 1381 
L 544 3500 
L 1119 3500 
L 1119 1403 
Q 1119 906 1312 657 
Q 1506 409 1894 409 
Q 2359 409 2629 706 
Q 2900 1003 2900 1516 
L 2900 3500 
L 3475 3500 
L 3475 0 
L 2900 0 
L 2900 538 
Q 2691 219 2414 64 
Q 2138 -91 1772 -91 
Q 1169 -91 856 284 
Q 544 659 544 1381 
z
M 1991 3584 
L 1991 3584 
z
" transform="scale(0.015625)"/>
       <path id="DejaVuSans-6e" d="M 3513 2113 
L 3513 0 
L 2938 0 
L 2938 2094 
Q 2938 2591 2744 2837 
Q 2550 3084 2163 3084 
Q 1697 3084 1428 2787 
Q 1159 2491 1159 1978 
L 1159 0 
L 581 0 
L 581 3500 
L 1159 3500 
L 1159 2956 
Q 1366 3272 1645 3428 
Q 1925 3584 2291 3584 
Q 2894 3584 3203 3211 
Q 3513 2838 3513 2113 
z
" transform="scale(0.015625)"/>
       <path id="DejaVuSans-63" d="M 3122 3366 
L 3122 2828 
Q 2878 2963 2633 3030 
Q 2388 3097 2138 3097 
Q 1578 3097 1268 2742 
Q 959 2388 959 1747 
Q 959 1106 1268 751 
Q 1578 397 2138 397 
Q 2388 397 2633 464 
Q 2878 531 3122 666 
L 3122 134 
Q 2881 22 2623 -34 
Q 2366 -91 2075 -91 
Q 1284 -91 818 406 
Q 353 903 353 1747 
Q 353 2603 823 3093 
Q 1294 3584 2113 3584 
Q 2378 3584 2631 3529 
Q 2884 3475 3122 3366 
z
" transform="scale(0.015625)"/>
       <path id="DejaVuSans-79" d="M 2059 -325 
Q 1816 -950 1584 -1140 
Q 1353 -1331 966 -1331 
L 506 -1331 
L 506 -850 
L 844 -850 
Q 1081 -850 1212 -737 
Q 1344 -625 1503 -206 
L 1606 56 
L 191 3500 
L 800 3500 
L 1894 763 
L 2988 3500 
L 3597 3500 
L 2059 -325 
z
" transform="scale(0.015625)"/>
       <path id="DejaVuSans-20" transform="scale(0.015625)"/>
       <path id="DejaVuSans-5b" d="M 550 4863 
L 1875 4863 
L 1875 4416 
L 1125 4416 
L 1125 -397 
L 1875 -397 
L 1875 -844 
L 550 -844 
L 550 4863 
z
" transform="scale(0.015625)"/>
       <path id="DejaVuSans-4d" d="M 628 4666 
L 1569 4666 
L 2759 1491 
L 3956 4666 
L 4897 4666 
L 4897 0 
L 4281 0 
L 4281 4097 
L 3078 897 
L 2444 897 
L 1241 4097 
L 1241 0 
L 628 0 
L 628 4666 
z
" transform="scale(0.015625)"/>
       <path id="DejaVuSans-48" d="M 628 4666 
L 1259 4666 
L 1259 2753 
L 3553 2753 
L 3553 4666 
L 4184 4666 
L 4184 0 
L 3553 0 
L 3553 2222 
L 1259 2222 
L 1259 0 
L 628 0 
L 628 4666 
z
" transform="scale(0.015625)"/>
       <path id="DejaVuSans-7a" d="M 353 3500 
L 3084 3500 
L 3084 2975 
L 922 459 
L 3084 459 
L 3084 0 
L 275 0 
L 275 525 
L 2438 3041 
L 353 3041 
L 353 3500 
z
" transform="scale(0.015625)"/>
       <path id="DejaVuSans-5d" d="M 1947 4863 
L 1947 -844 
L 622 -844 
L 622 -397 
L 1369 -397 
L 1369 4416 
L 622 4416 
L 622 4863 
L 1947 4863 
z
" transform="scale(0.015625)"/>
      </defs>
      <use xlink:href="#DejaVuSans-66"/>
      <use xlink:href="#DejaVuSans-72" x="35.205078"/>
      <use xlink:href="#DejaVuSans-65" x="74.068359"/>
      <use xlink:href="#DejaVuSans-71" x="135.591797"/>
      <use xlink:href="#DejaVuSans-75" x="199.068359"/>
      <use xlink:href="#DejaVuSans-65" x="262.447266"/>
      <use xlink:href="#DejaVuSans-6e" x="323.970703"/>
      <use xlink:href="#DejaVuSans-63" x="387.349609"/>
      <use xlink:href="#DejaVuSans-79" x="442.330078"/>
      <use xlink:href="#DejaVuSans-20" x="501.509766"/>
      <use xlink:href="#DejaVuSans-5b" x="533.296875"/>
      <use xlink:href="#DejaVuSans-4d" x="572.310547"/>
      <use xlink:href="#DejaVuSans-48" x="658.589844"/>
      <use xlink:href="#DejaVuSans-7a" x="733.785156"/>
      <use xlink:href="#DejaVuSans-5d" x="786.275391"/>
     </g>
    </g>
   </g>
   <g id="matplotlib.axis_2">
    <g id="ytick_1">
     <g id="line2d_9">
      <path d="M 280.658098 181 
C 280.658098 177.236653 279.916801 173.5099 278.47663 170.033021 
C 277.03646 166.556142 274.925423 163.396753 272.264335 160.735665 
C 269.603247 158.074577 266.443858 155.96354 262.966979 154.52337 
C 259.4901 153.083199 255.763347 152.341902 252 152.341902 
C 248.236653 152.341902 244.5099 153.083199 241.033021 154.52337 
C 237.556142 155.96354 234.396753 158.074577 231.735665 160.735665 
C 229.074577 163.396753 226.96354 166.556142 225.52337 170.033021 
C 224.083199 173.5099 223.341902 177.236653 223.341902 181 
C 223.341902 184.763347 224.083199 188.4901 225.52337 191.966979 
C 226.96354 195.443858 229.074577 198.603247 231.735665 201.264335 
C 234.396753 203.925423 237.556142 206.03646 241.033021 207.47663 
C 244.5099 208.916801 248.236653 209.658098 252 209.658098 
C 255.763347 209.658098 259.4901 208.916801 262.966979 207.47663 
C 266.443858 206.03646 269.603247 203.925423 272.264335 201.264335 
C 274.925423 198.603247 277.03646 195.443858 278.47663 191.966979 
C 279.916801 188.4901 280.658098 184.763347 280.658098 181 
" clip-path="url(#p8579b8b363)" style="fill: none; stroke: #808080; stroke-width: 0.8; stroke-linecap: square"/>
     </g>
     <g id="text_10">
      <!-- 0.2 -->
      <g transform="translate(278.47663 167.537396) scale(0.12 -0.12)">
       <defs>
        <path id="DejaVuSans-2e" d="M 684 794 
L 1344 794 
L 1344 0 
L 684 0 
L 684 794 
z
" transform="scale(0.015625)"/>
       </defs>
       <use xlink:href="#DejaVuSans-30"/>
       <use xlink:href="#DejaVuSans-2e" x="63.623047"/>
       <use xlink:href="#DejaVuSans-32" x="95.410156"/>
      </g>
     </g>
    </g>
    <g id="ytick_2">
     <g id="line2d_10">
      <path d="M 309.316196 181 
C 309.316196 173.473306 307.833601 166.0198 304.95326 159.066042 
C 302.072919 152.112283 297.850847 145.793506 292.528671 140.471329 
C 287.206494 135.149153 280.887717 130.927081 273.933958 128.04674 
C 266.9802 125.166399 259.526694 123.683804 252 123.683804 
C 244.473306 123.683804 237.0198 125.166399 230.066042 128.04674 
C 223.112283 130.927081 216.793506 135.149153 211.471329 140.471329 
C 206.149153 145.793506 201.927081 152.112283 199.04674 159.066042 
C 196.166399 166.0198 194.683804 173.473306 194.683804 181 
C 194.683804 188.526694 196.166399 195.9802 199.04674 202.933958 
C 201.927081 209.887717 206.149153 216.206494 211.471329 221.528671 
C 216.793506 226.850847 223.112283 231.072919 230.066042 233.95326 
C 237.0198 236.833601 244.473306 238.316196 252 238.316196 
C 259.526694 238.316196 266.9802 236.833601 273.933958 233.95326 
C 280.887717 231.072919 287.206494 226.850847 292.528671 221.528671 
C 297.850847 216.206494 302.072919 209.887717 304.95326 202.933958 
C 307.833601 195.9802 309.316196 188.526694 309.316196 181 
" clip-path="url(#p8579b8b363)" style="fill: none; stroke: #808080; stroke-width: 0.8; stroke-linecap: square"/>
     </g>
     <g id="text_11">
      <!-- 0.4 -->
      <g transform="translate(304.95326 156.570417) scale(0.12 -0.12)">
       <use xlink:href="#DejaVuSans-30"/>
       <use xlink:href="#DejaVuSans-2e" x="63.623047"/>
       <use xlink:href="#DejaVuSans-34" x="95.410156"/>
      </g>
     </g>
    </g>
    <g id="ytick_3">
     <g id="line2d_11">
      <path d="M 337.974293 181 
C 337.974293 169.709959 335.750402 158.5297 331.42989 148.099062 
C 327.109379 137.668425 320.77627 128.190258 312.793006 120.206994 
C 304.809742 112.22373 295.331575 105.890621 284.900938 101.57011 
C 274.4703 97.249598 263.290041 95.025707 252 95.025707 
C 240.709959 95.025707 229.5297 97.249598 219.099062 101.57011 
C 208.668425 105.890621 199.190258 112.22373 191.206994 120.206994 
C 183.22373 128.190258 176.890621 137.668425 172.57011 148.099062 
C 168.249598 158.5297 166.025707 169.709959 166.025707 181 
C 166.025707 192.290041 168.249598 203.4703 172.57011 213.900938 
C 176.890621 224.331575 183.22373 233.809742 191.206994 241.793006 
C 199.190258 249.77627 208.668425 256.109379 219.099062 260.42989 
C 229.5297 264.750402 240.709959 266.974293 252 266.974293 
C 263.290041 266.974293 274.4703 264.750402 284.900938 260.42989 
C 295.331575 256.109379 304.809742 249.77627 312.793006 241.793006 
C 320.77627 233.809742 327.109379 224.331575 331.42989 213.900938 
C 335.750402 203.4703 337.974293 192.290041 337.974293 181 
" clip-path="url(#p8579b8b363)" style="fill: none; stroke: #808080; stroke-width: 0.8; stroke-linecap: square"/>
     </g>
     <g id="text_12">
      <!-- 0.6 -->
      <g transform="translate(331.42989 145.603437) scale(0.12 -0.12)">
       <defs>
        <path id="DejaVuSans-36" d="M 2113 2584 
Q 1688 2584 1439 2293 
Q 1191 2003 1191 1497 
Q 1191 994 1439 701 
Q 1688 409 2113 409 
Q 2538 409 2786 701 
Q 3034 994 3034 1497 
Q 3034 2003 2786 2293 
Q 2538 2584 2113 2584 
z
M 3366 4563 
L 3366 3988 
Q 3128 4100 2886 4159 
Q 2644 4219 2406 4219 
Q 1781 4219 1451 3797 
Q 1122 3375 1075 2522 
Q 1259 2794 1537 2939 
Q 1816 3084 2150 3084 
Q 2853 3084 3261 2657 
Q 3669 2231 3669 1497 
Q 3669 778 3244 343 
Q 2819 -91 2113 -91 
Q 1303 -91 875 529 
Q 447 1150 447 2328 
Q 447 3434 972 4092 
Q 1497 4750 2381 4750 
Q 2619 4750 2861 4703 
Q 3103 4656 3366 4563 
z
" transform="scale(0.015625)"/>
       </defs>
       <use xlink:href="#DejaVuSans-30"/>
       <use xlink:href="#DejaVuSans-2e" x="63.623047"/>
       <use xlink:href="#DejaVuSans-36" x="95.410156"/>
      </g>
     </g>
    </g>
    <g id="ytick_4">
     <g id="line2d_12">
      <path d="M 366.632391 181 
C 366.632391 165.946612 363.667202 151.0396 357.90652 137.132083 
C 352.145838 123.224566 343.701694 110.587011 333.057341 99.942659 
C 322.412989 89.298306 309.775434 80.854162 295.867917 75.09348 
C 281.9604 69.332798 267.053388 66.367609 252 66.367609 
C 236.946612 66.367609 222.0396 69.332798 208.132083 75.09348 
C 194.224566 80.854162 181.587011 89.298306 170.942659 99.942659 
C 160.298306 110.587011 151.854162 123.224566 146.09348 137.132083 
C 140.332798 151.0396 137.367609 165.946612 137.367609 181 
C 137.367609 196.053388 140.332798 210.9604 146.09348 224.867917 
C 151.854162 238.775434 160.298306 251.412989 170.942659 262.057341 
C 181.587011 272.701694 194.224566 281.145838 208.132083 286.90652 
C 222.0396 292.667202 236.946612 295.632391 252 295.632391 
C 267.053388 295.632391 281.9604 292.667202 295.867917 286.90652 
C 309.775434 281.145838 322.412989 272.701694 333.057341 262.057341 
C 343.701694 251.412989 352.145838 238.775434 357.90652 224.867917 
C 363.667202 210.9604 366.632391 196.053388 366.632391 181 
" clip-path="url(#p8579b8b363)" style="fill: none; stroke: #808080; stroke-width: 0.8; stroke-linecap: square"/>
     </g>
     <g id="text_13">
      <!-- 0.8 -->
      <g transform="translate(357.90652 134.636458) scale(0.12 -0.12)">
       <use xlink:href="#DejaVuSans-30"/>
       <use xlink:href="#DejaVuSans-2e" x="63.623047"/>
       <use xlink:href="#DejaVuSans-38" x="95.410156"/>
      </g>
     </g>
    </g>
    <g id="text_14">
     <!-- magnitude [V] -->
     <g transform="translate(110.424375 224.148437) rotate(-90) scale(0.12 -0.12)">
      <defs>
       <path id="DejaVuSans-6d" d="M 3328 2828 
Q 3544 3216 3844 3400 
Q 4144 3584 4550 3584 
Q 5097 3584 5394 3201 
Q 5691 2819 5691 2113 
L 5691 0 
L 5113 0 
L 5113 2094 
Q 5113 2597 4934 2840 
Q 4756 3084 4391 3084 
Q 3944 3084 3684 2787 
Q 3425 2491 3425 1978 
L 3425 0 
L 2847 0 
L 2847 2094 
Q 2847 2600 2669 2842 
Q 2491 3084 2119 3084 
Q 1678 3084 1418 2786 
Q 1159 2488 1159 1978 
L 1159 0 
L 581 0 
L 581 3500 
L 1159 3500 
L 1159 2956 
Q 1356 3278 1631 3431 
Q 1906 3584 2284 3584 
Q 2666 3584 2933 3390 
Q 3200 3197 3328 2828 
z
" transform="scale(0.015625)"/>
       <path id="DejaVuSans-61" d="M 2194 1759 
Q 1497 1759 1228 1600 
Q 959 1441 959 1056 
Q 959 750 1161 570 
Q 1363 391 1709 391 
Q 2188 391 2477 730 
Q 2766 1069 2766 1631 
L 2766 1759 
L 2194 1759 
z
M 3341 1997 
L 3341 0 
L 2766 0 
L 2766 531 
Q 2569 213 2275 61 
Q 1981 -91 1556 -91 
Q 1019 -91 701 211 
Q 384 513 384 1019 
Q 384 1609 779 1909 
Q 1175 2209 1959 2209 
L 2766 2209 
L 2766 2266 
Q 2766 2663 2505 2880 
Q 2244 3097 1772 3097 
Q 1472 3097 1187 3025 
Q 903 2953 641 2809 
L 641 3341 
Q 956 3463 1253 3523 
Q 1550 3584 1831 3584 
Q 2591 3584 2966 3190 
Q 3341 2797 3341 1997 
z
" transform="scale(0.015625)"/>
       <path id="DejaVuSans-67" d="M 2906 1791 
Q 2906 2416 2648 2759 
Q 2391 3103 1925 3103 
Q 1463 3103 1205 2759 
Q 947 2416 947 1791 
Q 947 1169 1205 825 
Q 1463 481 1925 481 
Q 2391 481 2648 825 
Q 2906 1169 2906 1791 
z
M 3481 434 
Q 3481 -459 3084 -895 
Q 2688 -1331 1869 -1331 
Q 1566 -1331 1297 -1286 
Q 1028 -1241 775 -1147 
L 775 -588 
Q 1028 -725 1275 -790 
Q 1522 -856 1778 -856 
Q 2344 -856 2625 -561 
Q 2906 -266 2906 331 
L 2906 616 
Q 2728 306 2450 153 
Q 2172 0 1784 0 
Q 1141 0 747 490 
Q 353 981 353 1791 
Q 353 2603 747 3093 
Q 1141 3584 1784 3584 
Q 2172 3584 2450 3431 
Q 2728 3278 2906 2969 
L 2906 3500 
L 3481 3500 
L 3481 434 
z
" transform="scale(0.015625)"/>
       <path id="DejaVuSans-69" d="M 603 3500 
L 1178 3500 
L 1178 0 
L 603 0 
L 603 3500 
z
M 603 4863 
L 1178 4863 
L 1178 4134 
L 603 4134 
L 603 4863 
z
" transform="scale(0.015625)"/>
       <path id="DejaVuSans-74" d="M 1172 4494 
L 1172 3500 
L 2356 3500 
L 2356 3053 
L 1172 3053 
L 1172 1153 
Q 1172 725 1289 603 
Q 1406 481 1766 481 
L 2356 481 
L 2356 0 
L 1766 0 
Q 1100 0 847 248 
Q 594 497 594 1153 
L 594 3053 
L 172 3053 
L 172 3500 
L 594 3500 
L 594 4494 
L 1172 4494 
z
" transform="scale(0.015625)"/>
       <path id="DejaVuSans-64" d="M 2906 2969 
L 2906 4863 
L 3481 4863 
L 3481 0 
L 2906 0 
L 2906 525 
Q 2725 213 2448 61 
Q 2172 -91 1784 -91 
Q 1150 -91 751 415 
Q 353 922 353 1747 
Q 353 2572 751 3078 
Q 1150 3584 1784 3584 
Q 2172 3584 2448 3432 
Q 2725 3281 2906 2969 
z
M 947 1747 
Q 947 1113 1208 752 
Q 1469 391 1925 391 
Q 2381 391 2643 752 
Q 2906 1113 2906 1747 
Q 2906 2381 2643 2742 
Q 2381 3103 1925 3103 
Q 1469 3103 1208 2742 
Q 947 2381 947 1747 
z
" transform="scale(0.015625)"/>
       <path id="DejaVuSans-56" d="M 1831 0 
L 50 4666 
L 709 4666 
L 2188 738 
L 3669 4666 
L 4325 4666 
L 2547 0 
L 1831 0 
z
" transform="scale(0.015625)"/>
      </defs>
      <use xlink:href="#DejaVuSans-6d"/>
      <use xlink:href="#DejaVuSans-61" x="97.412109"/>
      <use xlink:href="#DejaVuSans-67" x="158.691406"/>
      <use xlink:href="#DejaVuSans-6e" x="222.167969"/>
      <use xlink:href="#DejaVuSans-69" x="285.546875"/>
      <use xlink:href="#DejaVuSans-74" x="313.330078"/>
      <use xlink:href="#DejaVuSans-75" x="352.539062"/>
      <use xlink:href="#DejaVuSans-64" x="415.917969"/>
      <use xlink:href="#DejaVuSans-65" x="479.394531"/>
      <use xlink:href="#DejaVuSans-20" x="540.917969"/>
      <use xlink:href="#DejaVuSans-5b" x="572.705078"/>
      <use xlink:href="#DejaVuSans-56" x="611.71875"/>
      <use xlink:href="#DejaVuSans-5d" x="680.126953"/>
     </g>
    </g>
   </g>
   <g id="line2d_13">
    <path d="M 380.329305 190.087998 
L 379.692911 193.842601 
L 378.848337 197.521447 
L 377.815225 201.078822 
L 376.616364 204.485596 
L 375.189167 207.916658 
L 373.582725 211.237157 
L 371.879743 214.314167 
L 369.81904 217.58828 
L 367.78689 220.447208 
L 365.431988 223.398776 
L 362.721115 226.40941 
L 360.275729 228.831728 
L 357.570286 231.237616 
L 354.59529 233.596301 
L 351.345695 235.873353 
L 347.821988 238.031346 
L 344.031185 240.030852 
L 341.021134 241.402333 
L 337.877664 242.645435 
L 334.612202 243.744225 
L 331.238625 244.683942 
L 327.773103 245.451448 
L 324.233851 246.035648 
L 320.640783 246.427872 
L 317.015087 246.62218 
L 313.378738 246.615576 
L 309.75397 246.408119 
L 306.162735 246.002922 
L 302.626174 245.406034 
L 299.164136 244.626221 
L 295.794751 243.67466 
L 292.534093 242.564555 
L 289.395932 241.31071 
L 285.421467 239.443014 
L 281.704503 237.387799 
L 278.257233 235.185088 
L 275.084725 232.873822 
L 272.185783 230.49062 
L 269.553974 228.068886 
L 266.623448 225.032255 
L 264.066406 222.030253 
L 261.851073 219.101798 
L 259.595897 215.725748 
L 257.724977 212.533124 
L 255.953097 209.067625 
L 254.371344 205.464833 
L 253.033671 201.863516 
L 251.866735 198.070127 
L 250.883196 194.087627 
L 250.029014 189.663481 
L 249.463776 185.697648 
L 249.447127 184.183378 
L 249.628409 183.151561 
L 249.979565 182.313603 
L 250.406036 181.739336 
L 250.972721 181.28945 
L 251.627523 181.038331 
L 252.270779 181.019949 
L 252.798007 181.198581 
L 253.229863 181.592313 
L 253.385393 182.071955 
L 253.270228 182.435804 
L 252.985018 182.600401 
L 252.646601 182.526485 
L 252.318747 182.206847 
L 252.077776 181.642604 
L 252.005998 181.182247 
L 252.005998 181.182247 
" clip-path="url(#p8579b8b363)" style="fill: none; stroke: #0000ff; stroke-width: 2; stroke-linecap: square"/>
   </g>
   <g id="patch_3">
    <path d="M 387.08 181 
C 387.08 163.261457 383.585894 145.695399 376.797647 129.307122 
C 370.009401 112.918845 360.059028 98.02706 347.515984 85.484016 
C 334.97294 72.940972 320.081155 62.990599 303.692878 56.202353 
C 287.304601 49.414106 269.738543 45.92 252 45.92 
C 234.261457 45.92 216.695399 49.414106 200.307122 56.202353 
C 183.918845 62.990599 169.02706 72.940972 156.484016 85.484016 
C 143.940972 98.02706 133.990599 112.918845 127.202353 129.307122 
C 120.414106 145.695399 116.92 163.261457 116.92 181 
C 116.92 198.738543 120.414106 216.304601 127.202353 232.692878 
C 133.990599 249.081155 143.940972 263.97294 156.484016 276.515984 
C 169.02706 289.059028 183.918845 299.009401 200.307122 305.797647 
C 216.695399 312.585894 234.261457 316.08 252 316.08 
C 269.738543 316.08 287.304601 312.585894 303.692878 305.797647 
C 320.081155 299.009401 334.97294 289.059028 347.515984 276.515984 
C 360.059028 263.97294 370.009401 249.081155 376.797647 232.692878 
C 383.585894 216.304601 387.08 198.738543 387.08 181 
" style="fill: none; stroke: #000000; stroke-width: 0.8; stroke-linejoin: miter; stroke-linecap: square"/>
   </g>
   <g id="text_15">
    <!-- Magnitude-phase plot -->
    <g transform="translate(186.535313 20.113125) scale(0.12 -0.12)">
     <defs>
      <path id="DejaVuSans-2d" d="M 313 2009 
L 1997 2009 
L 1997 1497 
L 313 1497 
L 313 2009 
z
" transform="scale(0.015625)"/>
      <path id="DejaVuSans-70" d="M 1159 525 
L 1159 -1331 
L 581 -1331 
L 581 3500 
L 1159 3500 
L 1159 2969 
Q 1341 3281 1617 3432 
Q 1894 3584 2278 3584 
Q 2916 3584 3314 3078 
Q 3713 2572 3713 1747 
Q 3713 922 3314 415 
Q 2916 -91 2278 -91 
Q 1894 -91 1617 61 
Q 1341 213 1159 525 
z
M 3116 1747 
Q 3116 2381 2855 2742 
Q 2594 3103 2138 3103 
Q 1681 3103 1420 2742 
Q 1159 2381 1159 1747 
Q 1159 1113 1420 752 
Q 1681 391 2138 391 
Q 2594 391 2855 752 
Q 3116 1113 3116 1747 
z
" transform="scale(0.015625)"/>
      <path id="DejaVuSans-68" d="M 3513 2113 
L 3513 0 
L 2938 0 
L 2938 2094 
Q 2938 2591 2744 2837 
Q 2550 3084 2163 3084 
Q 1697 3084 1428 2787 
Q 1159 2491 1159 1978 
L 1159 0 
L 581 0 
L 581 4863 
L 1159 4863 
L 1159 2956 
Q 1366 3272 1645 3428 
Q 1925 3584 2291 3584 
Q 2894 3584 3203 3211 
Q 3513 2838 3513 2113 
z
" transform="scale(0.015625)"/>
      <path id="DejaVuSans-73" d="M 2834 3397 
L 2834 2853 
Q 2591 2978 2328 3040 
Q 2066 3103 1784 3103 
Q 1356 3103 1142 2972 
Q 928 2841 928 2578 
Q 928 2378 1081 2264 
Q 1234 2150 1697 2047 
L 1894 2003 
Q 2506 1872 2764 1633 
Q 3022 1394 3022 966 
Q 3022 478 2636 193 
Q 2250 -91 1575 -91 
Q 1294 -91 989 -36 
Q 684 19 347 128 
L 347 722 
Q 666 556 975 473 
Q 1284 391 1588 391 
Q 1994 391 2212 530 
Q 2431 669 2431 922 
Q 2431 1156 2273 1281 
Q 2116 1406 1581 1522 
L 1381 1569 
Q 847 1681 609 1914 
Q 372 2147 372 2553 
Q 372 3047 722 3315 
Q 1072 3584 1716 3584 
Q 2034 3584 2315 3537 
Q 2597 3491 2834 3397 
z
" transform="scale(0.015625)"/>
      <path id="DejaVuSans-6c" d="M 603 4863 
L 1178 4863 
L 1178 0 
L 603 0 
L 603 4863 
z
" transform="scale(0.015625)"/>
      <path id="DejaVuSans-6f" d="M 1959 3097 
Q 1497 3097 1228 2736 
Q 959 2375 959 1747 
Q 959 1119 1226 758 
Q 1494 397 1959 397 
Q 2419 397 2687 759 
Q 2956 1122 2956 1747 
Q 2956 2369 2687 2733 
Q 2419 3097 1959 3097 
z
M 1959 3584 
Q 2709 3584 3137 3096 
Q 3566 2609 3566 1747 
Q 3566 888 3137 398 
Q 2709 -91 1959 -91 
Q 1206 -91 779 398 
Q 353 888 353 1747 
Q 353 2609 779 3096 
Q 1206 3584 1959 3584 
z
" transform="scale(0.015625)"/>
     </defs>
     <use xlink:href="#DejaVuSans-4d"/>
     <use xlink:href="#DejaVuSans-61" x="86.279297"/>
     <use xlink:href="#DejaVuSans-67" x="147.558594"/>
     <use xlink:href="#DejaVuSans-6e" x="211.035156"/>
     <use xlink:href="#DejaVuSans-69" x="274.414062"/>
     <use xlink:href="#DejaVuSans-74" x="302.197266"/>
     <use xlink:href="#DejaVuSans-75" x="341.40625"/>
     <use xlink:href="#DejaVuSans-64" x="404.785156"/>
     <use xlink:href="#DejaVuSans-65" x="468.261719"/>
     <use xlink:href="#DejaVuSans-2d" x="529.785156"/>
     <use xlink:href="#DejaVuSans-70" x="565.869141"/>
     <use xlink:href="#DejaVuSans-68" x="629.345703"/>
     <use xlink:href="#DejaVuSans-61" x="692.724609"/>
     <use xlink:href="#DejaVuSans-73" x="754.003906"/>
     <use xlink:href="#DejaVuSans-65" x="806.103516"/>
     <use xlink:href="#DejaVuSans-20" x="867.626953"/>
     <use xlink:href="#DejaVuSans-70" x="899.414062"/>
     <use xlink:href="#DejaVuSans-6c" x="962.890625"/>
     <use xlink:href="#DejaVuSans-6f" x="990.673828"/>
     <use xlink:href="#DejaVuSans-74" x="1051.855469"/>
    </g>
   </g>
   <g id="legend_1">
    <g id="patch_4">
     <path d="M 342.169375 66.53375 
L 380.08 66.53375 
Q 382.08 66.53375 382.08 64.53375 
L 382.08 52.92 
Q 382.08 50.92 380.08 50.92 
L 342.169375 50.92 
Q 340.169375 50.92 340.169375 52.92 
L 340.169375 64.53375 
Q 340.169375 66.53375 342.169375 66.53375 
z
" style="fill: #ffffff; opacity: 0.8; stroke: #cccccc; stroke-linejoin: miter"/>
    </g>
    <g id="line2d_14">
     <path d="M 342.169375 58.538125 
L 347.169375 58.538125 
L 352.169375 58.538125 
" style="fill: none; stroke: #0000ff; stroke-width: 2; stroke-linecap: square"/>
    </g>
    <g id="text_16">
     <!-- gain -->
     <g transform="translate(354.169375 62.038125) scale(0.12 -0.12)">
      <use xlink:href="#DejaVuSans-67"/>
      <use xlink:href="#DejaVuSans-61" x="63.476562"/>
      <use xlink:href="#DejaVuSans-69" x="124.755859"/>
      <use xlink:href="#DejaVuSans-6e" x="152.539062"/>
     </g>
    </g>
   </g>
  </g>
 </g>
 <defs>
  <clipPath id="p8579b8b363">
   <path d="M 387.08 181 
C 387.08 163.261457 383.585894 145.695399 376.797647 129.307122 
C 370.009401 112.918845 360.059028 98.02706 347.515984 85.484016 
C 334.97294 72.940972 320.081155 62.990599 303.692878 56.202353 
C 287.304601 49.414106 269.738543 45.92 252 45.92 
C 234.261457 45.92 216.695399 49.414106 200.307122 56.202353 
C 183.918845 62.990599 169.02706 72.940972 156.484016 85.484016 
C 143.940972 98.02706 133.990599 112.918845 127.202353 129.307122 
C 120.414106 145.695399 116.92 163.261457 116.92 181 
C 116.92 198.738543 120.414106 216.304601 127.202353 232.692878 
C 133.990599 249.081155 143.940972 263.97294 156.484016 276.515984 
C 169.02706 289.059028 183.918845 299.009401 200.307122 305.797647 
C 216.695399 312.585894 234.261457 316.08 252 316.08 
C 269.738543 316.08 287.304601 312.585894 303.692878 305.797647 
C 320.081155 299.009401 334.97294 289.059028 347.515984 276.515984 
C 360.059028 263.97294 370.009401 249.081155 376.797647 232.692878 
C 383.585894 216.304601 387.08 198.738543 387.08 181 
M 252 181 
C 252 181 252 181 252 181 
C 252 181 252 181 252 181 
C 252 181 252 181 252 181 
C 252 181 252 181 252 181 
C 252 181 252 181 252 181 
C 252 181 252 181 252 181 
C 252 181 252 181 252 181 
C 252 181 252 181 252 181 
C 252 181 252 181 252 181 
C 252 181 252 181 252 181 
C 252 181 252 181 252 181 
C 252 181 252 181 252 181 
C 252 181 252 181 252 181 
C 252 181 252 181 252 181 
C 252 181 252 181 252 181 
C 252 181 252 181 252 181 
z
"/>
  </clipPath>
 </defs>
</svg>
