<?xml version="1.0" encoding="utf-8" standalone="no"?>
<!DOCTYPE svg PUBLIC "-//W3C//DTD SVG 1.1//EN"
  "http://www.w3.org/Graphics/SVG/1.1/DTD/svg11.dtd">
<svg xmlns:xlink="http://www.w3.org/1999/xlink" width="504pt" height="360pt" viewBox="0 0 504 360" xmlns="http://www.w3.org/2000/svg" version="1.1">
 <metadata>
  <rdf:RDF xmlns:dc="http://purl.org/dc/elements/1.1/" xmlns:cc="http://creativecommons.org/ns#" xmlns:rdf="http://www.w3.org/1999/02/22-rdf-syntax-ns#">
   <cc:Work>
    <dc:type rdf:resource="http://purl.org/dc/dcmitype/StillImage"/>
    <dc:date>2025-08-26T18:55:18.044230</dc:date>
    <dc:format>image/svg+xml</dc:format>
    <dc:creator>
     <cc:Agent>
      <dc:title>Matplotlib v3.9.2, https://matplotlib.org/</dc:title>
     </cc:Agent>
    </dc:creator>
   </cc:Work>
  </rdf:RDF>
 </metadata>
 <defs>
  <style type="text/css">*{stroke-linejoin: round; stroke-linecap: butt}</style>
 </defs>
 <g id="figure_1">
  <g id="patch_1">
   <path d="M 0 360 
L 504 360 
L 504 0 
L 0 0 
z
" style="fill: #ffffff"/>
  </g>
  <g id="axes_1">
   <g id="patch_2">
    <path d="M 54.175 329.2 
L 493.2 329.2 
L 493.2 27.8 
L 54.175 27.8 
z
" style="fill: #ffffff"/>
   </g>
   <g id="matplotlib.axis_1">
    <g id="xtick_1">
     <g id="line2d_1">
      <path d="M 74.130682 329.2 
L 74.130682 27.8 
" clip-path="url(#p85fdcd9f4f)" style="fill: none; stroke: #808080; stroke-width: 0.8; stroke-linecap: square"/>
     </g>
     <g id="line2d_2">
      <defs>
       <path id="m2ed128b696" d="M 0 0 
L 0 3.5 
" style="stroke: #000000; stroke-width: 0.8"/>
      </defs>
      <g>
       <use xlink:href="#m2ed128b696" x="74.130682" y="329.2" style="stroke: #000000; stroke-width: 0.8"/>
      </g>
     </g>
     <g id="text_1">
      <!-- −1.00 -->
      <g transform="translate(55.743494 345.318125) scale(0.12 -0.12)">
       <defs>
        <path id="DejaVuSans-2212" d="M 678 2272 
L 4684 2272 
L 4684 1741 
L 678 1741 
L 678 2272 
z
" transform="scale(0.015625)"/>
        <path id="DejaVuSans-31" d="M 794 531 
L 1825 531 
L 1825 4091 
L 703 3866 
L 703 4441 
L 1819 4666 
L 2450 4666 
L 2450 531 
L 3481 531 
L 3481 0 
L 794 0 
L 794 531 
z
" transform="scale(0.015625)"/>
        <path id="DejaVuSans-2e" d="M 684 794 
L 1344 794 
L 1344 0 
L 684 0 
L 684 794 
z
" transform="scale(0.015625)"/>
        <path id="DejaVuSans-30" d="M 2034 4250 
Q 1547 4250 1301 3770 
Q 1056 3291 1056 2328 
Q 1056 1369 1301 889 
Q 1547 409 2034 409 
Q 2525 409 2770 889 
Q 3016 1369 3016 2328 
Q 3016 3291 2770 3770 
Q 2525 4250 2034 4250 
z
M 2034 4750 
Q 2819 4750 3233 4129 
Q 3647 3509 3647 2328 
Q 3647 1150 3233 529 
Q 2819 -91 2034 -91 
Q 1250 -91 836 529 
Q 422 1150 422 2328 
Q 422 3509 836 4129 
Q 1250 4750 2034 4750 
z
" transform="scale(0.015625)"/>
       </defs>
       <use xlink:href="#DejaVuSans-2212"/>
       <use xlink:href="#DejaVuSans-31" x="83.789062"/>
       <use xlink:href="#DejaVuSans-2e" x="147.412109"/>
       <use xlink:href="#DejaVuSans-30" x="179.199219"/>
       <use xlink:href="#DejaVuSans-30" x="242.822266"/>
      </g>
     </g>
    </g>
    <g id="xtick_2">
     <g id="line2d_3">
      <path d="M 124.019886 329.2 
L 124.019886 27.8 
" clip-path="url(#p85fdcd9f4f)" style="fill: none; stroke: #808080; stroke-width: 0.8; stroke-linecap: square"/>
     </g>
     <g id="line2d_4">
      <g>
       <use xlink:href="#m2ed128b696" x="124.019886" y="329.2" style="stroke: #000000; stroke-width: 0.8"/>
      </g>
     </g>
     <g id="text_2">
      <!-- −0.75 -->
      <g transform="translate(105.632699 345.318125) scale(0.12 -0.12)">
       <defs>
        <path id="DejaVuSans-37" d="M 525 4666 
L 3525 4666 
L 3525 4397 
L 1831 0 
L 1172 0 
L 2766 4134 
L 525 4134 
L 525 4666 
z
" transform="scale(0.015625)"/>
        <path id="DejaVuSans-35" d="M 691 4666 
L 3169 4666 
L 3169 4134 
L 1269 4134 
L 1269 2991 
Q 1406 3038 1543 3061 
Q 1681 3084 1819 3084 
Q 2600 3084 3056 2656 
Q 3513 2228 3513 1497 
Q 3513 744 3044 326 
Q 2575 -91 1722 -91 
Q 1428 -91 1123 -41 
Q 819 9 494 109 
L 494 744 
Q 775 591 1075 516 
Q 1375 441 1709 441 
Q 2250 441 2565 725 
Q 2881 1009 2881 1497 
Q 2881 1984 2565 2268 
Q 2250 2553 1709 2553 
Q 1456 2553 1204 2497 
Q 953 2441 691 2322 
L 691 4666 
z
" transform="scale(0.015625)"/>
       </defs>
       <use xlink:href="#DejaVuSans-2212"/>
       <use xlink:href="#DejaVuSans-30" x="83.789062"/>
       <use xlink:href="#DejaVuSans-2e" x="147.412109"/>
       <use xlink:href="#DejaVuSans-37" x="179.199219"/>
       <use xlink:href="#DejaVuSans-35" x="242.822266"/>
      </g>
     </g>
    </g>
    <g id="xtick_3">
     <g id="line2d_5">
      <path d="M 173.909091 329.2 
L 173.909091 27.8 
" clip-path="url(#p85fdcd9f4f)" style="fill: none; stroke: #808080; stroke-width: 0.8; stroke-linecap: square"/>
     </g>
     <g id="line2d_6">
      <g>
       <use xlink:href="#m2ed128b696" x="173.909091" y="329.2" style="stroke: #000000; stroke-width: 0.8"/>
      </g>
     </g>
     <g id="text_3">
      <!-- −0.50 -->
      <g transform="translate(155.521903 345.318125) scale(0.12 -0.12)">
       <use xlink:href="#DejaVuSans-2212"/>
       <use xlink:href="#DejaVuSans-30" x="83.789062"/>
       <use xlink:href="#DejaVuSans-2e" x="147.412109"/>
       <use xlink:href="#DejaVuSans-35" x="179.199219"/>
       <use xlink:href="#DejaVuSans-30" x="242.822266"/>
      </g>
     </g>
    </g>
    <g id="xtick_4">
     <g id="line2d_7">
      <path d="M 223.798295 329.2 
L 223.798295 27.8 
" clip-path="url(#p85fdcd9f4f)" style="fill: none; stroke: #808080; stroke-width: 0.8; stroke-linecap: square"/>
     </g>
     <g id="line2d_8">
      <g>
       <use xlink:href="#m2ed128b696" x="223.798295" y="329.2" style="stroke: #000000; stroke-width: 0.8"/>
      </g>
     </g>
     <g id="text_4">
      <!-- −0.25 -->
      <g transform="translate(205.411108 345.318125) scale(0.12 -0.12)">
       <defs>
        <path id="DejaVuSans-32" d="M 1228 531 
L 3431 531 
L 3431 0 
L 469 0 
L 469 531 
Q 828 903 1448 1529 
Q 2069 2156 2228 2338 
Q 2531 2678 2651 2914 
Q 2772 3150 2772 3378 
Q 2772 3750 2511 3984 
Q 2250 4219 1831 4219 
Q 1534 4219 1204 4116 
Q 875 4013 500 3803 
L 500 4441 
Q 881 4594 1212 4672 
Q 1544 4750 1819 4750 
Q 2544 4750 2975 4387 
Q 3406 4025 3406 3419 
Q 3406 3131 3298 2873 
Q 3191 2616 2906 2266 
Q 2828 2175 2409 1742 
Q 1991 1309 1228 531 
z
" transform="scale(0.015625)"/>
       </defs>
       <use xlink:href="#DejaVuSans-2212"/>
       <use xlink:href="#DejaVuSans-30" x="83.789062"/>
       <use xlink:href="#DejaVuSans-2e" x="147.412109"/>
       <use xlink:href="#DejaVuSans-32" x="179.199219"/>
       <use xlink:href="#DejaVuSans-35" x="242.822266"/>
      </g>
     </g>
    </g>
    <g id="xtick_5">
     <g id="line2d_9">
      <path d="M 273.6875 329.2 
L 273.6875 27.8 
" clip-path="url(#p85fdcd9f4f)" style="fill: none; stroke: #808080; stroke-width: 0.8; stroke-linecap: square"/>
     </g>
     <g id="line2d_10">
      <g>
       <use xlink:href="#m2ed128b696" x="273.6875" y="329.2" style="stroke: #000000; stroke-width: 0.8"/>
      </g>
     </g>
     <g id="text_5">
      <!-- 0.00 -->
      <g transform="translate(260.328125 345.318125) scale(0.12 -0.12)">
       <use xlink:href="#DejaVuSans-30"/>
       <use xlink:href="#DejaVuSans-2e" x="63.623047"/>
       <use xlink:href="#DejaVuSans-30" x="95.410156"/>
       <use xlink:href="#DejaVuSans-30" x="159.033203"/>
      </g>
     </g>
    </g>
    <g id="xtick_6">
     <g id="line2d_11">
      <path d="M 323.576705 329.2 
L 323.576705 27.8 
" clip-path="url(#p85fdcd9f4f)" style="fill: none; stroke: #808080; stroke-width: 0.8; stroke-linecap: square"/>
     </g>
     <g id="line2d_12">
      <g>
       <use xlink:href="#m2ed128b696" x="323.576705" y="329.2" style="stroke: #000000; stroke-width: 0.8"/>
      </g>
     </g>
     <g id="text_6">
      <!-- 0.25 -->
      <g transform="translate(310.21733 345.318125) scale(0.12 -0.12)">
       <use xlink:href="#DejaVuSans-30"/>
       <use xlink:href="#DejaVuSans-2e" x="63.623047"/>
       <use xlink:href="#DejaVuSans-32" x="95.410156"/>
       <use xlink:href="#DejaVuSans-35" x="159.033203"/>
      </g>
     </g>
    </g>
    <g id="xtick_7">
     <g id="line2d_13">
      <path d="M 373.465909 329.2 
L 373.465909 27.8 
" clip-path="url(#p85fdcd9f4f)" style="fill: none; stroke: #808080; stroke-width: 0.8; stroke-linecap: square"/>
     </g>
     <g id="line2d_14">
      <g>
       <use xlink:href="#m2ed128b696" x="373.465909" y="329.2" style="stroke: #000000; stroke-width: 0.8"/>
      </g>
     </g>
     <g id="text_7">
      <!-- 0.50 -->
      <g transform="translate(360.106534 345.318125) scale(0.12 -0.12)">
       <use xlink:href="#DejaVuSans-30"/>
       <use xlink:href="#DejaVuSans-2e" x="63.623047"/>
       <use xlink:href="#DejaVuSans-35" x="95.410156"/>
       <use xlink:href="#DejaVuSans-30" x="159.033203"/>
      </g>
     </g>
    </g>
    <g id="xtick_8">
     <g id="line2d_15">
      <path d="M 423.355114 329.2 
L 423.355114 27.8 
" clip-path="url(#p85fdcd9f4f)" style="fill: none; stroke: #808080; stroke-width: 0.8; stroke-linecap: square"/>
     </g>
     <g id="line2d_16">
      <g>
       <use xlink:href="#m2ed128b696" x="423.355114" y="329.2" style="stroke: #000000; stroke-width: 0.8"/>
      </g>
     </g>
     <g id="text_8">
      <!-- 0.75 -->
      <g transform="translate(409.995739 345.318125) scale(0.12 -0.12)">
       <use xlink:href="#DejaVuSans-30"/>
       <use xlink:href="#DejaVuSans-2e" x="63.623047"/>
       <use xlink:href="#DejaVuSans-37" x="95.410156"/>
       <use xlink:href="#DejaVuSans-35" x="159.033203"/>
      </g>
     </g>
    </g>
    <g id="xtick_9">
     <g id="line2d_17">
      <path d="M 473.244318 329.2 
L 473.244318 27.8 
" clip-path="url(#p85fdcd9f4f)" style="fill: none; stroke: #808080; stroke-width: 0.8; stroke-linecap: square"/>
     </g>
     <g id="line2d_18">
      <g>
       <use xlink:href="#m2ed128b696" x="473.244318" y="329.2" style="stroke: #000000; stroke-width: 0.8"/>
      </g>
     </g>
     <g id="text_9">
      <!-- 1.00 -->
      <g transform="translate(459.884943 345.318125) scale(0.12 -0.12)">
       <use xlink:href="#DejaVuSans-31"/>
       <use xlink:href="#DejaVuSans-2e" x="63.623047"/>
       <use xlink:href="#DejaVuSans-30" x="95.410156"/>
       <use xlink:href="#DejaVuSans-30" x="159.033203"/>
      </g>
     </g>
    </g>
   </g>
   <g id="matplotlib.axis_2">
    <g id="ytick_1">
     <g id="line2d_19">
      <path d="M 54.175 315.5 
L 493.2 315.5 
" clip-path="url(#p85fdcd9f4f)" style="fill: none; stroke: #808080; stroke-width: 0.8; stroke-linecap: square"/>
     </g>
     <g id="line2d_20">
      <defs>
       <path id="m383aacd755" d="M 0 0 
L -3.5 0 
" style="stroke: #000000; stroke-width: 0.8"/>
      </defs>
      <g>
       <use xlink:href="#m383aacd755" x="54.175" y="315.5" style="stroke: #000000; stroke-width: 0.8"/>
      </g>
     </g>
     <g id="text_10">
      <!-- −1.00 -->
      <g transform="translate(10.400625 320.059062) scale(0.12 -0.12)">
       <use xlink:href="#DejaVuSans-2212"/>
       <use xlink:href="#DejaVuSans-31" x="83.789062"/>
       <use xlink:href="#DejaVuSans-2e" x="147.412109"/>
       <use xlink:href="#DejaVuSans-30" x="179.199219"/>
       <use xlink:href="#DejaVuSans-30" x="242.822266"/>
      </g>
     </g>
    </g>
    <g id="ytick_2">
     <g id="line2d_21">
      <path d="M 54.175 281.25 
L 493.2 281.25 
" clip-path="url(#p85fdcd9f4f)" style="fill: none; stroke: #808080; stroke-width: 0.8; stroke-linecap: square"/>
     </g>
     <g id="line2d_22">
      <g>
       <use xlink:href="#m383aacd755" x="54.175" y="281.25" style="stroke: #000000; stroke-width: 0.8"/>
      </g>
     </g>
     <g id="text_11">
      <!-- −0.75 -->
      <g transform="translate(10.400625 285.809062) scale(0.12 -0.12)">
       <use xlink:href="#DejaVuSans-2212"/>
       <use xlink:href="#DejaVuSans-30" x="83.789062"/>
       <use xlink:href="#DejaVuSans-2e" x="147.412109"/>
       <use xlink:href="#DejaVuSans-37" x="179.199219"/>
       <use xlink:href="#DejaVuSans-35" x="242.822266"/>
      </g>
     </g>
    </g>
    <g id="ytick_3">
     <g id="line2d_23">
      <path d="M 54.175 247 
L 493.2 247 
" clip-path="url(#p85fdcd9f4f)" style="fill: none; stroke: #808080; stroke-width: 0.8; stroke-linecap: square"/>
     </g>
     <g id="line2d_24">
      <g>
       <use xlink:href="#m383aacd755" x="54.175" y="247" style="stroke: #000000; stroke-width: 0.8"/>
      </g>
     </g>
     <g id="text_12">
      <!-- −0.50 -->
      <g transform="translate(10.400625 251.559062) scale(0.12 -0.12)">
       <use xlink:href="#DejaVuSans-2212"/>
       <use xlink:href="#DejaVuSans-30" x="83.789062"/>
       <use xlink:href="#DejaVuSans-2e" x="147.412109"/>
       <use xlink:href="#DejaVuSans-35" x="179.199219"/>
       <use xlink:href="#DejaVuSans-30" x="242.822266"/>
      </g>
     </g>
    </g>
    <g id="ytick_4">
     <g id="line2d_25">
      <path d="M 54.175 212.75 
L 493.2 212.75 
" clip-path="url(#p85fdcd9f4f)" style="fill: none; stroke: #808080; stroke-width: 0.8; stroke-linecap: square"/>
     </g>
     <g id="line2d_26">
      <g>
       <use xlink:href="#m383aacd755" x="54.175" y="212.75" style="stroke: #000000; stroke-width: 0.8"/>
      </g>
     </g>
     <g id="text_13">
      <!-- −0.25 -->
      <g transform="translate(10.400625 217.309063) scale(0.12 -0.12)">
       <use xlink:href="#DejaVuSans-2212"/>
       <use xlink:href="#DejaVuSans-30" x="83.789062"/>
       <use xlink:href="#DejaVuSans-2e" x="147.412109"/>
       <use xlink:href="#DejaVuSans-32" x="179.199219"/>
       <use xlink:href="#DejaVuSans-35" x="242.822266"/>
      </g>
     </g>
    </g>
    <g id="ytick_5">
     <g id="line2d_27">
      <path d="M 54.175 178.5 
L 493.2 178.5 
" clip-path="url(#p85fdcd9f4f)" style="fill: none; stroke: #808080; stroke-width: 0.8; stroke-linecap: square"/>
     </g>
     <g id="line2d_28">
      <g>
       <use xlink:href="#m383aacd755" x="54.175" y="178.5" style="stroke: #000000; stroke-width: 0.8"/>
      </g>
     </g>
     <g id="text_14">
      <!-- 0.00 -->
      <g transform="translate(20.45625 183.059063) scale(0.12 -0.12)">
       <use xlink:href="#DejaVuSans-30"/>
       <use xlink:href="#DejaVuSans-2e" x="63.623047"/>
       <use xlink:href="#DejaVuSans-30" x="95.410156"/>
       <use xlink:href="#DejaVuSans-30" x="159.033203"/>
      </g>
     </g>
    </g>
    <g id="ytick_6">
     <g id="line2d_29">
      <path d="M 54.175 144.25 
L 493.2 144.25 
" clip-path="url(#p85fdcd9f4f)" style="fill: none; stroke: #808080; stroke-width: 0.8; stroke-linecap: square"/>
     </g>
     <g id="line2d_30">
      <g>
       <use xlink:href="#m383aacd755" x="54.175" y="144.25" style="stroke: #000000; stroke-width: 0.8"/>
      </g>
     </g>
     <g id="text_15">
      <!-- 0.25 -->
      <g transform="translate(20.45625 148.809063) scale(0.12 -0.12)">
       <use xlink:href="#DejaVuSans-30"/>
       <use xlink:href="#DejaVuSans-2e" x="63.623047"/>
       <use xlink:href="#DejaVuSans-32" x="95.410156"/>
       <use xlink:href="#DejaVuSans-35" x="159.033203"/>
      </g>
     </g>
    </g>
    <g id="ytick_7">
     <g id="line2d_31">
      <path d="M 54.175 110 
L 493.2 110 
" clip-path="url(#p85fdcd9f4f)" style="fill: none; stroke: #808080; stroke-width: 0.8; stroke-linecap: square"/>
     </g>
     <g id="line2d_32">
      <g>
       <use xlink:href="#m383aacd755" x="54.175" y="110" style="stroke: #000000; stroke-width: 0.8"/>
      </g>
     </g>
     <g id="text_16">
      <!-- 0.50 -->
      <g transform="translate(20.45625 114.559063) scale(0.12 -0.12)">
       <use xlink:href="#DejaVuSans-30"/>
       <use xlink:href="#DejaVuSans-2e" x="63.623047"/>
       <use xlink:href="#DejaVuSans-35" x="95.410156"/>
       <use xlink:href="#DejaVuSans-30" x="159.033203"/>
      </g>
     </g>
    </g>
    <g id="ytick_8">
     <g id="line2d_33">
      <path d="M 54.175 75.75 
L 493.2 75.75 
" clip-path="url(#p85fdcd9f4f)" style="fill: none; stroke: #808080; stroke-width: 0.8; stroke-linecap: square"/>
     </g>
     <g id="line2d_34">
      <g>
       <use xlink:href="#m383aacd755" x="54.175" y="75.75" style="stroke: #000000; stroke-width: 0.8"/>
      </g>
     </g>
     <g id="text_17">
      <!-- 0.75 -->
      <g transform="translate(20.45625 80.309062) scale(0.12 -0.12)">
       <use xlink:href="#DejaVuSans-30"/>
       <use xlink:href="#DejaVuSans-2e" x="63.623047"/>
       <use xlink:href="#DejaVuSans-37" x="95.410156"/>
       <use xlink:href="#DejaVuSans-35" x="159.033203"/>
      </g>
     </g>
    </g>
    <g id="ytick_9">
     <g id="line2d_35">
      <path d="M 54.175 41.5 
L 493.2 41.5 
" clip-path="url(#p85fdcd9f4f)" style="fill: none; stroke: #808080; stroke-width: 0.8; stroke-linecap: square"/>
     </g>
     <g id="line2d_36">
      <g>
       <use xlink:href="#m383aacd755" x="54.175" y="41.5" style="stroke: #000000; stroke-width: 0.8"/>
      </g>
     </g>
     <g id="text_18">
      <!-- 1.00 -->
      <g transform="translate(20.45625 46.059062) scale(0.12 -0.12)">
       <use xlink:href="#DejaVuSans-31"/>
       <use xlink:href="#DejaVuSans-2e" x="63.623047"/>
       <use xlink:href="#DejaVuSans-30" x="95.410156"/>
       <use xlink:href="#DejaVuSans-30" x="159.033203"/>
      </g>
     </g>
    </g>
   </g>
   <g id="line2d_37">
    <path d="M 74.130682 315.5 
L 78.162133 312.732323 
L 82.193584 309.964646 
L 86.225034 307.19697 
L 90.256485 304.429293 
L 94.287936 301.661616 
L 98.319387 298.893939 
L 102.350838 296.126263 
L 106.382289 293.358586 
L 110.41374 290.590909 
L 114.445191 287.823232 
L 118.476641 285.055556 
L 122.508092 282.287879 
L 126.539543 279.520202 
L 130.570994 276.752525 
L 134.602445 273.984848 
L 138.633896 271.217172 
L 142.665347 268.449495 
L 146.696798 265.681818 
L 150.728248 262.914141 
L 154.759699 260.146465 
L 158.79115 257.378788 
L 162.822601 254.611111 
L 166.854052 251.843434 
L 170.885503 249.075758 
L 174.916954 246.308081 
L 178.948404 243.540404 
L 182.979855 240.772727 
L 187.011306 238.005051 
L 191.042757 235.237374 
L 195.074208 232.469697 
L 199.105659 229.70202 
L 203.13711 226.934343 
L 207.168561 224.166667 
L 211.200011 221.39899 
L 215.231462 218.631313 
L 219.262913 215.863636 
L 223.294364 213.09596 
L 227.325815 210.328283 
L 231.357266 207.560606 
L 235.388717 204.792929 
L 239.420168 202.025253 
L 243.451618 199.257576 
L 247.483069 196.489899 
L 251.51452 193.722222 
L 255.545971 190.954545 
L 259.577422 188.186869 
L 263.608873 185.419192 
L 267.640324 182.651515 
L 271.671775 179.883838 
L 275.703225 177.116162 
L 279.734676 174.348485 
L 283.766127 171.580808 
L 287.797578 168.813131 
L 291.829029 166.045455 
L 295.86048 163.277778 
L 299.891931 160.510101 
L 303.923382 157.742424 
L 307.954832 154.974747 
L 311.986283 152.207071 
L 316.017734 149.439394 
L 320.049185 146.671717 
L 324.080636 143.90404 
L 328.112087 141.136364 
L 332.143538 138.368687 
L 336.174989 135.60101 
L 340.206439 132.833333 
L 344.23789 130.065657 
L 348.269341 127.29798 
L 352.300792 124.530303 
L 356.332243 121.762626 
L 360.363694 118.994949 
L 364.395145 116.227273 
L 368.426596 113.459596 
L 372.458046 110.691919 
L 376.489497 107.924242 
L 380.520948 105.156566 
L 384.552399 102.388889 
L 388.58385 99.621212 
L 392.615301 96.853535 
L 396.646752 94.085859 
L 400.678202 91.318182 
L 404.709653 88.550505 
L 408.741104 85.782828 
L 412.772555 83.015152 
L 416.804006 80.247475 
L 420.835457 77.479798 
L 424.866908 74.712121 
L 428.898359 71.944444 
L 432.929809 69.176768 
L 436.96126 66.409091 
L 440.992711 63.641414 
L 445.024162 60.873737 
L 449.055613 58.106061 
L 453.087064 55.338384 
L 457.118515 52.570707 
L 461.149966 49.80303 
L 465.181416 47.035354 
L 469.212867 44.267677 
L 473.244318 41.5 
" clip-path="url(#p85fdcd9f4f)" style="fill: none; stroke: #ff0000; stroke-width: 2; stroke-linecap: square"/>
   </g>
   <g id="line2d_38">
    <path d="M 74.130682 41.5 
L 78.162133 46.979441 
L 82.193584 52.347056 
L 86.225034 57.602847 
L 90.256485 62.746812 
L 94.287936 67.778951 
L 98.319387 72.699265 
L 102.350838 77.507754 
L 106.382289 82.204418 
L 110.41374 86.789256 
L 114.445191 91.262269 
L 118.476641 95.623457 
L 122.508092 99.872819 
L 126.539543 104.010356 
L 130.570994 108.036068 
L 134.602445 111.949954 
L 138.633896 115.752015 
L 142.665347 119.442251 
L 146.696798 123.020661 
L 150.728248 126.487246 
L 154.759699 129.842006 
L 158.79115 133.08494 
L 162.822601 136.216049 
L 166.854052 139.235333 
L 170.885503 142.142792 
L 174.916954 144.938425 
L 178.948404 147.622232 
L 182.979855 150.194215 
L 187.011306 152.654372 
L 191.042757 155.002704 
L 195.074208 157.23921 
L 199.105659 159.363891 
L 203.13711 161.376747 
L 207.168561 163.277778 
L 211.200011 165.066983 
L 215.231462 166.744363 
L 219.262913 168.309917 
L 223.294364 169.763647 
L 227.325815 171.10555 
L 231.357266 172.335629 
L 235.388717 173.453882 
L 239.420168 174.46031 
L 243.451618 175.354913 
L 247.483069 176.13769 
L 251.51452 176.808642 
L 255.545971 177.367769 
L 259.577422 177.81507 
L 263.608873 178.150546 
L 267.640324 178.374197 
L 271.671775 178.486022 
L 275.703225 178.486022 
L 279.734676 178.374197 
L 283.766127 178.150546 
L 287.797578 177.81507 
L 291.829029 177.367769 
L 295.86048 176.808642 
L 299.891931 176.13769 
L 303.923382 175.354913 
L 307.954832 174.46031 
L 311.986283 173.453882 
L 316.017734 172.335629 
L 320.049185 171.10555 
L 324.080636 169.763647 
L 328.112087 168.309917 
L 332.143538 166.744363 
L 336.174989 165.066983 
L 340.206439 163.277778 
L 344.23789 161.376747 
L 348.269341 159.363891 
L 352.300792 157.23921 
L 356.332243 155.002704 
L 360.363694 152.654372 
L 364.395145 150.194215 
L 368.426596 147.622232 
L 372.458046 144.938425 
L 376.489497 142.142792 
L 380.520948 139.235333 
L 384.552399 136.216049 
L 388.58385 133.08494 
L 392.615301 129.842006 
L 396.646752 126.487246 
L 400.678202 123.020661 
L 404.709653 119.442251 
L 408.741104 115.752015 
L 412.772555 111.949954 
L 416.804006 108.036068 
L 420.835457 104.010356 
L 424.866908 99.872819 
L 428.898359 95.623457 
L 432.929809 91.262269 
L 436.96126 86.789256 
L 440.992711 82.204418 
L 445.024162 77.507754 
L 449.055613 72.699265 
L 453.087064 67.778951 
L 457.118515 62.746812 
L 461.149966 57.602847 
L 465.181416 52.347056 
L 469.212867 46.979441 
L 473.244318 41.5 
" clip-path="url(#p85fdcd9f4f)" style="fill: none; stroke: #0000ff; stroke-width: 2; stroke-linecap: square"/>
   </g>
   <g id="line2d_39">
    <path d="M 74.130682 315.5 
L 78.162133 307.363578 
L 82.193584 299.555855 
L 86.225034 292.070053 
L 90.256485 284.899395 
L 94.287936 278.037105 
L 98.319387 271.476403 
L 102.350838 265.210514 
L 106.382289 259.23266 
L 110.41374 253.536063 
L 114.445191 248.113947 
L 118.476641 242.959534 
L 122.508092 238.066046 
L 126.539543 233.426707 
L 130.570994 229.034739 
L 134.602445 224.883365 
L 138.633896 220.965808 
L 142.665347 217.27529 
L 146.696798 213.805034 
L 150.728248 210.548262 
L 154.759699 207.498198 
L 158.79115 204.648065 
L 162.822601 201.991084 
L 166.854052 199.520478 
L 170.885503 197.229471 
L 174.916954 195.111285 
L 178.948404 193.159142 
L 182.979855 191.366266 
L 187.011306 189.725879 
L 191.042757 188.231203 
L 195.074208 186.875463 
L 199.105659 185.651879 
L 203.13711 184.553675 
L 207.168561 183.574074 
L 211.200011 182.706298 
L 215.231462 181.94357 
L 219.262913 181.279113 
L 223.294364 180.70615 
L 227.325815 180.217902 
L 231.357266 179.807594 
L 235.388717 179.468447 
L 239.420168 179.193684 
L 243.451618 178.976528 
L 247.483069 178.810202 
L 251.51452 178.687929 
L 255.545971 178.60293 
L 259.577422 178.548429 
L 263.608873 178.517649 
L 267.640324 178.503812 
L 271.671775 178.500141 
L 275.703225 178.499859 
L 279.734676 178.496188 
L 283.766127 178.482351 
L 287.797578 178.451571 
L 291.829029 178.39707 
L 295.86048 178.312071 
L 299.891931 178.189798 
L 303.923382 178.023472 
L 307.954832 177.806316 
L 311.986283 177.531553 
L 316.017734 177.192406 
L 320.049185 176.782098 
L 324.080636 176.29385 
L 328.112087 175.720887 
L 332.143538 175.05643 
L 336.174989 174.293702 
L 340.206439 173.425926 
L 344.23789 172.446325 
L 348.269341 171.348121 
L 352.300792 170.124537 
L 356.332243 168.768797 
L 360.363694 167.274121 
L 364.395145 165.633734 
L 368.426596 163.840858 
L 372.458046 161.888715 
L 376.489497 159.770529 
L 380.520948 157.479522 
L 384.552399 155.008916 
L 388.58385 152.351935 
L 392.615301 149.501802 
L 396.646752 146.451738 
L 400.678202 143.194966 
L 404.709653 139.72471 
L 408.741104 136.034192 
L 412.772555 132.116635 
L 416.804006 127.965261 
L 420.835457 123.573293 
L 424.866908 118.933954 
L 428.898359 114.040466 
L 432.929809 108.886053 
L 436.96126 103.463937 
L 440.992711 97.76734 
L 445.024162 91.789486 
L 449.055613 85.523597 
L 453.087064 78.962895 
L 457.118515 72.100605 
L 461.149966 64.929947 
L 465.181416 57.444145 
L 469.212867 49.636422 
L 473.244318 41.5 
" clip-path="url(#p85fdcd9f4f)" style="fill: none; stroke: #008000; stroke-width: 2; stroke-linecap: square"/>
   </g>
   <g id="line2d_40">
    <path d="M 74.130682 41.5 
L 78.162133 52.239726 
L 82.193584 62.335291 
L 86.225034 71.81298 
L 90.256485 80.698536 
L 94.287936 89.017148 
L 98.319387 96.793464 
L 102.350838 104.051579 
L 106.382289 110.815043 
L 110.41374 117.106857 
L 114.445191 122.949477 
L 118.476641 128.364807 
L 122.508092 133.374207 
L 126.539543 137.998489 
L 130.570994 142.257914 
L 134.602445 146.1722 
L 138.633896 149.760514 
L 142.665347 153.041476 
L 146.696798 156.03316 
L 150.728248 158.753091 
L 154.759699 161.218245 
L 158.79115 163.445054 
L 162.822601 165.449398 
L 166.854052 167.246613 
L 170.885503 168.851485 
L 174.916954 170.278253 
L 178.948404 171.540609 
L 182.979855 172.651697 
L 187.011306 173.624113 
L 191.042757 174.469906 
L 195.074208 175.200575 
L 199.105659 175.827076 
L 203.13711 176.359812 
L 207.168561 176.808642 
L 211.200011 177.182876 
L 215.231462 177.491277 
L 219.262913 177.74206 
L 223.294364 177.942891 
L 227.325815 178.100891 
L 231.357266 178.222632 
L 235.388717 178.314136 
L 239.420168 178.380883 
L 243.451618 178.427799 
L 247.483069 178.459266 
L 251.51452 178.479119 
L 255.545971 178.490643 
L 259.577422 178.496576 
L 263.608873 178.499109 
L 267.640324 178.499884 
L 271.671775 178.499999 
L 275.703225 178.499999 
L 279.734676 178.499884 
L 283.766127 178.499109 
L 287.797578 178.496576 
L 291.829029 178.490643 
L 295.86048 178.479119 
L 299.891931 178.459266 
L 303.923382 178.427799 
L 307.954832 178.380883 
L 311.986283 178.314136 
L 316.017734 178.222632 
L 320.049185 178.100891 
L 324.080636 177.942891 
L 328.112087 177.74206 
L 332.143538 177.491277 
L 336.174989 177.182876 
L 340.206439 176.808642 
L 344.23789 176.359812 
L 348.269341 175.827076 
L 352.300792 175.200575 
L 356.332243 174.469906 
L 360.363694 173.624113 
L 364.395145 172.651697 
L 368.426596 171.540609 
L 372.458046 170.278253 
L 376.489497 168.851485 
L 380.520948 167.246613 
L 384.552399 165.449398 
L 388.58385 163.445054 
L 392.615301 161.218245 
L 396.646752 158.753091 
L 400.678202 156.03316 
L 404.709653 153.041476 
L 408.741104 149.760514 
L 412.772555 146.1722 
L 416.804006 142.257914 
L 420.835457 137.998489 
L 424.866908 133.374207 
L 428.898359 128.364807 
L 432.929809 122.949477 
L 436.96126 117.106857 
L 440.992711 110.815043 
L 445.024162 104.051579 
L 449.055613 96.793464 
L 453.087064 89.017148 
L 457.118515 80.698536 
L 461.149966 71.81298 
L 465.181416 62.335291 
L 469.212867 52.239726 
L 473.244318 41.5 
" clip-path="url(#p85fdcd9f4f)" style="fill: none; stroke: #00bfbf; stroke-width: 2; stroke-linecap: square"/>
   </g>
   <g id="patch_3">
    <path d="M 54.175 329.2 
L 54.175 27.8 
" style="fill: none; stroke: #000000; stroke-width: 0.8; stroke-linejoin: miter; stroke-linecap: square"/>
   </g>
   <g id="patch_4">
    <path d="M 493.2 329.2 
L 493.2 27.8 
" style="fill: none; stroke: #000000; stroke-width: 0.8; stroke-linejoin: miter; stroke-linecap: square"/>
   </g>
   <g id="patch_5">
    <path d="M 54.175 329.2 
L 493.2 329.2 
" style="fill: none; stroke: #000000; stroke-width: 0.8; stroke-linejoin: miter; stroke-linecap: square"/>
   </g>
   <g id="patch_6">
    <path d="M 54.175 27.8 
L 493.2 27.8 
" style="fill: none; stroke: #000000; stroke-width: 0.8; stroke-linejoin: miter; stroke-linecap: square"/>
   </g>
   <g id="text_19">
    <!-- Powers of $x$ -->
    <g transform="translate(239.0075 21.8) scale(0.12 -0.12)">
     <defs>
      <path id="DejaVuSans-50" d="M 1259 4147 
L 1259 2394 
L 2053 2394 
Q 2494 2394 2734 2622 
Q 2975 2850 2975 3272 
Q 2975 3691 2734 3919 
Q 2494 4147 2053 4147 
L 1259 4147 
z
M 628 4666 
L 2053 4666 
Q 2838 4666 3239 4311 
Q 3641 3956 3641 3272 
Q 3641 2581 3239 2228 
Q 2838 1875 2053 1875 
L 1259 1875 
L 1259 0 
L 628 0 
L 628 4666 
z
" transform="scale(0.015625)"/>
      <path id="DejaVuSans-6f" d="M 1959 3097 
Q 1497 3097 1228 2736 
Q 959 2375 959 1747 
Q 959 1119 1226 758 
Q 1494 397 1959 397 
Q 2419 397 2687 759 
Q 2956 1122 2956 1747 
Q 2956 2369 2687 2733 
Q 2419 3097 1959 3097 
z
M 1959 3584 
Q 2709 3584 3137 3096 
Q 3566 2609 3566 1747 
Q 3566 888 3137 398 
Q 2709 -91 1959 -91 
Q 1206 -91 779 398 
Q 353 888 353 1747 
Q 353 2609 779 3096 
Q 1206 3584 1959 3584 
z
" transform="scale(0.015625)"/>
      <path id="DejaVuSans-77" d="M 269 3500 
L 844 3500 
L 1563 769 
L 2278 3500 
L 2956 3500 
L 3675 769 
L 4391 3500 
L 4966 3500 
L 4050 0 
L 3372 0 
L 2619 2869 
L 1863 0 
L 1184 0 
L 269 3500 
z
" transform="scale(0.015625)"/>
      <path id="DejaVuSans-65" d="M 3597 1894 
L 3597 1613 
L 953 1613 
Q 991 1019 1311 708 
Q 1631 397 2203 397 
Q 2534 397 2845 478 
Q 3156 559 3463 722 
L 3463 178 
Q 3153 47 2828 -22 
Q 2503 -91 2169 -91 
Q 1331 -91 842 396 
Q 353 884 353 1716 
Q 353 2575 817 3079 
Q 1281 3584 2069 3584 
Q 2775 3584 3186 3129 
Q 3597 2675 3597 1894 
z
M 3022 2063 
Q 3016 2534 2758 2815 
Q 2500 3097 2075 3097 
Q 1594 3097 1305 2825 
Q 1016 2553 972 2059 
L 3022 2063 
z
" transform="scale(0.015625)"/>
      <path id="DejaVuSans-72" d="M 2631 2963 
Q 2534 3019 2420 3045 
Q 2306 3072 2169 3072 
Q 1681 3072 1420 2755 
Q 1159 2438 1159 1844 
L 1159 0 
L 581 0 
L 581 3500 
L 1159 3500 
L 1159 2956 
Q 1341 3275 1631 3429 
Q 1922 3584 2338 3584 
Q 2397 3584 2469 3576 
Q 2541 3569 2628 3553 
L 2631 2963 
z
" transform="scale(0.015625)"/>
      <path id="DejaVuSans-73" d="M 2834 3397 
L 2834 2853 
Q 2591 2978 2328 3040 
Q 2066 3103 1784 3103 
Q 1356 3103 1142 2972 
Q 928 2841 928 2578 
Q 928 2378 1081 2264 
Q 1234 2150 1697 2047 
L 1894 2003 
Q 2506 1872 2764 1633 
Q 3022 1394 3022 966 
Q 3022 478 2636 193 
Q 2250 -91 1575 -91 
Q 1294 -91 989 -36 
Q 684 19 347 128 
L 347 722 
Q 666 556 975 473 
Q 1284 391 1588 391 
Q 1994 391 2212 530 
Q 2431 669 2431 922 
Q 2431 1156 2273 1281 
Q 2116 1406 1581 1522 
L 1381 1569 
Q 847 1681 609 1914 
Q 372 2147 372 2553 
Q 372 3047 722 3315 
Q 1072 3584 1716 3584 
Q 2034 3584 2315 3537 
Q 2597 3491 2834 3397 
z
" transform="scale(0.015625)"/>
      <path id="DejaVuSans-20" transform="scale(0.015625)"/>
      <path id="DejaVuSans-66" d="M 2375 4863 
L 2375 4384 
L 1825 4384 
Q 1516 4384 1395 4259 
Q 1275 4134 1275 3809 
L 1275 3500 
L 2222 3500 
L 2222 3053 
L 1275 3053 
L 1275 0 
L 697 0 
L 697 3053 
L 147 3053 
L 147 3500 
L 697 3500 
L 697 3744 
Q 697 4328 969 4595 
Q 1241 4863 1831 4863 
L 2375 4863 
z
" transform="scale(0.015625)"/>
      <path id="DejaVuSans-Oblique-78" d="M 3841 3500 
L 2234 1784 
L 3219 0 
L 2559 0 
L 1819 1388 
L 531 0 
L -166 0 
L 1556 1844 
L 641 3500 
L 1300 3500 
L 1972 2234 
L 3144 3500 
L 3841 3500 
z
" transform="scale(0.015625)"/>
     </defs>
     <use xlink:href="#DejaVuSans-50" transform="translate(0 0.015625)"/>
     <use xlink:href="#DejaVuSans-6f" transform="translate(60.302734 0.015625)"/>
     <use xlink:href="#DejaVuSans-77" transform="translate(121.484375 0.015625)"/>
     <use xlink:href="#DejaVuSans-65" transform="translate(203.271484 0.015625)"/>
     <use xlink:href="#DejaVuSans-72" transform="translate(264.794922 0.015625)"/>
     <use xlink:href="#DejaVuSans-73" transform="translate(305.908203 0.015625)"/>
     <use xlink:href="#DejaVuSans-20" transform="translate(358.007812 0.015625)"/>
     <use xlink:href="#DejaVuSans-6f" transform="translate(389.794922 0.015625)"/>
     <use xlink:href="#DejaVuSans-66" transform="translate(450.976562 0.015625)"/>
     <use xlink:href="#DejaVuSans-20" transform="translate(486.181641 0.015625)"/>
     <use xlink:href="#DejaVuSans-Oblique-78" transform="translate(517.96875 0.015625)"/>
    </g>
   </g>
   <g id="legend_1">
    <g id="patch_7">
     <path d="M 439.04 324.2 
L 486.2 324.2 
Q 488.2 324.2 488.2 322.2 
L 488.2 270.361875 
Q 488.2 268.361875 486.2 268.361875 
L 439.04 268.361875 
Q 437.04 268.361875 437.04 270.361875 
L 437.04 322.2 
Q 437.04 324.2 439.04 324.2 
z
" style="fill: #ffffff; opacity: 0.8; stroke: #cccccc; stroke-linejoin: miter"/>
    </g>
    <g id="line2d_41">
     <path d="M 439.04 275.98 
L 444.04 275.98 
L 449.04 275.98 
" style="fill: none; stroke: #ff0000; stroke-width: 2; stroke-linecap: square"/>
    </g>
    <g id="text_20">
     <!-- $y=x$ -->
     <g transform="translate(451.04 279.48) scale(0.12 -0.12)">
      <defs>
       <path id="DejaVuSans-Oblique-79" d="M 1588 -325 
Q 1188 -997 936 -1164 
Q 684 -1331 294 -1331 
L -159 -1331 
L -63 -850 
L 269 -850 
Q 509 -850 678 -719 
Q 847 -588 1056 -206 
L 1234 128 
L 459 3500 
L 1069 3500 
L 1650 819 
L 3256 3500 
L 3859 3500 
L 1588 -325 
z
" transform="scale(0.015625)"/>
       <path id="DejaVuSans-3d" d="M 678 2906 
L 4684 2906 
L 4684 2381 
L 678 2381 
L 678 2906 
z
M 678 1631 
L 4684 1631 
L 4684 1100 
L 678 1100 
L 678 1631 
z
" transform="scale(0.015625)"/>
      </defs>
      <use xlink:href="#DejaVuSans-Oblique-79" transform="translate(0 0.3125)"/>
      <use xlink:href="#DejaVuSans-3d" transform="translate(78.662109 0.3125)"/>
      <use xlink:href="#DejaVuSans-Oblique-78" transform="translate(181.933594 0.3125)"/>
     </g>
    </g>
    <g id="line2d_42">
     <path d="M 439.04 289.42 
L 444.04 289.42 
L 449.04 289.42 
" style="fill: none; stroke: #0000ff; stroke-width: 2; stroke-linecap: square"/>
    </g>
    <g id="text_21">
     <!-- $y=x^2$ -->
     <g transform="translate(451.04 292.92) scale(0.12 -0.12)">
      <use xlink:href="#DejaVuSans-Oblique-79" transform="translate(0 0.765625)"/>
      <use xlink:href="#DejaVuSans-3d" transform="translate(78.662109 0.765625)"/>
      <use xlink:href="#DejaVuSans-Oblique-78" transform="translate(181.933594 0.765625)"/>
      <use xlink:href="#DejaVuSans-32" transform="translate(245.579427 39.046875) scale(0.7)"/>
     </g>
    </g>
    <g id="line2d_43">
     <path d="M 439.04 302.86 
L 444.04 302.86 
L 449.04 302.86 
" style="fill: none; stroke: #008000; stroke-width: 2; stroke-linecap: square"/>
    </g>
    <g id="text_22">
     <!-- $y=x^3$ -->
     <g transform="translate(451.04 306.36) scale(0.12 -0.12)">
      <defs>
       <path id="DejaVuSans-33" d="M 2597 2516 
Q 3050 2419 3304 2112 
Q 3559 1806 3559 1356 
Q 3559 666 3084 287 
Q 2609 -91 1734 -91 
Q 1441 -91 1130 -33 
Q 819 25 488 141 
L 488 750 
Q 750 597 1062 519 
Q 1375 441 1716 441 
Q 2309 441 2620 675 
Q 2931 909 2931 1356 
Q 2931 1769 2642 2001 
Q 2353 2234 1838 2234 
L 1294 2234 
L 1294 2753 
L 1863 2753 
Q 2328 2753 2575 2939 
Q 2822 3125 2822 3475 
Q 2822 3834 2567 4026 
Q 2313 4219 1838 4219 
Q 1578 4219 1281 4162 
Q 984 4106 628 3988 
L 628 4550 
Q 988 4650 1302 4700 
Q 1616 4750 1894 4750 
Q 2613 4750 3031 4423 
Q 3450 4097 3450 3541 
Q 3450 3153 3228 2886 
Q 3006 2619 2597 2516 
z
" transform="scale(0.015625)"/>
      </defs>
      <use xlink:href="#DejaVuSans-Oblique-79" transform="translate(0 0.765625)"/>
      <use xlink:href="#DejaVuSans-3d" transform="translate(78.662109 0.765625)"/>
      <use xlink:href="#DejaVuSans-Oblique-78" transform="translate(181.933594 0.765625)"/>
      <use xlink:href="#DejaVuSans-33" transform="translate(245.579427 39.046875) scale(0.7)"/>
     </g>
    </g>
    <g id="line2d_44">
     <path d="M 439.04 316.18 
L 444.04 316.18 
L 449.04 316.18 
" style="fill: none; stroke: #00bfbf; stroke-width: 2; stroke-linecap: square"/>
    </g>
    <g id="text_23">
     <!-- $y=x^4$ -->
     <g transform="translate(451.04 319.68) scale(0.12 -0.12)">
      <defs>
       <path id="DejaVuSans-34" d="M 2419 4116 
L 825 1625 
L 2419 1625 
L 2419 4116 
z
M 2253 4666 
L 3047 4666 
L 3047 1625 
L 3713 1625 
L 3713 1100 
L 3047 1100 
L 3047 0 
L 2419 0 
L 2419 1100 
L 313 1100 
L 313 1709 
L 2253 4666 
z
" transform="scale(0.015625)"/>
      </defs>
      <use xlink:href="#DejaVuSans-Oblique-79" transform="translate(0 0.684375)"/>
      <use xlink:href="#DejaVuSans-3d" transform="translate(78.662109 0.684375)"/>
      <use xlink:href="#DejaVuSans-Oblique-78" transform="translate(181.933594 0.684375)"/>
      <use xlink:href="#DejaVuSans-34" transform="translate(245.579427 38.965625) scale(0.7)"/>
     </g>
    </g>
   </g>
  </g>
 </g>
 <defs>
  <clipPath id="p85fdcd9f4f">
   <rect x="54.175" y="27.8" width="439.025" height="301.4"/>
  </clipPath>
 </defs>
</svg>
