<?xml version="1.0" encoding="utf-8" standalone="no"?>
<!DOCTYPE svg PUBLIC "-//W3C//DTD SVG 1.1//EN"
  "http://www.w3.org/Graphics/SVG/1.1/DTD/svg11.dtd">
<svg xmlns:xlink="http://www.w3.org/1999/xlink" width="504pt" height="360pt" viewBox="0 0 504 360" xmlns="http://www.w3.org/2000/svg" version="1.1">
 <metadata>
  <rdf:RDF xmlns:dc="http://purl.org/dc/elements/1.1/" xmlns:cc="http://creativecommons.org/ns#" xmlns:rdf="http://www.w3.org/1999/02/22-rdf-syntax-ns#">
   <cc:Work>
    <dc:type rdf:resource="http://purl.org/dc/dcmitype/StillImage"/>
    <dc:date>2025-09-06T12:39:44.355726</dc:date>
    <dc:format>image/svg+xml</dc:format>
    <dc:creator>
     <cc:Agent>
      <dc:title>Matplotlib v3.9.2, https://matplotlib.org/</dc:title>
     </cc:Agent>
    </dc:creator>
   </cc:Work>
  </rdf:RDF>
 </metadata>
 <defs>
  <style type="text/css">*{stroke-linejoin: round; stroke-linecap: butt}</style>
 </defs>
 <g id="figure_1">
  <g id="patch_1">
   <path d="M 0 360 
L 504 360 
L 504 0 
L 0 0 
z
" style="fill: #ffffff"/>
  </g>
  <g id="axes_1">
   <g id="patch_2">
    <path d="M 71.175 312.2 
L 493.2 312.2 
L 493.2 27.8 
L 71.175 27.8 
z
" style="fill: #ffffff"/>
   </g>
   <g id="matplotlib.axis_1">
    <g id="xtick_1">
     <g id="line2d_1">
      <path d="M 90.357955 312.2 
L 90.357955 27.8 
" clip-path="url(#p6f54895251)" style="fill: none; stroke: #808080; stroke-width: 0.8; stroke-linecap: square"/>
     </g>
     <g id="line2d_2">
      <defs>
       <path id="m62a57305ae" d="M 0 0 
L 0 3.5 
" style="stroke: #000000; stroke-width: 0.8"/>
      </defs>
      <g>
       <use xlink:href="#m62a57305ae" x="90.357955" y="312.2" style="stroke: #000000; stroke-width: 0.8"/>
      </g>
     </g>
     <g id="text_1">
      <!-- −1.00 -->
      <g transform="translate(71.970767 328.318125) scale(0.12 -0.12)">
       <defs>
        <path id="DejaVuSans-2212" d="M 678 2272 
L 4684 2272 
L 4684 1741 
L 678 1741 
L 678 2272 
z
" transform="scale(0.015625)"/>
        <path id="DejaVuSans-31" d="M 794 531 
L 1825 531 
L 1825 4091 
L 703 3866 
L 703 4441 
L 1819 4666 
L 2450 4666 
L 2450 531 
L 3481 531 
L 3481 0 
L 794 0 
L 794 531 
z
" transform="scale(0.015625)"/>
        <path id="DejaVuSans-2e" d="M 684 794 
L 1344 794 
L 1344 0 
L 684 0 
L 684 794 
z
" transform="scale(0.015625)"/>
        <path id="DejaVuSans-30" d="M 2034 4250 
Q 1547 4250 1301 3770 
Q 1056 3291 1056 2328 
Q 1056 1369 1301 889 
Q 1547 409 2034 409 
Q 2525 409 2770 889 
Q 3016 1369 3016 2328 
Q 3016 3291 2770 3770 
Q 2525 4250 2034 4250 
z
M 2034 4750 
Q 2819 4750 3233 4129 
Q 3647 3509 3647 2328 
Q 3647 1150 3233 529 
Q 2819 -91 2034 -91 
Q 1250 -91 836 529 
Q 422 1150 422 2328 
Q 422 3509 836 4129 
Q 1250 4750 2034 4750 
z
" transform="scale(0.015625)"/>
       </defs>
       <use xlink:href="#DejaVuSans-2212"/>
       <use xlink:href="#DejaVuSans-31" x="83.789062"/>
       <use xlink:href="#DejaVuSans-2e" x="147.412109"/>
       <use xlink:href="#DejaVuSans-30" x="179.199219"/>
       <use xlink:href="#DejaVuSans-30" x="242.822266"/>
      </g>
     </g>
    </g>
    <g id="xtick_2">
     <g id="line2d_3">
      <path d="M 138.315341 312.2 
L 138.315341 27.8 
" clip-path="url(#p6f54895251)" style="fill: none; stroke: #808080; stroke-width: 0.8; stroke-linecap: square"/>
     </g>
     <g id="line2d_4">
      <g>
       <use xlink:href="#m62a57305ae" x="138.315341" y="312.2" style="stroke: #000000; stroke-width: 0.8"/>
      </g>
     </g>
     <g id="text_2">
      <!-- −0.75 -->
      <g transform="translate(119.928153 328.318125) scale(0.12 -0.12)">
       <defs>
        <path id="DejaVuSans-37" d="M 525 4666 
L 3525 4666 
L 3525 4397 
L 1831 0 
L 1172 0 
L 2766 4134 
L 525 4134 
L 525 4666 
z
" transform="scale(0.015625)"/>
        <path id="DejaVuSans-35" d="M 691 4666 
L 3169 4666 
L 3169 4134 
L 1269 4134 
L 1269 2991 
Q 1406 3038 1543 3061 
Q 1681 3084 1819 3084 
Q 2600 3084 3056 2656 
Q 3513 2228 3513 1497 
Q 3513 744 3044 326 
Q 2575 -91 1722 -91 
Q 1428 -91 1123 -41 
Q 819 9 494 109 
L 494 744 
Q 775 591 1075 516 
Q 1375 441 1709 441 
Q 2250 441 2565 725 
Q 2881 1009 2881 1497 
Q 2881 1984 2565 2268 
Q 2250 2553 1709 2553 
Q 1456 2553 1204 2497 
Q 953 2441 691 2322 
L 691 4666 
z
" transform="scale(0.015625)"/>
       </defs>
       <use xlink:href="#DejaVuSans-2212"/>
       <use xlink:href="#DejaVuSans-30" x="83.789062"/>
       <use xlink:href="#DejaVuSans-2e" x="147.412109"/>
       <use xlink:href="#DejaVuSans-37" x="179.199219"/>
       <use xlink:href="#DejaVuSans-35" x="242.822266"/>
      </g>
     </g>
    </g>
    <g id="xtick_3">
     <g id="line2d_5">
      <path d="M 186.272727 312.2 
L 186.272727 27.8 
" clip-path="url(#p6f54895251)" style="fill: none; stroke: #808080; stroke-width: 0.8; stroke-linecap: square"/>
     </g>
     <g id="line2d_6">
      <g>
       <use xlink:href="#m62a57305ae" x="186.272727" y="312.2" style="stroke: #000000; stroke-width: 0.8"/>
      </g>
     </g>
     <g id="text_3">
      <!-- −0.50 -->
      <g transform="translate(167.88554 328.318125) scale(0.12 -0.12)">
       <use xlink:href="#DejaVuSans-2212"/>
       <use xlink:href="#DejaVuSans-30" x="83.789062"/>
       <use xlink:href="#DejaVuSans-2e" x="147.412109"/>
       <use xlink:href="#DejaVuSans-35" x="179.199219"/>
       <use xlink:href="#DejaVuSans-30" x="242.822266"/>
      </g>
     </g>
    </g>
    <g id="xtick_4">
     <g id="line2d_7">
      <path d="M 234.230114 312.2 
L 234.230114 27.8 
" clip-path="url(#p6f54895251)" style="fill: none; stroke: #808080; stroke-width: 0.8; stroke-linecap: square"/>
     </g>
     <g id="line2d_8">
      <g>
       <use xlink:href="#m62a57305ae" x="234.230114" y="312.2" style="stroke: #000000; stroke-width: 0.8"/>
      </g>
     </g>
     <g id="text_4">
      <!-- −0.25 -->
      <g transform="translate(215.842926 328.318125) scale(0.12 -0.12)">
       <defs>
        <path id="DejaVuSans-32" d="M 1228 531 
L 3431 531 
L 3431 0 
L 469 0 
L 469 531 
Q 828 903 1448 1529 
Q 2069 2156 2228 2338 
Q 2531 2678 2651 2914 
Q 2772 3150 2772 3378 
Q 2772 3750 2511 3984 
Q 2250 4219 1831 4219 
Q 1534 4219 1204 4116 
Q 875 4013 500 3803 
L 500 4441 
Q 881 4594 1212 4672 
Q 1544 4750 1819 4750 
Q 2544 4750 2975 4387 
Q 3406 4025 3406 3419 
Q 3406 3131 3298 2873 
Q 3191 2616 2906 2266 
Q 2828 2175 2409 1742 
Q 1991 1309 1228 531 
z
" transform="scale(0.015625)"/>
       </defs>
       <use xlink:href="#DejaVuSans-2212"/>
       <use xlink:href="#DejaVuSans-30" x="83.789062"/>
       <use xlink:href="#DejaVuSans-2e" x="147.412109"/>
       <use xlink:href="#DejaVuSans-32" x="179.199219"/>
       <use xlink:href="#DejaVuSans-35" x="242.822266"/>
      </g>
     </g>
    </g>
    <g id="xtick_5">
     <g id="line2d_9">
      <path d="M 282.1875 312.2 
L 282.1875 27.8 
" clip-path="url(#p6f54895251)" style="fill: none; stroke: #808080; stroke-width: 0.8; stroke-linecap: square"/>
     </g>
     <g id="line2d_10">
      <g>
       <use xlink:href="#m62a57305ae" x="282.1875" y="312.2" style="stroke: #000000; stroke-width: 0.8"/>
      </g>
     </g>
     <g id="text_5">
      <!-- 0.00 -->
      <g transform="translate(268.828125 328.318125) scale(0.12 -0.12)">
       <use xlink:href="#DejaVuSans-30"/>
       <use xlink:href="#DejaVuSans-2e" x="63.623047"/>
       <use xlink:href="#DejaVuSans-30" x="95.410156"/>
       <use xlink:href="#DejaVuSans-30" x="159.033203"/>
      </g>
     </g>
    </g>
    <g id="xtick_6">
     <g id="line2d_11">
      <path d="M 330.144886 312.2 
L 330.144886 27.8 
" clip-path="url(#p6f54895251)" style="fill: none; stroke: #808080; stroke-width: 0.8; stroke-linecap: square"/>
     </g>
     <g id="line2d_12">
      <g>
       <use xlink:href="#m62a57305ae" x="330.144886" y="312.2" style="stroke: #000000; stroke-width: 0.8"/>
      </g>
     </g>
     <g id="text_6">
      <!-- 0.25 -->
      <g transform="translate(316.785511 328.318125) scale(0.12 -0.12)">
       <use xlink:href="#DejaVuSans-30"/>
       <use xlink:href="#DejaVuSans-2e" x="63.623047"/>
       <use xlink:href="#DejaVuSans-32" x="95.410156"/>
       <use xlink:href="#DejaVuSans-35" x="159.033203"/>
      </g>
     </g>
    </g>
    <g id="xtick_7">
     <g id="line2d_13">
      <path d="M 378.102273 312.2 
L 378.102273 27.8 
" clip-path="url(#p6f54895251)" style="fill: none; stroke: #808080; stroke-width: 0.8; stroke-linecap: square"/>
     </g>
     <g id="line2d_14">
      <g>
       <use xlink:href="#m62a57305ae" x="378.102273" y="312.2" style="stroke: #000000; stroke-width: 0.8"/>
      </g>
     </g>
     <g id="text_7">
      <!-- 0.50 -->
      <g transform="translate(364.742898 328.318125) scale(0.12 -0.12)">
       <use xlink:href="#DejaVuSans-30"/>
       <use xlink:href="#DejaVuSans-2e" x="63.623047"/>
       <use xlink:href="#DejaVuSans-35" x="95.410156"/>
       <use xlink:href="#DejaVuSans-30" x="159.033203"/>
      </g>
     </g>
    </g>
    <g id="xtick_8">
     <g id="line2d_15">
      <path d="M 426.059659 312.2 
L 426.059659 27.8 
" clip-path="url(#p6f54895251)" style="fill: none; stroke: #808080; stroke-width: 0.8; stroke-linecap: square"/>
     </g>
     <g id="line2d_16">
      <g>
       <use xlink:href="#m62a57305ae" x="426.059659" y="312.2" style="stroke: #000000; stroke-width: 0.8"/>
      </g>
     </g>
     <g id="text_8">
      <!-- 0.75 -->
      <g transform="translate(412.700284 328.318125) scale(0.12 -0.12)">
       <use xlink:href="#DejaVuSans-30"/>
       <use xlink:href="#DejaVuSans-2e" x="63.623047"/>
       <use xlink:href="#DejaVuSans-37" x="95.410156"/>
       <use xlink:href="#DejaVuSans-35" x="159.033203"/>
      </g>
     </g>
    </g>
    <g id="xtick_9">
     <g id="line2d_17">
      <path d="M 474.017045 312.2 
L 474.017045 27.8 
" clip-path="url(#p6f54895251)" style="fill: none; stroke: #808080; stroke-width: 0.8; stroke-linecap: square"/>
     </g>
     <g id="line2d_18">
      <g>
       <use xlink:href="#m62a57305ae" x="474.017045" y="312.2" style="stroke: #000000; stroke-width: 0.8"/>
      </g>
     </g>
     <g id="text_9">
      <!-- 1.00 -->
      <g transform="translate(460.65767 328.318125) scale(0.12 -0.12)">
       <use xlink:href="#DejaVuSans-31"/>
       <use xlink:href="#DejaVuSans-2e" x="63.623047"/>
       <use xlink:href="#DejaVuSans-30" x="95.410156"/>
       <use xlink:href="#DejaVuSans-30" x="159.033203"/>
      </g>
     </g>
    </g>
    <g id="text_10">
     <!-- x [] -->
     <g transform="translate(272.0475 343.931875) scale(0.12 -0.12)">
      <defs>
       <path id="DejaVuSans-78" d="M 3513 3500 
L 2247 1797 
L 3578 0 
L 2900 0 
L 1881 1375 
L 863 0 
L 184 0 
L 1544 1831 
L 300 3500 
L 978 3500 
L 1906 2253 
L 2834 3500 
L 3513 3500 
z
" transform="scale(0.015625)"/>
       <path id="DejaVuSans-20" transform="scale(0.015625)"/>
       <path id="DejaVuSans-5b" d="M 550 4863 
L 1875 4863 
L 1875 4416 
L 1125 4416 
L 1125 -397 
L 1875 -397 
L 1875 -844 
L 550 -844 
L 550 4863 
z
" transform="scale(0.015625)"/>
       <path id="DejaVuSans-5d" d="M 1947 4863 
L 1947 -844 
L 622 -844 
L 622 -397 
L 1369 -397 
L 1369 4416 
L 622 4416 
L 622 4863 
L 1947 4863 
z
" transform="scale(0.015625)"/>
      </defs>
      <use xlink:href="#DejaVuSans-78"/>
      <use xlink:href="#DejaVuSans-20" x="59.179688"/>
      <use xlink:href="#DejaVuSans-5b" x="90.966797"/>
      <use xlink:href="#DejaVuSans-5d" x="129.980469"/>
     </g>
    </g>
   </g>
   <g id="matplotlib.axis_2">
    <g id="ytick_1">
     <g id="line2d_19">
      <path d="M 71.175 299.272727 
L 493.2 299.272727 
" clip-path="url(#p6f54895251)" style="fill: none; stroke: #808080; stroke-width: 0.8; stroke-linecap: square"/>
     </g>
     <g id="line2d_20">
      <defs>
       <path id="m6a52953053" d="M 0 0 
L -3.5 0 
" style="stroke: #000000; stroke-width: 0.8"/>
      </defs>
      <g>
       <use xlink:href="#m6a52953053" x="71.175" y="299.272727" style="stroke: #000000; stroke-width: 0.8"/>
      </g>
     </g>
     <g id="text_11">
      <!-- −1.00 -->
      <g transform="translate(27.400625 303.83179) scale(0.12 -0.12)">
       <use xlink:href="#DejaVuSans-2212"/>
       <use xlink:href="#DejaVuSans-31" x="83.789062"/>
       <use xlink:href="#DejaVuSans-2e" x="147.412109"/>
       <use xlink:href="#DejaVuSans-30" x="179.199219"/>
       <use xlink:href="#DejaVuSans-30" x="242.822266"/>
      </g>
     </g>
    </g>
    <g id="ytick_2">
     <g id="line2d_21">
      <path d="M 71.175 266.954545 
L 493.2 266.954545 
" clip-path="url(#p6f54895251)" style="fill: none; stroke: #808080; stroke-width: 0.8; stroke-linecap: square"/>
     </g>
     <g id="line2d_22">
      <g>
       <use xlink:href="#m6a52953053" x="71.175" y="266.954545" style="stroke: #000000; stroke-width: 0.8"/>
      </g>
     </g>
     <g id="text_12">
      <!-- −0.75 -->
      <g transform="translate(27.400625 271.513608) scale(0.12 -0.12)">
       <use xlink:href="#DejaVuSans-2212"/>
       <use xlink:href="#DejaVuSans-30" x="83.789062"/>
       <use xlink:href="#DejaVuSans-2e" x="147.412109"/>
       <use xlink:href="#DejaVuSans-37" x="179.199219"/>
       <use xlink:href="#DejaVuSans-35" x="242.822266"/>
      </g>
     </g>
    </g>
    <g id="ytick_3">
     <g id="line2d_23">
      <path d="M 71.175 234.636364 
L 493.2 234.636364 
" clip-path="url(#p6f54895251)" style="fill: none; stroke: #808080; stroke-width: 0.8; stroke-linecap: square"/>
     </g>
     <g id="line2d_24">
      <g>
       <use xlink:href="#m6a52953053" x="71.175" y="234.636364" style="stroke: #000000; stroke-width: 0.8"/>
      </g>
     </g>
     <g id="text_13">
      <!-- −0.50 -->
      <g transform="translate(27.400625 239.195426) scale(0.12 -0.12)">
       <use xlink:href="#DejaVuSans-2212"/>
       <use xlink:href="#DejaVuSans-30" x="83.789062"/>
       <use xlink:href="#DejaVuSans-2e" x="147.412109"/>
       <use xlink:href="#DejaVuSans-35" x="179.199219"/>
       <use xlink:href="#DejaVuSans-30" x="242.822266"/>
      </g>
     </g>
    </g>
    <g id="ytick_4">
     <g id="line2d_25">
      <path d="M 71.175 202.318182 
L 493.2 202.318182 
" clip-path="url(#p6f54895251)" style="fill: none; stroke: #808080; stroke-width: 0.8; stroke-linecap: square"/>
     </g>
     <g id="line2d_26">
      <g>
       <use xlink:href="#m6a52953053" x="71.175" y="202.318182" style="stroke: #000000; stroke-width: 0.8"/>
      </g>
     </g>
     <g id="text_14">
      <!-- −0.25 -->
      <g transform="translate(27.400625 206.877244) scale(0.12 -0.12)">
       <use xlink:href="#DejaVuSans-2212"/>
       <use xlink:href="#DejaVuSans-30" x="83.789062"/>
       <use xlink:href="#DejaVuSans-2e" x="147.412109"/>
       <use xlink:href="#DejaVuSans-32" x="179.199219"/>
       <use xlink:href="#DejaVuSans-35" x="242.822266"/>
      </g>
     </g>
    </g>
    <g id="ytick_5">
     <g id="line2d_27">
      <path d="M 71.175 170 
L 493.2 170 
" clip-path="url(#p6f54895251)" style="fill: none; stroke: #808080; stroke-width: 0.8; stroke-linecap: square"/>
     </g>
     <g id="line2d_28">
      <g>
       <use xlink:href="#m6a52953053" x="71.175" y="170" style="stroke: #000000; stroke-width: 0.8"/>
      </g>
     </g>
     <g id="text_15">
      <!-- 0.00 -->
      <g transform="translate(37.45625 174.559063) scale(0.12 -0.12)">
       <use xlink:href="#DejaVuSans-30"/>
       <use xlink:href="#DejaVuSans-2e" x="63.623047"/>
       <use xlink:href="#DejaVuSans-30" x="95.410156"/>
       <use xlink:href="#DejaVuSans-30" x="159.033203"/>
      </g>
     </g>
    </g>
    <g id="ytick_6">
     <g id="line2d_29">
      <path d="M 71.175 137.681818 
L 493.2 137.681818 
" clip-path="url(#p6f54895251)" style="fill: none; stroke: #808080; stroke-width: 0.8; stroke-linecap: square"/>
     </g>
     <g id="line2d_30">
      <g>
       <use xlink:href="#m6a52953053" x="71.175" y="137.681818" style="stroke: #000000; stroke-width: 0.8"/>
      </g>
     </g>
     <g id="text_16">
      <!-- 0.25 -->
      <g transform="translate(37.45625 142.240881) scale(0.12 -0.12)">
       <use xlink:href="#DejaVuSans-30"/>
       <use xlink:href="#DejaVuSans-2e" x="63.623047"/>
       <use xlink:href="#DejaVuSans-32" x="95.410156"/>
       <use xlink:href="#DejaVuSans-35" x="159.033203"/>
      </g>
     </g>
    </g>
    <g id="ytick_7">
     <g id="line2d_31">
      <path d="M 71.175 105.363636 
L 493.2 105.363636 
" clip-path="url(#p6f54895251)" style="fill: none; stroke: #808080; stroke-width: 0.8; stroke-linecap: square"/>
     </g>
     <g id="line2d_32">
      <g>
       <use xlink:href="#m6a52953053" x="71.175" y="105.363636" style="stroke: #000000; stroke-width: 0.8"/>
      </g>
     </g>
     <g id="text_17">
      <!-- 0.50 -->
      <g transform="translate(37.45625 109.922699) scale(0.12 -0.12)">
       <use xlink:href="#DejaVuSans-30"/>
       <use xlink:href="#DejaVuSans-2e" x="63.623047"/>
       <use xlink:href="#DejaVuSans-35" x="95.410156"/>
       <use xlink:href="#DejaVuSans-30" x="159.033203"/>
      </g>
     </g>
    </g>
    <g id="ytick_8">
     <g id="line2d_33">
      <path d="M 71.175 73.045455 
L 493.2 73.045455 
" clip-path="url(#p6f54895251)" style="fill: none; stroke: #808080; stroke-width: 0.8; stroke-linecap: square"/>
     </g>
     <g id="line2d_34">
      <g>
       <use xlink:href="#m6a52953053" x="71.175" y="73.045455" style="stroke: #000000; stroke-width: 0.8"/>
      </g>
     </g>
     <g id="text_18">
      <!-- 0.75 -->
      <g transform="translate(37.45625 77.604517) scale(0.12 -0.12)">
       <use xlink:href="#DejaVuSans-30"/>
       <use xlink:href="#DejaVuSans-2e" x="63.623047"/>
       <use xlink:href="#DejaVuSans-37" x="95.410156"/>
       <use xlink:href="#DejaVuSans-35" x="159.033203"/>
      </g>
     </g>
    </g>
    <g id="ytick_9">
     <g id="line2d_35">
      <path d="M 71.175 40.727273 
L 493.2 40.727273 
" clip-path="url(#p6f54895251)" style="fill: none; stroke: #808080; stroke-width: 0.8; stroke-linecap: square"/>
     </g>
     <g id="line2d_36">
      <g>
       <use xlink:href="#m6a52953053" x="71.175" y="40.727273" style="stroke: #000000; stroke-width: 0.8"/>
      </g>
     </g>
     <g id="text_19">
      <!-- 1.00 -->
      <g transform="translate(37.45625 45.286335) scale(0.12 -0.12)">
       <use xlink:href="#DejaVuSans-31"/>
       <use xlink:href="#DejaVuSans-2e" x="63.623047"/>
       <use xlink:href="#DejaVuSans-30" x="95.410156"/>
       <use xlink:href="#DejaVuSans-30" x="159.033203"/>
      </g>
     </g>
    </g>
    <g id="text_20">
     <!-- y [] -->
     <g transform="translate(20.905 180.14) rotate(-90) scale(0.12 -0.12)">
      <defs>
       <path id="DejaVuSans-79" d="M 2059 -325 
Q 1816 -950 1584 -1140 
Q 1353 -1331 966 -1331 
L 506 -1331 
L 506 -850 
L 844 -850 
Q 1081 -850 1212 -737 
Q 1344 -625 1503 -206 
L 1606 56 
L 191 3500 
L 800 3500 
L 1894 763 
L 2988 3500 
L 3597 3500 
L 2059 -325 
z
" transform="scale(0.015625)"/>
      </defs>
      <use xlink:href="#DejaVuSans-79"/>
      <use xlink:href="#DejaVuSans-20" x="59.179688"/>
      <use xlink:href="#DejaVuSans-5b" x="90.966797"/>
      <use xlink:href="#DejaVuSans-5d" x="129.980469"/>
     </g>
    </g>
   </g>
   <g id="line2d_37">
    <path d="M 90.357955 299.272727 
L 94.233299 296.661157 
L 98.108643 294.049587 
L 101.983988 291.438017 
L 105.859332 288.826446 
L 109.734676 286.214876 
L 113.610021 283.603306 
L 117.485365 280.991736 
L 121.360709 278.380165 
L 125.236054 275.768595 
L 129.111398 273.157025 
L 132.986742 270.545455 
L 136.862087 267.933884 
L 140.737431 265.322314 
L 144.612775 262.710744 
L 148.48812 260.099174 
L 152.363464 257.487603 
L 156.238809 254.876033 
L 160.114153 252.264463 
L 163.989497 249.652893 
L 167.864842 247.041322 
L 171.740186 244.429752 
L 175.61553 241.818182 
L 179.490875 239.206612 
L 183.366219 236.595041 
L 187.241563 233.983471 
L 191.116908 231.371901 
L 194.992252 228.760331 
L 198.867596 226.14876 
L 202.742941 223.53719 
L 206.618285 220.92562 
L 210.493629 218.31405 
L 214.368974 215.702479 
L 218.244318 213.090909 
L 222.119663 210.479339 
L 225.995007 207.867769 
L 229.870351 205.256198 
L 233.745696 202.644628 
L 237.62104 200.033058 
L 241.496384 197.421488 
L 245.371729 194.809917 
L 249.247073 192.198347 
L 253.122417 189.586777 
L 256.997762 186.975207 
L 260.873106 184.363636 
L 264.74845 181.752066 
L 268.623795 179.140496 
L 272.499139 176.528926 
L 276.374483 173.917355 
L 280.249828 171.305785 
L 284.125172 168.694215 
L 288.000517 166.082645 
L 291.875861 163.471074 
L 295.751205 160.859504 
L 299.62655 158.247934 
L 303.501894 155.636364 
L 307.377238 153.024793 
L 311.252583 150.413223 
L 315.127927 147.801653 
L 319.003271 145.190083 
L 322.878616 142.578512 
L 326.75396 139.966942 
L 330.629304 137.355372 
L 334.504649 134.743802 
L 338.379993 132.132231 
L 342.255337 129.520661 
L 346.130682 126.909091 
L 350.006026 124.297521 
L 353.881371 121.68595 
L 357.756715 119.07438 
L 361.632059 116.46281 
L 365.507404 113.85124 
L 369.382748 111.239669 
L 373.258092 108.628099 
L 377.133437 106.016529 
L 381.008781 103.404959 
L 384.884125 100.793388 
L 388.75947 98.181818 
L 392.634814 95.570248 
L 396.510158 92.958678 
L 400.385503 90.347107 
L 404.260847 87.735537 
L 408.136191 85.123967 
L 412.011536 82.512397 
L 415.88688 79.900826 
L 419.762225 77.289256 
L 423.637569 74.677686 
L 427.512913 72.066116 
L 431.388258 69.454545 
L 435.263602 66.842975 
L 439.138946 64.231405 
L 443.014291 61.619835 
L 446.889635 59.008264 
L 450.764979 56.396694 
L 454.640324 53.785124 
L 458.515668 51.173554 
L 462.391012 48.561983 
L 466.266357 45.950413 
L 470.141701 43.338843 
L 474.017045 40.727273 
" clip-path="url(#p6f54895251)" style="fill: none; stroke: #ff0000; stroke-width: 2; stroke-linecap: square"/>
   </g>
   <g id="line2d_38">
    <path d="M 90.357955 40.727273 
L 94.233299 45.897654 
L 98.108643 50.962518 
L 101.983988 55.921863 
L 105.859332 60.775691 
L 109.734676 65.524 
L 113.610021 70.166792 
L 117.485365 74.704065 
L 121.360709 79.135821 
L 125.236054 83.462059 
L 129.111398 87.682778 
L 132.986742 91.79798 
L 136.862087 95.807663 
L 140.737431 99.711829 
L 144.612775 103.510477 
L 148.48812 107.203606 
L 152.363464 110.791218 
L 156.238809 114.273312 
L 160.114153 117.649887 
L 163.989497 120.920945 
L 167.864842 124.086485 
L 171.740186 127.146506 
L 175.61553 130.10101 
L 179.490875 132.949996 
L 183.366219 135.693464 
L 187.241563 138.331413 
L 191.116908 140.863845 
L 194.992252 143.290759 
L 198.867596 145.612155 
L 202.742941 147.828032 
L 206.618285 149.938392 
L 210.493629 151.943234 
L 214.368974 153.842558 
L 218.244318 155.636364 
L 222.119663 157.324651 
L 225.995007 158.907421 
L 229.870351 160.384673 
L 233.745696 161.756407 
L 237.62104 163.022623 
L 241.496384 164.183321 
L 245.371729 165.238501 
L 249.247073 166.188163 
L 253.122417 167.032307 
L 256.997762 167.770932 
L 260.873106 168.40404 
L 264.74845 168.93163 
L 268.623795 169.353702 
L 272.499139 169.670256 
L 276.374483 169.881292 
L 280.249828 169.98681 
L 284.125172 169.98681 
L 288.000517 169.881292 
L 291.875861 169.670256 
L 295.751205 169.353702 
L 299.62655 168.93163 
L 303.501894 168.40404 
L 307.377238 167.770932 
L 311.252583 167.032307 
L 315.127927 166.188163 
L 319.003271 165.238501 
L 322.878616 164.183321 
L 326.75396 163.022623 
L 330.629304 161.756407 
L 334.504649 160.384673 
L 338.379993 158.907421 
L 342.255337 157.324651 
L 346.130682 155.636364 
L 350.006026 153.842558 
L 353.881371 151.943234 
L 357.756715 149.938392 
L 361.632059 147.828032 
L 365.507404 145.612155 
L 369.382748 143.290759 
L 373.258092 140.863845 
L 377.133437 138.331413 
L 381.008781 135.693464 
L 384.884125 132.949996 
L 388.75947 130.10101 
L 392.634814 127.146506 
L 396.510158 124.086485 
L 400.385503 120.920945 
L 404.260847 117.649887 
L 408.136191 114.273312 
L 412.011536 110.791218 
L 415.88688 107.203606 
L 419.762225 103.510477 
L 423.637569 99.711829 
L 427.512913 95.807663 
L 431.388258 91.79798 
L 435.263602 87.682778 
L 439.138946 83.462059 
L 443.014291 79.135821 
L 446.889635 74.704065 
L 450.764979 70.166792 
L 454.640324 65.524 
L 458.515668 60.775691 
L 462.391012 55.921863 
L 466.266357 50.962518 
L 470.141701 45.897654 
L 474.017045 40.727273 
" clip-path="url(#p6f54895251)" style="fill: none; stroke: #0000ff; stroke-width: 2; stroke-linecap: square"/>
   </g>
   <g id="line2d_39">
    <path d="M 90.357955 299.272727 
L 94.233299 291.595228 
L 98.108643 284.227887 
L 101.983988 277.16431 
L 105.859332 270.398102 
L 109.734676 263.922868 
L 113.610021 257.732213 
L 117.485365 251.819742 
L 121.360709 246.179059 
L 125.236054 240.80377 
L 129.111398 235.68748 
L 132.986742 230.823793 
L 136.862087 226.206316 
L 140.737431 221.828651 
L 144.612775 217.684406 
L 148.48812 213.767183 
L 152.363464 210.07059 
L 156.238809 206.58823 
L 160.114153 203.313708 
L 163.989497 200.24063 
L 167.864842 197.3626 
L 171.740186 194.673224 
L 175.61553 192.166105 
L 179.490875 189.834851 
L 183.366219 187.673064 
L 187.241563 185.674351 
L 191.116908 183.832316 
L 194.992252 182.140564 
L 198.867596 180.592701 
L 202.742941 179.18233 
L 206.618285 177.903058 
L 210.493629 176.748488 
L 214.368974 175.712227 
L 218.244318 174.787879 
L 222.119663 173.969049 
L 225.995007 173.249341 
L 229.870351 172.622362 
L 233.745696 172.081715 
L 237.62104 171.621007 
L 241.496384 171.233841 
L 245.371729 170.913823 
L 249.247073 170.654558 
L 253.122417 170.449651 
L 256.997762 170.292706 
L 260.873106 170.177329 
L 264.74845 170.097125 
L 268.623795 170.045698 
L 272.499139 170.016654 
L 276.374483 170.003597 
L 280.249828 170.000133 
L 284.125172 169.999867 
L 288.000517 169.996403 
L 291.875861 169.983346 
L 295.751205 169.954302 
L 299.62655 169.902875 
L 303.501894 169.822671 
L 307.377238 169.707294 
L 311.252583 169.550349 
L 315.127927 169.345442 
L 319.003271 169.086177 
L 322.878616 168.766159 
L 326.75396 168.378993 
L 330.629304 167.918285 
L 334.504649 167.377638 
L 338.379993 166.750659 
L 342.255337 166.030951 
L 346.130682 165.212121 
L 350.006026 164.287773 
L 353.881371 163.251512 
L 357.756715 162.096942 
L 361.632059 160.81767 
L 365.507404 159.407299 
L 369.382748 157.859436 
L 373.258092 156.167684 
L 377.133437 154.325649 
L 381.008781 152.326936 
L 384.884125 150.165149 
L 388.75947 147.833895 
L 392.634814 145.326776 
L 396.510158 142.6374 
L 400.385503 139.75937 
L 404.260847 136.686292 
L 408.136191 133.41177 
L 412.011536 129.92941 
L 415.88688 126.232817 
L 419.762225 122.315594 
L 423.637569 118.171349 
L 427.512913 113.793684 
L 431.388258 109.176207 
L 435.263602 104.31252 
L 439.138946 99.19623 
L 443.014291 93.820941 
L 446.889635 88.180258 
L 450.764979 82.267787 
L 454.640324 76.077132 
L 458.515668 69.601898 
L 462.391012 62.83569 
L 466.266357 55.772113 
L 470.141701 48.404772 
L 474.017045 40.727273 
" clip-path="url(#p6f54895251)" style="fill: none; stroke: #008000; stroke-width: 2; stroke-linecap: square"/>
   </g>
   <g id="line2d_40">
    <path d="M 90.357955 40.727273 
L 94.233299 50.861242 
L 98.108643 60.387381 
L 101.983988 69.330496 
L 105.859332 77.714876 
L 109.734676 85.56429 
L 113.610021 92.901994 
L 117.485365 99.750727 
L 121.360709 106.132708 
L 125.236054 112.069643 
L 129.111398 117.582718 
L 132.986742 122.692605 
L 136.862087 127.419458 
L 140.737431 131.782914 
L 144.612775 135.802093 
L 148.48812 139.495599 
L 152.363464 142.88152 
L 156.238809 145.977425 
L 160.114153 148.800368 
L 163.989497 151.366885 
L 167.864842 153.692996 
L 171.740186 155.794205 
L 175.61553 157.685497 
L 179.490875 159.381343 
L 183.366219 160.895694 
L 187.241563 162.241988 
L 191.116908 163.433143 
L 194.992252 164.481562 
L 198.867596 165.39913 
L 202.742941 166.197217 
L 206.618285 166.886674 
L 210.493629 167.477838 
L 214.368974 167.980526 
L 218.244318 168.40404 
L 222.119663 168.757167 
L 225.995007 169.048173 
L 229.870351 169.28481 
L 233.745696 169.474314 
L 237.62104 169.623402 
L 241.496384 169.738276 
L 245.371729 169.82462 
L 249.247073 169.887601 
L 253.122417 169.931871 
L 256.997762 169.961564 
L 260.873106 169.980297 
L 264.74845 169.99117 
L 268.623795 169.996769 
L 272.499139 169.999159 
L 276.374483 169.999891 
L 280.249828 169.999999 
L 284.125172 169.999999 
L 288.000517 169.999891 
L 291.875861 169.999159 
L 295.751205 169.996769 
L 299.62655 169.99117 
L 303.501894 169.980297 
L 307.377238 169.961564 
L 311.252583 169.931871 
L 315.127927 169.887601 
L 319.003271 169.82462 
L 322.878616 169.738276 
L 326.75396 169.623402 
L 330.629304 169.474314 
L 334.504649 169.28481 
L 338.379993 169.048173 
L 342.255337 168.757167 
L 346.130682 168.40404 
L 350.006026 167.980526 
L 353.881371 167.477838 
L 357.756715 166.886674 
L 361.632059 166.197217 
L 365.507404 165.39913 
L 369.382748 164.481562 
L 373.258092 163.433143 
L 377.133437 162.241988 
L 381.008781 160.895694 
L 384.884125 159.381343 
L 388.75947 157.685497 
L 392.634814 155.794205 
L 396.510158 153.692996 
L 400.385503 151.366885 
L 404.260847 148.800368 
L 408.136191 145.977425 
L 412.011536 142.88152 
L 415.88688 139.495599 
L 419.762225 135.802093 
L 423.637569 131.782914 
L 427.512913 127.419458 
L 431.388258 122.692605 
L 435.263602 117.582718 
L 439.138946 112.069643 
L 443.014291 106.132708 
L 446.889635 99.750727 
L 450.764979 92.901994 
L 454.640324 85.56429 
L 458.515668 77.714876 
L 462.391012 69.330496 
L 466.266357 60.387381 
L 470.141701 50.861242 
L 474.017045 40.727273 
" clip-path="url(#p6f54895251)" style="fill: none; stroke: #00bfbf; stroke-width: 2; stroke-linecap: square"/>
   </g>
   <g id="patch_3">
    <path d="M 71.175 312.2 
L 71.175 27.8 
" style="fill: none; stroke: #000000; stroke-width: 0.8; stroke-linejoin: miter; stroke-linecap: square"/>
   </g>
   <g id="patch_4">
    <path d="M 493.2 312.2 
L 493.2 27.8 
" style="fill: none; stroke: #000000; stroke-width: 0.8; stroke-linejoin: miter; stroke-linecap: square"/>
   </g>
   <g id="patch_5">
    <path d="M 71.175 312.2 
L 493.2 312.2 
" style="fill: none; stroke: #000000; stroke-width: 0.8; stroke-linejoin: miter; stroke-linecap: square"/>
   </g>
   <g id="patch_6">
    <path d="M 71.175 27.8 
L 493.2 27.8 
" style="fill: none; stroke: #000000; stroke-width: 0.8; stroke-linejoin: miter; stroke-linecap: square"/>
   </g>
   <g id="text_21">
    <!-- Powers of $x$ -->
    <g transform="translate(247.5075 21.8) scale(0.12 -0.12)">
     <defs>
      <path id="DejaVuSans-50" d="M 1259 4147 
L 1259 2394 
L 2053 2394 
Q 2494 2394 2734 2622 
Q 2975 2850 2975 3272 
Q 2975 3691 2734 3919 
Q 2494 4147 2053 4147 
L 1259 4147 
z
M 628 4666 
L 2053 4666 
Q 2838 4666 3239 4311 
Q 3641 3956 3641 3272 
Q 3641 2581 3239 2228 
Q 2838 1875 2053 1875 
L 1259 1875 
L 1259 0 
L 628 0 
L 628 4666 
z
" transform="scale(0.015625)"/>
      <path id="DejaVuSans-6f" d="M 1959 3097 
Q 1497 3097 1228 2736 
Q 959 2375 959 1747 
Q 959 1119 1226 758 
Q 1494 397 1959 397 
Q 2419 397 2687 759 
Q 2956 1122 2956 1747 
Q 2956 2369 2687 2733 
Q 2419 3097 1959 3097 
z
M 1959 3584 
Q 2709 3584 3137 3096 
Q 3566 2609 3566 1747 
Q 3566 888 3137 398 
Q 2709 -91 1959 -91 
Q 1206 -91 779 398 
Q 353 888 353 1747 
Q 353 2609 779 3096 
Q 1206 3584 1959 3584 
z
" transform="scale(0.015625)"/>
      <path id="DejaVuSans-77" d="M 269 3500 
L 844 3500 
L 1563 769 
L 2278 3500 
L 2956 3500 
L 3675 769 
L 4391 3500 
L 4966 3500 
L 4050 0 
L 3372 0 
L 2619 2869 
L 1863 0 
L 1184 0 
L 269 3500 
z
" transform="scale(0.015625)"/>
      <path id="DejaVuSans-65" d="M 3597 1894 
L 3597 1613 
L 953 1613 
Q 991 1019 1311 708 
Q 1631 397 2203 397 
Q 2534 397 2845 478 
Q 3156 559 3463 722 
L 3463 178 
Q 3153 47 2828 -22 
Q 2503 -91 2169 -91 
Q 1331 -91 842 396 
Q 353 884 353 1716 
Q 353 2575 817 3079 
Q 1281 3584 2069 3584 
Q 2775 3584 3186 3129 
Q 3597 2675 3597 1894 
z
M 3022 2063 
Q 3016 2534 2758 2815 
Q 2500 3097 2075 3097 
Q 1594 3097 1305 2825 
Q 1016 2553 972 2059 
L 3022 2063 
z
" transform="scale(0.015625)"/>
      <path id="DejaVuSans-72" d="M 2631 2963 
Q 2534 3019 2420 3045 
Q 2306 3072 2169 3072 
Q 1681 3072 1420 2755 
Q 1159 2438 1159 1844 
L 1159 0 
L 581 0 
L 581 3500 
L 1159 3500 
L 1159 2956 
Q 1341 3275 1631 3429 
Q 1922 3584 2338 3584 
Q 2397 3584 2469 3576 
Q 2541 3569 2628 3553 
L 2631 2963 
z
" transform="scale(0.015625)"/>
      <path id="DejaVuSans-73" d="M 2834 3397 
L 2834 2853 
Q 2591 2978 2328 3040 
Q 2066 3103 1784 3103 
Q 1356 3103 1142 2972 
Q 928 2841 928 2578 
Q 928 2378 1081 2264 
Q 1234 2150 1697 2047 
L 1894 2003 
Q 2506 1872 2764 1633 
Q 3022 1394 3022 966 
Q 3022 478 2636 193 
Q 2250 -91 1575 -91 
Q 1294 -91 989 -36 
Q 684 19 347 128 
L 347 722 
Q 666 556 975 473 
Q 1284 391 1588 391 
Q 1994 391 2212 530 
Q 2431 669 2431 922 
Q 2431 1156 2273 1281 
Q 2116 1406 1581 1522 
L 1381 1569 
Q 847 1681 609 1914 
Q 372 2147 372 2553 
Q 372 3047 722 3315 
Q 1072 3584 1716 3584 
Q 2034 3584 2315 3537 
Q 2597 3491 2834 3397 
z
" transform="scale(0.015625)"/>
      <path id="DejaVuSans-66" d="M 2375 4863 
L 2375 4384 
L 1825 4384 
Q 1516 4384 1395 4259 
Q 1275 4134 1275 3809 
L 1275 3500 
L 2222 3500 
L 2222 3053 
L 1275 3053 
L 1275 0 
L 697 0 
L 697 3053 
L 147 3053 
L 147 3500 
L 697 3500 
L 697 3744 
Q 697 4328 969 4595 
Q 1241 4863 1831 4863 
L 2375 4863 
z
" transform="scale(0.015625)"/>
      <path id="DejaVuSans-Oblique-78" d="M 3841 3500 
L 2234 1784 
L 3219 0 
L 2559 0 
L 1819 1388 
L 531 0 
L -166 0 
L 1556 1844 
L 641 3500 
L 1300 3500 
L 1972 2234 
L 3144 3500 
L 3841 3500 
z
" transform="scale(0.015625)"/>
     </defs>
     <use xlink:href="#DejaVuSans-50" transform="translate(0 0.015625)"/>
     <use xlink:href="#DejaVuSans-6f" transform="translate(60.302734 0.015625)"/>
     <use xlink:href="#DejaVuSans-77" transform="translate(121.484375 0.015625)"/>
     <use xlink:href="#DejaVuSans-65" transform="translate(203.271484 0.015625)"/>
     <use xlink:href="#DejaVuSans-72" transform="translate(264.794922 0.015625)"/>
     <use xlink:href="#DejaVuSans-73" transform="translate(305.908203 0.015625)"/>
     <use xlink:href="#DejaVuSans-20" transform="translate(358.007812 0.015625)"/>
     <use xlink:href="#DejaVuSans-6f" transform="translate(389.794922 0.015625)"/>
     <use xlink:href="#DejaVuSans-66" transform="translate(450.976562 0.015625)"/>
     <use xlink:href="#DejaVuSans-20" transform="translate(486.181641 0.015625)"/>
     <use xlink:href="#DejaVuSans-Oblique-78" transform="translate(517.96875 0.015625)"/>
    </g>
   </g>
   <g id="legend_1">
    <g id="patch_7">
     <path d="M 439.04 307.2 
L 486.2 307.2 
Q 488.2 307.2 488.2 305.2 
L 488.2 253.361875 
Q 488.2 251.361875 486.2 251.361875 
L 439.04 251.361875 
Q 437.04 251.361875 437.04 253.361875 
L 437.04 305.2 
Q 437.04 307.2 439.04 307.2 
z
" style="fill: #ffffff; opacity: 0.8; stroke: #cccccc; stroke-linejoin: miter"/>
    </g>
    <g id="line2d_41">
     <path d="M 439.04 258.98 
L 444.04 258.98 
L 449.04 258.98 
" style="fill: none; stroke: #ff0000; stroke-width: 2; stroke-linecap: square"/>
    </g>
    <g id="text_22">
     <!-- $y=x$ -->
     <g transform="translate(451.04 262.48) scale(0.12 -0.12)">
      <defs>
       <path id="DejaVuSans-Oblique-79" d="M 1588 -325 
Q 1188 -997 936 -1164 
Q 684 -1331 294 -1331 
L -159 -1331 
L -63 -850 
L 269 -850 
Q 509 -850 678 -719 
Q 847 -588 1056 -206 
L 1234 128 
L 459 3500 
L 1069 3500 
L 1650 819 
L 3256 3500 
L 3859 3500 
L 1588 -325 
z
" transform="scale(0.015625)"/>
       <path id="DejaVuSans-3d" d="M 678 2906 
L 4684 2906 
L 4684 2381 
L 678 2381 
L 678 2906 
z
M 678 1631 
L 4684 1631 
L 4684 1100 
L 678 1100 
L 678 1631 
z
" transform="scale(0.015625)"/>
      </defs>
      <use xlink:href="#DejaVuSans-Oblique-79" transform="translate(0 0.3125)"/>
      <use xlink:href="#DejaVuSans-3d" transform="translate(78.662109 0.3125)"/>
      <use xlink:href="#DejaVuSans-Oblique-78" transform="translate(181.933594 0.3125)"/>
     </g>
    </g>
    <g id="line2d_42">
     <path d="M 439.04 272.42 
L 444.04 272.42 
L 449.04 272.42 
" style="fill: none; stroke: #0000ff; stroke-width: 2; stroke-linecap: square"/>
    </g>
    <g id="text_23">
     <!-- $y=x^2$ -->
     <g transform="translate(451.04 275.92) scale(0.12 -0.12)">
      <use xlink:href="#DejaVuSans-Oblique-79" transform="translate(0 0.765625)"/>
      <use xlink:href="#DejaVuSans-3d" transform="translate(78.662109 0.765625)"/>
      <use xlink:href="#DejaVuSans-Oblique-78" transform="translate(181.933594 0.765625)"/>
      <use xlink:href="#DejaVuSans-32" transform="translate(245.579427 39.046875) scale(0.7)"/>
     </g>
    </g>
    <g id="line2d_43">
     <path d="M 439.04 285.86 
L 444.04 285.86 
L 449.04 285.86 
" style="fill: none; stroke: #008000; stroke-width: 2; stroke-linecap: square"/>
    </g>
    <g id="text_24">
     <!-- $y=x^3$ -->
     <g transform="translate(451.04 289.36) scale(0.12 -0.12)">
      <defs>
       <path id="DejaVuSans-33" d="M 2597 2516 
Q 3050 2419 3304 2112 
Q 3559 1806 3559 1356 
Q 3559 666 3084 287 
Q 2609 -91 1734 -91 
Q 1441 -91 1130 -33 
Q 819 25 488 141 
L 488 750 
Q 750 597 1062 519 
Q 1375 441 1716 441 
Q 2309 441 2620 675 
Q 2931 909 2931 1356 
Q 2931 1769 2642 2001 
Q 2353 2234 1838 2234 
L 1294 2234 
L 1294 2753 
L 1863 2753 
Q 2328 2753 2575 2939 
Q 2822 3125 2822 3475 
Q 2822 3834 2567 4026 
Q 2313 4219 1838 4219 
Q 1578 4219 1281 4162 
Q 984 4106 628 3988 
L 628 4550 
Q 988 4650 1302 4700 
Q 1616 4750 1894 4750 
Q 2613 4750 3031 4423 
Q 3450 4097 3450 3541 
Q 3450 3153 3228 2886 
Q 3006 2619 2597 2516 
z
" transform="scale(0.015625)"/>
      </defs>
      <use xlink:href="#DejaVuSans-Oblique-79" transform="translate(0 0.765625)"/>
      <use xlink:href="#DejaVuSans-3d" transform="translate(78.662109 0.765625)"/>
      <use xlink:href="#DejaVuSans-Oblique-78" transform="translate(181.933594 0.765625)"/>
      <use xlink:href="#DejaVuSans-33" transform="translate(245.579427 39.046875) scale(0.7)"/>
     </g>
    </g>
    <g id="line2d_44">
     <path d="M 439.04 299.18 
L 444.04 299.18 
L 449.04 299.18 
" style="fill: none; stroke: #00bfbf; stroke-width: 2; stroke-linecap: square"/>
    </g>
    <g id="text_25">
     <!-- $y=x^4$ -->
     <g transform="translate(451.04 302.68) scale(0.12 -0.12)">
      <defs>
       <path id="DejaVuSans-34" d="M 2419 4116 
L 825 1625 
L 2419 1625 
L 2419 4116 
z
M 2253 4666 
L 3047 4666 
L 3047 1625 
L 3713 1625 
L 3713 1100 
L 3047 1100 
L 3047 0 
L 2419 0 
L 2419 1100 
L 313 1100 
L 313 1709 
L 2253 4666 
z
" transform="scale(0.015625)"/>
      </defs>
      <use xlink:href="#DejaVuSans-Oblique-79" transform="translate(0 0.684375)"/>
      <use xlink:href="#DejaVuSans-3d" transform="translate(78.662109 0.684375)"/>
      <use xlink:href="#DejaVuSans-Oblique-78" transform="translate(181.933594 0.684375)"/>
      <use xlink:href="#DejaVuSans-34" transform="translate(245.579427 38.965625) scale(0.7)"/>
     </g>
    </g>
   </g>
  </g>
 </g>
 <defs>
  <clipPath id="p6f54895251">
   <rect x="71.175" y="27.8" width="422.025" height="284.4"/>
  </clipPath>
 </defs>
</svg>
