<?xml version="1.0" encoding="UTF-8" standalone="no"?>
<!-- Created with Inkscape (http://www.inkscape.org/) -->

<svg
   width="425"
   height="105"
   id="svg14078"
   version="1.1"
   inkscape:version="1.4.1 (1:1.4.1+202503302257+93de688d07)"
   sodipodi:docname="stampV.svg"
   xmlns:inkscape="http://www.inkscape.org/namespaces/inkscape"
   xmlns:sodipodi="http://sodipodi.sourceforge.net/DTD/sodipodi-0.dtd"
   xmlns:xlink="http://www.w3.org/1999/xlink"
   xmlns="http://www.w3.org/2000/svg"
   xmlns:svg="http://www.w3.org/2000/svg"
   xmlns:rdf="http://www.w3.org/1999/02/22-rdf-syntax-ns#"
   xmlns:cc="http://creativecommons.org/ns#"
   xmlns:dc="http://purl.org/dc/elements/1.1/"
   xmlns:ns0="http://www.iki.fi/pav/software/textext/">
  <sodipodi:namedview
     id="base"
     pagecolor="#ffffff"
     bordercolor="#666666"
     borderopacity="1.0"
     inkscape:pageopacity="0.0"
     inkscape:pageshadow="2"
     inkscape:zoom="2.8"
     inkscape:cx="130"
     inkscape:cy="68.214286"
     inkscape:document-units="px"
     inkscape:current-layer="layer1"
     showgrid="true"
     inkscape:object-paths="true"
     inkscape:object-nodes="true"
     inkscape:window-width="1665"
     inkscape:window-height="1028"
     inkscape:window-x="66"
     inkscape:window-y="32"
     inkscape:window-maximized="0"
     fit-margin-top="0"
     fit-margin-left="0"
     fit-margin-right="0"
     fit-margin-bottom="0"
     inkscape:showpageshadow="2"
     inkscape:pagecheckerboard="0"
     inkscape:deskcolor="#d1d1d1">
    <inkscape:grid
       id="grid14086"
       type="xygrid"
       empspacing="5"
       visible="true"
       enabled="true"
       snapvisiblegridlinesonly="true"
       originx="55px"
       originy="-855px"
       spacingy="1"
       spacingx="1"
       units="px" />
  </sodipodi:namedview>
  <defs
     id="defs14080">
    <marker
       style="overflow:visible"
       id="Arrow2Mend-00"
       refX="0"
       refY="0"
       orient="auto"
       inkscape:stockid="Arrow2Mend">
      <path
         transform="scale(-0.6,-0.6)"
         d="M 8.7185878,4.0337352 -2.2072895,0.01601326 8.7185884,-4.0017078 c -1.7454984,2.3720609 -1.7354408,5.6174519 -6e-7,8.035443 z"
         style="font-size:12px;fill-rule:evenodd;stroke-width:0.625;stroke-linejoin:round"
         id="path5872-4"
         inkscape:connector-curvature="0" />
    </marker>
    <marker
       inkscape:stockid="Arrow2Mend"
       orient="auto"
       refY="0"
       refX="0"
       id="Arrow2Mend-00-6"
       style="overflow:visible">
      <path
         inkscape:connector-curvature="0"
         id="path5872-4-75"
         style="font-size:12px;fill-rule:evenodd;stroke-width:0.625;stroke-linejoin:round"
         d="M 8.7185878,4.0337352 -2.2072895,0.01601326 8.7185884,-4.0017078 c -1.7454984,2.3720609 -1.7354408,5.6174519 -6e-7,8.035443 z"
         transform="scale(-0.6,-0.6)" />
    </marker>
  </defs>
  <metadata
     id="metadata14083">
    <rdf:RDF>
      <cc:Work
         rdf:about="">
        <dc:format>image/svg+xml</dc:format>
        <dc:type
           rdf:resource="http://purl.org/dc/dcmitype/StillImage" />
        <dc:title />
      </cc:Work>
    </rdf:RDF>
  </metadata>
  <g
     id="layer1"
     inkscape:groupmode="layer"
     inkscape:label="Layer 1"
     transform="translate(55,-92.362183)">
    <g
       transform="translate(-44.999997,-108.00002)"
       id="g60446">
      <g
         transform="translate(-345,-3022.63)"
         id="g5537">
        <path
           d="m 485,3292.9922 c 0,5.5229 -4.47716,10 -10,10 -5.52285,0 -10,-4.4771 -10,-10 0,-5.5229 4.47715,-10 10,-10 5.52284,0 10,4.4771 10,10 l 0,0 z"
           id="path3187-6"
           style="fill:none;stroke:#000000;stroke-width:1;stroke-miterlimit:4;stroke-opacity:1;stroke-dasharray:none"
           inkscape:connector-curvature="0" />
        <path
           style="fill:none;stroke:#000000;stroke-width:1px;stroke-linecap:round;stroke-linejoin:miter;stroke-opacity:1"
           d="m 475,3302.9922 0,10"
           id="path4195-6-2-9-61-7-9"
           inkscape:connector-curvature="0" />
        <path
           style="fill:none;stroke:#000000;stroke-width:1px;stroke-linecap:round;stroke-linejoin:miter;stroke-opacity:1"
           d="m 475,3272.9922 0,10"
           id="path4195-6-2-9-61-6-2"
           inkscape:connector-curvature="0" />
        <path
           style="fill:none;stroke:#000000;stroke-width:1;stroke-linecap:round;stroke-linejoin:miter;stroke-miterlimit:4;stroke-opacity:1;stroke-dasharray:none"
           d="m 475,3303.4881 0,-20"
           id="path4195-6-2-9-61-4-6"
           inkscape:connector-curvature="0" />
        <g
           transform="translate(325,49.999883)"
           id="g5289-3-6">
          <text
             transform="scale(0.99120711,1.0088709)"
             id="text4305-26-0-9-5-5-3-1-4"
             y="3204.5649"
             x="156.37498"
             style="font-style:normal;font-weight:normal;line-height:0%;font-family:'Bitstream Vera Sans';fill:#000000;fill-opacity:1;stroke:none"
             xml:space="preserve"><tspan
               y="3204.5649"
               x="156.37498"
               id="tspan4307-1-5-3-2-2-8-1-9"
               sodipodi:role="line"
               style="font-size:9.32416px;line-height:1.25">+</tspan></text>
          <text
             transform="scale(1.4316841,0.69847811)"
             id="text4305-2-4-0-0-6-7-1-6-03-5"
             y="4664.4155"
             x="108.26411"
             style="font-style:normal;font-weight:normal;line-height:0%;font-family:'Bitstream Vera Sans';fill:#000000;fill-opacity:1;stroke:none"
             xml:space="preserve"><tspan
               y="4664.4155"
               x="108.26411"
               id="tspan4307-7-9-9-4-2-9-5-0-40-0"
               sodipodi:role="line"
               style="font-size:15.3482px;line-height:1.25">-</tspan></text>
        </g>
      </g>
      <path
         transform="matrix(2,0,0,1.9999986,-482,193.63786)"
         d="m 307,28.362183 c 0,0.552284 -0.44772,1 -1,1 -0.55228,0 -1,-0.447716 -1,-1 0,-0.552285 0.44772,-1 1,-1 0.55228,0 1,0.447715 1,1 z"
         sodipodi:ry="1"
         sodipodi:rx="1"
         sodipodi:cy="28.362183"
         sodipodi:cx="306"
         id="path6451-2-6"
         style="fill:#000000;fill-opacity:1;stroke:#000000;stroke-opacity:1"
         sodipodi:type="arc" />
      <path
         transform="matrix(2,0,0,1.9999986,-482,233.63786)"
         d="m 307,28.362183 c 0,0.552284 -0.44772,1 -1,1 -0.55228,0 -1,-0.447716 -1,-1 0,-0.552285 0.44772,-1 1,-1 0.55228,0 1,0.447715 1,1 z"
         sodipodi:ry="1"
         sodipodi:rx="1"
         sodipodi:cy="28.362183"
         sodipodi:cx="306"
         id="path6451-2-0"
         style="fill:#000000;fill-opacity:1;stroke:#000000;stroke-opacity:1"
         sodipodi:type="arc" />
      <text
         xml:space="preserve"
         style="font-style:normal;font-variant:normal;font-weight:normal;font-stretch:normal;line-height:0%;font-family:Arial;-inkscape-font-specification:Arial;text-align:start;writing-mode:lr-tb;text-anchor:start;fill:#000000;fill-opacity:1;stroke:none"
         x="115"
         y="290.36221"
         id="text60130-9-2"><tspan
           sodipodi:role="line"
           id="tspan60132-3-1"
           x="115"
           y="290.36221"
           style="font-size:8px;line-height:1">(2)</tspan></text>
      <text
         xml:space="preserve"
         style="font-style:normal;font-variant:normal;font-weight:normal;font-stretch:normal;line-height:0%;font-family:Arial;-inkscape-font-specification:Arial;text-align:start;writing-mode:lr-tb;text-anchor:start;fill:#000000;fill-opacity:1;stroke:none"
         x="115"
         y="250.3622"
         id="text60130-0"><tspan
           sodipodi:role="line"
           id="tspan60132-5"
           x="115"
           y="250.3622"
           style="font-size:8px;line-height:1">(1)</tspan></text>
    </g>
    <text
       id="text60370-1"
       y="127.36218"
       x="50"
       style="font-style:normal;font-variant:normal;font-weight:bold;font-stretch:normal;line-height:0%;font-family:'Courier New';-inkscape-font-specification:'Courier New Bold';text-align:start;writing-mode:lr-tb;text-anchor:start;fill:#000000;fill-opacity:1;stroke:none"
       xml:space="preserve"><tspan
         y="127.36218"
         x="50"
         id="tspan60372-0"
         sodipodi:role="line"
         style="font-size:8px;line-height:1">Vx 1 2 {V}</tspan></text>
    <text
       xml:space="preserve"
       style="font-style:normal;font-variant:normal;font-weight:normal;font-stretch:normal;line-height:0%;font-family:sans-serif;-inkscape-font-specification:Sans;text-align:start;letter-spacing:0px;word-spacing:0px;writing-mode:lr-tb;text-anchor:start;fill:#000000;fill-opacity:1;stroke:none"
       x="50"
       y="112.36218"
       id="text13474-1"><tspan
         sodipodi:role="line"
         id="tspan13476-2"
         x="50"
         y="112.36218"
         style="font-size:10px;line-height:1.25;font-family:sans-serif">Independent voltage source</tspan></text>
    <path
       style="fill:none;stroke:#000000;stroke-width:1px;stroke-linecap:butt;stroke-linejoin:miter;stroke-opacity:1;marker-end:url(#Arrow2Mend-00-6)"
       d="m 70.000003,152.36218 0,20"
       id="path26135-46"
       inkscape:connector-curvature="0" />
    <rect
       style="fill:#0064ff;fill-opacity:0.0745098;stroke:none"
       id="rect6470-9-4-1"
       y="92.362183"
       x="-55"
       height="105"
       width="425" />
    <g
       id="g20531"
       transform="translate(-124.78571,29.39343)"
       ns0:preamble=""
       ns0:text="$V$">
      <defs
         id="defs20533">
        <g
           id="g20535">
          <symbol
             id="textext-39728949-0"
             overflow="visible"
             style="overflow:visible">
            <path
               id="path20538"
               d=""
               style="stroke:none"
               inkscape:connector-curvature="0" />
          </symbol>
          <symbol
             id="textext-39728949-1"
             overflow="visible"
             style="overflow:visible">
            <path
               id="path20541"
               d="M 6.265625,-5.671875 C 6.75,-6.453125 7.171875,-6.484375 7.53125,-6.5 c 0.125,-0.015625 0.140625,-0.171875 0.140625,-0.1875 0,-0.078125 -0.0625,-0.125 -0.140625,-0.125 -0.25,0 -0.546875,0.03125 -0.8125,0.03125 -0.328125,0 -0.671875,-0.03125 -0.984375,-0.03125 -0.0625,0 -0.1875,0 -0.1875,0.1875 0,0.109375 0.078125,0.125 0.15625,0.125 0.265625,0.015625 0.453125,0.125 0.453125,0.328125 0,0.15625 -0.140625,0.375 -0.140625,0.375 l -3.0625,4.875 -0.6875,-5.28125 C 2.265625,-6.375 2.5,-6.5 2.953125,-6.5 c 0.140625,0 0.25,0 0.25,-0.203125 0,-0.078125 -0.078125,-0.109375 -0.125,-0.109375 -0.40625,0 -0.828125,0.03125 -1.25,0.03125 -0.171875,0 -0.359375,0 -0.546875,0 -0.171875,0 -0.359375,-0.03125 -0.53125,-0.03125 -0.078125,0 -0.1875,0 -0.1875,0.1875 0,0.125 0.078125,0.125 0.25,0.125 0.546875,0 0.5625,0.09375 0.59375,0.34375 L 2.1875,-0.015625 C 2.21875,0.1875 2.265625,0.21875 2.390625,0.21875 c 0.15625,0 0.203125,-0.046875 0.28125,-0.171875 z m 0,0"
               style="stroke:none"
               inkscape:connector-curvature="0" />
          </symbol>
        </g>
      </defs>
      <g
         id="textext-39728949-2">
        <g
           id="g20544"
           style="fill:#000000;fill-opacity:1">
          <use
             id="use20546"
             y="134.765"
             x="223.43201"
             xlink:href="#textext-39728949-1"
             width="744.09448"
             height="1052.3622" />
        </g>
      </g>
    </g>
    <g
       transform="translate(53.823375,156.72806)"
       ns0:version="1.10.2"
       ns0:texconverter="pdflatex"
       ns0:pdfconverter="inkscape"
       ns0:text="$I_\\mathrm{Vx}$"
       ns0:preamble="/home/anton/.config/inkscape/extensions/textext/default_packages.tex"
       ns0:scale="0.75"
       ns0:alignment="middle center"
       ns0:stroke-to-path="0"
       ns0:inkscapeversion="0.48.4"
       ns0:jacobian_sqrt="1.0"
       id="g20161">
      <defs
         id="id-d46e8783-cbdd-469b-8016-3061de087187">
        <g
           id="id-8f3eb082-dd46-46cd-b767-6334ab89af5e">
          <g
             id="id-520052a8-f48d-43e9-9e8b-54a3d5d37886">
            <path
               d="M 3.734375,-6.046875 C 3.8125,-6.40625 3.84375,-6.5 4.640625,-6.5 c 0.234375,0 0.3125,0 0.3125,-0.1875 0,-0.125 -0.109375,-0.125 -0.140625,-0.125 -0.296875,0 -1.03125,0.03125 -1.328125,0.03125 -0.296875,0 -1.015625,-0.03125 -1.328125,-0.03125 -0.0625,0 -0.1875,0 -0.1875,0.203125 C 1.96875,-6.5 2.046875,-6.5 2.25,-6.5 c 0.40625,0 0.6875,0 0.6875,0.1875 0,0.046875 0,0.078125 -0.03125,0.15625 l -1.34375,5.375 c -0.09375,0.375 -0.109375,0.46875 -0.90625,0.46875 -0.234375,0 -0.3125,0 -0.3125,0.203125 C 0.34375,0 0.453125,0 0.484375,0 0.78125,0 1.5,-0.03125 1.796875,-0.03125 2.09375,-0.03125 2.828125,0 3.125,0 c 0.078125,0 0.203125,0 0.203125,-0.1875 0,-0.125 -0.078125,-0.125 -0.296875,-0.125 -0.1875,0 -0.234375,0 -0.421875,-0.015625 -0.21875,-0.015625 -0.25,-0.0625 -0.25,-0.171875 0,-0.078125 0.015625,-0.15625 0.03125,-0.234375 z m 0,0"
               id="id-0a21a7c6-ce8a-46ce-9c19-8af5afff1aa0" />
          </g>
          <g
             id="id-2d4d80bb-9bdb-474d-85bc-25d56239fa65">
            <path
               d="M 4.859375,-4.046875 C 4.953125,-4.265625 5.125,-4.5 5.65625,-4.515625 v -0.25 c -0.203125,0.03125 -0.484375,0.03125 -0.6875,0.03125 -0.265625,0 -0.78125,-0.03125 -0.828125,-0.03125 v 0.25 c 0.25,0 0.484375,0.125 0.484375,0.328125 0,0.0625 -0.015625,0.109375 -0.046875,0.15625 l -1.4375,3.359375 -1.5,-3.53125 C 1.59375,-4.28125 1.59375,-4.296875 1.59375,-4.328125 c 0,-0.1875 0.359375,-0.1875 0.546875,-0.1875 v -0.25 c -0.34375,0.015625 -0.78125,0.03125 -1.03125,0.03125 -0.34375,0 -0.875,-0.03125 -0.890625,-0.03125 v 0.25 h 0.109375 c 0.375,0 0.5,0.046875 0.59375,0.25 l 1.8125,4.25 c 0.046875,0.109375 0.0625,0.15625 0.203125,0.15625 0.0625,0 0.140625,0 0.203125,-0.140625 z m 0,0"
               id="id-39eaa06c-6fa2-4a02-a021-db4fc2de85ed" />
          </g>
          <g
             id="id-fc854204-be76-4529-abcd-1fed5398a32d">
            <path
               d="m 2.359375,-1.5625 c 0,0 -0.046875,-0.0625 -0.046875,-0.0625 0,-0.03125 0.453125,-0.515625 0.515625,-0.578125 C 3.078125,-2.484375 3.3125,-2.75 3.875,-2.75 V -3 C 3.671875,-2.984375 3.46875,-2.96875 3.28125,-2.96875 3.078125,-2.96875 2.796875,-2.984375 2.59375,-3 v 0.25 c 0.109375,0.015625 0.140625,0.09375 0.140625,0.15625 0,0.015625 0,0.125 -0.109375,0.234375 L 2.140625,-1.8125 1.5625,-2.46875 C 1.484375,-2.546875 1.484375,-2.578125 1.484375,-2.609375 c 0,-0.09375 0.09375,-0.140625 0.1875,-0.140625 V -3 c -0.25,0.015625 -0.515625,0.03125 -0.78125,0.03125 C 0.6875,-2.96875 0.421875,-2.984375 0.21875,-3 v 0.25 c 0.3125,0 0.5,0 0.6875,0.203125 l 0.859375,1 c 0.015625,0.015625 0.0625,0.0625 0.0625,0.078125 0,0.015625 -0.53125,0.59375 -0.59375,0.671875 -0.265625,0.28125 -0.5,0.53125 -1.046875,0.546875 V 0 C 0.390625,-0.015625 0.546875,-0.03125 0.765625,-0.03125 0.96875,-0.03125 1.25,-0.015625 1.453125,0 V -0.25 C 1.375,-0.265625 1.3125,-0.3125 1.3125,-0.40625 1.3125,-0.546875 1.390625,-0.640625 1.5,-0.75 L 2,-1.296875 2.59375,-0.59375 c 0.140625,0.140625 0.140625,0.15625 0.140625,0.203125 0,0.125 -0.15625,0.140625 -0.1875,0.140625 V 0 c 0.0625,0 0.5625,-0.03125 0.78125,-0.03125 C 3.546875,-0.03125 3.78125,-0.015625 4,0 v -0.25 c -0.46875,0 -0.515625,-0.046875 -0.6875,-0.21875 z m 0,0"
               id="id-e7f53cd9-4eba-4ccf-9f62-9eb9da459c87" />
          </g>
        </g>
      </defs>
      <g
         fill="#000000"
         fill-opacity="1"
         id="id-c1a6f669-538d-4389-894e-2c7d8a32a36a"
         transform="translate(-149.056,-127.953)">
        <g
           transform="translate(148.712,134.765)"
           id="g1">
          <path
             d="M 3.734375,-6.046875 C 3.8125,-6.40625 3.84375,-6.5 4.640625,-6.5 c 0.234375,0 0.3125,0 0.3125,-0.1875 0,-0.125 -0.109375,-0.125 -0.140625,-0.125 -0.296875,0 -1.03125,0.03125 -1.328125,0.03125 -0.296875,0 -1.015625,-0.03125 -1.328125,-0.03125 -0.0625,0 -0.1875,0 -0.1875,0.203125 C 1.96875,-6.5 2.046875,-6.5 2.25,-6.5 c 0.40625,0 0.6875,0 0.6875,0.1875 0,0.046875 0,0.078125 -0.03125,0.15625 l -1.34375,5.375 c -0.09375,0.375 -0.109375,0.46875 -0.90625,0.46875 -0.234375,0 -0.3125,0 -0.3125,0.203125 C 0.34375,0 0.453125,0 0.484375,0 0.78125,0 1.5,-0.03125 1.796875,-0.03125 2.09375,-0.03125 2.828125,0 3.125,0 c 0.078125,0 0.203125,0 0.203125,-0.1875 0,-0.125 -0.078125,-0.125 -0.296875,-0.125 -0.1875,0 -0.234375,0 -0.421875,-0.015625 -0.21875,-0.015625 -0.25,-0.0625 -0.25,-0.171875 0,-0.078125 0.015625,-0.15625 0.03125,-0.234375 z m 0,0"
             id="id-9f02d07e-5455-48b1-b47c-07a03cab5504" />
        </g>
      </g>
      <g
         fill="#000000"
         fill-opacity="1"
         id="id-0aeea775-b108-4dd7-96d9-6ee5472ceb6a"
         transform="translate(-149.056,-127.953)">
        <g
           transform="translate(153.092,136.259)"
           id="g2">
          <path
             d="M 4.859375,-4.046875 C 4.953125,-4.265625 5.125,-4.5 5.65625,-4.515625 v -0.25 c -0.203125,0.03125 -0.484375,0.03125 -0.6875,0.03125 -0.265625,0 -0.78125,-0.03125 -0.828125,-0.03125 v 0.25 c 0.25,0 0.484375,0.125 0.484375,0.328125 0,0.0625 -0.015625,0.109375 -0.046875,0.15625 l -1.4375,3.359375 -1.5,-3.53125 C 1.59375,-4.28125 1.59375,-4.296875 1.59375,-4.328125 c 0,-0.1875 0.359375,-0.1875 0.546875,-0.1875 v -0.25 c -0.34375,0.015625 -0.78125,0.03125 -1.03125,0.03125 -0.34375,0 -0.875,-0.03125 -0.890625,-0.03125 v 0.25 h 0.109375 c 0.375,0 0.5,0.046875 0.59375,0.25 l 1.8125,4.25 c 0.046875,0.109375 0.0625,0.15625 0.203125,0.15625 0.0625,0 0.140625,0 0.203125,-0.140625 z m 0,0"
             id="id-b10da518-200c-4ba8-933e-5d25530e88c4" />
        </g>
        <g
           transform="translate(158.973,136.259)"
           id="g3">
          <path
             d="m 2.359375,-1.5625 c 0,0 -0.046875,-0.0625 -0.046875,-0.0625 0,-0.03125 0.453125,-0.515625 0.515625,-0.578125 C 3.078125,-2.484375 3.3125,-2.75 3.875,-2.75 V -3 C 3.671875,-2.984375 3.46875,-2.96875 3.28125,-2.96875 3.078125,-2.96875 2.796875,-2.984375 2.59375,-3 v 0.25 c 0.109375,0.015625 0.140625,0.09375 0.140625,0.15625 0,0.015625 0,0.125 -0.109375,0.234375 L 2.140625,-1.8125 1.5625,-2.46875 C 1.484375,-2.546875 1.484375,-2.578125 1.484375,-2.609375 c 0,-0.09375 0.09375,-0.140625 0.1875,-0.140625 V -3 c -0.25,0.015625 -0.515625,0.03125 -0.78125,0.03125 C 0.6875,-2.96875 0.421875,-2.984375 0.21875,-3 v 0.25 c 0.3125,0 0.5,0 0.6875,0.203125 l 0.859375,1 c 0.015625,0.015625 0.0625,0.0625 0.0625,0.078125 0,0.015625 -0.53125,0.59375 -0.59375,0.671875 -0.265625,0.28125 -0.5,0.53125 -1.046875,0.546875 V 0 C 0.390625,-0.015625 0.546875,-0.03125 0.765625,-0.03125 0.96875,-0.03125 1.25,-0.015625 1.453125,0 V -0.25 C 1.375,-0.265625 1.3125,-0.3125 1.3125,-0.40625 1.3125,-0.546875 1.390625,-0.640625 1.5,-0.75 L 2,-1.296875 2.59375,-0.59375 c 0.140625,0.140625 0.140625,0.15625 0.140625,0.203125 0,0.125 -0.15625,0.140625 -0.1875,0.140625 V 0 c 0.0625,0 0.5625,-0.03125 0.78125,-0.03125 C 3.546875,-0.03125 3.78125,-0.015625 4,0 v -0.25 c -0.46875,0 -0.515625,-0.046875 -0.6875,-0.21875 z m 0,0"
             id="id-1ee3a26b-6590-481f-bdc2-0d9d4663c171" />
        </g>
      </g>
    </g>
    <g
       transform="translate(119.27837,144.26806)"
       ns0:version="1.10.2"
       ns0:texconverter="pdflatex"
       ns0:pdfconverter="inkscape"
       ns0:text="$\\left[\n\\begin{array}\n[c]{c}%\n0\\\\\n0\\\\\nV\n\\end{array}\n\\right]  =\\left[\n\\begin{array}\n[c]{ccc}%\n0 &amp; 0 &amp; 1\\\\\n0 &amp; 0 &amp; -1\\\\\n1 &amp; -1 &amp; 0\n\\end{array}\n\\right]  \\left[\n\\begin{array}\n[c]{c}%\nV_{1}\\\\\nV_{2}\\\\\nI_\\mathrm{Vx}%\n\\end{array}\n\\right]  $"
       ns0:preamble="/home/anton/.config/inkscape/extensions/textext/default_packages.tex"
       ns0:scale="0.75"
       ns0:alignment="middle center"
       ns0:stroke-to-path="0"
       ns0:inkscapeversion="0.48.4"
       ns0:jacobian_sqrt="1.0"
       id="g19638">
      <defs
         id="id-5c14c4fc-3f53-4793-ac53-f6a693f59136">
        <g
           id="id-7b44509d-1767-4f7d-a594-d35684099b61">
          <g
             id="id-880234fa-4c18-47ae-b84e-56bbc51746d6">
            <path
               d="m 3.25,17.546875 h 0.6875 v -17.25 h 2.625 v -0.6875 H 3.25 Z m 0,0"
               id="id-e1da3903-a36e-4a97-b4b9-3e89c5f9b487" />
          </g>
          <g
             id="id-e881d5d5-aff7-41b8-9823-db9aeabfb84f">
            <path
               d="m 3.25,17.53125 h 3.3125 v -0.6875 h -2.625 v -17.25 H 3.25 Z m 0,0"
               id="id-9df2e0f3-505d-4d42-9a98-25c86ab1c99e" />
          </g>
          <g
             id="id-b6a52c89-777b-455d-8439-05b4fea0bf84">
            <path
               d="m 2.703125,17.546875 h 0.6875 v -17.9375 H 0.0625 v 0.6875 h 2.640625 z m 0,0"
               id="id-f16e6e2e-c813-4751-9c29-f4e806d072a5" />
          </g>
          <g
             id="id-61174f41-2fb7-4f95-9135-ee7e06a4a907">
            <path
               d="M 2.703125,16.84375 H 0.0625 v 0.6875 h 3.328125 v -17.9375 h -0.6875 z m 0,0"
               id="id-bf8f031a-ec57-43c0-a297-0f7bf0bfd030" />
          </g>
          <g
             id="id-d5519d48-ccb1-464d-81f4-f4d066294ddc">
            <path
               d="m 4.578125,-3.1875 c 0,-0.796875 -0.046875,-1.59375 -0.390625,-2.328125 -0.453125,-0.96875 -1.28125,-1.125 -1.6875,-1.125 -0.609375,0 -1.328125,0.265625 -1.75,1.1875 -0.3125,0.6875 -0.359375,1.46875 -0.359375,2.265625 0,0.75 0.03125,1.640625 0.453125,2.40625 0.421875,0.796875 1.15625,1 1.640625,1 0.53125,0 1.296875,-0.203125 1.734375,-1.15625 0.3125,-0.6875 0.359375,-1.46875 0.359375,-2.25 z M 2.484375,0 C 2.09375,0 1.5,-0.25 1.328125,-1.203125 1.21875,-1.796875 1.21875,-2.71875 1.21875,-3.3125 c 0,-0.640625 0,-1.296875 0.078125,-1.828125 0.1875,-1.1875 0.9375,-1.28125 1.1875,-1.28125 0.328125,0 0.984375,0.1875 1.171875,1.171875 0.109375,0.5625 0.109375,1.3125 0.109375,1.9375 0,0.75 0,1.421875 -0.109375,2.0625 C 3.5,-0.296875 2.9375,0 2.484375,0 Z m 0,0"
               id="id-300eb49b-dd34-4828-8d21-8db190559fdf" />
          </g>
          <g
             id="id-4776c1bf-5868-4ad2-91ee-abc40328d8f5">
            <path
               d="m 6.84375,-3.265625 c 0.15625,0 0.34375,0 0.34375,-0.1875 C 7.1875,-3.65625 7,-3.65625 6.859375,-3.65625 h -5.96875 c -0.140625,0 -0.328125,0 -0.328125,0.203125 0,0.1875 0.1875,0.1875 0.328125,0.1875 z m 0.015625,1.9375 c 0.140625,0 0.328125,0 0.328125,-0.203125 0,-0.1875 -0.1875,-0.1875 -0.34375,-0.1875 H 0.890625 c -0.140625,0 -0.328125,0 -0.328125,0.1875 0,0.203125 0.1875,0.203125 0.328125,0.203125 z m 0,0"
               id="id-ab67d653-5608-463a-9087-ca78ca336dba" />
          </g>
          <g
             id="id-a0d483a6-85dc-49a3-88ad-e74fd1054667">
            <path
               d="m 2.9375,-6.375 c 0,-0.25 0,-0.265625 -0.234375,-0.265625 C 2.078125,-6 1.203125,-6 0.890625,-6 v 0.3125 c 0.203125,0 0.78125,0 1.296875,-0.265625 v 5.171875 c 0,0.359375 -0.03125,0.46875 -0.921875,0.46875 h -0.3125 V 0 c 0.34375,-0.03125 1.203125,-0.03125 1.609375,-0.03125 0.390625,0 1.265625,0 1.609375,0.03125 v -0.3125 h -0.3125 c -0.90625,0 -0.921875,-0.109375 -0.921875,-0.46875 z m 0,0"
               id="id-cf95bc12-5496-46ce-94ca-483da0911a00" />
          </g>
          <g
             id="id-91c9d176-bd30-42dc-9a32-2ae1224bfb02">
            <path
               d="M 6.265625,-5.671875 C 6.75,-6.453125 7.171875,-6.484375 7.53125,-6.5 c 0.125,-0.015625 0.140625,-0.171875 0.140625,-0.1875 0,-0.078125 -0.0625,-0.125 -0.140625,-0.125 -0.25,0 -0.546875,0.03125 -0.8125,0.03125 -0.328125,0 -0.671875,-0.03125 -0.984375,-0.03125 -0.0625,0 -0.1875,0 -0.1875,0.1875 0,0.109375 0.078125,0.125 0.15625,0.125 0.265625,0.015625 0.453125,0.125 0.453125,0.328125 0,0.15625 -0.140625,0.375 -0.140625,0.375 l -3.0625,4.875 -0.6875,-5.28125 C 2.265625,-6.375 2.5,-6.5 2.953125,-6.5 c 0.140625,0 0.25,0 0.25,-0.203125 0,-0.078125 -0.078125,-0.109375 -0.125,-0.109375 -0.40625,0 -0.828125,0.03125 -1.25,0.03125 -0.171875,0 -0.359375,0 -0.546875,0 -0.171875,0 -0.359375,-0.03125 -0.53125,-0.03125 -0.078125,0 -0.1875,0 -0.1875,0.1875 0,0.125 0.078125,0.125 0.25,0.125 0.546875,0 0.5625,0.09375 0.59375,0.34375 L 2.1875,-0.015625 C 2.21875,0.1875 2.265625,0.21875 2.390625,0.21875 c 0.15625,0 0.203125,-0.046875 0.28125,-0.171875 z m 0,0"
               id="id-07040b20-adc8-4385-b32c-480818fa2615" />
          </g>
          <g
             id="id-25c825f5-6cf4-4722-b01b-0ca63516cfdd">
            <path
               d="M 3.734375,-6.046875 C 3.8125,-6.40625 3.84375,-6.5 4.640625,-6.5 c 0.234375,0 0.3125,0 0.3125,-0.1875 0,-0.125 -0.109375,-0.125 -0.140625,-0.125 -0.296875,0 -1.03125,0.03125 -1.328125,0.03125 -0.296875,0 -1.015625,-0.03125 -1.328125,-0.03125 -0.0625,0 -0.1875,0 -0.1875,0.203125 C 1.96875,-6.5 2.046875,-6.5 2.25,-6.5 c 0.40625,0 0.6875,0 0.6875,0.1875 0,0.046875 0,0.078125 -0.03125,0.15625 l -1.34375,5.375 c -0.09375,0.375 -0.109375,0.46875 -0.90625,0.46875 -0.234375,0 -0.3125,0 -0.3125,0.203125 C 0.34375,0 0.453125,0 0.484375,0 0.78125,0 1.5,-0.03125 1.796875,-0.03125 2.09375,-0.03125 2.828125,0 3.125,0 c 0.078125,0 0.203125,0 0.203125,-0.1875 0,-0.125 -0.078125,-0.125 -0.296875,-0.125 -0.1875,0 -0.234375,0 -0.421875,-0.015625 -0.21875,-0.015625 -0.25,-0.0625 -0.25,-0.171875 0,-0.078125 0.015625,-0.15625 0.03125,-0.234375 z m 0,0"
               id="id-f7c0145e-cd54-40d3-beab-6c8941ab6e9f" />
          </g>
          <g
             id="id-c650f70e-a3cc-42d5-bcf2-ef99ae741bad">
            <path
               d="m 6.5625,-2.296875 c 0.171875,0 0.359375,0 0.359375,-0.203125 0,-0.1875 -0.1875,-0.1875 -0.359375,-0.1875 H 1.171875 c -0.171875,0 -0.34375,0 -0.34375,0.1875 0,0.203125 0.171875,0.203125 0.34375,0.203125 z m 0,0"
               id="id-6f45373c-8f57-463a-bff5-7fc2d8afb598" />
          </g>
          <g
             id="id-a48a674d-0e44-45c0-8361-be1ef6051a1b">
            <path
               d="m 2.328125,-4.4375 c 0,-0.1875 0,-0.1875 -0.203125,-0.1875 -0.453125,0.4375 -1.078125,0.4375 -1.359375,0.4375 v 0.25 c 0.15625,0 0.625,0 1,-0.1875 v 3.546875 c 0,0.234375 0,0.328125 -0.6875,0.328125 H 0.8125 V 0 c 0.125,0 0.984375,-0.03125 1.234375,-0.03125 0.21875,0 1.09375,0.03125 1.25,0.03125 V -0.25 H 3.03125 c -0.703125,0 -0.703125,-0.09375 -0.703125,-0.328125 z m 0,0"
               id="id-6366434c-0cc1-4e28-9bf0-45b9889d48f1" />
          </g>
          <g
             id="id-8343c3fd-0e4c-4112-9191-449911973f72">
            <path
               d="M 3.515625,-1.265625 H 3.28125 c -0.015625,0.15625 -0.09375,0.5625 -0.1875,0.625 C 3.046875,-0.59375 2.515625,-0.59375 2.40625,-0.59375 H 1.125 c 0.734375,-0.640625 0.984375,-0.84375 1.390625,-1.171875 0.515625,-0.40625 1,-0.84375 1,-1.5 0,-0.84375 -0.734375,-1.359375 -1.625,-1.359375 -0.859375,0 -1.453125,0.609375 -1.453125,1.25 0,0.34375 0.296875,0.390625 0.375,0.390625 0.15625,0 0.359375,-0.125 0.359375,-0.375 0,-0.125 -0.046875,-0.375 -0.40625,-0.375 C 0.984375,-4.21875 1.453125,-4.375 1.78125,-4.375 c 0.703125,0 1.0625,0.546875 1.0625,1.109375 0,0.609375 -0.4375,1.078125 -0.65625,1.328125 L 0.515625,-0.265625 C 0.4375,-0.203125 0.4375,-0.1875 0.4375,0 h 2.875 z m 0,0"
               id="id-c664de55-0f1d-42e0-8378-536ca7f789f4" />
          </g>
          <g
             id="id-8d2c1a0c-84f1-4e54-8ddf-dcb8441dd314">
            <path
               d="M 4.859375,-4.046875 C 4.953125,-4.265625 5.125,-4.5 5.65625,-4.515625 v -0.25 c -0.203125,0.03125 -0.484375,0.03125 -0.6875,0.03125 -0.265625,0 -0.78125,-0.03125 -0.828125,-0.03125 v 0.25 c 0.25,0 0.484375,0.125 0.484375,0.328125 0,0.0625 -0.015625,0.109375 -0.046875,0.15625 l -1.4375,3.359375 -1.5,-3.53125 C 1.59375,-4.28125 1.59375,-4.296875 1.59375,-4.328125 c 0,-0.1875 0.359375,-0.1875 0.546875,-0.1875 v -0.25 c -0.34375,0.015625 -0.78125,0.03125 -1.03125,0.03125 -0.34375,0 -0.875,-0.03125 -0.890625,-0.03125 v 0.25 h 0.109375 c 0.375,0 0.5,0.046875 0.59375,0.25 l 1.8125,4.25 c 0.046875,0.109375 0.0625,0.15625 0.203125,0.15625 0.0625,0 0.140625,0 0.203125,-0.140625 z m 0,0"
               id="id-990e7adb-cea5-43d3-a521-844b3ebe0cd9" />
          </g>
          <g
             id="id-e3a5180f-5fee-4076-82cd-279efcd9782c">
            <path
               d="m 2.359375,-1.5625 c 0,0 -0.046875,-0.0625 -0.046875,-0.0625 0,-0.03125 0.453125,-0.515625 0.515625,-0.578125 C 3.078125,-2.484375 3.3125,-2.75 3.875,-2.75 V -3 C 3.671875,-2.984375 3.46875,-2.96875 3.28125,-2.96875 3.078125,-2.96875 2.796875,-2.984375 2.59375,-3 v 0.25 c 0.109375,0.015625 0.140625,0.09375 0.140625,0.15625 0,0.015625 0,0.125 -0.109375,0.234375 L 2.140625,-1.8125 1.5625,-2.46875 C 1.484375,-2.546875 1.484375,-2.578125 1.484375,-2.609375 c 0,-0.09375 0.09375,-0.140625 0.1875,-0.140625 V -3 c -0.25,0.015625 -0.515625,0.03125 -0.78125,0.03125 C 0.6875,-2.96875 0.421875,-2.984375 0.21875,-3 v 0.25 c 0.3125,0 0.5,0 0.6875,0.203125 l 0.859375,1 c 0.015625,0.015625 0.0625,0.0625 0.0625,0.078125 0,0.015625 -0.53125,0.59375 -0.59375,0.671875 -0.265625,0.28125 -0.5,0.53125 -1.046875,0.546875 V 0 C 0.390625,-0.015625 0.546875,-0.03125 0.765625,-0.03125 0.96875,-0.03125 1.25,-0.015625 1.453125,0 V -0.25 C 1.375,-0.265625 1.3125,-0.3125 1.3125,-0.40625 1.3125,-0.546875 1.390625,-0.640625 1.5,-0.75 L 2,-1.296875 2.59375,-0.59375 c 0.140625,0.140625 0.140625,0.15625 0.140625,0.203125 0,0.125 -0.15625,0.140625 -0.1875,0.140625 V 0 c 0.0625,0 0.5625,-0.03125 0.78125,-0.03125 C 3.546875,-0.03125 3.78125,-0.015625 4,0 v -0.25 c -0.46875,0 -0.515625,-0.046875 -0.6875,-0.21875 z m 0,0"
               id="id-f8080885-7f9e-4e38-86c4-ae5e5448f1d1" />
          </g>
        </g>
      </defs>
      <g
         fill="#000000"
         fill-opacity="1"
         id="id-b7376004-ece4-4a36-a18e-4e16c383af4e"
         transform="translate(-151.962,-124.809)">
        <g
           transform="translate(148.712,125.2)"
           id="g4">
          <path
             d="m 3.25,17.546875 h 0.6875 v -17.25 h 2.625 v -0.6875 H 3.25 Z m 0,0"
             id="id-7473d0ef-27ac-49cf-9081-b6279b7997cf" />
        </g>
      </g>
      <g
         fill="#000000"
         fill-opacity="1"
         id="id-08887d01-3e62-4d96-b374-7f717e3a423b"
         transform="translate(-151.962,-124.809)">
        <g
           transform="translate(148.712,143.133)"
           id="g5">
          <path
             d="m 3.25,17.53125 h 3.3125 v -0.6875 h -2.625 v -17.25 H 3.25 Z m 0,0"
             id="id-2847adef-72ed-4a46-89b9-3274cf81c15a" />
        </g>
      </g>
      <g
         fill="#000000"
         fill-opacity="1"
         id="id-4ab43322-9d2f-487c-a60f-83a07b2aed2e"
         transform="translate(-151.962,-124.809)">
        <g
           transform="translate(161.857,133.171)"
           id="g6">
          <path
             d="m 4.578125,-3.1875 c 0,-0.796875 -0.046875,-1.59375 -0.390625,-2.328125 -0.453125,-0.96875 -1.28125,-1.125 -1.6875,-1.125 -0.609375,0 -1.328125,0.265625 -1.75,1.1875 -0.3125,0.6875 -0.359375,1.46875 -0.359375,2.265625 0,0.75 0.03125,1.640625 0.453125,2.40625 0.421875,0.796875 1.15625,1 1.640625,1 0.53125,0 1.296875,-0.203125 1.734375,-1.15625 0.3125,-0.6875 0.359375,-1.46875 0.359375,-2.25 z M 2.484375,0 C 2.09375,0 1.5,-0.25 1.328125,-1.203125 1.21875,-1.796875 1.21875,-2.71875 1.21875,-3.3125 c 0,-0.640625 0,-1.296875 0.078125,-1.828125 0.1875,-1.1875 0.9375,-1.28125 1.1875,-1.28125 0.328125,0 0.984375,0.1875 1.171875,1.171875 0.109375,0.5625 0.109375,1.3125 0.109375,1.9375 0,0.75 0,1.421875 -0.109375,2.0625 C 3.5,-0.296875 2.9375,0 2.484375,0 Z m 0,0"
             id="id-62a86837-a948-4260-a1c6-8577f2243092" />
        </g>
      </g>
      <g
         fill="#000000"
         fill-opacity="1"
         id="id-f739b661-88b5-46d7-b3df-5bf2be354e84"
         transform="translate(-151.962,-124.809)">
        <g
           transform="translate(161.857,145.126)"
           id="g7">
          <path
             d="m 4.578125,-3.1875 c 0,-0.796875 -0.046875,-1.59375 -0.390625,-2.328125 -0.453125,-0.96875 -1.28125,-1.125 -1.6875,-1.125 -0.609375,0 -1.328125,0.265625 -1.75,1.1875 -0.3125,0.6875 -0.359375,1.46875 -0.359375,2.265625 0,0.75 0.03125,1.640625 0.453125,2.40625 0.421875,0.796875 1.15625,1 1.640625,1 0.53125,0 1.296875,-0.203125 1.734375,-1.15625 0.3125,-0.6875 0.359375,-1.46875 0.359375,-2.25 z M 2.484375,0 C 2.09375,0 1.5,-0.25 1.328125,-1.203125 1.21875,-1.796875 1.21875,-2.71875 1.21875,-3.3125 c 0,-0.640625 0,-1.296875 0.078125,-1.828125 0.1875,-1.1875 0.9375,-1.28125 1.1875,-1.28125 0.328125,0 0.984375,0.1875 1.171875,1.171875 0.109375,0.5625 0.109375,1.3125 0.109375,1.9375 0,0.75 0,1.421875 -0.109375,2.0625 C 3.5,-0.296875 2.9375,0 2.484375,0 Z m 0,0"
             id="id-280dc2a3-8875-480b-959f-ae09fd5d21bb" />
        </g>
      </g>
      <g
         fill="#000000"
         fill-opacity="1"
         id="id-05feab54-7981-4ff0-9342-2a5fcb8390b7"
         transform="translate(-151.962,-124.809)">
        <g
           transform="translate(160.335,157.081)"
           id="g8">
          <path
             d="M 6.265625,-5.671875 C 6.75,-6.453125 7.171875,-6.484375 7.53125,-6.5 c 0.125,-0.015625 0.140625,-0.171875 0.140625,-0.1875 0,-0.078125 -0.0625,-0.125 -0.140625,-0.125 -0.25,0 -0.546875,0.03125 -0.8125,0.03125 -0.328125,0 -0.671875,-0.03125 -0.984375,-0.03125 -0.0625,0 -0.1875,0 -0.1875,0.1875 0,0.109375 0.078125,0.125 0.15625,0.125 0.265625,0.015625 0.453125,0.125 0.453125,0.328125 0,0.15625 -0.140625,0.375 -0.140625,0.375 l -3.0625,4.875 -0.6875,-5.28125 C 2.265625,-6.375 2.5,-6.5 2.953125,-6.5 c 0.140625,0 0.25,0 0.25,-0.203125 0,-0.078125 -0.078125,-0.109375 -0.125,-0.109375 -0.40625,0 -0.828125,0.03125 -1.25,0.03125 -0.171875,0 -0.359375,0 -0.546875,0 -0.171875,0 -0.359375,-0.03125 -0.53125,-0.03125 -0.078125,0 -0.1875,0 -0.1875,0.1875 0,0.125 0.078125,0.125 0.25,0.125 0.546875,0 0.5625,0.09375 0.59375,0.34375 L 2.1875,-0.015625 C 2.21875,0.1875 2.265625,0.21875 2.390625,0.21875 c 0.15625,0 0.203125,-0.046875 0.28125,-0.171875 z m 0,0"
             id="id-9e236903-08f2-479f-a8d7-313f8e74ad21" />
        </g>
      </g>
      <g
         fill="#000000"
         fill-opacity="1"
         id="id-5d0603d4-e4eb-40ee-b357-bde7b55c5cc1"
         transform="translate(-151.962,-124.809)">
        <g
           transform="translate(173.342,125.2)"
           id="g9">
          <path
             d="m 2.703125,17.546875 h 0.6875 v -17.9375 H 0.0625 v 0.6875 h 2.640625 z m 0,0"
             id="id-b6108601-599a-478d-845a-1d6e3b0e97ff" />
        </g>
      </g>
      <g
         fill="#000000"
         fill-opacity="1"
         id="id-da5fd842-dffe-4327-8b8e-efc86dc0e290"
         transform="translate(-151.962,-124.809)">
        <g
           transform="translate(173.342,143.133)"
           id="g10">
          <path
             d="M 2.703125,16.84375 H 0.0625 v 0.6875 h 3.328125 v -17.9375 h -0.6875 z m 0,0"
             id="id-59a28a26-1b19-4bcf-b5e0-6c28b29adb50" />
        </g>
      </g>
      <g
         fill="#000000"
         fill-opacity="1"
         id="id-fa0f1f48-c4d6-4e20-bfe6-908111cc81d3"
         transform="translate(-151.962,-124.809)">
        <g
           transform="translate(182.751,145.226)"
           id="g11">
          <path
             d="m 6.84375,-3.265625 c 0.15625,0 0.34375,0 0.34375,-0.1875 C 7.1875,-3.65625 7,-3.65625 6.859375,-3.65625 h -5.96875 c -0.140625,0 -0.328125,0 -0.328125,0.203125 0,0.1875 0.1875,0.1875 0.328125,0.1875 z m 0.015625,1.9375 c 0.140625,0 0.328125,0 0.328125,-0.203125 0,-0.1875 -0.1875,-0.1875 -0.34375,-0.1875 H 0.890625 c -0.140625,0 -0.328125,0 -0.328125,0.1875 0,0.203125 0.1875,0.203125 0.328125,0.203125 z m 0,0"
             id="id-15e0a5e2-580d-4dea-9749-1b4904c59000" />
        </g>
      </g>
      <g
         fill="#000000"
         fill-opacity="1"
         id="id-2a1bc971-fb03-4fa4-b63c-3f125d81951d"
         transform="translate(-151.962,-124.809)">
        <g
           transform="translate(193.267,125.2)"
           id="g12">
          <path
             d="m 3.25,17.546875 h 0.6875 v -17.25 h 2.625 v -0.6875 H 3.25 Z m 0,0"
             id="id-a9b1704b-2f84-4012-a2db-efadfdecfd0f" />
        </g>
      </g>
      <g
         fill="#000000"
         fill-opacity="1"
         id="id-51573b17-b8bc-4915-b6ec-471229f101dd"
         transform="translate(-151.962,-124.809)">
        <g
           transform="translate(193.267,143.133)"
           id="g13">
          <path
             d="m 3.25,17.53125 h 3.3125 v -0.6875 h -2.625 v -17.25 H 3.25 Z m 0,0"
             id="id-26c0df1b-7ca6-49a6-9d32-f72d1e35f593" />
        </g>
      </g>
      <g
         fill="#000000"
         fill-opacity="1"
         id="id-ed43840c-703e-453c-ab01-ee0a5dd0d71e"
         transform="translate(-151.962,-124.809)">
        <g
           transform="translate(204.89,133.171)"
           id="g14">
          <path
             d="m 4.578125,-3.1875 c 0,-0.796875 -0.046875,-1.59375 -0.390625,-2.328125 -0.453125,-0.96875 -1.28125,-1.125 -1.6875,-1.125 -0.609375,0 -1.328125,0.265625 -1.75,1.1875 -0.3125,0.6875 -0.359375,1.46875 -0.359375,2.265625 0,0.75 0.03125,1.640625 0.453125,2.40625 0.421875,0.796875 1.15625,1 1.640625,1 0.53125,0 1.296875,-0.203125 1.734375,-1.15625 0.3125,-0.6875 0.359375,-1.46875 0.359375,-2.25 z M 2.484375,0 C 2.09375,0 1.5,-0.25 1.328125,-1.203125 1.21875,-1.796875 1.21875,-2.71875 1.21875,-3.3125 c 0,-0.640625 0,-1.296875 0.078125,-1.828125 0.1875,-1.1875 0.9375,-1.28125 1.1875,-1.28125 0.328125,0 0.984375,0.1875 1.171875,1.171875 0.109375,0.5625 0.109375,1.3125 0.109375,1.9375 0,0.75 0,1.421875 -0.109375,2.0625 C 3.5,-0.296875 2.9375,0 2.484375,0 Z m 0,0"
             id="id-6f7f5f07-98f9-460f-a339-5b7c279b93a7" />
        </g>
      </g>
      <g
         fill="#000000"
         fill-opacity="1"
         id="id-767517a3-e197-422e-8d6a-afb88d980679"
         transform="translate(-151.962,-124.809)">
        <g
           transform="translate(223.709,133.171)"
           id="g15">
          <path
             d="m 4.578125,-3.1875 c 0,-0.796875 -0.046875,-1.59375 -0.390625,-2.328125 -0.453125,-0.96875 -1.28125,-1.125 -1.6875,-1.125 -0.609375,0 -1.328125,0.265625 -1.75,1.1875 -0.3125,0.6875 -0.359375,1.46875 -0.359375,2.265625 0,0.75 0.03125,1.640625 0.453125,2.40625 0.421875,0.796875 1.15625,1 1.640625,1 0.53125,0 1.296875,-0.203125 1.734375,-1.15625 0.3125,-0.6875 0.359375,-1.46875 0.359375,-2.25 z M 2.484375,0 C 2.09375,0 1.5,-0.25 1.328125,-1.203125 1.21875,-1.796875 1.21875,-2.71875 1.21875,-3.3125 c 0,-0.640625 0,-1.296875 0.078125,-1.828125 0.1875,-1.1875 0.9375,-1.28125 1.1875,-1.28125 0.328125,0 0.984375,0.1875 1.171875,1.171875 0.109375,0.5625 0.109375,1.3125 0.109375,1.9375 0,0.75 0,1.421875 -0.109375,2.0625 C 3.5,-0.296875 2.9375,0 2.484375,0 Z m 0,0"
             id="id-08216f46-449f-49cc-83ac-5048253f7eb4" />
        </g>
      </g>
      <g
         fill="#000000"
         fill-opacity="1"
         id="id-6eee0b4f-fa00-4538-ade3-36f76276cb6d"
         transform="translate(-151.962,-124.809)">
        <g
           transform="translate(246.404,133.171)"
           id="g16">
          <path
             d="m 2.9375,-6.375 c 0,-0.25 0,-0.265625 -0.234375,-0.265625 C 2.078125,-6 1.203125,-6 0.890625,-6 v 0.3125 c 0.203125,0 0.78125,0 1.296875,-0.265625 v 5.171875 c 0,0.359375 -0.03125,0.46875 -0.921875,0.46875 h -0.3125 V 0 c 0.34375,-0.03125 1.203125,-0.03125 1.609375,-0.03125 0.390625,0 1.265625,0 1.609375,0.03125 v -0.3125 h -0.3125 c -0.90625,0 -0.921875,-0.109375 -0.921875,-0.46875 z m 0,0"
             id="id-346201a5-b6fc-4ede-925f-54bc67316cb3" />
        </g>
      </g>
      <g
         fill="#000000"
         fill-opacity="1"
         id="id-f3b38a3e-ce8d-4437-99cd-dec36482046f"
         transform="translate(-151.962,-124.809)">
        <g
           transform="translate(204.89,145.126)"
           id="g17">
          <path
             d="m 4.578125,-3.1875 c 0,-0.796875 -0.046875,-1.59375 -0.390625,-2.328125 -0.453125,-0.96875 -1.28125,-1.125 -1.6875,-1.125 -0.609375,0 -1.328125,0.265625 -1.75,1.1875 -0.3125,0.6875 -0.359375,1.46875 -0.359375,2.265625 0,0.75 0.03125,1.640625 0.453125,2.40625 0.421875,0.796875 1.15625,1 1.640625,1 0.53125,0 1.296875,-0.203125 1.734375,-1.15625 0.3125,-0.6875 0.359375,-1.46875 0.359375,-2.25 z M 2.484375,0 C 2.09375,0 1.5,-0.25 1.328125,-1.203125 1.21875,-1.796875 1.21875,-2.71875 1.21875,-3.3125 c 0,-0.640625 0,-1.296875 0.078125,-1.828125 0.1875,-1.1875 0.9375,-1.28125 1.1875,-1.28125 0.328125,0 0.984375,0.1875 1.171875,1.171875 0.109375,0.5625 0.109375,1.3125 0.109375,1.9375 0,0.75 0,1.421875 -0.109375,2.0625 C 3.5,-0.296875 2.9375,0 2.484375,0 Z m 0,0"
             id="id-5af3d679-78b9-476f-92a0-e7a82e6b3059" />
        </g>
      </g>
      <g
         fill="#000000"
         fill-opacity="1"
         id="id-37535ea5-5860-4e55-aa1f-90919bfe6e8c"
         transform="translate(-151.962,-124.809)">
        <g
           transform="translate(223.709,145.126)"
           id="g18">
          <path
             d="m 4.578125,-3.1875 c 0,-0.796875 -0.046875,-1.59375 -0.390625,-2.328125 -0.453125,-0.96875 -1.28125,-1.125 -1.6875,-1.125 -0.609375,0 -1.328125,0.265625 -1.75,1.1875 -0.3125,0.6875 -0.359375,1.46875 -0.359375,2.265625 0,0.75 0.03125,1.640625 0.453125,2.40625 0.421875,0.796875 1.15625,1 1.640625,1 0.53125,0 1.296875,-0.203125 1.734375,-1.15625 0.3125,-0.6875 0.359375,-1.46875 0.359375,-2.25 z M 2.484375,0 C 2.09375,0 1.5,-0.25 1.328125,-1.203125 1.21875,-1.796875 1.21875,-2.71875 1.21875,-3.3125 c 0,-0.640625 0,-1.296875 0.078125,-1.828125 0.1875,-1.1875 0.9375,-1.28125 1.1875,-1.28125 0.328125,0 0.984375,0.1875 1.171875,1.171875 0.109375,0.5625 0.109375,1.3125 0.109375,1.9375 0,0.75 0,1.421875 -0.109375,2.0625 C 3.5,-0.296875 2.9375,0 2.484375,0 Z m 0,0"
             id="id-c09d16b8-a963-440b-a157-8082fb4ac599" />
        </g>
      </g>
      <g
         fill="#000000"
         fill-opacity="1"
         id="id-f6dceaa9-9ff9-431f-b063-2e1a10e5861c"
         transform="translate(-151.962,-124.809)">
        <g
           transform="translate(242.527,145.126)"
           id="g19">
          <path
             d="m 6.5625,-2.296875 c 0.171875,0 0.359375,0 0.359375,-0.203125 0,-0.1875 -0.1875,-0.1875 -0.359375,-0.1875 H 1.171875 c -0.171875,0 -0.34375,0 -0.34375,0.1875 0,0.203125 0.171875,0.203125 0.34375,0.203125 z m 0,0"
             id="id-ce98a2eb-168e-4b24-a685-89955fb72067" />
        </g>
      </g>
      <g
         fill="#000000"
         fill-opacity="1"
         id="id-cb733c8a-4f7b-48c3-8ade-9ea0b71996c0"
         transform="translate(-151.962,-124.809)">
        <g
           transform="translate(250.276,145.126)"
           id="g20">
          <path
             d="m 2.9375,-6.375 c 0,-0.25 0,-0.265625 -0.234375,-0.265625 C 2.078125,-6 1.203125,-6 0.890625,-6 v 0.3125 c 0.203125,0 0.78125,0 1.296875,-0.265625 v 5.171875 c 0,0.359375 -0.03125,0.46875 -0.921875,0.46875 h -0.3125 V 0 c 0.34375,-0.03125 1.203125,-0.03125 1.609375,-0.03125 0.390625,0 1.265625,0 1.609375,0.03125 v -0.3125 h -0.3125 c -0.90625,0 -0.921875,-0.109375 -0.921875,-0.46875 z m 0,0"
             id="id-65fd06d9-8043-4242-9e75-10d39413d184" />
        </g>
      </g>
      <g
         fill="#000000"
         fill-opacity="1"
         id="id-d690c325-fd79-4d12-a5e5-c0369d2f9b65"
         transform="translate(-151.962,-124.809)">
        <g
           transform="translate(204.89,157.081)"
           id="g21">
          <path
             d="m 2.9375,-6.375 c 0,-0.25 0,-0.265625 -0.234375,-0.265625 C 2.078125,-6 1.203125,-6 0.890625,-6 v 0.3125 c 0.203125,0 0.78125,0 1.296875,-0.265625 v 5.171875 c 0,0.359375 -0.03125,0.46875 -0.921875,0.46875 h -0.3125 V 0 c 0.34375,-0.03125 1.203125,-0.03125 1.609375,-0.03125 0.390625,0 1.265625,0 1.609375,0.03125 v -0.3125 h -0.3125 c -0.90625,0 -0.921875,-0.109375 -0.921875,-0.46875 z m 0,0"
             id="id-436e9512-582b-4662-88c4-9471b797d984" />
        </g>
      </g>
      <g
         fill="#000000"
         fill-opacity="1"
         id="id-21ce2cc4-8e40-4db2-a9af-87978de6f677"
         transform="translate(-151.962,-124.809)">
        <g
           transform="translate(219.834,157.081)"
           id="g22">
          <path
             d="m 6.5625,-2.296875 c 0.171875,0 0.359375,0 0.359375,-0.203125 0,-0.1875 -0.1875,-0.1875 -0.359375,-0.1875 H 1.171875 c -0.171875,0 -0.34375,0 -0.34375,0.1875 0,0.203125 0.171875,0.203125 0.34375,0.203125 z m 0,0"
             id="id-6022d4e3-cb5d-44a1-bd48-85eff3100505" />
        </g>
      </g>
      <g
         fill="#000000"
         fill-opacity="1"
         id="id-6f040952-3648-4789-b38a-63fb7166a495"
         transform="translate(-151.962,-124.809)">
        <g
           transform="translate(227.583,157.081)"
           id="g23">
          <path
             d="m 2.9375,-6.375 c 0,-0.25 0,-0.265625 -0.234375,-0.265625 C 2.078125,-6 1.203125,-6 0.890625,-6 v 0.3125 c 0.203125,0 0.78125,0 1.296875,-0.265625 v 5.171875 c 0,0.359375 -0.03125,0.46875 -0.921875,0.46875 h -0.3125 V 0 c 0.34375,-0.03125 1.203125,-0.03125 1.609375,-0.03125 0.390625,0 1.265625,0 1.609375,0.03125 v -0.3125 h -0.3125 c -0.90625,0 -0.921875,-0.109375 -0.921875,-0.46875 z m 0,0"
             id="id-a512c895-3e23-46f5-989f-e60bfd1c3a8f" />
        </g>
      </g>
      <g
         fill="#000000"
         fill-opacity="1"
         id="id-6851dc1b-dba0-4510-a49e-67eabd295549"
         transform="translate(-151.962,-124.809)">
        <g
           transform="translate(246.402,157.081)"
           id="g24">
          <path
             d="m 4.578125,-3.1875 c 0,-0.796875 -0.046875,-1.59375 -0.390625,-2.328125 -0.453125,-0.96875 -1.28125,-1.125 -1.6875,-1.125 -0.609375,0 -1.328125,0.265625 -1.75,1.1875 -0.3125,0.6875 -0.359375,1.46875 -0.359375,2.265625 0,0.75 0.03125,1.640625 0.453125,2.40625 0.421875,0.796875 1.15625,1 1.640625,1 0.53125,0 1.296875,-0.203125 1.734375,-1.15625 0.3125,-0.6875 0.359375,-1.46875 0.359375,-2.25 z M 2.484375,0 C 2.09375,0 1.5,-0.25 1.328125,-1.203125 1.21875,-1.796875 1.21875,-2.71875 1.21875,-3.3125 c 0,-0.640625 0,-1.296875 0.078125,-1.828125 0.1875,-1.1875 0.9375,-1.28125 1.1875,-1.28125 0.328125,0 0.984375,0.1875 1.171875,1.171875 0.109375,0.5625 0.109375,1.3125 0.109375,1.9375 0,0.75 0,1.421875 -0.109375,2.0625 C 3.5,-0.296875 2.9375,0 2.484375,0 Z m 0,0"
             id="id-65b131ed-b537-42d5-adc9-ed971fbdd8e4" />
        </g>
      </g>
      <g
         fill="#000000"
         fill-opacity="1"
         id="id-53fff4b3-fbd6-48af-af5a-38ba724bd0da"
         transform="translate(-151.962,-124.809)">
        <g
           transform="translate(260.238,125.2)"
           id="g25">
          <path
             d="m 2.703125,17.546875 h 0.6875 v -17.9375 H 0.0625 v 0.6875 h 2.640625 z m 0,0"
             id="id-84f8107c-c190-45a6-9f8f-f890eb525815" />
        </g>
      </g>
      <g
         fill="#000000"
         fill-opacity="1"
         id="id-f326c271-6c6c-4c61-bc2e-7beae0cf23ae"
         transform="translate(-151.962,-124.809)">
        <g
           transform="translate(260.238,143.133)"
           id="g26">
          <path
             d="M 2.703125,16.84375 H 0.0625 v 0.6875 h 3.328125 v -17.9375 h -0.6875 z m 0,0"
             id="id-d4c1ac0b-ce2c-4a2d-8b6e-fbc662cc8b9d" />
        </g>
      </g>
      <g
         fill="#000000"
         fill-opacity="1"
         id="id-c5257493-b37d-4ff6-b232-0e6dd3725691"
         transform="translate(-151.962,-124.809)">
        <g
           transform="translate(268.541,125.2)"
           id="g27">
          <path
             d="m 3.25,17.546875 h 0.6875 v -17.25 h 2.625 v -0.6875 H 3.25 Z m 0,0"
             id="id-aa60ad94-e1c3-4e22-971a-9fa3880a3b48" />
        </g>
      </g>
      <g
         fill="#000000"
         fill-opacity="1"
         id="id-e6e15759-9958-4e30-90f1-491428d03d70"
         transform="translate(-151.962,-124.809)">
        <g
           transform="translate(268.541,143.133)"
           id="g28">
          <path
             d="m 3.25,17.53125 h 3.3125 v -0.6875 h -2.625 v -17.25 H 3.25 Z m 0,0"
             id="id-b045993f-8094-44d1-8c21-6f2474a4bbaa" />
        </g>
      </g>
      <g
         fill="#000000"
         fill-opacity="1"
         id="id-10c49bf5-ad08-4803-84ca-a3601909fead"
         transform="translate(-151.962,-124.809)">
        <g
           transform="translate(282.495,133.171)"
           id="g29">
          <path
             d="M 6.265625,-5.671875 C 6.75,-6.453125 7.171875,-6.484375 7.53125,-6.5 c 0.125,-0.015625 0.140625,-0.171875 0.140625,-0.1875 0,-0.078125 -0.0625,-0.125 -0.140625,-0.125 -0.25,0 -0.546875,0.03125 -0.8125,0.03125 -0.328125,0 -0.671875,-0.03125 -0.984375,-0.03125 -0.0625,0 -0.1875,0 -0.1875,0.1875 0,0.109375 0.078125,0.125 0.15625,0.125 0.265625,0.015625 0.453125,0.125 0.453125,0.328125 0,0.15625 -0.140625,0.375 -0.140625,0.375 l -3.0625,4.875 -0.6875,-5.28125 C 2.265625,-6.375 2.5,-6.5 2.953125,-6.5 c 0.140625,0 0.25,0 0.25,-0.203125 0,-0.078125 -0.078125,-0.109375 -0.125,-0.109375 -0.40625,0 -0.828125,0.03125 -1.25,0.03125 -0.171875,0 -0.359375,0 -0.546875,0 -0.171875,0 -0.359375,-0.03125 -0.53125,-0.03125 -0.078125,0 -0.1875,0 -0.1875,0.1875 0,0.125 0.078125,0.125 0.25,0.125 0.546875,0 0.5625,0.09375 0.59375,0.34375 L 2.1875,-0.015625 C 2.21875,0.1875 2.265625,0.21875 2.390625,0.21875 c 0.15625,0 0.203125,-0.046875 0.28125,-0.171875 z m 0,0"
             id="id-014f4f51-4790-4aab-9bd1-d6185aaeb178" />
        </g>
      </g>
      <g
         fill="#000000"
         fill-opacity="1"
         id="id-b90dbdcd-73f6-401e-8dd1-93099f90d344"
         transform="translate(-151.962,-124.809)">
        <g
           transform="translate(288.307,134.665)"
           id="g30">
          <path
             d="m 2.328125,-4.4375 c 0,-0.1875 0,-0.1875 -0.203125,-0.1875 -0.453125,0.4375 -1.078125,0.4375 -1.359375,0.4375 v 0.25 c 0.15625,0 0.625,0 1,-0.1875 v 3.546875 c 0,0.234375 0,0.328125 -0.6875,0.328125 H 0.8125 V 0 c 0.125,0 0.984375,-0.03125 1.234375,-0.03125 0.21875,0 1.09375,0.03125 1.25,0.03125 V -0.25 H 3.03125 c -0.703125,0 -0.703125,-0.09375 -0.703125,-0.328125 z m 0,0"
             id="id-c41e5ef7-bbb4-4497-b839-4b4b579ee630" />
        </g>
      </g>
      <g
         fill="#000000"
         fill-opacity="1"
         id="id-fab98f39-20a3-40b8-9c36-87401a1fc4b9"
         transform="translate(-151.962,-124.809)">
        <g
           transform="translate(282.495,145.126)"
           id="g31">
          <path
             d="M 6.265625,-5.671875 C 6.75,-6.453125 7.171875,-6.484375 7.53125,-6.5 c 0.125,-0.015625 0.140625,-0.171875 0.140625,-0.1875 0,-0.078125 -0.0625,-0.125 -0.140625,-0.125 -0.25,0 -0.546875,0.03125 -0.8125,0.03125 -0.328125,0 -0.671875,-0.03125 -0.984375,-0.03125 -0.0625,0 -0.1875,0 -0.1875,0.1875 0,0.109375 0.078125,0.125 0.15625,0.125 0.265625,0.015625 0.453125,0.125 0.453125,0.328125 0,0.15625 -0.140625,0.375 -0.140625,0.375 l -3.0625,4.875 -0.6875,-5.28125 C 2.265625,-6.375 2.5,-6.5 2.953125,-6.5 c 0.140625,0 0.25,0 0.25,-0.203125 0,-0.078125 -0.078125,-0.109375 -0.125,-0.109375 -0.40625,0 -0.828125,0.03125 -1.25,0.03125 -0.171875,0 -0.359375,0 -0.546875,0 -0.171875,0 -0.359375,-0.03125 -0.53125,-0.03125 -0.078125,0 -0.1875,0 -0.1875,0.1875 0,0.125 0.078125,0.125 0.25,0.125 0.546875,0 0.5625,0.09375 0.59375,0.34375 L 2.1875,-0.015625 C 2.21875,0.1875 2.265625,0.21875 2.390625,0.21875 c 0.15625,0 0.203125,-0.046875 0.28125,-0.171875 z m 0,0"
             id="id-7ca05405-0786-434c-82ab-eab7921f92c6" />
        </g>
      </g>
      <g
         fill="#000000"
         fill-opacity="1"
         id="id-42598d17-33ce-4c45-a6e6-1f4421473626"
         transform="translate(-151.962,-124.809)">
        <g
           transform="translate(288.307,146.62)"
           id="g32">
          <path
             d="M 3.515625,-1.265625 H 3.28125 c -0.015625,0.15625 -0.09375,0.5625 -0.1875,0.625 C 3.046875,-0.59375 2.515625,-0.59375 2.40625,-0.59375 H 1.125 c 0.734375,-0.640625 0.984375,-0.84375 1.390625,-1.171875 0.515625,-0.40625 1,-0.84375 1,-1.5 0,-0.84375 -0.734375,-1.359375 -1.625,-1.359375 -0.859375,0 -1.453125,0.609375 -1.453125,1.25 0,0.34375 0.296875,0.390625 0.375,0.390625 0.15625,0 0.359375,-0.125 0.359375,-0.375 0,-0.125 -0.046875,-0.375 -0.40625,-0.375 C 0.984375,-4.21875 1.453125,-4.375 1.78125,-4.375 c 0.703125,0 1.0625,0.546875 1.0625,1.109375 0,0.609375 -0.4375,1.078125 -0.65625,1.328125 L 0.515625,-0.265625 C 0.4375,-0.203125 0.4375,-0.1875 0.4375,0 h 2.875 z m 0,0"
             id="id-8898f529-23b7-49e8-b588-0125e5ea5620" />
        </g>
      </g>
      <g
         fill="#000000"
         fill-opacity="1"
         id="id-16a2b464-695d-4be2-85eb-c5ecc6882b9b"
         transform="translate(-151.962,-124.809)">
        <g
           transform="translate(280.164,157.081)"
           id="g33">
          <path
             d="M 3.734375,-6.046875 C 3.8125,-6.40625 3.84375,-6.5 4.640625,-6.5 c 0.234375,0 0.3125,0 0.3125,-0.1875 0,-0.125 -0.109375,-0.125 -0.140625,-0.125 -0.296875,0 -1.03125,0.03125 -1.328125,0.03125 -0.296875,0 -1.015625,-0.03125 -1.328125,-0.03125 -0.0625,0 -0.1875,0 -0.1875,0.203125 C 1.96875,-6.5 2.046875,-6.5 2.25,-6.5 c 0.40625,0 0.6875,0 0.6875,0.1875 0,0.046875 0,0.078125 -0.03125,0.15625 l -1.34375,5.375 c -0.09375,0.375 -0.109375,0.46875 -0.90625,0.46875 -0.234375,0 -0.3125,0 -0.3125,0.203125 C 0.34375,0 0.453125,0 0.484375,0 0.78125,0 1.5,-0.03125 1.796875,-0.03125 2.09375,-0.03125 2.828125,0 3.125,0 c 0.078125,0 0.203125,0 0.203125,-0.1875 0,-0.125 -0.078125,-0.125 -0.296875,-0.125 -0.1875,0 -0.234375,0 -0.421875,-0.015625 -0.21875,-0.015625 -0.25,-0.0625 -0.25,-0.171875 0,-0.078125 0.015625,-0.15625 0.03125,-0.234375 z m 0,0"
             id="id-8723c478-4a37-412c-a9ce-fd7e333d809c" />
        </g>
      </g>
      <g
         fill="#000000"
         fill-opacity="1"
         id="id-bc89c981-d981-46aa-a10b-b8bfc8214263"
         transform="translate(-151.962,-124.809)">
        <g
           transform="translate(284.543,158.575)"
           id="g34">
          <path
             d="M 4.859375,-4.046875 C 4.953125,-4.265625 5.125,-4.5 5.65625,-4.515625 v -0.25 c -0.203125,0.03125 -0.484375,0.03125 -0.6875,0.03125 -0.265625,0 -0.78125,-0.03125 -0.828125,-0.03125 v 0.25 c 0.25,0 0.484375,0.125 0.484375,0.328125 0,0.0625 -0.015625,0.109375 -0.046875,0.15625 l -1.4375,3.359375 -1.5,-3.53125 C 1.59375,-4.28125 1.59375,-4.296875 1.59375,-4.328125 c 0,-0.1875 0.359375,-0.1875 0.546875,-0.1875 v -0.25 c -0.34375,0.015625 -0.78125,0.03125 -1.03125,0.03125 -0.34375,0 -0.875,-0.03125 -0.890625,-0.03125 v 0.25 h 0.109375 c 0.375,0 0.5,0.046875 0.59375,0.25 l 1.8125,4.25 c 0.046875,0.109375 0.0625,0.15625 0.203125,0.15625 0.0625,0 0.140625,0 0.203125,-0.140625 z m 0,0"
             id="id-dc6a9181-5d07-4b9a-86ed-549bffb436f1" />
        </g>
        <g
           transform="translate(290.424,158.575)"
           id="g35">
          <path
             d="m 2.359375,-1.5625 c 0,0 -0.046875,-0.0625 -0.046875,-0.0625 0,-0.03125 0.453125,-0.515625 0.515625,-0.578125 C 3.078125,-2.484375 3.3125,-2.75 3.875,-2.75 V -3 C 3.671875,-2.984375 3.46875,-2.96875 3.28125,-2.96875 3.078125,-2.96875 2.796875,-2.984375 2.59375,-3 v 0.25 c 0.109375,0.015625 0.140625,0.09375 0.140625,0.15625 0,0.015625 0,0.125 -0.109375,0.234375 L 2.140625,-1.8125 1.5625,-2.46875 C 1.484375,-2.546875 1.484375,-2.578125 1.484375,-2.609375 c 0,-0.09375 0.09375,-0.140625 0.1875,-0.140625 V -3 c -0.25,0.015625 -0.515625,0.03125 -0.78125,0.03125 C 0.6875,-2.96875 0.421875,-2.984375 0.21875,-3 v 0.25 c 0.3125,0 0.5,0 0.6875,0.203125 l 0.859375,1 c 0.015625,0.015625 0.0625,0.0625 0.0625,0.078125 0,0.015625 -0.53125,0.59375 -0.59375,0.671875 -0.265625,0.28125 -0.5,0.53125 -1.046875,0.546875 V 0 C 0.390625,-0.015625 0.546875,-0.03125 0.765625,-0.03125 0.96875,-0.03125 1.25,-0.015625 1.453125,0 V -0.25 C 1.375,-0.265625 1.3125,-0.3125 1.3125,-0.40625 1.3125,-0.546875 1.390625,-0.640625 1.5,-0.75 L 2,-1.296875 2.59375,-0.59375 c 0.140625,0.140625 0.140625,0.15625 0.140625,0.203125 0,0.125 -0.15625,0.140625 -0.1875,0.140625 V 0 c 0.0625,0 0.5625,-0.03125 0.78125,-0.03125 C 3.546875,-0.03125 3.78125,-0.015625 4,0 v -0.25 c -0.46875,0 -0.515625,-0.046875 -0.6875,-0.21875 z m 0,0"
             id="id-6c4afba8-f6a7-4a06-b113-20bd0dbb9b9e" />
        </g>
      </g>
      <g
         fill="#000000"
         fill-opacity="1"
         id="id-030177e5-bd5f-40b6-9ab9-c3338635324d"
         transform="translate(-151.962,-124.809)">
        <g
           transform="translate(300.089,125.2)"
           id="g36">
          <path
             d="m 2.703125,17.546875 h 0.6875 v -17.9375 H 0.0625 v 0.6875 h 2.640625 z m 0,0"
             id="id-9a26621e-cb8d-4038-8aa5-edb55bf3b623" />
        </g>
      </g>
      <g
         fill="#000000"
         fill-opacity="1"
         id="id-41985a3d-05b1-41b4-8fef-fb47e629f9b9"
         transform="translate(-151.962,-124.809)">
        <g
           transform="translate(300.089,143.133)"
           id="g37">
          <path
             d="M 2.703125,16.84375 H 0.0625 v 0.6875 h 3.328125 v -17.9375 h -0.6875 z m 0,0"
             id="id-dac6f0b1-cb19-4ba4-985d-77411b161260" />
        </g>
      </g>
    </g>
  </g>
</svg>
