<?xml version="1.0" encoding="utf-8" standalone="no"?>
<!DOCTYPE svg PUBLIC "-//W3C//DTD SVG 1.1//EN"
  "http://www.w3.org/Graphics/SVG/1.1/DTD/svg11.dtd">
<svg xmlns:xlink="http://www.w3.org/1999/xlink" width="504pt" height="360pt" viewBox="0 0 504 360" xmlns="http://www.w3.org/2000/svg" version="1.1">
 <metadata>
  <rdf:RDF xmlns:dc="http://purl.org/dc/elements/1.1/" xmlns:cc="http://creativecommons.org/ns#" xmlns:rdf="http://www.w3.org/1999/02/22-rdf-syntax-ns#">
   <cc:Work>
    <dc:type rdf:resource="http://purl.org/dc/dcmitype/StillImage"/>
    <dc:date>2025-09-06T12:38:58.975798</dc:date>
    <dc:format>image/svg+xml</dc:format>
    <dc:creator>
     <cc:Agent>
      <dc:title>Matplotlib v3.9.2, https://matplotlib.org/</dc:title>
     </cc:Agent>
    </dc:creator>
   </cc:Work>
  </rdf:RDF>
 </metadata>
 <defs>
  <style type="text/css">*{stroke-linejoin: round; stroke-linecap: butt}</style>
 </defs>
 <g id="figure_1">
  <g id="patch_1">
   <path d="M 0 360 
L 504 360 
L 504 0 
L 0 0 
z
" style="fill: #ffffff"/>
  </g>
  <g id="axes_1">
   <g id="patch_2">
    <path d="M 63.55 312.2 
L 493.2 312.2 
L 493.2 28.8 
L 63.55 28.8 
z
" style="fill: #ffffff"/>
   </g>
   <g id="matplotlib.axis_1">
    <g id="xtick_1">
     <g id="line2d_1">
      <path d="M 83.079545 312.2 
L 83.079545 28.8 
" clip-path="url(#p98643cced7)" style="fill: none; stroke: #808080; stroke-width: 0.8; stroke-linecap: square"/>
     </g>
     <g id="line2d_2">
      <defs>
       <path id="m18261587ef" d="M 0 0 
L 0 3.5 
" style="stroke: #000000; stroke-width: 0.8"/>
      </defs>
      <g>
       <use xlink:href="#m18261587ef" x="83.079545" y="312.2" style="stroke: #000000; stroke-width: 0.8"/>
      </g>
     </g>
     <g id="text_1">
      <!-- 0.0 -->
      <g transform="translate(73.53767 328.318125) scale(0.12 -0.12)">
       <defs>
        <path id="DejaVuSans-30" d="M 2034 4250 
Q 1547 4250 1301 3770 
Q 1056 3291 1056 2328 
Q 1056 1369 1301 889 
Q 1547 409 2034 409 
Q 2525 409 2770 889 
Q 3016 1369 3016 2328 
Q 3016 3291 2770 3770 
Q 2525 4250 2034 4250 
z
M 2034 4750 
Q 2819 4750 3233 4129 
Q 3647 3509 3647 2328 
Q 3647 1150 3233 529 
Q 2819 -91 2034 -91 
Q 1250 -91 836 529 
Q 422 1150 422 2328 
Q 422 3509 836 4129 
Q 1250 4750 2034 4750 
z
" transform="scale(0.015625)"/>
        <path id="DejaVuSans-2e" d="M 684 794 
L 1344 794 
L 1344 0 
L 684 0 
L 684 794 
z
" transform="scale(0.015625)"/>
       </defs>
       <use xlink:href="#DejaVuSans-30"/>
       <use xlink:href="#DejaVuSans-2e" x="63.623047"/>
       <use xlink:href="#DejaVuSans-30" x="95.410156"/>
      </g>
     </g>
    </g>
    <g id="xtick_2">
     <g id="line2d_3">
      <path d="M 161.197727 312.2 
L 161.197727 28.8 
" clip-path="url(#p98643cced7)" style="fill: none; stroke: #808080; stroke-width: 0.8; stroke-linecap: square"/>
     </g>
     <g id="line2d_4">
      <g>
       <use xlink:href="#m18261587ef" x="161.197727" y="312.2" style="stroke: #000000; stroke-width: 0.8"/>
      </g>
     </g>
     <g id="text_2">
      <!-- 0.2 -->
      <g transform="translate(151.655852 328.318125) scale(0.12 -0.12)">
       <defs>
        <path id="DejaVuSans-32" d="M 1228 531 
L 3431 531 
L 3431 0 
L 469 0 
L 469 531 
Q 828 903 1448 1529 
Q 2069 2156 2228 2338 
Q 2531 2678 2651 2914 
Q 2772 3150 2772 3378 
Q 2772 3750 2511 3984 
Q 2250 4219 1831 4219 
Q 1534 4219 1204 4116 
Q 875 4013 500 3803 
L 500 4441 
Q 881 4594 1212 4672 
Q 1544 4750 1819 4750 
Q 2544 4750 2975 4387 
Q 3406 4025 3406 3419 
Q 3406 3131 3298 2873 
Q 3191 2616 2906 2266 
Q 2828 2175 2409 1742 
Q 1991 1309 1228 531 
z
" transform="scale(0.015625)"/>
       </defs>
       <use xlink:href="#DejaVuSans-30"/>
       <use xlink:href="#DejaVuSans-2e" x="63.623047"/>
       <use xlink:href="#DejaVuSans-32" x="95.410156"/>
      </g>
     </g>
    </g>
    <g id="xtick_3">
     <g id="line2d_5">
      <path d="M 239.315909 312.2 
L 239.315909 28.8 
" clip-path="url(#p98643cced7)" style="fill: none; stroke: #808080; stroke-width: 0.8; stroke-linecap: square"/>
     </g>
     <g id="line2d_6">
      <g>
       <use xlink:href="#m18261587ef" x="239.315909" y="312.2" style="stroke: #000000; stroke-width: 0.8"/>
      </g>
     </g>
     <g id="text_3">
      <!-- 0.4 -->
      <g transform="translate(229.774034 328.318125) scale(0.12 -0.12)">
       <defs>
        <path id="DejaVuSans-34" d="M 2419 4116 
L 825 1625 
L 2419 1625 
L 2419 4116 
z
M 2253 4666 
L 3047 4666 
L 3047 1625 
L 3713 1625 
L 3713 1100 
L 3047 1100 
L 3047 0 
L 2419 0 
L 2419 1100 
L 313 1100 
L 313 1709 
L 2253 4666 
z
" transform="scale(0.015625)"/>
       </defs>
       <use xlink:href="#DejaVuSans-30"/>
       <use xlink:href="#DejaVuSans-2e" x="63.623047"/>
       <use xlink:href="#DejaVuSans-34" x="95.410156"/>
      </g>
     </g>
    </g>
    <g id="xtick_4">
     <g id="line2d_7">
      <path d="M 317.434091 312.2 
L 317.434091 28.8 
" clip-path="url(#p98643cced7)" style="fill: none; stroke: #808080; stroke-width: 0.8; stroke-linecap: square"/>
     </g>
     <g id="line2d_8">
      <g>
       <use xlink:href="#m18261587ef" x="317.434091" y="312.2" style="stroke: #000000; stroke-width: 0.8"/>
      </g>
     </g>
     <g id="text_4">
      <!-- 0.6 -->
      <g transform="translate(307.892216 328.318125) scale(0.12 -0.12)">
       <defs>
        <path id="DejaVuSans-36" d="M 2113 2584 
Q 1688 2584 1439 2293 
Q 1191 2003 1191 1497 
Q 1191 994 1439 701 
Q 1688 409 2113 409 
Q 2538 409 2786 701 
Q 3034 994 3034 1497 
Q 3034 2003 2786 2293 
Q 2538 2584 2113 2584 
z
M 3366 4563 
L 3366 3988 
Q 3128 4100 2886 4159 
Q 2644 4219 2406 4219 
Q 1781 4219 1451 3797 
Q 1122 3375 1075 2522 
Q 1259 2794 1537 2939 
Q 1816 3084 2150 3084 
Q 2853 3084 3261 2657 
Q 3669 2231 3669 1497 
Q 3669 778 3244 343 
Q 2819 -91 2113 -91 
Q 1303 -91 875 529 
Q 447 1150 447 2328 
Q 447 3434 972 4092 
Q 1497 4750 2381 4750 
Q 2619 4750 2861 4703 
Q 3103 4656 3366 4563 
z
" transform="scale(0.015625)"/>
       </defs>
       <use xlink:href="#DejaVuSans-30"/>
       <use xlink:href="#DejaVuSans-2e" x="63.623047"/>
       <use xlink:href="#DejaVuSans-36" x="95.410156"/>
      </g>
     </g>
    </g>
    <g id="xtick_5">
     <g id="line2d_9">
      <path d="M 395.552273 312.2 
L 395.552273 28.8 
" clip-path="url(#p98643cced7)" style="fill: none; stroke: #808080; stroke-width: 0.8; stroke-linecap: square"/>
     </g>
     <g id="line2d_10">
      <g>
       <use xlink:href="#m18261587ef" x="395.552273" y="312.2" style="stroke: #000000; stroke-width: 0.8"/>
      </g>
     </g>
     <g id="text_5">
      <!-- 0.8 -->
      <g transform="translate(386.010398 328.318125) scale(0.12 -0.12)">
       <defs>
        <path id="DejaVuSans-38" d="M 2034 2216 
Q 1584 2216 1326 1975 
Q 1069 1734 1069 1313 
Q 1069 891 1326 650 
Q 1584 409 2034 409 
Q 2484 409 2743 651 
Q 3003 894 3003 1313 
Q 3003 1734 2745 1975 
Q 2488 2216 2034 2216 
z
M 1403 2484 
Q 997 2584 770 2862 
Q 544 3141 544 3541 
Q 544 4100 942 4425 
Q 1341 4750 2034 4750 
Q 2731 4750 3128 4425 
Q 3525 4100 3525 3541 
Q 3525 3141 3298 2862 
Q 3072 2584 2669 2484 
Q 3125 2378 3379 2068 
Q 3634 1759 3634 1313 
Q 3634 634 3220 271 
Q 2806 -91 2034 -91 
Q 1263 -91 848 271 
Q 434 634 434 1313 
Q 434 1759 690 2068 
Q 947 2378 1403 2484 
z
M 1172 3481 
Q 1172 3119 1398 2916 
Q 1625 2713 2034 2713 
Q 2441 2713 2670 2916 
Q 2900 3119 2900 3481 
Q 2900 3844 2670 4047 
Q 2441 4250 2034 4250 
Q 1625 4250 1398 4047 
Q 1172 3844 1172 3481 
z
" transform="scale(0.015625)"/>
       </defs>
       <use xlink:href="#DejaVuSans-30"/>
       <use xlink:href="#DejaVuSans-2e" x="63.623047"/>
       <use xlink:href="#DejaVuSans-38" x="95.410156"/>
      </g>
     </g>
    </g>
    <g id="xtick_6">
     <g id="line2d_11">
      <path d="M 473.670455 312.2 
L 473.670455 28.8 
" clip-path="url(#p98643cced7)" style="fill: none; stroke: #808080; stroke-width: 0.8; stroke-linecap: square"/>
     </g>
     <g id="line2d_12">
      <g>
       <use xlink:href="#m18261587ef" x="473.670455" y="312.2" style="stroke: #000000; stroke-width: 0.8"/>
      </g>
     </g>
     <g id="text_6">
      <!-- 1.0 -->
      <g transform="translate(464.12858 328.318125) scale(0.12 -0.12)">
       <defs>
        <path id="DejaVuSans-31" d="M 794 531 
L 1825 531 
L 1825 4091 
L 703 3866 
L 703 4441 
L 1819 4666 
L 2450 4666 
L 2450 531 
L 3481 531 
L 3481 0 
L 794 0 
L 794 531 
z
" transform="scale(0.015625)"/>
       </defs>
       <use xlink:href="#DejaVuSans-31"/>
       <use xlink:href="#DejaVuSans-2e" x="63.623047"/>
       <use xlink:href="#DejaVuSans-30" x="95.410156"/>
      </g>
     </g>
    </g>
    <g id="text_7">
     <!-- time [us] -->
     <g transform="translate(251.302813 343.931875) scale(0.12 -0.12)">
      <defs>
       <path id="DejaVuSans-74" d="M 1172 4494 
L 1172 3500 
L 2356 3500 
L 2356 3053 
L 1172 3053 
L 1172 1153 
Q 1172 725 1289 603 
Q 1406 481 1766 481 
L 2356 481 
L 2356 0 
L 1766 0 
Q 1100 0 847 248 
Q 594 497 594 1153 
L 594 3053 
L 172 3053 
L 172 3500 
L 594 3500 
L 594 4494 
L 1172 4494 
z
" transform="scale(0.015625)"/>
       <path id="DejaVuSans-69" d="M 603 3500 
L 1178 3500 
L 1178 0 
L 603 0 
L 603 3500 
z
M 603 4863 
L 1178 4863 
L 1178 4134 
L 603 4134 
L 603 4863 
z
" transform="scale(0.015625)"/>
       <path id="DejaVuSans-6d" d="M 3328 2828 
Q 3544 3216 3844 3400 
Q 4144 3584 4550 3584 
Q 5097 3584 5394 3201 
Q 5691 2819 5691 2113 
L 5691 0 
L 5113 0 
L 5113 2094 
Q 5113 2597 4934 2840 
Q 4756 3084 4391 3084 
Q 3944 3084 3684 2787 
Q 3425 2491 3425 1978 
L 3425 0 
L 2847 0 
L 2847 2094 
Q 2847 2600 2669 2842 
Q 2491 3084 2119 3084 
Q 1678 3084 1418 2786 
Q 1159 2488 1159 1978 
L 1159 0 
L 581 0 
L 581 3500 
L 1159 3500 
L 1159 2956 
Q 1356 3278 1631 3431 
Q 1906 3584 2284 3584 
Q 2666 3584 2933 3390 
Q 3200 3197 3328 2828 
z
" transform="scale(0.015625)"/>
       <path id="DejaVuSans-65" d="M 3597 1894 
L 3597 1613 
L 953 1613 
Q 991 1019 1311 708 
Q 1631 397 2203 397 
Q 2534 397 2845 478 
Q 3156 559 3463 722 
L 3463 178 
Q 3153 47 2828 -22 
Q 2503 -91 2169 -91 
Q 1331 -91 842 396 
Q 353 884 353 1716 
Q 353 2575 817 3079 
Q 1281 3584 2069 3584 
Q 2775 3584 3186 3129 
Q 3597 2675 3597 1894 
z
M 3022 2063 
Q 3016 2534 2758 2815 
Q 2500 3097 2075 3097 
Q 1594 3097 1305 2825 
Q 1016 2553 972 2059 
L 3022 2063 
z
" transform="scale(0.015625)"/>
       <path id="DejaVuSans-20" transform="scale(0.015625)"/>
       <path id="DejaVuSans-5b" d="M 550 4863 
L 1875 4863 
L 1875 4416 
L 1125 4416 
L 1125 -397 
L 1875 -397 
L 1875 -844 
L 550 -844 
L 550 4863 
z
" transform="scale(0.015625)"/>
       <path id="DejaVuSans-75" d="M 544 1381 
L 544 3500 
L 1119 3500 
L 1119 1403 
Q 1119 906 1312 657 
Q 1506 409 1894 409 
Q 2359 409 2629 706 
Q 2900 1003 2900 1516 
L 2900 3500 
L 3475 3500 
L 3475 0 
L 2900 0 
L 2900 538 
Q 2691 219 2414 64 
Q 2138 -91 1772 -91 
Q 1169 -91 856 284 
Q 544 659 544 1381 
z
M 1991 3584 
L 1991 3584 
z
" transform="scale(0.015625)"/>
       <path id="DejaVuSans-73" d="M 2834 3397 
L 2834 2853 
Q 2591 2978 2328 3040 
Q 2066 3103 1784 3103 
Q 1356 3103 1142 2972 
Q 928 2841 928 2578 
Q 928 2378 1081 2264 
Q 1234 2150 1697 2047 
L 1894 2003 
Q 2506 1872 2764 1633 
Q 3022 1394 3022 966 
Q 3022 478 2636 193 
Q 2250 -91 1575 -91 
Q 1294 -91 989 -36 
Q 684 19 347 128 
L 347 722 
Q 666 556 975 473 
Q 1284 391 1588 391 
Q 1994 391 2212 530 
Q 2431 669 2431 922 
Q 2431 1156 2273 1281 
Q 2116 1406 1581 1522 
L 1381 1569 
Q 847 1681 609 1914 
Q 372 2147 372 2553 
Q 372 3047 722 3315 
Q 1072 3584 1716 3584 
Q 2034 3584 2315 3537 
Q 2597 3491 2834 3397 
z
" transform="scale(0.015625)"/>
       <path id="DejaVuSans-5d" d="M 1947 4863 
L 1947 -844 
L 622 -844 
L 622 -397 
L 1369 -397 
L 1369 4416 
L 622 4416 
L 622 4863 
L 1947 4863 
z
" transform="scale(0.015625)"/>
      </defs>
      <use xlink:href="#DejaVuSans-74"/>
      <use xlink:href="#DejaVuSans-69" x="39.208984"/>
      <use xlink:href="#DejaVuSans-6d" x="66.992188"/>
      <use xlink:href="#DejaVuSans-65" x="164.404297"/>
      <use xlink:href="#DejaVuSans-20" x="225.927734"/>
      <use xlink:href="#DejaVuSans-5b" x="257.714844"/>
      <use xlink:href="#DejaVuSans-75" x="296.728516"/>
      <use xlink:href="#DejaVuSans-73" x="360.107422"/>
      <use xlink:href="#DejaVuSans-5d" x="412.207031"/>
     </g>
    </g>
   </g>
   <g id="matplotlib.axis_2">
    <g id="ytick_1">
     <g id="line2d_13">
      <path d="M 63.55 303.258709 
L 493.2 303.258709 
" clip-path="url(#p98643cced7)" style="fill: none; stroke: #808080; stroke-width: 0.8; stroke-linecap: square"/>
     </g>
     <g id="line2d_14">
      <defs>
       <path id="m43fe9dcb96" d="M 0 0 
L -3.5 0 
" style="stroke: #000000; stroke-width: 0.8"/>
      </defs>
      <g>
       <use xlink:href="#m43fe9dcb96" x="63.55" y="303.258709" style="stroke: #000000; stroke-width: 0.8"/>
      </g>
     </g>
     <g id="text_8">
      <!-- −0.5 -->
      <g transform="translate(27.410625 307.817772) scale(0.12 -0.12)">
       <defs>
        <path id="DejaVuSans-2212" d="M 678 2272 
L 4684 2272 
L 4684 1741 
L 678 1741 
L 678 2272 
z
" transform="scale(0.015625)"/>
        <path id="DejaVuSans-35" d="M 691 4666 
L 3169 4666 
L 3169 4134 
L 1269 4134 
L 1269 2991 
Q 1406 3038 1543 3061 
Q 1681 3084 1819 3084 
Q 2600 3084 3056 2656 
Q 3513 2228 3513 1497 
Q 3513 744 3044 326 
Q 2575 -91 1722 -91 
Q 1428 -91 1123 -41 
Q 819 9 494 109 
L 494 744 
Q 775 591 1075 516 
Q 1375 441 1709 441 
Q 2250 441 2565 725 
Q 2881 1009 2881 1497 
Q 2881 1984 2565 2268 
Q 2250 2553 1709 2553 
Q 1456 2553 1204 2497 
Q 953 2441 691 2322 
L 691 4666 
z
" transform="scale(0.015625)"/>
       </defs>
       <use xlink:href="#DejaVuSans-2212"/>
       <use xlink:href="#DejaVuSans-30" x="83.789062"/>
       <use xlink:href="#DejaVuSans-2e" x="147.412109"/>
       <use xlink:href="#DejaVuSans-35" x="179.199219"/>
      </g>
     </g>
    </g>
    <g id="ytick_2">
     <g id="line2d_15">
      <path d="M 63.55 245.110454 
L 493.2 245.110454 
" clip-path="url(#p98643cced7)" style="fill: none; stroke: #808080; stroke-width: 0.8; stroke-linecap: square"/>
     </g>
     <g id="line2d_16">
      <g>
       <use xlink:href="#m43fe9dcb96" x="63.55" y="245.110454" style="stroke: #000000; stroke-width: 0.8"/>
      </g>
     </g>
     <g id="text_9">
      <!-- 0.0 -->
      <g transform="translate(37.46625 249.669516) scale(0.12 -0.12)">
       <use xlink:href="#DejaVuSans-30"/>
       <use xlink:href="#DejaVuSans-2e" x="63.623047"/>
       <use xlink:href="#DejaVuSans-30" x="95.410156"/>
      </g>
     </g>
    </g>
    <g id="ytick_3">
     <g id="line2d_17">
      <path d="M 63.55 186.962198 
L 493.2 186.962198 
" clip-path="url(#p98643cced7)" style="fill: none; stroke: #808080; stroke-width: 0.8; stroke-linecap: square"/>
     </g>
     <g id="line2d_18">
      <g>
       <use xlink:href="#m43fe9dcb96" x="63.55" y="186.962198" style="stroke: #000000; stroke-width: 0.8"/>
      </g>
     </g>
     <g id="text_10">
      <!-- 0.5 -->
      <g transform="translate(37.46625 191.521261) scale(0.12 -0.12)">
       <use xlink:href="#DejaVuSans-30"/>
       <use xlink:href="#DejaVuSans-2e" x="63.623047"/>
       <use xlink:href="#DejaVuSans-35" x="95.410156"/>
      </g>
     </g>
    </g>
    <g id="ytick_4">
     <g id="line2d_19">
      <path d="M 63.55 128.813943 
L 493.2 128.813943 
" clip-path="url(#p98643cced7)" style="fill: none; stroke: #808080; stroke-width: 0.8; stroke-linecap: square"/>
     </g>
     <g id="line2d_20">
      <g>
       <use xlink:href="#m43fe9dcb96" x="63.55" y="128.813943" style="stroke: #000000; stroke-width: 0.8"/>
      </g>
     </g>
     <g id="text_11">
      <!-- 1.0 -->
      <g transform="translate(37.46625 133.373005) scale(0.12 -0.12)">
       <use xlink:href="#DejaVuSans-31"/>
       <use xlink:href="#DejaVuSans-2e" x="63.623047"/>
       <use xlink:href="#DejaVuSans-30" x="95.410156"/>
      </g>
     </g>
    </g>
    <g id="ytick_5">
     <g id="line2d_21">
      <path d="M 63.55 70.665687 
L 493.2 70.665687 
" clip-path="url(#p98643cced7)" style="fill: none; stroke: #808080; stroke-width: 0.8; stroke-linecap: square"/>
     </g>
     <g id="line2d_22">
      <g>
       <use xlink:href="#m43fe9dcb96" x="63.55" y="70.665687" style="stroke: #000000; stroke-width: 0.8"/>
      </g>
     </g>
     <g id="text_12">
      <!-- 1.5 -->
      <g transform="translate(37.46625 75.22475) scale(0.12 -0.12)">
       <use xlink:href="#DejaVuSans-31"/>
       <use xlink:href="#DejaVuSans-2e" x="63.623047"/>
       <use xlink:href="#DejaVuSans-35" x="95.410156"/>
      </g>
     </g>
    </g>
    <g id="text_13">
     <!--  [V] -->
     <g transform="translate(20.915 181.193125) rotate(-90) scale(0.12 -0.12)">
      <defs>
       <path id="DejaVuSans-56" d="M 1831 0 
L 50 4666 
L 709 4666 
L 2188 738 
L 3669 4666 
L 4325 4666 
L 2547 0 
L 1831 0 
z
" transform="scale(0.015625)"/>
      </defs>
      <use xlink:href="#DejaVuSans-20"/>
      <use xlink:href="#DejaVuSans-5b" x="31.787109"/>
      <use xlink:href="#DejaVuSans-56" x="70.800781"/>
      <use xlink:href="#DejaVuSans-5d" x="139.208984"/>
     </g>
    </g>
   </g>
   <g id="line2d_23">
    <path d="M 83.079545 245.110454 
L 83.958317 245.15491 
L 85.13009 245.582015 
L 86.301863 245.979194 
L 87.083044 246.036814 
L 87.864226 245.837872 
L 88.645408 245.329694 
L 89.42659 244.479775 
L 90.207772 243.2743 
L 90.988953 241.716159 
L 92.160726 238.757764 
L 93.332499 235.14554 
L 94.894862 229.534329 
L 97.238408 220.034489 
L 108.565544 172.467471 
L 112.080862 159.129597 
L 115.596181 146.603086 
L 119.111499 134.853938 
L 122.626817 123.84038 
L 126.142135 113.519817 
L 129.657454 103.851344 
L 133.172772 94.796906 
L 136.68809 86.322277 
L 140.203408 78.398646 
L 143.718726 71.005808 
L 147.234044 64.138912 
L 150.358772 58.495306 
L 153.092908 53.954277 
L 155.436454 50.413361 
L 157.779999 47.278909 
L 159.732954 45.063171 
L 161.295317 43.617555 
L 162.46709 42.762957 
L 163.638863 42.136614 
L 164.810635 41.768604 
L 165.982408 41.689307 
L 167.154181 41.927854 
L 168.325954 42.510474 
L 169.497726 43.458909 
L 170.669499 44.789118 
L 171.841272 46.510373 
L 173.013044 48.624834 
L 174.184817 51.127577 
L 175.747181 55.047581 
L 177.309544 59.592602 
L 179.262499 66.060812 
L 181.606044 74.785426 
L 184.340181 85.927122 
L 193.323772 123.501337 
L 195.276726 130.52588 
L 197.229681 136.701971 
L 198.792044 140.922885 
L 200.354408 144.435622 
L 201.526181 146.580961 
L 202.697954 148.298057 
L 203.869726 149.587555 
L 205.041499 150.457766 
L 205.822681 150.812251 
L 206.603863 150.993085 
L 207.385044 151.007322 
L 208.166226 150.862863 
L 209.337999 150.36751 
L 210.509772 149.565353 
L 211.681544 148.488545 
L 213.243908 146.681418 
L 214.806272 144.517967 
L 216.759226 141.418087 
L 219.102772 137.276338 
L 222.61809 130.556933 
L 231.601681 113.143866 
L 234.726408 107.603403 
L 237.460544 103.148678 
L 239.80409 99.684303 
L 242.147635 96.597509 
L 244.10059 94.34821 
L 246.053544 92.421632 
L 248.006499 90.84364 
L 249.568863 89.84801 
L 251.131226 89.100601 
L 252.69359 88.609336 
L 254.255954 88.379397 
L 255.818317 88.412718 
L 257.380681 88.70757 
L 258.943044 89.258273 
L 260.505408 90.055045 
L 262.067772 91.084006 
L 264.020726 92.669217 
L 265.973681 94.546391 
L 268.317226 97.113133 
L 271.441954 100.905989 
L 279.2343 110.633201 
L 280.406073 111.608838 
L 282.749618 113.383794 
L 283.921391 114.528083 
L 285.093164 115.967529 
L 286.264936 117.757569 
L 287.436709 119.934717 
L 288.608482 122.520393 
L 290.170845 126.617199 
L 291.733209 131.447674 
L 293.295573 136.979557 
L 295.248527 144.803346 
L 297.201482 153.52258 
L 299.545027 164.977716 
L 302.669755 181.545125 
L 306.966255 205.817914 
L 314.387482 248.037914 
L 317.121618 262.331118 
L 319.465164 273.392391 
L 321.418118 281.458637 
L 322.980482 286.985208 
L 324.542845 291.568869 
L 325.714618 294.335216 
L 326.886391 296.498419 
L 327.667573 297.5992 
L 328.448755 298.426271 
L 329.229936 298.982011 
L 330.011118 299.271295 
L 330.7923 299.301325 
L 331.573482 299.081399 
L 332.354664 298.62263 
L 333.135845 297.937644 
L 334.307618 296.516481 
L 335.479391 294.667619 
L 336.651164 292.443249 
L 338.213527 288.983807 
L 340.166482 284.034251 
L 342.510027 277.460083 
L 346.806527 264.594414 
L 351.103027 251.938665 
L 353.837164 244.51969 
L 356.180709 238.768382 
L 358.133664 234.500231 
L 360.086618 230.775516 
L 361.648982 228.221955 
L 363.211345 226.069979 
L 364.773709 224.334434 
L 365.945482 223.311384 
L 367.117255 222.528498 
L 368.289027 221.984592 
L 369.4608 221.676253 
L 370.632573 221.597887 
L 371.804345 221.741804 
L 372.976118 222.098352 
L 374.147891 222.656083 
L 375.710255 223.689895 
L 377.272618 225.023238 
L 379.225573 227.052542 
L 381.178527 229.409527 
L 383.912664 233.09939 
L 393.677436 246.735772 
L 396.020982 249.43325 
L 397.973936 251.36581 
L 399.926891 252.976252 
L 401.489255 254.01839 
L 403.051618 254.835846 
L 404.613982 255.428275 
L 406.176345 255.799752 
L 407.738709 255.958381 
L 409.301073 255.915801 
L 411.254027 255.602158 
L 413.206982 255.030928 
L 415.159936 254.240054 
L 417.503482 253.058161 
L 420.628209 251.204894 
L 431.955345 244.162639 
L 434.689482 242.835157 
L 437.423618 241.76605 
L 439.767164 241.075105 
L 442.110709 240.599375 
L 444.454255 240.336846 
L 446.7978 240.277865 
L 449.531936 240.444211 
L 452.266073 240.829873 
L 455.3908 241.484027 
L 459.6873 242.628703 
L 470.233255 245.566336 
L 473.670455 246.289705 
L 473.670455 246.289705 
" clip-path="url(#p98643cced7)" style="fill: none; stroke: #ff0000; stroke-width: 2; stroke-linecap: square"/>
   </g>
   <g id="line2d_24">
    <path d="M 83.079545 245.110454 
L 84.437308 245.168305 
L 86.390263 245.56367 
L 87.171445 245.472533 
L 87.952627 245.118591 
L 88.733808 244.454715 
L 89.51499 243.455138 
L 90.296172 242.113079 
L 91.467945 239.48153 
L 92.639718 236.183091 
L 94.202081 230.949843 
L 96.155036 223.4822 
L 99.670354 208.858567 
L 105.529218 184.497535 
L 109.435127 169.241765 
L 113.341036 154.942545 
L 116.856354 142.883767 
L 120.371672 131.561159 
L 123.88699 120.937896 
L 127.402309 110.977008 
L 130.917627 101.644175 
L 134.432945 92.910072 
L 137.948263 84.753785 
L 141.463581 77.169141 
L 144.588309 70.923141 
L 147.713036 65.191882 
L 150.447172 60.676697 
L 152.790718 57.269908 
L 154.743672 54.842673 
L 156.306036 53.232388 
L 157.868399 51.974339 
L 159.040172 51.29725 
L 160.211945 50.876926 
L 161.383718 50.738245 
L 162.55549 50.904057 
L 163.727263 51.393881 
L 164.899036 52.222725 
L 166.070809 53.400194 
L 167.242581 54.92992 
L 168.414354 56.809362 
L 169.976718 59.843591 
L 171.539081 63.447694 
L 173.101445 67.570144 
L 175.054399 73.352847 
L 177.397945 81.017246 
L 180.913263 93.383482 
L 185.600354 109.815218 
L 187.943899 117.281824 
L 189.896854 122.835852 
L 191.459218 126.742621 
L 193.021581 130.115096 
L 194.583945 132.91874 
L 195.755718 134.637846 
L 196.92749 136.027598 
L 198.099263 137.093394 
L 199.271036 137.845453 
L 200.442809 138.298094 
L 201.614581 138.468914 
L 202.786354 138.37796 
L 203.958127 138.046905 
L 205.129899 137.498316 
L 206.692263 136.467877 
L 208.254627 135.144346 
L 210.207581 133.154567 
L 212.551127 130.393753 
L 215.675854 126.301871 
L 227.00299 111.025964 
L 229.737127 107.830798 
L 232.471263 104.991326 
L 234.814809 102.885954 
L 236.767763 101.387255 
L 238.720718 100.136764 
L 240.673672 99.145394 
L 242.626627 98.419929 
L 244.579581 97.962541 
L 246.532536 97.770414 
L 248.48549 97.835482 
L 250.438445 98.144403 
L 252.391399 98.678735 
L 254.734945 99.5846 
L 257.07849 100.733952 
L 260.203218 102.551298 
L 264.890309 105.606249 
L 270.358581 109.12429 
L 273.483309 110.885812 
L 276.217445 112.193409 
L 279.2343 113.38601 
L 280.406073 113.576762 
L 282.749618 113.811333 
L 283.921391 114.171052 
L 285.093164 114.819473 
L 286.264936 115.818748 
L 287.436709 117.213159 
L 288.608482 119.032072 
L 289.780255 121.291845 
L 290.952027 123.997463 
L 292.514391 128.28915 
L 294.076755 133.331601 
L 295.639118 139.073947 
L 297.592073 147.139455 
L 299.935618 157.937171 
L 302.669755 171.763673 
L 306.185073 190.88633 
L 316.731027 249.361059 
L 319.074573 260.717031 
L 321.027527 269.134595 
L 322.589891 275.015616 
L 324.152255 280.021987 
L 325.324027 283.151412 
L 326.4958 285.717642 
L 327.667573 287.708947 
L 328.448755 288.716932 
L 329.229936 289.472726 
L 330.011118 289.981863 
L 330.7923 290.251951 
L 331.573482 290.292424 
L 332.354664 290.114253 
L 333.135845 289.72965 
L 333.917027 289.151772 
L 335.0888 287.952875 
L 336.260573 286.398245 
L 337.822936 283.855278 
L 339.3853 280.876371 
L 341.338255 276.696749 
L 344.462982 269.373276 
L 351.103027 253.569186 
L 353.837164 247.711843 
L 356.180709 243.231271 
L 358.133664 239.95082 
L 360.086618 237.126748 
L 361.648982 235.215764 
L 363.211345 233.624298 
L 364.773709 232.355906 
L 366.336073 231.408871 
L 367.898436 230.776327 
L 369.4608 230.446536 
L 371.023164 230.403273 
L 372.585527 230.626327 
L 374.147891 231.092084 
L 375.710255 231.77415 
L 377.663209 232.887344 
L 380.006755 234.527631 
L 382.740891 236.729552 
L 392.505664 244.864845 
L 395.2398 246.693788 
L 397.583345 247.986383 
L 399.926891 249.000389 
L 401.879845 249.626585 
L 403.8328 250.05646 
L 406.176345 250.325397 
L 408.519891 250.347481 
L 410.863436 250.153547 
L 413.597573 249.702173 
L 416.7223 248.964504 
L 421.409391 247.606719 
L 429.221209 245.335408 
L 433.127118 244.437446 
L 436.642436 243.839244 
L 440.157755 243.456801 
L 443.673073 243.284542 
L 447.578982 243.311725 
L 452.266073 243.580915 
L 458.906118 244.215239 
L 469.842664 245.257997 
L 473.670455 245.496748 
L 473.670455 245.496748 
" clip-path="url(#p98643cced7)" style="fill: none; stroke: #0000ff; stroke-width: 2; stroke-linecap: square"/>
   </g>
   <g id="line2d_25">
    <path d="M 83.079545 245.110454 
L 85.344764 245.204709 
L 86.516536 245.209329 
L 87.297718 244.967458 
L 88.0789 244.452394 
L 88.860082 243.624896 
L 89.641264 242.467369 
L 90.422445 240.98078 
L 91.594218 238.171351 
L 92.765991 234.753338 
L 94.328354 229.455808 
L 96.6719 220.484477 
L 101.749582 199.64723 
L 106.436673 180.867801 
L 110.342582 166.123943 
L 114.248491 152.291624 
L 117.763809 140.61413 
L 121.279127 129.641191 
L 124.794445 119.342923 
L 128.309763 109.691251 
L 131.825082 100.66445 
L 135.3404 92.253073 
L 138.465127 85.302612 
L 141.589854 78.882988 
L 144.323991 73.759905 
L 146.667536 69.805651 
L 148.620491 66.883106 
L 150.573445 64.370412 
L 152.135809 62.710397 
L 153.698172 61.412992 
L 154.869945 60.707811 
L 156.041718 60.255097 
L 157.213491 60.073802 
L 158.385263 60.180258 
L 159.557036 60.587192 
L 160.728809 61.302932 
L 161.900582 62.330846 
L 163.072354 63.669049 
L 164.244127 65.310371 
L 165.806491 67.948428 
L 167.368854 71.061049 
L 169.321809 75.53447 
L 171.665354 81.582427 
L 174.790082 90.367179 
L 180.258354 105.822036 
L 182.6019 111.761455 
L 184.554854 116.150456 
L 186.117218 119.2252 
L 187.679582 121.876032 
L 189.241945 124.085094 
L 190.804309 125.8485 
L 191.976082 126.883436 
L 193.147854 127.680127 
L 194.319627 128.249136 
L 195.4914 128.603264 
L 196.663172 128.756988 
L 197.834945 128.725907 
L 199.397309 128.425128 
L 200.959672 127.863751 
L 202.522036 127.080191 
L 204.474991 125.844205 
L 206.818536 124.072381 
L 209.943263 121.387516 
L 221.2704 111.29675 
L 224.395127 108.975721 
L 227.129263 107.239367 
L 229.472809 105.9972 
L 231.816354 104.996823 
L 234.1599 104.244735 
L 236.503445 103.740358 
L 238.846991 103.476164 
L 241.190536 103.438007 
L 243.534082 103.605736 
L 246.268218 104.027672 
L 249.392945 104.750309 
L 253.298854 105.900842 
L 266.188354 109.90633 
L 270.094263 110.769461 
L 273.609582 111.321844 
L 277.1249 111.657214 
L 280.796664 111.789081 
L 282.749618 111.702701 
L 283.921391 111.887296 
L 285.093164 112.357257 
L 286.264936 113.174659 
L 287.436709 114.384711 
L 288.608482 116.018096 
L 289.780255 118.09257 
L 290.952027 120.614497 
L 292.1238 123.580458 
L 293.686164 128.204948 
L 295.248527 133.553332 
L 297.201482 141.167171 
L 299.154436 149.688835 
L 301.497982 160.913978 
L 304.232118 175.073486 
L 308.138027 196.541174 
L 314.778073 233.228954 
L 317.512209 247.03966 
L 319.465164 255.935059 
L 321.418118 263.754991 
L 322.980482 269.092663 
L 324.542845 273.521646 
L 325.714618 276.214859 
L 326.886391 278.35974 
L 328.058164 279.961071 
L 328.839345 280.734336 
L 329.620527 281.280585 
L 330.401709 281.609028 
L 331.182891 281.730335 
L 331.964073 281.656332 
L 332.745255 281.399703 
L 333.917027 280.701432 
L 335.0888 279.66801 
L 336.260573 278.345292 
L 337.822936 276.208453 
L 339.775891 273.076225 
L 342.119436 268.869208 
L 351.493618 251.503861 
L 353.837164 247.814645 
L 355.790118 245.092514 
L 357.743073 242.726192 
L 359.696027 240.736489 
L 361.258391 239.422524 
L 362.820755 238.355482 
L 364.383118 237.530871 
L 365.945482 236.940322 
L 367.507845 236.57198 
L 369.070209 236.410956 
L 370.632573 236.439814 
L 372.585527 236.713104 
L 374.538482 237.2114 
L 376.882027 238.045461 
L 380.006755 239.434665 
L 391.333891 244.792961 
L 394.458618 245.875541 
L 397.192755 246.594507 
L 399.926891 247.094529 
L 402.661027 247.385115 
L 405.785755 247.487639 
L 409.301073 247.362111 
L 413.597573 246.962455 
L 421.0188 245.988793 
L 428.440027 245.099518 
L 433.9083 244.672068 
L 439.376573 244.471002 
L 445.626027 244.476133 
L 454.609618 244.736738 
L 469.842664 245.182495 
L 473.670455 245.229839 
L 473.670455 245.229839 
" clip-path="url(#p98643cced7)" style="fill: none; stroke: #008000; stroke-width: 2; stroke-linecap: square"/>
   </g>
   <g id="line2d_26">
    <path d="M 83.079545 245.110454 
L 86.188649 245.001199 
L 86.969831 244.759533 
L 87.751013 244.262859 
L 88.532195 243.466494 
L 89.313376 242.349036 
L 90.094558 240.909182 
L 91.266331 238.180078 
L 92.438104 234.853502 
L 94.000467 229.693219 
L 96.344013 220.949312 
L 101.031104 202.166277 
L 106.108785 182.17231 
L 110.014695 167.659618 
L 113.920604 154.014267 
L 117.826513 141.24057 
L 121.341831 130.471453 
L 124.857149 120.371588 
L 128.372467 110.927783 
L 131.887785 102.14103 
L 135.012513 94.903531 
L 138.13724 88.25544 
L 140.871376 82.994355 
L 143.214922 78.97726 
L 145.167876 76.044954 
L 146.73024 74.01759 
L 148.292604 72.314441 
L 149.854967 70.975644 
L 151.02674 70.234465 
L 152.198513 69.735758 
L 153.370285 69.492698 
L 154.542058 69.51556 
L 155.713831 69.81104 
L 156.885604 70.381753 
L 158.057376 71.225916 
L 159.229149 72.337251 
L 160.400922 73.705059 
L 161.963285 75.901491 
L 163.525649 78.481337 
L 165.478604 82.159425 
L 167.822149 87.06913 
L 177.196331 107.38593 
L 179.149285 110.882779 
L 181.10224 113.914549 
L 182.664604 115.975474 
L 184.226967 117.70176 
L 185.789331 119.094555 
L 187.351695 120.163843 
L 188.914058 120.926703 
L 190.476422 121.405504 
L 192.038785 121.626177 
L 193.601149 121.616691 
L 195.163513 121.40578 
L 197.116467 120.902256 
L 199.460013 120.016427 
L 202.194149 118.701712 
L 206.100058 116.520607 
L 214.302467 111.8594 
L 217.817785 110.161696 
L 220.942513 108.904549 
L 223.676649 108.024398 
L 226.410785 107.358466 
L 229.144922 106.905002 
L 232.269649 106.632887 
L 235.394376 106.596221 
L 238.909695 106.789194 
L 243.206195 107.272624 
L 249.84624 108.291402 
L 258.048649 109.506797 
L 263.516922 110.08046 
L 268.594604 110.391789 
L 274.062876 110.503523 
L 283.437058 110.599507 
L 284.608831 110.977635 
L 285.780604 111.673071 
L 286.952376 112.736233 
L 288.124149 114.202611 
L 289.295922 116.094419 
L 290.467695 118.422096 
L 291.639467 121.185899 
L 293.201831 125.53413 
L 294.764195 130.604572 
L 296.717149 137.876668 
L 298.670104 146.07004 
L 301.013649 156.925655 
L 303.747785 170.690754 
L 307.653695 191.648878 
L 314.29374 227.425377 
L 316.637285 238.928357 
L 318.59024 247.597768 
L 320.543195 255.185887 
L 322.105558 260.344497 
L 323.667922 264.615084 
L 324.839695 267.213612 
L 326.011467 269.293241 
L 327.18324 270.866232 
L 328.355013 271.955444 
L 329.136195 272.428076 
L 329.917376 272.710539 
L 330.698558 272.814762 
L 331.47974 272.753327 
L 332.651513 272.378972 
L 333.823285 271.705255 
L 334.995058 270.775672 
L 336.557422 269.210057 
L 338.510376 266.856786 
L 341.244513 263.102218 
L 348.66574 252.596615 
L 351.009285 249.704131 
L 353.352831 247.166956 
L 355.305785 245.357148 
L 357.25874 243.838889 
L 359.211695 242.615065 
L 361.164649 241.679378 
L 363.117604 241.017611 
L 365.070558 240.608999 
L 367.023513 240.427655 
L 369.367058 240.468241 
L 371.710604 240.738308 
L 374.44474 241.268148 
L 378.350649 242.263531 
L 386.943649 244.516113 
L 390.849558 245.272337 
L 394.364876 245.742476 
L 398.270785 246.034444 
L 402.567285 246.115796 
L 407.644967 245.980332 
L 417.40974 245.432789 
L 426.783922 245.009409 
L 434.986331 244.871964 
L 446.313467 244.93648 
L 471.311285 245.125453 
L 473.670455 245.124593 
L 473.670455 245.124593 
" clip-path="url(#p98643cced7)" style="fill: none; stroke: #00bfbf; stroke-width: 2; stroke-linecap: square"/>
   </g>
   <g id="line2d_27">
    <path d="M 83.079545 245.110454 
L 83.845104 245.00258 
L 86.188649 244.806756 
L 86.969831 244.480788 
L 87.751013 243.892991 
L 88.532195 243.002915 
L 89.313376 241.794031 
L 90.485149 239.395385 
L 91.656922 236.363415 
L 93.219285 231.531784 
L 95.17224 224.621433 
L 98.296967 212.575419 
L 105.718195 183.704629 
L 109.624104 169.428254 
L 113.530013 155.983118 
L 117.435922 143.388532 
L 120.95124 132.776732 
L 124.466558 122.847064 
L 127.981876 113.609253 
L 131.106604 106.006784 
L 133.84074 99.867446 
L 136.574876 94.270595 
L 138.918422 89.975025 
L 140.871376 86.808966 
L 142.824331 84.078018 
L 144.386695 82.247876 
L 145.949058 80.767724 
L 147.120831 79.905483 
L 148.292604 79.268083 
L 149.464376 78.86437 
L 150.636149 78.700448 
L 151.807922 78.779199 
L 152.979695 79.099946 
L 154.151467 79.658272 
L 155.32324 80.445988 
L 156.885604 81.832155 
L 158.447967 83.567368 
L 160.400922 86.155504 
L 162.744467 89.73305 
L 166.259785 95.631892 
L 170.556285 102.790135 
L 172.899831 106.298461 
L 174.852785 108.882476 
L 176.80574 111.106433 
L 178.758695 112.946028 
L 180.321058 114.137839 
L 181.883422 115.087072 
L 183.445785 115.805507 
L 185.008149 116.309163 
L 186.570513 116.616976 
L 188.523467 116.757939 
L 190.476422 116.667171 
L 192.819967 116.310784 
L 195.554104 115.639287 
L 199.069422 114.518995 
L 211.17774 110.430604 
L 214.693058 109.554637 
L 218.208376 108.89848 
L 221.723695 108.465601 
L 225.629604 108.227396 
L 229.926104 108.212656 
L 235.003785 108.434283 
L 243.987376 109.102869 
L 252.970967 109.689999 
L 260.392195 109.943875 
L 268.594604 109.99071 
L 279.92174 110.029865 
L 282.655876 110.132306 
L 283.827649 110.413594 
L 284.999422 110.96304 
L 286.171195 111.839805 
L 287.342967 113.0873 
L 288.51474 114.735051 
L 289.686513 116.800193 
L 290.858285 119.288994 
L 292.420649 123.260152 
L 293.983013 127.950999 
L 295.545376 133.316746 
L 297.498331 140.885817 
L 299.841876 151.063689 
L 302.576013 164.145351 
L 306.091331 182.257042 
L 313.903149 223.063483 
L 316.246695 233.976925 
L 318.199649 242.06907 
L 319.762013 247.728224 
L 321.324376 252.569604 
L 322.496149 255.631863 
L 323.667922 258.197566 
L 324.839695 260.272213 
L 326.011467 261.87288 
L 327.18324 263.026418 
L 328.355013 263.767165 
L 329.526785 264.13453 
L 330.698558 264.170719 
L 331.870331 263.918791 
L 333.042104 263.421135 
L 334.604467 262.445192 
L 336.166831 261.193453 
L 338.510376 258.970394 
L 343.197467 254.05619 
L 346.322195 250.932171 
L 349.056331 248.522838 
L 351.399876 246.7725 
L 353.352831 245.558612 
L 355.305785 244.572319 
L 357.25874 243.808919 
L 359.211695 243.256316 
L 361.55524 242.845925 
L 363.898785 242.674372 
L 366.632922 242.717503 
L 369.757649 242.999209 
L 374.44474 243.67383 
L 382.647149 244.874961 
L 387.33424 245.323033 
L 392.021331 245.551951 
L 397.489604 245.590898 
L 405.692013 245.395258 
L 420.534467 245.033872 
L 432.642785 245.001252 
L 473.670455 245.087052 
L 473.670455 245.087052 
" clip-path="url(#p98643cced7)" style="fill: none; stroke: #bf00bf; stroke-width: 2; stroke-linecap: square"/>
   </g>
   <g id="line2d_28">
    <path d="M 83.079545 245.110454 
L 83.645121 245.022543 
L 86.57924 244.478602 
L 87.360422 243.951004 
L 88.141604 243.132447 
L 88.922785 241.999098 
L 89.703967 240.549864 
L 90.87574 237.823665 
L 92.047513 234.528667 
L 93.609876 229.465627 
L 95.953422 220.981035 
L 101.812285 198.434524 
L 106.499376 180.919499 
L 110.405285 167.131316 
L 114.311195 154.165481 
L 117.826513 143.220653 
L 121.341831 132.974916 
L 124.857149 123.451402 
L 127.981876 115.631354 
L 130.716013 109.337315 
L 133.450149 103.623874 
L 135.793695 99.258802 
L 137.746649 96.052563 
L 139.699604 93.290253 
L 141.261967 91.433835 
L 142.824331 89.917898 
L 144.386695 88.76297 
L 145.558467 88.142847 
L 146.73024 87.737742 
L 147.902013 87.548357 
L 149.073785 87.572374 
L 150.245558 87.804328 
L 151.417331 88.23563 
L 152.979695 89.100342 
L 154.542058 90.263472 
L 156.495013 92.071816 
L 158.838558 94.635023 
L 162.353876 98.911937 
L 166.650376 104.084563 
L 168.993922 106.589164 
L 171.337467 108.746545 
L 173.290422 110.24207 
L 175.243376 111.451664 
L 177.196331 112.380407 
L 179.149285 113.04474 
L 181.10224 113.469088 
L 183.055195 113.682758 
L 185.39874 113.70565 
L 188.132876 113.479798 
L 191.257604 112.988998 
L 196.335285 111.922851 
L 203.756513 110.369431 
L 208.443604 109.634234 
L 212.740104 109.189731 
L 217.427195 108.947347 
L 222.504876 108.917311 
L 229.535513 109.122185 
L 247.893285 109.756 
L 258.43924 109.817994 
L 279.531149 109.861907 
L 283.046467 110.252544 
L 284.21824 110.683531 
L 285.390013 111.397879 
L 286.561785 112.446875 
L 287.733558 113.867355 
L 288.905331 115.68327 
L 290.077104 117.907132 
L 291.248876 120.541531 
L 292.81124 124.681752 
L 294.373604 129.509244 
L 296.326558 136.437449 
L 298.279513 144.251426 
L 300.623058 154.614184 
L 303.357195 167.75474 
L 307.653695 189.707171 
L 312.340785 213.456401 
L 314.684331 224.332575 
L 316.637285 232.472434 
L 318.199649 238.21531 
L 319.762013 243.176461 
L 321.324376 247.301939 
L 322.496149 249.83816 
L 323.667922 251.905581 
L 324.839695 253.525143 
L 326.011467 254.727014 
L 327.18324 255.548032 
L 328.355013 256.029138 
L 329.526785 256.213085 
L 330.698558 256.142576 
L 331.870331 255.858874 
L 333.432695 255.215755 
L 335.385649 254.102353 
L 338.119785 252.211672 
L 343.978649 248.040676 
L 346.712785 246.420109 
L 349.056331 245.294991 
L 351.399876 244.433158 
L 353.743422 243.830904 
L 356.086967 243.468231 
L 358.430513 243.313647 
L 361.164649 243.34477 
L 364.679967 243.6183 
L 371.320013 244.426771 
L 377.178876 245.048742 
L 382.256558 245.360712 
L 387.724831 245.462736 
L 395.146058 245.357534 
L 413.503831 245.027713 
L 430.29924 245.060209 
L 462.718285 245.082632 
L 473.670455 245.078724 
L 473.670455 245.078724 
" clip-path="url(#p98643cced7)" style="fill: none; stroke: #bfbf00; stroke-width: 2; stroke-linecap: square"/>
   </g>
   <g id="line2d_29">
    <path d="M 83.079545 245.110454 
L 83.645121 245.016897 
L 86.188649 244.515656 
L 86.969831 244.052855 
L 87.751013 243.312806 
L 88.532195 242.262427 
L 89.313376 240.894033 
L 90.485149 238.27769 
L 91.656922 235.077174 
L 93.219285 230.123346 
L 95.562831 221.791406 
L 101.812285 198.185996 
L 106.499376 181.075109 
L 110.405285 167.62498 
L 114.311195 154.998473 
L 117.826513 144.374867 
L 121.341831 134.488795 
L 124.466558 126.36542 
L 127.200695 119.82197 
L 129.934831 113.871273 
L 132.278376 109.30634 
L 134.231331 105.928843 
L 136.184285 102.982394 
L 137.746649 100.962537 
L 139.309013 99.262398 
L 140.871376 97.896348 
L 142.43374 96.873262 
L 143.605513 96.332496 
L 144.777285 95.983882 
L 145.949058 95.822755 
L 147.120831 95.841815 
L 148.683195 96.130132 
L 150.245558 96.691142 
L 151.807922 97.488643 
L 153.760876 98.755117 
L 156.104422 100.555029 
L 165.088013 107.769263 
L 167.431558 109.219359 
L 169.775104 110.377588 
L 171.728058 111.113974 
L 174.071604 111.734843 
L 176.415149 112.096309 
L 178.758695 112.236496 
L 181.492831 112.177151 
L 185.008149 111.851743 
L 190.476422 111.066988 
L 198.28824 109.962721 
L 203.365922 109.483148 
L 208.443604 109.23582 
L 214.302467 109.191026 
L 222.895467 109.384119 
L 238.128513 109.730198 
L 251.018013 109.751973 
L 278.840584 109.727316 
L 279.92174 109.911229 
L 282.655876 110.29528 
L 283.827649 110.701168 
L 284.999422 111.365596 
L 286.171195 112.342496 
L 287.342967 113.671345 
L 288.51474 115.378782 
L 289.686513 117.479994 
L 290.858285 119.980156 
L 292.420649 123.927535 
L 293.983013 128.551009 
L 295.545376 133.80791 
L 297.498331 141.186602 
L 299.841876 151.061788 
L 302.576013 163.688638 
L 306.481922 182.983486 
L 311.559604 208.035564 
L 313.903149 218.576099 
L 315.856104 226.420266 
L 317.418467 231.917368 
L 318.980831 236.631915 
L 320.543195 240.521952 
L 321.714967 242.897954 
L 322.88674 244.82658 
L 324.058513 246.334924 
L 325.230285 247.458282 
L 326.402058 248.237271 
L 327.573831 248.715168 
L 328.745604 248.935676 
L 329.917376 248.941252 
L 331.47974 248.68312 
L 333.042104 248.199832 
L 335.385649 247.213642 
L 342.806876 243.864842 
L 345.150422 243.112327 
L 347.493967 242.58614 
L 349.837513 242.288402 
L 352.181058 242.201392 
L 354.915195 242.323541 
L 358.430513 242.73517 
L 365.070558 243.827243 
L 370.538831 244.609022 
L 374.835331 245.005758 
L 379.522422 245.21385 
L 385.381285 245.234643 
L 414.285013 244.998184 
L 442.798149 245.084378 
L 473.670455 245.078971 
L 473.670455 245.078971 
" clip-path="url(#p98643cced7)" style="fill: none; stroke: #000000; stroke-width: 2; stroke-linecap: square"/>
   </g>
   <g id="line2d_30">
    <path d="M 83.079545 245.110454 
L 83.645121 245.012365 
L 86.188649 244.404179 
L 86.969831 243.885628 
L 87.751013 243.08205 
L 88.532195 241.963432 
L 89.313376 240.525955 
L 90.485149 237.813436 
L 91.656922 234.536378 
L 93.219285 229.523485 
L 95.562831 221.198535 
L 106.889967 179.89847 
L 110.795876 166.878245 
L 114.311195 155.886245 
L 117.826513 145.632718 
L 120.95124 137.189125 
L 123.685376 130.370729 
L 126.419513 124.146244 
L 128.763058 119.341322 
L 131.106604 115.084929 
L 133.059558 111.999271 
L 135.012513 109.366689 
L 136.574876 107.603856 
L 138.13724 106.155029 
L 139.699604 105.022495 
L 141.261967 104.201985 
L 142.824331 103.68217 
L 144.386695 103.444658 
L 145.949058 103.464456 
L 147.511422 103.710852 
L 149.464376 104.283576 
L 151.807922 105.259624 
L 155.32324 107.038668 
L 160.010331 109.38526 
L 162.744467 110.496435 
L 165.088013 111.228267 
L 167.431558 111.74297 
L 169.775104 112.048756 
L 172.50924 112.171669 
L 175.633967 112.064812 
L 179.539876 111.68005 
L 196.335285 109.688436 
L 201.412967 109.454467 
L 207.662422 109.40521 
L 218.208376 109.598182 
L 231.488467 109.769211 
L 248.674467 109.708146 
L 276.406422 109.665415 
L 278.940576 109.769869 
L 280.312331 110.003372 
L 282.265285 110.326115 
L 283.437058 110.706069 
L 284.608831 111.321097 
L 285.780604 112.227675 
L 286.952376 113.467738 
L 288.124149 115.070414 
L 289.295922 117.053397 
L 290.467695 119.424312 
L 292.030058 123.186202 
L 293.592422 127.613643 
L 295.154785 132.668172 
L 297.10774 139.79007 
L 299.451285 149.357422 
L 302.185422 161.629728 
L 306.091331 180.41555 
L 310.778422 202.919495 
L 313.121967 213.186845 
L 315.074922 220.796919 
L 316.637285 226.100627 
L 318.199649 230.620309 
L 319.371422 233.473639 
L 320.543195 235.869615 
L 321.714967 237.825676 
L 322.88674 239.370874 
L 324.058513 240.5428 
L 325.230285 241.384345 
L 326.402058 241.940755 
L 327.573831 242.257234 
L 328.745604 242.377181 
L 330.307967 242.300781 
L 332.260922 241.94385 
L 335.385649 241.084642 
L 339.291558 240.039482 
L 342.025695 239.559127 
L 344.36924 239.376931 
L 346.712785 239.414161 
L 349.446922 239.709617 
L 352.571649 240.307702 
L 357.25874 241.490331 
L 363.508195 243.048627 
L 367.414104 243.785294 
L 371.320013 244.281674 
L 375.616513 244.577831 
L 380.694195 244.692083 
L 473.670455 245.075024 
L 473.670455 245.075024 
" clip-path="url(#p98643cced7)" style="fill: none; stroke: #ff0000; stroke-width: 2; stroke-linecap: square"/>
   </g>
   <g id="line2d_31">
    <path d="M 83.079545 245.110454 
L 83.645121 245.008647 
L 85.798058 244.499698 
L 86.57924 244.05883 
L 87.360422 243.350156 
L 88.141604 242.331623 
L 88.922785 240.989968 
L 90.094558 238.40113 
L 91.266331 235.21934 
L 92.828695 230.298596 
L 95.17224 222.079039 
L 105.718195 184.069741 
L 109.624104 171.157623 
L 113.139422 160.277636 
L 116.264149 151.25064 
L 119.388876 142.890259 
L 122.123013 136.182505 
L 124.466558 130.936569 
L 126.810104 126.206536 
L 128.763058 122.695902 
L 130.716013 119.607154 
L 132.668967 116.963314 
L 134.231331 115.178627 
L 135.793695 113.690112 
L 137.356058 112.494001 
L 138.918422 111.580298 
L 140.480785 110.932709 
L 142.043149 110.529018 
L 143.605513 110.34185 
L 145.558467 110.364197 
L 147.511422 110.608534 
L 150.245558 111.192273 
L 158.057376 113.046537 
L 160.791513 113.420337 
L 163.525649 113.579802 
L 166.650376 113.51323 
L 170.165695 113.18166 
L 174.852785 112.477131 
L 185.789331 110.741826 
L 190.867013 110.221589 
L 195.944695 109.931742 
L 202.194149 109.817801 
L 214.302467 109.896031 
L 227.973149 109.881106 
L 265.079285 109.685567 
L 278.940576 109.792625 
L 280.702922 110.111483 
L 282.265285 110.431308 
L 283.437058 110.850179 
L 284.608831 111.503191 
L 285.780604 112.444199 
L 286.952376 113.713045 
L 288.124149 115.337235 
L 289.295922 117.333287 
L 290.467695 119.708056 
L 292.030058 123.460098 
L 293.592422 127.860458 
L 295.154785 132.871112 
L 297.10774 139.915583 
L 299.451285 149.35806 
L 302.185422 161.438548 
L 306.481922 181.69924 
L 310.387831 199.844437 
L 312.731376 209.719003 
L 314.684331 216.94755 
L 316.246695 221.914967 
L 317.809058 226.083147 
L 318.980831 228.673435 
L 320.152604 230.816466 
L 321.324376 232.538309 
L 322.496149 233.87572 
L 323.667922 234.87247 
L 324.839695 235.575822 
L 326.011467 236.033587 
L 327.18324 236.291915 
L 328.745604 236.399923 
L 330.698558 236.280345 
L 334.604467 235.713941 
L 337.729195 235.36584 
L 340.07274 235.316159 
L 342.416285 235.491438 
L 344.759831 235.892507 
L 347.493967 236.610102 
L 350.618695 237.669362 
L 361.164649 241.468897 
L 364.289376 242.28361 
L 367.414104 242.888605 
L 370.929422 243.341246 
L 375.225922 243.645119 
L 381.475376 243.825317 
L 395.92724 244.191001 
L 415.066195 244.783393 
L 429.518058 244.917915 
L 473.670455 245.057208 
L 473.670455 245.057208 
" clip-path="url(#p98643cced7)" style="fill: none; stroke: #0000ff; stroke-width: 2; stroke-linecap: square"/>
   </g>
   <g id="line2d_32">
    <path d="M 83.079545 245.110454 
L 83.645121 245.005541 
L 85.798058 244.435987 
L 86.57924 243.95583 
L 87.360422 243.199834 
L 88.141604 242.127826 
L 88.922785 240.729354 
L 90.094558 238.05652 
L 91.266331 234.802225 
L 92.828695 229.816435 
L 95.562831 220.162481 
L 103.374649 192.121229 
L 107.280558 179.054497 
L 110.795876 168.030699 
L 113.920604 158.881221 
L 117.045331 150.41066 
L 119.779467 143.621064 
L 122.123013 138.317041 
L 124.466558 133.538497 
L 126.419513 129.991399 
L 128.372467 126.864793 
L 130.325422 124.175133 
L 131.887785 122.342721 
L 133.450149 120.791828 
L 135.012513 119.514227 
L 136.574876 118.495779 
L 138.13724 117.71669 
L 139.699604 117.152156 
L 141.652558 116.704008 
L 143.605513 116.483835 
L 146.339649 116.436083 
L 156.885604 116.596906 
L 160.010331 116.292424 
L 163.525649 115.721233 
L 168.21274 114.706608 
L 178.758695 112.341755 
L 183.445785 111.573502 
L 188.132876 111.045386 
L 193.210558 110.708605 
L 199.850604 110.510342 
L 248.283876 109.790333 
L 278.593731 109.735408 
L 283.046467 110.8111 
L 284.21824 111.413821 
L 285.390013 112.286299 
L 286.561785 113.470676 
L 287.733558 114.996694 
L 288.905331 116.883073 
L 290.077104 119.138817 
L 291.639467 122.721101 
L 293.201831 126.943043 
L 294.764195 131.770388 
L 296.717149 138.583527 
L 299.060695 147.751023 
L 301.794831 159.51947 
L 306.091331 179.30126 
L 309.99724 196.968703 
L 312.340785 206.496039 
L 314.29374 213.386933 
L 315.856104 218.056085 
L 317.418467 221.912202 
L 318.59024 224.269038 
L 319.762013 226.187828 
L 320.933785 227.702347 
L 322.105558 228.856115 
L 323.277331 229.698207 
L 324.449104 230.279538 
L 325.620876 230.649962 
L 327.18324 230.89608 
L 329.136195 230.942081 
L 337.338604 230.789017 
L 339.682149 231.140145 
L 342.025695 231.742219 
L 344.36924 232.573636 
L 347.493967 233.956429 
L 358.821104 239.33525 
L 361.945831 240.401558 
L 365.070558 241.200697 
L 368.195285 241.759711 
L 371.710604 242.166607 
L 376.788285 242.507298 
L 395.146058 243.552735 
L 406.473195 244.215482 
L 415.847376 244.516509 
L 431.471013 244.738482 
L 463.890058 244.99097 
L 473.670455 245.017304 
L 473.670455 245.017304 
" clip-path="url(#p98643cced7)" style="fill: none; stroke: #008000; stroke-width: 2; stroke-linecap: square"/>
   </g>
   <g id="patch_3">
    <path d="M 63.55 312.2 
L 63.55 28.8 
" style="fill: none; stroke: #000000; stroke-width: 0.8; stroke-linejoin: miter; stroke-linecap: square"/>
   </g>
   <g id="patch_4">
    <path d="M 493.2 312.2 
L 493.2 28.8 
" style="fill: none; stroke: #000000; stroke-width: 0.8; stroke-linejoin: miter; stroke-linecap: square"/>
   </g>
   <g id="patch_5">
    <path d="M 63.55 312.2 
L 493.2 312.2 
" style="fill: none; stroke: #000000; stroke-width: 0.8; stroke-linejoin: miter; stroke-linecap: square"/>
   </g>
   <g id="patch_6">
    <path d="M 63.55 28.8 
L 493.2 28.8 
" style="fill: none; stroke: #000000; stroke-width: 0.8; stroke-linejoin: miter; stroke-linecap: square"/>
   </g>
   <g id="text_14">
    <!-- Pulse $V_{out}$, stepped $C_c$ -->
    <g transform="translate(212.735 22.8) scale(0.12 -0.12)">
     <defs>
      <path id="DejaVuSans-50" d="M 1259 4147 
L 1259 2394 
L 2053 2394 
Q 2494 2394 2734 2622 
Q 2975 2850 2975 3272 
Q 2975 3691 2734 3919 
Q 2494 4147 2053 4147 
L 1259 4147 
z
M 628 4666 
L 2053 4666 
Q 2838 4666 3239 4311 
Q 3641 3956 3641 3272 
Q 3641 2581 3239 2228 
Q 2838 1875 2053 1875 
L 1259 1875 
L 1259 0 
L 628 0 
L 628 4666 
z
" transform="scale(0.015625)"/>
      <path id="DejaVuSans-6c" d="M 603 4863 
L 1178 4863 
L 1178 0 
L 603 0 
L 603 4863 
z
" transform="scale(0.015625)"/>
      <path id="DejaVuSans-Oblique-56" d="M 1319 0 
L 500 4666 
L 1119 4666 
L 1797 653 
L 4063 4666 
L 4750 4666 
L 2053 0 
L 1319 0 
z
" transform="scale(0.015625)"/>
      <path id="DejaVuSans-Oblique-6f" d="M 1625 -91 
Q 1009 -91 651 289 
Q 294 669 294 1325 
Q 294 1706 417 2101 
Q 541 2497 738 2766 
Q 1047 3184 1428 3384 
Q 1809 3584 2291 3584 
Q 2888 3584 3255 3212 
Q 3622 2841 3622 2241 
Q 3622 1825 3500 1412 
Q 3378 1000 3181 728 
Q 2875 309 2494 109 
Q 2113 -91 1625 -91 
z
M 891 1344 
Q 891 869 1089 633 
Q 1288 397 1691 397 
Q 2269 397 2648 901 
Q 3028 1406 3028 2181 
Q 3028 2634 2825 2865 
Q 2622 3097 2228 3097 
Q 1903 3097 1650 2945 
Q 1397 2794 1197 2484 
Q 1050 2253 970 1956 
Q 891 1659 891 1344 
z
" transform="scale(0.015625)"/>
      <path id="DejaVuSans-Oblique-75" d="M 428 1388 
L 838 3500 
L 1416 3500 
L 1006 1409 
Q 975 1256 961 1147 
Q 947 1038 947 966 
Q 947 700 1109 554 
Q 1272 409 1569 409 
Q 2031 409 2368 721 
Q 2706 1034 2809 1563 
L 3194 3500 
L 3769 3500 
L 3091 0 
L 2516 0 
L 2631 550 
Q 2388 244 2052 76 
Q 1716 -91 1338 -91 
Q 878 -91 622 161 
Q 366 413 366 863 
Q 366 956 381 1097 
Q 397 1238 428 1388 
z
" transform="scale(0.015625)"/>
      <path id="DejaVuSans-Oblique-74" d="M 2706 3500 
L 2619 3053 
L 1472 3053 
L 1100 1153 
Q 1081 1047 1072 975 
Q 1063 903 1063 863 
Q 1063 663 1183 572 
Q 1303 481 1569 481 
L 2150 481 
L 2053 0 
L 1503 0 
Q 991 0 739 200 
Q 488 400 488 806 
Q 488 878 497 964 
Q 506 1050 525 1153 
L 897 3053 
L 409 3053 
L 500 3500 
L 978 3500 
L 1172 4494 
L 1747 4494 
L 1556 3500 
L 2706 3500 
z
" transform="scale(0.015625)"/>
      <path id="DejaVuSans-2c" d="M 750 794 
L 1409 794 
L 1409 256 
L 897 -744 
L 494 -744 
L 750 256 
L 750 794 
z
" transform="scale(0.015625)"/>
      <path id="DejaVuSans-70" d="M 1159 525 
L 1159 -1331 
L 581 -1331 
L 581 3500 
L 1159 3500 
L 1159 2969 
Q 1341 3281 1617 3432 
Q 1894 3584 2278 3584 
Q 2916 3584 3314 3078 
Q 3713 2572 3713 1747 
Q 3713 922 3314 415 
Q 2916 -91 2278 -91 
Q 1894 -91 1617 61 
Q 1341 213 1159 525 
z
M 3116 1747 
Q 3116 2381 2855 2742 
Q 2594 3103 2138 3103 
Q 1681 3103 1420 2742 
Q 1159 2381 1159 1747 
Q 1159 1113 1420 752 
Q 1681 391 2138 391 
Q 2594 391 2855 752 
Q 3116 1113 3116 1747 
z
" transform="scale(0.015625)"/>
      <path id="DejaVuSans-64" d="M 2906 2969 
L 2906 4863 
L 3481 4863 
L 3481 0 
L 2906 0 
L 2906 525 
Q 2725 213 2448 61 
Q 2172 -91 1784 -91 
Q 1150 -91 751 415 
Q 353 922 353 1747 
Q 353 2572 751 3078 
Q 1150 3584 1784 3584 
Q 2172 3584 2448 3432 
Q 2725 3281 2906 2969 
z
M 947 1747 
Q 947 1113 1208 752 
Q 1469 391 1925 391 
Q 2381 391 2643 752 
Q 2906 1113 2906 1747 
Q 2906 2381 2643 2742 
Q 2381 3103 1925 3103 
Q 1469 3103 1208 2742 
Q 947 2381 947 1747 
z
" transform="scale(0.015625)"/>
      <path id="DejaVuSans-Oblique-43" d="M 4447 4306 
L 4319 3641 
Q 4019 3944 3683 4091 
Q 3347 4238 2956 4238 
Q 2422 4238 2017 3981 
Q 1613 3725 1319 3200 
Q 1131 2863 1032 2486 
Q 934 2109 934 1728 
Q 934 1091 1264 756 
Q 1594 422 2222 422 
Q 2656 422 3056 561 
Q 3456 700 3834 978 
L 3688 231 
Q 3316 72 2936 -9 
Q 2556 -91 2175 -91 
Q 1278 -91 773 396 
Q 269 884 269 1753 
Q 269 2309 461 2846 
Q 653 3384 1013 3828 
Q 1394 4300 1883 4525 
Q 2372 4750 3022 4750 
Q 3422 4750 3780 4639 
Q 4138 4528 4447 4306 
z
" transform="scale(0.015625)"/>
      <path id="DejaVuSans-Oblique-63" d="M 3431 3366 
L 3316 2797 
Q 3109 2947 2876 3022 
Q 2644 3097 2394 3097 
Q 2119 3097 1870 3000 
Q 1622 2903 1453 2725 
Q 1184 2453 1037 2087 
Q 891 1722 891 1331 
Q 891 859 1127 628 
Q 1363 397 1844 397 
Q 2081 397 2348 469 
Q 2616 541 2906 684 
L 2797 116 
Q 2547 13 2283 -39 
Q 2019 -91 1741 -91 
Q 1044 -91 669 257 
Q 294 606 294 1253 
Q 294 1797 489 2255 
Q 684 2713 1069 3078 
Q 1331 3328 1684 3456 
Q 2038 3584 2456 3584 
Q 2700 3584 2940 3529 
Q 3181 3475 3431 3366 
z
" transform="scale(0.015625)"/>
     </defs>
     <use xlink:href="#DejaVuSans-50" transform="translate(0 0.015625)"/>
     <use xlink:href="#DejaVuSans-75" transform="translate(60.302734 0.015625)"/>
     <use xlink:href="#DejaVuSans-6c" transform="translate(123.681641 0.015625)"/>
     <use xlink:href="#DejaVuSans-73" transform="translate(151.464844 0.015625)"/>
     <use xlink:href="#DejaVuSans-65" transform="translate(203.564453 0.015625)"/>
     <use xlink:href="#DejaVuSans-20" transform="translate(265.087891 0.015625)"/>
     <use xlink:href="#DejaVuSans-Oblique-56" transform="translate(296.875 0.015625)"/>
     <use xlink:href="#DejaVuSans-Oblique-6f" transform="translate(365.283203 -16.390625) scale(0.7)"/>
     <use xlink:href="#DejaVuSans-Oblique-75" transform="translate(408.110352 -16.390625) scale(0.7)"/>
     <use xlink:href="#DejaVuSans-Oblique-74" transform="translate(452.475586 -16.390625) scale(0.7)"/>
     <use xlink:href="#DejaVuSans-2c" transform="translate(482.65625 0.015625)"/>
     <use xlink:href="#DejaVuSans-20" transform="translate(514.443359 0.015625)"/>
     <use xlink:href="#DejaVuSans-73" transform="translate(546.230469 0.015625)"/>
     <use xlink:href="#DejaVuSans-74" transform="translate(598.330078 0.015625)"/>
     <use xlink:href="#DejaVuSans-65" transform="translate(637.539062 0.015625)"/>
     <use xlink:href="#DejaVuSans-70" transform="translate(699.0625 0.015625)"/>
     <use xlink:href="#DejaVuSans-70" transform="translate(762.539062 0.015625)"/>
     <use xlink:href="#DejaVuSans-65" transform="translate(826.015625 0.015625)"/>
     <use xlink:href="#DejaVuSans-64" transform="translate(887.539062 0.015625)"/>
     <use xlink:href="#DejaVuSans-20" transform="translate(951.015625 0.015625)"/>
     <use xlink:href="#DejaVuSans-Oblique-43" transform="translate(982.802734 0.015625)"/>
     <use xlink:href="#DejaVuSans-Oblique-63" transform="translate(1052.626953 -16.390625) scale(0.7)"/>
    </g>
   </g>
   <g id="legend_1">
    <g id="patch_7">
     <path d="M 351.561875 157.275 
L 486.2 157.275 
Q 488.2 157.275 488.2 155.275 
L 488.2 35.8 
Q 488.2 33.8 486.2 33.8 
L 351.561875 33.8 
Q 349.561875 33.8 349.561875 35.8 
L 349.561875 155.275 
Q 349.561875 157.275 351.561875 157.275 
z
" style="fill: #ffffff; opacity: 0.8; stroke: #cccccc; stroke-linejoin: miter"/>
    </g>
    <g id="line2d_33">
     <path d="M 351.561875 41.418125 
L 356.561875 41.418125 
L 361.561875 41.418125 
" style="fill: none; stroke: #ff0000; stroke-width: 2; stroke-linecap: square"/>
    </g>
    <g id="text_15">
     <!-- V_out:C_c=2.00e-12 -->
     <g transform="translate(363.561875 44.918125) scale(0.12 -0.12)">
      <defs>
       <path id="DejaVuSans-5f" d="M 3263 -1063 
L 3263 -1509 
L -63 -1509 
L -63 -1063 
L 3263 -1063 
z
" transform="scale(0.015625)"/>
       <path id="DejaVuSans-6f" d="M 1959 3097 
Q 1497 3097 1228 2736 
Q 959 2375 959 1747 
Q 959 1119 1226 758 
Q 1494 397 1959 397 
Q 2419 397 2687 759 
Q 2956 1122 2956 1747 
Q 2956 2369 2687 2733 
Q 2419 3097 1959 3097 
z
M 1959 3584 
Q 2709 3584 3137 3096 
Q 3566 2609 3566 1747 
Q 3566 888 3137 398 
Q 2709 -91 1959 -91 
Q 1206 -91 779 398 
Q 353 888 353 1747 
Q 353 2609 779 3096 
Q 1206 3584 1959 3584 
z
" transform="scale(0.015625)"/>
       <path id="DejaVuSans-3a" d="M 750 794 
L 1409 794 
L 1409 0 
L 750 0 
L 750 794 
z
M 750 3309 
L 1409 3309 
L 1409 2516 
L 750 2516 
L 750 3309 
z
" transform="scale(0.015625)"/>
       <path id="DejaVuSans-43" d="M 4122 4306 
L 4122 3641 
Q 3803 3938 3442 4084 
Q 3081 4231 2675 4231 
Q 1875 4231 1450 3742 
Q 1025 3253 1025 2328 
Q 1025 1406 1450 917 
Q 1875 428 2675 428 
Q 3081 428 3442 575 
Q 3803 722 4122 1019 
L 4122 359 
Q 3791 134 3420 21 
Q 3050 -91 2638 -91 
Q 1578 -91 968 557 
Q 359 1206 359 2328 
Q 359 3453 968 4101 
Q 1578 4750 2638 4750 
Q 3056 4750 3426 4639 
Q 3797 4528 4122 4306 
z
" transform="scale(0.015625)"/>
       <path id="DejaVuSans-63" d="M 3122 3366 
L 3122 2828 
Q 2878 2963 2633 3030 
Q 2388 3097 2138 3097 
Q 1578 3097 1268 2742 
Q 959 2388 959 1747 
Q 959 1106 1268 751 
Q 1578 397 2138 397 
Q 2388 397 2633 464 
Q 2878 531 3122 666 
L 3122 134 
Q 2881 22 2623 -34 
Q 2366 -91 2075 -91 
Q 1284 -91 818 406 
Q 353 903 353 1747 
Q 353 2603 823 3093 
Q 1294 3584 2113 3584 
Q 2378 3584 2631 3529 
Q 2884 3475 3122 3366 
z
" transform="scale(0.015625)"/>
       <path id="DejaVuSans-3d" d="M 678 2906 
L 4684 2906 
L 4684 2381 
L 678 2381 
L 678 2906 
z
M 678 1631 
L 4684 1631 
L 4684 1100 
L 678 1100 
L 678 1631 
z
" transform="scale(0.015625)"/>
       <path id="DejaVuSans-2d" d="M 313 2009 
L 1997 2009 
L 1997 1497 
L 313 1497 
L 313 2009 
z
" transform="scale(0.015625)"/>
      </defs>
      <use xlink:href="#DejaVuSans-56"/>
      <use xlink:href="#DejaVuSans-5f" x="68.408203"/>
      <use xlink:href="#DejaVuSans-6f" x="118.408203"/>
      <use xlink:href="#DejaVuSans-75" x="179.589844"/>
      <use xlink:href="#DejaVuSans-74" x="242.96875"/>
      <use xlink:href="#DejaVuSans-3a" x="282.177734"/>
      <use xlink:href="#DejaVuSans-43" x="315.869141"/>
      <use xlink:href="#DejaVuSans-5f" x="385.693359"/>
      <use xlink:href="#DejaVuSans-63" x="435.693359"/>
      <use xlink:href="#DejaVuSans-3d" x="490.673828"/>
      <use xlink:href="#DejaVuSans-32" x="574.462891"/>
      <use xlink:href="#DejaVuSans-2e" x="638.085938"/>
      <use xlink:href="#DejaVuSans-30" x="669.873047"/>
      <use xlink:href="#DejaVuSans-30" x="733.496094"/>
      <use xlink:href="#DejaVuSans-65" x="797.119141"/>
      <use xlink:href="#DejaVuSans-2d" x="858.642578"/>
      <use xlink:href="#DejaVuSans-31" x="894.726562"/>
      <use xlink:href="#DejaVuSans-32" x="958.349609"/>
     </g>
    </g>
    <g id="line2d_34">
     <path d="M 351.561875 53.365625 
L 356.561875 53.365625 
L 361.561875 53.365625 
" style="fill: none; stroke: #0000ff; stroke-width: 2; stroke-linecap: square"/>
    </g>
    <g id="text_16">
     <!-- V_out:C_c=4.00e-12 -->
     <g transform="translate(363.561875 56.865625) scale(0.12 -0.12)">
      <use xlink:href="#DejaVuSans-56"/>
      <use xlink:href="#DejaVuSans-5f" x="68.408203"/>
      <use xlink:href="#DejaVuSans-6f" x="118.408203"/>
      <use xlink:href="#DejaVuSans-75" x="179.589844"/>
      <use xlink:href="#DejaVuSans-74" x="242.96875"/>
      <use xlink:href="#DejaVuSans-3a" x="282.177734"/>
      <use xlink:href="#DejaVuSans-43" x="315.869141"/>
      <use xlink:href="#DejaVuSans-5f" x="385.693359"/>
      <use xlink:href="#DejaVuSans-63" x="435.693359"/>
      <use xlink:href="#DejaVuSans-3d" x="490.673828"/>
      <use xlink:href="#DejaVuSans-34" x="574.462891"/>
      <use xlink:href="#DejaVuSans-2e" x="638.085938"/>
      <use xlink:href="#DejaVuSans-30" x="669.873047"/>
      <use xlink:href="#DejaVuSans-30" x="733.496094"/>
      <use xlink:href="#DejaVuSans-65" x="797.119141"/>
      <use xlink:href="#DejaVuSans-2d" x="858.642578"/>
      <use xlink:href="#DejaVuSans-31" x="894.726562"/>
      <use xlink:href="#DejaVuSans-32" x="958.349609"/>
     </g>
    </g>
    <g id="line2d_35">
     <path d="M 351.561875 65.313125 
L 356.561875 65.313125 
L 361.561875 65.313125 
" style="fill: none; stroke: #008000; stroke-width: 2; stroke-linecap: square"/>
    </g>
    <g id="text_17">
     <!-- V_out:C_c=6.00e-12 -->
     <g transform="translate(363.561875 68.813125) scale(0.12 -0.12)">
      <use xlink:href="#DejaVuSans-56"/>
      <use xlink:href="#DejaVuSans-5f" x="68.408203"/>
      <use xlink:href="#DejaVuSans-6f" x="118.408203"/>
      <use xlink:href="#DejaVuSans-75" x="179.589844"/>
      <use xlink:href="#DejaVuSans-74" x="242.96875"/>
      <use xlink:href="#DejaVuSans-3a" x="282.177734"/>
      <use xlink:href="#DejaVuSans-43" x="315.869141"/>
      <use xlink:href="#DejaVuSans-5f" x="385.693359"/>
      <use xlink:href="#DejaVuSans-63" x="435.693359"/>
      <use xlink:href="#DejaVuSans-3d" x="490.673828"/>
      <use xlink:href="#DejaVuSans-36" x="574.462891"/>
      <use xlink:href="#DejaVuSans-2e" x="638.085938"/>
      <use xlink:href="#DejaVuSans-30" x="669.873047"/>
      <use xlink:href="#DejaVuSans-30" x="733.496094"/>
      <use xlink:href="#DejaVuSans-65" x="797.119141"/>
      <use xlink:href="#DejaVuSans-2d" x="858.642578"/>
      <use xlink:href="#DejaVuSans-31" x="894.726562"/>
      <use xlink:href="#DejaVuSans-32" x="958.349609"/>
     </g>
    </g>
    <g id="line2d_36">
     <path d="M 351.561875 77.260625 
L 356.561875 77.260625 
L 361.561875 77.260625 
" style="fill: none; stroke: #00bfbf; stroke-width: 2; stroke-linecap: square"/>
    </g>
    <g id="text_18">
     <!-- V_out:C_c=8.00e-12 -->
     <g transform="translate(363.561875 80.760625) scale(0.12 -0.12)">
      <use xlink:href="#DejaVuSans-56"/>
      <use xlink:href="#DejaVuSans-5f" x="68.408203"/>
      <use xlink:href="#DejaVuSans-6f" x="118.408203"/>
      <use xlink:href="#DejaVuSans-75" x="179.589844"/>
      <use xlink:href="#DejaVuSans-74" x="242.96875"/>
      <use xlink:href="#DejaVuSans-3a" x="282.177734"/>
      <use xlink:href="#DejaVuSans-43" x="315.869141"/>
      <use xlink:href="#DejaVuSans-5f" x="385.693359"/>
      <use xlink:href="#DejaVuSans-63" x="435.693359"/>
      <use xlink:href="#DejaVuSans-3d" x="490.673828"/>
      <use xlink:href="#DejaVuSans-38" x="574.462891"/>
      <use xlink:href="#DejaVuSans-2e" x="638.085938"/>
      <use xlink:href="#DejaVuSans-30" x="669.873047"/>
      <use xlink:href="#DejaVuSans-30" x="733.496094"/>
      <use xlink:href="#DejaVuSans-65" x="797.119141"/>
      <use xlink:href="#DejaVuSans-2d" x="858.642578"/>
      <use xlink:href="#DejaVuSans-31" x="894.726562"/>
      <use xlink:href="#DejaVuSans-32" x="958.349609"/>
     </g>
    </g>
    <g id="line2d_37">
     <path d="M 351.561875 89.208125 
L 356.561875 89.208125 
L 361.561875 89.208125 
" style="fill: none; stroke: #bf00bf; stroke-width: 2; stroke-linecap: square"/>
    </g>
    <g id="text_19">
     <!-- V_out:C_c=1.00e-11 -->
     <g transform="translate(363.561875 92.708125) scale(0.12 -0.12)">
      <use xlink:href="#DejaVuSans-56"/>
      <use xlink:href="#DejaVuSans-5f" x="68.408203"/>
      <use xlink:href="#DejaVuSans-6f" x="118.408203"/>
      <use xlink:href="#DejaVuSans-75" x="179.589844"/>
      <use xlink:href="#DejaVuSans-74" x="242.96875"/>
      <use xlink:href="#DejaVuSans-3a" x="282.177734"/>
      <use xlink:href="#DejaVuSans-43" x="315.869141"/>
      <use xlink:href="#DejaVuSans-5f" x="385.693359"/>
      <use xlink:href="#DejaVuSans-63" x="435.693359"/>
      <use xlink:href="#DejaVuSans-3d" x="490.673828"/>
      <use xlink:href="#DejaVuSans-31" x="574.462891"/>
      <use xlink:href="#DejaVuSans-2e" x="638.085938"/>
      <use xlink:href="#DejaVuSans-30" x="669.873047"/>
      <use xlink:href="#DejaVuSans-30" x="733.496094"/>
      <use xlink:href="#DejaVuSans-65" x="797.119141"/>
      <use xlink:href="#DejaVuSans-2d" x="858.642578"/>
      <use xlink:href="#DejaVuSans-31" x="894.726562"/>
      <use xlink:href="#DejaVuSans-31" x="958.349609"/>
     </g>
    </g>
    <g id="line2d_38">
     <path d="M 351.561875 101.155625 
L 356.561875 101.155625 
L 361.561875 101.155625 
" style="fill: none; stroke: #bfbf00; stroke-width: 2; stroke-linecap: square"/>
    </g>
    <g id="text_20">
     <!-- V_out:C_c=1.20e-11 -->
     <g transform="translate(363.561875 104.655625) scale(0.12 -0.12)">
      <use xlink:href="#DejaVuSans-56"/>
      <use xlink:href="#DejaVuSans-5f" x="68.408203"/>
      <use xlink:href="#DejaVuSans-6f" x="118.408203"/>
      <use xlink:href="#DejaVuSans-75" x="179.589844"/>
      <use xlink:href="#DejaVuSans-74" x="242.96875"/>
      <use xlink:href="#DejaVuSans-3a" x="282.177734"/>
      <use xlink:href="#DejaVuSans-43" x="315.869141"/>
      <use xlink:href="#DejaVuSans-5f" x="385.693359"/>
      <use xlink:href="#DejaVuSans-63" x="435.693359"/>
      <use xlink:href="#DejaVuSans-3d" x="490.673828"/>
      <use xlink:href="#DejaVuSans-31" x="574.462891"/>
      <use xlink:href="#DejaVuSans-2e" x="638.085938"/>
      <use xlink:href="#DejaVuSans-32" x="669.873047"/>
      <use xlink:href="#DejaVuSans-30" x="733.496094"/>
      <use xlink:href="#DejaVuSans-65" x="797.119141"/>
      <use xlink:href="#DejaVuSans-2d" x="858.642578"/>
      <use xlink:href="#DejaVuSans-31" x="894.726562"/>
      <use xlink:href="#DejaVuSans-31" x="958.349609"/>
     </g>
    </g>
    <g id="line2d_39">
     <path d="M 351.561875 113.103125 
L 356.561875 113.103125 
L 361.561875 113.103125 
" style="fill: none; stroke: #000000; stroke-width: 2; stroke-linecap: square"/>
    </g>
    <g id="text_21">
     <!-- V_out:C_c=1.40e-11 -->
     <g transform="translate(363.561875 116.603125) scale(0.12 -0.12)">
      <use xlink:href="#DejaVuSans-56"/>
      <use xlink:href="#DejaVuSans-5f" x="68.408203"/>
      <use xlink:href="#DejaVuSans-6f" x="118.408203"/>
      <use xlink:href="#DejaVuSans-75" x="179.589844"/>
      <use xlink:href="#DejaVuSans-74" x="242.96875"/>
      <use xlink:href="#DejaVuSans-3a" x="282.177734"/>
      <use xlink:href="#DejaVuSans-43" x="315.869141"/>
      <use xlink:href="#DejaVuSans-5f" x="385.693359"/>
      <use xlink:href="#DejaVuSans-63" x="435.693359"/>
      <use xlink:href="#DejaVuSans-3d" x="490.673828"/>
      <use xlink:href="#DejaVuSans-31" x="574.462891"/>
      <use xlink:href="#DejaVuSans-2e" x="638.085938"/>
      <use xlink:href="#DejaVuSans-34" x="669.873047"/>
      <use xlink:href="#DejaVuSans-30" x="733.496094"/>
      <use xlink:href="#DejaVuSans-65" x="797.119141"/>
      <use xlink:href="#DejaVuSans-2d" x="858.642578"/>
      <use xlink:href="#DejaVuSans-31" x="894.726562"/>
      <use xlink:href="#DejaVuSans-31" x="958.349609"/>
     </g>
    </g>
    <g id="line2d_40">
     <path d="M 351.561875 125.050625 
L 356.561875 125.050625 
L 361.561875 125.050625 
" style="fill: none; stroke: #ff0000; stroke-width: 2; stroke-linecap: square"/>
    </g>
    <g id="text_22">
     <!-- V_out:C_c=1.60e-11 -->
     <g transform="translate(363.561875 128.550625) scale(0.12 -0.12)">
      <use xlink:href="#DejaVuSans-56"/>
      <use xlink:href="#DejaVuSans-5f" x="68.408203"/>
      <use xlink:href="#DejaVuSans-6f" x="118.408203"/>
      <use xlink:href="#DejaVuSans-75" x="179.589844"/>
      <use xlink:href="#DejaVuSans-74" x="242.96875"/>
      <use xlink:href="#DejaVuSans-3a" x="282.177734"/>
      <use xlink:href="#DejaVuSans-43" x="315.869141"/>
      <use xlink:href="#DejaVuSans-5f" x="385.693359"/>
      <use xlink:href="#DejaVuSans-63" x="435.693359"/>
      <use xlink:href="#DejaVuSans-3d" x="490.673828"/>
      <use xlink:href="#DejaVuSans-31" x="574.462891"/>
      <use xlink:href="#DejaVuSans-2e" x="638.085938"/>
      <use xlink:href="#DejaVuSans-36" x="669.873047"/>
      <use xlink:href="#DejaVuSans-30" x="733.496094"/>
      <use xlink:href="#DejaVuSans-65" x="797.119141"/>
      <use xlink:href="#DejaVuSans-2d" x="858.642578"/>
      <use xlink:href="#DejaVuSans-31" x="894.726562"/>
      <use xlink:href="#DejaVuSans-31" x="958.349609"/>
     </g>
    </g>
    <g id="line2d_41">
     <path d="M 351.561875 136.998125 
L 356.561875 136.998125 
L 361.561875 136.998125 
" style="fill: none; stroke: #0000ff; stroke-width: 2; stroke-linecap: square"/>
    </g>
    <g id="text_23">
     <!-- V_out:C_c=1.80e-11 -->
     <g transform="translate(363.561875 140.498125) scale(0.12 -0.12)">
      <use xlink:href="#DejaVuSans-56"/>
      <use xlink:href="#DejaVuSans-5f" x="68.408203"/>
      <use xlink:href="#DejaVuSans-6f" x="118.408203"/>
      <use xlink:href="#DejaVuSans-75" x="179.589844"/>
      <use xlink:href="#DejaVuSans-74" x="242.96875"/>
      <use xlink:href="#DejaVuSans-3a" x="282.177734"/>
      <use xlink:href="#DejaVuSans-43" x="315.869141"/>
      <use xlink:href="#DejaVuSans-5f" x="385.693359"/>
      <use xlink:href="#DejaVuSans-63" x="435.693359"/>
      <use xlink:href="#DejaVuSans-3d" x="490.673828"/>
      <use xlink:href="#DejaVuSans-31" x="574.462891"/>
      <use xlink:href="#DejaVuSans-2e" x="638.085938"/>
      <use xlink:href="#DejaVuSans-38" x="669.873047"/>
      <use xlink:href="#DejaVuSans-30" x="733.496094"/>
      <use xlink:href="#DejaVuSans-65" x="797.119141"/>
      <use xlink:href="#DejaVuSans-2d" x="858.642578"/>
      <use xlink:href="#DejaVuSans-31" x="894.726562"/>
      <use xlink:href="#DejaVuSans-31" x="958.349609"/>
     </g>
    </g>
    <g id="line2d_42">
     <path d="M 351.561875 148.945625 
L 356.561875 148.945625 
L 361.561875 148.945625 
" style="fill: none; stroke: #008000; stroke-width: 2; stroke-linecap: square"/>
    </g>
    <g id="text_24">
     <!-- V_out:C_c=2.00e-11 -->
     <g transform="translate(363.561875 152.445625) scale(0.12 -0.12)">
      <use xlink:href="#DejaVuSans-56"/>
      <use xlink:href="#DejaVuSans-5f" x="68.408203"/>
      <use xlink:href="#DejaVuSans-6f" x="118.408203"/>
      <use xlink:href="#DejaVuSans-75" x="179.589844"/>
      <use xlink:href="#DejaVuSans-74" x="242.96875"/>
      <use xlink:href="#DejaVuSans-3a" x="282.177734"/>
      <use xlink:href="#DejaVuSans-43" x="315.869141"/>
      <use xlink:href="#DejaVuSans-5f" x="385.693359"/>
      <use xlink:href="#DejaVuSans-63" x="435.693359"/>
      <use xlink:href="#DejaVuSans-3d" x="490.673828"/>
      <use xlink:href="#DejaVuSans-32" x="574.462891"/>
      <use xlink:href="#DejaVuSans-2e" x="638.085938"/>
      <use xlink:href="#DejaVuSans-30" x="669.873047"/>
      <use xlink:href="#DejaVuSans-30" x="733.496094"/>
      <use xlink:href="#DejaVuSans-65" x="797.119141"/>
      <use xlink:href="#DejaVuSans-2d" x="858.642578"/>
      <use xlink:href="#DejaVuSans-31" x="894.726562"/>
      <use xlink:href="#DejaVuSans-31" x="958.349609"/>
     </g>
    </g>
   </g>
  </g>
 </g>
 <defs>
  <clipPath id="p98643cced7">
   <rect x="63.55" y="28.8" width="429.65" height="283.4"/>
  </clipPath>
 </defs>
</svg>
