<?xml version="1.0" encoding="utf-8" standalone="no"?>
<!DOCTYPE svg PUBLIC "-//W3C//DTD SVG 1.1//EN"
  "http://www.w3.org/Graphics/SVG/1.1/DTD/svg11.dtd">
<svg xmlns:xlink="http://www.w3.org/1999/xlink" width="504pt" height="360pt" viewBox="0 0 504 360" xmlns="http://www.w3.org/2000/svg" version="1.1">
 <metadata>
  <rdf:RDF xmlns:dc="http://purl.org/dc/elements/1.1/" xmlns:cc="http://creativecommons.org/ns#" xmlns:rdf="http://www.w3.org/1999/02/22-rdf-syntax-ns#">
   <cc:Work>
    <dc:type rdf:resource="http://purl.org/dc/dcmitype/StillImage"/>
    <dc:date>2025-09-06T12:38:59.550972</dc:date>
    <dc:format>image/svg+xml</dc:format>
    <dc:creator>
     <cc:Agent>
      <dc:title>Matplotlib v3.9.2, https://matplotlib.org/</dc:title>
     </cc:Agent>
    </dc:creator>
   </cc:Work>
  </rdf:RDF>
 </metadata>
 <defs>
  <style type="text/css">*{stroke-linejoin: round; stroke-linecap: butt}</style>
 </defs>
 <g id="figure_1">
  <g id="patch_1">
   <path d="M 0 360 
L 504 360 
L 504 0 
L 0 0 
z
" style="fill: #ffffff"/>
  </g>
  <g id="axes_1">
   <g id="patch_2">
    <path d="M 52.425 312.2 
L 493.2 312.2 
L 493.2 28.8 
L 52.425 28.8 
z
" style="fill: #ffffff"/>
   </g>
   <g id="matplotlib.axis_1">
    <g id="xtick_1">
     <g id="line2d_1">
      <path d="M 72.460227 312.2 
L 72.460227 28.8 
" clip-path="url(#p65b5566a21)" style="fill: none; stroke: #808080; stroke-width: 0.8; stroke-linecap: square"/>
     </g>
     <g id="line2d_2">
      <defs>
       <path id="m1d4547f569" d="M 0 0 
L 0 3.5 
" style="stroke: #000000; stroke-width: 0.8"/>
      </defs>
      <g>
       <use xlink:href="#m1d4547f569" x="72.460227" y="312.2" style="stroke: #000000; stroke-width: 0.8"/>
      </g>
     </g>
     <g id="text_1">
      <!-- 0.0 -->
      <g transform="translate(62.918352 328.318125) scale(0.12 -0.12)">
       <defs>
        <path id="DejaVuSans-30" d="M 2034 4250 
Q 1547 4250 1301 3770 
Q 1056 3291 1056 2328 
Q 1056 1369 1301 889 
Q 1547 409 2034 409 
Q 2525 409 2770 889 
Q 3016 1369 3016 2328 
Q 3016 3291 2770 3770 
Q 2525 4250 2034 4250 
z
M 2034 4750 
Q 2819 4750 3233 4129 
Q 3647 3509 3647 2328 
Q 3647 1150 3233 529 
Q 2819 -91 2034 -91 
Q 1250 -91 836 529 
Q 422 1150 422 2328 
Q 422 3509 836 4129 
Q 1250 4750 2034 4750 
z
" transform="scale(0.015625)"/>
        <path id="DejaVuSans-2e" d="M 684 794 
L 1344 794 
L 1344 0 
L 684 0 
L 684 794 
z
" transform="scale(0.015625)"/>
       </defs>
       <use xlink:href="#DejaVuSans-30"/>
       <use xlink:href="#DejaVuSans-2e" x="63.623047"/>
       <use xlink:href="#DejaVuSans-30" x="95.410156"/>
      </g>
     </g>
    </g>
    <g id="xtick_2">
     <g id="line2d_3">
      <path d="M 122.548295 312.2 
L 122.548295 28.8 
" clip-path="url(#p65b5566a21)" style="fill: none; stroke: #808080; stroke-width: 0.8; stroke-linecap: square"/>
     </g>
     <g id="line2d_4">
      <g>
       <use xlink:href="#m1d4547f569" x="122.548295" y="312.2" style="stroke: #000000; stroke-width: 0.8"/>
      </g>
     </g>
     <g id="text_2">
      <!-- 2.5 -->
      <g transform="translate(113.00642 328.318125) scale(0.12 -0.12)">
       <defs>
        <path id="DejaVuSans-32" d="M 1228 531 
L 3431 531 
L 3431 0 
L 469 0 
L 469 531 
Q 828 903 1448 1529 
Q 2069 2156 2228 2338 
Q 2531 2678 2651 2914 
Q 2772 3150 2772 3378 
Q 2772 3750 2511 3984 
Q 2250 4219 1831 4219 
Q 1534 4219 1204 4116 
Q 875 4013 500 3803 
L 500 4441 
Q 881 4594 1212 4672 
Q 1544 4750 1819 4750 
Q 2544 4750 2975 4387 
Q 3406 4025 3406 3419 
Q 3406 3131 3298 2873 
Q 3191 2616 2906 2266 
Q 2828 2175 2409 1742 
Q 1991 1309 1228 531 
z
" transform="scale(0.015625)"/>
        <path id="DejaVuSans-35" d="M 691 4666 
L 3169 4666 
L 3169 4134 
L 1269 4134 
L 1269 2991 
Q 1406 3038 1543 3061 
Q 1681 3084 1819 3084 
Q 2600 3084 3056 2656 
Q 3513 2228 3513 1497 
Q 3513 744 3044 326 
Q 2575 -91 1722 -91 
Q 1428 -91 1123 -41 
Q 819 9 494 109 
L 494 744 
Q 775 591 1075 516 
Q 1375 441 1709 441 
Q 2250 441 2565 725 
Q 2881 1009 2881 1497 
Q 2881 1984 2565 2268 
Q 2250 2553 1709 2553 
Q 1456 2553 1204 2497 
Q 953 2441 691 2322 
L 691 4666 
z
" transform="scale(0.015625)"/>
       </defs>
       <use xlink:href="#DejaVuSans-32"/>
       <use xlink:href="#DejaVuSans-2e" x="63.623047"/>
       <use xlink:href="#DejaVuSans-35" x="95.410156"/>
      </g>
     </g>
    </g>
    <g id="xtick_3">
     <g id="line2d_5">
      <path d="M 172.636364 312.2 
L 172.636364 28.8 
" clip-path="url(#p65b5566a21)" style="fill: none; stroke: #808080; stroke-width: 0.8; stroke-linecap: square"/>
     </g>
     <g id="line2d_6">
      <g>
       <use xlink:href="#m1d4547f569" x="172.636364" y="312.2" style="stroke: #000000; stroke-width: 0.8"/>
      </g>
     </g>
     <g id="text_3">
      <!-- 5.0 -->
      <g transform="translate(163.094489 328.318125) scale(0.12 -0.12)">
       <use xlink:href="#DejaVuSans-35"/>
       <use xlink:href="#DejaVuSans-2e" x="63.623047"/>
       <use xlink:href="#DejaVuSans-30" x="95.410156"/>
      </g>
     </g>
    </g>
    <g id="xtick_4">
     <g id="line2d_7">
      <path d="M 222.724432 312.2 
L 222.724432 28.8 
" clip-path="url(#p65b5566a21)" style="fill: none; stroke: #808080; stroke-width: 0.8; stroke-linecap: square"/>
     </g>
     <g id="line2d_8">
      <g>
       <use xlink:href="#m1d4547f569" x="222.724432" y="312.2" style="stroke: #000000; stroke-width: 0.8"/>
      </g>
     </g>
     <g id="text_4">
      <!-- 7.5 -->
      <g transform="translate(213.182557 328.318125) scale(0.12 -0.12)">
       <defs>
        <path id="DejaVuSans-37" d="M 525 4666 
L 3525 4666 
L 3525 4397 
L 1831 0 
L 1172 0 
L 2766 4134 
L 525 4134 
L 525 4666 
z
" transform="scale(0.015625)"/>
       </defs>
       <use xlink:href="#DejaVuSans-37"/>
       <use xlink:href="#DejaVuSans-2e" x="63.623047"/>
       <use xlink:href="#DejaVuSans-35" x="95.410156"/>
      </g>
     </g>
    </g>
    <g id="xtick_5">
     <g id="line2d_9">
      <path d="M 272.8125 312.2 
L 272.8125 28.8 
" clip-path="url(#p65b5566a21)" style="fill: none; stroke: #808080; stroke-width: 0.8; stroke-linecap: square"/>
     </g>
     <g id="line2d_10">
      <g>
       <use xlink:href="#m1d4547f569" x="272.8125" y="312.2" style="stroke: #000000; stroke-width: 0.8"/>
      </g>
     </g>
     <g id="text_5">
      <!-- 10.0 -->
      <g transform="translate(259.453125 328.318125) scale(0.12 -0.12)">
       <defs>
        <path id="DejaVuSans-31" d="M 794 531 
L 1825 531 
L 1825 4091 
L 703 3866 
L 703 4441 
L 1819 4666 
L 2450 4666 
L 2450 531 
L 3481 531 
L 3481 0 
L 794 0 
L 794 531 
z
" transform="scale(0.015625)"/>
       </defs>
       <use xlink:href="#DejaVuSans-31"/>
       <use xlink:href="#DejaVuSans-30" x="63.623047"/>
       <use xlink:href="#DejaVuSans-2e" x="127.246094"/>
       <use xlink:href="#DejaVuSans-30" x="159.033203"/>
      </g>
     </g>
    </g>
    <g id="xtick_6">
     <g id="line2d_11">
      <path d="M 322.900568 312.2 
L 322.900568 28.8 
" clip-path="url(#p65b5566a21)" style="fill: none; stroke: #808080; stroke-width: 0.8; stroke-linecap: square"/>
     </g>
     <g id="line2d_12">
      <g>
       <use xlink:href="#m1d4547f569" x="322.900568" y="312.2" style="stroke: #000000; stroke-width: 0.8"/>
      </g>
     </g>
     <g id="text_6">
      <!-- 12.5 -->
      <g transform="translate(309.541193 328.318125) scale(0.12 -0.12)">
       <use xlink:href="#DejaVuSans-31"/>
       <use xlink:href="#DejaVuSans-32" x="63.623047"/>
       <use xlink:href="#DejaVuSans-2e" x="127.246094"/>
       <use xlink:href="#DejaVuSans-35" x="159.033203"/>
      </g>
     </g>
    </g>
    <g id="xtick_7">
     <g id="line2d_13">
      <path d="M 372.988636 312.2 
L 372.988636 28.8 
" clip-path="url(#p65b5566a21)" style="fill: none; stroke: #808080; stroke-width: 0.8; stroke-linecap: square"/>
     </g>
     <g id="line2d_14">
      <g>
       <use xlink:href="#m1d4547f569" x="372.988636" y="312.2" style="stroke: #000000; stroke-width: 0.8"/>
      </g>
     </g>
     <g id="text_7">
      <!-- 15.0 -->
      <g transform="translate(359.629261 328.318125) scale(0.12 -0.12)">
       <use xlink:href="#DejaVuSans-31"/>
       <use xlink:href="#DejaVuSans-35" x="63.623047"/>
       <use xlink:href="#DejaVuSans-2e" x="127.246094"/>
       <use xlink:href="#DejaVuSans-30" x="159.033203"/>
      </g>
     </g>
    </g>
    <g id="xtick_8">
     <g id="line2d_15">
      <path d="M 423.076705 312.2 
L 423.076705 28.8 
" clip-path="url(#p65b5566a21)" style="fill: none; stroke: #808080; stroke-width: 0.8; stroke-linecap: square"/>
     </g>
     <g id="line2d_16">
      <g>
       <use xlink:href="#m1d4547f569" x="423.076705" y="312.2" style="stroke: #000000; stroke-width: 0.8"/>
      </g>
     </g>
     <g id="text_8">
      <!-- 17.5 -->
      <g transform="translate(409.71733 328.318125) scale(0.12 -0.12)">
       <use xlink:href="#DejaVuSans-31"/>
       <use xlink:href="#DejaVuSans-37" x="63.623047"/>
       <use xlink:href="#DejaVuSans-2e" x="127.246094"/>
       <use xlink:href="#DejaVuSans-35" x="159.033203"/>
      </g>
     </g>
    </g>
    <g id="xtick_9">
     <g id="line2d_17">
      <path d="M 473.164773 312.2 
L 473.164773 28.8 
" clip-path="url(#p65b5566a21)" style="fill: none; stroke: #808080; stroke-width: 0.8; stroke-linecap: square"/>
     </g>
     <g id="line2d_18">
      <g>
       <use xlink:href="#m1d4547f569" x="473.164773" y="312.2" style="stroke: #000000; stroke-width: 0.8"/>
      </g>
     </g>
     <g id="text_9">
      <!-- 20.0 -->
      <g transform="translate(459.805398 328.318125) scale(0.12 -0.12)">
       <use xlink:href="#DejaVuSans-32"/>
       <use xlink:href="#DejaVuSans-30" x="63.623047"/>
       <use xlink:href="#DejaVuSans-2e" x="127.246094"/>
       <use xlink:href="#DejaVuSans-30" x="159.033203"/>
      </g>
     </g>
    </g>
    <g id="text_10">
     <!-- time [us] -->
     <g transform="translate(245.740312 343.931875) scale(0.12 -0.12)">
      <defs>
       <path id="DejaVuSans-74" d="M 1172 4494 
L 1172 3500 
L 2356 3500 
L 2356 3053 
L 1172 3053 
L 1172 1153 
Q 1172 725 1289 603 
Q 1406 481 1766 481 
L 2356 481 
L 2356 0 
L 1766 0 
Q 1100 0 847 248 
Q 594 497 594 1153 
L 594 3053 
L 172 3053 
L 172 3500 
L 594 3500 
L 594 4494 
L 1172 4494 
z
" transform="scale(0.015625)"/>
       <path id="DejaVuSans-69" d="M 603 3500 
L 1178 3500 
L 1178 0 
L 603 0 
L 603 3500 
z
M 603 4863 
L 1178 4863 
L 1178 4134 
L 603 4134 
L 603 4863 
z
" transform="scale(0.015625)"/>
       <path id="DejaVuSans-6d" d="M 3328 2828 
Q 3544 3216 3844 3400 
Q 4144 3584 4550 3584 
Q 5097 3584 5394 3201 
Q 5691 2819 5691 2113 
L 5691 0 
L 5113 0 
L 5113 2094 
Q 5113 2597 4934 2840 
Q 4756 3084 4391 3084 
Q 3944 3084 3684 2787 
Q 3425 2491 3425 1978 
L 3425 0 
L 2847 0 
L 2847 2094 
Q 2847 2600 2669 2842 
Q 2491 3084 2119 3084 
Q 1678 3084 1418 2786 
Q 1159 2488 1159 1978 
L 1159 0 
L 581 0 
L 581 3500 
L 1159 3500 
L 1159 2956 
Q 1356 3278 1631 3431 
Q 1906 3584 2284 3584 
Q 2666 3584 2933 3390 
Q 3200 3197 3328 2828 
z
" transform="scale(0.015625)"/>
       <path id="DejaVuSans-65" d="M 3597 1894 
L 3597 1613 
L 953 1613 
Q 991 1019 1311 708 
Q 1631 397 2203 397 
Q 2534 397 2845 478 
Q 3156 559 3463 722 
L 3463 178 
Q 3153 47 2828 -22 
Q 2503 -91 2169 -91 
Q 1331 -91 842 396 
Q 353 884 353 1716 
Q 353 2575 817 3079 
Q 1281 3584 2069 3584 
Q 2775 3584 3186 3129 
Q 3597 2675 3597 1894 
z
M 3022 2063 
Q 3016 2534 2758 2815 
Q 2500 3097 2075 3097 
Q 1594 3097 1305 2825 
Q 1016 2553 972 2059 
L 3022 2063 
z
" transform="scale(0.015625)"/>
       <path id="DejaVuSans-20" transform="scale(0.015625)"/>
       <path id="DejaVuSans-5b" d="M 550 4863 
L 1875 4863 
L 1875 4416 
L 1125 4416 
L 1125 -397 
L 1875 -397 
L 1875 -844 
L 550 -844 
L 550 4863 
z
" transform="scale(0.015625)"/>
       <path id="DejaVuSans-75" d="M 544 1381 
L 544 3500 
L 1119 3500 
L 1119 1403 
Q 1119 906 1312 657 
Q 1506 409 1894 409 
Q 2359 409 2629 706 
Q 2900 1003 2900 1516 
L 2900 3500 
L 3475 3500 
L 3475 0 
L 2900 0 
L 2900 538 
Q 2691 219 2414 64 
Q 2138 -91 1772 -91 
Q 1169 -91 856 284 
Q 544 659 544 1381 
z
M 1991 3584 
L 1991 3584 
z
" transform="scale(0.015625)"/>
       <path id="DejaVuSans-73" d="M 2834 3397 
L 2834 2853 
Q 2591 2978 2328 3040 
Q 2066 3103 1784 3103 
Q 1356 3103 1142 2972 
Q 928 2841 928 2578 
Q 928 2378 1081 2264 
Q 1234 2150 1697 2047 
L 1894 2003 
Q 2506 1872 2764 1633 
Q 3022 1394 3022 966 
Q 3022 478 2636 193 
Q 2250 -91 1575 -91 
Q 1294 -91 989 -36 
Q 684 19 347 128 
L 347 722 
Q 666 556 975 473 
Q 1284 391 1588 391 
Q 1994 391 2212 530 
Q 2431 669 2431 922 
Q 2431 1156 2273 1281 
Q 2116 1406 1581 1522 
L 1381 1569 
Q 847 1681 609 1914 
Q 372 2147 372 2553 
Q 372 3047 722 3315 
Q 1072 3584 1716 3584 
Q 2034 3584 2315 3537 
Q 2597 3491 2834 3397 
z
" transform="scale(0.015625)"/>
       <path id="DejaVuSans-5d" d="M 1947 4863 
L 1947 -844 
L 622 -844 
L 622 -397 
L 1369 -397 
L 1369 4416 
L 622 4416 
L 622 4863 
L 1947 4863 
z
" transform="scale(0.015625)"/>
      </defs>
      <use xlink:href="#DejaVuSans-74"/>
      <use xlink:href="#DejaVuSans-69" x="39.208984"/>
      <use xlink:href="#DejaVuSans-6d" x="66.992188"/>
      <use xlink:href="#DejaVuSans-65" x="164.404297"/>
      <use xlink:href="#DejaVuSans-20" x="225.927734"/>
      <use xlink:href="#DejaVuSans-5b" x="257.714844"/>
      <use xlink:href="#DejaVuSans-75" x="296.728516"/>
      <use xlink:href="#DejaVuSans-73" x="360.107422"/>
      <use xlink:href="#DejaVuSans-5d" x="412.207031"/>
     </g>
    </g>
   </g>
   <g id="matplotlib.axis_2">
    <g id="ytick_1">
     <g id="line2d_19">
      <path d="M 52.425 288.542138 
L 493.2 288.542138 
" clip-path="url(#p65b5566a21)" style="fill: none; stroke: #808080; stroke-width: 0.8; stroke-linecap: square"/>
     </g>
     <g id="line2d_20">
      <defs>
       <path id="m8d828418dd" d="M 0 0 
L -3.5 0 
" style="stroke: #000000; stroke-width: 0.8"/>
      </defs>
      <g>
       <use xlink:href="#m8d828418dd" x="52.425" y="288.542138" style="stroke: #000000; stroke-width: 0.8"/>
      </g>
     </g>
     <g id="text_11">
      <!-- −2 -->
      <g transform="translate(27.734375 293.101201) scale(0.12 -0.12)">
       <defs>
        <path id="DejaVuSans-2212" d="M 678 2272 
L 4684 2272 
L 4684 1741 
L 678 1741 
L 678 2272 
z
" transform="scale(0.015625)"/>
       </defs>
       <use xlink:href="#DejaVuSans-2212"/>
       <use xlink:href="#DejaVuSans-32" x="83.789062"/>
      </g>
     </g>
    </g>
    <g id="ytick_2">
     <g id="line2d_21">
      <path d="M 52.425 232.737015 
L 493.2 232.737015 
" clip-path="url(#p65b5566a21)" style="fill: none; stroke: #808080; stroke-width: 0.8; stroke-linecap: square"/>
     </g>
     <g id="line2d_22">
      <g>
       <use xlink:href="#m8d828418dd" x="52.425" y="232.737015" style="stroke: #000000; stroke-width: 0.8"/>
      </g>
     </g>
     <g id="text_12">
      <!-- 0 -->
      <g transform="translate(37.79 237.296077) scale(0.12 -0.12)">
       <use xlink:href="#DejaVuSans-30"/>
      </g>
     </g>
    </g>
    <g id="ytick_3">
     <g id="line2d_23">
      <path d="M 52.425 176.931891 
L 493.2 176.931891 
" clip-path="url(#p65b5566a21)" style="fill: none; stroke: #808080; stroke-width: 0.8; stroke-linecap: square"/>
     </g>
     <g id="line2d_24">
      <g>
       <use xlink:href="#m8d828418dd" x="52.425" y="176.931891" style="stroke: #000000; stroke-width: 0.8"/>
      </g>
     </g>
     <g id="text_13">
      <!-- 2 -->
      <g transform="translate(37.79 181.490954) scale(0.12 -0.12)">
       <use xlink:href="#DejaVuSans-32"/>
      </g>
     </g>
    </g>
    <g id="ytick_4">
     <g id="line2d_25">
      <path d="M 52.425 121.126768 
L 493.2 121.126768 
" clip-path="url(#p65b5566a21)" style="fill: none; stroke: #808080; stroke-width: 0.8; stroke-linecap: square"/>
     </g>
     <g id="line2d_26">
      <g>
       <use xlink:href="#m8d828418dd" x="52.425" y="121.126768" style="stroke: #000000; stroke-width: 0.8"/>
      </g>
     </g>
     <g id="text_14">
      <!-- 4 -->
      <g transform="translate(37.79 125.68583) scale(0.12 -0.12)">
       <defs>
        <path id="DejaVuSans-34" d="M 2419 4116 
L 825 1625 
L 2419 1625 
L 2419 4116 
z
M 2253 4666 
L 3047 4666 
L 3047 1625 
L 3713 1625 
L 3713 1100 
L 3047 1100 
L 3047 0 
L 2419 0 
L 2419 1100 
L 313 1100 
L 313 1709 
L 2253 4666 
z
" transform="scale(0.015625)"/>
       </defs>
       <use xlink:href="#DejaVuSans-34"/>
      </g>
     </g>
    </g>
    <g id="ytick_5">
     <g id="line2d_27">
      <path d="M 52.425 65.321644 
L 493.2 65.321644 
" clip-path="url(#p65b5566a21)" style="fill: none; stroke: #808080; stroke-width: 0.8; stroke-linecap: square"/>
     </g>
     <g id="line2d_28">
      <g>
       <use xlink:href="#m8d828418dd" x="52.425" y="65.321644" style="stroke: #000000; stroke-width: 0.8"/>
      </g>
     </g>
     <g id="text_15">
      <!-- 6 -->
      <g transform="translate(37.79 69.880707) scale(0.12 -0.12)">
       <defs>
        <path id="DejaVuSans-36" d="M 2113 2584 
Q 1688 2584 1439 2293 
Q 1191 2003 1191 1497 
Q 1191 994 1439 701 
Q 1688 409 2113 409 
Q 2538 409 2786 701 
Q 3034 994 3034 1497 
Q 3034 2003 2786 2293 
Q 2538 2584 2113 2584 
z
M 3366 4563 
L 3366 3988 
Q 3128 4100 2886 4159 
Q 2644 4219 2406 4219 
Q 1781 4219 1451 3797 
Q 1122 3375 1075 2522 
Q 1259 2794 1537 2939 
Q 1816 3084 2150 3084 
Q 2853 3084 3261 2657 
Q 3669 2231 3669 1497 
Q 3669 778 3244 343 
Q 2819 -91 2113 -91 
Q 1303 -91 875 529 
Q 447 1150 447 2328 
Q 447 3434 972 4092 
Q 1497 4750 2381 4750 
Q 2619 4750 2861 4703 
Q 3103 4656 3366 4563 
z
" transform="scale(0.015625)"/>
       </defs>
       <use xlink:href="#DejaVuSans-36"/>
      </g>
     </g>
    </g>
    <g id="text_16">
     <!--  [V] -->
     <g transform="translate(21.23875 181.193125) rotate(-90) scale(0.12 -0.12)">
      <defs>
       <path id="DejaVuSans-56" d="M 1831 0 
L 50 4666 
L 709 4666 
L 2188 738 
L 3669 4666 
L 4325 4666 
L 2547 0 
L 1831 0 
z
" transform="scale(0.015625)"/>
      </defs>
      <use xlink:href="#DejaVuSans-20"/>
      <use xlink:href="#DejaVuSans-5b" x="31.787109"/>
      <use xlink:href="#DejaVuSans-56" x="70.800781"/>
      <use xlink:href="#DejaVuSans-5d" x="139.208984"/>
     </g>
    </g>
   </g>
   <g id="line2d_29">
    <path d="M 72.460227 232.737015 
L 73.117383 232.663448 
L 73.518087 232.447085 
L 74.119144 231.807083 
L 75.52161 229.763616 
L 77.925837 225.848195 
L 85.539224 213.380142 
L 89.946974 206.614227 
L 93.753667 201.169961 
L 97.159655 196.678531 
L 100.365292 192.825774 
L 103.170224 189.782914 
L 105.975155 187.070186 
L 108.579735 184.864267 
L 110.983962 183.107984 
L 113.38819 181.630229 
L 115.592065 180.527318 
L 117.79594 179.670773 
L 119.999815 179.065207 
L 122.003337 178.735666 
L 124.00686 178.618797 
L 126.010383 178.715947 
L 128.013905 179.027542 
L 130.017428 179.55298 
L 132.221303 180.375909 
L 134.425178 181.451779 
L 136.629053 182.775346 
L 139.03328 184.493916 
L 141.437508 186.489058 
L 144.042087 188.948716 
L 146.847019 191.92526 
L 149.852303 195.465007 
L 153.05794 199.604868 
L 156.463928 204.368529 
L 160.270621 210.07109 
L 164.878724 217.394637 
L 170.889292 227.396746 
L 184.112542 249.52868 
L 188.720644 256.746353 
L 192.72769 262.61824 
L 196.33403 267.501491 
L 199.539667 271.471186 
L 202.544951 274.839242 
L 205.349883 277.647855 
L 207.954462 279.947527 
L 210.35869 281.793699 
L 212.762917 283.364024 
L 214.966792 284.553832 
L 217.170667 285.499088 
L 219.374542 286.195167 
L 221.378065 286.608591 
L 223.381587 286.810851 
L 225.38511 286.80046 
L 227.388633 286.57667 
L 229.392155 286.139575 
L 231.395678 285.490214 
L 233.599553 284.533239 
L 235.803428 283.326134 
L 238.007303 281.874587 
L 240.41153 280.020666 
L 243.01611 277.706262 
L 245.62069 275.089355 
L 248.425621 271.953703 
L 251.430905 268.256673 
L 254.636542 263.965709 
L 258.242883 258.76379 
L 262.45028 252.280854 
L 267.459087 244.133278 
L 275.67353 230.270742 
L 283.487269 217.236556 
L 288.295724 209.63499 
L 292.302769 203.697198 
L 295.90911 198.743917 
L 299.114746 194.704205 
L 302.12003 191.264428 
L 304.924962 188.383979 
L 307.529542 186.013678 
L 310.134121 183.951873 
L 312.538349 182.333751 
L 314.742224 181.098694 
L 316.946099 180.107145 
L 319.149974 179.364158 
L 321.153496 178.907992 
L 323.157019 178.663305 
L 325.160542 178.631931 
L 327.164065 178.814864 
L 329.167587 179.212128 
L 331.17111 179.822693 
L 333.374985 180.738115 
L 335.57886 181.904739 
L 337.782735 183.316804 
L 340.186962 185.128791 
L 342.59119 187.213554 
L 345.195769 189.765426 
L 348.000701 192.834945 
L 351.005985 196.466263 
L 354.211621 200.693779 
L 357.817962 205.833465 
L 361.825008 211.94245 
L 366.633462 219.693405 
L 373.645792 231.468316 
L 383.463053 247.907404 
L 388.271508 255.523214 
L 392.278553 261.478835 
L 395.884894 266.452628 
L 399.09053 270.513868 
L 402.095815 273.976312 
L 404.900746 276.879715 
L 407.505326 279.272525 
L 410.109905 281.357653 
L 412.514133 282.997798 
L 414.718008 284.253378 
L 416.921883 285.265827 
L 419.125758 286.03027 
L 421.329633 286.542741 
L 423.333155 286.787375 
L 425.336678 286.8196 
L 427.340201 286.638511 
L 429.343724 286.244025 
L 431.347246 285.636985 
L 433.551121 284.725984 
L 435.754996 283.563977 
L 437.958871 282.156387 
L 440.363099 280.348826 
L 442.767326 278.267827 
L 445.371905 275.719189 
L 448.176837 272.65217 
L 451.182121 269.022483 
L 454.387758 264.795663 
L 457.994099 259.655677 
L 462.001144 253.545268 
L 466.809599 245.791426 
L 473.164773 235.125749 
L 473.164773 235.125749 
" clip-path="url(#p65b5566a21)" style="fill: none; stroke: #ff0000; stroke-width: 2; stroke-linecap: square"/>
   </g>
   <g id="line2d_30">
    <path d="M 72.460227 232.737015 
L 72.91703 232.663976 
L 73.71844 232.304521 
L 75.321258 231.590479 
L 87.342394 226.654503 
L 93.352962 224.469142 
L 98.562121 222.809139 
L 103.370576 221.509972 
L 107.778326 220.541565 
L 111.985724 219.83319 
L 116.193121 219.348361 
L 120.200167 219.102426 
L 124.207212 219.071433 
L 128.214258 219.256305 
L 132.421655 219.679797 
L 136.629053 220.331018 
L 141.036803 221.245008 
L 145.644905 222.435181 
L 150.45336 223.906073 
L 155.862871 225.798883 
L 162.073792 228.214343 
L 170.68894 231.827125 
L 185.114303 237.888196 
L 191.525576 240.316121 
L 196.935087 242.13045 
L 201.743542 243.518006 
L 206.351644 244.618345 
L 210.759394 245.43923 
L 214.966792 245.996863 
L 219.17419 246.323902 
L 223.181235 246.415698 
L 227.18828 246.291639 
L 231.195326 245.953713 
L 235.402724 245.374696 
L 239.610121 244.576085 
L 244.017871 243.519178 
L 248.826326 242.132697 
L 254.035485 240.391517 
L 259.845701 238.211755 
L 267.258735 235.178544 
L 288.095371 226.501213 
L 293.905587 224.400931 
L 299.114746 222.750299 
L 303.923201 221.461169 
L 308.330951 220.502932 
L 312.538349 219.804951 
L 316.745746 219.331012 
L 320.752792 219.09575 
L 324.759837 219.075557 
L 328.766883 219.271183 
L 332.97428 219.705719 
L 337.181678 220.367531 
L 341.589428 221.291925 
L 346.19753 222.492007 
L 351.206337 224.038205 
L 356.615849 225.947731 
L 363.027121 228.458701 
L 372.042974 232.256607 
L 385.065871 237.728475 
L 391.477144 240.172375 
L 396.886655 242.004716 
L 401.895462 243.464879 
L 406.503565 244.575509 
L 410.911315 245.407074 
L 415.118712 245.975476 
L 419.32611 246.313658 
L 423.333155 246.416236 
L 427.340201 246.302952 
L 431.347246 245.975619 
L 435.554644 245.407344 
L 439.762042 244.618901 
L 444.169792 243.571844 
L 448.978246 242.194954 
L 454.187405 240.462563 
L 459.997621 238.290362 
L 467.410655 235.262998 
L 473.164773 232.811189 
L 473.164773 232.811189 
" clip-path="url(#p65b5566a21)" style="fill: none; stroke: #0000ff; stroke-width: 2; stroke-linecap: square"/>
   </g>
   <g id="line2d_31">
    <path d="M 72.460227 112.875263 
L 73.117383 112.801689 
L 73.518087 112.585304 
L 74.119144 111.945236 
L 75.52161 109.901551 
L 77.925837 105.98568 
L 85.539224 93.515879 
L 89.946974 86.748787 
L 93.753667 81.303428 
L 97.159655 76.810973 
L 100.365292 72.957222 
L 103.170224 69.913477 
L 105.975155 67.199857 
L 108.579735 64.993109 
L 110.983962 63.236065 
L 113.38819 61.757558 
L 115.592065 60.653969 
L 117.79594 59.796759 
L 119.999815 59.190544 
L 122.003337 58.860432 
L 124.00686 58.743011 
L 126.010383 58.83963 
L 128.013905 59.150717 
L 130.017428 59.675673 
L 132.221303 60.498103 
L 134.425178 61.573511 
L 136.629053 62.896653 
L 139.03328 64.614805 
L 141.437508 66.60958 
L 144.042087 69.068898 
L 146.847019 72.045147 
L 149.852303 75.584662 
L 153.05794 79.724374 
L 156.463928 84.487987 
L 160.270621 90.190633 
L 164.878724 97.514475 
L 170.889292 107.517272 
L 184.112542 129.651804 
L 188.720644 136.870669 
L 192.72769 142.743682 
L 196.33403 147.628004 
L 199.539667 151.598684 
L 202.544951 154.967685 
L 205.349883 157.777187 
L 207.954462 160.077688 
L 210.35869 161.924623 
L 212.762917 163.495703 
L 214.966792 164.686194 
L 217.170667 165.632119 
L 219.374542 166.328853 
L 221.378065 166.742855 
L 223.381587 166.945675 
L 225.38511 166.935825 
L 227.388633 166.712552 
L 229.392155 166.275949 
L 231.395678 165.627054 
L 233.599553 164.670558 
L 235.803428 163.463896 
L 238.007303 162.012753 
L 240.41153 160.159225 
L 243.01611 157.845189 
L 245.62069 155.228589 
L 248.425621 152.093194 
L 251.430905 148.396356 
L 254.636542 144.105497 
L 258.242883 138.903574 
L 262.45028 132.420469 
L 267.459087 124.272466 
L 275.67353 110.408727 
L 283.487269 97.372886 
L 288.295724 89.770096 
L 292.302769 83.831187 
L 295.90911 78.876843 
L 299.114746 74.836151 
L 302.12003 71.395433 
L 304.924962 68.514095 
L 307.529542 66.142965 
L 310.134121 64.080332 
L 312.538349 62.461453 
L 314.742224 61.225711 
L 316.946099 60.233489 
L 319.149974 59.489845 
L 321.153496 59.033097 
L 323.157019 58.787846 
L 325.160542 58.755928 
L 327.164065 58.938338 
L 329.167587 59.335105 
L 331.17111 59.945198 
L 333.374985 60.860135 
L 335.57886 62.02631 
L 337.782735 63.437964 
L 340.186962 65.24955 
L 342.59119 67.333962 
L 345.195769 69.885514 
L 348.000701 72.954759 
L 351.005985 76.585869 
L 354.211621 80.81326 
L 357.817962 85.952929 
L 361.825008 92.062048 
L 366.633462 99.813371 
L 373.645792 111.589209 
L 383.463053 128.030284 
L 388.271508 135.647312 
L 392.278553 141.604044 
L 395.884894 146.578897 
L 399.09053 150.641116 
L 402.095815 154.104499 
L 404.900746 157.00879 
L 407.505326 159.402429 
L 410.109905 161.488385 
L 412.514133 163.129287 
L 414.718008 164.385553 
L 416.921883 165.398675 
L 419.125758 166.163777 
L 421.329633 166.676889 
L 423.333155 166.922087 
L 425.336678 166.954856 
L 427.340201 166.774289 
L 429.343724 166.3803 
L 431.347246 165.773733 
L 433.551121 164.863217 
L 435.754996 163.701659 
L 437.958871 162.29448 
L 440.363099 160.487321 
L 442.767326 158.406673 
L 445.371905 155.858356 
L 448.176837 152.791611 
L 451.182121 149.162133 
L 454.387758 144.935437 
L 457.994099 139.795468 
L 462.001144 133.684927 
L 466.809599 125.930716 
L 473.164773 115.264218 
L 473.164773 115.264218 
" clip-path="url(#p65b5566a21)" style="fill: none; stroke: #008000; stroke-width: 2; stroke-linecap: square"/>
   </g>
   <g id="line2d_32">
    <path d="M 72.460227 232.737015 
L 73.069918 232.631366 
L 73.470623 232.242063 
L 73.871327 231.49075 
L 74.672737 229.344343 
L 76.475907 223.780185 
L 87.094577 189.409902 
L 90.300214 180.008114 
L 92.504089 174.134689 
L 94.106907 170.415931 
L 95.309021 168.113062 
L 96.310782 166.587813 
L 97.312543 165.413382 
L 98.314305 164.532873 
L 99.516418 163.776536 
L 100.718532 163.286469 
L 103.723816 162.581843 
L 106.528748 162.206907 
L 110.736146 161.898124 
L 117.347771 161.651318 
L 125.562214 161.565958 
L 133.977009 161.700036 
L 142.792509 162.063831 
L 151.808362 162.648983 
L 156.216112 163.128821 
L 157.017521 163.358676 
L 157.217873 163.554855 
L 157.418225 163.945226 
L 157.618578 164.688253 
L 158.019282 167.919591 
L 158.620339 176.976927 
L 159.021043 182.717541 
L 159.421748 185.833495 
L 159.822453 186.951608 
L 160.623862 188.023792 
L 161.024566 189.03877 
L 161.825975 191.972712 
L 162.827737 195.464211 
L 165.632668 204.510385 
L 171.843589 225.307729 
L 182.462259 260.918301 
L 187.070362 275.537553 
L 190.676703 286.277944 
L 193.481634 294.005009 
L 194.8841 297.393134 
L 195.485157 298.165821 
L 196.086214 298.517512 
L 197.087975 298.828823 
L 198.690793 299.079478 
L 201.495725 299.25756 
L 206.905237 299.313501 
L 247.576748 299.25216 
L 249.780623 299.042407 
L 251.183089 298.702139 
L 252.18485 298.264207 
L 252.986259 297.677074 
L 253.587316 296.987732 
L 254.188373 296.006631 
L 254.989782 294.286362 
L 256.392248 290.626093 
L 258.596123 284.107926 
L 262.803521 270.883928 
L 268.01268 253.760961 
L 286.044385 193.751888 
L 289.650726 182.882143 
L 292.255306 175.687671 
L 294.058476 171.302949 
L 295.460942 168.476721 
L 296.663056 166.599149 
L 297.664817 165.4223 
L 298.666578 164.539848 
L 299.868692 163.781703 
L 301.070806 163.289836 
L 303.875737 162.620848 
L 306.480317 162.250855 
L 310.487362 161.933731 
L 316.898635 161.673497 
L 325.113078 161.566532 
L 333.527874 161.679738 
L 342.343374 162.023945 
L 351.759931 162.617626 
L 356.368033 163.10315 
L 357.169442 163.261476 
L 357.570147 163.566374 
L 357.770499 163.966736 
L 357.970851 164.726585 
L 358.371556 168.007129 
L 358.972612 177.100373 
L 359.373317 182.80092 
L 359.774022 185.866704 
L 360.174726 186.96164 
L 360.976135 188.037135 
L 361.37684 189.06018 
L 362.178249 191.999738 
L 363.18001 195.485671 
L 365.984942 204.532325 
L 372.195862 225.329611 
L 382.814533 260.940041 
L 387.422635 275.559152 
L 391.028976 286.299248 
L 393.833908 294.025753 
L 395.236374 297.408121 
L 395.837431 298.173564 
L 396.438487 298.522256 
L 397.440249 298.832049 
L 399.043067 299.081794 
L 401.847999 299.259262 
L 407.25751 299.31492 
L 447.929022 299.253967 
L 450.132897 299.045227 
L 451.535362 298.706231 
L 452.537124 298.270018 
L 453.338533 297.685599 
L 453.93959 296.999474 
L 454.540647 296.021952 
L 455.342056 294.305044 
L 456.744522 290.647437 
L 458.948397 284.130237 
L 463.155794 270.906061 
L 468.364953 253.782931 
L 473.164773 237.575851 
L 473.164773 237.575851 
" clip-path="url(#p65b5566a21)" style="fill: none; stroke: #00bfbf; stroke-width: 2; stroke-linecap: square"/>
   </g>
   <g id="line2d_33">
    <path d="M 72.460227 232.737015 
L 72.873921 232.620205 
L 73.470623 232.128339 
L 74.873089 230.816184 
L 89.298452 219.137101 
L 92.904793 216.620364 
L 95.509373 215.042818 
L 97.713248 213.94113 
L 99.316066 213.353233 
L 100.317828 213.162492 
L 100.918884 213.31836 
L 101.519941 213.46125 
L 102.521703 213.373831 
L 109.734384 212.271238 
L 114.743191 211.791898 
L 119.751998 211.537015 
L 124.760805 211.506353 
L 129.769612 211.700223 
L 134.778418 212.117511 
L 139.787225 212.756979 
L 144.796032 213.623656 
L 149.00343 214.564045 
L 151.207305 215.233921 
L 153.010475 216.018425 
L 154.613293 216.941773 
L 156.817168 218.469076 
L 157.217873 218.853227 
L 157.618578 219.550153 
L 158.019282 220.848232 
L 158.620339 222.85276 
L 158.820691 223.005094 
L 159.021043 222.806416 
L 159.6221 221.714558 
L 159.822453 221.617999 
L 160.223157 221.809944 
L 161.024566 222.759194 
L 161.825975 223.587921 
L 165.231964 226.289698 
L 171.242532 231.390452 
L 183.063316 241.390823 
L 188.472828 245.648789 
L 192.880578 248.840765 
L 194.8841 250.123964 
L 196.486918 250.943197 
L 199.492203 252.638212 
L 203.899953 254.83403 
L 208.307703 256.812718 
L 211.513339 258.008536 
L 214.518623 258.889057 
L 217.323555 259.488859 
L 220.128487 259.871591 
L 222.933418 260.037716 
L 225.73835 259.989551 
L 228.543282 259.730936 
L 231.548566 259.226259 
L 234.55385 258.493996 
L 237.759487 257.472764 
L 240.965123 256.216124 
L 244.371112 254.633297 
L 247.176043 253.109057 
L 249.379918 251.670028 
L 252.986259 248.944974 
L 268.01268 236.978861 
L 285.643681 222.190418 
L 290.251783 218.699026 
L 293.858124 216.232989 
L 296.462703 214.71783 
L 298.666578 213.68942 
L 300.069044 213.249127 
L 300.870453 213.172386 
L 302.072567 213.459707 
L 303.274681 213.301483 
L 308.684192 212.443033 
L 313.692999 211.899797 
L 318.701806 211.582232 
L 323.710612 211.488705 
L 328.719419 211.619764 
L 333.728226 211.974687 
L 338.737033 212.551957 
L 343.74584 213.353538 
L 348.353942 214.31244 
L 351.158874 215.089575 
L 352.962044 215.821776 
L 354.564862 216.688526 
L 356.96909 218.314283 
L 357.570147 218.85666 
L 357.970851 219.562879 
L 358.371556 220.871539 
L 358.972612 222.858965 
L 359.172965 222.997228 
L 359.373317 222.78743 
L 359.974374 221.701771 
L 360.174726 221.611423 
L 360.575431 221.810658 
L 361.37684 222.762394 
L 362.178249 223.587748 
L 365.383885 226.124298 
L 371.394453 231.218451 
L 383.41559 241.390722 
L 388.825101 245.648682 
L 393.232851 248.840647 
L 395.236374 250.122442 
L 396.839192 250.942808 
L 399.844476 252.637602 
L 404.252226 254.833683 
L 408.659976 256.812705 
L 411.865612 258.008561 
L 414.870897 258.889064 
L 417.675828 259.488838 
L 420.48076 259.87154 
L 423.285692 260.037636 
L 426.090624 259.989443 
L 428.895556 259.730802 
L 431.90084 259.226098 
L 434.906124 258.493809 
L 438.11176 257.472552 
L 441.317397 256.215895 
L 444.723385 254.633101 
L 447.528317 253.109175 
L 449.732192 251.670782 
L 453.338533 248.945581 
L 468.364953 236.97875 
L 473.164773 232.88478 
L 473.164773 232.88478 
" clip-path="url(#p65b5566a21)" style="fill: none; stroke: #bf00bf; stroke-width: 2; stroke-linecap: square"/>
   </g>
   <g id="line2d_34">
    <path d="M 72.460227 112.875263 
L 73.069918 112.769604 
L 73.470623 112.380261 
L 73.871327 111.628871 
L 74.672737 109.48224 
L 76.475907 103.91747 
L 87.094577 69.542353 
L 90.300214 60.138855 
L 92.504089 54.26423 
L 94.106907 50.544616 
L 95.309021 48.241136 
L 96.310782 46.715407 
L 97.312543 45.540525 
L 98.314305 44.659588 
L 99.516418 43.902764 
L 100.718532 43.412233 
L 103.723816 42.70649 
L 106.528748 42.330531 
L 110.736146 42.020232 
L 117.347771 41.771059 
L 125.562214 41.682774 
L 133.977009 41.813878 
L 142.792509 42.174591 
L 151.808362 42.756633 
L 156.216112 43.234982 
L 157.017521 43.464582 
L 157.217873 43.660711 
L 157.418225 44.051052 
L 157.618578 44.794086 
L 158.019282 48.025613 
L 158.620339 57.083674 
L 159.021043 62.824756 
L 159.421748 65.940925 
L 159.822453 67.059057 
L 160.623862 68.131168 
L 161.024566 69.146158 
L 161.825975 72.080224 
L 162.827737 75.571878 
L 165.632668 84.618497 
L 171.843589 105.417367 
L 182.662612 141.683842 
L 187.270714 156.268974 
L 190.877055 166.969086 
L 193.681987 174.652055 
L 194.8841 177.513468 
L 195.485157 178.286428 
L 196.086214 178.63835 
L 197.087975 178.950023 
L 198.690793 179.201233 
L 201.495725 179.380263 
L 206.905237 179.438006 
L 247.576748 179.390174 
L 249.780623 179.181131 
L 251.183089 178.841292 
L 252.18485 178.403645 
L 252.986259 177.816714 
L 253.587316 177.127497 
L 254.188373 176.146489 
L 254.989782 174.426298 
L 256.392248 170.766082 
L 258.596123 164.247864 
L 262.803521 151.023484 
L 268.01268 133.899577 
L 286.044385 73.883664 
L 289.650726 63.012032 
L 292.255306 55.816145 
L 294.058476 51.430451 
L 295.460942 48.603499 
L 296.663056 46.725348 
L 297.664817 45.548048 
L 298.666578 44.665168 
L 299.868692 43.906536 
L 301.070806 43.414204 
L 303.875737 42.744172 
L 306.480317 42.373228 
L 310.487362 42.054659 
L 316.898635 41.792128 
L 325.113078 41.682237 
L 333.527874 41.792466 
L 342.343374 42.133588 
L 351.759931 42.724018 
L 356.368033 43.207983 
L 357.169442 43.366047 
L 357.570147 43.670836 
L 357.770499 44.071169 
L 357.970851 44.831025 
L 358.371556 48.111765 
L 358.972612 57.205737 
L 359.373317 62.906749 
L 359.774022 65.972743 
L 360.174726 67.067696 
L 360.976135 68.143118 
L 361.37684 69.166176 
L 362.178249 72.105859 
L 363.18001 75.591946 
L 365.984942 84.639046 
L 371.99551 104.75923 
L 383.014885 141.704187 
L 387.622987 156.289174 
L 391.229328 166.988971 
L 394.03426 174.67134 
L 395.236374 177.527066 
L 395.837431 178.292781 
L 396.438487 178.641705 
L 397.440249 178.951858 
L 399.043067 179.202158 
L 401.847999 179.380574 
L 407.25751 179.438034 
L 447.929022 179.390591 
L 450.132897 179.182561 
L 451.535362 178.843995 
L 452.537124 178.408066 
L 453.338533 177.82385 
L 453.93959 177.13785 
L 454.540647 176.160422 
L 455.342056 174.443592 
L 456.744522 170.786038 
L 458.948397 164.268788 
L 463.155794 151.044231 
L 468.364953 133.92016 
L 473.164773 117.71177 
L 473.164773 117.71177 
" clip-path="url(#p65b5566a21)" style="fill: none; stroke: #bfbf00; stroke-width: 2; stroke-linecap: square"/>
   </g>
   <g id="patch_3">
    <path d="M 52.425 312.2 
L 52.425 28.8 
" style="fill: none; stroke: #000000; stroke-width: 0.8; stroke-linejoin: miter; stroke-linecap: square"/>
   </g>
   <g id="patch_4">
    <path d="M 493.2 312.2 
L 493.2 28.8 
" style="fill: none; stroke: #000000; stroke-width: 0.8; stroke-linejoin: miter; stroke-linecap: square"/>
   </g>
   <g id="patch_5">
    <path d="M 52.425 312.2 
L 493.2 312.2 
" style="fill: none; stroke: #000000; stroke-width: 0.8; stroke-linejoin: miter; stroke-linecap: square"/>
   </g>
   <g id="patch_6">
    <path d="M 52.425 28.8 
L 493.2 28.8 
" style="fill: none; stroke: #000000; stroke-width: 0.8; stroke-linejoin: miter; stroke-linecap: square"/>
   </g>
   <g id="text_17">
    <!-- Sine overdrive $V_{out}$, $C_c$=18pF -->
    <g transform="translate(185.8725 22.8) scale(0.12 -0.12)">
     <defs>
      <path id="DejaVuSans-53" d="M 3425 4513 
L 3425 3897 
Q 3066 4069 2747 4153 
Q 2428 4238 2131 4238 
Q 1616 4238 1336 4038 
Q 1056 3838 1056 3469 
Q 1056 3159 1242 3001 
Q 1428 2844 1947 2747 
L 2328 2669 
Q 3034 2534 3370 2195 
Q 3706 1856 3706 1288 
Q 3706 609 3251 259 
Q 2797 -91 1919 -91 
Q 1588 -91 1214 -16 
Q 841 59 441 206 
L 441 856 
Q 825 641 1194 531 
Q 1563 422 1919 422 
Q 2459 422 2753 634 
Q 3047 847 3047 1241 
Q 3047 1584 2836 1778 
Q 2625 1972 2144 2069 
L 1759 2144 
Q 1053 2284 737 2584 
Q 422 2884 422 3419 
Q 422 4038 858 4394 
Q 1294 4750 2059 4750 
Q 2388 4750 2728 4690 
Q 3069 4631 3425 4513 
z
" transform="scale(0.015625)"/>
      <path id="DejaVuSans-6e" d="M 3513 2113 
L 3513 0 
L 2938 0 
L 2938 2094 
Q 2938 2591 2744 2837 
Q 2550 3084 2163 3084 
Q 1697 3084 1428 2787 
Q 1159 2491 1159 1978 
L 1159 0 
L 581 0 
L 581 3500 
L 1159 3500 
L 1159 2956 
Q 1366 3272 1645 3428 
Q 1925 3584 2291 3584 
Q 2894 3584 3203 3211 
Q 3513 2838 3513 2113 
z
" transform="scale(0.015625)"/>
      <path id="DejaVuSans-6f" d="M 1959 3097 
Q 1497 3097 1228 2736 
Q 959 2375 959 1747 
Q 959 1119 1226 758 
Q 1494 397 1959 397 
Q 2419 397 2687 759 
Q 2956 1122 2956 1747 
Q 2956 2369 2687 2733 
Q 2419 3097 1959 3097 
z
M 1959 3584 
Q 2709 3584 3137 3096 
Q 3566 2609 3566 1747 
Q 3566 888 3137 398 
Q 2709 -91 1959 -91 
Q 1206 -91 779 398 
Q 353 888 353 1747 
Q 353 2609 779 3096 
Q 1206 3584 1959 3584 
z
" transform="scale(0.015625)"/>
      <path id="DejaVuSans-76" d="M 191 3500 
L 800 3500 
L 1894 563 
L 2988 3500 
L 3597 3500 
L 2284 0 
L 1503 0 
L 191 3500 
z
" transform="scale(0.015625)"/>
      <path id="DejaVuSans-72" d="M 2631 2963 
Q 2534 3019 2420 3045 
Q 2306 3072 2169 3072 
Q 1681 3072 1420 2755 
Q 1159 2438 1159 1844 
L 1159 0 
L 581 0 
L 581 3500 
L 1159 3500 
L 1159 2956 
Q 1341 3275 1631 3429 
Q 1922 3584 2338 3584 
Q 2397 3584 2469 3576 
Q 2541 3569 2628 3553 
L 2631 2963 
z
" transform="scale(0.015625)"/>
      <path id="DejaVuSans-64" d="M 2906 2969 
L 2906 4863 
L 3481 4863 
L 3481 0 
L 2906 0 
L 2906 525 
Q 2725 213 2448 61 
Q 2172 -91 1784 -91 
Q 1150 -91 751 415 
Q 353 922 353 1747 
Q 353 2572 751 3078 
Q 1150 3584 1784 3584 
Q 2172 3584 2448 3432 
Q 2725 3281 2906 2969 
z
M 947 1747 
Q 947 1113 1208 752 
Q 1469 391 1925 391 
Q 2381 391 2643 752 
Q 2906 1113 2906 1747 
Q 2906 2381 2643 2742 
Q 2381 3103 1925 3103 
Q 1469 3103 1208 2742 
Q 947 2381 947 1747 
z
" transform="scale(0.015625)"/>
      <path id="DejaVuSans-Oblique-56" d="M 1319 0 
L 500 4666 
L 1119 4666 
L 1797 653 
L 4063 4666 
L 4750 4666 
L 2053 0 
L 1319 0 
z
" transform="scale(0.015625)"/>
      <path id="DejaVuSans-Oblique-6f" d="M 1625 -91 
Q 1009 -91 651 289 
Q 294 669 294 1325 
Q 294 1706 417 2101 
Q 541 2497 738 2766 
Q 1047 3184 1428 3384 
Q 1809 3584 2291 3584 
Q 2888 3584 3255 3212 
Q 3622 2841 3622 2241 
Q 3622 1825 3500 1412 
Q 3378 1000 3181 728 
Q 2875 309 2494 109 
Q 2113 -91 1625 -91 
z
M 891 1344 
Q 891 869 1089 633 
Q 1288 397 1691 397 
Q 2269 397 2648 901 
Q 3028 1406 3028 2181 
Q 3028 2634 2825 2865 
Q 2622 3097 2228 3097 
Q 1903 3097 1650 2945 
Q 1397 2794 1197 2484 
Q 1050 2253 970 1956 
Q 891 1659 891 1344 
z
" transform="scale(0.015625)"/>
      <path id="DejaVuSans-Oblique-75" d="M 428 1388 
L 838 3500 
L 1416 3500 
L 1006 1409 
Q 975 1256 961 1147 
Q 947 1038 947 966 
Q 947 700 1109 554 
Q 1272 409 1569 409 
Q 2031 409 2368 721 
Q 2706 1034 2809 1563 
L 3194 3500 
L 3769 3500 
L 3091 0 
L 2516 0 
L 2631 550 
Q 2388 244 2052 76 
Q 1716 -91 1338 -91 
Q 878 -91 622 161 
Q 366 413 366 863 
Q 366 956 381 1097 
Q 397 1238 428 1388 
z
" transform="scale(0.015625)"/>
      <path id="DejaVuSans-Oblique-74" d="M 2706 3500 
L 2619 3053 
L 1472 3053 
L 1100 1153 
Q 1081 1047 1072 975 
Q 1063 903 1063 863 
Q 1063 663 1183 572 
Q 1303 481 1569 481 
L 2150 481 
L 2053 0 
L 1503 0 
Q 991 0 739 200 
Q 488 400 488 806 
Q 488 878 497 964 
Q 506 1050 525 1153 
L 897 3053 
L 409 3053 
L 500 3500 
L 978 3500 
L 1172 4494 
L 1747 4494 
L 1556 3500 
L 2706 3500 
z
" transform="scale(0.015625)"/>
      <path id="DejaVuSans-2c" d="M 750 794 
L 1409 794 
L 1409 256 
L 897 -744 
L 494 -744 
L 750 256 
L 750 794 
z
" transform="scale(0.015625)"/>
      <path id="DejaVuSans-Oblique-43" d="M 4447 4306 
L 4319 3641 
Q 4019 3944 3683 4091 
Q 3347 4238 2956 4238 
Q 2422 4238 2017 3981 
Q 1613 3725 1319 3200 
Q 1131 2863 1032 2486 
Q 934 2109 934 1728 
Q 934 1091 1264 756 
Q 1594 422 2222 422 
Q 2656 422 3056 561 
Q 3456 700 3834 978 
L 3688 231 
Q 3316 72 2936 -9 
Q 2556 -91 2175 -91 
Q 1278 -91 773 396 
Q 269 884 269 1753 
Q 269 2309 461 2846 
Q 653 3384 1013 3828 
Q 1394 4300 1883 4525 
Q 2372 4750 3022 4750 
Q 3422 4750 3780 4639 
Q 4138 4528 4447 4306 
z
" transform="scale(0.015625)"/>
      <path id="DejaVuSans-Oblique-63" d="M 3431 3366 
L 3316 2797 
Q 3109 2947 2876 3022 
Q 2644 3097 2394 3097 
Q 2119 3097 1870 3000 
Q 1622 2903 1453 2725 
Q 1184 2453 1037 2087 
Q 891 1722 891 1331 
Q 891 859 1127 628 
Q 1363 397 1844 397 
Q 2081 397 2348 469 
Q 2616 541 2906 684 
L 2797 116 
Q 2547 13 2283 -39 
Q 2019 -91 1741 -91 
Q 1044 -91 669 257 
Q 294 606 294 1253 
Q 294 1797 489 2255 
Q 684 2713 1069 3078 
Q 1331 3328 1684 3456 
Q 2038 3584 2456 3584 
Q 2700 3584 2940 3529 
Q 3181 3475 3431 3366 
z
" transform="scale(0.015625)"/>
      <path id="DejaVuSans-3d" d="M 678 2906 
L 4684 2906 
L 4684 2381 
L 678 2381 
L 678 2906 
z
M 678 1631 
L 4684 1631 
L 4684 1100 
L 678 1100 
L 678 1631 
z
" transform="scale(0.015625)"/>
      <path id="DejaVuSans-38" d="M 2034 2216 
Q 1584 2216 1326 1975 
Q 1069 1734 1069 1313 
Q 1069 891 1326 650 
Q 1584 409 2034 409 
Q 2484 409 2743 651 
Q 3003 894 3003 1313 
Q 3003 1734 2745 1975 
Q 2488 2216 2034 2216 
z
M 1403 2484 
Q 997 2584 770 2862 
Q 544 3141 544 3541 
Q 544 4100 942 4425 
Q 1341 4750 2034 4750 
Q 2731 4750 3128 4425 
Q 3525 4100 3525 3541 
Q 3525 3141 3298 2862 
Q 3072 2584 2669 2484 
Q 3125 2378 3379 2068 
Q 3634 1759 3634 1313 
Q 3634 634 3220 271 
Q 2806 -91 2034 -91 
Q 1263 -91 848 271 
Q 434 634 434 1313 
Q 434 1759 690 2068 
Q 947 2378 1403 2484 
z
M 1172 3481 
Q 1172 3119 1398 2916 
Q 1625 2713 2034 2713 
Q 2441 2713 2670 2916 
Q 2900 3119 2900 3481 
Q 2900 3844 2670 4047 
Q 2441 4250 2034 4250 
Q 1625 4250 1398 4047 
Q 1172 3844 1172 3481 
z
" transform="scale(0.015625)"/>
      <path id="DejaVuSans-70" d="M 1159 525 
L 1159 -1331 
L 581 -1331 
L 581 3500 
L 1159 3500 
L 1159 2969 
Q 1341 3281 1617 3432 
Q 1894 3584 2278 3584 
Q 2916 3584 3314 3078 
Q 3713 2572 3713 1747 
Q 3713 922 3314 415 
Q 2916 -91 2278 -91 
Q 1894 -91 1617 61 
Q 1341 213 1159 525 
z
M 3116 1747 
Q 3116 2381 2855 2742 
Q 2594 3103 2138 3103 
Q 1681 3103 1420 2742 
Q 1159 2381 1159 1747 
Q 1159 1113 1420 752 
Q 1681 391 2138 391 
Q 2594 391 2855 752 
Q 3116 1113 3116 1747 
z
" transform="scale(0.015625)"/>
      <path id="DejaVuSans-46" d="M 628 4666 
L 3309 4666 
L 3309 4134 
L 1259 4134 
L 1259 2759 
L 3109 2759 
L 3109 2228 
L 1259 2228 
L 1259 0 
L 628 0 
L 628 4666 
z
" transform="scale(0.015625)"/>
     </defs>
     <use xlink:href="#DejaVuSans-53" transform="translate(0 0.015625)"/>
     <use xlink:href="#DejaVuSans-69" transform="translate(63.476562 0.015625)"/>
     <use xlink:href="#DejaVuSans-6e" transform="translate(91.259766 0.015625)"/>
     <use xlink:href="#DejaVuSans-65" transform="translate(154.638672 0.015625)"/>
     <use xlink:href="#DejaVuSans-20" transform="translate(216.162109 0.015625)"/>
     <use xlink:href="#DejaVuSans-6f" transform="translate(247.949219 0.015625)"/>
     <use xlink:href="#DejaVuSans-76" transform="translate(309.130859 0.015625)"/>
     <use xlink:href="#DejaVuSans-65" transform="translate(368.310547 0.015625)"/>
     <use xlink:href="#DejaVuSans-72" transform="translate(429.833984 0.015625)"/>
     <use xlink:href="#DejaVuSans-64" transform="translate(470.947266 0.015625)"/>
     <use xlink:href="#DejaVuSans-72" transform="translate(534.423828 0.015625)"/>
     <use xlink:href="#DejaVuSans-69" transform="translate(575.537109 0.015625)"/>
     <use xlink:href="#DejaVuSans-76" transform="translate(603.320312 0.015625)"/>
     <use xlink:href="#DejaVuSans-65" transform="translate(662.5 0.015625)"/>
     <use xlink:href="#DejaVuSans-20" transform="translate(724.023438 0.015625)"/>
     <use xlink:href="#DejaVuSans-Oblique-56" transform="translate(755.810547 0.015625)"/>
     <use xlink:href="#DejaVuSans-Oblique-6f" transform="translate(824.21875 -16.390625) scale(0.7)"/>
     <use xlink:href="#DejaVuSans-Oblique-75" transform="translate(867.045898 -16.390625) scale(0.7)"/>
     <use xlink:href="#DejaVuSans-Oblique-74" transform="translate(911.411133 -16.390625) scale(0.7)"/>
     <use xlink:href="#DejaVuSans-2c" transform="translate(941.591797 0.015625)"/>
     <use xlink:href="#DejaVuSans-20" transform="translate(973.378906 0.015625)"/>
     <use xlink:href="#DejaVuSans-Oblique-43" transform="translate(1005.166016 0.015625)"/>
     <use xlink:href="#DejaVuSans-Oblique-63" transform="translate(1074.990234 -16.390625) scale(0.7)"/>
     <use xlink:href="#DejaVuSans-3d" transform="translate(1116.210938 0.015625)"/>
     <use xlink:href="#DejaVuSans-31" transform="translate(1200 0.015625)"/>
     <use xlink:href="#DejaVuSans-38" transform="translate(1263.623047 0.015625)"/>
     <use xlink:href="#DejaVuSans-70" transform="translate(1327.246094 0.015625)"/>
     <use xlink:href="#DejaVuSans-46" transform="translate(1390.722656 0.015625)"/>
    </g>
   </g>
   <g id="legend_1">
    <g id="patch_7">
     <path d="M 344.98625 109.485 
L 486.2 109.485 
Q 488.2 109.485 488.2 107.485 
L 488.2 35.8 
Q 488.2 33.8 486.2 33.8 
L 344.98625 33.8 
Q 342.98625 33.8 342.98625 35.8 
L 342.98625 107.485 
Q 342.98625 109.485 344.98625 109.485 
z
" style="fill: #ffffff; opacity: 0.8; stroke: #cccccc; stroke-linejoin: miter"/>
    </g>
    <g id="line2d_35">
     <path d="M 344.98625 41.418125 
L 349.98625 41.418125 
L 354.98625 41.418125 
" style="fill: none; stroke: #ff0000; stroke-width: 2; stroke-linecap: square"/>
    </g>
    <g id="text_18">
     <!-- V_out:V_p=5.00e-01 -->
     <g transform="translate(356.98625 44.918125) scale(0.12 -0.12)">
      <defs>
       <path id="DejaVuSans-5f" d="M 3263 -1063 
L 3263 -1509 
L -63 -1509 
L -63 -1063 
L 3263 -1063 
z
" transform="scale(0.015625)"/>
       <path id="DejaVuSans-3a" d="M 750 794 
L 1409 794 
L 1409 0 
L 750 0 
L 750 794 
z
M 750 3309 
L 1409 3309 
L 1409 2516 
L 750 2516 
L 750 3309 
z
" transform="scale(0.015625)"/>
       <path id="DejaVuSans-2d" d="M 313 2009 
L 1997 2009 
L 1997 1497 
L 313 1497 
L 313 2009 
z
" transform="scale(0.015625)"/>
      </defs>
      <use xlink:href="#DejaVuSans-56"/>
      <use xlink:href="#DejaVuSans-5f" x="68.408203"/>
      <use xlink:href="#DejaVuSans-6f" x="118.408203"/>
      <use xlink:href="#DejaVuSans-75" x="179.589844"/>
      <use xlink:href="#DejaVuSans-74" x="242.96875"/>
      <use xlink:href="#DejaVuSans-3a" x="282.177734"/>
      <use xlink:href="#DejaVuSans-56" x="315.869141"/>
      <use xlink:href="#DejaVuSans-5f" x="384.277344"/>
      <use xlink:href="#DejaVuSans-70" x="434.277344"/>
      <use xlink:href="#DejaVuSans-3d" x="497.753906"/>
      <use xlink:href="#DejaVuSans-35" x="581.542969"/>
      <use xlink:href="#DejaVuSans-2e" x="645.166016"/>
      <use xlink:href="#DejaVuSans-30" x="676.953125"/>
      <use xlink:href="#DejaVuSans-30" x="740.576172"/>
      <use xlink:href="#DejaVuSans-65" x="804.199219"/>
      <use xlink:href="#DejaVuSans-2d" x="865.722656"/>
      <use xlink:href="#DejaVuSans-30" x="901.806641"/>
      <use xlink:href="#DejaVuSans-31" x="965.429688"/>
     </g>
    </g>
    <g id="line2d_36">
     <path d="M 344.98625 53.365625 
L 349.98625 53.365625 
L 354.98625 53.365625 
" style="fill: none; stroke: #0000ff; stroke-width: 2; stroke-linecap: square"/>
    </g>
    <g id="text_19">
     <!-- V_in:V_p=5.00e-01 -->
     <g transform="translate(356.98625 56.865625) scale(0.12 -0.12)">
      <use xlink:href="#DejaVuSans-56"/>
      <use xlink:href="#DejaVuSans-5f" x="68.408203"/>
      <use xlink:href="#DejaVuSans-69" x="118.408203"/>
      <use xlink:href="#DejaVuSans-6e" x="146.191406"/>
      <use xlink:href="#DejaVuSans-3a" x="209.570312"/>
      <use xlink:href="#DejaVuSans-56" x="243.261719"/>
      <use xlink:href="#DejaVuSans-5f" x="311.669922"/>
      <use xlink:href="#DejaVuSans-70" x="361.669922"/>
      <use xlink:href="#DejaVuSans-3d" x="425.146484"/>
      <use xlink:href="#DejaVuSans-35" x="508.935547"/>
      <use xlink:href="#DejaVuSans-2e" x="572.558594"/>
      <use xlink:href="#DejaVuSans-30" x="604.345703"/>
      <use xlink:href="#DejaVuSans-30" x="667.96875"/>
      <use xlink:href="#DejaVuSans-65" x="731.591797"/>
      <use xlink:href="#DejaVuSans-2d" x="793.115234"/>
      <use xlink:href="#DejaVuSans-30" x="829.199219"/>
      <use xlink:href="#DejaVuSans-31" x="892.822266"/>
     </g>
    </g>
    <g id="line2d_37">
     <path d="M 344.98625 65.313125 
L 349.98625 65.313125 
L 354.98625 65.313125 
" style="fill: none; stroke: #008000; stroke-width: 2; stroke-linecap: square"/>
    </g>
    <g id="text_20">
     <!-- V_c2:V_p=5.00e-01 -->
     <g transform="translate(356.98625 68.813125) scale(0.12 -0.12)">
      <defs>
       <path id="DejaVuSans-63" d="M 3122 3366 
L 3122 2828 
Q 2878 2963 2633 3030 
Q 2388 3097 2138 3097 
Q 1578 3097 1268 2742 
Q 959 2388 959 1747 
Q 959 1106 1268 751 
Q 1578 397 2138 397 
Q 2388 397 2633 464 
Q 2878 531 3122 666 
L 3122 134 
Q 2881 22 2623 -34 
Q 2366 -91 2075 -91 
Q 1284 -91 818 406 
Q 353 903 353 1747 
Q 353 2603 823 3093 
Q 1294 3584 2113 3584 
Q 2378 3584 2631 3529 
Q 2884 3475 3122 3366 
z
" transform="scale(0.015625)"/>
      </defs>
      <use xlink:href="#DejaVuSans-56"/>
      <use xlink:href="#DejaVuSans-5f" x="68.408203"/>
      <use xlink:href="#DejaVuSans-63" x="118.408203"/>
      <use xlink:href="#DejaVuSans-32" x="173.388672"/>
      <use xlink:href="#DejaVuSans-3a" x="237.011719"/>
      <use xlink:href="#DejaVuSans-56" x="270.703125"/>
      <use xlink:href="#DejaVuSans-5f" x="339.111328"/>
      <use xlink:href="#DejaVuSans-70" x="389.111328"/>
      <use xlink:href="#DejaVuSans-3d" x="452.587891"/>
      <use xlink:href="#DejaVuSans-35" x="536.376953"/>
      <use xlink:href="#DejaVuSans-2e" x="600"/>
      <use xlink:href="#DejaVuSans-30" x="631.787109"/>
      <use xlink:href="#DejaVuSans-30" x="695.410156"/>
      <use xlink:href="#DejaVuSans-65" x="759.033203"/>
      <use xlink:href="#DejaVuSans-2d" x="820.556641"/>
      <use xlink:href="#DejaVuSans-30" x="856.640625"/>
      <use xlink:href="#DejaVuSans-31" x="920.263672"/>
     </g>
    </g>
    <g id="line2d_38">
     <path d="M 344.98625 77.260625 
L 349.98625 77.260625 
L 354.98625 77.260625 
" style="fill: none; stroke: #00bfbf; stroke-width: 2; stroke-linecap: square"/>
    </g>
    <g id="text_21">
     <!-- V_out:V_p=1.00e+00 -->
     <g transform="translate(356.98625 80.760625) scale(0.12 -0.12)">
      <defs>
       <path id="DejaVuSans-2b" d="M 2944 4013 
L 2944 2272 
L 4684 2272 
L 4684 1741 
L 2944 1741 
L 2944 0 
L 2419 0 
L 2419 1741 
L 678 1741 
L 678 2272 
L 2419 2272 
L 2419 4013 
L 2944 4013 
z
" transform="scale(0.015625)"/>
      </defs>
      <use xlink:href="#DejaVuSans-56"/>
      <use xlink:href="#DejaVuSans-5f" x="68.408203"/>
      <use xlink:href="#DejaVuSans-6f" x="118.408203"/>
      <use xlink:href="#DejaVuSans-75" x="179.589844"/>
      <use xlink:href="#DejaVuSans-74" x="242.96875"/>
      <use xlink:href="#DejaVuSans-3a" x="282.177734"/>
      <use xlink:href="#DejaVuSans-56" x="315.869141"/>
      <use xlink:href="#DejaVuSans-5f" x="384.277344"/>
      <use xlink:href="#DejaVuSans-70" x="434.277344"/>
      <use xlink:href="#DejaVuSans-3d" x="497.753906"/>
      <use xlink:href="#DejaVuSans-31" x="581.542969"/>
      <use xlink:href="#DejaVuSans-2e" x="645.166016"/>
      <use xlink:href="#DejaVuSans-30" x="676.953125"/>
      <use xlink:href="#DejaVuSans-30" x="740.576172"/>
      <use xlink:href="#DejaVuSans-65" x="804.199219"/>
      <use xlink:href="#DejaVuSans-2b" x="865.722656"/>
      <use xlink:href="#DejaVuSans-30" x="949.511719"/>
      <use xlink:href="#DejaVuSans-30" x="1013.134766"/>
     </g>
    </g>
    <g id="line2d_39">
     <path d="M 344.98625 89.208125 
L 349.98625 89.208125 
L 354.98625 89.208125 
" style="fill: none; stroke: #bf00bf; stroke-width: 2; stroke-linecap: square"/>
    </g>
    <g id="text_22">
     <!-- V_in:V_p=1.00e+00 -->
     <g transform="translate(356.98625 92.708125) scale(0.12 -0.12)">
      <use xlink:href="#DejaVuSans-56"/>
      <use xlink:href="#DejaVuSans-5f" x="68.408203"/>
      <use xlink:href="#DejaVuSans-69" x="118.408203"/>
      <use xlink:href="#DejaVuSans-6e" x="146.191406"/>
      <use xlink:href="#DejaVuSans-3a" x="209.570312"/>
      <use xlink:href="#DejaVuSans-56" x="243.261719"/>
      <use xlink:href="#DejaVuSans-5f" x="311.669922"/>
      <use xlink:href="#DejaVuSans-70" x="361.669922"/>
      <use xlink:href="#DejaVuSans-3d" x="425.146484"/>
      <use xlink:href="#DejaVuSans-31" x="508.935547"/>
      <use xlink:href="#DejaVuSans-2e" x="572.558594"/>
      <use xlink:href="#DejaVuSans-30" x="604.345703"/>
      <use xlink:href="#DejaVuSans-30" x="667.96875"/>
      <use xlink:href="#DejaVuSans-65" x="731.591797"/>
      <use xlink:href="#DejaVuSans-2b" x="793.115234"/>
      <use xlink:href="#DejaVuSans-30" x="876.904297"/>
      <use xlink:href="#DejaVuSans-30" x="940.527344"/>
     </g>
    </g>
    <g id="line2d_40">
     <path d="M 344.98625 101.155625 
L 349.98625 101.155625 
L 354.98625 101.155625 
" style="fill: none; stroke: #bfbf00; stroke-width: 2; stroke-linecap: square"/>
    </g>
    <g id="text_23">
     <!-- V_c2:V_p=1.00e+00 -->
     <g transform="translate(356.98625 104.655625) scale(0.12 -0.12)">
      <use xlink:href="#DejaVuSans-56"/>
      <use xlink:href="#DejaVuSans-5f" x="68.408203"/>
      <use xlink:href="#DejaVuSans-63" x="118.408203"/>
      <use xlink:href="#DejaVuSans-32" x="173.388672"/>
      <use xlink:href="#DejaVuSans-3a" x="237.011719"/>
      <use xlink:href="#DejaVuSans-56" x="270.703125"/>
      <use xlink:href="#DejaVuSans-5f" x="339.111328"/>
      <use xlink:href="#DejaVuSans-70" x="389.111328"/>
      <use xlink:href="#DejaVuSans-3d" x="452.587891"/>
      <use xlink:href="#DejaVuSans-31" x="536.376953"/>
      <use xlink:href="#DejaVuSans-2e" x="600"/>
      <use xlink:href="#DejaVuSans-30" x="631.787109"/>
      <use xlink:href="#DejaVuSans-30" x="695.410156"/>
      <use xlink:href="#DejaVuSans-65" x="759.033203"/>
      <use xlink:href="#DejaVuSans-2b" x="820.556641"/>
      <use xlink:href="#DejaVuSans-30" x="904.345703"/>
      <use xlink:href="#DejaVuSans-30" x="967.96875"/>
     </g>
    </g>
   </g>
  </g>
 </g>
 <defs>
  <clipPath id="p65b5566a21">
   <rect x="52.425" y="28.8" width="440.775" height="283.4"/>
  </clipPath>
 </defs>
</svg>
