<?xml version="1.0" encoding="utf-8" standalone="no"?>
<!DOCTYPE svg PUBLIC "-//W3C//DTD SVG 1.1//EN"
  "http://www.w3.org/Graphics/SVG/1.1/DTD/svg11.dtd">
<svg xmlns:xlink="http://www.w3.org/1999/xlink" width="504pt" height="360pt" viewBox="0 0 504 360" xmlns="http://www.w3.org/2000/svg" version="1.1">
 <metadata>
  <rdf:RDF xmlns:dc="http://purl.org/dc/elements/1.1/" xmlns:cc="http://creativecommons.org/ns#" xmlns:rdf="http://www.w3.org/1999/02/22-rdf-syntax-ns#">
   <cc:Work>
    <dc:type rdf:resource="http://purl.org/dc/dcmitype/StillImage"/>
    <dc:date>2025-08-13T13:38:39.765863</dc:date>
    <dc:format>image/svg+xml</dc:format>
    <dc:creator>
     <cc:Agent>
      <dc:title>Matplotlib v3.9.2, https://matplotlib.org/</dc:title>
     </cc:Agent>
    </dc:creator>
   </cc:Work>
  </rdf:RDF>
 </metadata>
 <defs>
  <style type="text/css">*{stroke-linejoin: round; stroke-linecap: butt}</style>
 </defs>
 <g id="figure_1">
  <g id="patch_1">
   <path d="M 0 360 
L 504 360 
L 504 0 
L 0 0 
z
" style="fill: #ffffff"/>
  </g>
  <g id="axes_1">
   <g id="patch_2">
    <path d="M 52.4 312.28 
L 493.2 312.28 
L 493.2 28.32 
L 52.4 28.32 
z
" style="fill: #ffffff"/>
   </g>
   <g id="matplotlib.axis_1">
    <g id="xtick_1">
     <g id="line2d_1">
      <path d="M 72.436364 312.28 
L 72.436364 28.32 
" clip-path="url(#p21f9c8400b)" style="fill: none; stroke: #808080; stroke-width: 0.8; stroke-linecap: square"/>
     </g>
     <g id="line2d_2">
      <defs>
       <path id="m2e30cd1f45" d="M 0 0 
L 0 3.5 
" style="stroke: #000000; stroke-width: 0.8"/>
      </defs>
      <g>
       <use xlink:href="#m2e30cd1f45" x="72.436364" y="312.28" style="stroke: #000000; stroke-width: 0.8"/>
      </g>
     </g>
     <g id="text_1">
      <!-- 0.0 -->
      <g transform="translate(62.894489 328.398125) scale(0.12 -0.12)">
       <defs>
        <path id="DejaVuSans-30" d="M 2034 4250 
Q 1547 4250 1301 3770 
Q 1056 3291 1056 2328 
Q 1056 1369 1301 889 
Q 1547 409 2034 409 
Q 2525 409 2770 889 
Q 3016 1369 3016 2328 
Q 3016 3291 2770 3770 
Q 2525 4250 2034 4250 
z
M 2034 4750 
Q 2819 4750 3233 4129 
Q 3647 3509 3647 2328 
Q 3647 1150 3233 529 
Q 2819 -91 2034 -91 
Q 1250 -91 836 529 
Q 422 1150 422 2328 
Q 422 3509 836 4129 
Q 1250 4750 2034 4750 
z
" transform="scale(0.015625)"/>
        <path id="DejaVuSans-2e" d="M 684 794 
L 1344 794 
L 1344 0 
L 684 0 
L 684 794 
z
" transform="scale(0.015625)"/>
       </defs>
       <use xlink:href="#DejaVuSans-30"/>
       <use xlink:href="#DejaVuSans-2e" x="63.623047"/>
       <use xlink:href="#DejaVuSans-30" x="95.410156"/>
      </g>
     </g>
    </g>
    <g id="xtick_2">
     <g id="line2d_3">
      <path d="M 122.527273 312.28 
L 122.527273 28.32 
" clip-path="url(#p21f9c8400b)" style="fill: none; stroke: #808080; stroke-width: 0.8; stroke-linecap: square"/>
     </g>
     <g id="line2d_4">
      <g>
       <use xlink:href="#m2e30cd1f45" x="122.527273" y="312.28" style="stroke: #000000; stroke-width: 0.8"/>
      </g>
     </g>
     <g id="text_2">
      <!-- 2.5 -->
      <g transform="translate(112.985398 328.398125) scale(0.12 -0.12)">
       <defs>
        <path id="DejaVuSans-32" d="M 1228 531 
L 3431 531 
L 3431 0 
L 469 0 
L 469 531 
Q 828 903 1448 1529 
Q 2069 2156 2228 2338 
Q 2531 2678 2651 2914 
Q 2772 3150 2772 3378 
Q 2772 3750 2511 3984 
Q 2250 4219 1831 4219 
Q 1534 4219 1204 4116 
Q 875 4013 500 3803 
L 500 4441 
Q 881 4594 1212 4672 
Q 1544 4750 1819 4750 
Q 2544 4750 2975 4387 
Q 3406 4025 3406 3419 
Q 3406 3131 3298 2873 
Q 3191 2616 2906 2266 
Q 2828 2175 2409 1742 
Q 1991 1309 1228 531 
z
" transform="scale(0.015625)"/>
        <path id="DejaVuSans-35" d="M 691 4666 
L 3169 4666 
L 3169 4134 
L 1269 4134 
L 1269 2991 
Q 1406 3038 1543 3061 
Q 1681 3084 1819 3084 
Q 2600 3084 3056 2656 
Q 3513 2228 3513 1497 
Q 3513 744 3044 326 
Q 2575 -91 1722 -91 
Q 1428 -91 1123 -41 
Q 819 9 494 109 
L 494 744 
Q 775 591 1075 516 
Q 1375 441 1709 441 
Q 2250 441 2565 725 
Q 2881 1009 2881 1497 
Q 2881 1984 2565 2268 
Q 2250 2553 1709 2553 
Q 1456 2553 1204 2497 
Q 953 2441 691 2322 
L 691 4666 
z
" transform="scale(0.015625)"/>
       </defs>
       <use xlink:href="#DejaVuSans-32"/>
       <use xlink:href="#DejaVuSans-2e" x="63.623047"/>
       <use xlink:href="#DejaVuSans-35" x="95.410156"/>
      </g>
     </g>
    </g>
    <g id="xtick_3">
     <g id="line2d_5">
      <path d="M 172.618182 312.28 
L 172.618182 28.32 
" clip-path="url(#p21f9c8400b)" style="fill: none; stroke: #808080; stroke-width: 0.8; stroke-linecap: square"/>
     </g>
     <g id="line2d_6">
      <g>
       <use xlink:href="#m2e30cd1f45" x="172.618182" y="312.28" style="stroke: #000000; stroke-width: 0.8"/>
      </g>
     </g>
     <g id="text_3">
      <!-- 5.0 -->
      <g transform="translate(163.076307 328.398125) scale(0.12 -0.12)">
       <use xlink:href="#DejaVuSans-35"/>
       <use xlink:href="#DejaVuSans-2e" x="63.623047"/>
       <use xlink:href="#DejaVuSans-30" x="95.410156"/>
      </g>
     </g>
    </g>
    <g id="xtick_4">
     <g id="line2d_7">
      <path d="M 222.709091 312.28 
L 222.709091 28.32 
" clip-path="url(#p21f9c8400b)" style="fill: none; stroke: #808080; stroke-width: 0.8; stroke-linecap: square"/>
     </g>
     <g id="line2d_8">
      <g>
       <use xlink:href="#m2e30cd1f45" x="222.709091" y="312.28" style="stroke: #000000; stroke-width: 0.8"/>
      </g>
     </g>
     <g id="text_4">
      <!-- 7.5 -->
      <g transform="translate(213.167216 328.398125) scale(0.12 -0.12)">
       <defs>
        <path id="DejaVuSans-37" d="M 525 4666 
L 3525 4666 
L 3525 4397 
L 1831 0 
L 1172 0 
L 2766 4134 
L 525 4134 
L 525 4666 
z
" transform="scale(0.015625)"/>
       </defs>
       <use xlink:href="#DejaVuSans-37"/>
       <use xlink:href="#DejaVuSans-2e" x="63.623047"/>
       <use xlink:href="#DejaVuSans-35" x="95.410156"/>
      </g>
     </g>
    </g>
    <g id="xtick_5">
     <g id="line2d_9">
      <path d="M 272.8 312.28 
L 272.8 28.32 
" clip-path="url(#p21f9c8400b)" style="fill: none; stroke: #808080; stroke-width: 0.8; stroke-linecap: square"/>
     </g>
     <g id="line2d_10">
      <g>
       <use xlink:href="#m2e30cd1f45" x="272.8" y="312.28" style="stroke: #000000; stroke-width: 0.8"/>
      </g>
     </g>
     <g id="text_5">
      <!-- 10.0 -->
      <g transform="translate(259.440625 328.398125) scale(0.12 -0.12)">
       <defs>
        <path id="DejaVuSans-31" d="M 794 531 
L 1825 531 
L 1825 4091 
L 703 3866 
L 703 4441 
L 1819 4666 
L 2450 4666 
L 2450 531 
L 3481 531 
L 3481 0 
L 794 0 
L 794 531 
z
" transform="scale(0.015625)"/>
       </defs>
       <use xlink:href="#DejaVuSans-31"/>
       <use xlink:href="#DejaVuSans-30" x="63.623047"/>
       <use xlink:href="#DejaVuSans-2e" x="127.246094"/>
       <use xlink:href="#DejaVuSans-30" x="159.033203"/>
      </g>
     </g>
    </g>
    <g id="xtick_6">
     <g id="line2d_11">
      <path d="M 322.890909 312.28 
L 322.890909 28.32 
" clip-path="url(#p21f9c8400b)" style="fill: none; stroke: #808080; stroke-width: 0.8; stroke-linecap: square"/>
     </g>
     <g id="line2d_12">
      <g>
       <use xlink:href="#m2e30cd1f45" x="322.890909" y="312.28" style="stroke: #000000; stroke-width: 0.8"/>
      </g>
     </g>
     <g id="text_6">
      <!-- 12.5 -->
      <g transform="translate(309.531534 328.398125) scale(0.12 -0.12)">
       <use xlink:href="#DejaVuSans-31"/>
       <use xlink:href="#DejaVuSans-32" x="63.623047"/>
       <use xlink:href="#DejaVuSans-2e" x="127.246094"/>
       <use xlink:href="#DejaVuSans-35" x="159.033203"/>
      </g>
     </g>
    </g>
    <g id="xtick_7">
     <g id="line2d_13">
      <path d="M 372.981818 312.28 
L 372.981818 28.32 
" clip-path="url(#p21f9c8400b)" style="fill: none; stroke: #808080; stroke-width: 0.8; stroke-linecap: square"/>
     </g>
     <g id="line2d_14">
      <g>
       <use xlink:href="#m2e30cd1f45" x="372.981818" y="312.28" style="stroke: #000000; stroke-width: 0.8"/>
      </g>
     </g>
     <g id="text_7">
      <!-- 15.0 -->
      <g transform="translate(359.622443 328.398125) scale(0.12 -0.12)">
       <use xlink:href="#DejaVuSans-31"/>
       <use xlink:href="#DejaVuSans-35" x="63.623047"/>
       <use xlink:href="#DejaVuSans-2e" x="127.246094"/>
       <use xlink:href="#DejaVuSans-30" x="159.033203"/>
      </g>
     </g>
    </g>
    <g id="xtick_8">
     <g id="line2d_15">
      <path d="M 423.072727 312.28 
L 423.072727 28.32 
" clip-path="url(#p21f9c8400b)" style="fill: none; stroke: #808080; stroke-width: 0.8; stroke-linecap: square"/>
     </g>
     <g id="line2d_16">
      <g>
       <use xlink:href="#m2e30cd1f45" x="423.072727" y="312.28" style="stroke: #000000; stroke-width: 0.8"/>
      </g>
     </g>
     <g id="text_8">
      <!-- 17.5 -->
      <g transform="translate(409.713352 328.398125) scale(0.12 -0.12)">
       <use xlink:href="#DejaVuSans-31"/>
       <use xlink:href="#DejaVuSans-37" x="63.623047"/>
       <use xlink:href="#DejaVuSans-2e" x="127.246094"/>
       <use xlink:href="#DejaVuSans-35" x="159.033203"/>
      </g>
     </g>
    </g>
    <g id="xtick_9">
     <g id="line2d_17">
      <path d="M 473.163636 312.28 
L 473.163636 28.32 
" clip-path="url(#p21f9c8400b)" style="fill: none; stroke: #808080; stroke-width: 0.8; stroke-linecap: square"/>
     </g>
     <g id="line2d_18">
      <g>
       <use xlink:href="#m2e30cd1f45" x="473.163636" y="312.28" style="stroke: #000000; stroke-width: 0.8"/>
      </g>
     </g>
     <g id="text_9">
      <!-- 20.0 -->
      <g transform="translate(459.804261 328.398125) scale(0.12 -0.12)">
       <use xlink:href="#DejaVuSans-32"/>
       <use xlink:href="#DejaVuSans-30" x="63.623047"/>
       <use xlink:href="#DejaVuSans-2e" x="127.246094"/>
       <use xlink:href="#DejaVuSans-30" x="159.033203"/>
      </g>
     </g>
    </g>
    <g id="text_10">
     <!-- time [us] -->
     <g transform="translate(245.727813 344.011875) scale(0.12 -0.12)">
      <defs>
       <path id="DejaVuSans-74" d="M 1172 4494 
L 1172 3500 
L 2356 3500 
L 2356 3053 
L 1172 3053 
L 1172 1153 
Q 1172 725 1289 603 
Q 1406 481 1766 481 
L 2356 481 
L 2356 0 
L 1766 0 
Q 1100 0 847 248 
Q 594 497 594 1153 
L 594 3053 
L 172 3053 
L 172 3500 
L 594 3500 
L 594 4494 
L 1172 4494 
z
" transform="scale(0.015625)"/>
       <path id="DejaVuSans-69" d="M 603 3500 
L 1178 3500 
L 1178 0 
L 603 0 
L 603 3500 
z
M 603 4863 
L 1178 4863 
L 1178 4134 
L 603 4134 
L 603 4863 
z
" transform="scale(0.015625)"/>
       <path id="DejaVuSans-6d" d="M 3328 2828 
Q 3544 3216 3844 3400 
Q 4144 3584 4550 3584 
Q 5097 3584 5394 3201 
Q 5691 2819 5691 2113 
L 5691 0 
L 5113 0 
L 5113 2094 
Q 5113 2597 4934 2840 
Q 4756 3084 4391 3084 
Q 3944 3084 3684 2787 
Q 3425 2491 3425 1978 
L 3425 0 
L 2847 0 
L 2847 2094 
Q 2847 2600 2669 2842 
Q 2491 3084 2119 3084 
Q 1678 3084 1418 2786 
Q 1159 2488 1159 1978 
L 1159 0 
L 581 0 
L 581 3500 
L 1159 3500 
L 1159 2956 
Q 1356 3278 1631 3431 
Q 1906 3584 2284 3584 
Q 2666 3584 2933 3390 
Q 3200 3197 3328 2828 
z
" transform="scale(0.015625)"/>
       <path id="DejaVuSans-65" d="M 3597 1894 
L 3597 1613 
L 953 1613 
Q 991 1019 1311 708 
Q 1631 397 2203 397 
Q 2534 397 2845 478 
Q 3156 559 3463 722 
L 3463 178 
Q 3153 47 2828 -22 
Q 2503 -91 2169 -91 
Q 1331 -91 842 396 
Q 353 884 353 1716 
Q 353 2575 817 3079 
Q 1281 3584 2069 3584 
Q 2775 3584 3186 3129 
Q 3597 2675 3597 1894 
z
M 3022 2063 
Q 3016 2534 2758 2815 
Q 2500 3097 2075 3097 
Q 1594 3097 1305 2825 
Q 1016 2553 972 2059 
L 3022 2063 
z
" transform="scale(0.015625)"/>
       <path id="DejaVuSans-20" transform="scale(0.015625)"/>
       <path id="DejaVuSans-5b" d="M 550 4863 
L 1875 4863 
L 1875 4416 
L 1125 4416 
L 1125 -397 
L 1875 -397 
L 1875 -844 
L 550 -844 
L 550 4863 
z
" transform="scale(0.015625)"/>
       <path id="DejaVuSans-75" d="M 544 1381 
L 544 3500 
L 1119 3500 
L 1119 1403 
Q 1119 906 1312 657 
Q 1506 409 1894 409 
Q 2359 409 2629 706 
Q 2900 1003 2900 1516 
L 2900 3500 
L 3475 3500 
L 3475 0 
L 2900 0 
L 2900 538 
Q 2691 219 2414 64 
Q 2138 -91 1772 -91 
Q 1169 -91 856 284 
Q 544 659 544 1381 
z
M 1991 3584 
L 1991 3584 
z
" transform="scale(0.015625)"/>
       <path id="DejaVuSans-73" d="M 2834 3397 
L 2834 2853 
Q 2591 2978 2328 3040 
Q 2066 3103 1784 3103 
Q 1356 3103 1142 2972 
Q 928 2841 928 2578 
Q 928 2378 1081 2264 
Q 1234 2150 1697 2047 
L 1894 2003 
Q 2506 1872 2764 1633 
Q 3022 1394 3022 966 
Q 3022 478 2636 193 
Q 2250 -91 1575 -91 
Q 1294 -91 989 -36 
Q 684 19 347 128 
L 347 722 
Q 666 556 975 473 
Q 1284 391 1588 391 
Q 1994 391 2212 530 
Q 2431 669 2431 922 
Q 2431 1156 2273 1281 
Q 2116 1406 1581 1522 
L 1381 1569 
Q 847 1681 609 1914 
Q 372 2147 372 2553 
Q 372 3047 722 3315 
Q 1072 3584 1716 3584 
Q 2034 3584 2315 3537 
Q 2597 3491 2834 3397 
z
" transform="scale(0.015625)"/>
       <path id="DejaVuSans-5d" d="M 1947 4863 
L 1947 -844 
L 622 -844 
L 622 -397 
L 1369 -397 
L 1369 4416 
L 622 4416 
L 622 4863 
L 1947 4863 
z
" transform="scale(0.015625)"/>
      </defs>
      <use xlink:href="#DejaVuSans-74"/>
      <use xlink:href="#DejaVuSans-69" x="39.208984"/>
      <use xlink:href="#DejaVuSans-6d" x="66.992188"/>
      <use xlink:href="#DejaVuSans-65" x="164.404297"/>
      <use xlink:href="#DejaVuSans-20" x="225.927734"/>
      <use xlink:href="#DejaVuSans-5b" x="257.714844"/>
      <use xlink:href="#DejaVuSans-75" x="296.728516"/>
      <use xlink:href="#DejaVuSans-73" x="360.107422"/>
      <use xlink:href="#DejaVuSans-5d" x="412.207031"/>
     </g>
    </g>
   </g>
   <g id="matplotlib.axis_2">
    <g id="ytick_1">
     <g id="line2d_19">
      <path d="M 52.4 288.57539 
L 493.2 288.57539 
" clip-path="url(#p21f9c8400b)" style="fill: none; stroke: #808080; stroke-width: 0.8; stroke-linecap: square"/>
     </g>
     <g id="line2d_20">
      <defs>
       <path id="m4ef1773071" d="M 0 0 
L -3.5 0 
" style="stroke: #000000; stroke-width: 0.8"/>
      </defs>
      <g>
       <use xlink:href="#m4ef1773071" x="52.4" y="288.57539" style="stroke: #000000; stroke-width: 0.8"/>
      </g>
     </g>
     <g id="text_11">
      <!-- −2 -->
      <g transform="translate(27.709375 293.134453) scale(0.12 -0.12)">
       <defs>
        <path id="DejaVuSans-2212" d="M 678 2272 
L 4684 2272 
L 4684 1741 
L 678 1741 
L 678 2272 
z
" transform="scale(0.015625)"/>
       </defs>
       <use xlink:href="#DejaVuSans-2212"/>
       <use xlink:href="#DejaVuSans-32" x="83.789062"/>
      </g>
     </g>
    </g>
    <g id="ytick_2">
     <g id="line2d_21">
      <path d="M 52.4 232.659995 
L 493.2 232.659995 
" clip-path="url(#p21f9c8400b)" style="fill: none; stroke: #808080; stroke-width: 0.8; stroke-linecap: square"/>
     </g>
     <g id="line2d_22">
      <g>
       <use xlink:href="#m4ef1773071" x="52.4" y="232.659995" style="stroke: #000000; stroke-width: 0.8"/>
      </g>
     </g>
     <g id="text_12">
      <!-- 0 -->
      <g transform="translate(37.765 237.219058) scale(0.12 -0.12)">
       <use xlink:href="#DejaVuSans-30"/>
      </g>
     </g>
    </g>
    <g id="ytick_3">
     <g id="line2d_23">
      <path d="M 52.4 176.744601 
L 493.2 176.744601 
" clip-path="url(#p21f9c8400b)" style="fill: none; stroke: #808080; stroke-width: 0.8; stroke-linecap: square"/>
     </g>
     <g id="line2d_24">
      <g>
       <use xlink:href="#m4ef1773071" x="52.4" y="176.744601" style="stroke: #000000; stroke-width: 0.8"/>
      </g>
     </g>
     <g id="text_13">
      <!-- 2 -->
      <g transform="translate(37.765 181.303663) scale(0.12 -0.12)">
       <use xlink:href="#DejaVuSans-32"/>
      </g>
     </g>
    </g>
    <g id="ytick_4">
     <g id="line2d_25">
      <path d="M 52.4 120.829206 
L 493.2 120.829206 
" clip-path="url(#p21f9c8400b)" style="fill: none; stroke: #808080; stroke-width: 0.8; stroke-linecap: square"/>
     </g>
     <g id="line2d_26">
      <g>
       <use xlink:href="#m4ef1773071" x="52.4" y="120.829206" style="stroke: #000000; stroke-width: 0.8"/>
      </g>
     </g>
     <g id="text_14">
      <!-- 4 -->
      <g transform="translate(37.765 125.388269) scale(0.12 -0.12)">
       <defs>
        <path id="DejaVuSans-34" d="M 2419 4116 
L 825 1625 
L 2419 1625 
L 2419 4116 
z
M 2253 4666 
L 3047 4666 
L 3047 1625 
L 3713 1625 
L 3713 1100 
L 3047 1100 
L 3047 0 
L 2419 0 
L 2419 1100 
L 313 1100 
L 313 1709 
L 2253 4666 
z
" transform="scale(0.015625)"/>
       </defs>
       <use xlink:href="#DejaVuSans-34"/>
      </g>
     </g>
    </g>
    <g id="ytick_5">
     <g id="line2d_27">
      <path d="M 52.4 64.913811 
L 493.2 64.913811 
" clip-path="url(#p21f9c8400b)" style="fill: none; stroke: #808080; stroke-width: 0.8; stroke-linecap: square"/>
     </g>
     <g id="line2d_28">
      <g>
       <use xlink:href="#m4ef1773071" x="52.4" y="64.913811" style="stroke: #000000; stroke-width: 0.8"/>
      </g>
     </g>
     <g id="text_15">
      <!-- 6 -->
      <g transform="translate(37.765 69.472874) scale(0.12 -0.12)">
       <defs>
        <path id="DejaVuSans-36" d="M 2113 2584 
Q 1688 2584 1439 2293 
Q 1191 2003 1191 1497 
Q 1191 994 1439 701 
Q 1688 409 2113 409 
Q 2538 409 2786 701 
Q 3034 994 3034 1497 
Q 3034 2003 2786 2293 
Q 2538 2584 2113 2584 
z
M 3366 4563 
L 3366 3988 
Q 3128 4100 2886 4159 
Q 2644 4219 2406 4219 
Q 1781 4219 1451 3797 
Q 1122 3375 1075 2522 
Q 1259 2794 1537 2939 
Q 1816 3084 2150 3084 
Q 2853 3084 3261 2657 
Q 3669 2231 3669 1497 
Q 3669 778 3244 343 
Q 2819 -91 2113 -91 
Q 1303 -91 875 529 
Q 447 1150 447 2328 
Q 447 3434 972 4092 
Q 1497 4750 2381 4750 
Q 2619 4750 2861 4703 
Q 3103 4656 3366 4563 
z
" transform="scale(0.015625)"/>
       </defs>
       <use xlink:href="#DejaVuSans-36"/>
      </g>
     </g>
    </g>
    <g id="text_16">
     <!--  [V] -->
     <g transform="translate(21.21375 180.993125) rotate(-90) scale(0.12 -0.12)">
      <defs>
       <path id="DejaVuSans-56" d="M 1831 0 
L 50 4666 
L 709 4666 
L 2188 738 
L 3669 4666 
L 4325 4666 
L 2547 0 
L 1831 0 
z
" transform="scale(0.015625)"/>
      </defs>
      <use xlink:href="#DejaVuSans-20"/>
      <use xlink:href="#DejaVuSans-5b" x="31.787109"/>
      <use xlink:href="#DejaVuSans-56" x="70.800781"/>
      <use xlink:href="#DejaVuSans-5d" x="139.208984"/>
     </g>
    </g>
   </g>
   <g id="line2d_29">
    <path d="M 72.436364 232.659995 
L 73.093556 232.586283 
L 73.494284 232.369493 
L 74.095375 231.728226 
L 75.49792 229.680721 
L 77.902284 225.757563 
L 85.516102 213.264873 
L 89.924102 206.485589 
L 93.731011 201.030565 
L 97.137193 196.53026 
L 100.343011 192.66989 
L 103.148102 189.621017 
L 105.953193 186.902929 
L 108.55792 184.69265 
L 110.962284 182.932897 
L 113.366647 181.452222 
L 115.570647 180.347132 
L 117.774647 179.488895 
L 119.978647 178.882131 
L 121.982284 178.55194 
L 123.98592 178.43484 
L 125.989556 178.532182 
L 127.993193 178.844392 
L 129.996829 179.370869 
L 132.200829 180.195424 
L 134.404829 181.27342 
L 136.608829 182.599602 
L 139.013193 184.321568 
L 141.417556 186.320653 
L 144.022284 188.785171 
L 146.827375 191.767597 
L 149.832829 195.314338 
L 153.038647 199.46238 
L 156.444829 204.235453 
L 160.251738 209.949282 
L 164.860102 217.287301 
L 170.871011 227.309174 
L 184.095011 249.484841 
L 188.703375 256.716777 
L 192.710647 262.600266 
L 196.317193 267.493166 
L 199.523011 271.470705 
L 202.528465 274.845417 
L 205.333556 277.659579 
L 207.938284 279.963796 
L 210.342647 281.813616 
L 212.747011 283.387044 
L 214.951011 284.579203 
L 217.155011 285.526327 
L 219.359011 286.223781 
L 221.362647 286.638022 
L 223.366284 286.840682 
L 225.36992 286.830271 
L 227.373556 286.606038 
L 229.377193 286.168079 
L 231.380829 285.517435 
L 233.584829 284.558569 
L 235.788829 283.349079 
L 237.992829 281.894664 
L 240.397193 280.03708 
L 242.801556 277.907464 
L 245.406284 275.308081 
L 248.211375 272.189029 
L 251.216829 268.507037 
L 254.422647 264.228845 
L 258.029193 259.037124 
L 262.236829 252.560363 
L 267.24592 244.412001 
L 275.260465 230.869744 
L 283.275011 217.455257 
L 288.083738 209.820259 
L 292.091011 203.85007 
L 295.697556 198.864573 
L 298.903375 194.794153 
L 301.908829 191.324117 
L 304.71392 188.414396 
L 307.318647 186.016229 
L 309.923375 183.926085 
L 312.327738 182.281536 
L 314.531738 181.022137 
L 316.735738 180.006226 
L 318.939738 179.238942 
L 320.943375 178.760815 
L 322.947011 178.494359 
L 324.950647 178.44149 
L 326.954284 178.603293 
L 328.95792 178.979895 
L 330.961556 179.570372 
L 333.165556 180.464485 
L 335.369556 181.61075 
L 337.573556 183.003522 
L 339.97792 184.795801 
L 342.382284 186.862361 
L 344.987011 189.396332 
L 347.792102 192.448812 
L 350.797556 196.064586 
L 354.003375 200.278752 
L 357.60992 205.407553 
L 361.617193 211.50972 
L 366.42592 219.259942 
L 373.238284 230.707827 
L 383.456829 247.860361 
L 388.265556 255.491221 
L 392.272829 261.458609 
L 395.879375 266.442231 
L 399.085193 270.511496 
L 402.090647 273.980782 
L 404.895738 276.889922 
L 407.500465 279.28746 
L 410.105193 281.376709 
L 412.509556 283.020094 
L 414.713556 284.278155 
L 416.917556 285.292605 
L 419.121556 286.058558 
L 421.325556 286.572043 
L 423.329193 286.81716 
L 425.332829 286.849448 
L 427.336465 286.668001 
L 429.340102 286.272736 
L 431.343738 285.664497 
L 433.547738 284.751696 
L 435.751738 283.587392 
L 437.955738 282.17702 
L 440.360102 280.365888 
L 442.764465 278.280777 
L 445.369193 275.727103 
L 448.174284 272.654023 
L 451.179738 269.017164 
L 454.385556 264.781991 
L 457.992102 259.631849 
L 461.999375 253.509366 
L 466.808102 245.740202 
L 473.163636 235.05345 
L 473.163636 235.05345 
" clip-path="url(#p21f9c8400b)" style="fill: none; stroke: #ff0000; stroke-width: 2; stroke-linecap: square"/>
   </g>
   <g id="line2d_30">
    <path d="M 72.436364 232.659995 
L 72.893193 232.586813 
L 73.694647 232.226648 
L 75.297556 231.511194 
L 87.319375 226.565464 
L 93.330284 224.375785 
L 98.539738 222.712502 
L 103.348465 221.410768 
L 107.756465 220.440447 
L 111.964102 219.730673 
L 116.171738 219.244885 
L 120.179011 218.998465 
L 124.186284 218.96741 
L 128.193556 219.152648 
L 132.401193 219.576977 
L 136.608829 220.229485 
L 141.016829 221.145281 
L 145.625193 222.337805 
L 150.43392 223.811604 
L 155.843738 225.708154 
L 162.055011 228.128387 
L 170.670647 231.748308 
L 185.096829 237.821355 
L 191.508465 240.254078 
L 196.918284 242.071992 
L 201.727011 243.46229 
L 206.335375 244.564803 
L 210.743375 245.387311 
L 214.951011 245.946045 
L 219.158647 246.27373 
L 223.16592 246.365708 
L 227.173193 246.241403 
L 231.180465 245.90281 
L 235.388102 245.322649 
L 239.595738 244.522459 
L 244.003738 243.463465 
L 248.812465 242.074244 
L 254.02192 240.329623 
L 259.832465 238.145554 
L 267.24592 235.106349 
L 288.083738 226.411872 
L 293.894284 224.307439 
L 299.103738 222.653546 
L 303.912465 221.361868 
L 308.320465 220.401738 
L 312.528102 219.702378 
L 316.735738 219.227503 
L 320.743011 218.991775 
L 324.750284 218.971543 
L 328.757556 219.167555 
L 332.965193 219.60295 
L 337.172829 220.266069 
L 341.580829 221.19229 
L 346.189193 222.394743 
L 350.99792 223.877627 
L 356.407738 225.782589 
L 362.819375 228.291441 
L 371.635375 232.006426 
L 385.260102 237.741438 
L 391.671738 240.182212 
L 397.081556 242.009186 
L 401.890284 243.409058 
L 406.498647 244.521883 
L 410.906647 245.355091 
L 415.114284 245.924616 
L 419.32192 246.263466 
L 423.329193 246.366247 
L 427.336465 246.252739 
L 431.343738 245.924759 
L 435.551375 245.355361 
L 439.759011 244.565361 
L 444.167011 243.516234 
L 448.975738 242.136624 
L 454.185193 240.400809 
L 459.995738 238.224316 
L 467.409193 235.19097 
L 473.163636 232.734316 
L 473.163636 232.734316 
" clip-path="url(#p21f9c8400b)" style="fill: none; stroke: #0000ff; stroke-width: 2; stroke-linecap: square"/>
   </g>
   <g id="line2d_31">
    <path d="M 72.436364 112.561396 
L 73.093556 112.487677 
L 73.494284 112.270864 
L 74.095375 111.629532 
L 75.49792 109.581808 
L 77.902284 105.658199 
L 85.516102 93.163758 
L 89.924102 86.383294 
L 93.731011 80.927175 
L 97.137193 76.425843 
L 100.343011 72.564477 
L 103.148102 69.514718 
L 105.953193 66.795736 
L 108.55792 64.584627 
L 110.962284 62.824111 
L 113.366647 61.342682 
L 115.570647 60.236912 
L 117.774647 59.378009 
L 119.978647 58.770596 
L 121.982284 58.439831 
L 123.98592 58.322179 
L 125.989556 58.418988 
L 127.993193 58.73069 
L 129.996829 59.256683 
L 132.200829 60.080739 
L 134.404829 61.158272 
L 136.608829 62.484028 
L 139.013193 64.205575 
L 141.417556 66.204292 
L 144.022284 68.66847 
L 146.827375 71.6506 
L 149.832829 75.197109 
L 153.038647 79.345001 
L 156.444829 84.118027 
L 160.251738 89.831941 
L 164.860102 97.170255 
L 170.871011 107.192818 
L 184.095011 129.371087 
L 188.703375 136.604217 
L 192.710647 142.488836 
L 196.317193 147.382809 
L 199.523011 151.361335 
L 202.528465 154.736993 
L 205.333556 157.552047 
L 207.938284 159.857094 
L 210.342647 161.707678 
L 212.747011 163.281863 
L 214.951011 164.474706 
L 217.155011 165.422501 
L 219.359011 166.120611 
L 221.362647 166.53543 
L 223.366284 166.738652 
L 225.36992 166.728782 
L 227.373556 166.505068 
L 229.377193 166.067602 
L 231.380829 165.417425 
L 233.584829 164.459039 
L 235.788829 163.249992 
L 237.992829 161.795982 
L 240.397193 159.938792 
L 242.801556 157.80952 
L 245.406284 155.210448 
L 248.211375 152.09166 
L 251.216829 148.409865 
L 254.422647 144.131785 
L 258.029193 138.940067 
L 262.236829 132.463145 
L 267.24592 124.314364 
L 275.260465 110.770954 
L 283.275011 97.354784 
L 288.083738 89.718564 
L 292.091011 83.747262 
L 295.697556 78.760702 
L 298.903375 74.689301 
L 301.908829 71.218324 
L 304.71392 68.307712 
L 307.318647 65.908714 
L 309.923375 63.817741 
L 312.327738 62.172433 
L 314.531738 60.912347 
L 316.735738 59.89576 
L 318.939738 59.127816 
L 320.943375 58.649103 
L 322.947011 58.382081 
L 324.950647 58.328665 
L 326.954284 58.489942 
L 328.95792 58.866043 
L 330.961556 59.456045 
L 333.165556 60.349668 
L 335.369556 61.49548 
L 337.573556 62.887837 
L 339.97792 64.679709 
L 342.382284 66.745914 
L 344.987011 69.279559 
L 347.792102 72.33176 
L 350.797556 75.947319 
L 354.003375 80.161354 
L 357.60992 85.290131 
L 361.617193 91.392423 
L 366.42592 99.143005 
L 373.238284 110.591772 
L 383.456829 127.746363 
L 388.265556 135.378443 
L 392.272829 141.346945 
L 395.879375 146.331629 
L 399.085193 150.401874 
L 402.090647 153.872102 
L 404.895738 156.782132 
L 407.500465 159.1805 
L 410.105193 161.270578 
L 412.509556 162.914722 
L 414.713556 164.173471 
L 416.917556 165.188595 
L 419.121556 165.955208 
L 421.325556 166.469335 
L 423.329193 166.715017 
L 425.332829 166.747851 
L 427.336465 166.566927 
L 429.340102 166.17216 
L 431.343738 165.564393 
L 433.547738 164.652079 
L 435.751738 163.488226 
L 437.955738 162.078266 
L 440.360102 160.267536 
L 442.764465 158.182777 
L 445.369193 155.629424 
L 448.174284 152.556619 
L 451.179738 148.919969 
L 454.385556 144.684921 
L 457.992102 139.534796 
L 461.999375 133.41218 
L 466.808102 125.642647 
L 473.163636 114.955072 
L 473.163636 114.955072 
" clip-path="url(#p21f9c8400b)" style="fill: none; stroke: #008000; stroke-width: 2; stroke-linecap: square"/>
   </g>
   <g id="line2d_32">
    <path d="M 72.436364 232.659995 
L 73.046089 232.554138 
L 73.446817 232.164066 
L 73.847544 231.411268 
L 74.648998 229.260619 
L 76.452271 223.685467 
L 87.071544 189.247268 
L 90.277362 179.826902 
L 92.481362 173.941871 
L 94.084271 170.215765 
L 95.286453 167.908346 
L 96.288271 166.380083 
L 97.290089 165.203331 
L 98.291908 164.321082 
L 99.494089 163.56325 
L 100.696271 163.072215 
L 103.701726 162.366197 
L 106.506817 161.99052 
L 110.714453 161.681127 
L 117.326453 161.433833 
L 125.541362 161.348305 
L 133.956635 161.482647 
L 142.772635 161.847161 
L 151.788999 162.433469 
L 156.196999 162.914255 
L 156.998453 163.144564 
L 157.198817 163.341131 
L 157.39918 163.732274 
L 157.599544 164.476769 
L 158.000271 167.714492 
L 158.601362 176.789726 
L 159.002089 182.541683 
L 159.402817 185.663794 
L 159.803544 186.784117 
L 160.604999 187.85842 
L 161.005726 188.875403 
L 161.80718 191.815142 
L 162.808999 195.313541 
L 165.614089 204.377589 
L 171.825362 225.21603 
L 182.444635 260.896968 
L 187.052999 275.545108 
L 190.659544 286.306722 
L 193.464635 294.049056 
L 194.86718 297.443876 
L 195.468271 298.21809 
L 196.069362 298.570475 
L 197.07118 298.882402 
L 198.674089 299.133552 
L 201.278817 299.305211 
L 206.287908 299.367107 
L 246.961726 299.328437 
L 249.366089 299.157007 
L 250.968999 298.819465 
L 251.970817 298.424232 
L 252.772271 297.90453 
L 253.373362 297.298157 
L 253.974453 296.415909 
L 254.775908 294.796879 
L 255.978089 291.769718 
L 257.781362 286.562983 
L 261.387908 275.371075 
L 266.396999 259.074093 
L 273.61009 234.730357 
L 282.225727 205.790169 
L 286.633727 191.729831 
L 290.039908 181.552192 
L 292.444272 174.9789 
L 294.247545 170.662863 
L 295.449727 168.272723 
L 296.651908 166.391441 
L 297.653727 165.212266 
L 298.655545 164.328071 
L 299.857727 163.568428 
L 301.059908 163.075589 
L 303.864999 162.405279 
L 306.469727 162.034554 
L 310.476999 161.716804 
L 316.888636 161.456055 
L 325.103545 161.34888 
L 333.518817 161.462309 
L 342.334817 161.807196 
L 351.751908 162.40205 
L 356.360272 162.888534 
L 357.161727 163.047173 
L 357.562454 163.352673 
L 357.762817 163.753826 
L 357.963181 164.515176 
L 358.363908 167.802204 
L 358.964999 176.913416 
L 359.365727 182.625227 
L 359.766454 185.697069 
L 360.167181 186.794168 
L 360.968636 187.871789 
L 361.369363 188.896855 
L 362.170817 191.842221 
L 363.172636 195.335043 
L 365.977727 204.399573 
L 371.988636 224.558047 
L 383.008636 261.571726 
L 387.616999 276.183238 
L 391.223545 286.902224 
L 394.028636 294.59819 
L 395.230817 297.458892 
L 395.831908 298.225848 
L 396.432999 298.575229 
L 397.434817 298.885634 
L 399.037727 299.135872 
L 401.842817 299.313691 
L 407.252636 299.369459 
L 447.926454 299.308386 
L 450.130454 299.099233 
L 451.532999 298.759568 
L 452.534817 298.322492 
L 453.336272 297.736918 
L 453.937363 297.049438 
L 454.538454 296.069984 
L 455.339908 294.349683 
L 456.742454 290.684849 
L 458.946454 284.154771 
L 463.15409 270.904464 
L 468.363545 253.747499 
L 473.163636 237.508394 
L 473.163636 237.508394 
" clip-path="url(#p21f9c8400b)" style="fill: none; stroke: #00bfbf; stroke-width: 2; stroke-linecap: square"/>
   </g>
   <g id="line2d_33">
    <path d="M 72.436364 232.659995 
L 72.850081 232.542955 
L 73.446817 232.050117 
L 74.849362 230.735369 
L 89.275544 219.033208 
L 92.882089 216.511498 
L 95.486817 214.930835 
L 97.690817 213.82697 
L 99.293726 213.237911 
L 100.295544 213.046793 
L 100.896635 213.202969 
L 101.497726 213.346142 
L 102.499544 213.25855 
L 109.712635 212.153779 
L 114.721726 211.673491 
L 119.730817 211.418104 
L 124.739908 211.387382 
L 129.748999 211.581635 
L 134.758089 211.999747 
L 139.76718 212.640479 
L 144.776271 213.508869 
L 148.983908 214.451116 
L 151.187908 215.122315 
L 152.99118 215.908369 
L 154.594089 216.833542 
L 156.798089 218.363863 
L 157.198817 218.748773 
L 157.599544 219.447076 
L 158.000271 220.747721 
L 158.601362 222.756209 
L 158.801726 222.908845 
L 159.002089 222.709774 
L 159.60318 221.615758 
L 159.803544 221.519009 
L 160.204271 221.711333 
L 161.005726 222.662459 
L 161.80718 223.492823 
L 165.213362 226.199938 
L 171.224271 231.310772 
L 183.045726 241.330904 
L 188.455544 245.597283 
L 192.863544 248.795567 
L 194.86718 250.081301 
L 196.470089 250.902153 
L 199.475544 252.600518 
L 203.883544 254.800675 
L 208.291544 256.783273 
L 211.497362 257.981453 
L 214.502817 258.863714 
L 217.307908 259.464701 
L 220.112999 259.84819 
L 222.918089 260.014643 
L 225.72318 259.966383 
L 228.528271 259.707257 
L 231.533726 259.201583 
L 234.53918 258.467872 
L 237.744999 257.444623 
L 240.950817 256.1855 
L 244.356999 254.599545 
L 247.162089 253.072293 
L 249.366089 251.63042 
L 252.972635 248.899981 
L 267.999908 236.910224 
L 285.631908 222.092558 
L 290.240272 218.594267 
L 293.846817 216.123357 
L 296.451545 214.605205 
L 298.655545 213.574762 
L 300.05809 213.133599 
L 300.859545 213.056707 
L 302.061727 213.344595 
L 303.263908 213.186059 
L 308.673727 212.325913 
L 313.682817 211.781603 
L 318.691908 211.46341 
L 323.700999 211.369699 
L 328.71009 211.501017 
L 333.719181 211.856641 
L 338.728272 212.435052 
L 343.737363 213.238216 
L 348.345727 214.199013 
L 351.150817 214.977684 
L 352.95409 215.711332 
L 354.556999 216.579795 
L 356.961363 218.208765 
L 357.562454 218.752213 
L 357.963181 219.459827 
L 358.363908 220.771073 
L 358.964999 222.762426 
L 359.165363 222.900963 
L 359.365727 222.69075 
L 359.966817 221.602946 
L 360.167181 221.512419 
L 360.567908 221.712048 
L 361.369363 222.665665 
L 362.170817 223.49265 
L 365.376636 226.034212 
L 371.387545 231.138431 
L 383.409363 241.330803 
L 388.819181 245.597176 
L 393.227181 248.795448 
L 395.230817 250.079776 
L 396.833727 250.901764 
L 399.839181 252.599907 
L 404.247181 254.800327 
L 408.655181 256.783259 
L 411.860999 257.981479 
L 414.866454 258.863721 
L 417.671545 259.46468 
L 420.476636 259.848139 
L 423.281727 260.014563 
L 426.086817 259.966275 
L 428.891908 259.707122 
L 431.897363 259.201421 
L 434.902817 258.467685 
L 438.108636 257.444411 
L 441.314454 256.18527 
L 444.720636 254.599348 
L 447.525727 253.072411 
L 449.729727 251.631176 
L 453.336272 248.90059 
L 468.363545 236.910112 
L 473.163636 232.808052 
L 473.163636 232.808052 
" clip-path="url(#p21f9c8400b)" style="fill: none; stroke: #bf00bf; stroke-width: 2; stroke-linecap: square"/>
   </g>
   <g id="line2d_34">
    <path d="M 72.436364 112.561396 
L 73.046089 112.455528 
L 73.446817 112.065416 
L 73.847544 111.312541 
L 74.648998 109.161669 
L 76.452271 103.585903 
L 87.071544 69.14286 
L 90.277362 59.720781 
L 92.481362 53.834548 
L 94.084271 50.107583 
L 95.286453 47.799552 
L 96.288271 46.270808 
L 97.290089 45.093604 
L 98.291908 44.210927 
L 99.494089 43.452607 
L 100.696271 42.961107 
L 103.701726 42.253969 
L 106.506817 41.877267 
L 110.714453 41.566356 
L 117.326453 41.31669 
L 125.541362 41.22823 
L 133.956635 41.359593 
L 142.772635 41.721019 
L 151.788999 42.304211 
L 156.196999 42.783505 
L 156.998453 43.013559 
L 157.198817 43.210076 
L 157.39918 43.601188 
L 157.599544 44.34569 
L 158.000271 47.583603 
L 158.601362 56.659562 
L 159.002089 62.411989 
L 159.402817 65.534315 
L 159.803544 66.654657 
L 160.604999 67.728886 
L 161.005726 68.745882 
L 161.80718 71.685746 
L 162.808999 75.1843 
L 165.614089 84.248794 
L 171.825362 105.088763 
L 182.644999 141.426901 
L 187.253362 156.040853 
L 190.859908 166.762108 
L 193.664999 174.460259 
L 194.86718 177.327327 
L 195.468271 178.101814 
L 196.069362 178.454432 
L 197.07118 178.76672 
L 198.674089 179.018427 
L 201.278817 179.190968 
L 206.287908 179.254538 
L 246.961726 179.229405 
L 249.366089 179.058758 
L 250.968999 178.721713 
L 251.970817 178.32677 
L 252.772271 177.807278 
L 253.373362 177.20104 
L 253.974453 176.318896 
L 254.775908 174.699956 
L 255.978089 171.672856 
L 257.781362 166.466109 
L 261.387908 155.273952 
L 266.396999 138.976206 
L 273.61009 114.630551 
L 282.225727 85.686931 
L 286.633727 71.62444 
L 290.039908 61.445 
L 292.444272 54.870398 
L 294.247545 50.553389 
L 295.449727 48.162631 
L 296.651908 46.280769 
L 297.653727 45.101142 
L 298.655545 44.216518 
L 299.857727 43.456387 
L 301.059908 42.963082 
L 303.864999 42.291726 
L 306.469727 41.920049 
L 310.476999 41.60085 
L 316.888636 41.337801 
L 325.103545 41.227692 
L 333.518817 41.33814 
L 342.334817 41.679936 
L 351.751908 42.271532 
L 356.360272 42.756453 
L 357.161727 42.914829 
L 357.562454 43.220221 
L 357.762817 43.621345 
L 357.963181 44.382703 
L 358.363908 47.669926 
L 358.964999 56.781867 
L 359.365727 62.494144 
L 359.766454 65.566196 
L 360.167181 66.663313 
L 360.968636 67.74086 
L 361.369363 68.76594 
L 362.170817 71.711431 
L 363.172636 75.204407 
L 365.977727 84.269384 
L 371.988636 104.429326 
L 383.008636 141.447286 
L 387.616999 156.061093 
L 391.223545 166.782033 
L 394.028636 174.479582 
L 395.230817 177.340952 
L 395.831908 178.108179 
L 396.432999 178.457793 
L 397.434817 178.768559 
L 399.037727 179.019354 
L 401.842817 179.198122 
L 407.252636 179.255696 
L 447.926454 179.208159 
L 450.130454 178.999718 
L 451.532999 178.660483 
L 452.534817 178.223693 
L 453.336272 177.638322 
L 453.937363 176.950967 
L 454.538454 175.971607 
L 455.339908 174.251385 
L 456.742454 170.586603 
L 458.946454 164.056475 
L 463.15409 150.805786 
L 468.363545 133.647878 
L 473.163636 117.40746 
L 473.163636 117.40746 
" clip-path="url(#p21f9c8400b)" style="fill: none; stroke: #bfbf00; stroke-width: 2; stroke-linecap: square"/>
   </g>
   <g id="patch_3">
    <path d="M 52.4 312.28 
L 52.4 28.32 
" style="fill: none; stroke: #000000; stroke-width: 0.8; stroke-linejoin: miter; stroke-linecap: square"/>
   </g>
   <g id="patch_4">
    <path d="M 493.2 312.28 
L 493.2 28.32 
" style="fill: none; stroke: #000000; stroke-width: 0.8; stroke-linejoin: miter; stroke-linecap: square"/>
   </g>
   <g id="patch_5">
    <path d="M 52.4 312.28 
L 493.2 312.28 
" style="fill: none; stroke: #000000; stroke-width: 0.8; stroke-linejoin: miter; stroke-linecap: square"/>
   </g>
   <g id="patch_6">
    <path d="M 52.4 28.32 
L 493.2 28.32 
" style="fill: none; stroke: #000000; stroke-width: 0.8; stroke-linejoin: miter; stroke-linecap: square"/>
   </g>
   <g id="text_17">
    <!-- Sine overdrive $V_{out}$, $C_c$=18pF -->
    <g transform="translate(185.86 22.32) scale(0.12 -0.12)">
     <defs>
      <path id="DejaVuSans-53" d="M 3425 4513 
L 3425 3897 
Q 3066 4069 2747 4153 
Q 2428 4238 2131 4238 
Q 1616 4238 1336 4038 
Q 1056 3838 1056 3469 
Q 1056 3159 1242 3001 
Q 1428 2844 1947 2747 
L 2328 2669 
Q 3034 2534 3370 2195 
Q 3706 1856 3706 1288 
Q 3706 609 3251 259 
Q 2797 -91 1919 -91 
Q 1588 -91 1214 -16 
Q 841 59 441 206 
L 441 856 
Q 825 641 1194 531 
Q 1563 422 1919 422 
Q 2459 422 2753 634 
Q 3047 847 3047 1241 
Q 3047 1584 2836 1778 
Q 2625 1972 2144 2069 
L 1759 2144 
Q 1053 2284 737 2584 
Q 422 2884 422 3419 
Q 422 4038 858 4394 
Q 1294 4750 2059 4750 
Q 2388 4750 2728 4690 
Q 3069 4631 3425 4513 
z
" transform="scale(0.015625)"/>
      <path id="DejaVuSans-6e" d="M 3513 2113 
L 3513 0 
L 2938 0 
L 2938 2094 
Q 2938 2591 2744 2837 
Q 2550 3084 2163 3084 
Q 1697 3084 1428 2787 
Q 1159 2491 1159 1978 
L 1159 0 
L 581 0 
L 581 3500 
L 1159 3500 
L 1159 2956 
Q 1366 3272 1645 3428 
Q 1925 3584 2291 3584 
Q 2894 3584 3203 3211 
Q 3513 2838 3513 2113 
z
" transform="scale(0.015625)"/>
      <path id="DejaVuSans-6f" d="M 1959 3097 
Q 1497 3097 1228 2736 
Q 959 2375 959 1747 
Q 959 1119 1226 758 
Q 1494 397 1959 397 
Q 2419 397 2687 759 
Q 2956 1122 2956 1747 
Q 2956 2369 2687 2733 
Q 2419 3097 1959 3097 
z
M 1959 3584 
Q 2709 3584 3137 3096 
Q 3566 2609 3566 1747 
Q 3566 888 3137 398 
Q 2709 -91 1959 -91 
Q 1206 -91 779 398 
Q 353 888 353 1747 
Q 353 2609 779 3096 
Q 1206 3584 1959 3584 
z
" transform="scale(0.015625)"/>
      <path id="DejaVuSans-76" d="M 191 3500 
L 800 3500 
L 1894 563 
L 2988 3500 
L 3597 3500 
L 2284 0 
L 1503 0 
L 191 3500 
z
" transform="scale(0.015625)"/>
      <path id="DejaVuSans-72" d="M 2631 2963 
Q 2534 3019 2420 3045 
Q 2306 3072 2169 3072 
Q 1681 3072 1420 2755 
Q 1159 2438 1159 1844 
L 1159 0 
L 581 0 
L 581 3500 
L 1159 3500 
L 1159 2956 
Q 1341 3275 1631 3429 
Q 1922 3584 2338 3584 
Q 2397 3584 2469 3576 
Q 2541 3569 2628 3553 
L 2631 2963 
z
" transform="scale(0.015625)"/>
      <path id="DejaVuSans-64" d="M 2906 2969 
L 2906 4863 
L 3481 4863 
L 3481 0 
L 2906 0 
L 2906 525 
Q 2725 213 2448 61 
Q 2172 -91 1784 -91 
Q 1150 -91 751 415 
Q 353 922 353 1747 
Q 353 2572 751 3078 
Q 1150 3584 1784 3584 
Q 2172 3584 2448 3432 
Q 2725 3281 2906 2969 
z
M 947 1747 
Q 947 1113 1208 752 
Q 1469 391 1925 391 
Q 2381 391 2643 752 
Q 2906 1113 2906 1747 
Q 2906 2381 2643 2742 
Q 2381 3103 1925 3103 
Q 1469 3103 1208 2742 
Q 947 2381 947 1747 
z
" transform="scale(0.015625)"/>
      <path id="DejaVuSans-Oblique-56" d="M 1319 0 
L 500 4666 
L 1119 4666 
L 1797 653 
L 4063 4666 
L 4750 4666 
L 2053 0 
L 1319 0 
z
" transform="scale(0.015625)"/>
      <path id="DejaVuSans-Oblique-6f" d="M 1625 -91 
Q 1009 -91 651 289 
Q 294 669 294 1325 
Q 294 1706 417 2101 
Q 541 2497 738 2766 
Q 1047 3184 1428 3384 
Q 1809 3584 2291 3584 
Q 2888 3584 3255 3212 
Q 3622 2841 3622 2241 
Q 3622 1825 3500 1412 
Q 3378 1000 3181 728 
Q 2875 309 2494 109 
Q 2113 -91 1625 -91 
z
M 891 1344 
Q 891 869 1089 633 
Q 1288 397 1691 397 
Q 2269 397 2648 901 
Q 3028 1406 3028 2181 
Q 3028 2634 2825 2865 
Q 2622 3097 2228 3097 
Q 1903 3097 1650 2945 
Q 1397 2794 1197 2484 
Q 1050 2253 970 1956 
Q 891 1659 891 1344 
z
" transform="scale(0.015625)"/>
      <path id="DejaVuSans-Oblique-75" d="M 428 1388 
L 838 3500 
L 1416 3500 
L 1006 1409 
Q 975 1256 961 1147 
Q 947 1038 947 966 
Q 947 700 1109 554 
Q 1272 409 1569 409 
Q 2031 409 2368 721 
Q 2706 1034 2809 1563 
L 3194 3500 
L 3769 3500 
L 3091 0 
L 2516 0 
L 2631 550 
Q 2388 244 2052 76 
Q 1716 -91 1338 -91 
Q 878 -91 622 161 
Q 366 413 366 863 
Q 366 956 381 1097 
Q 397 1238 428 1388 
z
" transform="scale(0.015625)"/>
      <path id="DejaVuSans-Oblique-74" d="M 2706 3500 
L 2619 3053 
L 1472 3053 
L 1100 1153 
Q 1081 1047 1072 975 
Q 1063 903 1063 863 
Q 1063 663 1183 572 
Q 1303 481 1569 481 
L 2150 481 
L 2053 0 
L 1503 0 
Q 991 0 739 200 
Q 488 400 488 806 
Q 488 878 497 964 
Q 506 1050 525 1153 
L 897 3053 
L 409 3053 
L 500 3500 
L 978 3500 
L 1172 4494 
L 1747 4494 
L 1556 3500 
L 2706 3500 
z
" transform="scale(0.015625)"/>
      <path id="DejaVuSans-2c" d="M 750 794 
L 1409 794 
L 1409 256 
L 897 -744 
L 494 -744 
L 750 256 
L 750 794 
z
" transform="scale(0.015625)"/>
      <path id="DejaVuSans-Oblique-43" d="M 4447 4306 
L 4319 3641 
Q 4019 3944 3683 4091 
Q 3347 4238 2956 4238 
Q 2422 4238 2017 3981 
Q 1613 3725 1319 3200 
Q 1131 2863 1032 2486 
Q 934 2109 934 1728 
Q 934 1091 1264 756 
Q 1594 422 2222 422 
Q 2656 422 3056 561 
Q 3456 700 3834 978 
L 3688 231 
Q 3316 72 2936 -9 
Q 2556 -91 2175 -91 
Q 1278 -91 773 396 
Q 269 884 269 1753 
Q 269 2309 461 2846 
Q 653 3384 1013 3828 
Q 1394 4300 1883 4525 
Q 2372 4750 3022 4750 
Q 3422 4750 3780 4639 
Q 4138 4528 4447 4306 
z
" transform="scale(0.015625)"/>
      <path id="DejaVuSans-Oblique-63" d="M 3431 3366 
L 3316 2797 
Q 3109 2947 2876 3022 
Q 2644 3097 2394 3097 
Q 2119 3097 1870 3000 
Q 1622 2903 1453 2725 
Q 1184 2453 1037 2087 
Q 891 1722 891 1331 
Q 891 859 1127 628 
Q 1363 397 1844 397 
Q 2081 397 2348 469 
Q 2616 541 2906 684 
L 2797 116 
Q 2547 13 2283 -39 
Q 2019 -91 1741 -91 
Q 1044 -91 669 257 
Q 294 606 294 1253 
Q 294 1797 489 2255 
Q 684 2713 1069 3078 
Q 1331 3328 1684 3456 
Q 2038 3584 2456 3584 
Q 2700 3584 2940 3529 
Q 3181 3475 3431 3366 
z
" transform="scale(0.015625)"/>
      <path id="DejaVuSans-3d" d="M 678 2906 
L 4684 2906 
L 4684 2381 
L 678 2381 
L 678 2906 
z
M 678 1631 
L 4684 1631 
L 4684 1100 
L 678 1100 
L 678 1631 
z
" transform="scale(0.015625)"/>
      <path id="DejaVuSans-38" d="M 2034 2216 
Q 1584 2216 1326 1975 
Q 1069 1734 1069 1313 
Q 1069 891 1326 650 
Q 1584 409 2034 409 
Q 2484 409 2743 651 
Q 3003 894 3003 1313 
Q 3003 1734 2745 1975 
Q 2488 2216 2034 2216 
z
M 1403 2484 
Q 997 2584 770 2862 
Q 544 3141 544 3541 
Q 544 4100 942 4425 
Q 1341 4750 2034 4750 
Q 2731 4750 3128 4425 
Q 3525 4100 3525 3541 
Q 3525 3141 3298 2862 
Q 3072 2584 2669 2484 
Q 3125 2378 3379 2068 
Q 3634 1759 3634 1313 
Q 3634 634 3220 271 
Q 2806 -91 2034 -91 
Q 1263 -91 848 271 
Q 434 634 434 1313 
Q 434 1759 690 2068 
Q 947 2378 1403 2484 
z
M 1172 3481 
Q 1172 3119 1398 2916 
Q 1625 2713 2034 2713 
Q 2441 2713 2670 2916 
Q 2900 3119 2900 3481 
Q 2900 3844 2670 4047 
Q 2441 4250 2034 4250 
Q 1625 4250 1398 4047 
Q 1172 3844 1172 3481 
z
" transform="scale(0.015625)"/>
      <path id="DejaVuSans-70" d="M 1159 525 
L 1159 -1331 
L 581 -1331 
L 581 3500 
L 1159 3500 
L 1159 2969 
Q 1341 3281 1617 3432 
Q 1894 3584 2278 3584 
Q 2916 3584 3314 3078 
Q 3713 2572 3713 1747 
Q 3713 922 3314 415 
Q 2916 -91 2278 -91 
Q 1894 -91 1617 61 
Q 1341 213 1159 525 
z
M 3116 1747 
Q 3116 2381 2855 2742 
Q 2594 3103 2138 3103 
Q 1681 3103 1420 2742 
Q 1159 2381 1159 1747 
Q 1159 1113 1420 752 
Q 1681 391 2138 391 
Q 2594 391 2855 752 
Q 3116 1113 3116 1747 
z
" transform="scale(0.015625)"/>
      <path id="DejaVuSans-46" d="M 628 4666 
L 3309 4666 
L 3309 4134 
L 1259 4134 
L 1259 2759 
L 3109 2759 
L 3109 2228 
L 1259 2228 
L 1259 0 
L 628 0 
L 628 4666 
z
" transform="scale(0.015625)"/>
     </defs>
     <use xlink:href="#DejaVuSans-53" transform="translate(0 0.015625)"/>
     <use xlink:href="#DejaVuSans-69" transform="translate(63.476562 0.015625)"/>
     <use xlink:href="#DejaVuSans-6e" transform="translate(91.259766 0.015625)"/>
     <use xlink:href="#DejaVuSans-65" transform="translate(154.638672 0.015625)"/>
     <use xlink:href="#DejaVuSans-20" transform="translate(216.162109 0.015625)"/>
     <use xlink:href="#DejaVuSans-6f" transform="translate(247.949219 0.015625)"/>
     <use xlink:href="#DejaVuSans-76" transform="translate(309.130859 0.015625)"/>
     <use xlink:href="#DejaVuSans-65" transform="translate(368.310547 0.015625)"/>
     <use xlink:href="#DejaVuSans-72" transform="translate(429.833984 0.015625)"/>
     <use xlink:href="#DejaVuSans-64" transform="translate(470.947266 0.015625)"/>
     <use xlink:href="#DejaVuSans-72" transform="translate(534.423828 0.015625)"/>
     <use xlink:href="#DejaVuSans-69" transform="translate(575.537109 0.015625)"/>
     <use xlink:href="#DejaVuSans-76" transform="translate(603.320312 0.015625)"/>
     <use xlink:href="#DejaVuSans-65" transform="translate(662.5 0.015625)"/>
     <use xlink:href="#DejaVuSans-20" transform="translate(724.023438 0.015625)"/>
     <use xlink:href="#DejaVuSans-Oblique-56" transform="translate(755.810547 0.015625)"/>
     <use xlink:href="#DejaVuSans-Oblique-6f" transform="translate(824.21875 -16.390625) scale(0.7)"/>
     <use xlink:href="#DejaVuSans-Oblique-75" transform="translate(867.045898 -16.390625) scale(0.7)"/>
     <use xlink:href="#DejaVuSans-Oblique-74" transform="translate(911.411133 -16.390625) scale(0.7)"/>
     <use xlink:href="#DejaVuSans-2c" transform="translate(941.591797 0.015625)"/>
     <use xlink:href="#DejaVuSans-20" transform="translate(973.378906 0.015625)"/>
     <use xlink:href="#DejaVuSans-Oblique-43" transform="translate(1005.166016 0.015625)"/>
     <use xlink:href="#DejaVuSans-Oblique-63" transform="translate(1074.990234 -16.390625) scale(0.7)"/>
     <use xlink:href="#DejaVuSans-3d" transform="translate(1116.210938 0.015625)"/>
     <use xlink:href="#DejaVuSans-31" transform="translate(1200 0.015625)"/>
     <use xlink:href="#DejaVuSans-38" transform="translate(1263.623047 0.015625)"/>
     <use xlink:href="#DejaVuSans-70" transform="translate(1327.246094 0.015625)"/>
     <use xlink:href="#DejaVuSans-46" transform="translate(1390.722656 0.015625)"/>
    </g>
   </g>
   <g id="legend_1">
    <g id="patch_7">
     <path d="M 344.98625 109.005 
L 486.2 109.005 
Q 488.2 109.005 488.2 107.005 
L 488.2 35.32 
Q 488.2 33.32 486.2 33.32 
L 344.98625 33.32 
Q 342.98625 33.32 342.98625 35.32 
L 342.98625 107.005 
Q 342.98625 109.005 344.98625 109.005 
z
" style="fill: #ffffff; opacity: 0.8; stroke: #cccccc; stroke-linejoin: miter"/>
    </g>
    <g id="line2d_35">
     <path d="M 344.98625 40.938125 
L 349.98625 40.938125 
L 354.98625 40.938125 
" style="fill: none; stroke: #ff0000; stroke-width: 2; stroke-linecap: square"/>
    </g>
    <g id="text_18">
     <!-- V_out:V_p=5.00e-01 -->
     <g transform="translate(356.98625 44.438125) scale(0.12 -0.12)">
      <defs>
       <path id="DejaVuSans-5f" d="M 3263 -1063 
L 3263 -1509 
L -63 -1509 
L -63 -1063 
L 3263 -1063 
z
" transform="scale(0.015625)"/>
       <path id="DejaVuSans-3a" d="M 750 794 
L 1409 794 
L 1409 0 
L 750 0 
L 750 794 
z
M 750 3309 
L 1409 3309 
L 1409 2516 
L 750 2516 
L 750 3309 
z
" transform="scale(0.015625)"/>
       <path id="DejaVuSans-2d" d="M 313 2009 
L 1997 2009 
L 1997 1497 
L 313 1497 
L 313 2009 
z
" transform="scale(0.015625)"/>
      </defs>
      <use xlink:href="#DejaVuSans-56"/>
      <use xlink:href="#DejaVuSans-5f" x="68.408203"/>
      <use xlink:href="#DejaVuSans-6f" x="118.408203"/>
      <use xlink:href="#DejaVuSans-75" x="179.589844"/>
      <use xlink:href="#DejaVuSans-74" x="242.96875"/>
      <use xlink:href="#DejaVuSans-3a" x="282.177734"/>
      <use xlink:href="#DejaVuSans-56" x="315.869141"/>
      <use xlink:href="#DejaVuSans-5f" x="384.277344"/>
      <use xlink:href="#DejaVuSans-70" x="434.277344"/>
      <use xlink:href="#DejaVuSans-3d" x="497.753906"/>
      <use xlink:href="#DejaVuSans-35" x="581.542969"/>
      <use xlink:href="#DejaVuSans-2e" x="645.166016"/>
      <use xlink:href="#DejaVuSans-30" x="676.953125"/>
      <use xlink:href="#DejaVuSans-30" x="740.576172"/>
      <use xlink:href="#DejaVuSans-65" x="804.199219"/>
      <use xlink:href="#DejaVuSans-2d" x="865.722656"/>
      <use xlink:href="#DejaVuSans-30" x="901.806641"/>
      <use xlink:href="#DejaVuSans-31" x="965.429688"/>
     </g>
    </g>
    <g id="line2d_36">
     <path d="M 344.98625 52.885625 
L 349.98625 52.885625 
L 354.98625 52.885625 
" style="fill: none; stroke: #0000ff; stroke-width: 2; stroke-linecap: square"/>
    </g>
    <g id="text_19">
     <!-- V_in:V_p=5.00e-01 -->
     <g transform="translate(356.98625 56.385625) scale(0.12 -0.12)">
      <use xlink:href="#DejaVuSans-56"/>
      <use xlink:href="#DejaVuSans-5f" x="68.408203"/>
      <use xlink:href="#DejaVuSans-69" x="118.408203"/>
      <use xlink:href="#DejaVuSans-6e" x="146.191406"/>
      <use xlink:href="#DejaVuSans-3a" x="209.570312"/>
      <use xlink:href="#DejaVuSans-56" x="243.261719"/>
      <use xlink:href="#DejaVuSans-5f" x="311.669922"/>
      <use xlink:href="#DejaVuSans-70" x="361.669922"/>
      <use xlink:href="#DejaVuSans-3d" x="425.146484"/>
      <use xlink:href="#DejaVuSans-35" x="508.935547"/>
      <use xlink:href="#DejaVuSans-2e" x="572.558594"/>
      <use xlink:href="#DejaVuSans-30" x="604.345703"/>
      <use xlink:href="#DejaVuSans-30" x="667.96875"/>
      <use xlink:href="#DejaVuSans-65" x="731.591797"/>
      <use xlink:href="#DejaVuSans-2d" x="793.115234"/>
      <use xlink:href="#DejaVuSans-30" x="829.199219"/>
      <use xlink:href="#DejaVuSans-31" x="892.822266"/>
     </g>
    </g>
    <g id="line2d_37">
     <path d="M 344.98625 64.833125 
L 349.98625 64.833125 
L 354.98625 64.833125 
" style="fill: none; stroke: #008000; stroke-width: 2; stroke-linecap: square"/>
    </g>
    <g id="text_20">
     <!-- V_c2:V_p=5.00e-01 -->
     <g transform="translate(356.98625 68.333125) scale(0.12 -0.12)">
      <defs>
       <path id="DejaVuSans-63" d="M 3122 3366 
L 3122 2828 
Q 2878 2963 2633 3030 
Q 2388 3097 2138 3097 
Q 1578 3097 1268 2742 
Q 959 2388 959 1747 
Q 959 1106 1268 751 
Q 1578 397 2138 397 
Q 2388 397 2633 464 
Q 2878 531 3122 666 
L 3122 134 
Q 2881 22 2623 -34 
Q 2366 -91 2075 -91 
Q 1284 -91 818 406 
Q 353 903 353 1747 
Q 353 2603 823 3093 
Q 1294 3584 2113 3584 
Q 2378 3584 2631 3529 
Q 2884 3475 3122 3366 
z
" transform="scale(0.015625)"/>
      </defs>
      <use xlink:href="#DejaVuSans-56"/>
      <use xlink:href="#DejaVuSans-5f" x="68.408203"/>
      <use xlink:href="#DejaVuSans-63" x="118.408203"/>
      <use xlink:href="#DejaVuSans-32" x="173.388672"/>
      <use xlink:href="#DejaVuSans-3a" x="237.011719"/>
      <use xlink:href="#DejaVuSans-56" x="270.703125"/>
      <use xlink:href="#DejaVuSans-5f" x="339.111328"/>
      <use xlink:href="#DejaVuSans-70" x="389.111328"/>
      <use xlink:href="#DejaVuSans-3d" x="452.587891"/>
      <use xlink:href="#DejaVuSans-35" x="536.376953"/>
      <use xlink:href="#DejaVuSans-2e" x="600"/>
      <use xlink:href="#DejaVuSans-30" x="631.787109"/>
      <use xlink:href="#DejaVuSans-30" x="695.410156"/>
      <use xlink:href="#DejaVuSans-65" x="759.033203"/>
      <use xlink:href="#DejaVuSans-2d" x="820.556641"/>
      <use xlink:href="#DejaVuSans-30" x="856.640625"/>
      <use xlink:href="#DejaVuSans-31" x="920.263672"/>
     </g>
    </g>
    <g id="line2d_38">
     <path d="M 344.98625 76.780625 
L 349.98625 76.780625 
L 354.98625 76.780625 
" style="fill: none; stroke: #00bfbf; stroke-width: 2; stroke-linecap: square"/>
    </g>
    <g id="text_21">
     <!-- V_out:V_p=1.00e+00 -->
     <g transform="translate(356.98625 80.280625) scale(0.12 -0.12)">
      <defs>
       <path id="DejaVuSans-2b" d="M 2944 4013 
L 2944 2272 
L 4684 2272 
L 4684 1741 
L 2944 1741 
L 2944 0 
L 2419 0 
L 2419 1741 
L 678 1741 
L 678 2272 
L 2419 2272 
L 2419 4013 
L 2944 4013 
z
" transform="scale(0.015625)"/>
      </defs>
      <use xlink:href="#DejaVuSans-56"/>
      <use xlink:href="#DejaVuSans-5f" x="68.408203"/>
      <use xlink:href="#DejaVuSans-6f" x="118.408203"/>
      <use xlink:href="#DejaVuSans-75" x="179.589844"/>
      <use xlink:href="#DejaVuSans-74" x="242.96875"/>
      <use xlink:href="#DejaVuSans-3a" x="282.177734"/>
      <use xlink:href="#DejaVuSans-56" x="315.869141"/>
      <use xlink:href="#DejaVuSans-5f" x="384.277344"/>
      <use xlink:href="#DejaVuSans-70" x="434.277344"/>
      <use xlink:href="#DejaVuSans-3d" x="497.753906"/>
      <use xlink:href="#DejaVuSans-31" x="581.542969"/>
      <use xlink:href="#DejaVuSans-2e" x="645.166016"/>
      <use xlink:href="#DejaVuSans-30" x="676.953125"/>
      <use xlink:href="#DejaVuSans-30" x="740.576172"/>
      <use xlink:href="#DejaVuSans-65" x="804.199219"/>
      <use xlink:href="#DejaVuSans-2b" x="865.722656"/>
      <use xlink:href="#DejaVuSans-30" x="949.511719"/>
      <use xlink:href="#DejaVuSans-30" x="1013.134766"/>
     </g>
    </g>
    <g id="line2d_39">
     <path d="M 344.98625 88.728125 
L 349.98625 88.728125 
L 354.98625 88.728125 
" style="fill: none; stroke: #bf00bf; stroke-width: 2; stroke-linecap: square"/>
    </g>
    <g id="text_22">
     <!-- V_in:V_p=1.00e+00 -->
     <g transform="translate(356.98625 92.228125) scale(0.12 -0.12)">
      <use xlink:href="#DejaVuSans-56"/>
      <use xlink:href="#DejaVuSans-5f" x="68.408203"/>
      <use xlink:href="#DejaVuSans-69" x="118.408203"/>
      <use xlink:href="#DejaVuSans-6e" x="146.191406"/>
      <use xlink:href="#DejaVuSans-3a" x="209.570312"/>
      <use xlink:href="#DejaVuSans-56" x="243.261719"/>
      <use xlink:href="#DejaVuSans-5f" x="311.669922"/>
      <use xlink:href="#DejaVuSans-70" x="361.669922"/>
      <use xlink:href="#DejaVuSans-3d" x="425.146484"/>
      <use xlink:href="#DejaVuSans-31" x="508.935547"/>
      <use xlink:href="#DejaVuSans-2e" x="572.558594"/>
      <use xlink:href="#DejaVuSans-30" x="604.345703"/>
      <use xlink:href="#DejaVuSans-30" x="667.96875"/>
      <use xlink:href="#DejaVuSans-65" x="731.591797"/>
      <use xlink:href="#DejaVuSans-2b" x="793.115234"/>
      <use xlink:href="#DejaVuSans-30" x="876.904297"/>
      <use xlink:href="#DejaVuSans-30" x="940.527344"/>
     </g>
    </g>
    <g id="line2d_40">
     <path d="M 344.98625 100.675625 
L 349.98625 100.675625 
L 354.98625 100.675625 
" style="fill: none; stroke: #bfbf00; stroke-width: 2; stroke-linecap: square"/>
    </g>
    <g id="text_23">
     <!-- V_c2:V_p=1.00e+00 -->
     <g transform="translate(356.98625 104.175625) scale(0.12 -0.12)">
      <use xlink:href="#DejaVuSans-56"/>
      <use xlink:href="#DejaVuSans-5f" x="68.408203"/>
      <use xlink:href="#DejaVuSans-63" x="118.408203"/>
      <use xlink:href="#DejaVuSans-32" x="173.388672"/>
      <use xlink:href="#DejaVuSans-3a" x="237.011719"/>
      <use xlink:href="#DejaVuSans-56" x="270.703125"/>
      <use xlink:href="#DejaVuSans-5f" x="339.111328"/>
      <use xlink:href="#DejaVuSans-70" x="389.111328"/>
      <use xlink:href="#DejaVuSans-3d" x="452.587891"/>
      <use xlink:href="#DejaVuSans-31" x="536.376953"/>
      <use xlink:href="#DejaVuSans-2e" x="600"/>
      <use xlink:href="#DejaVuSans-30" x="631.787109"/>
      <use xlink:href="#DejaVuSans-30" x="695.410156"/>
      <use xlink:href="#DejaVuSans-65" x="759.033203"/>
      <use xlink:href="#DejaVuSans-2b" x="820.556641"/>
      <use xlink:href="#DejaVuSans-30" x="904.345703"/>
      <use xlink:href="#DejaVuSans-30" x="967.96875"/>
     </g>
    </g>
   </g>
  </g>
 </g>
 <defs>
  <clipPath id="p21f9c8400b">
   <rect x="52.4" y="28.32" width="440.8" height="283.96"/>
  </clipPath>
 </defs>
</svg>
