<?xml version="1.0" encoding="utf-8" standalone="no"?>
<!DOCTYPE svg PUBLIC "-//W3C//DTD SVG 1.1//EN"
  "http://www.w3.org/Graphics/SVG/1.1/DTD/svg11.dtd">
<svg xmlns:xlink="http://www.w3.org/1999/xlink" width="504pt" height="360pt" viewBox="0 0 504 360" xmlns="http://www.w3.org/2000/svg" version="1.1">
 <metadata>
  <rdf:RDF xmlns:dc="http://purl.org/dc/elements/1.1/" xmlns:cc="http://creativecommons.org/ns#" xmlns:rdf="http://www.w3.org/1999/02/22-rdf-syntax-ns#">
   <cc:Work>
    <dc:type rdf:resource="http://purl.org/dc/dcmitype/StillImage"/>
    <dc:date>2025-08-01T21:54:53.006456</dc:date>
    <dc:format>image/svg+xml</dc:format>
    <dc:creator>
     <cc:Agent>
      <dc:title>Matplotlib v3.9.2, https://matplotlib.org/</dc:title>
     </cc:Agent>
    </dc:creator>
   </cc:Work>
  </rdf:RDF>
 </metadata>
 <defs>
  <style type="text/css">*{stroke-linejoin: round; stroke-linecap: butt}</style>
 </defs>
 <g id="figure_1">
  <g id="patch_1">
   <path d="M 0 360 
L 504 360 
L 504 0 
L 0 0 
z
" style="fill: #ffffff"/>
  </g>
  <g id="axes_1">
   <g id="patch_2">
    <path d="M 61.3 312.2 
L 493.2 312.2 
L 493.2 26.8 
L 61.3 26.8 
z
" style="fill: #ffffff"/>
   </g>
   <g id="matplotlib.axis_1">
    <g id="xtick_1">
     <g id="line2d_1">
      <path d="M 80.931818 312.2 
L 80.931818 26.8 
" clip-path="url(#pc86832d798)" style="fill: none; stroke: #808080; stroke-width: 0.8; stroke-linecap: square"/>
     </g>
     <g id="line2d_2">
      <defs>
       <path id="ma44c553f3a" d="M 0 0 
L 0 3.5 
" style="stroke: #000000; stroke-width: 0.8"/>
      </defs>
      <g>
       <use xlink:href="#ma44c553f3a" x="80.931818" y="312.2" style="stroke: #000000; stroke-width: 0.8"/>
      </g>
     </g>
     <g id="text_1">
      <!-- 0 -->
      <g transform="translate(77.114318 328.318125) scale(0.12 -0.12)">
       <defs>
        <path id="DejaVuSans-30" d="M 2034 4250 
Q 1547 4250 1301 3770 
Q 1056 3291 1056 2328 
Q 1056 1369 1301 889 
Q 1547 409 2034 409 
Q 2525 409 2770 889 
Q 3016 1369 3016 2328 
Q 3016 3291 2770 3770 
Q 2525 4250 2034 4250 
z
M 2034 4750 
Q 2819 4750 3233 4129 
Q 3647 3509 3647 2328 
Q 3647 1150 3233 529 
Q 2819 -91 2034 -91 
Q 1250 -91 836 529 
Q 422 1150 422 2328 
Q 422 3509 836 4129 
Q 1250 4750 2034 4750 
z
" transform="scale(0.015625)"/>
       </defs>
       <use xlink:href="#DejaVuSans-30"/>
      </g>
     </g>
    </g>
    <g id="xtick_2">
     <g id="line2d_3">
      <path d="M 159.459091 312.2 
L 159.459091 26.8 
" clip-path="url(#pc86832d798)" style="fill: none; stroke: #808080; stroke-width: 0.8; stroke-linecap: square"/>
     </g>
     <g id="line2d_4">
      <g>
       <use xlink:href="#ma44c553f3a" x="159.459091" y="312.2" style="stroke: #000000; stroke-width: 0.8"/>
      </g>
     </g>
     <g id="text_2">
      <!-- 100 -->
      <g transform="translate(148.006591 328.318125) scale(0.12 -0.12)">
       <defs>
        <path id="DejaVuSans-31" d="M 794 531 
L 1825 531 
L 1825 4091 
L 703 3866 
L 703 4441 
L 1819 4666 
L 2450 4666 
L 2450 531 
L 3481 531 
L 3481 0 
L 794 0 
L 794 531 
z
" transform="scale(0.015625)"/>
       </defs>
       <use xlink:href="#DejaVuSans-31"/>
       <use xlink:href="#DejaVuSans-30" x="63.623047"/>
       <use xlink:href="#DejaVuSans-30" x="127.246094"/>
      </g>
     </g>
    </g>
    <g id="xtick_3">
     <g id="line2d_5">
      <path d="M 237.986364 312.2 
L 237.986364 26.8 
" clip-path="url(#pc86832d798)" style="fill: none; stroke: #808080; stroke-width: 0.8; stroke-linecap: square"/>
     </g>
     <g id="line2d_6">
      <g>
       <use xlink:href="#ma44c553f3a" x="237.986364" y="312.2" style="stroke: #000000; stroke-width: 0.8"/>
      </g>
     </g>
     <g id="text_3">
      <!-- 200 -->
      <g transform="translate(226.533864 328.318125) scale(0.12 -0.12)">
       <defs>
        <path id="DejaVuSans-32" d="M 1228 531 
L 3431 531 
L 3431 0 
L 469 0 
L 469 531 
Q 828 903 1448 1529 
Q 2069 2156 2228 2338 
Q 2531 2678 2651 2914 
Q 2772 3150 2772 3378 
Q 2772 3750 2511 3984 
Q 2250 4219 1831 4219 
Q 1534 4219 1204 4116 
Q 875 4013 500 3803 
L 500 4441 
Q 881 4594 1212 4672 
Q 1544 4750 1819 4750 
Q 2544 4750 2975 4387 
Q 3406 4025 3406 3419 
Q 3406 3131 3298 2873 
Q 3191 2616 2906 2266 
Q 2828 2175 2409 1742 
Q 1991 1309 1228 531 
z
" transform="scale(0.015625)"/>
       </defs>
       <use xlink:href="#DejaVuSans-32"/>
       <use xlink:href="#DejaVuSans-30" x="63.623047"/>
       <use xlink:href="#DejaVuSans-30" x="127.246094"/>
      </g>
     </g>
    </g>
    <g id="xtick_4">
     <g id="line2d_7">
      <path d="M 316.513636 312.2 
L 316.513636 26.8 
" clip-path="url(#pc86832d798)" style="fill: none; stroke: #808080; stroke-width: 0.8; stroke-linecap: square"/>
     </g>
     <g id="line2d_8">
      <g>
       <use xlink:href="#ma44c553f3a" x="316.513636" y="312.2" style="stroke: #000000; stroke-width: 0.8"/>
      </g>
     </g>
     <g id="text_4">
      <!-- 300 -->
      <g transform="translate(305.061136 328.318125) scale(0.12 -0.12)">
       <defs>
        <path id="DejaVuSans-33" d="M 2597 2516 
Q 3050 2419 3304 2112 
Q 3559 1806 3559 1356 
Q 3559 666 3084 287 
Q 2609 -91 1734 -91 
Q 1441 -91 1130 -33 
Q 819 25 488 141 
L 488 750 
Q 750 597 1062 519 
Q 1375 441 1716 441 
Q 2309 441 2620 675 
Q 2931 909 2931 1356 
Q 2931 1769 2642 2001 
Q 2353 2234 1838 2234 
L 1294 2234 
L 1294 2753 
L 1863 2753 
Q 2328 2753 2575 2939 
Q 2822 3125 2822 3475 
Q 2822 3834 2567 4026 
Q 2313 4219 1838 4219 
Q 1578 4219 1281 4162 
Q 984 4106 628 3988 
L 628 4550 
Q 988 4650 1302 4700 
Q 1616 4750 1894 4750 
Q 2613 4750 3031 4423 
Q 3450 4097 3450 3541 
Q 3450 3153 3228 2886 
Q 3006 2619 2597 2516 
z
" transform="scale(0.015625)"/>
       </defs>
       <use xlink:href="#DejaVuSans-33"/>
       <use xlink:href="#DejaVuSans-30" x="63.623047"/>
       <use xlink:href="#DejaVuSans-30" x="127.246094"/>
      </g>
     </g>
    </g>
    <g id="xtick_5">
     <g id="line2d_9">
      <path d="M 395.040909 312.2 
L 395.040909 26.8 
" clip-path="url(#pc86832d798)" style="fill: none; stroke: #808080; stroke-width: 0.8; stroke-linecap: square"/>
     </g>
     <g id="line2d_10">
      <g>
       <use xlink:href="#ma44c553f3a" x="395.040909" y="312.2" style="stroke: #000000; stroke-width: 0.8"/>
      </g>
     </g>
     <g id="text_5">
      <!-- 400 -->
      <g transform="translate(383.588409 328.318125) scale(0.12 -0.12)">
       <defs>
        <path id="DejaVuSans-34" d="M 2419 4116 
L 825 1625 
L 2419 1625 
L 2419 4116 
z
M 2253 4666 
L 3047 4666 
L 3047 1625 
L 3713 1625 
L 3713 1100 
L 3047 1100 
L 3047 0 
L 2419 0 
L 2419 1100 
L 313 1100 
L 313 1709 
L 2253 4666 
z
" transform="scale(0.015625)"/>
       </defs>
       <use xlink:href="#DejaVuSans-34"/>
       <use xlink:href="#DejaVuSans-30" x="63.623047"/>
       <use xlink:href="#DejaVuSans-30" x="127.246094"/>
      </g>
     </g>
    </g>
    <g id="xtick_6">
     <g id="line2d_11">
      <path d="M 473.568182 312.2 
L 473.568182 26.8 
" clip-path="url(#pc86832d798)" style="fill: none; stroke: #808080; stroke-width: 0.8; stroke-linecap: square"/>
     </g>
     <g id="line2d_12">
      <g>
       <use xlink:href="#ma44c553f3a" x="473.568182" y="312.2" style="stroke: #000000; stroke-width: 0.8"/>
      </g>
     </g>
     <g id="text_6">
      <!-- 500 -->
      <g transform="translate(462.115682 328.318125) scale(0.12 -0.12)">
       <defs>
        <path id="DejaVuSans-35" d="M 691 4666 
L 3169 4666 
L 3169 4134 
L 1269 4134 
L 1269 2991 
Q 1406 3038 1543 3061 
Q 1681 3084 1819 3084 
Q 2600 3084 3056 2656 
Q 3513 2228 3513 1497 
Q 3513 744 3044 326 
Q 2575 -91 1722 -91 
Q 1428 -91 1123 -41 
Q 819 9 494 109 
L 494 744 
Q 775 591 1075 516 
Q 1375 441 1709 441 
Q 2250 441 2565 725 
Q 2881 1009 2881 1497 
Q 2881 1984 2565 2268 
Q 2250 2553 1709 2553 
Q 1456 2553 1204 2497 
Q 953 2441 691 2322 
L 691 4666 
z
" transform="scale(0.015625)"/>
       </defs>
       <use xlink:href="#DejaVuSans-35"/>
       <use xlink:href="#DejaVuSans-30" x="63.623047"/>
       <use xlink:href="#DejaVuSans-30" x="127.246094"/>
      </g>
     </g>
    </g>
    <g id="text_7">
     <!-- time [ns] -->
     <g transform="translate(250.177813 343.931875) scale(0.12 -0.12)">
      <defs>
       <path id="DejaVuSans-74" d="M 1172 4494 
L 1172 3500 
L 2356 3500 
L 2356 3053 
L 1172 3053 
L 1172 1153 
Q 1172 725 1289 603 
Q 1406 481 1766 481 
L 2356 481 
L 2356 0 
L 1766 0 
Q 1100 0 847 248 
Q 594 497 594 1153 
L 594 3053 
L 172 3053 
L 172 3500 
L 594 3500 
L 594 4494 
L 1172 4494 
z
" transform="scale(0.015625)"/>
       <path id="DejaVuSans-69" d="M 603 3500 
L 1178 3500 
L 1178 0 
L 603 0 
L 603 3500 
z
M 603 4863 
L 1178 4863 
L 1178 4134 
L 603 4134 
L 603 4863 
z
" transform="scale(0.015625)"/>
       <path id="DejaVuSans-6d" d="M 3328 2828 
Q 3544 3216 3844 3400 
Q 4144 3584 4550 3584 
Q 5097 3584 5394 3201 
Q 5691 2819 5691 2113 
L 5691 0 
L 5113 0 
L 5113 2094 
Q 5113 2597 4934 2840 
Q 4756 3084 4391 3084 
Q 3944 3084 3684 2787 
Q 3425 2491 3425 1978 
L 3425 0 
L 2847 0 
L 2847 2094 
Q 2847 2600 2669 2842 
Q 2491 3084 2119 3084 
Q 1678 3084 1418 2786 
Q 1159 2488 1159 1978 
L 1159 0 
L 581 0 
L 581 3500 
L 1159 3500 
L 1159 2956 
Q 1356 3278 1631 3431 
Q 1906 3584 2284 3584 
Q 2666 3584 2933 3390 
Q 3200 3197 3328 2828 
z
" transform="scale(0.015625)"/>
       <path id="DejaVuSans-65" d="M 3597 1894 
L 3597 1613 
L 953 1613 
Q 991 1019 1311 708 
Q 1631 397 2203 397 
Q 2534 397 2845 478 
Q 3156 559 3463 722 
L 3463 178 
Q 3153 47 2828 -22 
Q 2503 -91 2169 -91 
Q 1331 -91 842 396 
Q 353 884 353 1716 
Q 353 2575 817 3079 
Q 1281 3584 2069 3584 
Q 2775 3584 3186 3129 
Q 3597 2675 3597 1894 
z
M 3022 2063 
Q 3016 2534 2758 2815 
Q 2500 3097 2075 3097 
Q 1594 3097 1305 2825 
Q 1016 2553 972 2059 
L 3022 2063 
z
" transform="scale(0.015625)"/>
       <path id="DejaVuSans-20" transform="scale(0.015625)"/>
       <path id="DejaVuSans-5b" d="M 550 4863 
L 1875 4863 
L 1875 4416 
L 1125 4416 
L 1125 -397 
L 1875 -397 
L 1875 -844 
L 550 -844 
L 550 4863 
z
" transform="scale(0.015625)"/>
       <path id="DejaVuSans-6e" d="M 3513 2113 
L 3513 0 
L 2938 0 
L 2938 2094 
Q 2938 2591 2744 2837 
Q 2550 3084 2163 3084 
Q 1697 3084 1428 2787 
Q 1159 2491 1159 1978 
L 1159 0 
L 581 0 
L 581 3500 
L 1159 3500 
L 1159 2956 
Q 1366 3272 1645 3428 
Q 1925 3584 2291 3584 
Q 2894 3584 3203 3211 
Q 3513 2838 3513 2113 
z
" transform="scale(0.015625)"/>
       <path id="DejaVuSans-73" d="M 2834 3397 
L 2834 2853 
Q 2591 2978 2328 3040 
Q 2066 3103 1784 3103 
Q 1356 3103 1142 2972 
Q 928 2841 928 2578 
Q 928 2378 1081 2264 
Q 1234 2150 1697 2047 
L 1894 2003 
Q 2506 1872 2764 1633 
Q 3022 1394 3022 966 
Q 3022 478 2636 193 
Q 2250 -91 1575 -91 
Q 1294 -91 989 -36 
Q 684 19 347 128 
L 347 722 
Q 666 556 975 473 
Q 1284 391 1588 391 
Q 1994 391 2212 530 
Q 2431 669 2431 922 
Q 2431 1156 2273 1281 
Q 2116 1406 1581 1522 
L 1381 1569 
Q 847 1681 609 1914 
Q 372 2147 372 2553 
Q 372 3047 722 3315 
Q 1072 3584 1716 3584 
Q 2034 3584 2315 3537 
Q 2597 3491 2834 3397 
z
" transform="scale(0.015625)"/>
       <path id="DejaVuSans-5d" d="M 1947 4863 
L 1947 -844 
L 622 -844 
L 622 -397 
L 1369 -397 
L 1369 4416 
L 622 4416 
L 622 4863 
L 1947 4863 
z
" transform="scale(0.015625)"/>
      </defs>
      <use xlink:href="#DejaVuSans-74"/>
      <use xlink:href="#DejaVuSans-69" x="39.208984"/>
      <use xlink:href="#DejaVuSans-6d" x="66.992188"/>
      <use xlink:href="#DejaVuSans-65" x="164.404297"/>
      <use xlink:href="#DejaVuSans-20" x="225.927734"/>
      <use xlink:href="#DejaVuSans-5b" x="257.714844"/>
      <use xlink:href="#DejaVuSans-6e" x="296.728516"/>
      <use xlink:href="#DejaVuSans-73" x="360.107422"/>
      <use xlink:href="#DejaVuSans-5d" x="412.207031"/>
     </g>
    </g>
   </g>
   <g id="matplotlib.axis_2">
    <g id="ytick_1">
     <g id="line2d_13">
      <path d="M 61.3 297.878789 
L 493.2 297.878789 
" clip-path="url(#pc86832d798)" style="fill: none; stroke: #808080; stroke-width: 0.8; stroke-linecap: square"/>
     </g>
     <g id="line2d_14">
      <defs>
       <path id="mc28563dba9" d="M 0 0 
L -3.5 0 
" style="stroke: #000000; stroke-width: 0.8"/>
      </defs>
      <g>
       <use xlink:href="#mc28563dba9" x="61.3" y="297.878789" style="stroke: #000000; stroke-width: 0.8"/>
      </g>
     </g>
     <g id="text_8">
      <!-- 0.00 -->
      <g transform="translate(27.58125 302.437851) scale(0.12 -0.12)">
       <defs>
        <path id="DejaVuSans-2e" d="M 684 794 
L 1344 794 
L 1344 0 
L 684 0 
L 684 794 
z
" transform="scale(0.015625)"/>
       </defs>
       <use xlink:href="#DejaVuSans-30"/>
       <use xlink:href="#DejaVuSans-2e" x="63.623047"/>
       <use xlink:href="#DejaVuSans-30" x="95.410156"/>
       <use xlink:href="#DejaVuSans-30" x="159.033203"/>
      </g>
     </g>
    </g>
    <g id="ytick_2">
     <g id="line2d_15">
      <path d="M 61.3 260.314713 
L 493.2 260.314713 
" clip-path="url(#pc86832d798)" style="fill: none; stroke: #808080; stroke-width: 0.8; stroke-linecap: square"/>
     </g>
     <g id="line2d_16">
      <g>
       <use xlink:href="#mc28563dba9" x="61.3" y="260.314713" style="stroke: #000000; stroke-width: 0.8"/>
      </g>
     </g>
     <g id="text_9">
      <!-- 0.25 -->
      <g transform="translate(27.58125 264.873776) scale(0.12 -0.12)">
       <use xlink:href="#DejaVuSans-30"/>
       <use xlink:href="#DejaVuSans-2e" x="63.623047"/>
       <use xlink:href="#DejaVuSans-32" x="95.410156"/>
       <use xlink:href="#DejaVuSans-35" x="159.033203"/>
      </g>
     </g>
    </g>
    <g id="ytick_3">
     <g id="line2d_17">
      <path d="M 61.3 222.750638 
L 493.2 222.750638 
" clip-path="url(#pc86832d798)" style="fill: none; stroke: #808080; stroke-width: 0.8; stroke-linecap: square"/>
     </g>
     <g id="line2d_18">
      <g>
       <use xlink:href="#mc28563dba9" x="61.3" y="222.750638" style="stroke: #000000; stroke-width: 0.8"/>
      </g>
     </g>
     <g id="text_10">
      <!-- 0.50 -->
      <g transform="translate(27.58125 227.309701) scale(0.12 -0.12)">
       <use xlink:href="#DejaVuSans-30"/>
       <use xlink:href="#DejaVuSans-2e" x="63.623047"/>
       <use xlink:href="#DejaVuSans-35" x="95.410156"/>
       <use xlink:href="#DejaVuSans-30" x="159.033203"/>
      </g>
     </g>
    </g>
    <g id="ytick_4">
     <g id="line2d_19">
      <path d="M 61.3 185.186563 
L 493.2 185.186563 
" clip-path="url(#pc86832d798)" style="fill: none; stroke: #808080; stroke-width: 0.8; stroke-linecap: square"/>
     </g>
     <g id="line2d_20">
      <g>
       <use xlink:href="#mc28563dba9" x="61.3" y="185.186563" style="stroke: #000000; stroke-width: 0.8"/>
      </g>
     </g>
     <g id="text_11">
      <!-- 0.75 -->
      <g transform="translate(27.58125 189.745626) scale(0.12 -0.12)">
       <defs>
        <path id="DejaVuSans-37" d="M 525 4666 
L 3525 4666 
L 3525 4397 
L 1831 0 
L 1172 0 
L 2766 4134 
L 525 4134 
L 525 4666 
z
" transform="scale(0.015625)"/>
       </defs>
       <use xlink:href="#DejaVuSans-30"/>
       <use xlink:href="#DejaVuSans-2e" x="63.623047"/>
       <use xlink:href="#DejaVuSans-37" x="95.410156"/>
       <use xlink:href="#DejaVuSans-35" x="159.033203"/>
      </g>
     </g>
    </g>
    <g id="ytick_5">
     <g id="line2d_21">
      <path d="M 61.3 147.622488 
L 493.2 147.622488 
" clip-path="url(#pc86832d798)" style="fill: none; stroke: #808080; stroke-width: 0.8; stroke-linecap: square"/>
     </g>
     <g id="line2d_22">
      <g>
       <use xlink:href="#mc28563dba9" x="61.3" y="147.622488" style="stroke: #000000; stroke-width: 0.8"/>
      </g>
     </g>
     <g id="text_12">
      <!-- 1.00 -->
      <g transform="translate(27.58125 152.181551) scale(0.12 -0.12)">
       <use xlink:href="#DejaVuSans-31"/>
       <use xlink:href="#DejaVuSans-2e" x="63.623047"/>
       <use xlink:href="#DejaVuSans-30" x="95.410156"/>
       <use xlink:href="#DejaVuSans-30" x="159.033203"/>
      </g>
     </g>
    </g>
    <g id="ytick_6">
     <g id="line2d_23">
      <path d="M 61.3 110.058413 
L 493.2 110.058413 
" clip-path="url(#pc86832d798)" style="fill: none; stroke: #808080; stroke-width: 0.8; stroke-linecap: square"/>
     </g>
     <g id="line2d_24">
      <g>
       <use xlink:href="#mc28563dba9" x="61.3" y="110.058413" style="stroke: #000000; stroke-width: 0.8"/>
      </g>
     </g>
     <g id="text_13">
      <!-- 1.25 -->
      <g transform="translate(27.58125 114.617475) scale(0.12 -0.12)">
       <use xlink:href="#DejaVuSans-31"/>
       <use xlink:href="#DejaVuSans-2e" x="63.623047"/>
       <use xlink:href="#DejaVuSans-32" x="95.410156"/>
       <use xlink:href="#DejaVuSans-35" x="159.033203"/>
      </g>
     </g>
    </g>
    <g id="ytick_7">
     <g id="line2d_25">
      <path d="M 61.3 72.494338 
L 493.2 72.494338 
" clip-path="url(#pc86832d798)" style="fill: none; stroke: #808080; stroke-width: 0.8; stroke-linecap: square"/>
     </g>
     <g id="line2d_26">
      <g>
       <use xlink:href="#mc28563dba9" x="61.3" y="72.494338" style="stroke: #000000; stroke-width: 0.8"/>
      </g>
     </g>
     <g id="text_14">
      <!-- 1.50 -->
      <g transform="translate(27.58125 77.0534) scale(0.12 -0.12)">
       <use xlink:href="#DejaVuSans-31"/>
       <use xlink:href="#DejaVuSans-2e" x="63.623047"/>
       <use xlink:href="#DejaVuSans-35" x="95.410156"/>
       <use xlink:href="#DejaVuSans-30" x="159.033203"/>
      </g>
     </g>
    </g>
    <g id="ytick_8">
     <g id="line2d_27">
      <path d="M 61.3 34.930263 
L 493.2 34.930263 
" clip-path="url(#pc86832d798)" style="fill: none; stroke: #808080; stroke-width: 0.8; stroke-linecap: square"/>
     </g>
     <g id="line2d_28">
      <g>
       <use xlink:href="#mc28563dba9" x="61.3" y="34.930263" style="stroke: #000000; stroke-width: 0.8"/>
      </g>
     </g>
     <g id="text_15">
      <!-- 1.75 -->
      <g transform="translate(27.58125 39.489325) scale(0.12 -0.12)">
       <use xlink:href="#DejaVuSans-31"/>
       <use xlink:href="#DejaVuSans-2e" x="63.623047"/>
       <use xlink:href="#DejaVuSans-37" x="95.410156"/>
       <use xlink:href="#DejaVuSans-35" x="159.033203"/>
      </g>
     </g>
    </g>
    <g id="text_16">
     <!--  [V] -->
     <g transform="translate(21.085625 180.193125) rotate(-90) scale(0.12 -0.12)">
      <defs>
       <path id="DejaVuSans-56" d="M 1831 0 
L 50 4666 
L 709 4666 
L 2188 738 
L 3669 4666 
L 4325 4666 
L 2547 0 
L 1831 0 
z
" transform="scale(0.015625)"/>
      </defs>
      <use xlink:href="#DejaVuSans-20"/>
      <use xlink:href="#DejaVuSans-5b" x="31.787109"/>
      <use xlink:href="#DejaVuSans-56" x="70.800781"/>
      <use xlink:href="#DejaVuSans-5d" x="139.208984"/>
     </g>
    </g>
   </g>
   <g id="line2d_29">
    <path d="M 80.931818 297.878789 
L 82.665246 297.945899 
L 84.235791 298.31927 
L 86.59161 298.97287 
L 88.162155 299.21386 
L 89.7327 299.152656 
L 91.303246 298.700274 
L 92.873791 297.795549 
L 94.444337 296.403318 
L 96.014882 294.512533 
L 97.585428 292.133525 
L 99.155973 289.294353 
L 100.726519 286.03651 
L 103.082337 280.476302 
L 105.438155 274.27368 
L 108.579246 265.315181 
L 114.076155 248.712216 
L 122.714155 222.582707 
L 128.211064 206.69818 
L 132.9227 193.69662 
L 137.634337 181.285545 
L 142.345973 169.460801 
L 147.05761 158.206818 
L 151.769246 147.503039 
L 156.480882 137.327056 
L 161.192518 127.656201 
L 165.904155 118.468444 
L 170.615791 109.742972 
L 175.327428 101.460695 
L 180.039064 93.604833 
L 184.7507 86.16175 
L 189.462337 79.122238 
L 194.173973 72.483522 
L 198.885609 66.252419 
L 202.811973 61.385951 
L 206.738337 56.840261 
L 210.6647 52.652845 
L 213.805791 49.597906 
L 216.946882 46.847201 
L 220.087973 44.450966 
L 222.443791 42.92298 
L 224.799609 41.658537 
L 227.155428 40.690071 
L 229.511246 40.051616 
L 231.081791 39.826276 
L 232.652337 39.772727 
L 234.222882 39.900316 
L 235.793428 40.217632 
L 237.363973 40.732288 
L 238.934518 41.450721 
L 240.505064 42.378018 
L 242.075609 43.517798 
L 243.646155 44.872124 
L 245.2167 46.441461 
L 247.572518 49.195701 
L 249.928337 52.420452 
L 252.284155 56.098032 
L 254.639973 60.204181 
L 256.995791 64.708932 
L 260.136882 71.27459 
L 263.277973 78.39336 
L 267.204337 87.911979 
L 271.915973 99.954671 
L 283.695064 130.416567 
L 287.621428 139.809021 
L 290.762518 146.755904 
L 293.903609 153.067093 
L 296.259428 157.317803 
L 298.615246 161.111211 
L 300.971064 164.415979 
L 303.326882 167.209226 
L 304.897428 168.780074 
L 306.467973 170.11562 
L 308.038518 171.216063 
L 309.609064 172.083441 
L 311.179609 172.72154 
L 312.750155 173.135779 
L 314.3207 173.333048 
L 315.891246 173.321538 
L 317.461791 173.110545 
L 319.032337 172.710276 
L 320.602882 172.131639 
L 322.9587 170.954315 
L 325.314518 169.441145 
L 327.670337 167.63222 
L 330.026155 165.566953 
L 333.167246 162.479755 
L 336.308337 159.087932 
L 340.2347 154.534662 
L 345.731609 147.801831 
L 359.866518 130.290289 
L 365.363428 123.925523 
L 370.075064 118.837889 
L 374.001428 114.914087 
L 377.927791 111.319361 
L 381.068882 108.705349 
L 384.209973 106.343416 
L 387.351064 104.25038 
L 390.492155 102.441763 
L 393.633246 100.931425 
L 396.774337 99.731111 
L 399.130155 99.039928 
L 401.485973 98.531031 
L 403.841791 98.206005 
L 406.197609 98.065212 
L 408.553428 98.10768 
L 410.909246 98.331051 
L 413.265064 98.731516 
L 416.406155 99.531614 
L 419.547246 100.620453 
L 422.688337 101.97703 
L 425.829428 103.57618 
L 429.755791 105.871903 
L 433.682155 108.437962 
L 438.393791 111.776401 
L 448.602337 119.398896 
L 454.884518 123.915455 
L 459.596155 127.016005 
L 463.522518 129.335524 
L 467.448882 131.368262 
L 470.589973 132.765745 
L 473.568182 133.891297 
L 473.568182 133.891297 
" clip-path="url(#pc86832d798)" style="fill: none; stroke: #ff0000; stroke-width: 2; stroke-linecap: square"/>
   </g>
   <g id="line2d_30">
    <path d="M 80.931818 297.878789 
L 83.60758 297.973896 
L 87.533943 298.569765 
L 89.104489 298.475607 
L 90.675034 298.023252 
L 92.24558 297.144866 
L 93.816125 295.801294 
L 95.386671 293.979222 
L 96.957216 291.687531 
L 98.527762 288.952923 
L 100.098307 285.815151 
L 102.454125 280.45886 
L 104.809944 274.479633 
L 107.951034 265.830215 
L 112.662671 252.073017 
L 123.656489 219.717132 
L 129.153398 204.315969 
L 134.650307 189.64424 
L 139.361944 177.672518 
L 144.07358 166.255244 
L 148.785216 155.379593 
L 153.496853 145.028603 
L 158.208489 135.183908 
L 162.920125 125.827356 
L 167.631762 116.942187 
L 172.343398 108.514119 
L 177.055035 100.532635 
L 181.766671 92.992762 
L 186.478307 85.897642 
L 191.189944 79.262326 
L 195.116307 74.106804 
L 199.042671 69.323999 
L 202.183762 65.796842 
L 205.324853 62.570065 
L 208.465944 59.684608 
L 210.821762 57.774135 
L 213.17758 56.107569 
L 215.533398 54.711135 
L 217.889216 53.612467 
L 220.245035 52.839595 
L 221.81558 52.518843 
L 223.386125 52.362578 
L 224.956671 52.377739 
L 226.527216 52.570464 
L 228.097762 52.945932 
L 229.668307 53.508219 
L 231.238853 54.260192 
L 232.809398 55.203426 
L 234.379944 56.338155 
L 236.735762 58.396479 
L 239.09158 60.873391 
L 241.447398 63.752961 
L 243.803216 67.013269 
L 246.159035 70.627023 
L 249.300125 75.939279 
L 252.441216 81.735877 
L 256.36758 89.514508 
L 261.864489 101.026861 
L 270.502489 119.238476 
L 274.428853 127.01473 
L 277.569944 132.805348 
L 280.711035 138.109102 
L 283.066853 141.717653 
L 285.422671 144.977852 
L 287.778489 147.86767 
L 290.134307 150.37168 
L 292.490125 152.481259 
L 294.845944 154.194512 
L 297.201762 155.515936 
L 298.772307 156.184082 
L 300.342853 156.686914 
L 301.913398 157.029672 
L 303.483944 157.218366 
L 305.839762 157.227257 
L 308.19558 156.929189 
L 310.551398 156.350514 
L 312.907216 155.518551 
L 315.263035 154.460885 
L 318.404125 152.746604 
L 321.545216 150.741833 
L 325.47158 147.916293 
L 330.183216 144.193456 
L 337.250671 138.251548 
L 347.459216 129.676972 
L 352.956125 125.368209 
L 357.667762 121.965676 
L 361.594125 119.381764 
L 365.520489 117.058086 
L 369.446853 115.019224 
L 372.587944 113.6066 
L 375.729035 112.396683 
L 378.870125 111.39498 
L 382.011216 110.604667 
L 385.152307 110.026471 
L 388.293398 109.658596 
L 391.434489 109.496671 
L 394.57558 109.533759 
L 397.716671 109.760408 
L 401.643035 110.292043 
L 405.569398 111.073291 
L 409.495762 112.071578 
L 414.207398 113.504703 
L 419.704307 115.415098 
L 429.12758 118.979003 
L 437.76558 122.175191 
L 443.262489 124.005529 
L 448.759398 125.594047 
L 453.471035 126.726371 
L 458.182671 127.627311 
L 462.894307 128.289139 
L 467.605944 128.713762 
L 472.31758 128.911474 
L 473.568182 128.927886 
L 473.568182 128.927886 
" clip-path="url(#pc86832d798)" style="fill: none; stroke: #0000ff; stroke-width: 2; stroke-linecap: square"/>
   </g>
   <g id="line2d_31">
    <path d="M 80.931818 297.878789 
L 84.641221 297.968091 
L 86.997039 298.138355 
L 88.567585 297.997093 
L 90.13813 297.523402 
L 91.708676 296.64418 
L 93.279221 295.317075 
L 94.849767 293.527299 
L 96.420312 291.283328 
L 97.990857 288.611802 
L 99.561403 285.55217 
L 101.917221 280.339194 
L 104.273039 274.529239 
L 107.41413 266.131739 
L 112.125767 252.768693 
L 123.904857 219.016121 
L 129.401767 204.012733 
L 134.898676 189.695702 
L 139.610312 177.996897 
L 144.321948 166.828662 
L 149.033585 156.183337 
L 153.745221 146.049495 
L 158.456857 136.414905 
L 163.168494 127.268649 
L 167.88013 118.603038 
L 172.591767 110.415734 
L 177.303403 102.712482 
L 181.229767 96.675011 
L 185.15613 91.004164 
L 189.082494 85.728902 
L 192.223585 81.821155 
L 195.364676 78.221465 
L 198.505767 74.964968 
L 201.646858 72.093511 
L 204.002676 70.221127 
L 206.358494 68.613787 
L 208.714312 67.293793 
L 211.07013 66.28316 
L 213.425948 65.602607 
L 214.996494 65.341474 
L 216.567039 65.239907 
L 218.137585 65.301737 
L 219.70813 65.529891 
L 221.278676 65.926292 
L 222.849221 66.491794 
L 224.419767 67.226139 
L 226.775585 68.640871 
L 229.131403 70.422608 
L 231.487221 72.556311 
L 233.843039 75.021715 
L 236.198858 77.793814 
L 239.339948 81.915985 
L 242.481039 86.451976 
L 246.407403 92.569084 
L 251.904312 101.631828 
L 259.757039 114.617906 
L 263.683403 120.713382 
L 266.824494 125.244703 
L 269.965585 129.391601 
L 273.106676 133.096809 
L 275.462494 135.560034 
L 277.818312 137.739147 
L 280.17413 139.627496 
L 282.529948 141.223331 
L 284.885767 142.529456 
L 287.241585 143.552772 
L 289.597403 144.303714 
L 291.953221 144.795647 
L 294.309039 145.044249 
L 296.664858 145.066899 
L 299.020676 144.882132 
L 301.376494 144.509123 
L 304.517585 143.752475 
L 307.658676 142.741125 
L 310.799767 141.519007 
L 314.72613 139.758109 
L 319.437767 137.401075 
L 327.290494 133.172488 
L 336.713767 128.125498 
L 342.210676 125.408643 
L 346.922312 123.294531 
L 351.633948 121.420763 
L 356.345585 119.816729 
L 360.271948 118.700484 
L 364.198312 117.791534 
L 368.124676 117.091602 
L 372.051039 116.598067 
L 375.977403 116.304172 
L 380.689039 116.199867 
L 385.400676 116.34285 
L 390.112312 116.702399 
L 395.609221 117.348363 
L 401.891403 118.310361 
L 411.314676 120.003676 
L 425.449585 122.537678 
L 433.302312 123.700067 
L 440.369767 124.511207 
L 447.437221 125.074955 
L 454.504676 125.392327 
L 461.57213 125.483677 
L 469.424858 125.361959 
L 473.568182 125.221957 
L 473.568182 125.221957 
" clip-path="url(#pc86832d798)" style="fill: none; stroke: #008000; stroke-width: 2; stroke-linecap: square"/>
   </g>
   <g id="line2d_32">
    <path d="M 80.931818 297.878789 
L 87.568853 297.763402 
L 89.139398 297.378626 
L 90.709944 296.625171 
L 92.280489 295.447456 
L 93.851035 293.820466 
L 95.42158 291.745439 
L 96.992126 289.244328 
L 98.562671 286.353785 
L 100.918489 281.388738 
L 103.274308 275.817618 
L 106.415398 267.721787 
L 111.127035 254.769635 
L 124.476671 217.537995 
L 129.97358 202.978154 
L 135.470489 189.076939 
L 140.182126 177.712635 
L 144.893762 166.862745 
L 149.605398 156.525487 
L 154.317035 146.696975 
L 159.028671 137.37452 
L 163.740308 128.559489 
L 168.451944 120.260308 
L 172.378308 113.75165 
L 176.304671 107.63271 
L 180.231035 101.930999 
L 184.157398 96.684804 
L 187.298489 92.849285 
L 190.43958 89.368909 
L 193.580671 86.279897 
L 195.936489 84.243767 
L 198.292308 82.467493 
L 200.648126 80.968351 
L 203.003944 79.762743 
L 205.359762 78.865379 
L 207.71558 78.288472 
L 210.071398 78.04097 
L 211.641944 78.061645 
L 213.212489 78.231493 
L 215.568308 78.764664 
L 217.924126 79.626614 
L 220.279944 80.807029 
L 222.635762 82.290976 
L 224.99158 84.059187 
L 227.347398 86.088442 
L 230.488489 89.15358 
L 233.62958 92.56371 
L 237.555944 97.191786 
L 243.838126 105.056351 
L 250.90558 113.84789 
L 254.831944 118.398375 
L 257.973035 121.75859 
L 261.114126 124.815855 
L 264.255217 127.533348 
L 267.396308 129.886847 
L 269.752126 131.405471 
L 272.107944 132.711591 
L 274.463762 133.807668 
L 276.81958 134.699043 
L 279.175398 135.393491 
L 281.531217 135.90079 
L 283.887035 136.232278 
L 287.028126 136.422474 
L 290.169217 136.353984 
L 293.310308 136.059492 
L 297.236671 135.423299 
L 301.163035 134.546884 
L 305.874671 133.25967 
L 312.156853 131.291545 
L 330.218126 125.466541 
L 336.500308 123.758818 
L 341.997217 122.496717 
L 347.494126 121.476627 
L 352.991035 120.708018 
L 358.487944 120.187701 
L 363.984853 119.901554 
L 369.481762 119.826486 
L 375.763944 119.96059 
L 382.831398 120.329812 
L 392.254671 121.051732 
L 418.168671 123.154757 
L 428.377217 123.683104 
L 438.585762 123.971524 
L 449.57958 124.04188 
L 462.929217 123.886888 
L 473.568182 123.662796 
L 473.568182 123.662796 
" clip-path="url(#pc86832d798)" style="fill: none; stroke: #00bfbf; stroke-width: 2; stroke-linecap: square"/>
   </g>
   <g id="line2d_33">
    <path d="M 80.931818 297.878789 
L 82.068893 297.777348 
L 84.041498 297.714373 
L 86.397316 297.651867 
L 87.967862 297.379711 
L 89.538407 296.790133 
L 91.108953 295.808 
L 92.679498 294.39196 
L 94.250044 292.530983 
L 95.820589 290.238864 
L 97.391135 287.547642 
L 98.96168 284.50095 
L 101.317498 279.372722 
L 103.673316 273.723455 
L 106.814407 265.639139 
L 112.311316 250.723937 
L 122.519862 222.88005 
L 128.016771 208.497909 
L 133.51368 194.731566 
L 139.010589 181.633472 
L 143.722225 170.955996 
L 148.433862 160.793459 
L 153.145498 151.152171 
L 157.857135 142.041602 
L 162.568771 133.477996 
L 166.495135 126.778298 
L 170.421498 120.499439 
L 174.347862 114.672344 
L 177.488953 110.362548 
L 180.630044 106.392161 
L 183.771135 102.789452 
L 186.912225 99.585284 
L 189.268044 97.462977 
L 191.623862 95.596197 
L 193.97968 93.997446 
L 196.335498 92.677787 
L 198.691316 91.646227 
L 201.047135 90.909126 
L 203.402953 90.469694 
L 205.758771 90.327592 
L 208.114589 90.478684 
L 210.470407 90.914925 
L 212.826225 91.624393 
L 215.182044 92.591465 
L 217.537862 93.797087 
L 219.89368 95.219143 
L 223.034771 97.408814 
L 226.175862 99.874719 
L 230.102225 103.24046 
L 237.16968 109.673885 
L 243.451862 115.272792 
L 247.378225 118.498431 
L 251.304589 121.409458 
L 254.44568 123.470968 
L 257.586771 125.273393 
L 260.727862 126.807058 
L 263.868953 128.070905 
L 267.010044 129.071301 
L 270.151135 129.820669 
L 273.292225 130.336084 
L 276.433316 130.637938 
L 279.574407 130.748725 
L 283.500771 130.654454 
L 287.427135 130.34483 
L 292.138771 129.752198 
L 298.420953 128.704429 
L 309.414771 126.566072 
L 319.623316 124.666947 
L 326.690771 123.567314 
L 333.758225 122.705638 
L 340.040407 122.1545 
L 347.107862 121.769712 
L 354.175316 121.608424 
L 362.813316 121.656163 
L 373.021862 121.948247 
L 413.856044 123.361443 
L 428.776225 123.499611 
L 447.622771 123.428809 
L 473.568182 123.204742 
L 473.568182 123.204742 
" clip-path="url(#pc86832d798)" style="fill: none; stroke: #bf00bf; stroke-width: 2; stroke-linecap: square"/>
   </g>
   <g id="line2d_34">
    <path d="M 80.931818 297.878789 
L 82.068893 297.767759 
L 84.041498 297.65171 
L 86.397316 297.48283 
L 87.967862 297.119326 
L 89.538407 296.426007 
L 91.108953 295.332239 
L 92.679498 293.802391 
L 94.250044 291.83191 
L 95.820589 289.441023 
L 97.391135 286.667323 
L 99.746953 281.894562 
L 102.102771 276.54154 
L 105.243862 268.779231 
L 109.955498 256.39979 
L 123.305135 220.892187 
L 128.802044 206.990931 
L 134.298953 193.713305 
L 139.010589 182.867664 
L 143.722225 172.53722 
L 148.433862 162.73876 
L 153.145498 153.491233 
L 157.071862 146.22373 
L 160.998225 139.375808 
L 164.924589 132.973059 
L 168.850953 127.047809 
L 171.992044 122.677522 
L 175.133135 118.660664 
L 178.274225 115.021849 
L 181.415316 111.786281 
L 183.771135 109.638911 
L 186.126953 107.741344 
L 188.482771 106.101482 
L 190.838589 104.725377 
L 193.194407 103.616771 
L 195.550225 102.776719 
L 197.906044 102.203302 
L 200.261862 101.891438 
L 202.61768 101.832814 
L 204.973498 102.015931 
L 207.329316 102.42627 
L 209.685135 103.04653 
L 212.040953 103.856966 
L 215.182044 105.195455 
L 218.323135 106.777189 
L 222.249498 109.006466 
L 228.53168 112.882127 
L 235.599135 117.213414 
L 240.310771 119.837635 
L 244.237135 121.769257 
L 248.163498 123.426599 
L 251.304589 124.541205 
L 254.44568 125.465167 
L 258.372044 126.358119 
L 262.298407 126.976754 
L 266.224771 127.346885 
L 270.151135 127.499613 
L 274.862771 127.443504 
L 280.35968 127.12259 
L 287.427135 126.441631 
L 303.132589 124.576659 
L 312.555862 123.604295 
L 320.408589 122.998161 
L 328.261316 122.600096 
L 336.899316 122.386986 
L 347.107862 122.376989 
L 361.242771 122.6197 
L 392.65368 123.225608 
L 411.500225 123.321239 
L 443.696407 123.210526 
L 473.568182 123.132741 
L 473.568182 123.132741 
" clip-path="url(#pc86832d798)" style="fill: none; stroke: #bfbf00; stroke-width: 2; stroke-linecap: square"/>
   </g>
   <g id="line2d_35">
    <path d="M 80.931818 297.878789 
L 81.867863 297.787826 
L 84.041498 297.601453 
L 86.397316 297.343539 
L 87.967862 296.901366 
L 89.538407 296.116979 
L 91.108953 294.923652 
L 92.679498 293.290943 
L 94.250044 291.220313 
L 95.820589 288.738037 
L 97.391135 285.886976 
L 99.746953 281.032592 
L 102.102771 275.644407 
L 105.243862 267.905753 
L 110.740771 253.616198 
L 120.949316 226.971704 
L 126.446225 213.222481 
L 131.943135 200.078352 
L 136.654771 189.345096 
L 141.366407 179.135695 
L 146.078044 169.477312 
L 150.004407 161.871021 
L 153.930771 154.688823 
L 157.857135 147.955809 
L 161.783498 141.702007 
L 164.924589 137.067264 
L 168.06568 132.781063 
L 171.206771 128.863859 
L 174.347862 125.335892 
L 177.488953 122.215829 
L 179.844771 120.152983 
L 182.200589 118.333299 
L 184.556407 116.759776 
L 186.912225 115.433209 
L 189.268044 114.351936 
L 191.623862 113.511656 
L 193.97968 112.905348 
L 196.335498 112.523288 
L 198.691316 112.35315 
L 201.047135 112.380212 
L 203.402953 112.587617 
L 206.544044 113.112242 
L 209.685135 113.876227 
L 213.611498 115.090614 
L 218.323135 116.796328 
L 231.672771 121.79242 
L 236.384407 123.248679 
L 240.310771 124.25479 
L 244.237135 125.056137 
L 248.163498 125.651587 
L 252.089862 126.050613 
L 256.801498 126.294894 
L 261.513135 126.320702 
L 267.010044 126.133881 
L 274.077498 125.659462 
L 288.99768 124.343137 
L 299.991498 123.500875 
L 309.414771 123.011813 
L 318.838044 122.754071 
L 329.831862 122.693996 
L 345.537316 122.86624 
L 376.948225 123.242137 
L 401.29168 123.255523 
L 473.568182 123.14827 
L 473.568182 123.14827 
" clip-path="url(#pc86832d798)" style="fill: none; stroke: #000000; stroke-width: 2; stroke-linecap: square"/>
   </g>
   <g id="line2d_36">
    <path d="M 80.931818 297.878789 
L 81.867863 297.783804 
L 84.041498 297.560263 
L 86.397316 297.226877 
L 87.967862 296.716461 
L 89.538407 295.851817 
L 91.108953 294.569558 
L 92.679498 292.843904 
L 94.250044 290.681834 
L 95.820589 288.115247 
L 97.391135 285.191959 
L 99.746953 280.259626 
L 102.888044 272.946563 
L 106.814407 263.123924 
L 123.305135 221.139022 
L 128.802044 208.038484 
L 133.51368 197.338614 
L 138.225316 187.169667 
L 142.936953 177.568143 
L 146.863316 170.028174 
L 150.78968 162.934492 
L 154.716044 156.315869 
L 158.642407 150.204326 
L 161.783498 145.703146 
L 164.924589 141.566052 
L 168.06568 137.80976 
L 171.206771 134.448795 
L 174.347862 131.494142 
L 176.70368 129.548672 
L 179.059498 127.835663 
L 181.415316 126.353315 
L 183.771135 125.097518 
L 186.126953 124.061764 
L 188.482771 123.237165 
L 190.838589 122.612542 
L 193.194407 122.174599 
L 196.335498 121.854616 
L 199.476589 121.799218 
L 202.61768 121.964811 
L 206.544044 122.413372 
L 211.25568 123.189569 
L 227.746407 126.151865 
L 232.458044 126.707985 
L 237.16968 127.061496 
L 241.881316 127.213281 
L 247.378225 127.160101 
L 253.660407 126.854327 
L 261.513135 126.228195 
L 288.212407 123.897135 
L 297.63568 123.415867 
L 307.058953 123.159117 
L 318.838044 123.07884 
L 339.255135 123.222068 
L 365.169135 123.334417 
L 405.218044 123.198385 
L 453.11968 123.160169 
L 473.568182 123.167604 
L 473.568182 123.167604 
" clip-path="url(#pc86832d798)" style="fill: none; stroke: #ff0000; stroke-width: 2; stroke-linecap: square"/>
   </g>
   <g id="line2d_37">
    <path d="M 80.931818 297.878789 
L 81.867863 297.780511 
L 87.182589 296.883127 
L 88.753135 296.140321 
L 90.32368 294.996563 
L 91.894225 293.411156 
L 93.464771 291.380205 
L 95.035316 288.929468 
L 96.605862 286.104921 
L 98.96168 281.292026 
L 101.317498 275.962607 
L 105.243862 266.388805 
L 122.519862 223.138469 
L 128.016771 210.338161 
L 132.728407 199.921804 
L 137.440044 190.066609 
L 141.366407 182.314916 
L 145.292771 175.011719 
L 149.219135 168.186989 
L 153.145498 161.872651 
L 156.286589 157.210591 
L 159.42768 152.912123 
L 162.568771 148.991628 
L 165.709862 145.460605 
L 168.850953 142.326434 
L 171.992044 139.591196 
L 174.347862 137.79931 
L 176.70368 136.225337 
L 179.059498 134.862753 
L 181.415316 133.702807 
L 183.771135 132.734625 
L 186.912225 131.7196 
L 190.053316 130.987523 
L 193.194407 130.499345 
L 196.335498 130.213467 
L 200.261862 130.075862 
L 205.758771 130.149464 
L 222.249498 130.588873 
L 228.53168 130.423265 
L 234.813862 130.008806 
L 241.881316 129.295682 
L 252.089862 127.996595 
L 267.795316 126.0017 
L 276.433316 125.141875 
L 285.071316 124.515509 
L 293.709316 124.111563 
L 303.917862 123.860057 
L 318.838044 123.744023 
L 362.813316 123.511743 
L 405.218044 123.241137 
L 465.684044 123.191406 
L 473.568182 123.186764 
L 473.568182 123.186764 
" clip-path="url(#pc86832d798)" style="fill: none; stroke: #0000ff; stroke-width: 2; stroke-linecap: square"/>
   </g>
   <g id="line2d_38">
    <path d="M 80.931818 297.878789 
L 81.867863 297.777764 
L 86.397316 297.042637 
L 87.967862 296.420099 
L 89.538407 295.421112 
L 91.108953 293.987577 
L 92.679498 292.101571 
L 94.250044 289.7797 
L 95.820589 287.063863 
L 98.176407 282.377226 
L 100.532225 277.139862 
L 103.673316 269.620066 
L 110.740771 251.888357 
L 117.808225 234.396331 
L 123.305135 221.399462 
L 128.016771 210.797064 
L 132.728407 200.75048 
L 136.654771 192.83978 
L 140.581135 185.38102 
L 144.507498 178.406331 
L 148.433862 171.94897 
L 151.574953 167.177631 
L 154.716044 162.773818 
L 157.857135 158.750536 
L 160.998225 155.117127 
L 164.139316 151.878036 
L 167.280407 149.031747 
L 170.421498 146.570007 
L 173.562589 144.477455 
L 176.70368 142.731718 
L 179.844771 141.30396 
L 182.985862 140.159866 
L 186.126953 139.260967 
L 189.268044 138.566215 
L 193.194407 137.921038 
L 197.906044 137.369828 
L 209.685135 136.333947 
L 216.752589 135.567303 
L 223.820044 134.564137 
L 231.672771 133.203671 
L 259.157316 128.184266 
L 267.010044 127.121316 
L 274.862771 126.30459 
L 282.715498 125.714971 
L 292.138771 125.246025 
L 304.703135 124.875782 
L 343.181498 124.126484 
L 375.37768 123.596901 
L 402.862225 123.394179 
L 467.254589 123.232266 
L 473.568182 123.222434 
L 473.568182 123.222434 
" clip-path="url(#pc86832d798)" style="fill: none; stroke: #008000; stroke-width: 2; stroke-linecap: square"/>
   </g>
   <g id="patch_3">
    <path d="M 61.3 312.2 
L 61.3 26.8 
" style="fill: none; stroke: #000000; stroke-width: 0.8; stroke-linejoin: miter; stroke-linecap: square"/>
   </g>
   <g id="patch_4">
    <path d="M 493.2 312.2 
L 493.2 26.8 
" style="fill: none; stroke: #000000; stroke-width: 0.8; stroke-linejoin: miter; stroke-linecap: square"/>
   </g>
   <g id="patch_5">
    <path d="M 61.3 312.2 
L 493.2 312.2 
" style="fill: none; stroke: #000000; stroke-width: 0.8; stroke-linejoin: miter; stroke-linecap: square"/>
   </g>
   <g id="patch_6">
    <path d="M 61.3 26.8 
L 493.2 26.8 
" style="fill: none; stroke: #000000; stroke-width: 0.8; stroke-linejoin: miter; stroke-linecap: square"/>
   </g>
   <g id="text_17">
    <!-- Step V_out -->
    <g transform="translate(244.750625 20.8) scale(0.12 -0.12)">
     <defs>
      <path id="DejaVuSans-53" d="M 3425 4513 
L 3425 3897 
Q 3066 4069 2747 4153 
Q 2428 4238 2131 4238 
Q 1616 4238 1336 4038 
Q 1056 3838 1056 3469 
Q 1056 3159 1242 3001 
Q 1428 2844 1947 2747 
L 2328 2669 
Q 3034 2534 3370 2195 
Q 3706 1856 3706 1288 
Q 3706 609 3251 259 
Q 2797 -91 1919 -91 
Q 1588 -91 1214 -16 
Q 841 59 441 206 
L 441 856 
Q 825 641 1194 531 
Q 1563 422 1919 422 
Q 2459 422 2753 634 
Q 3047 847 3047 1241 
Q 3047 1584 2836 1778 
Q 2625 1972 2144 2069 
L 1759 2144 
Q 1053 2284 737 2584 
Q 422 2884 422 3419 
Q 422 4038 858 4394 
Q 1294 4750 2059 4750 
Q 2388 4750 2728 4690 
Q 3069 4631 3425 4513 
z
" transform="scale(0.015625)"/>
      <path id="DejaVuSans-70" d="M 1159 525 
L 1159 -1331 
L 581 -1331 
L 581 3500 
L 1159 3500 
L 1159 2969 
Q 1341 3281 1617 3432 
Q 1894 3584 2278 3584 
Q 2916 3584 3314 3078 
Q 3713 2572 3713 1747 
Q 3713 922 3314 415 
Q 2916 -91 2278 -91 
Q 1894 -91 1617 61 
Q 1341 213 1159 525 
z
M 3116 1747 
Q 3116 2381 2855 2742 
Q 2594 3103 2138 3103 
Q 1681 3103 1420 2742 
Q 1159 2381 1159 1747 
Q 1159 1113 1420 752 
Q 1681 391 2138 391 
Q 2594 391 2855 752 
Q 3116 1113 3116 1747 
z
" transform="scale(0.015625)"/>
      <path id="DejaVuSans-5f" d="M 3263 -1063 
L 3263 -1509 
L -63 -1509 
L -63 -1063 
L 3263 -1063 
z
" transform="scale(0.015625)"/>
      <path id="DejaVuSans-6f" d="M 1959 3097 
Q 1497 3097 1228 2736 
Q 959 2375 959 1747 
Q 959 1119 1226 758 
Q 1494 397 1959 397 
Q 2419 397 2687 759 
Q 2956 1122 2956 1747 
Q 2956 2369 2687 2733 
Q 2419 3097 1959 3097 
z
M 1959 3584 
Q 2709 3584 3137 3096 
Q 3566 2609 3566 1747 
Q 3566 888 3137 398 
Q 2709 -91 1959 -91 
Q 1206 -91 779 398 
Q 353 888 353 1747 
Q 353 2609 779 3096 
Q 1206 3584 1959 3584 
z
" transform="scale(0.015625)"/>
      <path id="DejaVuSans-75" d="M 544 1381 
L 544 3500 
L 1119 3500 
L 1119 1403 
Q 1119 906 1312 657 
Q 1506 409 1894 409 
Q 2359 409 2629 706 
Q 2900 1003 2900 1516 
L 2900 3500 
L 3475 3500 
L 3475 0 
L 2900 0 
L 2900 538 
Q 2691 219 2414 64 
Q 2138 -91 1772 -91 
Q 1169 -91 856 284 
Q 544 659 544 1381 
z
M 1991 3584 
L 1991 3584 
z
" transform="scale(0.015625)"/>
     </defs>
     <use xlink:href="#DejaVuSans-53"/>
     <use xlink:href="#DejaVuSans-74" x="63.476562"/>
     <use xlink:href="#DejaVuSans-65" x="102.685547"/>
     <use xlink:href="#DejaVuSans-70" x="164.208984"/>
     <use xlink:href="#DejaVuSans-20" x="227.685547"/>
     <use xlink:href="#DejaVuSans-56" x="259.472656"/>
     <use xlink:href="#DejaVuSans-5f" x="327.880859"/>
     <use xlink:href="#DejaVuSans-6f" x="377.880859"/>
     <use xlink:href="#DejaVuSans-75" x="439.0625"/>
     <use xlink:href="#DejaVuSans-74" x="502.441406"/>
    </g>
   </g>
   <g id="legend_1">
    <g id="patch_7">
     <path d="M 351.561875 307.2 
L 486.2 307.2 
Q 488.2 307.2 488.2 305.2 
L 488.2 185.725 
Q 488.2 183.725 486.2 183.725 
L 351.561875 183.725 
Q 349.561875 183.725 349.561875 185.725 
L 349.561875 305.2 
Q 349.561875 307.2 351.561875 307.2 
z
" style="fill: #ffffff; opacity: 0.8; stroke: #cccccc; stroke-linejoin: miter"/>
    </g>
    <g id="line2d_39">
     <path d="M 351.561875 191.343125 
L 356.561875 191.343125 
L 361.561875 191.343125 
" style="fill: none; stroke: #ff0000; stroke-width: 2; stroke-linecap: square"/>
    </g>
    <g id="text_18">
     <!-- V_out:C_c=2.00e-12 -->
     <g transform="translate(363.561875 194.843125) scale(0.12 -0.12)">
      <defs>
       <path id="DejaVuSans-3a" d="M 750 794 
L 1409 794 
L 1409 0 
L 750 0 
L 750 794 
z
M 750 3309 
L 1409 3309 
L 1409 2516 
L 750 2516 
L 750 3309 
z
" transform="scale(0.015625)"/>
       <path id="DejaVuSans-43" d="M 4122 4306 
L 4122 3641 
Q 3803 3938 3442 4084 
Q 3081 4231 2675 4231 
Q 1875 4231 1450 3742 
Q 1025 3253 1025 2328 
Q 1025 1406 1450 917 
Q 1875 428 2675 428 
Q 3081 428 3442 575 
Q 3803 722 4122 1019 
L 4122 359 
Q 3791 134 3420 21 
Q 3050 -91 2638 -91 
Q 1578 -91 968 557 
Q 359 1206 359 2328 
Q 359 3453 968 4101 
Q 1578 4750 2638 4750 
Q 3056 4750 3426 4639 
Q 3797 4528 4122 4306 
z
" transform="scale(0.015625)"/>
       <path id="DejaVuSans-63" d="M 3122 3366 
L 3122 2828 
Q 2878 2963 2633 3030 
Q 2388 3097 2138 3097 
Q 1578 3097 1268 2742 
Q 959 2388 959 1747 
Q 959 1106 1268 751 
Q 1578 397 2138 397 
Q 2388 397 2633 464 
Q 2878 531 3122 666 
L 3122 134 
Q 2881 22 2623 -34 
Q 2366 -91 2075 -91 
Q 1284 -91 818 406 
Q 353 903 353 1747 
Q 353 2603 823 3093 
Q 1294 3584 2113 3584 
Q 2378 3584 2631 3529 
Q 2884 3475 3122 3366 
z
" transform="scale(0.015625)"/>
       <path id="DejaVuSans-3d" d="M 678 2906 
L 4684 2906 
L 4684 2381 
L 678 2381 
L 678 2906 
z
M 678 1631 
L 4684 1631 
L 4684 1100 
L 678 1100 
L 678 1631 
z
" transform="scale(0.015625)"/>
       <path id="DejaVuSans-2d" d="M 313 2009 
L 1997 2009 
L 1997 1497 
L 313 1497 
L 313 2009 
z
" transform="scale(0.015625)"/>
      </defs>
      <use xlink:href="#DejaVuSans-56"/>
      <use xlink:href="#DejaVuSans-5f" x="68.408203"/>
      <use xlink:href="#DejaVuSans-6f" x="118.408203"/>
      <use xlink:href="#DejaVuSans-75" x="179.589844"/>
      <use xlink:href="#DejaVuSans-74" x="242.96875"/>
      <use xlink:href="#DejaVuSans-3a" x="282.177734"/>
      <use xlink:href="#DejaVuSans-43" x="315.869141"/>
      <use xlink:href="#DejaVuSans-5f" x="385.693359"/>
      <use xlink:href="#DejaVuSans-63" x="435.693359"/>
      <use xlink:href="#DejaVuSans-3d" x="490.673828"/>
      <use xlink:href="#DejaVuSans-32" x="574.462891"/>
      <use xlink:href="#DejaVuSans-2e" x="638.085938"/>
      <use xlink:href="#DejaVuSans-30" x="669.873047"/>
      <use xlink:href="#DejaVuSans-30" x="733.496094"/>
      <use xlink:href="#DejaVuSans-65" x="797.119141"/>
      <use xlink:href="#DejaVuSans-2d" x="858.642578"/>
      <use xlink:href="#DejaVuSans-31" x="894.726562"/>
      <use xlink:href="#DejaVuSans-32" x="958.349609"/>
     </g>
    </g>
    <g id="line2d_40">
     <path d="M 351.561875 203.290625 
L 356.561875 203.290625 
L 361.561875 203.290625 
" style="fill: none; stroke: #0000ff; stroke-width: 2; stroke-linecap: square"/>
    </g>
    <g id="text_19">
     <!-- V_out:C_c=4.00e-12 -->
     <g transform="translate(363.561875 206.790625) scale(0.12 -0.12)">
      <use xlink:href="#DejaVuSans-56"/>
      <use xlink:href="#DejaVuSans-5f" x="68.408203"/>
      <use xlink:href="#DejaVuSans-6f" x="118.408203"/>
      <use xlink:href="#DejaVuSans-75" x="179.589844"/>
      <use xlink:href="#DejaVuSans-74" x="242.96875"/>
      <use xlink:href="#DejaVuSans-3a" x="282.177734"/>
      <use xlink:href="#DejaVuSans-43" x="315.869141"/>
      <use xlink:href="#DejaVuSans-5f" x="385.693359"/>
      <use xlink:href="#DejaVuSans-63" x="435.693359"/>
      <use xlink:href="#DejaVuSans-3d" x="490.673828"/>
      <use xlink:href="#DejaVuSans-34" x="574.462891"/>
      <use xlink:href="#DejaVuSans-2e" x="638.085938"/>
      <use xlink:href="#DejaVuSans-30" x="669.873047"/>
      <use xlink:href="#DejaVuSans-30" x="733.496094"/>
      <use xlink:href="#DejaVuSans-65" x="797.119141"/>
      <use xlink:href="#DejaVuSans-2d" x="858.642578"/>
      <use xlink:href="#DejaVuSans-31" x="894.726562"/>
      <use xlink:href="#DejaVuSans-32" x="958.349609"/>
     </g>
    </g>
    <g id="line2d_41">
     <path d="M 351.561875 215.238125 
L 356.561875 215.238125 
L 361.561875 215.238125 
" style="fill: none; stroke: #008000; stroke-width: 2; stroke-linecap: square"/>
    </g>
    <g id="text_20">
     <!-- V_out:C_c=6.00e-12 -->
     <g transform="translate(363.561875 218.738125) scale(0.12 -0.12)">
      <defs>
       <path id="DejaVuSans-36" d="M 2113 2584 
Q 1688 2584 1439 2293 
Q 1191 2003 1191 1497 
Q 1191 994 1439 701 
Q 1688 409 2113 409 
Q 2538 409 2786 701 
Q 3034 994 3034 1497 
Q 3034 2003 2786 2293 
Q 2538 2584 2113 2584 
z
M 3366 4563 
L 3366 3988 
Q 3128 4100 2886 4159 
Q 2644 4219 2406 4219 
Q 1781 4219 1451 3797 
Q 1122 3375 1075 2522 
Q 1259 2794 1537 2939 
Q 1816 3084 2150 3084 
Q 2853 3084 3261 2657 
Q 3669 2231 3669 1497 
Q 3669 778 3244 343 
Q 2819 -91 2113 -91 
Q 1303 -91 875 529 
Q 447 1150 447 2328 
Q 447 3434 972 4092 
Q 1497 4750 2381 4750 
Q 2619 4750 2861 4703 
Q 3103 4656 3366 4563 
z
" transform="scale(0.015625)"/>
      </defs>
      <use xlink:href="#DejaVuSans-56"/>
      <use xlink:href="#DejaVuSans-5f" x="68.408203"/>
      <use xlink:href="#DejaVuSans-6f" x="118.408203"/>
      <use xlink:href="#DejaVuSans-75" x="179.589844"/>
      <use xlink:href="#DejaVuSans-74" x="242.96875"/>
      <use xlink:href="#DejaVuSans-3a" x="282.177734"/>
      <use xlink:href="#DejaVuSans-43" x="315.869141"/>
      <use xlink:href="#DejaVuSans-5f" x="385.693359"/>
      <use xlink:href="#DejaVuSans-63" x="435.693359"/>
      <use xlink:href="#DejaVuSans-3d" x="490.673828"/>
      <use xlink:href="#DejaVuSans-36" x="574.462891"/>
      <use xlink:href="#DejaVuSans-2e" x="638.085938"/>
      <use xlink:href="#DejaVuSans-30" x="669.873047"/>
      <use xlink:href="#DejaVuSans-30" x="733.496094"/>
      <use xlink:href="#DejaVuSans-65" x="797.119141"/>
      <use xlink:href="#DejaVuSans-2d" x="858.642578"/>
      <use xlink:href="#DejaVuSans-31" x="894.726562"/>
      <use xlink:href="#DejaVuSans-32" x="958.349609"/>
     </g>
    </g>
    <g id="line2d_42">
     <path d="M 351.561875 227.185625 
L 356.561875 227.185625 
L 361.561875 227.185625 
" style="fill: none; stroke: #00bfbf; stroke-width: 2; stroke-linecap: square"/>
    </g>
    <g id="text_21">
     <!-- V_out:C_c=8.00e-12 -->
     <g transform="translate(363.561875 230.685625) scale(0.12 -0.12)">
      <defs>
       <path id="DejaVuSans-38" d="M 2034 2216 
Q 1584 2216 1326 1975 
Q 1069 1734 1069 1313 
Q 1069 891 1326 650 
Q 1584 409 2034 409 
Q 2484 409 2743 651 
Q 3003 894 3003 1313 
Q 3003 1734 2745 1975 
Q 2488 2216 2034 2216 
z
M 1403 2484 
Q 997 2584 770 2862 
Q 544 3141 544 3541 
Q 544 4100 942 4425 
Q 1341 4750 2034 4750 
Q 2731 4750 3128 4425 
Q 3525 4100 3525 3541 
Q 3525 3141 3298 2862 
Q 3072 2584 2669 2484 
Q 3125 2378 3379 2068 
Q 3634 1759 3634 1313 
Q 3634 634 3220 271 
Q 2806 -91 2034 -91 
Q 1263 -91 848 271 
Q 434 634 434 1313 
Q 434 1759 690 2068 
Q 947 2378 1403 2484 
z
M 1172 3481 
Q 1172 3119 1398 2916 
Q 1625 2713 2034 2713 
Q 2441 2713 2670 2916 
Q 2900 3119 2900 3481 
Q 2900 3844 2670 4047 
Q 2441 4250 2034 4250 
Q 1625 4250 1398 4047 
Q 1172 3844 1172 3481 
z
" transform="scale(0.015625)"/>
      </defs>
      <use xlink:href="#DejaVuSans-56"/>
      <use xlink:href="#DejaVuSans-5f" x="68.408203"/>
      <use xlink:href="#DejaVuSans-6f" x="118.408203"/>
      <use xlink:href="#DejaVuSans-75" x="179.589844"/>
      <use xlink:href="#DejaVuSans-74" x="242.96875"/>
      <use xlink:href="#DejaVuSans-3a" x="282.177734"/>
      <use xlink:href="#DejaVuSans-43" x="315.869141"/>
      <use xlink:href="#DejaVuSans-5f" x="385.693359"/>
      <use xlink:href="#DejaVuSans-63" x="435.693359"/>
      <use xlink:href="#DejaVuSans-3d" x="490.673828"/>
      <use xlink:href="#DejaVuSans-38" x="574.462891"/>
      <use xlink:href="#DejaVuSans-2e" x="638.085938"/>
      <use xlink:href="#DejaVuSans-30" x="669.873047"/>
      <use xlink:href="#DejaVuSans-30" x="733.496094"/>
      <use xlink:href="#DejaVuSans-65" x="797.119141"/>
      <use xlink:href="#DejaVuSans-2d" x="858.642578"/>
      <use xlink:href="#DejaVuSans-31" x="894.726562"/>
      <use xlink:href="#DejaVuSans-32" x="958.349609"/>
     </g>
    </g>
    <g id="line2d_43">
     <path d="M 351.561875 239.133125 
L 356.561875 239.133125 
L 361.561875 239.133125 
" style="fill: none; stroke: #bf00bf; stroke-width: 2; stroke-linecap: square"/>
    </g>
    <g id="text_22">
     <!-- V_out:C_c=1.00e-11 -->
     <g transform="translate(363.561875 242.633125) scale(0.12 -0.12)">
      <use xlink:href="#DejaVuSans-56"/>
      <use xlink:href="#DejaVuSans-5f" x="68.408203"/>
      <use xlink:href="#DejaVuSans-6f" x="118.408203"/>
      <use xlink:href="#DejaVuSans-75" x="179.589844"/>
      <use xlink:href="#DejaVuSans-74" x="242.96875"/>
      <use xlink:href="#DejaVuSans-3a" x="282.177734"/>
      <use xlink:href="#DejaVuSans-43" x="315.869141"/>
      <use xlink:href="#DejaVuSans-5f" x="385.693359"/>
      <use xlink:href="#DejaVuSans-63" x="435.693359"/>
      <use xlink:href="#DejaVuSans-3d" x="490.673828"/>
      <use xlink:href="#DejaVuSans-31" x="574.462891"/>
      <use xlink:href="#DejaVuSans-2e" x="638.085938"/>
      <use xlink:href="#DejaVuSans-30" x="669.873047"/>
      <use xlink:href="#DejaVuSans-30" x="733.496094"/>
      <use xlink:href="#DejaVuSans-65" x="797.119141"/>
      <use xlink:href="#DejaVuSans-2d" x="858.642578"/>
      <use xlink:href="#DejaVuSans-31" x="894.726562"/>
      <use xlink:href="#DejaVuSans-31" x="958.349609"/>
     </g>
    </g>
    <g id="line2d_44">
     <path d="M 351.561875 251.080625 
L 356.561875 251.080625 
L 361.561875 251.080625 
" style="fill: none; stroke: #bfbf00; stroke-width: 2; stroke-linecap: square"/>
    </g>
    <g id="text_23">
     <!-- V_out:C_c=1.20e-11 -->
     <g transform="translate(363.561875 254.580625) scale(0.12 -0.12)">
      <use xlink:href="#DejaVuSans-56"/>
      <use xlink:href="#DejaVuSans-5f" x="68.408203"/>
      <use xlink:href="#DejaVuSans-6f" x="118.408203"/>
      <use xlink:href="#DejaVuSans-75" x="179.589844"/>
      <use xlink:href="#DejaVuSans-74" x="242.96875"/>
      <use xlink:href="#DejaVuSans-3a" x="282.177734"/>
      <use xlink:href="#DejaVuSans-43" x="315.869141"/>
      <use xlink:href="#DejaVuSans-5f" x="385.693359"/>
      <use xlink:href="#DejaVuSans-63" x="435.693359"/>
      <use xlink:href="#DejaVuSans-3d" x="490.673828"/>
      <use xlink:href="#DejaVuSans-31" x="574.462891"/>
      <use xlink:href="#DejaVuSans-2e" x="638.085938"/>
      <use xlink:href="#DejaVuSans-32" x="669.873047"/>
      <use xlink:href="#DejaVuSans-30" x="733.496094"/>
      <use xlink:href="#DejaVuSans-65" x="797.119141"/>
      <use xlink:href="#DejaVuSans-2d" x="858.642578"/>
      <use xlink:href="#DejaVuSans-31" x="894.726562"/>
      <use xlink:href="#DejaVuSans-31" x="958.349609"/>
     </g>
    </g>
    <g id="line2d_45">
     <path d="M 351.561875 263.028125 
L 356.561875 263.028125 
L 361.561875 263.028125 
" style="fill: none; stroke: #000000; stroke-width: 2; stroke-linecap: square"/>
    </g>
    <g id="text_24">
     <!-- V_out:C_c=1.40e-11 -->
     <g transform="translate(363.561875 266.528125) scale(0.12 -0.12)">
      <use xlink:href="#DejaVuSans-56"/>
      <use xlink:href="#DejaVuSans-5f" x="68.408203"/>
      <use xlink:href="#DejaVuSans-6f" x="118.408203"/>
      <use xlink:href="#DejaVuSans-75" x="179.589844"/>
      <use xlink:href="#DejaVuSans-74" x="242.96875"/>
      <use xlink:href="#DejaVuSans-3a" x="282.177734"/>
      <use xlink:href="#DejaVuSans-43" x="315.869141"/>
      <use xlink:href="#DejaVuSans-5f" x="385.693359"/>
      <use xlink:href="#DejaVuSans-63" x="435.693359"/>
      <use xlink:href="#DejaVuSans-3d" x="490.673828"/>
      <use xlink:href="#DejaVuSans-31" x="574.462891"/>
      <use xlink:href="#DejaVuSans-2e" x="638.085938"/>
      <use xlink:href="#DejaVuSans-34" x="669.873047"/>
      <use xlink:href="#DejaVuSans-30" x="733.496094"/>
      <use xlink:href="#DejaVuSans-65" x="797.119141"/>
      <use xlink:href="#DejaVuSans-2d" x="858.642578"/>
      <use xlink:href="#DejaVuSans-31" x="894.726562"/>
      <use xlink:href="#DejaVuSans-31" x="958.349609"/>
     </g>
    </g>
    <g id="line2d_46">
     <path d="M 351.561875 274.975625 
L 356.561875 274.975625 
L 361.561875 274.975625 
" style="fill: none; stroke: #ff0000; stroke-width: 2; stroke-linecap: square"/>
    </g>
    <g id="text_25">
     <!-- V_out:C_c=1.60e-11 -->
     <g transform="translate(363.561875 278.475625) scale(0.12 -0.12)">
      <use xlink:href="#DejaVuSans-56"/>
      <use xlink:href="#DejaVuSans-5f" x="68.408203"/>
      <use xlink:href="#DejaVuSans-6f" x="118.408203"/>
      <use xlink:href="#DejaVuSans-75" x="179.589844"/>
      <use xlink:href="#DejaVuSans-74" x="242.96875"/>
      <use xlink:href="#DejaVuSans-3a" x="282.177734"/>
      <use xlink:href="#DejaVuSans-43" x="315.869141"/>
      <use xlink:href="#DejaVuSans-5f" x="385.693359"/>
      <use xlink:href="#DejaVuSans-63" x="435.693359"/>
      <use xlink:href="#DejaVuSans-3d" x="490.673828"/>
      <use xlink:href="#DejaVuSans-31" x="574.462891"/>
      <use xlink:href="#DejaVuSans-2e" x="638.085938"/>
      <use xlink:href="#DejaVuSans-36" x="669.873047"/>
      <use xlink:href="#DejaVuSans-30" x="733.496094"/>
      <use xlink:href="#DejaVuSans-65" x="797.119141"/>
      <use xlink:href="#DejaVuSans-2d" x="858.642578"/>
      <use xlink:href="#DejaVuSans-31" x="894.726562"/>
      <use xlink:href="#DejaVuSans-31" x="958.349609"/>
     </g>
    </g>
    <g id="line2d_47">
     <path d="M 351.561875 286.923125 
L 356.561875 286.923125 
L 361.561875 286.923125 
" style="fill: none; stroke: #0000ff; stroke-width: 2; stroke-linecap: square"/>
    </g>
    <g id="text_26">
     <!-- V_out:C_c=1.80e-11 -->
     <g transform="translate(363.561875 290.423125) scale(0.12 -0.12)">
      <use xlink:href="#DejaVuSans-56"/>
      <use xlink:href="#DejaVuSans-5f" x="68.408203"/>
      <use xlink:href="#DejaVuSans-6f" x="118.408203"/>
      <use xlink:href="#DejaVuSans-75" x="179.589844"/>
      <use xlink:href="#DejaVuSans-74" x="242.96875"/>
      <use xlink:href="#DejaVuSans-3a" x="282.177734"/>
      <use xlink:href="#DejaVuSans-43" x="315.869141"/>
      <use xlink:href="#DejaVuSans-5f" x="385.693359"/>
      <use xlink:href="#DejaVuSans-63" x="435.693359"/>
      <use xlink:href="#DejaVuSans-3d" x="490.673828"/>
      <use xlink:href="#DejaVuSans-31" x="574.462891"/>
      <use xlink:href="#DejaVuSans-2e" x="638.085938"/>
      <use xlink:href="#DejaVuSans-38" x="669.873047"/>
      <use xlink:href="#DejaVuSans-30" x="733.496094"/>
      <use xlink:href="#DejaVuSans-65" x="797.119141"/>
      <use xlink:href="#DejaVuSans-2d" x="858.642578"/>
      <use xlink:href="#DejaVuSans-31" x="894.726562"/>
      <use xlink:href="#DejaVuSans-31" x="958.349609"/>
     </g>
    </g>
    <g id="line2d_48">
     <path d="M 351.561875 298.870625 
L 356.561875 298.870625 
L 361.561875 298.870625 
" style="fill: none; stroke: #008000; stroke-width: 2; stroke-linecap: square"/>
    </g>
    <g id="text_27">
     <!-- V_out:C_c=2.00e-11 -->
     <g transform="translate(363.561875 302.370625) scale(0.12 -0.12)">
      <use xlink:href="#DejaVuSans-56"/>
      <use xlink:href="#DejaVuSans-5f" x="68.408203"/>
      <use xlink:href="#DejaVuSans-6f" x="118.408203"/>
      <use xlink:href="#DejaVuSans-75" x="179.589844"/>
      <use xlink:href="#DejaVuSans-74" x="242.96875"/>
      <use xlink:href="#DejaVuSans-3a" x="282.177734"/>
      <use xlink:href="#DejaVuSans-43" x="315.869141"/>
      <use xlink:href="#DejaVuSans-5f" x="385.693359"/>
      <use xlink:href="#DejaVuSans-63" x="435.693359"/>
      <use xlink:href="#DejaVuSans-3d" x="490.673828"/>
      <use xlink:href="#DejaVuSans-32" x="574.462891"/>
      <use xlink:href="#DejaVuSans-2e" x="638.085938"/>
      <use xlink:href="#DejaVuSans-30" x="669.873047"/>
      <use xlink:href="#DejaVuSans-30" x="733.496094"/>
      <use xlink:href="#DejaVuSans-65" x="797.119141"/>
      <use xlink:href="#DejaVuSans-2d" x="858.642578"/>
      <use xlink:href="#DejaVuSans-31" x="894.726562"/>
      <use xlink:href="#DejaVuSans-31" x="958.349609"/>
     </g>
    </g>
   </g>
  </g>
 </g>
 <defs>
  <clipPath id="pc86832d798">
   <rect x="61.3" y="26.8" width="431.9" height="285.4"/>
  </clipPath>
 </defs>
</svg>
