<?xml version="1.0" encoding="utf-8" standalone="no"?>
<!DOCTYPE svg PUBLIC "-//W3C//DTD SVG 1.1//EN"
  "http://www.w3.org/Graphics/SVG/1.1/DTD/svg11.dtd">
<svg xmlns:xlink="http://www.w3.org/1999/xlink" width="504pt" height="360pt" viewBox="0 0 504 360" xmlns="http://www.w3.org/2000/svg" version="1.1">
 <metadata>
  <rdf:RDF xmlns:dc="http://purl.org/dc/elements/1.1/" xmlns:cc="http://creativecommons.org/ns#" xmlns:rdf="http://www.w3.org/1999/02/22-rdf-syntax-ns#">
   <cc:Work>
    <dc:type rdf:resource="http://purl.org/dc/dcmitype/StillImage"/>
    <dc:date>2025-08-04T00:17:51.648860</dc:date>
    <dc:format>image/svg+xml</dc:format>
    <dc:creator>
     <cc:Agent>
      <dc:title>Matplotlib v3.9.2, https://matplotlib.org/</dc:title>
     </cc:Agent>
    </dc:creator>
   </cc:Work>
  </rdf:RDF>
 </metadata>
 <defs>
  <style type="text/css">*{stroke-linejoin: round; stroke-linecap: butt}</style>
 </defs>
 <g id="figure_1">
  <g id="patch_1">
   <path d="M 0 360 
L 504 360 
L 504 0 
L 0 0 
z
" style="fill: #ffffff"/>
  </g>
  <g id="axes_1">
   <g id="patch_2">
    <path d="M 63.65 312.28 
L 493.2 312.28 
L 493.2 28.32 
L 63.65 28.32 
z
" style="fill: #ffffff"/>
   </g>
   <g id="matplotlib.axis_1">
    <g id="xtick_1">
     <g id="line2d_1">
      <path d="M 83.175 312.28 
L 83.175 28.32 
" clip-path="url(#p09801068b1)" style="fill: none; stroke: #808080; stroke-width: 0.8; stroke-linecap: square"/>
     </g>
     <g id="line2d_2">
      <defs>
       <path id="mf259621848" d="M 0 0 
L 0 3.5 
" style="stroke: #000000; stroke-width: 0.8"/>
      </defs>
      <g>
       <use xlink:href="#mf259621848" x="83.175" y="312.28" style="stroke: #000000; stroke-width: 0.8"/>
      </g>
     </g>
     <g id="text_1">
      <!-- 0.0 -->
      <g transform="translate(73.633125 328.398125) scale(0.12 -0.12)">
       <defs>
        <path id="DejaVuSans-30" d="M 2034 4250 
Q 1547 4250 1301 3770 
Q 1056 3291 1056 2328 
Q 1056 1369 1301 889 
Q 1547 409 2034 409 
Q 2525 409 2770 889 
Q 3016 1369 3016 2328 
Q 3016 3291 2770 3770 
Q 2525 4250 2034 4250 
z
M 2034 4750 
Q 2819 4750 3233 4129 
Q 3647 3509 3647 2328 
Q 3647 1150 3233 529 
Q 2819 -91 2034 -91 
Q 1250 -91 836 529 
Q 422 1150 422 2328 
Q 422 3509 836 4129 
Q 1250 4750 2034 4750 
z
" transform="scale(0.015625)"/>
        <path id="DejaVuSans-2e" d="M 684 794 
L 1344 794 
L 1344 0 
L 684 0 
L 684 794 
z
" transform="scale(0.015625)"/>
       </defs>
       <use xlink:href="#DejaVuSans-30"/>
       <use xlink:href="#DejaVuSans-2e" x="63.623047"/>
       <use xlink:href="#DejaVuSans-30" x="95.410156"/>
      </g>
     </g>
    </g>
    <g id="xtick_2">
     <g id="line2d_3">
      <path d="M 161.275 312.28 
L 161.275 28.32 
" clip-path="url(#p09801068b1)" style="fill: none; stroke: #808080; stroke-width: 0.8; stroke-linecap: square"/>
     </g>
     <g id="line2d_4">
      <g>
       <use xlink:href="#mf259621848" x="161.275" y="312.28" style="stroke: #000000; stroke-width: 0.8"/>
      </g>
     </g>
     <g id="text_2">
      <!-- 0.2 -->
      <g transform="translate(151.733125 328.398125) scale(0.12 -0.12)">
       <defs>
        <path id="DejaVuSans-32" d="M 1228 531 
L 3431 531 
L 3431 0 
L 469 0 
L 469 531 
Q 828 903 1448 1529 
Q 2069 2156 2228 2338 
Q 2531 2678 2651 2914 
Q 2772 3150 2772 3378 
Q 2772 3750 2511 3984 
Q 2250 4219 1831 4219 
Q 1534 4219 1204 4116 
Q 875 4013 500 3803 
L 500 4441 
Q 881 4594 1212 4672 
Q 1544 4750 1819 4750 
Q 2544 4750 2975 4387 
Q 3406 4025 3406 3419 
Q 3406 3131 3298 2873 
Q 3191 2616 2906 2266 
Q 2828 2175 2409 1742 
Q 1991 1309 1228 531 
z
" transform="scale(0.015625)"/>
       </defs>
       <use xlink:href="#DejaVuSans-30"/>
       <use xlink:href="#DejaVuSans-2e" x="63.623047"/>
       <use xlink:href="#DejaVuSans-32" x="95.410156"/>
      </g>
     </g>
    </g>
    <g id="xtick_3">
     <g id="line2d_5">
      <path d="M 239.375 312.28 
L 239.375 28.32 
" clip-path="url(#p09801068b1)" style="fill: none; stroke: #808080; stroke-width: 0.8; stroke-linecap: square"/>
     </g>
     <g id="line2d_6">
      <g>
       <use xlink:href="#mf259621848" x="239.375" y="312.28" style="stroke: #000000; stroke-width: 0.8"/>
      </g>
     </g>
     <g id="text_3">
      <!-- 0.4 -->
      <g transform="translate(229.833125 328.398125) scale(0.12 -0.12)">
       <defs>
        <path id="DejaVuSans-34" d="M 2419 4116 
L 825 1625 
L 2419 1625 
L 2419 4116 
z
M 2253 4666 
L 3047 4666 
L 3047 1625 
L 3713 1625 
L 3713 1100 
L 3047 1100 
L 3047 0 
L 2419 0 
L 2419 1100 
L 313 1100 
L 313 1709 
L 2253 4666 
z
" transform="scale(0.015625)"/>
       </defs>
       <use xlink:href="#DejaVuSans-30"/>
       <use xlink:href="#DejaVuSans-2e" x="63.623047"/>
       <use xlink:href="#DejaVuSans-34" x="95.410156"/>
      </g>
     </g>
    </g>
    <g id="xtick_4">
     <g id="line2d_7">
      <path d="M 317.475 312.28 
L 317.475 28.32 
" clip-path="url(#p09801068b1)" style="fill: none; stroke: #808080; stroke-width: 0.8; stroke-linecap: square"/>
     </g>
     <g id="line2d_8">
      <g>
       <use xlink:href="#mf259621848" x="317.475" y="312.28" style="stroke: #000000; stroke-width: 0.8"/>
      </g>
     </g>
     <g id="text_4">
      <!-- 0.6 -->
      <g transform="translate(307.933125 328.398125) scale(0.12 -0.12)">
       <defs>
        <path id="DejaVuSans-36" d="M 2113 2584 
Q 1688 2584 1439 2293 
Q 1191 2003 1191 1497 
Q 1191 994 1439 701 
Q 1688 409 2113 409 
Q 2538 409 2786 701 
Q 3034 994 3034 1497 
Q 3034 2003 2786 2293 
Q 2538 2584 2113 2584 
z
M 3366 4563 
L 3366 3988 
Q 3128 4100 2886 4159 
Q 2644 4219 2406 4219 
Q 1781 4219 1451 3797 
Q 1122 3375 1075 2522 
Q 1259 2794 1537 2939 
Q 1816 3084 2150 3084 
Q 2853 3084 3261 2657 
Q 3669 2231 3669 1497 
Q 3669 778 3244 343 
Q 2819 -91 2113 -91 
Q 1303 -91 875 529 
Q 447 1150 447 2328 
Q 447 3434 972 4092 
Q 1497 4750 2381 4750 
Q 2619 4750 2861 4703 
Q 3103 4656 3366 4563 
z
" transform="scale(0.015625)"/>
       </defs>
       <use xlink:href="#DejaVuSans-30"/>
       <use xlink:href="#DejaVuSans-2e" x="63.623047"/>
       <use xlink:href="#DejaVuSans-36" x="95.410156"/>
      </g>
     </g>
    </g>
    <g id="xtick_5">
     <g id="line2d_9">
      <path d="M 395.575 312.28 
L 395.575 28.32 
" clip-path="url(#p09801068b1)" style="fill: none; stroke: #808080; stroke-width: 0.8; stroke-linecap: square"/>
     </g>
     <g id="line2d_10">
      <g>
       <use xlink:href="#mf259621848" x="395.575" y="312.28" style="stroke: #000000; stroke-width: 0.8"/>
      </g>
     </g>
     <g id="text_5">
      <!-- 0.8 -->
      <g transform="translate(386.033125 328.398125) scale(0.12 -0.12)">
       <defs>
        <path id="DejaVuSans-38" d="M 2034 2216 
Q 1584 2216 1326 1975 
Q 1069 1734 1069 1313 
Q 1069 891 1326 650 
Q 1584 409 2034 409 
Q 2484 409 2743 651 
Q 3003 894 3003 1313 
Q 3003 1734 2745 1975 
Q 2488 2216 2034 2216 
z
M 1403 2484 
Q 997 2584 770 2862 
Q 544 3141 544 3541 
Q 544 4100 942 4425 
Q 1341 4750 2034 4750 
Q 2731 4750 3128 4425 
Q 3525 4100 3525 3541 
Q 3525 3141 3298 2862 
Q 3072 2584 2669 2484 
Q 3125 2378 3379 2068 
Q 3634 1759 3634 1313 
Q 3634 634 3220 271 
Q 2806 -91 2034 -91 
Q 1263 -91 848 271 
Q 434 634 434 1313 
Q 434 1759 690 2068 
Q 947 2378 1403 2484 
z
M 1172 3481 
Q 1172 3119 1398 2916 
Q 1625 2713 2034 2713 
Q 2441 2713 2670 2916 
Q 2900 3119 2900 3481 
Q 2900 3844 2670 4047 
Q 2441 4250 2034 4250 
Q 1625 4250 1398 4047 
Q 1172 3844 1172 3481 
z
" transform="scale(0.015625)"/>
       </defs>
       <use xlink:href="#DejaVuSans-30"/>
       <use xlink:href="#DejaVuSans-2e" x="63.623047"/>
       <use xlink:href="#DejaVuSans-38" x="95.410156"/>
      </g>
     </g>
    </g>
    <g id="xtick_6">
     <g id="line2d_11">
      <path d="M 473.675 312.28 
L 473.675 28.32 
" clip-path="url(#p09801068b1)" style="fill: none; stroke: #808080; stroke-width: 0.8; stroke-linecap: square"/>
     </g>
     <g id="line2d_12">
      <g>
       <use xlink:href="#mf259621848" x="473.675" y="312.28" style="stroke: #000000; stroke-width: 0.8"/>
      </g>
     </g>
     <g id="text_6">
      <!-- 1.0 -->
      <g transform="translate(464.133125 328.398125) scale(0.12 -0.12)">
       <defs>
        <path id="DejaVuSans-31" d="M 794 531 
L 1825 531 
L 1825 4091 
L 703 3866 
L 703 4441 
L 1819 4666 
L 2450 4666 
L 2450 531 
L 3481 531 
L 3481 0 
L 794 0 
L 794 531 
z
" transform="scale(0.015625)"/>
       </defs>
       <use xlink:href="#DejaVuSans-31"/>
       <use xlink:href="#DejaVuSans-2e" x="63.623047"/>
       <use xlink:href="#DejaVuSans-30" x="95.410156"/>
      </g>
     </g>
    </g>
    <g id="text_7">
     <!-- time [us] -->
     <g transform="translate(251.352813 344.011875) scale(0.12 -0.12)">
      <defs>
       <path id="DejaVuSans-74" d="M 1172 4494 
L 1172 3500 
L 2356 3500 
L 2356 3053 
L 1172 3053 
L 1172 1153 
Q 1172 725 1289 603 
Q 1406 481 1766 481 
L 2356 481 
L 2356 0 
L 1766 0 
Q 1100 0 847 248 
Q 594 497 594 1153 
L 594 3053 
L 172 3053 
L 172 3500 
L 594 3500 
L 594 4494 
L 1172 4494 
z
" transform="scale(0.015625)"/>
       <path id="DejaVuSans-69" d="M 603 3500 
L 1178 3500 
L 1178 0 
L 603 0 
L 603 3500 
z
M 603 4863 
L 1178 4863 
L 1178 4134 
L 603 4134 
L 603 4863 
z
" transform="scale(0.015625)"/>
       <path id="DejaVuSans-6d" d="M 3328 2828 
Q 3544 3216 3844 3400 
Q 4144 3584 4550 3584 
Q 5097 3584 5394 3201 
Q 5691 2819 5691 2113 
L 5691 0 
L 5113 0 
L 5113 2094 
Q 5113 2597 4934 2840 
Q 4756 3084 4391 3084 
Q 3944 3084 3684 2787 
Q 3425 2491 3425 1978 
L 3425 0 
L 2847 0 
L 2847 2094 
Q 2847 2600 2669 2842 
Q 2491 3084 2119 3084 
Q 1678 3084 1418 2786 
Q 1159 2488 1159 1978 
L 1159 0 
L 581 0 
L 581 3500 
L 1159 3500 
L 1159 2956 
Q 1356 3278 1631 3431 
Q 1906 3584 2284 3584 
Q 2666 3584 2933 3390 
Q 3200 3197 3328 2828 
z
" transform="scale(0.015625)"/>
       <path id="DejaVuSans-65" d="M 3597 1894 
L 3597 1613 
L 953 1613 
Q 991 1019 1311 708 
Q 1631 397 2203 397 
Q 2534 397 2845 478 
Q 3156 559 3463 722 
L 3463 178 
Q 3153 47 2828 -22 
Q 2503 -91 2169 -91 
Q 1331 -91 842 396 
Q 353 884 353 1716 
Q 353 2575 817 3079 
Q 1281 3584 2069 3584 
Q 2775 3584 3186 3129 
Q 3597 2675 3597 1894 
z
M 3022 2063 
Q 3016 2534 2758 2815 
Q 2500 3097 2075 3097 
Q 1594 3097 1305 2825 
Q 1016 2553 972 2059 
L 3022 2063 
z
" transform="scale(0.015625)"/>
       <path id="DejaVuSans-20" transform="scale(0.015625)"/>
       <path id="DejaVuSans-5b" d="M 550 4863 
L 1875 4863 
L 1875 4416 
L 1125 4416 
L 1125 -397 
L 1875 -397 
L 1875 -844 
L 550 -844 
L 550 4863 
z
" transform="scale(0.015625)"/>
       <path id="DejaVuSans-75" d="M 544 1381 
L 544 3500 
L 1119 3500 
L 1119 1403 
Q 1119 906 1312 657 
Q 1506 409 1894 409 
Q 2359 409 2629 706 
Q 2900 1003 2900 1516 
L 2900 3500 
L 3475 3500 
L 3475 0 
L 2900 0 
L 2900 538 
Q 2691 219 2414 64 
Q 2138 -91 1772 -91 
Q 1169 -91 856 284 
Q 544 659 544 1381 
z
M 1991 3584 
L 1991 3584 
z
" transform="scale(0.015625)"/>
       <path id="DejaVuSans-73" d="M 2834 3397 
L 2834 2853 
Q 2591 2978 2328 3040 
Q 2066 3103 1784 3103 
Q 1356 3103 1142 2972 
Q 928 2841 928 2578 
Q 928 2378 1081 2264 
Q 1234 2150 1697 2047 
L 1894 2003 
Q 2506 1872 2764 1633 
Q 3022 1394 3022 966 
Q 3022 478 2636 193 
Q 2250 -91 1575 -91 
Q 1294 -91 989 -36 
Q 684 19 347 128 
L 347 722 
Q 666 556 975 473 
Q 1284 391 1588 391 
Q 1994 391 2212 530 
Q 2431 669 2431 922 
Q 2431 1156 2273 1281 
Q 2116 1406 1581 1522 
L 1381 1569 
Q 847 1681 609 1914 
Q 372 2147 372 2553 
Q 372 3047 722 3315 
Q 1072 3584 1716 3584 
Q 2034 3584 2315 3537 
Q 2597 3491 2834 3397 
z
" transform="scale(0.015625)"/>
       <path id="DejaVuSans-5d" d="M 1947 4863 
L 1947 -844 
L 622 -844 
L 622 -397 
L 1369 -397 
L 1369 4416 
L 622 4416 
L 622 4863 
L 1947 4863 
z
" transform="scale(0.015625)"/>
      </defs>
      <use xlink:href="#DejaVuSans-74"/>
      <use xlink:href="#DejaVuSans-69" x="39.208984"/>
      <use xlink:href="#DejaVuSans-6d" x="66.992188"/>
      <use xlink:href="#DejaVuSans-65" x="164.404297"/>
      <use xlink:href="#DejaVuSans-20" x="225.927734"/>
      <use xlink:href="#DejaVuSans-5b" x="257.714844"/>
      <use xlink:href="#DejaVuSans-75" x="296.728516"/>
      <use xlink:href="#DejaVuSans-73" x="360.107422"/>
      <use xlink:href="#DejaVuSans-5d" x="412.207031"/>
     </g>
    </g>
   </g>
   <g id="matplotlib.axis_2">
    <g id="ytick_1">
     <g id="line2d_13">
      <path d="M 63.65 303.321041 
L 493.2 303.321041 
" clip-path="url(#p09801068b1)" style="fill: none; stroke: #808080; stroke-width: 0.8; stroke-linecap: square"/>
     </g>
     <g id="line2d_14">
      <defs>
       <path id="m0634b03dab" d="M 0 0 
L -3.5 0 
" style="stroke: #000000; stroke-width: 0.8"/>
      </defs>
      <g>
       <use xlink:href="#m0634b03dab" x="63.65" y="303.321041" style="stroke: #000000; stroke-width: 0.8"/>
      </g>
     </g>
     <g id="text_8">
      <!-- −0.5 -->
      <g transform="translate(27.510625 307.880104) scale(0.12 -0.12)">
       <defs>
        <path id="DejaVuSans-2212" d="M 678 2272 
L 4684 2272 
L 4684 1741 
L 678 1741 
L 678 2272 
z
" transform="scale(0.015625)"/>
        <path id="DejaVuSans-35" d="M 691 4666 
L 3169 4666 
L 3169 4134 
L 1269 4134 
L 1269 2991 
Q 1406 3038 1543 3061 
Q 1681 3084 1819 3084 
Q 2600 3084 3056 2656 
Q 3513 2228 3513 1497 
Q 3513 744 3044 326 
Q 2575 -91 1722 -91 
Q 1428 -91 1123 -41 
Q 819 9 494 109 
L 494 744 
Q 775 591 1075 516 
Q 1375 441 1709 441 
Q 2250 441 2565 725 
Q 2881 1009 2881 1497 
Q 2881 1984 2565 2268 
Q 2250 2553 1709 2553 
Q 1456 2553 1204 2497 
Q 953 2441 691 2322 
L 691 4666 
z
" transform="scale(0.015625)"/>
       </defs>
       <use xlink:href="#DejaVuSans-2212"/>
       <use xlink:href="#DejaVuSans-30" x="83.789062"/>
       <use xlink:href="#DejaVuSans-2e" x="147.412109"/>
       <use xlink:href="#DejaVuSans-35" x="179.199219"/>
      </g>
     </g>
    </g>
    <g id="ytick_2">
     <g id="line2d_15">
      <path d="M 63.65 245.057884 
L 493.2 245.057884 
" clip-path="url(#p09801068b1)" style="fill: none; stroke: #808080; stroke-width: 0.8; stroke-linecap: square"/>
     </g>
     <g id="line2d_16">
      <g>
       <use xlink:href="#m0634b03dab" x="63.65" y="245.057884" style="stroke: #000000; stroke-width: 0.8"/>
      </g>
     </g>
     <g id="text_9">
      <!-- 0.0 -->
      <g transform="translate(37.56625 249.616947) scale(0.12 -0.12)">
       <use xlink:href="#DejaVuSans-30"/>
       <use xlink:href="#DejaVuSans-2e" x="63.623047"/>
       <use xlink:href="#DejaVuSans-30" x="95.410156"/>
      </g>
     </g>
    </g>
    <g id="ytick_3">
     <g id="line2d_17">
      <path d="M 63.65 186.794728 
L 493.2 186.794728 
" clip-path="url(#p09801068b1)" style="fill: none; stroke: #808080; stroke-width: 0.8; stroke-linecap: square"/>
     </g>
     <g id="line2d_18">
      <g>
       <use xlink:href="#m0634b03dab" x="63.65" y="186.794728" style="stroke: #000000; stroke-width: 0.8"/>
      </g>
     </g>
     <g id="text_10">
      <!-- 0.5 -->
      <g transform="translate(37.56625 191.35379) scale(0.12 -0.12)">
       <use xlink:href="#DejaVuSans-30"/>
       <use xlink:href="#DejaVuSans-2e" x="63.623047"/>
       <use xlink:href="#DejaVuSans-35" x="95.410156"/>
      </g>
     </g>
    </g>
    <g id="ytick_4">
     <g id="line2d_19">
      <path d="M 63.65 128.531571 
L 493.2 128.531571 
" clip-path="url(#p09801068b1)" style="fill: none; stroke: #808080; stroke-width: 0.8; stroke-linecap: square"/>
     </g>
     <g id="line2d_20">
      <g>
       <use xlink:href="#m0634b03dab" x="63.65" y="128.531571" style="stroke: #000000; stroke-width: 0.8"/>
      </g>
     </g>
     <g id="text_11">
      <!-- 1.0 -->
      <g transform="translate(37.56625 133.090633) scale(0.12 -0.12)">
       <use xlink:href="#DejaVuSans-31"/>
       <use xlink:href="#DejaVuSans-2e" x="63.623047"/>
       <use xlink:href="#DejaVuSans-30" x="95.410156"/>
      </g>
     </g>
    </g>
    <g id="ytick_5">
     <g id="line2d_21">
      <path d="M 63.65 70.268414 
L 493.2 70.268414 
" clip-path="url(#p09801068b1)" style="fill: none; stroke: #808080; stroke-width: 0.8; stroke-linecap: square"/>
     </g>
     <g id="line2d_22">
      <g>
       <use xlink:href="#m0634b03dab" x="63.65" y="70.268414" style="stroke: #000000; stroke-width: 0.8"/>
      </g>
     </g>
     <g id="text_12">
      <!-- 1.5 -->
      <g transform="translate(37.56625 74.827476) scale(0.12 -0.12)">
       <use xlink:href="#DejaVuSans-31"/>
       <use xlink:href="#DejaVuSans-2e" x="63.623047"/>
       <use xlink:href="#DejaVuSans-35" x="95.410156"/>
      </g>
     </g>
    </g>
    <g id="text_13">
     <!--  [V] -->
     <g transform="translate(21.015 180.993125) rotate(-90) scale(0.12 -0.12)">
      <defs>
       <path id="DejaVuSans-56" d="M 1831 0 
L 50 4666 
L 709 4666 
L 2188 738 
L 3669 4666 
L 4325 4666 
L 2547 0 
L 1831 0 
z
" transform="scale(0.015625)"/>
      </defs>
      <use xlink:href="#DejaVuSans-20"/>
      <use xlink:href="#DejaVuSans-5b" x="31.787109"/>
      <use xlink:href="#DejaVuSans-56" x="70.800781"/>
      <use xlink:href="#DejaVuSans-5d" x="139.208984"/>
     </g>
    </g>
   </g>
   <g id="line2d_23">
    <path d="M 83.175 245.057884 
L 84.053567 245.102429 
L 85.225067 245.530378 
L 86.396567 245.928342 
L 87.177567 245.986075 
L 87.958567 245.78674 
L 88.739567 245.277558 
L 89.520567 244.425959 
L 90.301567 243.218102 
L 91.082567 241.656882 
L 92.254067 238.692641 
L 93.425567 235.07328 
L 94.987567 229.450981 
L 97.330567 219.932369 
L 108.655067 172.271359 
L 112.169567 158.90713 
L 115.684067 146.355866 
L 119.198567 134.583501 
L 122.713067 123.548181 
L 126.227567 113.207224 
L 129.742067 103.519646 
L 133.256567 94.447316 
L 136.771067 85.955941 
L 140.285567 78.016653 
L 143.800067 70.609207 
L 147.314567 63.728742 
L 150.438567 58.073984 
L 153.172067 53.523982 
L 155.515067 49.97607 
L 157.858067 46.835423 
L 159.810567 44.615307 
L 161.372567 43.166835 
L 162.544067 42.310548 
L 163.715567 41.682968 
L 164.887067 41.31423 
L 166.058567 41.234776 
L 167.230067 41.473795 
L 168.401567 42.057566 
L 169.573067 43.007875 
L 170.744567 44.340712 
L 171.916067 46.065368 
L 173.087567 48.184008 
L 174.259067 50.691696 
L 175.821067 54.619446 
L 177.383067 59.173448 
L 179.335567 65.654439 
L 181.678567 74.396293 
L 184.412067 85.560006 
L 193.393567 123.208467 
L 195.346067 130.24689 
L 197.298567 136.435185 
L 198.860567 140.664441 
L 200.422567 144.184119 
L 201.594067 146.333697 
L 202.765567 148.054186 
L 203.937067 149.346232 
L 205.108567 150.218162 
L 205.889567 150.573348 
L 206.670567 150.754539 
L 207.451567 150.768804 
L 208.232567 150.62406 
L 209.404067 150.127728 
L 210.575567 149.323986 
L 211.747067 148.24505 
L 213.309067 146.434352 
L 214.871067 144.266626 
L 216.823567 141.160621 
L 219.166567 137.010688 
L 222.681067 130.278005 
L 231.662567 112.83053 
L 234.786567 107.279119 
L 237.520067 102.815592 
L 239.863067 99.344371 
L 242.206067 96.251477 
L 244.158567 93.997733 
L 246.111067 92.067349 
L 248.063567 90.486239 
L 249.625567 89.488642 
L 251.187567 88.739755 
L 252.749567 88.24752 
L 254.311567 88.017126 
L 255.873567 88.050513 
L 257.435567 88.345947 
L 258.997567 88.897739 
L 260.559567 89.696085 
L 262.121567 90.72708 
L 264.074067 92.315423 
L 266.026567 94.196306 
L 268.369567 96.76812 
L 271.493567 100.56847 
L 279.2841 110.314904 
L 280.4556 111.292469 
L 282.7986 113.070932 
L 283.9701 114.217482 
L 285.1416 115.659772 
L 286.3131 117.45335 
L 287.4846 119.634799 
L 288.6561 122.225585 
L 290.2181 126.330487 
L 291.7801 131.170507 
L 293.3421 136.71332 
L 295.2946 144.552569 
L 297.2471 153.289032 
L 299.5901 164.766804 
L 302.7141 181.36695 
L 307.0096 205.687703 
L 314.4291 247.99113 
L 317.1626 262.312577 
L 319.5056 273.395707 
L 321.4581 281.477892 
L 323.0201 287.015383 
L 324.5821 291.608102 
L 325.7536 294.379915 
L 326.9251 296.547392 
L 327.7061 297.650349 
L 328.4871 298.479054 
L 329.2681 299.035892 
L 330.0491 299.325748 
L 330.8301 299.355837 
L 331.6111 299.135476 
L 332.3921 298.675801 
L 333.1731 297.989462 
L 334.3446 296.565491 
L 335.5161 294.712975 
L 336.6876 292.484209 
L 338.2496 289.017932 
L 340.2021 284.058595 
L 342.5451 277.471437 
L 346.8406 264.580345 
L 351.1361 251.899589 
L 353.8696 244.465954 
L 356.2126 238.70328 
L 358.1651 234.426696 
L 360.1176 230.69462 
L 361.6796 228.136013 
L 363.2416 225.979785 
L 364.8036 224.240811 
L 365.9751 223.215739 
L 367.1466 222.431306 
L 368.3181 221.886325 
L 369.4896 221.577378 
L 370.6611 221.498857 
L 371.8326 221.643058 
L 373.0041 222.000311 
L 374.1756 222.559144 
L 375.7376 223.594999 
L 377.2996 224.930976 
L 379.2521 226.96429 
L 381.2046 229.325932 
L 383.9381 233.023087 
L 393.7006 246.686414 
L 396.0436 249.389222 
L 397.9961 251.325602 
L 399.9486 252.939226 
L 401.5106 253.983422 
L 403.0726 254.802494 
L 404.6346 255.396093 
L 406.1966 255.768305 
L 407.7586 255.927248 
L 409.3206 255.884583 
L 410.8826 255.654974 
L 412.8351 255.131303 
L 414.7876 254.379696 
L 417.1306 253.233571 
L 419.8641 251.650455 
L 424.5501 248.628931 
L 429.6266 245.422503 
L 432.7506 243.703913 
L 435.4841 242.444177 
L 438.2176 241.452357 
L 440.5606 240.831645 
L 442.9036 240.426802 
L 445.2466 240.233164 
L 447.5896 240.238713 
L 450.3231 240.472164 
L 453.4471 240.991293 
L 456.9616 241.816501 
L 462.4286 243.371122 
L 469.0671 245.228857 
L 472.9721 246.106227 
L 473.675 246.239466 
L 473.675 246.239466 
" clip-path="url(#p09801068b1)" style="fill: none; stroke: #ff0000; stroke-width: 2; stroke-linecap: square"/>
   </g>
   <g id="line2d_24">
    <path d="M 83.175 245.057884 
L 84.532447 245.11585 
L 86.484947 245.511996 
L 87.265947 245.42068 
L 88.046947 245.066038 
L 88.827947 244.40085 
L 89.608947 243.399298 
L 90.389947 242.054587 
L 91.561447 239.417838 
L 92.732947 236.112881 
L 94.294947 230.869292 
L 96.247447 223.386893 
L 99.761947 208.734364 
L 105.619447 184.325194 
L 109.524447 169.039278 
L 113.429447 154.711803 
L 116.943947 142.629197 
L 120.458447 131.284216 
L 123.972947 120.639961 
L 127.487447 110.65939 
L 131.001947 101.308115 
L 134.516447 92.556754 
L 138.030947 84.38435 
L 141.545447 76.784719 
L 144.669447 70.526376 
L 147.793447 64.783793 
L 150.526947 60.259686 
L 152.869947 56.846165 
L 154.822447 54.414134 
L 156.384447 52.800666 
L 157.946447 51.540131 
L 159.117947 50.861704 
L 160.289447 50.44055 
L 161.460947 50.301595 
L 162.632447 50.467735 
L 163.803947 50.958526 
L 164.975447 51.789008 
L 166.146947 52.968804 
L 167.318447 54.501553 
L 168.489947 56.384709 
L 170.051947 59.424933 
L 171.613947 63.036158 
L 173.175947 67.166754 
L 175.128447 72.960884 
L 177.471447 80.640428 
L 180.985947 93.0311 
L 185.671947 109.495304 
L 188.014947 116.976664 
L 189.967447 122.541667 
L 191.529447 126.456157 
L 193.091447 129.835296 
L 194.653447 132.64448 
L 195.824947 134.366983 
L 196.996447 135.75948 
L 198.167947 136.827382 
L 199.339447 137.580928 
L 200.510947 138.034462 
L 201.682447 138.205621 
L 202.853947 138.114486 
L 204.025447 137.782777 
L 205.196947 137.233104 
L 206.758947 136.200629 
L 208.320947 134.874483 
L 210.273447 132.880773 
L 212.616447 130.114502 
L 215.740447 126.014535 
L 227.064947 110.708443 
L 229.798447 107.506963 
L 232.531947 104.66188 
L 234.874947 102.552348 
L 236.827447 101.050688 
L 238.779947 99.797726 
L 240.732447 98.804397 
L 242.684947 98.077498 
L 244.637447 97.619207 
L 246.589947 97.4267 
L 248.542447 97.491896 
L 250.494947 97.801428 
L 252.447447 98.336816 
L 254.790447 99.24447 
L 257.133447 100.396094 
L 260.257447 102.217031 
L 264.943447 105.278019 
L 270.410447 108.803011 
L 273.534447 110.568014 
L 276.267947 111.878195 
L 279.2841 113.073153 
L 280.4556 113.264281 
L 282.7986 113.499316 
L 283.9701 113.859746 
L 285.1416 114.509448 
L 286.3131 115.510698 
L 287.4846 116.907864 
L 288.6561 118.730371 
L 289.8276 120.994609 
L 290.9991 123.705574 
L 292.5611 128.005741 
L 294.1231 133.058156 
L 295.6851 138.811849 
L 297.6376 146.893294 
L 299.9806 157.712347 
L 302.7141 171.56617 
L 306.2286 190.726614 
L 316.7721 249.316889 
L 319.1151 260.695301 
L 321.0676 269.129498 
L 322.6296 275.022139 
L 324.1916 280.038403 
L 325.3631 283.174012 
L 326.5346 285.745313 
L 327.7061 287.740552 
L 328.4871 288.750529 
L 329.2681 289.507817 
L 330.0491 290.01796 
L 330.8301 290.288582 
L 331.6111 290.329134 
L 332.3921 290.150611 
L 333.1731 289.765249 
L 333.9541 289.186228 
L 335.1256 287.984963 
L 336.2971 286.42726 
L 337.8591 283.879269 
L 339.4211 280.894475 
L 341.3736 276.706594 
L 344.4976 269.36865 
L 351.1361 253.533331 
L 353.8696 247.664414 
L 356.2126 243.174988 
L 358.1651 239.888055 
L 360.1176 237.058403 
L 361.6796 235.143643 
L 363.2416 233.549032 
L 364.8036 232.278134 
L 366.3656 231.329227 
L 367.9276 230.695434 
L 369.4896 230.364991 
L 371.0516 230.321642 
L 372.6136 230.545137 
L 374.1756 231.011814 
L 375.7376 231.695228 
L 377.6901 232.810622 
L 380.0331 234.45415 
L 382.7666 236.660422 
L 392.5291 244.811791 
L 395.2626 246.644348 
L 397.6056 247.939497 
L 399.9486 248.955506 
L 401.9011 249.58294 
L 403.8536 250.013664 
L 406.1966 250.283132 
L 408.5396 250.30526 
L 410.8826 250.110943 
L 413.6161 249.658677 
L 416.7401 248.91955 
L 421.4261 247.559082 
L 429.2361 245.283283 
L 433.1411 244.383547 
L 436.6556 243.784163 
L 440.1701 243.400964 
L 443.6846 243.228365 
L 447.5896 243.255602 
L 452.2756 243.525323 
L 458.9141 244.160901 
L 469.8481 245.205719 
L 473.675 245.444942 
L 473.675 245.444942 
" clip-path="url(#p09801068b1)" style="fill: none; stroke: #0000ff; stroke-width: 2; stroke-linecap: square"/>
   </g>
   <g id="line2d_25">
    <path d="M 83.175 245.057884 
L 85.439691 245.152326 
L 86.611191 245.156955 
L 87.392191 244.914606 
L 88.173191 244.398525 
L 88.954191 243.569391 
L 89.735191 242.409577 
L 90.516191 240.92005 
L 91.687691 238.10507 
L 92.859191 234.680303 
L 94.421191 229.372305 
L 96.764191 220.383247 
L 101.840691 199.504825 
L 106.526691 180.688288 
L 110.431691 165.915296 
L 114.336691 152.055644 
L 117.851191 140.355075 
L 121.365691 129.360454 
L 124.880191 119.041837 
L 128.394691 109.371093 
L 131.909191 100.326455 
L 135.423691 91.898457 
L 138.547691 84.934262 
L 141.671691 78.501952 
L 144.405191 73.368746 
L 146.748191 69.406679 
L 148.700691 66.478358 
L 150.653191 63.960699 
L 152.215191 62.297405 
L 153.777191 60.997436 
L 154.948691 60.290861 
L 156.120191 59.837252 
L 157.291691 59.655599 
L 158.463191 59.762265 
L 159.634691 60.170004 
L 160.806191 60.887158 
L 161.977691 61.917104 
L 163.149191 63.257951 
L 164.320691 64.902516 
L 165.882691 67.545786 
L 167.444691 70.664557 
L 169.397191 75.146817 
L 171.740191 81.206725 
L 174.864191 90.008836 
L 180.331191 105.494232 
L 182.674191 111.445387 
L 184.626691 115.843061 
L 186.188691 118.923881 
L 187.750691 121.579951 
L 189.312691 123.793378 
L 190.874691 125.560269 
L 192.046191 126.597249 
L 193.217691 127.395515 
L 194.389191 127.965648 
L 195.560691 128.320476 
L 196.732191 128.474503 
L 197.903691 128.443361 
L 199.465691 128.141988 
L 201.027691 127.579502 
L 202.589691 126.794393 
L 204.542191 125.555965 
L 206.885191 123.78064 
L 210.009191 121.090469 
L 221.333691 110.979764 
L 224.457691 108.654149 
L 227.191191 106.914364 
L 229.534191 105.669742 
L 231.877191 104.667388 
L 234.220191 103.913814 
L 236.563191 103.40844 
L 238.906191 103.143724 
L 241.249191 103.105492 
L 243.592191 103.273553 
L 246.325691 103.696322 
L 249.449691 104.420388 
L 253.354691 105.573194 
L 266.241191 109.586597 
L 270.146191 110.451433 
L 273.660691 111.004907 
L 277.175191 111.34094 
L 280.8461 111.473068 
L 282.7986 111.386517 
L 283.9701 111.571477 
L 285.1416 112.042367 
L 286.3131 112.861384 
L 287.4846 114.073827 
L 288.6561 115.710439 
L 289.8276 117.789012 
L 290.9991 120.315923 
L 292.1706 123.287744 
L 293.7326 127.921373 
L 295.2946 133.280326 
L 297.2471 140.909209 
L 299.1996 149.447712 
L 301.5426 160.695036 
L 304.6666 176.981555 
L 308.9621 200.781648 
L 314.8196 233.152907 
L 317.5531 246.990902 
L 319.5056 255.903879 
L 321.4581 263.739264 
L 323.0201 269.087483 
L 324.5821 273.525218 
L 325.7536 276.223752 
L 326.9251 278.372871 
L 328.0966 279.977366 
L 328.8776 280.75216 
L 329.6586 281.299488 
L 330.4396 281.62858 
L 331.2206 281.750127 
L 332.0016 281.675978 
L 332.7826 281.418842 
L 333.9541 280.719191 
L 335.1256 279.683727 
L 336.2971 278.358395 
L 337.8591 276.217333 
L 339.8116 273.078916 
L 342.1546 268.863586 
L 351.5266 251.463925 
L 353.8696 247.767419 
L 355.8221 245.03991 
L 357.7746 242.668911 
L 359.7271 240.675277 
L 361.2891 239.358716 
L 362.8511 238.289565 
L 364.4131 237.463324 
L 365.9751 236.871608 
L 367.5371 236.502539 
L 369.0991 236.341197 
L 370.6611 236.370111 
L 372.6136 236.643941 
L 374.5661 237.143222 
L 376.9091 237.978931 
L 380.0331 239.37088 
L 391.3576 244.739764 
L 394.4816 245.824484 
L 397.2151 246.54487 
L 399.9486 247.04588 
L 402.6821 247.33704 
L 405.8061 247.439767 
L 409.3206 247.313991 
L 413.6161 246.913546 
L 421.0356 245.93796 
L 428.4551 245.046927 
L 433.9221 244.618632 
L 439.3891 244.41717 
L 445.6371 244.42231 
L 454.6186 244.68343 
L 469.8481 245.130068 
L 473.675 245.177506 
L 473.675 245.177506 
" clip-path="url(#p09801068b1)" style="fill: none; stroke: #008000; stroke-width: 2; stroke-linecap: square"/>
   </g>
   <g id="line2d_26">
    <path d="M 83.175 245.057884 
L 86.28338 244.948414 
L 87.06438 244.70627 
L 87.84538 244.208615 
L 88.62638 243.410676 
L 89.40738 242.29101 
L 90.18838 240.848311 
L 91.35988 238.113814 
L 92.53138 234.780665 
L 94.09338 229.610185 
L 96.43638 220.849 
L 101.12238 202.02885 
L 106.19888 181.995375 
L 110.10388 167.454006 
L 114.00888 153.781691 
L 117.91388 140.982754 
L 121.42838 130.192357 
L 124.94288 120.072534 
L 128.45738 110.610068 
L 131.97188 101.805952 
L 135.09588 94.554152 
L 138.21988 87.892924 
L 140.95338 82.621443 
L 143.29638 78.596411 
L 145.24888 75.658311 
L 146.81088 73.62694 
L 148.37288 71.920426 
L 149.93488 70.578983 
L 151.10638 69.83634 
L 152.27788 69.336647 
L 153.44938 69.093107 
L 154.62088 69.116014 
L 155.79238 69.412078 
L 156.96388 69.983918 
L 158.13538 70.82975 
L 159.30688 71.94328 
L 160.47838 73.313792 
L 162.04038 75.514564 
L 163.60238 78.099508 
L 165.55488 81.784863 
L 167.89788 86.70427 
L 177.26988 107.061216 
L 179.22238 110.564975 
L 181.17488 113.602736 
L 182.73688 115.667733 
L 184.29888 117.39743 
L 185.86088 118.792977 
L 187.42288 119.864378 
L 188.98488 120.628746 
L 190.54688 121.108493 
L 192.10888 121.329602 
L 193.67088 121.320097 
L 195.23288 121.10877 
L 197.18538 120.604251 
L 199.52838 119.716671 
L 202.26188 118.399358 
L 206.16688 116.213943 
L 214.36738 111.543526 
L 217.88188 109.842468 
L 221.00588 108.582836 
L 223.73938 107.700946 
L 226.47288 107.033698 
L 229.20638 106.579338 
L 232.33038 106.306685 
L 235.45438 106.269947 
L 238.96888 106.463301 
L 243.26438 106.947686 
L 249.90288 107.968477 
L 258.10338 109.186274 
L 263.57038 109.76107 
L 268.64688 110.073015 
L 274.11388 110.18497 
L 283.48588 110.281144 
L 284.65738 110.660019 
L 285.82888 111.356828 
L 287.00038 112.422091 
L 288.17188 113.891367 
L 289.34338 115.786913 
L 290.51488 118.119189 
L 291.68638 120.888454 
L 293.24838 125.245277 
L 294.81038 130.325739 
L 296.76288 137.612204 
L 298.71538 145.821766 
L 301.05838 156.698832 
L 303.79188 170.491131 
L 307.69688 191.490668 
L 314.33538 227.337862 
L 316.67838 238.863572 
L 318.63088 247.550113 
L 320.58338 255.153226 
L 322.14538 260.32203 
L 323.70738 264.601056 
L 324.87888 267.204718 
L 326.05038 269.288457 
L 327.22188 270.864556 
L 328.39338 271.955921 
L 329.17438 272.429487 
L 329.95538 272.712508 
L 330.73638 272.816937 
L 331.51738 272.755381 
L 332.68888 272.380285 
L 333.86038 271.705237 
L 335.03188 270.773817 
L 336.59388 269.205108 
L 338.54638 266.847187 
L 341.27988 263.085201 
L 348.69938 252.558838 
L 351.04238 249.660639 
L 353.38538 247.11845 
L 355.33788 245.305066 
L 357.29038 243.783807 
L 359.24288 242.557565 
L 361.19538 241.620029 
L 363.14788 240.956954 
L 365.10038 240.547535 
L 367.05288 240.365832 
L 369.39588 240.406498 
L 371.73888 240.677099 
L 374.47238 241.207986 
L 378.37738 242.205336 
L 386.96838 244.462369 
L 390.87338 245.220087 
L 394.38788 245.691155 
L 398.29288 245.983701 
L 402.58838 246.065214 
L 407.66488 245.929482 
L 417.42738 245.380857 
L 426.79938 244.95664 
L 434.99988 244.818923 
L 446.32438 244.883567 
L 471.31638 245.072913 
L 473.675 245.072052 
L 473.675 245.072052 
" clip-path="url(#p09801068b1)" style="fill: none; stroke: #00bfbf; stroke-width: 2; stroke-linecap: square"/>
   </g>
   <g id="line2d_27">
    <path d="M 83.175 245.057884 
L 83.94038 244.949797 
L 86.28338 244.753587 
L 87.06438 244.426975 
L 87.84538 243.838016 
L 88.62638 242.946181 
L 89.40738 241.734908 
L 90.57888 239.331522 
L 91.75038 236.293561 
L 93.31238 231.452383 
L 95.26488 224.528378 
L 98.38888 212.45856 
L 105.80838 183.530721 
L 109.71338 169.226136 
L 113.61838 155.754432 
L 117.52338 143.13496 
L 121.03788 132.502191 
L 124.55238 122.552902 
L 128.06688 113.296837 
L 131.19088 105.679345 
L 133.92438 99.527875 
L 136.65788 93.919965 
L 139.00088 89.615907 
L 140.95338 86.443592 
L 142.90588 83.707248 
L 144.46788 81.87349 
L 146.02988 80.390413 
L 147.20138 79.526468 
L 148.37288 78.887808 
L 149.54438 78.483298 
L 150.71588 78.319051 
L 151.88738 78.397958 
L 153.05888 78.719339 
L 154.23038 79.278768 
L 155.40188 80.06804 
L 156.96388 81.456947 
L 158.52588 83.195589 
L 160.47838 85.788839 
L 162.82138 89.373454 
L 166.33588 95.283952 
L 170.63138 102.45634 
L 172.97438 105.971599 
L 174.92688 108.560719 
L 176.87938 110.789071 
L 178.83188 112.632301 
L 180.39388 113.826467 
L 181.95588 114.777576 
L 183.51788 115.49743 
L 185.07988 116.002081 
L 186.64188 116.310503 
L 188.59438 116.451745 
L 190.54688 116.360797 
L 192.88988 116.003706 
L 195.62338 115.330881 
L 199.13788 114.208376 
L 211.24338 110.111907 
L 214.75788 109.234208 
L 218.27238 108.576755 
L 221.78688 108.143021 
L 225.69188 107.904345 
L 229.98738 107.889576 
L 235.06388 108.111641 
L 244.04538 108.781548 
L 253.02688 109.369838 
L 260.44638 109.624216 
L 268.64688 109.671144 
L 279.97138 109.710376 
L 282.70488 109.813019 
L 283.87638 110.094862 
L 285.04788 110.645394 
L 286.21938 111.523892 
L 287.39088 112.773852 
L 288.56238 114.424859 
L 289.73388 116.494082 
L 290.90538 118.987801 
L 292.46738 122.966805 
L 294.02938 127.666922 
L 295.59138 133.043272 
L 297.54388 140.627299 
L 299.88688 150.825283 
L 302.62038 163.932794 
L 306.13488 182.080274 
L 313.94488 222.967349 
L 316.28788 233.902356 
L 318.24038 242.010491 
L 319.80238 247.680828 
L 321.36438 252.531774 
L 322.53588 255.600084 
L 323.70738 258.170857 
L 324.87888 260.249604 
L 326.05038 261.853434 
L 327.22188 263.009251 
L 328.39338 263.751461 
L 329.56488 264.119552 
L 330.73638 264.155813 
L 331.90788 263.903387 
L 333.07938 263.404747 
L 334.64138 262.426876 
L 336.20338 261.172664 
L 338.54638 258.945212 
L 343.23238 254.021298 
L 346.35638 250.891105 
L 349.08988 248.477012 
L 351.43288 246.723215 
L 353.38538 245.506928 
L 355.33788 244.518686 
L 357.29038 243.753778 
L 359.24288 243.200083 
L 361.58588 242.788881 
L 363.92888 242.616989 
L 366.66238 242.660205 
L 369.78638 242.942467 
L 374.47238 243.618421 
L 382.67288 244.821926 
L 387.35888 245.270884 
L 392.04488 245.500254 
L 397.51188 245.539278 
L 405.71238 245.343252 
L 420.55138 244.981152 
L 432.65688 244.948467 
L 473.675 245.034436 
L 473.675 245.034436 
" clip-path="url(#p09801068b1)" style="fill: none; stroke: #bf00bf; stroke-width: 2; stroke-linecap: square"/>
   </g>
   <g id="line2d_28">
    <path d="M 83.175 245.057884 
L 83.740444 244.9698 
L 86.67388 244.424784 
L 87.45488 243.896144 
L 88.23588 243.075969 
L 89.01688 241.940381 
L 89.79788 240.488283 
L 90.96938 237.756696 
L 92.14088 234.455188 
L 93.70288 229.382143 
L 96.04588 220.880786 
L 101.90338 198.289723 
L 106.58938 180.740088 
L 110.49438 166.92466 
L 114.39938 153.933204 
L 117.91388 142.966749 
L 121.42838 132.700766 
L 124.94288 123.158434 
L 128.06688 115.322933 
L 130.80038 109.016457 
L 133.53388 103.291726 
L 135.87688 98.918029 
L 137.82938 95.705454 
L 139.78188 92.937686 
L 141.34388 91.0776 
L 142.90588 89.558667 
L 144.46788 88.401457 
L 145.63938 87.780108 
L 146.81088 87.374203 
L 147.98238 87.184444 
L 149.15388 87.208508 
L 150.32538 87.440921 
L 151.49688 87.873075 
L 153.05888 88.739496 
L 154.62088 89.904924 
L 156.57338 91.716841 
L 158.91638 94.285113 
L 162.43088 98.570479 
L 166.72638 103.753326 
L 169.06938 106.262876 
L 171.41238 108.424519 
L 173.36488 109.923 
L 175.31738 111.134984 
L 177.26988 112.065562 
L 179.22238 112.731209 
L 181.17488 113.156394 
L 183.12738 113.370487 
L 185.47038 113.393424 
L 188.20388 113.167125 
L 191.32788 112.675356 
L 196.40438 111.607102 
L 203.82388 110.050613 
L 208.50988 109.313963 
L 212.80538 108.868581 
L 217.49138 108.625718 
L 222.56788 108.595623 
L 229.59688 108.800902 
L 247.95038 109.435969 
L 258.49388 109.498086 
L 279.58088 109.542086 
L 283.09538 109.933494 
L 284.26688 110.365333 
L 285.43838 111.081093 
L 286.60988 112.132162 
L 287.78138 113.555448 
L 288.95288 115.374952 
L 290.12438 117.603209 
L 291.29588 120.242813 
L 292.85788 124.391215 
L 294.41988 129.228246 
L 296.37238 136.170141 
L 298.32488 143.999559 
L 300.66788 154.382793 
L 303.40138 167.549316 
L 307.69688 189.545124 
L 312.38288 213.341283 
L 314.72588 224.238948 
L 316.67838 232.394891 
L 318.24038 238.149116 
L 319.80238 243.12007 
L 321.36438 247.2537 
L 322.53588 249.794932 
L 323.70738 251.866439 
L 324.87888 253.489201 
L 326.05038 254.693447 
L 327.22188 255.516087 
L 328.39338 255.998144 
L 329.56488 256.182455 
L 330.73638 256.111806 
L 331.90788 255.827543 
L 333.46988 255.183154 
L 335.42238 254.067551 
L 338.15588 252.173134 
L 344.01338 247.993896 
L 346.74688 246.370127 
L 349.08988 245.242786 
L 351.43288 244.37925 
L 353.77588 243.775806 
L 356.11888 243.412417 
L 358.46188 243.257528 
L 361.19538 243.288711 
L 364.70988 243.562782 
L 371.34838 244.372851 
L 377.20588 244.996051 
L 382.28238 245.308637 
L 387.74938 245.410863 
L 395.16888 245.305453 
L 413.52238 244.97498 
L 430.31388 245.00754 
L 462.72538 245.030007 
L 473.675 245.026092 
L 473.675 245.026092 
" clip-path="url(#p09801068b1)" style="fill: none; stroke: #bfbf00; stroke-width: 2; stroke-linecap: square"/>
   </g>
   <g id="line2d_29">
    <path d="M 83.175 245.057884 
L 83.740444 244.964143 
L 86.28338 244.461912 
L 87.06438 243.998196 
L 87.84538 243.256685 
L 88.62638 242.20423 
L 89.40738 240.833132 
L 90.57888 238.211619 
L 91.75038 235.004779 
L 93.31238 230.041162 
L 95.65538 221.692758 
L 101.90338 198.040704 
L 106.58938 180.896005 
L 110.49438 167.419299 
L 114.39938 154.767842 
L 117.91388 144.123243 
L 121.42838 134.217637 
L 124.55238 126.078209 
L 127.28588 119.52183 
L 130.01938 113.559374 
L 132.36238 108.985421 
L 134.31488 105.60125 
L 136.26738 102.648979 
L 137.82938 100.62513 
L 139.39138 98.921632 
L 140.95338 97.552882 
L 142.51538 96.527775 
L 143.68688 95.98594 
L 144.85838 95.636638 
L 146.02988 95.475193 
L 147.20138 95.49429 
L 148.76338 95.783176 
L 150.32538 96.345296 
L 151.88738 97.144373 
L 153.83988 98.413349 
L 156.18288 100.216817 
L 165.16438 107.445307 
L 167.50738 108.898268 
L 169.85038 110.058786 
L 171.80288 110.796627 
L 173.75538 111.334009 
L 176.09838 111.737049 
L 178.44138 111.911567 
L 181.17488 111.882721 
L 184.29888 111.626471 
L 188.98488 110.989943 
L 198.74738 109.597977 
L 203.82388 109.13541 
L 208.90038 108.904599 
L 214.75788 108.873808 
L 223.73938 109.086636 
L 238.18788 109.410117 
L 251.07438 109.431935 
L 278.890476 109.407229 
L 279.97138 109.591505 
L 282.70488 109.976316 
L 283.87638 110.383005 
L 285.04788 111.048746 
L 286.21938 112.027576 
L 287.39088 113.359051 
L 288.56238 115.069863 
L 289.73388 117.175226 
L 290.90538 119.680329 
L 292.46738 123.635508 
L 294.02938 128.268118 
L 295.59138 133.535406 
L 297.54388 140.928678 
L 299.88688 150.823378 
L 302.62038 163.475179 
L 306.52538 182.808153 
L 311.60188 207.909735 
L 313.94488 218.471098 
L 315.89738 226.330765 
L 317.45938 231.838729 
L 319.02138 236.562592 
L 320.58338 240.460316 
L 321.75488 242.841012 
L 322.92638 244.77345 
L 324.09788 246.284775 
L 325.26938 247.410352 
L 326.44088 248.19088 
L 327.61238 248.669721 
L 328.78388 248.890666 
L 329.95538 248.896253 
L 331.51738 248.63761 
L 333.07938 248.153367 
L 335.42238 247.165228 
L 342.84188 243.809811 
L 345.18488 243.05581 
L 347.52788 242.528583 
L 349.87088 242.230256 
L 352.21388 242.143074 
L 354.94738 242.265464 
L 358.46188 242.677907 
L 365.10038 243.772139 
L 370.56738 244.555462 
L 374.86288 244.952982 
L 379.54888 245.161485 
L 385.40638 245.182319 
L 414.30338 244.945393 
L 442.80988 245.031757 
L 473.675 245.02634 
L 473.675 245.02634 
" clip-path="url(#p09801068b1)" style="fill: none; stroke: #000000; stroke-width: 2; stroke-linecap: square"/>
   </g>
   <g id="line2d_30">
    <path d="M 83.175 245.057884 
L 83.740444 244.959602 
L 86.28338 244.350214 
L 87.06438 243.830639 
L 87.84538 243.025473 
L 88.62638 241.904644 
L 89.40738 240.464326 
L 90.57888 237.746448 
L 91.75038 234.462914 
L 93.31238 229.440116 
L 95.65538 221.098715 
L 106.97988 179.717041 
L 110.88488 166.671088 
L 114.39938 155.657368 
L 117.91388 145.383581 
L 121.03788 136.923302 
L 123.77138 130.091434 
L 126.50488 123.854648 
L 128.84788 119.040232 
L 131.19088 114.775428 
L 133.14338 111.683673 
L 135.09588 109.045889 
L 136.65788 107.279573 
L 138.21988 105.827883 
L 139.78188 104.693112 
L 141.34388 103.87098 
L 142.90588 103.350138 
L 144.46788 103.112156 
L 146.02988 103.131993 
L 147.59188 103.378877 
L 149.54438 103.952732 
L 151.88738 104.930709 
L 155.40188 106.713268 
L 160.08788 109.064497 
L 162.82138 110.177868 
L 165.16438 110.911146 
L 167.50738 111.426865 
L 169.85038 111.733256 
L 172.58388 111.856412 
L 175.70788 111.749344 
L 179.61288 111.363821 
L 196.40438 109.368272 
L 201.48088 109.133841 
L 207.72888 109.084486 
L 218.27238 109.277839 
L 231.54938 109.449206 
L 248.73138 109.388021 
L 276.45688 109.345206 
L 278.990444 109.449866 
L 280.36188 109.68383 
L 282.31438 110.007211 
L 283.48588 110.387916 
L 284.65738 111.004159 
L 285.82888 111.912528 
L 287.00038 113.155042 
L 288.17188 114.760885 
L 289.34338 116.747787 
L 290.51488 119.123386 
L 292.07688 122.89271 
L 293.63888 127.328899 
L 295.20088 132.393416 
L 297.15338 139.529387 
L 299.49638 149.115644 
L 302.22988 161.4122 
L 306.13488 180.235143 
L 310.82088 202.783556 
L 313.16388 213.071195 
L 315.11638 220.696306 
L 316.67838 226.010494 
L 318.24038 230.539108 
L 319.41188 233.398075 
L 320.58338 235.798786 
L 321.75488 237.758712 
L 322.92638 239.306964 
L 324.09788 240.481205 
L 325.26938 241.324413 
L 326.44088 241.881923 
L 327.61238 242.199027 
L 328.78388 242.31921 
L 330.34588 242.24266 
L 332.29838 241.885023 
L 335.42238 241.024118 
L 339.32738 239.976892 
L 342.06088 239.495588 
L 344.40388 239.313032 
L 346.74688 239.350336 
L 349.48038 239.646376 
L 352.60438 240.245643 
L 357.29038 241.430608 
L 363.53838 242.991984 
L 367.44338 243.730107 
L 371.34838 244.227467 
L 375.64388 244.524209 
L 380.72038 244.638687 
L 473.675 245.022385 
L 473.675 245.022385 
" clip-path="url(#p09801068b1)" style="fill: none; stroke: #ff0000; stroke-width: 2; stroke-linecap: square"/>
   </g>
   <g id="line2d_31">
    <path d="M 83.175 245.057884 
L 83.740444 244.955876 
L 85.89288 244.445922 
L 86.67388 244.004183 
L 87.45488 243.294109 
L 88.23588 242.273563 
L 89.01688 240.929257 
L 90.18838 238.335303 
L 91.35988 235.147225 
L 92.92188 230.216758 
L 95.26488 221.980959 
L 105.80838 183.896555 
L 109.71338 170.958923 
L 113.22788 160.057436 
L 116.35188 151.012603 
L 119.47588 142.635702 
L 122.20938 135.914694 
L 124.55238 130.658391 
L 126.89538 125.919012 
L 128.84788 122.401441 
L 130.80038 119.306589 
L 132.75288 116.657525 
L 134.31488 114.869311 
L 135.87688 113.377855 
L 137.43888 112.179381 
L 139.00088 111.263872 
L 140.56288 110.615003 
L 142.12488 110.210515 
L 143.68688 110.022977 
L 145.63938 110.045368 
L 147.59188 110.290188 
L 150.32538 110.875081 
L 158.13538 112.733009 
L 160.86888 113.107548 
L 163.60238 113.267327 
L 166.72638 113.200624 
L 170.24088 112.868398 
L 174.92688 112.162477 
L 185.86088 110.423744 
L 190.93738 109.902479 
L 196.01388 109.612059 
L 202.26188 109.497892 
L 214.36738 109.576277 
L 228.03488 109.561322 
L 265.13238 109.365397 
L 278.990444 109.472667 
L 280.75238 109.792155 
L 282.31438 110.112612 
L 283.48588 110.53231 
L 284.65738 111.186613 
L 285.82888 112.129481 
L 287.00038 113.400834 
L 288.17188 115.028233 
L 289.34338 117.028229 
L 290.51488 119.407691 
L 292.07688 123.167147 
L 293.63888 127.576202 
L 295.20088 132.596757 
L 297.15338 139.655148 
L 299.49638 149.116284 
L 302.22988 161.220643 
L 306.52538 181.52137 
L 310.43038 199.702422 
L 312.77338 209.5965 
L 314.72588 216.83933 
L 316.28788 221.816564 
L 317.84988 225.99298 
L 319.02138 228.588386 
L 320.19288 230.735652 
L 321.36438 232.460897 
L 322.53588 233.800951 
L 323.70738 234.79967 
L 324.87888 235.504412 
L 326.05038 235.963082 
L 327.22188 236.22192 
L 328.78388 236.330142 
L 330.73638 236.210327 
L 334.64138 235.642804 
L 337.76538 235.294016 
L 340.10838 235.244236 
L 342.45138 235.419862 
L 344.79438 235.821723 
L 347.52788 236.540736 
L 350.65188 237.602089 
L 361.19538 241.409132 
L 364.31938 242.225455 
L 367.44338 242.831646 
L 370.95788 243.285181 
L 375.25338 243.589654 
L 381.50138 243.770208 
L 395.94988 244.136614 
L 415.08438 244.730177 
L 429.53288 244.864965 
L 473.675 245.004533 
L 473.675 245.004533 
" clip-path="url(#p09801068b1)" style="fill: none; stroke: #0000ff; stroke-width: 2; stroke-linecap: square"/>
   </g>
   <g id="line2d_32">
    <path d="M 83.175 245.057884 
L 83.740444 244.952765 
L 85.89288 244.382085 
L 86.67388 243.90098 
L 87.45488 243.143489 
L 88.23588 242.069363 
L 89.01688 240.668128 
L 90.18838 237.990012 
L 91.35988 234.729286 
L 92.92188 229.733645 
L 95.65538 220.060614 
L 103.46538 191.963953 
L 107.37038 178.871401 
L 110.88488 167.82582 
L 114.00888 158.658262 
L 117.13288 150.170963 
L 119.86638 143.367951 
L 122.20938 138.053448 
L 124.55238 133.265461 
L 126.50488 129.711354 
L 128.45738 126.57857 
L 130.40988 123.883595 
L 131.97188 122.047562 
L 133.53388 120.493604 
L 135.09588 119.213479 
L 136.65788 118.193018 
L 138.21988 117.41239 
L 139.78188 116.846741 
L 141.73438 116.397707 
L 143.68688 116.177099 
L 146.42038 116.129252 
L 156.96388 116.290393 
L 160.08788 115.98531 
L 163.60238 115.412989 
L 168.28838 114.39636 
L 178.83188 112.026834 
L 183.51788 111.257063 
L 188.20388 110.727903 
L 193.28038 110.390457 
L 199.91888 110.191802 
L 248.34088 109.47037 
L 278.64368 109.415337 
L 283.09538 110.493154 
L 284.26688 111.097067 
L 285.43838 111.971268 
L 286.60988 113.157986 
L 287.78138 114.687019 
L 288.95288 116.577126 
L 290.12438 118.837327 
L 291.68638 122.42669 
L 293.24838 126.656975 
L 294.81038 131.493858 
L 296.76288 138.32046 
L 299.10588 147.50607 
L 301.83938 159.297772 
L 306.13488 179.118651 
L 310.03988 196.821005 
L 312.38288 206.367167 
L 314.33538 213.271678 
L 315.89738 217.950057 
L 317.45938 221.813793 
L 318.63088 224.175286 
L 319.80238 226.097867 
L 320.97388 227.615379 
L 322.14538 228.771427 
L 323.31688 229.615183 
L 324.48838 230.197662 
L 325.65988 230.568818 
L 327.22188 230.815423 
L 329.17438 230.861515 
L 337.37488 230.708148 
L 339.71788 231.059971 
L 342.06088 231.663234 
L 344.40388 232.496294 
L 347.13738 233.695726 
L 351.82338 236.040357 
L 356.50938 238.300505 
L 359.63338 239.563553 
L 362.36688 240.454189 
L 365.49088 241.22268 
L 368.61488 241.75605 
L 372.51988 242.175141 
L 377.98688 242.508106 
L 392.43538 243.311109 
L 406.88388 244.178331 
L 416.25588 244.471097 
L 432.26638 244.693902 
L 464.28738 244.939463 
L 473.675 244.964551 
L 473.675 244.964551 
" clip-path="url(#p09801068b1)" style="fill: none; stroke: #008000; stroke-width: 2; stroke-linecap: square"/>
   </g>
   <g id="patch_3">
    <path d="M 63.65 312.28 
L 63.65 28.32 
" style="fill: none; stroke: #000000; stroke-width: 0.8; stroke-linejoin: miter; stroke-linecap: square"/>
   </g>
   <g id="patch_4">
    <path d="M 493.2 312.28 
L 493.2 28.32 
" style="fill: none; stroke: #000000; stroke-width: 0.8; stroke-linejoin: miter; stroke-linecap: square"/>
   </g>
   <g id="patch_5">
    <path d="M 63.65 312.28 
L 493.2 312.28 
" style="fill: none; stroke: #000000; stroke-width: 0.8; stroke-linejoin: miter; stroke-linecap: square"/>
   </g>
   <g id="patch_6">
    <path d="M 63.65 28.32 
L 493.2 28.32 
" style="fill: none; stroke: #000000; stroke-width: 0.8; stroke-linejoin: miter; stroke-linecap: square"/>
   </g>
   <g id="text_14">
    <!-- Pulse $V_{out}$, stepped $C_c$ -->
    <g transform="translate(212.785 22.32) scale(0.12 -0.12)">
     <defs>
      <path id="DejaVuSans-50" d="M 1259 4147 
L 1259 2394 
L 2053 2394 
Q 2494 2394 2734 2622 
Q 2975 2850 2975 3272 
Q 2975 3691 2734 3919 
Q 2494 4147 2053 4147 
L 1259 4147 
z
M 628 4666 
L 2053 4666 
Q 2838 4666 3239 4311 
Q 3641 3956 3641 3272 
Q 3641 2581 3239 2228 
Q 2838 1875 2053 1875 
L 1259 1875 
L 1259 0 
L 628 0 
L 628 4666 
z
" transform="scale(0.015625)"/>
      <path id="DejaVuSans-6c" d="M 603 4863 
L 1178 4863 
L 1178 0 
L 603 0 
L 603 4863 
z
" transform="scale(0.015625)"/>
      <path id="DejaVuSans-Oblique-56" d="M 1319 0 
L 500 4666 
L 1119 4666 
L 1797 653 
L 4063 4666 
L 4750 4666 
L 2053 0 
L 1319 0 
z
" transform="scale(0.015625)"/>
      <path id="DejaVuSans-Oblique-6f" d="M 1625 -91 
Q 1009 -91 651 289 
Q 294 669 294 1325 
Q 294 1706 417 2101 
Q 541 2497 738 2766 
Q 1047 3184 1428 3384 
Q 1809 3584 2291 3584 
Q 2888 3584 3255 3212 
Q 3622 2841 3622 2241 
Q 3622 1825 3500 1412 
Q 3378 1000 3181 728 
Q 2875 309 2494 109 
Q 2113 -91 1625 -91 
z
M 891 1344 
Q 891 869 1089 633 
Q 1288 397 1691 397 
Q 2269 397 2648 901 
Q 3028 1406 3028 2181 
Q 3028 2634 2825 2865 
Q 2622 3097 2228 3097 
Q 1903 3097 1650 2945 
Q 1397 2794 1197 2484 
Q 1050 2253 970 1956 
Q 891 1659 891 1344 
z
" transform="scale(0.015625)"/>
      <path id="DejaVuSans-Oblique-75" d="M 428 1388 
L 838 3500 
L 1416 3500 
L 1006 1409 
Q 975 1256 961 1147 
Q 947 1038 947 966 
Q 947 700 1109 554 
Q 1272 409 1569 409 
Q 2031 409 2368 721 
Q 2706 1034 2809 1563 
L 3194 3500 
L 3769 3500 
L 3091 0 
L 2516 0 
L 2631 550 
Q 2388 244 2052 76 
Q 1716 -91 1338 -91 
Q 878 -91 622 161 
Q 366 413 366 863 
Q 366 956 381 1097 
Q 397 1238 428 1388 
z
" transform="scale(0.015625)"/>
      <path id="DejaVuSans-Oblique-74" d="M 2706 3500 
L 2619 3053 
L 1472 3053 
L 1100 1153 
Q 1081 1047 1072 975 
Q 1063 903 1063 863 
Q 1063 663 1183 572 
Q 1303 481 1569 481 
L 2150 481 
L 2053 0 
L 1503 0 
Q 991 0 739 200 
Q 488 400 488 806 
Q 488 878 497 964 
Q 506 1050 525 1153 
L 897 3053 
L 409 3053 
L 500 3500 
L 978 3500 
L 1172 4494 
L 1747 4494 
L 1556 3500 
L 2706 3500 
z
" transform="scale(0.015625)"/>
      <path id="DejaVuSans-2c" d="M 750 794 
L 1409 794 
L 1409 256 
L 897 -744 
L 494 -744 
L 750 256 
L 750 794 
z
" transform="scale(0.015625)"/>
      <path id="DejaVuSans-70" d="M 1159 525 
L 1159 -1331 
L 581 -1331 
L 581 3500 
L 1159 3500 
L 1159 2969 
Q 1341 3281 1617 3432 
Q 1894 3584 2278 3584 
Q 2916 3584 3314 3078 
Q 3713 2572 3713 1747 
Q 3713 922 3314 415 
Q 2916 -91 2278 -91 
Q 1894 -91 1617 61 
Q 1341 213 1159 525 
z
M 3116 1747 
Q 3116 2381 2855 2742 
Q 2594 3103 2138 3103 
Q 1681 3103 1420 2742 
Q 1159 2381 1159 1747 
Q 1159 1113 1420 752 
Q 1681 391 2138 391 
Q 2594 391 2855 752 
Q 3116 1113 3116 1747 
z
" transform="scale(0.015625)"/>
      <path id="DejaVuSans-64" d="M 2906 2969 
L 2906 4863 
L 3481 4863 
L 3481 0 
L 2906 0 
L 2906 525 
Q 2725 213 2448 61 
Q 2172 -91 1784 -91 
Q 1150 -91 751 415 
Q 353 922 353 1747 
Q 353 2572 751 3078 
Q 1150 3584 1784 3584 
Q 2172 3584 2448 3432 
Q 2725 3281 2906 2969 
z
M 947 1747 
Q 947 1113 1208 752 
Q 1469 391 1925 391 
Q 2381 391 2643 752 
Q 2906 1113 2906 1747 
Q 2906 2381 2643 2742 
Q 2381 3103 1925 3103 
Q 1469 3103 1208 2742 
Q 947 2381 947 1747 
z
" transform="scale(0.015625)"/>
      <path id="DejaVuSans-Oblique-43" d="M 4447 4306 
L 4319 3641 
Q 4019 3944 3683 4091 
Q 3347 4238 2956 4238 
Q 2422 4238 2017 3981 
Q 1613 3725 1319 3200 
Q 1131 2863 1032 2486 
Q 934 2109 934 1728 
Q 934 1091 1264 756 
Q 1594 422 2222 422 
Q 2656 422 3056 561 
Q 3456 700 3834 978 
L 3688 231 
Q 3316 72 2936 -9 
Q 2556 -91 2175 -91 
Q 1278 -91 773 396 
Q 269 884 269 1753 
Q 269 2309 461 2846 
Q 653 3384 1013 3828 
Q 1394 4300 1883 4525 
Q 2372 4750 3022 4750 
Q 3422 4750 3780 4639 
Q 4138 4528 4447 4306 
z
" transform="scale(0.015625)"/>
      <path id="DejaVuSans-Oblique-63" d="M 3431 3366 
L 3316 2797 
Q 3109 2947 2876 3022 
Q 2644 3097 2394 3097 
Q 2119 3097 1870 3000 
Q 1622 2903 1453 2725 
Q 1184 2453 1037 2087 
Q 891 1722 891 1331 
Q 891 859 1127 628 
Q 1363 397 1844 397 
Q 2081 397 2348 469 
Q 2616 541 2906 684 
L 2797 116 
Q 2547 13 2283 -39 
Q 2019 -91 1741 -91 
Q 1044 -91 669 257 
Q 294 606 294 1253 
Q 294 1797 489 2255 
Q 684 2713 1069 3078 
Q 1331 3328 1684 3456 
Q 2038 3584 2456 3584 
Q 2700 3584 2940 3529 
Q 3181 3475 3431 3366 
z
" transform="scale(0.015625)"/>
     </defs>
     <use xlink:href="#DejaVuSans-50" transform="translate(0 0.015625)"/>
     <use xlink:href="#DejaVuSans-75" transform="translate(60.302734 0.015625)"/>
     <use xlink:href="#DejaVuSans-6c" transform="translate(123.681641 0.015625)"/>
     <use xlink:href="#DejaVuSans-73" transform="translate(151.464844 0.015625)"/>
     <use xlink:href="#DejaVuSans-65" transform="translate(203.564453 0.015625)"/>
     <use xlink:href="#DejaVuSans-20" transform="translate(265.087891 0.015625)"/>
     <use xlink:href="#DejaVuSans-Oblique-56" transform="translate(296.875 0.015625)"/>
     <use xlink:href="#DejaVuSans-Oblique-6f" transform="translate(365.283203 -16.390625) scale(0.7)"/>
     <use xlink:href="#DejaVuSans-Oblique-75" transform="translate(408.110352 -16.390625) scale(0.7)"/>
     <use xlink:href="#DejaVuSans-Oblique-74" transform="translate(452.475586 -16.390625) scale(0.7)"/>
     <use xlink:href="#DejaVuSans-2c" transform="translate(482.65625 0.015625)"/>
     <use xlink:href="#DejaVuSans-20" transform="translate(514.443359 0.015625)"/>
     <use xlink:href="#DejaVuSans-73" transform="translate(546.230469 0.015625)"/>
     <use xlink:href="#DejaVuSans-74" transform="translate(598.330078 0.015625)"/>
     <use xlink:href="#DejaVuSans-65" transform="translate(637.539062 0.015625)"/>
     <use xlink:href="#DejaVuSans-70" transform="translate(699.0625 0.015625)"/>
     <use xlink:href="#DejaVuSans-70" transform="translate(762.539062 0.015625)"/>
     <use xlink:href="#DejaVuSans-65" transform="translate(826.015625 0.015625)"/>
     <use xlink:href="#DejaVuSans-64" transform="translate(887.539062 0.015625)"/>
     <use xlink:href="#DejaVuSans-20" transform="translate(951.015625 0.015625)"/>
     <use xlink:href="#DejaVuSans-Oblique-43" transform="translate(982.802734 0.015625)"/>
     <use xlink:href="#DejaVuSans-Oblique-63" transform="translate(1052.626953 -16.390625) scale(0.7)"/>
    </g>
   </g>
   <g id="legend_1">
    <g id="patch_7">
     <path d="M 351.561875 156.795 
L 486.2 156.795 
Q 488.2 156.795 488.2 154.795 
L 488.2 35.32 
Q 488.2 33.32 486.2 33.32 
L 351.561875 33.32 
Q 349.561875 33.32 349.561875 35.32 
L 349.561875 154.795 
Q 349.561875 156.795 351.561875 156.795 
z
" style="fill: #ffffff; opacity: 0.8; stroke: #cccccc; stroke-linejoin: miter"/>
    </g>
    <g id="line2d_33">
     <path d="M 351.561875 40.938125 
L 356.561875 40.938125 
L 361.561875 40.938125 
" style="fill: none; stroke: #ff0000; stroke-width: 2; stroke-linecap: square"/>
    </g>
    <g id="text_15">
     <!-- V_out:C_c=2.00e-12 -->
     <g transform="translate(363.561875 44.438125) scale(0.12 -0.12)">
      <defs>
       <path id="DejaVuSans-5f" d="M 3263 -1063 
L 3263 -1509 
L -63 -1509 
L -63 -1063 
L 3263 -1063 
z
" transform="scale(0.015625)"/>
       <path id="DejaVuSans-6f" d="M 1959 3097 
Q 1497 3097 1228 2736 
Q 959 2375 959 1747 
Q 959 1119 1226 758 
Q 1494 397 1959 397 
Q 2419 397 2687 759 
Q 2956 1122 2956 1747 
Q 2956 2369 2687 2733 
Q 2419 3097 1959 3097 
z
M 1959 3584 
Q 2709 3584 3137 3096 
Q 3566 2609 3566 1747 
Q 3566 888 3137 398 
Q 2709 -91 1959 -91 
Q 1206 -91 779 398 
Q 353 888 353 1747 
Q 353 2609 779 3096 
Q 1206 3584 1959 3584 
z
" transform="scale(0.015625)"/>
       <path id="DejaVuSans-3a" d="M 750 794 
L 1409 794 
L 1409 0 
L 750 0 
L 750 794 
z
M 750 3309 
L 1409 3309 
L 1409 2516 
L 750 2516 
L 750 3309 
z
" transform="scale(0.015625)"/>
       <path id="DejaVuSans-43" d="M 4122 4306 
L 4122 3641 
Q 3803 3938 3442 4084 
Q 3081 4231 2675 4231 
Q 1875 4231 1450 3742 
Q 1025 3253 1025 2328 
Q 1025 1406 1450 917 
Q 1875 428 2675 428 
Q 3081 428 3442 575 
Q 3803 722 4122 1019 
L 4122 359 
Q 3791 134 3420 21 
Q 3050 -91 2638 -91 
Q 1578 -91 968 557 
Q 359 1206 359 2328 
Q 359 3453 968 4101 
Q 1578 4750 2638 4750 
Q 3056 4750 3426 4639 
Q 3797 4528 4122 4306 
z
" transform="scale(0.015625)"/>
       <path id="DejaVuSans-63" d="M 3122 3366 
L 3122 2828 
Q 2878 2963 2633 3030 
Q 2388 3097 2138 3097 
Q 1578 3097 1268 2742 
Q 959 2388 959 1747 
Q 959 1106 1268 751 
Q 1578 397 2138 397 
Q 2388 397 2633 464 
Q 2878 531 3122 666 
L 3122 134 
Q 2881 22 2623 -34 
Q 2366 -91 2075 -91 
Q 1284 -91 818 406 
Q 353 903 353 1747 
Q 353 2603 823 3093 
Q 1294 3584 2113 3584 
Q 2378 3584 2631 3529 
Q 2884 3475 3122 3366 
z
" transform="scale(0.015625)"/>
       <path id="DejaVuSans-3d" d="M 678 2906 
L 4684 2906 
L 4684 2381 
L 678 2381 
L 678 2906 
z
M 678 1631 
L 4684 1631 
L 4684 1100 
L 678 1100 
L 678 1631 
z
" transform="scale(0.015625)"/>
       <path id="DejaVuSans-2d" d="M 313 2009 
L 1997 2009 
L 1997 1497 
L 313 1497 
L 313 2009 
z
" transform="scale(0.015625)"/>
      </defs>
      <use xlink:href="#DejaVuSans-56"/>
      <use xlink:href="#DejaVuSans-5f" x="68.408203"/>
      <use xlink:href="#DejaVuSans-6f" x="118.408203"/>
      <use xlink:href="#DejaVuSans-75" x="179.589844"/>
      <use xlink:href="#DejaVuSans-74" x="242.96875"/>
      <use xlink:href="#DejaVuSans-3a" x="282.177734"/>
      <use xlink:href="#DejaVuSans-43" x="315.869141"/>
      <use xlink:href="#DejaVuSans-5f" x="385.693359"/>
      <use xlink:href="#DejaVuSans-63" x="435.693359"/>
      <use xlink:href="#DejaVuSans-3d" x="490.673828"/>
      <use xlink:href="#DejaVuSans-32" x="574.462891"/>
      <use xlink:href="#DejaVuSans-2e" x="638.085938"/>
      <use xlink:href="#DejaVuSans-30" x="669.873047"/>
      <use xlink:href="#DejaVuSans-30" x="733.496094"/>
      <use xlink:href="#DejaVuSans-65" x="797.119141"/>
      <use xlink:href="#DejaVuSans-2d" x="858.642578"/>
      <use xlink:href="#DejaVuSans-31" x="894.726562"/>
      <use xlink:href="#DejaVuSans-32" x="958.349609"/>
     </g>
    </g>
    <g id="line2d_34">
     <path d="M 351.561875 52.885625 
L 356.561875 52.885625 
L 361.561875 52.885625 
" style="fill: none; stroke: #0000ff; stroke-width: 2; stroke-linecap: square"/>
    </g>
    <g id="text_16">
     <!-- V_out:C_c=4.00e-12 -->
     <g transform="translate(363.561875 56.385625) scale(0.12 -0.12)">
      <use xlink:href="#DejaVuSans-56"/>
      <use xlink:href="#DejaVuSans-5f" x="68.408203"/>
      <use xlink:href="#DejaVuSans-6f" x="118.408203"/>
      <use xlink:href="#DejaVuSans-75" x="179.589844"/>
      <use xlink:href="#DejaVuSans-74" x="242.96875"/>
      <use xlink:href="#DejaVuSans-3a" x="282.177734"/>
      <use xlink:href="#DejaVuSans-43" x="315.869141"/>
      <use xlink:href="#DejaVuSans-5f" x="385.693359"/>
      <use xlink:href="#DejaVuSans-63" x="435.693359"/>
      <use xlink:href="#DejaVuSans-3d" x="490.673828"/>
      <use xlink:href="#DejaVuSans-34" x="574.462891"/>
      <use xlink:href="#DejaVuSans-2e" x="638.085938"/>
      <use xlink:href="#DejaVuSans-30" x="669.873047"/>
      <use xlink:href="#DejaVuSans-30" x="733.496094"/>
      <use xlink:href="#DejaVuSans-65" x="797.119141"/>
      <use xlink:href="#DejaVuSans-2d" x="858.642578"/>
      <use xlink:href="#DejaVuSans-31" x="894.726562"/>
      <use xlink:href="#DejaVuSans-32" x="958.349609"/>
     </g>
    </g>
    <g id="line2d_35">
     <path d="M 351.561875 64.833125 
L 356.561875 64.833125 
L 361.561875 64.833125 
" style="fill: none; stroke: #008000; stroke-width: 2; stroke-linecap: square"/>
    </g>
    <g id="text_17">
     <!-- V_out:C_c=6.00e-12 -->
     <g transform="translate(363.561875 68.333125) scale(0.12 -0.12)">
      <use xlink:href="#DejaVuSans-56"/>
      <use xlink:href="#DejaVuSans-5f" x="68.408203"/>
      <use xlink:href="#DejaVuSans-6f" x="118.408203"/>
      <use xlink:href="#DejaVuSans-75" x="179.589844"/>
      <use xlink:href="#DejaVuSans-74" x="242.96875"/>
      <use xlink:href="#DejaVuSans-3a" x="282.177734"/>
      <use xlink:href="#DejaVuSans-43" x="315.869141"/>
      <use xlink:href="#DejaVuSans-5f" x="385.693359"/>
      <use xlink:href="#DejaVuSans-63" x="435.693359"/>
      <use xlink:href="#DejaVuSans-3d" x="490.673828"/>
      <use xlink:href="#DejaVuSans-36" x="574.462891"/>
      <use xlink:href="#DejaVuSans-2e" x="638.085938"/>
      <use xlink:href="#DejaVuSans-30" x="669.873047"/>
      <use xlink:href="#DejaVuSans-30" x="733.496094"/>
      <use xlink:href="#DejaVuSans-65" x="797.119141"/>
      <use xlink:href="#DejaVuSans-2d" x="858.642578"/>
      <use xlink:href="#DejaVuSans-31" x="894.726562"/>
      <use xlink:href="#DejaVuSans-32" x="958.349609"/>
     </g>
    </g>
    <g id="line2d_36">
     <path d="M 351.561875 76.780625 
L 356.561875 76.780625 
L 361.561875 76.780625 
" style="fill: none; stroke: #00bfbf; stroke-width: 2; stroke-linecap: square"/>
    </g>
    <g id="text_18">
     <!-- V_out:C_c=8.00e-12 -->
     <g transform="translate(363.561875 80.280625) scale(0.12 -0.12)">
      <use xlink:href="#DejaVuSans-56"/>
      <use xlink:href="#DejaVuSans-5f" x="68.408203"/>
      <use xlink:href="#DejaVuSans-6f" x="118.408203"/>
      <use xlink:href="#DejaVuSans-75" x="179.589844"/>
      <use xlink:href="#DejaVuSans-74" x="242.96875"/>
      <use xlink:href="#DejaVuSans-3a" x="282.177734"/>
      <use xlink:href="#DejaVuSans-43" x="315.869141"/>
      <use xlink:href="#DejaVuSans-5f" x="385.693359"/>
      <use xlink:href="#DejaVuSans-63" x="435.693359"/>
      <use xlink:href="#DejaVuSans-3d" x="490.673828"/>
      <use xlink:href="#DejaVuSans-38" x="574.462891"/>
      <use xlink:href="#DejaVuSans-2e" x="638.085938"/>
      <use xlink:href="#DejaVuSans-30" x="669.873047"/>
      <use xlink:href="#DejaVuSans-30" x="733.496094"/>
      <use xlink:href="#DejaVuSans-65" x="797.119141"/>
      <use xlink:href="#DejaVuSans-2d" x="858.642578"/>
      <use xlink:href="#DejaVuSans-31" x="894.726562"/>
      <use xlink:href="#DejaVuSans-32" x="958.349609"/>
     </g>
    </g>
    <g id="line2d_37">
     <path d="M 351.561875 88.728125 
L 356.561875 88.728125 
L 361.561875 88.728125 
" style="fill: none; stroke: #bf00bf; stroke-width: 2; stroke-linecap: square"/>
    </g>
    <g id="text_19">
     <!-- V_out:C_c=1.00e-11 -->
     <g transform="translate(363.561875 92.228125) scale(0.12 -0.12)">
      <use xlink:href="#DejaVuSans-56"/>
      <use xlink:href="#DejaVuSans-5f" x="68.408203"/>
      <use xlink:href="#DejaVuSans-6f" x="118.408203"/>
      <use xlink:href="#DejaVuSans-75" x="179.589844"/>
      <use xlink:href="#DejaVuSans-74" x="242.96875"/>
      <use xlink:href="#DejaVuSans-3a" x="282.177734"/>
      <use xlink:href="#DejaVuSans-43" x="315.869141"/>
      <use xlink:href="#DejaVuSans-5f" x="385.693359"/>
      <use xlink:href="#DejaVuSans-63" x="435.693359"/>
      <use xlink:href="#DejaVuSans-3d" x="490.673828"/>
      <use xlink:href="#DejaVuSans-31" x="574.462891"/>
      <use xlink:href="#DejaVuSans-2e" x="638.085938"/>
      <use xlink:href="#DejaVuSans-30" x="669.873047"/>
      <use xlink:href="#DejaVuSans-30" x="733.496094"/>
      <use xlink:href="#DejaVuSans-65" x="797.119141"/>
      <use xlink:href="#DejaVuSans-2d" x="858.642578"/>
      <use xlink:href="#DejaVuSans-31" x="894.726562"/>
      <use xlink:href="#DejaVuSans-31" x="958.349609"/>
     </g>
    </g>
    <g id="line2d_38">
     <path d="M 351.561875 100.675625 
L 356.561875 100.675625 
L 361.561875 100.675625 
" style="fill: none; stroke: #bfbf00; stroke-width: 2; stroke-linecap: square"/>
    </g>
    <g id="text_20">
     <!-- V_out:C_c=1.20e-11 -->
     <g transform="translate(363.561875 104.175625) scale(0.12 -0.12)">
      <use xlink:href="#DejaVuSans-56"/>
      <use xlink:href="#DejaVuSans-5f" x="68.408203"/>
      <use xlink:href="#DejaVuSans-6f" x="118.408203"/>
      <use xlink:href="#DejaVuSans-75" x="179.589844"/>
      <use xlink:href="#DejaVuSans-74" x="242.96875"/>
      <use xlink:href="#DejaVuSans-3a" x="282.177734"/>
      <use xlink:href="#DejaVuSans-43" x="315.869141"/>
      <use xlink:href="#DejaVuSans-5f" x="385.693359"/>
      <use xlink:href="#DejaVuSans-63" x="435.693359"/>
      <use xlink:href="#DejaVuSans-3d" x="490.673828"/>
      <use xlink:href="#DejaVuSans-31" x="574.462891"/>
      <use xlink:href="#DejaVuSans-2e" x="638.085938"/>
      <use xlink:href="#DejaVuSans-32" x="669.873047"/>
      <use xlink:href="#DejaVuSans-30" x="733.496094"/>
      <use xlink:href="#DejaVuSans-65" x="797.119141"/>
      <use xlink:href="#DejaVuSans-2d" x="858.642578"/>
      <use xlink:href="#DejaVuSans-31" x="894.726562"/>
      <use xlink:href="#DejaVuSans-31" x="958.349609"/>
     </g>
    </g>
    <g id="line2d_39">
     <path d="M 351.561875 112.623125 
L 356.561875 112.623125 
L 361.561875 112.623125 
" style="fill: none; stroke: #000000; stroke-width: 2; stroke-linecap: square"/>
    </g>
    <g id="text_21">
     <!-- V_out:C_c=1.40e-11 -->
     <g transform="translate(363.561875 116.123125) scale(0.12 -0.12)">
      <use xlink:href="#DejaVuSans-56"/>
      <use xlink:href="#DejaVuSans-5f" x="68.408203"/>
      <use xlink:href="#DejaVuSans-6f" x="118.408203"/>
      <use xlink:href="#DejaVuSans-75" x="179.589844"/>
      <use xlink:href="#DejaVuSans-74" x="242.96875"/>
      <use xlink:href="#DejaVuSans-3a" x="282.177734"/>
      <use xlink:href="#DejaVuSans-43" x="315.869141"/>
      <use xlink:href="#DejaVuSans-5f" x="385.693359"/>
      <use xlink:href="#DejaVuSans-63" x="435.693359"/>
      <use xlink:href="#DejaVuSans-3d" x="490.673828"/>
      <use xlink:href="#DejaVuSans-31" x="574.462891"/>
      <use xlink:href="#DejaVuSans-2e" x="638.085938"/>
      <use xlink:href="#DejaVuSans-34" x="669.873047"/>
      <use xlink:href="#DejaVuSans-30" x="733.496094"/>
      <use xlink:href="#DejaVuSans-65" x="797.119141"/>
      <use xlink:href="#DejaVuSans-2d" x="858.642578"/>
      <use xlink:href="#DejaVuSans-31" x="894.726562"/>
      <use xlink:href="#DejaVuSans-31" x="958.349609"/>
     </g>
    </g>
    <g id="line2d_40">
     <path d="M 351.561875 124.570625 
L 356.561875 124.570625 
L 361.561875 124.570625 
" style="fill: none; stroke: #ff0000; stroke-width: 2; stroke-linecap: square"/>
    </g>
    <g id="text_22">
     <!-- V_out:C_c=1.60e-11 -->
     <g transform="translate(363.561875 128.070625) scale(0.12 -0.12)">
      <use xlink:href="#DejaVuSans-56"/>
      <use xlink:href="#DejaVuSans-5f" x="68.408203"/>
      <use xlink:href="#DejaVuSans-6f" x="118.408203"/>
      <use xlink:href="#DejaVuSans-75" x="179.589844"/>
      <use xlink:href="#DejaVuSans-74" x="242.96875"/>
      <use xlink:href="#DejaVuSans-3a" x="282.177734"/>
      <use xlink:href="#DejaVuSans-43" x="315.869141"/>
      <use xlink:href="#DejaVuSans-5f" x="385.693359"/>
      <use xlink:href="#DejaVuSans-63" x="435.693359"/>
      <use xlink:href="#DejaVuSans-3d" x="490.673828"/>
      <use xlink:href="#DejaVuSans-31" x="574.462891"/>
      <use xlink:href="#DejaVuSans-2e" x="638.085938"/>
      <use xlink:href="#DejaVuSans-36" x="669.873047"/>
      <use xlink:href="#DejaVuSans-30" x="733.496094"/>
      <use xlink:href="#DejaVuSans-65" x="797.119141"/>
      <use xlink:href="#DejaVuSans-2d" x="858.642578"/>
      <use xlink:href="#DejaVuSans-31" x="894.726562"/>
      <use xlink:href="#DejaVuSans-31" x="958.349609"/>
     </g>
    </g>
    <g id="line2d_41">
     <path d="M 351.561875 136.518125 
L 356.561875 136.518125 
L 361.561875 136.518125 
" style="fill: none; stroke: #0000ff; stroke-width: 2; stroke-linecap: square"/>
    </g>
    <g id="text_23">
     <!-- V_out:C_c=1.80e-11 -->
     <g transform="translate(363.561875 140.018125) scale(0.12 -0.12)">
      <use xlink:href="#DejaVuSans-56"/>
      <use xlink:href="#DejaVuSans-5f" x="68.408203"/>
      <use xlink:href="#DejaVuSans-6f" x="118.408203"/>
      <use xlink:href="#DejaVuSans-75" x="179.589844"/>
      <use xlink:href="#DejaVuSans-74" x="242.96875"/>
      <use xlink:href="#DejaVuSans-3a" x="282.177734"/>
      <use xlink:href="#DejaVuSans-43" x="315.869141"/>
      <use xlink:href="#DejaVuSans-5f" x="385.693359"/>
      <use xlink:href="#DejaVuSans-63" x="435.693359"/>
      <use xlink:href="#DejaVuSans-3d" x="490.673828"/>
      <use xlink:href="#DejaVuSans-31" x="574.462891"/>
      <use xlink:href="#DejaVuSans-2e" x="638.085938"/>
      <use xlink:href="#DejaVuSans-38" x="669.873047"/>
      <use xlink:href="#DejaVuSans-30" x="733.496094"/>
      <use xlink:href="#DejaVuSans-65" x="797.119141"/>
      <use xlink:href="#DejaVuSans-2d" x="858.642578"/>
      <use xlink:href="#DejaVuSans-31" x="894.726562"/>
      <use xlink:href="#DejaVuSans-31" x="958.349609"/>
     </g>
    </g>
    <g id="line2d_42">
     <path d="M 351.561875 148.465625 
L 356.561875 148.465625 
L 361.561875 148.465625 
" style="fill: none; stroke: #008000; stroke-width: 2; stroke-linecap: square"/>
    </g>
    <g id="text_24">
     <!-- V_out:C_c=2.00e-11 -->
     <g transform="translate(363.561875 151.965625) scale(0.12 -0.12)">
      <use xlink:href="#DejaVuSans-56"/>
      <use xlink:href="#DejaVuSans-5f" x="68.408203"/>
      <use xlink:href="#DejaVuSans-6f" x="118.408203"/>
      <use xlink:href="#DejaVuSans-75" x="179.589844"/>
      <use xlink:href="#DejaVuSans-74" x="242.96875"/>
      <use xlink:href="#DejaVuSans-3a" x="282.177734"/>
      <use xlink:href="#DejaVuSans-43" x="315.869141"/>
      <use xlink:href="#DejaVuSans-5f" x="385.693359"/>
      <use xlink:href="#DejaVuSans-63" x="435.693359"/>
      <use xlink:href="#DejaVuSans-3d" x="490.673828"/>
      <use xlink:href="#DejaVuSans-32" x="574.462891"/>
      <use xlink:href="#DejaVuSans-2e" x="638.085938"/>
      <use xlink:href="#DejaVuSans-30" x="669.873047"/>
      <use xlink:href="#DejaVuSans-30" x="733.496094"/>
      <use xlink:href="#DejaVuSans-65" x="797.119141"/>
      <use xlink:href="#DejaVuSans-2d" x="858.642578"/>
      <use xlink:href="#DejaVuSans-31" x="894.726562"/>
      <use xlink:href="#DejaVuSans-31" x="958.349609"/>
     </g>
    </g>
   </g>
  </g>
 </g>
 <defs>
  <clipPath id="p09801068b1">
   <rect x="63.65" y="28.32" width="429.55" height="283.96"/>
  </clipPath>
 </defs>
</svg>
