<?xml version="1.0" encoding="utf-8" standalone="no"?>
<!DOCTYPE svg PUBLIC "-//W3C//DTD SVG 1.1//EN"
  "http://www.w3.org/Graphics/SVG/1.1/DTD/svg11.dtd">
<svg xmlns:xlink="http://www.w3.org/1999/xlink" width="504pt" height="360pt" viewBox="0 0 504 360" xmlns="http://www.w3.org/2000/svg" version="1.1">
 <metadata>
  <rdf:RDF xmlns:dc="http://purl.org/dc/elements/1.1/" xmlns:cc="http://creativecommons.org/ns#" xmlns:rdf="http://www.w3.org/1999/02/22-rdf-syntax-ns#">
   <cc:Work>
    <dc:type rdf:resource="http://purl.org/dc/dcmitype/StillImage"/>
    <dc:date>2025-09-06T12:38:58.351877</dc:date>
    <dc:format>image/svg+xml</dc:format>
    <dc:creator>
     <cc:Agent>
      <dc:title>Matplotlib v3.9.2, https://matplotlib.org/</dc:title>
     </cc:Agent>
    </dc:creator>
   </cc:Work>
  </rdf:RDF>
 </metadata>
 <defs>
  <style type="text/css">*{stroke-linejoin: round; stroke-linecap: butt}</style>
 </defs>
 <g id="figure_1">
  <g id="patch_1">
   <path d="M 0 360 
L 504 360 
L 504 0 
L 0 0 
z
" style="fill: #ffffff"/>
  </g>
  <g id="axes_1">
   <g id="patch_2">
    <path d="M 67.425 308.6 
L 493.2 308.6 
L 493.2 28.8 
L 67.425 28.8 
z
" style="fill: #ffffff"/>
   </g>
   <g id="matplotlib.axis_1">
    <g id="xtick_1">
     <g id="line2d_1">
      <path d="M 105.270486 308.6 
L 105.270486 28.8 
" clip-path="url(#p9c201bdc23)" style="fill: none; stroke: #808080; stroke-width: 0.8; stroke-linecap: square"/>
     </g>
     <g id="line2d_2">
      <defs>
       <path id="m9bc280ec0f" d="M 0 0 
L 0 3.5 
" style="stroke: #000000; stroke-width: 0.8"/>
      </defs>
      <g>
       <use xlink:href="#m9bc280ec0f" x="105.270486" y="308.6" style="stroke: #000000; stroke-width: 0.8"/>
      </g>
     </g>
     <g id="text_1">
      <!-- $\mathdefault{10^{1}}$ -->
      <g transform="translate(94.710486 324.718125) scale(0.12 -0.12)">
       <defs>
        <path id="DejaVuSans-31" d="M 794 531 
L 1825 531 
L 1825 4091 
L 703 3866 
L 703 4441 
L 1819 4666 
L 2450 4666 
L 2450 531 
L 3481 531 
L 3481 0 
L 794 0 
L 794 531 
z
" transform="scale(0.015625)"/>
        <path id="DejaVuSans-30" d="M 2034 4250 
Q 1547 4250 1301 3770 
Q 1056 3291 1056 2328 
Q 1056 1369 1301 889 
Q 1547 409 2034 409 
Q 2525 409 2770 889 
Q 3016 1369 3016 2328 
Q 3016 3291 2770 3770 
Q 2525 4250 2034 4250 
z
M 2034 4750 
Q 2819 4750 3233 4129 
Q 3647 3509 3647 2328 
Q 3647 1150 3233 529 
Q 2819 -91 2034 -91 
Q 1250 -91 836 529 
Q 422 1150 422 2328 
Q 422 3509 836 4129 
Q 1250 4750 2034 4750 
z
" transform="scale(0.015625)"/>
       </defs>
       <use xlink:href="#DejaVuSans-31" transform="translate(0 0.684375)"/>
       <use xlink:href="#DejaVuSans-30" transform="translate(63.623047 0.684375)"/>
       <use xlink:href="#DejaVuSans-31" transform="translate(128.203125 38.965625) scale(0.7)"/>
      </g>
     </g>
    </g>
    <g id="xtick_2">
     <g id="line2d_3">
      <path d="M 166.699837 308.6 
L 166.699837 28.8 
" clip-path="url(#p9c201bdc23)" style="fill: none; stroke: #808080; stroke-width: 0.8; stroke-linecap: square"/>
     </g>
     <g id="line2d_4">
      <g>
       <use xlink:href="#m9bc280ec0f" x="166.699837" y="308.6" style="stroke: #000000; stroke-width: 0.8"/>
      </g>
     </g>
     <g id="text_2">
      <!-- $\mathdefault{10^{2}}$ -->
      <g transform="translate(156.139837 324.718125) scale(0.12 -0.12)">
       <defs>
        <path id="DejaVuSans-32" d="M 1228 531 
L 3431 531 
L 3431 0 
L 469 0 
L 469 531 
Q 828 903 1448 1529 
Q 2069 2156 2228 2338 
Q 2531 2678 2651 2914 
Q 2772 3150 2772 3378 
Q 2772 3750 2511 3984 
Q 2250 4219 1831 4219 
Q 1534 4219 1204 4116 
Q 875 4013 500 3803 
L 500 4441 
Q 881 4594 1212 4672 
Q 1544 4750 1819 4750 
Q 2544 4750 2975 4387 
Q 3406 4025 3406 3419 
Q 3406 3131 3298 2873 
Q 3191 2616 2906 2266 
Q 2828 2175 2409 1742 
Q 1991 1309 1228 531 
z
" transform="scale(0.015625)"/>
       </defs>
       <use xlink:href="#DejaVuSans-31" transform="translate(0 0.765625)"/>
       <use xlink:href="#DejaVuSans-30" transform="translate(63.623047 0.765625)"/>
       <use xlink:href="#DejaVuSans-32" transform="translate(128.203125 39.046875) scale(0.7)"/>
      </g>
     </g>
    </g>
    <g id="xtick_3">
     <g id="line2d_5">
      <path d="M 228.129188 308.6 
L 228.129188 28.8 
" clip-path="url(#p9c201bdc23)" style="fill: none; stroke: #808080; stroke-width: 0.8; stroke-linecap: square"/>
     </g>
     <g id="line2d_6">
      <g>
       <use xlink:href="#m9bc280ec0f" x="228.129188" y="308.6" style="stroke: #000000; stroke-width: 0.8"/>
      </g>
     </g>
     <g id="text_3">
      <!-- $\mathdefault{10^{3}}$ -->
      <g transform="translate(217.569188 324.718125) scale(0.12 -0.12)">
       <defs>
        <path id="DejaVuSans-33" d="M 2597 2516 
Q 3050 2419 3304 2112 
Q 3559 1806 3559 1356 
Q 3559 666 3084 287 
Q 2609 -91 1734 -91 
Q 1441 -91 1130 -33 
Q 819 25 488 141 
L 488 750 
Q 750 597 1062 519 
Q 1375 441 1716 441 
Q 2309 441 2620 675 
Q 2931 909 2931 1356 
Q 2931 1769 2642 2001 
Q 2353 2234 1838 2234 
L 1294 2234 
L 1294 2753 
L 1863 2753 
Q 2328 2753 2575 2939 
Q 2822 3125 2822 3475 
Q 2822 3834 2567 4026 
Q 2313 4219 1838 4219 
Q 1578 4219 1281 4162 
Q 984 4106 628 3988 
L 628 4550 
Q 988 4650 1302 4700 
Q 1616 4750 1894 4750 
Q 2613 4750 3031 4423 
Q 3450 4097 3450 3541 
Q 3450 3153 3228 2886 
Q 3006 2619 2597 2516 
z
" transform="scale(0.015625)"/>
       </defs>
       <use xlink:href="#DejaVuSans-31" transform="translate(0 0.765625)"/>
       <use xlink:href="#DejaVuSans-30" transform="translate(63.623047 0.765625)"/>
       <use xlink:href="#DejaVuSans-33" transform="translate(128.203125 39.046875) scale(0.7)"/>
      </g>
     </g>
    </g>
    <g id="xtick_4">
     <g id="line2d_7">
      <path d="M 289.558539 308.6 
L 289.558539 28.8 
" clip-path="url(#p9c201bdc23)" style="fill: none; stroke: #808080; stroke-width: 0.8; stroke-linecap: square"/>
     </g>
     <g id="line2d_8">
      <g>
       <use xlink:href="#m9bc280ec0f" x="289.558539" y="308.6" style="stroke: #000000; stroke-width: 0.8"/>
      </g>
     </g>
     <g id="text_4">
      <!-- $\mathdefault{10^{4}}$ -->
      <g transform="translate(278.998539 324.718125) scale(0.12 -0.12)">
       <defs>
        <path id="DejaVuSans-34" d="M 2419 4116 
L 825 1625 
L 2419 1625 
L 2419 4116 
z
M 2253 4666 
L 3047 4666 
L 3047 1625 
L 3713 1625 
L 3713 1100 
L 3047 1100 
L 3047 0 
L 2419 0 
L 2419 1100 
L 313 1100 
L 313 1709 
L 2253 4666 
z
" transform="scale(0.015625)"/>
       </defs>
       <use xlink:href="#DejaVuSans-31" transform="translate(0 0.684375)"/>
       <use xlink:href="#DejaVuSans-30" transform="translate(63.623047 0.684375)"/>
       <use xlink:href="#DejaVuSans-34" transform="translate(128.203125 38.965625) scale(0.7)"/>
      </g>
     </g>
    </g>
    <g id="xtick_5">
     <g id="line2d_9">
      <path d="M 350.987889 308.6 
L 350.987889 28.8 
" clip-path="url(#p9c201bdc23)" style="fill: none; stroke: #808080; stroke-width: 0.8; stroke-linecap: square"/>
     </g>
     <g id="line2d_10">
      <g>
       <use xlink:href="#m9bc280ec0f" x="350.987889" y="308.6" style="stroke: #000000; stroke-width: 0.8"/>
      </g>
     </g>
     <g id="text_5">
      <!-- $\mathdefault{10^{5}}$ -->
      <g transform="translate(340.427889 324.718125) scale(0.12 -0.12)">
       <defs>
        <path id="DejaVuSans-35" d="M 691 4666 
L 3169 4666 
L 3169 4134 
L 1269 4134 
L 1269 2991 
Q 1406 3038 1543 3061 
Q 1681 3084 1819 3084 
Q 2600 3084 3056 2656 
Q 3513 2228 3513 1497 
Q 3513 744 3044 326 
Q 2575 -91 1722 -91 
Q 1428 -91 1123 -41 
Q 819 9 494 109 
L 494 744 
Q 775 591 1075 516 
Q 1375 441 1709 441 
Q 2250 441 2565 725 
Q 2881 1009 2881 1497 
Q 2881 1984 2565 2268 
Q 2250 2553 1709 2553 
Q 1456 2553 1204 2497 
Q 953 2441 691 2322 
L 691 4666 
z
" transform="scale(0.015625)"/>
       </defs>
       <use xlink:href="#DejaVuSans-31" transform="translate(0 0.684375)"/>
       <use xlink:href="#DejaVuSans-30" transform="translate(63.623047 0.684375)"/>
       <use xlink:href="#DejaVuSans-35" transform="translate(128.203125 38.965625) scale(0.7)"/>
      </g>
     </g>
    </g>
    <g id="xtick_6">
     <g id="line2d_11">
      <path d="M 412.41724 308.6 
L 412.41724 28.8 
" clip-path="url(#p9c201bdc23)" style="fill: none; stroke: #808080; stroke-width: 0.8; stroke-linecap: square"/>
     </g>
     <g id="line2d_12">
      <g>
       <use xlink:href="#m9bc280ec0f" x="412.41724" y="308.6" style="stroke: #000000; stroke-width: 0.8"/>
      </g>
     </g>
     <g id="text_6">
      <!-- $\mathdefault{10^{6}}$ -->
      <g transform="translate(401.85724 324.718125) scale(0.12 -0.12)">
       <defs>
        <path id="DejaVuSans-36" d="M 2113 2584 
Q 1688 2584 1439 2293 
Q 1191 2003 1191 1497 
Q 1191 994 1439 701 
Q 1688 409 2113 409 
Q 2538 409 2786 701 
Q 3034 994 3034 1497 
Q 3034 2003 2786 2293 
Q 2538 2584 2113 2584 
z
M 3366 4563 
L 3366 3988 
Q 3128 4100 2886 4159 
Q 2644 4219 2406 4219 
Q 1781 4219 1451 3797 
Q 1122 3375 1075 2522 
Q 1259 2794 1537 2939 
Q 1816 3084 2150 3084 
Q 2853 3084 3261 2657 
Q 3669 2231 3669 1497 
Q 3669 778 3244 343 
Q 2819 -91 2113 -91 
Q 1303 -91 875 529 
Q 447 1150 447 2328 
Q 447 3434 972 4092 
Q 1497 4750 2381 4750 
Q 2619 4750 2861 4703 
Q 3103 4656 3366 4563 
z
" transform="scale(0.015625)"/>
       </defs>
       <use xlink:href="#DejaVuSans-31" transform="translate(0 0.765625)"/>
       <use xlink:href="#DejaVuSans-30" transform="translate(63.623047 0.765625)"/>
       <use xlink:href="#DejaVuSans-36" transform="translate(128.203125 39.046875) scale(0.7)"/>
      </g>
     </g>
    </g>
    <g id="xtick_7">
     <g id="line2d_13">
      <path d="M 473.846591 308.6 
L 473.846591 28.8 
" clip-path="url(#p9c201bdc23)" style="fill: none; stroke: #808080; stroke-width: 0.8; stroke-linecap: square"/>
     </g>
     <g id="line2d_14">
      <g>
       <use xlink:href="#m9bc280ec0f" x="473.846591" y="308.6" style="stroke: #000000; stroke-width: 0.8"/>
      </g>
     </g>
     <g id="text_7">
      <!-- $\mathdefault{10^{7}}$ -->
      <g transform="translate(463.286591 324.718125) scale(0.12 -0.12)">
       <defs>
        <path id="DejaVuSans-37" d="M 525 4666 
L 3525 4666 
L 3525 4397 
L 1831 0 
L 1172 0 
L 2766 4134 
L 525 4134 
L 525 4666 
z
" transform="scale(0.015625)"/>
       </defs>
       <use xlink:href="#DejaVuSans-31" transform="translate(0 0.684375)"/>
       <use xlink:href="#DejaVuSans-30" transform="translate(63.623047 0.684375)"/>
       <use xlink:href="#DejaVuSans-37" transform="translate(128.203125 38.965625) scale(0.7)"/>
      </g>
     </g>
    </g>
    <g id="xtick_8">
     <g id="line2d_15">
      <path d="M 73.150384 308.6 
L 73.150384 28.8 
" clip-path="url(#p9c201bdc23)" style="fill: none; stroke-dasharray: 0.8,1.32; stroke-dashoffset: 0; stroke: #808080; stroke-width: 0.8"/>
     </g>
     <g id="line2d_16">
      <defs>
       <path id="m92705b27aa" d="M 0 0 
L 0 2 
" style="stroke: #000000; stroke-width: 0.6"/>
      </defs>
      <g>
       <use xlink:href="#m92705b27aa" x="73.150384" y="308.6" style="stroke: #000000; stroke-width: 0.6"/>
      </g>
     </g>
    </g>
    <g id="xtick_9">
     <g id="line2d_17">
      <path d="M 80.82529 308.6 
L 80.82529 28.8 
" clip-path="url(#p9c201bdc23)" style="fill: none; stroke-dasharray: 0.8,1.32; stroke-dashoffset: 0; stroke: #808080; stroke-width: 0.8"/>
     </g>
     <g id="line2d_18">
      <g>
       <use xlink:href="#m92705b27aa" x="80.82529" y="308.6" style="stroke: #000000; stroke-width: 0.6"/>
      </g>
     </g>
    </g>
    <g id="xtick_10">
     <g id="line2d_19">
      <path d="M 86.778409 308.6 
L 86.778409 28.8 
" clip-path="url(#p9c201bdc23)" style="fill: none; stroke-dasharray: 0.8,1.32; stroke-dashoffset: 0; stroke: #808080; stroke-width: 0.8"/>
     </g>
     <g id="line2d_20">
      <g>
       <use xlink:href="#m92705b27aa" x="86.778409" y="308.6" style="stroke: #000000; stroke-width: 0.6"/>
      </g>
     </g>
    </g>
    <g id="xtick_11">
     <g id="line2d_21">
      <path d="M 91.642462 308.6 
L 91.642462 28.8 
" clip-path="url(#p9c201bdc23)" style="fill: none; stroke-dasharray: 0.8,1.32; stroke-dashoffset: 0; stroke: #808080; stroke-width: 0.8"/>
     </g>
     <g id="line2d_22">
      <g>
       <use xlink:href="#m92705b27aa" x="91.642462" y="308.6" style="stroke: #000000; stroke-width: 0.6"/>
      </g>
     </g>
    </g>
    <g id="xtick_12">
     <g id="line2d_23">
      <path d="M 95.754959 308.6 
L 95.754959 28.8 
" clip-path="url(#p9c201bdc23)" style="fill: none; stroke-dasharray: 0.8,1.32; stroke-dashoffset: 0; stroke: #808080; stroke-width: 0.8"/>
     </g>
     <g id="line2d_24">
      <g>
       <use xlink:href="#m92705b27aa" x="95.754959" y="308.6" style="stroke: #000000; stroke-width: 0.6"/>
      </g>
     </g>
    </g>
    <g id="xtick_13">
     <g id="line2d_25">
      <path d="M 99.317367 308.6 
L 99.317367 28.8 
" clip-path="url(#p9c201bdc23)" style="fill: none; stroke-dasharray: 0.8,1.32; stroke-dashoffset: 0; stroke: #808080; stroke-width: 0.8"/>
     </g>
     <g id="line2d_26">
      <g>
       <use xlink:href="#m92705b27aa" x="99.317367" y="308.6" style="stroke: #000000; stroke-width: 0.6"/>
      </g>
     </g>
    </g>
    <g id="xtick_14">
     <g id="line2d_27">
      <path d="M 102.459633 308.6 
L 102.459633 28.8 
" clip-path="url(#p9c201bdc23)" style="fill: none; stroke-dasharray: 0.8,1.32; stroke-dashoffset: 0; stroke: #808080; stroke-width: 0.8"/>
     </g>
     <g id="line2d_28">
      <g>
       <use xlink:href="#m92705b27aa" x="102.459633" y="308.6" style="stroke: #000000; stroke-width: 0.6"/>
      </g>
     </g>
    </g>
    <g id="xtick_15">
     <g id="line2d_29">
      <path d="M 123.762563 308.6 
L 123.762563 28.8 
" clip-path="url(#p9c201bdc23)" style="fill: none; stroke-dasharray: 0.8,1.32; stroke-dashoffset: 0; stroke: #808080; stroke-width: 0.8"/>
     </g>
     <g id="line2d_30">
      <g>
       <use xlink:href="#m92705b27aa" x="123.762563" y="308.6" style="stroke: #000000; stroke-width: 0.6"/>
      </g>
     </g>
    </g>
    <g id="xtick_16">
     <g id="line2d_31">
      <path d="M 134.579735 308.6 
L 134.579735 28.8 
" clip-path="url(#p9c201bdc23)" style="fill: none; stroke-dasharray: 0.8,1.32; stroke-dashoffset: 0; stroke: #808080; stroke-width: 0.8"/>
     </g>
     <g id="line2d_32">
      <g>
       <use xlink:href="#m92705b27aa" x="134.579735" y="308.6" style="stroke: #000000; stroke-width: 0.6"/>
      </g>
     </g>
    </g>
    <g id="xtick_17">
     <g id="line2d_33">
      <path d="M 142.254641 308.6 
L 142.254641 28.8 
" clip-path="url(#p9c201bdc23)" style="fill: none; stroke-dasharray: 0.8,1.32; stroke-dashoffset: 0; stroke: #808080; stroke-width: 0.8"/>
     </g>
     <g id="line2d_34">
      <g>
       <use xlink:href="#m92705b27aa" x="142.254641" y="308.6" style="stroke: #000000; stroke-width: 0.6"/>
      </g>
     </g>
    </g>
    <g id="xtick_18">
     <g id="line2d_35">
      <path d="M 148.20776 308.6 
L 148.20776 28.8 
" clip-path="url(#p9c201bdc23)" style="fill: none; stroke-dasharray: 0.8,1.32; stroke-dashoffset: 0; stroke: #808080; stroke-width: 0.8"/>
     </g>
     <g id="line2d_36">
      <g>
       <use xlink:href="#m92705b27aa" x="148.20776" y="308.6" style="stroke: #000000; stroke-width: 0.6"/>
      </g>
     </g>
    </g>
    <g id="xtick_19">
     <g id="line2d_37">
      <path d="M 153.071812 308.6 
L 153.071812 28.8 
" clip-path="url(#p9c201bdc23)" style="fill: none; stroke-dasharray: 0.8,1.32; stroke-dashoffset: 0; stroke: #808080; stroke-width: 0.8"/>
     </g>
     <g id="line2d_38">
      <g>
       <use xlink:href="#m92705b27aa" x="153.071812" y="308.6" style="stroke: #000000; stroke-width: 0.6"/>
      </g>
     </g>
    </g>
    <g id="xtick_20">
     <g id="line2d_39">
      <path d="M 157.18431 308.6 
L 157.18431 28.8 
" clip-path="url(#p9c201bdc23)" style="fill: none; stroke-dasharray: 0.8,1.32; stroke-dashoffset: 0; stroke: #808080; stroke-width: 0.8"/>
     </g>
     <g id="line2d_40">
      <g>
       <use xlink:href="#m92705b27aa" x="157.18431" y="308.6" style="stroke: #000000; stroke-width: 0.6"/>
      </g>
     </g>
    </g>
    <g id="xtick_21">
     <g id="line2d_41">
      <path d="M 160.746718 308.6 
L 160.746718 28.8 
" clip-path="url(#p9c201bdc23)" style="fill: none; stroke-dasharray: 0.8,1.32; stroke-dashoffset: 0; stroke: #808080; stroke-width: 0.8"/>
     </g>
     <g id="line2d_42">
      <g>
       <use xlink:href="#m92705b27aa" x="160.746718" y="308.6" style="stroke: #000000; stroke-width: 0.6"/>
      </g>
     </g>
    </g>
    <g id="xtick_22">
     <g id="line2d_43">
      <path d="M 163.888984 308.6 
L 163.888984 28.8 
" clip-path="url(#p9c201bdc23)" style="fill: none; stroke-dasharray: 0.8,1.32; stroke-dashoffset: 0; stroke: #808080; stroke-width: 0.8"/>
     </g>
     <g id="line2d_44">
      <g>
       <use xlink:href="#m92705b27aa" x="163.888984" y="308.6" style="stroke: #000000; stroke-width: 0.6"/>
      </g>
     </g>
    </g>
    <g id="xtick_23">
     <g id="line2d_45">
      <path d="M 185.191914 308.6 
L 185.191914 28.8 
" clip-path="url(#p9c201bdc23)" style="fill: none; stroke-dasharray: 0.8,1.32; stroke-dashoffset: 0; stroke: #808080; stroke-width: 0.8"/>
     </g>
     <g id="line2d_46">
      <g>
       <use xlink:href="#m92705b27aa" x="185.191914" y="308.6" style="stroke: #000000; stroke-width: 0.6"/>
      </g>
     </g>
    </g>
    <g id="xtick_24">
     <g id="line2d_47">
      <path d="M 196.009086 308.6 
L 196.009086 28.8 
" clip-path="url(#p9c201bdc23)" style="fill: none; stroke-dasharray: 0.8,1.32; stroke-dashoffset: 0; stroke: #808080; stroke-width: 0.8"/>
     </g>
     <g id="line2d_48">
      <g>
       <use xlink:href="#m92705b27aa" x="196.009086" y="308.6" style="stroke: #000000; stroke-width: 0.6"/>
      </g>
     </g>
    </g>
    <g id="xtick_25">
     <g id="line2d_49">
      <path d="M 203.683991 308.6 
L 203.683991 28.8 
" clip-path="url(#p9c201bdc23)" style="fill: none; stroke-dasharray: 0.8,1.32; stroke-dashoffset: 0; stroke: #808080; stroke-width: 0.8"/>
     </g>
     <g id="line2d_50">
      <g>
       <use xlink:href="#m92705b27aa" x="203.683991" y="308.6" style="stroke: #000000; stroke-width: 0.6"/>
      </g>
     </g>
    </g>
    <g id="xtick_26">
     <g id="line2d_51">
      <path d="M 209.637111 308.6 
L 209.637111 28.8 
" clip-path="url(#p9c201bdc23)" style="fill: none; stroke-dasharray: 0.8,1.32; stroke-dashoffset: 0; stroke: #808080; stroke-width: 0.8"/>
     </g>
     <g id="line2d_52">
      <g>
       <use xlink:href="#m92705b27aa" x="209.637111" y="308.6" style="stroke: #000000; stroke-width: 0.6"/>
      </g>
     </g>
    </g>
    <g id="xtick_27">
     <g id="line2d_53">
      <path d="M 214.501163 308.6 
L 214.501163 28.8 
" clip-path="url(#p9c201bdc23)" style="fill: none; stroke-dasharray: 0.8,1.32; stroke-dashoffset: 0; stroke: #808080; stroke-width: 0.8"/>
     </g>
     <g id="line2d_54">
      <g>
       <use xlink:href="#m92705b27aa" x="214.501163" y="308.6" style="stroke: #000000; stroke-width: 0.6"/>
      </g>
     </g>
    </g>
    <g id="xtick_28">
     <g id="line2d_55">
      <path d="M 218.613661 308.6 
L 218.613661 28.8 
" clip-path="url(#p9c201bdc23)" style="fill: none; stroke-dasharray: 0.8,1.32; stroke-dashoffset: 0; stroke: #808080; stroke-width: 0.8"/>
     </g>
     <g id="line2d_56">
      <g>
       <use xlink:href="#m92705b27aa" x="218.613661" y="308.6" style="stroke: #000000; stroke-width: 0.6"/>
      </g>
     </g>
    </g>
    <g id="xtick_29">
     <g id="line2d_57">
      <path d="M 222.176069 308.6 
L 222.176069 28.8 
" clip-path="url(#p9c201bdc23)" style="fill: none; stroke-dasharray: 0.8,1.32; stroke-dashoffset: 0; stroke: #808080; stroke-width: 0.8"/>
     </g>
     <g id="line2d_58">
      <g>
       <use xlink:href="#m92705b27aa" x="222.176069" y="308.6" style="stroke: #000000; stroke-width: 0.6"/>
      </g>
     </g>
    </g>
    <g id="xtick_30">
     <g id="line2d_59">
      <path d="M 225.318335 308.6 
L 225.318335 28.8 
" clip-path="url(#p9c201bdc23)" style="fill: none; stroke-dasharray: 0.8,1.32; stroke-dashoffset: 0; stroke: #808080; stroke-width: 0.8"/>
     </g>
     <g id="line2d_60">
      <g>
       <use xlink:href="#m92705b27aa" x="225.318335" y="308.6" style="stroke: #000000; stroke-width: 0.6"/>
      </g>
     </g>
    </g>
    <g id="xtick_31">
     <g id="line2d_61">
      <path d="M 246.621265 308.6 
L 246.621265 28.8 
" clip-path="url(#p9c201bdc23)" style="fill: none; stroke-dasharray: 0.8,1.32; stroke-dashoffset: 0; stroke: #808080; stroke-width: 0.8"/>
     </g>
     <g id="line2d_62">
      <g>
       <use xlink:href="#m92705b27aa" x="246.621265" y="308.6" style="stroke: #000000; stroke-width: 0.6"/>
      </g>
     </g>
    </g>
    <g id="xtick_32">
     <g id="line2d_63">
      <path d="M 257.438437 308.6 
L 257.438437 28.8 
" clip-path="url(#p9c201bdc23)" style="fill: none; stroke-dasharray: 0.8,1.32; stroke-dashoffset: 0; stroke: #808080; stroke-width: 0.8"/>
     </g>
     <g id="line2d_64">
      <g>
       <use xlink:href="#m92705b27aa" x="257.438437" y="308.6" style="stroke: #000000; stroke-width: 0.6"/>
      </g>
     </g>
    </g>
    <g id="xtick_33">
     <g id="line2d_65">
      <path d="M 265.113342 308.6 
L 265.113342 28.8 
" clip-path="url(#p9c201bdc23)" style="fill: none; stroke-dasharray: 0.8,1.32; stroke-dashoffset: 0; stroke: #808080; stroke-width: 0.8"/>
     </g>
     <g id="line2d_66">
      <g>
       <use xlink:href="#m92705b27aa" x="265.113342" y="308.6" style="stroke: #000000; stroke-width: 0.6"/>
      </g>
     </g>
    </g>
    <g id="xtick_34">
     <g id="line2d_67">
      <path d="M 271.066461 308.6 
L 271.066461 28.8 
" clip-path="url(#p9c201bdc23)" style="fill: none; stroke-dasharray: 0.8,1.32; stroke-dashoffset: 0; stroke: #808080; stroke-width: 0.8"/>
     </g>
     <g id="line2d_68">
      <g>
       <use xlink:href="#m92705b27aa" x="271.066461" y="308.6" style="stroke: #000000; stroke-width: 0.6"/>
      </g>
     </g>
    </g>
    <g id="xtick_35">
     <g id="line2d_69">
      <path d="M 275.930514 308.6 
L 275.930514 28.8 
" clip-path="url(#p9c201bdc23)" style="fill: none; stroke-dasharray: 0.8,1.32; stroke-dashoffset: 0; stroke: #808080; stroke-width: 0.8"/>
     </g>
     <g id="line2d_70">
      <g>
       <use xlink:href="#m92705b27aa" x="275.930514" y="308.6" style="stroke: #000000; stroke-width: 0.6"/>
      </g>
     </g>
    </g>
    <g id="xtick_36">
     <g id="line2d_71">
      <path d="M 280.043012 308.6 
L 280.043012 28.8 
" clip-path="url(#p9c201bdc23)" style="fill: none; stroke-dasharray: 0.8,1.32; stroke-dashoffset: 0; stroke: #808080; stroke-width: 0.8"/>
     </g>
     <g id="line2d_72">
      <g>
       <use xlink:href="#m92705b27aa" x="280.043012" y="308.6" style="stroke: #000000; stroke-width: 0.6"/>
      </g>
     </g>
    </g>
    <g id="xtick_37">
     <g id="line2d_73">
      <path d="M 283.605419 308.6 
L 283.605419 28.8 
" clip-path="url(#p9c201bdc23)" style="fill: none; stroke-dasharray: 0.8,1.32; stroke-dashoffset: 0; stroke: #808080; stroke-width: 0.8"/>
     </g>
     <g id="line2d_74">
      <g>
       <use xlink:href="#m92705b27aa" x="283.605419" y="308.6" style="stroke: #000000; stroke-width: 0.6"/>
      </g>
     </g>
    </g>
    <g id="xtick_38">
     <g id="line2d_75">
      <path d="M 286.747686 308.6 
L 286.747686 28.8 
" clip-path="url(#p9c201bdc23)" style="fill: none; stroke-dasharray: 0.8,1.32; stroke-dashoffset: 0; stroke: #808080; stroke-width: 0.8"/>
     </g>
     <g id="line2d_76">
      <g>
       <use xlink:href="#m92705b27aa" x="286.747686" y="308.6" style="stroke: #000000; stroke-width: 0.6"/>
      </g>
     </g>
    </g>
    <g id="xtick_39">
     <g id="line2d_77">
      <path d="M 308.050616 308.6 
L 308.050616 28.8 
" clip-path="url(#p9c201bdc23)" style="fill: none; stroke-dasharray: 0.8,1.32; stroke-dashoffset: 0; stroke: #808080; stroke-width: 0.8"/>
     </g>
     <g id="line2d_78">
      <g>
       <use xlink:href="#m92705b27aa" x="308.050616" y="308.6" style="stroke: #000000; stroke-width: 0.6"/>
      </g>
     </g>
    </g>
    <g id="xtick_40">
     <g id="line2d_79">
      <path d="M 318.867788 308.6 
L 318.867788 28.8 
" clip-path="url(#p9c201bdc23)" style="fill: none; stroke-dasharray: 0.8,1.32; stroke-dashoffset: 0; stroke: #808080; stroke-width: 0.8"/>
     </g>
     <g id="line2d_80">
      <g>
       <use xlink:href="#m92705b27aa" x="318.867788" y="308.6" style="stroke: #000000; stroke-width: 0.6"/>
      </g>
     </g>
    </g>
    <g id="xtick_41">
     <g id="line2d_81">
      <path d="M 326.542693 308.6 
L 326.542693 28.8 
" clip-path="url(#p9c201bdc23)" style="fill: none; stroke-dasharray: 0.8,1.32; stroke-dashoffset: 0; stroke: #808080; stroke-width: 0.8"/>
     </g>
     <g id="line2d_82">
      <g>
       <use xlink:href="#m92705b27aa" x="326.542693" y="308.6" style="stroke: #000000; stroke-width: 0.6"/>
      </g>
     </g>
    </g>
    <g id="xtick_42">
     <g id="line2d_83">
      <path d="M 332.495812 308.6 
L 332.495812 28.8 
" clip-path="url(#p9c201bdc23)" style="fill: none; stroke-dasharray: 0.8,1.32; stroke-dashoffset: 0; stroke: #808080; stroke-width: 0.8"/>
     </g>
     <g id="line2d_84">
      <g>
       <use xlink:href="#m92705b27aa" x="332.495812" y="308.6" style="stroke: #000000; stroke-width: 0.6"/>
      </g>
     </g>
    </g>
    <g id="xtick_43">
     <g id="line2d_85">
      <path d="M 337.359865 308.6 
L 337.359865 28.8 
" clip-path="url(#p9c201bdc23)" style="fill: none; stroke-dasharray: 0.8,1.32; stroke-dashoffset: 0; stroke: #808080; stroke-width: 0.8"/>
     </g>
     <g id="line2d_86">
      <g>
       <use xlink:href="#m92705b27aa" x="337.359865" y="308.6" style="stroke: #000000; stroke-width: 0.6"/>
      </g>
     </g>
    </g>
    <g id="xtick_44">
     <g id="line2d_87">
      <path d="M 341.472363 308.6 
L 341.472363 28.8 
" clip-path="url(#p9c201bdc23)" style="fill: none; stroke-dasharray: 0.8,1.32; stroke-dashoffset: 0; stroke: #808080; stroke-width: 0.8"/>
     </g>
     <g id="line2d_88">
      <g>
       <use xlink:href="#m92705b27aa" x="341.472363" y="308.6" style="stroke: #000000; stroke-width: 0.6"/>
      </g>
     </g>
    </g>
    <g id="xtick_45">
     <g id="line2d_89">
      <path d="M 345.03477 308.6 
L 345.03477 28.8 
" clip-path="url(#p9c201bdc23)" style="fill: none; stroke-dasharray: 0.8,1.32; stroke-dashoffset: 0; stroke: #808080; stroke-width: 0.8"/>
     </g>
     <g id="line2d_90">
      <g>
       <use xlink:href="#m92705b27aa" x="345.03477" y="308.6" style="stroke: #000000; stroke-width: 0.6"/>
      </g>
     </g>
    </g>
    <g id="xtick_46">
     <g id="line2d_91">
      <path d="M 348.177036 308.6 
L 348.177036 28.8 
" clip-path="url(#p9c201bdc23)" style="fill: none; stroke-dasharray: 0.8,1.32; stroke-dashoffset: 0; stroke: #808080; stroke-width: 0.8"/>
     </g>
     <g id="line2d_92">
      <g>
       <use xlink:href="#m92705b27aa" x="348.177036" y="308.6" style="stroke: #000000; stroke-width: 0.6"/>
      </g>
     </g>
    </g>
    <g id="xtick_47">
     <g id="line2d_93">
      <path d="M 369.479967 308.6 
L 369.479967 28.8 
" clip-path="url(#p9c201bdc23)" style="fill: none; stroke-dasharray: 0.8,1.32; stroke-dashoffset: 0; stroke: #808080; stroke-width: 0.8"/>
     </g>
     <g id="line2d_94">
      <g>
       <use xlink:href="#m92705b27aa" x="369.479967" y="308.6" style="stroke: #000000; stroke-width: 0.6"/>
      </g>
     </g>
    </g>
    <g id="xtick_48">
     <g id="line2d_95">
      <path d="M 380.297138 308.6 
L 380.297138 28.8 
" clip-path="url(#p9c201bdc23)" style="fill: none; stroke-dasharray: 0.8,1.32; stroke-dashoffset: 0; stroke: #808080; stroke-width: 0.8"/>
     </g>
     <g id="line2d_96">
      <g>
       <use xlink:href="#m92705b27aa" x="380.297138" y="308.6" style="stroke: #000000; stroke-width: 0.6"/>
      </g>
     </g>
    </g>
    <g id="xtick_49">
     <g id="line2d_97">
      <path d="M 387.972044 308.6 
L 387.972044 28.8 
" clip-path="url(#p9c201bdc23)" style="fill: none; stroke-dasharray: 0.8,1.32; stroke-dashoffset: 0; stroke: #808080; stroke-width: 0.8"/>
     </g>
     <g id="line2d_98">
      <g>
       <use xlink:href="#m92705b27aa" x="387.972044" y="308.6" style="stroke: #000000; stroke-width: 0.6"/>
      </g>
     </g>
    </g>
    <g id="xtick_50">
     <g id="line2d_99">
      <path d="M 393.925163 308.6 
L 393.925163 28.8 
" clip-path="url(#p9c201bdc23)" style="fill: none; stroke-dasharray: 0.8,1.32; stroke-dashoffset: 0; stroke: #808080; stroke-width: 0.8"/>
     </g>
     <g id="line2d_100">
      <g>
       <use xlink:href="#m92705b27aa" x="393.925163" y="308.6" style="stroke: #000000; stroke-width: 0.6"/>
      </g>
     </g>
    </g>
    <g id="xtick_51">
     <g id="line2d_101">
      <path d="M 398.789215 308.6 
L 398.789215 28.8 
" clip-path="url(#p9c201bdc23)" style="fill: none; stroke-dasharray: 0.8,1.32; stroke-dashoffset: 0; stroke: #808080; stroke-width: 0.8"/>
     </g>
     <g id="line2d_102">
      <g>
       <use xlink:href="#m92705b27aa" x="398.789215" y="308.6" style="stroke: #000000; stroke-width: 0.6"/>
      </g>
     </g>
    </g>
    <g id="xtick_52">
     <g id="line2d_103">
      <path d="M 402.901713 308.6 
L 402.901713 28.8 
" clip-path="url(#p9c201bdc23)" style="fill: none; stroke-dasharray: 0.8,1.32; stroke-dashoffset: 0; stroke: #808080; stroke-width: 0.8"/>
     </g>
     <g id="line2d_104">
      <g>
       <use xlink:href="#m92705b27aa" x="402.901713" y="308.6" style="stroke: #000000; stroke-width: 0.6"/>
      </g>
     </g>
    </g>
    <g id="xtick_53">
     <g id="line2d_105">
      <path d="M 406.464121 308.6 
L 406.464121 28.8 
" clip-path="url(#p9c201bdc23)" style="fill: none; stroke-dasharray: 0.8,1.32; stroke-dashoffset: 0; stroke: #808080; stroke-width: 0.8"/>
     </g>
     <g id="line2d_106">
      <g>
       <use xlink:href="#m92705b27aa" x="406.464121" y="308.6" style="stroke: #000000; stroke-width: 0.6"/>
      </g>
     </g>
    </g>
    <g id="xtick_54">
     <g id="line2d_107">
      <path d="M 409.606387 308.6 
L 409.606387 28.8 
" clip-path="url(#p9c201bdc23)" style="fill: none; stroke-dasharray: 0.8,1.32; stroke-dashoffset: 0; stroke: #808080; stroke-width: 0.8"/>
     </g>
     <g id="line2d_108">
      <g>
       <use xlink:href="#m92705b27aa" x="409.606387" y="308.6" style="stroke: #000000; stroke-width: 0.6"/>
      </g>
     </g>
    </g>
    <g id="xtick_55">
     <g id="line2d_109">
      <path d="M 430.909317 308.6 
L 430.909317 28.8 
" clip-path="url(#p9c201bdc23)" style="fill: none; stroke-dasharray: 0.8,1.32; stroke-dashoffset: 0; stroke: #808080; stroke-width: 0.8"/>
     </g>
     <g id="line2d_110">
      <g>
       <use xlink:href="#m92705b27aa" x="430.909317" y="308.6" style="stroke: #000000; stroke-width: 0.6"/>
      </g>
     </g>
    </g>
    <g id="xtick_56">
     <g id="line2d_111">
      <path d="M 441.726489 308.6 
L 441.726489 28.8 
" clip-path="url(#p9c201bdc23)" style="fill: none; stroke-dasharray: 0.8,1.32; stroke-dashoffset: 0; stroke: #808080; stroke-width: 0.8"/>
     </g>
     <g id="line2d_112">
      <g>
       <use xlink:href="#m92705b27aa" x="441.726489" y="308.6" style="stroke: #000000; stroke-width: 0.6"/>
      </g>
     </g>
    </g>
    <g id="xtick_57">
     <g id="line2d_113">
      <path d="M 449.401395 308.6 
L 449.401395 28.8 
" clip-path="url(#p9c201bdc23)" style="fill: none; stroke-dasharray: 0.8,1.32; stroke-dashoffset: 0; stroke: #808080; stroke-width: 0.8"/>
     </g>
     <g id="line2d_114">
      <g>
       <use xlink:href="#m92705b27aa" x="449.401395" y="308.6" style="stroke: #000000; stroke-width: 0.6"/>
      </g>
     </g>
    </g>
    <g id="xtick_58">
     <g id="line2d_115">
      <path d="M 455.354514 308.6 
L 455.354514 28.8 
" clip-path="url(#p9c201bdc23)" style="fill: none; stroke-dasharray: 0.8,1.32; stroke-dashoffset: 0; stroke: #808080; stroke-width: 0.8"/>
     </g>
     <g id="line2d_116">
      <g>
       <use xlink:href="#m92705b27aa" x="455.354514" y="308.6" style="stroke: #000000; stroke-width: 0.6"/>
      </g>
     </g>
    </g>
    <g id="xtick_59">
     <g id="line2d_117">
      <path d="M 460.218566 308.6 
L 460.218566 28.8 
" clip-path="url(#p9c201bdc23)" style="fill: none; stroke-dasharray: 0.8,1.32; stroke-dashoffset: 0; stroke: #808080; stroke-width: 0.8"/>
     </g>
     <g id="line2d_118">
      <g>
       <use xlink:href="#m92705b27aa" x="460.218566" y="308.6" style="stroke: #000000; stroke-width: 0.6"/>
      </g>
     </g>
    </g>
    <g id="xtick_60">
     <g id="line2d_119">
      <path d="M 464.331064 308.6 
L 464.331064 28.8 
" clip-path="url(#p9c201bdc23)" style="fill: none; stroke-dasharray: 0.8,1.32; stroke-dashoffset: 0; stroke: #808080; stroke-width: 0.8"/>
     </g>
     <g id="line2d_120">
      <g>
       <use xlink:href="#m92705b27aa" x="464.331064" y="308.6" style="stroke: #000000; stroke-width: 0.6"/>
      </g>
     </g>
    </g>
    <g id="xtick_61">
     <g id="line2d_121">
      <path d="M 467.893472 308.6 
L 467.893472 28.8 
" clip-path="url(#p9c201bdc23)" style="fill: none; stroke-dasharray: 0.8,1.32; stroke-dashoffset: 0; stroke: #808080; stroke-width: 0.8"/>
     </g>
     <g id="line2d_122">
      <g>
       <use xlink:href="#m92705b27aa" x="467.893472" y="308.6" style="stroke: #000000; stroke-width: 0.6"/>
      </g>
     </g>
    </g>
    <g id="xtick_62">
     <g id="line2d_123">
      <path d="M 471.035738 308.6 
L 471.035738 28.8 
" clip-path="url(#p9c201bdc23)" style="fill: none; stroke-dasharray: 0.8,1.32; stroke-dashoffset: 0; stroke: #808080; stroke-width: 0.8"/>
     </g>
     <g id="line2d_124">
      <g>
       <use xlink:href="#m92705b27aa" x="471.035738" y="308.6" style="stroke: #000000; stroke-width: 0.6"/>
      </g>
     </g>
    </g>
    <g id="xtick_63">
     <g id="line2d_125">
      <path d="M 492.338668 308.6 
L 492.338668 28.8 
" clip-path="url(#p9c201bdc23)" style="fill: none; stroke-dasharray: 0.8,1.32; stroke-dashoffset: 0; stroke: #808080; stroke-width: 0.8"/>
     </g>
     <g id="line2d_126">
      <g>
       <use xlink:href="#m92705b27aa" x="492.338668" y="308.6" style="stroke: #000000; stroke-width: 0.6"/>
      </g>
     </g>
    </g>
    <g id="text_8">
     <!-- frequency [Hz] -->
     <g transform="translate(235.970625 340.331875) scale(0.12 -0.12)">
      <defs>
       <path id="DejaVuSans-66" d="M 2375 4863 
L 2375 4384 
L 1825 4384 
Q 1516 4384 1395 4259 
Q 1275 4134 1275 3809 
L 1275 3500 
L 2222 3500 
L 2222 3053 
L 1275 3053 
L 1275 0 
L 697 0 
L 697 3053 
L 147 3053 
L 147 3500 
L 697 3500 
L 697 3744 
Q 697 4328 969 4595 
Q 1241 4863 1831 4863 
L 2375 4863 
z
" transform="scale(0.015625)"/>
       <path id="DejaVuSans-72" d="M 2631 2963 
Q 2534 3019 2420 3045 
Q 2306 3072 2169 3072 
Q 1681 3072 1420 2755 
Q 1159 2438 1159 1844 
L 1159 0 
L 581 0 
L 581 3500 
L 1159 3500 
L 1159 2956 
Q 1341 3275 1631 3429 
Q 1922 3584 2338 3584 
Q 2397 3584 2469 3576 
Q 2541 3569 2628 3553 
L 2631 2963 
z
" transform="scale(0.015625)"/>
       <path id="DejaVuSans-65" d="M 3597 1894 
L 3597 1613 
L 953 1613 
Q 991 1019 1311 708 
Q 1631 397 2203 397 
Q 2534 397 2845 478 
Q 3156 559 3463 722 
L 3463 178 
Q 3153 47 2828 -22 
Q 2503 -91 2169 -91 
Q 1331 -91 842 396 
Q 353 884 353 1716 
Q 353 2575 817 3079 
Q 1281 3584 2069 3584 
Q 2775 3584 3186 3129 
Q 3597 2675 3597 1894 
z
M 3022 2063 
Q 3016 2534 2758 2815 
Q 2500 3097 2075 3097 
Q 1594 3097 1305 2825 
Q 1016 2553 972 2059 
L 3022 2063 
z
" transform="scale(0.015625)"/>
       <path id="DejaVuSans-71" d="M 947 1747 
Q 947 1113 1208 752 
Q 1469 391 1925 391 
Q 2381 391 2643 752 
Q 2906 1113 2906 1747 
Q 2906 2381 2643 2742 
Q 2381 3103 1925 3103 
Q 1469 3103 1208 2742 
Q 947 2381 947 1747 
z
M 2906 525 
Q 2725 213 2448 61 
Q 2172 -91 1784 -91 
Q 1150 -91 751 415 
Q 353 922 353 1747 
Q 353 2572 751 3078 
Q 1150 3584 1784 3584 
Q 2172 3584 2448 3432 
Q 2725 3281 2906 2969 
L 2906 3500 
L 3481 3500 
L 3481 -1331 
L 2906 -1331 
L 2906 525 
z
" transform="scale(0.015625)"/>
       <path id="DejaVuSans-75" d="M 544 1381 
L 544 3500 
L 1119 3500 
L 1119 1403 
Q 1119 906 1312 657 
Q 1506 409 1894 409 
Q 2359 409 2629 706 
Q 2900 1003 2900 1516 
L 2900 3500 
L 3475 3500 
L 3475 0 
L 2900 0 
L 2900 538 
Q 2691 219 2414 64 
Q 2138 -91 1772 -91 
Q 1169 -91 856 284 
Q 544 659 544 1381 
z
M 1991 3584 
L 1991 3584 
z
" transform="scale(0.015625)"/>
       <path id="DejaVuSans-6e" d="M 3513 2113 
L 3513 0 
L 2938 0 
L 2938 2094 
Q 2938 2591 2744 2837 
Q 2550 3084 2163 3084 
Q 1697 3084 1428 2787 
Q 1159 2491 1159 1978 
L 1159 0 
L 581 0 
L 581 3500 
L 1159 3500 
L 1159 2956 
Q 1366 3272 1645 3428 
Q 1925 3584 2291 3584 
Q 2894 3584 3203 3211 
Q 3513 2838 3513 2113 
z
" transform="scale(0.015625)"/>
       <path id="DejaVuSans-63" d="M 3122 3366 
L 3122 2828 
Q 2878 2963 2633 3030 
Q 2388 3097 2138 3097 
Q 1578 3097 1268 2742 
Q 959 2388 959 1747 
Q 959 1106 1268 751 
Q 1578 397 2138 397 
Q 2388 397 2633 464 
Q 2878 531 3122 666 
L 3122 134 
Q 2881 22 2623 -34 
Q 2366 -91 2075 -91 
Q 1284 -91 818 406 
Q 353 903 353 1747 
Q 353 2603 823 3093 
Q 1294 3584 2113 3584 
Q 2378 3584 2631 3529 
Q 2884 3475 3122 3366 
z
" transform="scale(0.015625)"/>
       <path id="DejaVuSans-79" d="M 2059 -325 
Q 1816 -950 1584 -1140 
Q 1353 -1331 966 -1331 
L 506 -1331 
L 506 -850 
L 844 -850 
Q 1081 -850 1212 -737 
Q 1344 -625 1503 -206 
L 1606 56 
L 191 3500 
L 800 3500 
L 1894 763 
L 2988 3500 
L 3597 3500 
L 2059 -325 
z
" transform="scale(0.015625)"/>
       <path id="DejaVuSans-20" transform="scale(0.015625)"/>
       <path id="DejaVuSans-5b" d="M 550 4863 
L 1875 4863 
L 1875 4416 
L 1125 4416 
L 1125 -397 
L 1875 -397 
L 1875 -844 
L 550 -844 
L 550 4863 
z
" transform="scale(0.015625)"/>
       <path id="DejaVuSans-48" d="M 628 4666 
L 1259 4666 
L 1259 2753 
L 3553 2753 
L 3553 4666 
L 4184 4666 
L 4184 0 
L 3553 0 
L 3553 2222 
L 1259 2222 
L 1259 0 
L 628 0 
L 628 4666 
z
" transform="scale(0.015625)"/>
       <path id="DejaVuSans-7a" d="M 353 3500 
L 3084 3500 
L 3084 2975 
L 922 459 
L 3084 459 
L 3084 0 
L 275 0 
L 275 525 
L 2438 3041 
L 353 3041 
L 353 3500 
z
" transform="scale(0.015625)"/>
       <path id="DejaVuSans-5d" d="M 1947 4863 
L 1947 -844 
L 622 -844 
L 622 -397 
L 1369 -397 
L 1369 4416 
L 622 4416 
L 622 4863 
L 1947 4863 
z
" transform="scale(0.015625)"/>
      </defs>
      <use xlink:href="#DejaVuSans-66"/>
      <use xlink:href="#DejaVuSans-72" x="35.205078"/>
      <use xlink:href="#DejaVuSans-65" x="74.068359"/>
      <use xlink:href="#DejaVuSans-71" x="135.591797"/>
      <use xlink:href="#DejaVuSans-75" x="199.068359"/>
      <use xlink:href="#DejaVuSans-65" x="262.447266"/>
      <use xlink:href="#DejaVuSans-6e" x="323.970703"/>
      <use xlink:href="#DejaVuSans-63" x="387.349609"/>
      <use xlink:href="#DejaVuSans-79" x="442.330078"/>
      <use xlink:href="#DejaVuSans-20" x="501.509766"/>
      <use xlink:href="#DejaVuSans-5b" x="533.296875"/>
      <use xlink:href="#DejaVuSans-48" x="572.310547"/>
      <use xlink:href="#DejaVuSans-7a" x="647.505859"/>
      <use xlink:href="#DejaVuSans-5d" x="699.996094"/>
     </g>
    </g>
   </g>
   <g id="matplotlib.axis_2">
    <g id="ytick_1">
     <g id="line2d_127">
      <path d="M 67.425 295.762649 
L 493.2 295.762649 
" clip-path="url(#p9c201bdc23)" style="fill: none; stroke: #808080; stroke-width: 0.8; stroke-linecap: square"/>
     </g>
     <g id="line2d_128">
      <defs>
       <path id="mf428e78da0" d="M 0 0 
L -3.5 0 
" style="stroke: #000000; stroke-width: 0.8"/>
      </defs>
      <g>
       <use xlink:href="#mf428e78da0" x="67.425" y="295.762649" style="stroke: #000000; stroke-width: 0.8"/>
      </g>
     </g>
     <g id="text_9">
      <!-- −400 -->
      <g transform="translate(27.464375 300.321711) scale(0.12 -0.12)">
       <defs>
        <path id="DejaVuSans-2212" d="M 678 2272 
L 4684 2272 
L 4684 1741 
L 678 1741 
L 678 2272 
z
" transform="scale(0.015625)"/>
       </defs>
       <use xlink:href="#DejaVuSans-2212"/>
       <use xlink:href="#DejaVuSans-34" x="83.789062"/>
       <use xlink:href="#DejaVuSans-30" x="147.412109"/>
       <use xlink:href="#DejaVuSans-30" x="211.035156"/>
      </g>
     </g>
    </g>
    <g id="ytick_2">
     <g id="line2d_129">
      <path d="M 67.425 255.311786 
L 493.2 255.311786 
" clip-path="url(#p9c201bdc23)" style="fill: none; stroke: #808080; stroke-width: 0.8; stroke-linecap: square"/>
     </g>
     <g id="line2d_130">
      <g>
       <use xlink:href="#mf428e78da0" x="67.425" y="255.311786" style="stroke: #000000; stroke-width: 0.8"/>
      </g>
     </g>
     <g id="text_10">
      <!-- −350 -->
      <g transform="translate(27.464375 259.870849) scale(0.12 -0.12)">
       <use xlink:href="#DejaVuSans-2212"/>
       <use xlink:href="#DejaVuSans-33" x="83.789062"/>
       <use xlink:href="#DejaVuSans-35" x="147.412109"/>
       <use xlink:href="#DejaVuSans-30" x="211.035156"/>
      </g>
     </g>
    </g>
    <g id="ytick_3">
     <g id="line2d_131">
      <path d="M 67.425 214.860923 
L 493.2 214.860923 
" clip-path="url(#p9c201bdc23)" style="fill: none; stroke: #808080; stroke-width: 0.8; stroke-linecap: square"/>
     </g>
     <g id="line2d_132">
      <g>
       <use xlink:href="#mf428e78da0" x="67.425" y="214.860923" style="stroke: #000000; stroke-width: 0.8"/>
      </g>
     </g>
     <g id="text_11">
      <!-- −300 -->
      <g transform="translate(27.464375 219.419986) scale(0.12 -0.12)">
       <use xlink:href="#DejaVuSans-2212"/>
       <use xlink:href="#DejaVuSans-33" x="83.789062"/>
       <use xlink:href="#DejaVuSans-30" x="147.412109"/>
       <use xlink:href="#DejaVuSans-30" x="211.035156"/>
      </g>
     </g>
    </g>
    <g id="ytick_4">
     <g id="line2d_133">
      <path d="M 67.425 174.41006 
L 493.2 174.41006 
" clip-path="url(#p9c201bdc23)" style="fill: none; stroke: #808080; stroke-width: 0.8; stroke-linecap: square"/>
     </g>
     <g id="line2d_134">
      <g>
       <use xlink:href="#mf428e78da0" x="67.425" y="174.41006" style="stroke: #000000; stroke-width: 0.8"/>
      </g>
     </g>
     <g id="text_12">
      <!-- −250 -->
      <g transform="translate(27.464375 178.969123) scale(0.12 -0.12)">
       <use xlink:href="#DejaVuSans-2212"/>
       <use xlink:href="#DejaVuSans-32" x="83.789062"/>
       <use xlink:href="#DejaVuSans-35" x="147.412109"/>
       <use xlink:href="#DejaVuSans-30" x="211.035156"/>
      </g>
     </g>
    </g>
    <g id="ytick_5">
     <g id="line2d_135">
      <path d="M 67.425 133.959197 
L 493.2 133.959197 
" clip-path="url(#p9c201bdc23)" style="fill: none; stroke: #808080; stroke-width: 0.8; stroke-linecap: square"/>
     </g>
     <g id="line2d_136">
      <g>
       <use xlink:href="#mf428e78da0" x="67.425" y="133.959197" style="stroke: #000000; stroke-width: 0.8"/>
      </g>
     </g>
     <g id="text_13">
      <!-- −200 -->
      <g transform="translate(27.464375 138.51826) scale(0.12 -0.12)">
       <use xlink:href="#DejaVuSans-2212"/>
       <use xlink:href="#DejaVuSans-32" x="83.789062"/>
       <use xlink:href="#DejaVuSans-30" x="147.412109"/>
       <use xlink:href="#DejaVuSans-30" x="211.035156"/>
      </g>
     </g>
    </g>
    <g id="ytick_6">
     <g id="line2d_137">
      <path d="M 67.425 93.508334 
L 493.2 93.508334 
" clip-path="url(#p9c201bdc23)" style="fill: none; stroke: #808080; stroke-width: 0.8; stroke-linecap: square"/>
     </g>
     <g id="line2d_138">
      <g>
       <use xlink:href="#mf428e78da0" x="67.425" y="93.508334" style="stroke: #000000; stroke-width: 0.8"/>
      </g>
     </g>
     <g id="text_14">
      <!-- −150 -->
      <g transform="translate(27.464375 98.067397) scale(0.12 -0.12)">
       <use xlink:href="#DejaVuSans-2212"/>
       <use xlink:href="#DejaVuSans-31" x="83.789062"/>
       <use xlink:href="#DejaVuSans-35" x="147.412109"/>
       <use xlink:href="#DejaVuSans-30" x="211.035156"/>
      </g>
     </g>
    </g>
    <g id="ytick_7">
     <g id="line2d_139">
      <path d="M 67.425 53.057471 
L 493.2 53.057471 
" clip-path="url(#p9c201bdc23)" style="fill: none; stroke: #808080; stroke-width: 0.8; stroke-linecap: square"/>
     </g>
     <g id="line2d_140">
      <g>
       <use xlink:href="#mf428e78da0" x="67.425" y="53.057471" style="stroke: #000000; stroke-width: 0.8"/>
      </g>
     </g>
     <g id="text_15">
      <!-- −100 -->
      <g transform="translate(27.464375 57.616534) scale(0.12 -0.12)">
       <use xlink:href="#DejaVuSans-2212"/>
       <use xlink:href="#DejaVuSans-31" x="83.789062"/>
       <use xlink:href="#DejaVuSans-30" x="147.412109"/>
       <use xlink:href="#DejaVuSans-30" x="211.035156"/>
      </g>
     </g>
    </g>
    <g id="text_16">
     <!--  [deg] -->
     <g transform="translate(20.96875 186.59875) rotate(-90) scale(0.12 -0.12)">
      <defs>
       <path id="DejaVuSans-64" d="M 2906 2969 
L 2906 4863 
L 3481 4863 
L 3481 0 
L 2906 0 
L 2906 525 
Q 2725 213 2448 61 
Q 2172 -91 1784 -91 
Q 1150 -91 751 415 
Q 353 922 353 1747 
Q 353 2572 751 3078 
Q 1150 3584 1784 3584 
Q 2172 3584 2448 3432 
Q 2725 3281 2906 2969 
z
M 947 1747 
Q 947 1113 1208 752 
Q 1469 391 1925 391 
Q 2381 391 2643 752 
Q 2906 1113 2906 1747 
Q 2906 2381 2643 2742 
Q 2381 3103 1925 3103 
Q 1469 3103 1208 2742 
Q 947 2381 947 1747 
z
" transform="scale(0.015625)"/>
       <path id="DejaVuSans-67" d="M 2906 1791 
Q 2906 2416 2648 2759 
Q 2391 3103 1925 3103 
Q 1463 3103 1205 2759 
Q 947 2416 947 1791 
Q 947 1169 1205 825 
Q 1463 481 1925 481 
Q 2391 481 2648 825 
Q 2906 1169 2906 1791 
z
M 3481 434 
Q 3481 -459 3084 -895 
Q 2688 -1331 1869 -1331 
Q 1566 -1331 1297 -1286 
Q 1028 -1241 775 -1147 
L 775 -588 
Q 1028 -725 1275 -790 
Q 1522 -856 1778 -856 
Q 2344 -856 2625 -561 
Q 2906 -266 2906 331 
L 2906 616 
Q 2728 306 2450 153 
Q 2172 0 1784 0 
Q 1141 0 747 490 
Q 353 981 353 1791 
Q 353 2603 747 3093 
Q 1141 3584 1784 3584 
Q 2172 3584 2450 3431 
Q 2728 3278 2906 2969 
L 2906 3500 
L 3481 3500 
L 3481 434 
z
" transform="scale(0.015625)"/>
      </defs>
      <use xlink:href="#DejaVuSans-20"/>
      <use xlink:href="#DejaVuSans-5b" x="31.787109"/>
      <use xlink:href="#DejaVuSans-64" x="70.800781"/>
      <use xlink:href="#DejaVuSans-65" x="134.277344"/>
      <use xlink:href="#DejaVuSans-67" x="195.800781"/>
      <use xlink:href="#DejaVuSans-5d" x="259.277344"/>
     </g>
    </g>
   </g>
   <g id="line2d_141">
    <path d="M 86.778409 41.518182 
L 90.464773 46.177997 
L 95.379924 51.975084 
L 102.752652 60.258287 
L 115.04053 73.721344 
L 121.18447 80.191996 
L 126.099621 85.083488 
L 131.014773 89.618394 
L 134.701136 92.74308 
L 138.3875 95.611632 
L 142.073864 98.218455 
L 145.760227 100.567072 
L 149.446591 102.667961 
L 153.132955 104.536338 
L 156.819318 106.190208 
L 160.505682 107.64881 
L 165.420833 109.323223 
L 170.335985 110.72864 
L 175.251136 111.905079 
L 181.395076 113.107172 
L 187.539015 114.065536 
L 194.911742 114.961488 
L 203.513258 115.738989 
L 213.343561 116.370379 
L 224.402652 116.85319 
L 239.148106 117.256443 
L 258.808712 117.5535 
L 296.901136 117.850531 
L 327.620833 118.181266 
L 344.823864 118.572708 
L 357.111742 119.047046 
L 366.942045 119.617328 
L 375.543561 120.320677 
L 382.916288 121.133555 
L 389.060227 122.006888 
L 395.204167 123.109593 
L 400.119318 124.198598 
L 405.03447 125.515381 
L 409.949621 127.111892 
L 413.635985 128.532522 
L 417.322349 130.184024 
L 421.008712 132.112326 
L 424.695076 134.377526 
L 427.152652 136.113935 
L 429.610227 138.06766 
L 432.067803 140.280104 
L 434.525379 142.806392 
L 436.982955 145.72225 
L 439.44053 149.135324 
L 441.898106 153.204335 
L 443.126894 155.556075 
L 444.355682 158.172073 
L 445.58447 161.105017 
L 446.813258 164.42163 
L 448.042045 168.206082 
L 449.270833 172.56297 
L 450.499621 177.617714 
L 451.728409 183.509593 
L 452.957197 190.368646 
L 454.185985 198.265262 
L 456.643561 216.68565 
L 459.101136 235.876377 
L 460.329924 244.55718 
L 461.558712 252.296078 
L 462.7875 259.087598 
L 464.016288 265.032026 
L 465.245076 270.265867 
L 466.473864 274.92311 
L 468.931439 282.94997 
L 471.389015 289.795175 
L 473.846591 295.881818 
L 473.846591 295.881818 
" clip-path="url(#p9c201bdc23)" style="fill: none; stroke: #ff0000; stroke-width: 2; stroke-linecap: square"/>
   </g>
   <g id="line2d_142">
    <path d="M 86.778409 41.518189 
L 90.464773 46.178005 
L 95.379924 51.975093 
L 102.752652 60.2583 
L 115.04053 73.721362 
L 121.18447 80.19202 
L 126.099621 85.083517 
L 131.014773 89.618429 
L 134.701136 92.743119 
L 138.3875 95.611677 
L 142.073864 98.218507 
L 145.760227 100.567132 
L 149.446591 102.668029 
L 153.132955 104.536416 
L 156.819318 106.190298 
L 160.505682 107.648913 
L 165.420833 109.323347 
L 170.335985 110.728789 
L 175.251136 111.905258 
L 181.395076 113.107397 
L 187.539015 114.06582 
L 194.911742 114.961862 
L 203.513258 115.739505 
L 213.343561 116.371125 
L 224.402652 116.854319 
L 239.148106 117.258406 
L 258.808712 117.557602 
L 299.358712 117.887589 
L 327.620833 118.235364 
L 343.595076 118.634479 
L 355.882954 119.145403 
L 365.713258 119.759707 
L 374.314773 120.517295 
L 381.6875 121.392703 
L 387.831439 122.332953 
L 393.975379 123.519635 
L 398.89053 124.690858 
L 403.805682 126.105874 
L 407.492045 127.359479 
L 411.178409 128.80908 
L 414.864773 130.489326 
L 418.551136 132.443201 
L 422.2375 134.725261 
L 424.695076 136.463229 
L 427.152652 138.405023 
L 429.610227 140.583973 
L 432.067803 143.042352 
L 434.525379 145.834976 
L 436.982955 149.034617 
L 439.44053 152.740259 
L 441.898106 157.089697 
L 444.355682 162.278323 
L 445.58447 165.270378 
L 446.813258 168.584825 
L 448.042045 172.273889 
L 449.270833 176.396981 
L 450.499621 181.018445 
L 451.728409 186.201836 
L 452.957197 191.998733 
L 454.185985 198.430589 
L 456.643561 212.99405 
L 461.558712 243.746897 
L 464.016288 256.779517 
L 466.473864 267.641023 
L 468.931439 276.727262 
L 471.389015 284.51691 
L 473.846591 291.393735 
L 473.846591 291.393735 
" clip-path="url(#p9c201bdc23)" style="fill: none; stroke: #0000ff; stroke-width: 2; stroke-linecap: square"/>
   </g>
   <g id="line2d_143">
    <path d="M 86.778409 41.518196 
L 90.464773 46.178012 
L 95.379924 51.975103 
L 102.752652 60.258312 
L 115.04053 73.721381 
L 121.18447 80.192044 
L 126.099621 85.083545 
L 131.014773 89.618463 
L 134.701136 92.743158 
L 138.3875 95.611722 
L 142.073864 98.218559 
L 145.760227 100.567191 
L 149.446591 102.668097 
L 153.132955 104.536495 
L 156.819318 106.190387 
L 160.505682 107.649016 
L 165.420833 109.32347 
L 170.335985 110.728938 
L 175.251136 111.905437 
L 181.395076 113.107622 
L 187.539015 114.066104 
L 194.911742 114.962236 
L 203.513258 115.740022 
L 213.343561 116.371871 
L 224.402652 116.855449 
L 239.148106 117.260369 
L 258.808712 117.561704 
L 337.451136 118.531672 
L 350.967803 119.042674 
L 360.798106 119.612061 
L 369.399621 120.313665 
L 376.772349 121.123754 
L 382.916288 121.993052 
L 389.060227 123.088803 
L 393.975379 124.168459 
L 398.89053 125.469933 
L 403.805682 127.04077 
L 407.492045 128.430742 
L 411.178409 130.035717 
L 414.864773 131.892447 
L 418.551136 134.045871 
L 422.2375 136.55196 
L 424.695076 138.453029 
L 427.152652 140.568343 
L 429.610227 142.929766 
L 432.067803 145.576615 
L 434.525379 148.558236 
L 436.982955 151.93766 
L 439.44053 155.796768 
L 441.898106 160.243423 
L 444.355682 165.420743 
L 446.813258 171.517281 
L 449.270833 178.77242 
L 450.499621 182.920089 
L 452.957197 192.418779 
L 455.414773 203.628544 
L 457.872349 216.349591 
L 462.7875 243.082111 
L 465.245076 255.180035 
L 467.702652 265.814198 
L 470.160227 275.061432 
L 472.617803 283.166964 
L 473.846591 286.874335 
L 473.846591 286.874335 
" clip-path="url(#p9c201bdc23)" style="fill: none; stroke: #008000; stroke-width: 2; stroke-linecap: square"/>
   </g>
   <g id="line2d_144">
    <path d="M 86.778409 41.518202 
L 90.464773 46.17802 
L 95.379924 51.975112 
L 102.752652 60.258324 
L 115.04053 73.7214 
L 121.18447 80.192067 
L 126.099621 85.083574 
L 131.014773 89.618497 
L 134.701136 92.743197 
L 138.3875 95.611767 
L 142.073864 98.21861 
L 145.760227 100.56725 
L 149.446591 102.668165 
L 153.132955 104.536573 
L 156.819318 106.190477 
L 160.505682 107.649119 
L 165.420833 109.323594 
L 170.335985 110.729087 
L 175.251136 111.905616 
L 181.395076 113.107848 
L 187.539015 114.066387 
L 194.911742 114.96261 
L 203.513258 115.740538 
L 213.343561 116.372617 
L 224.402652 116.856579 
L 239.148106 117.262332 
L 258.808712 117.565806 
L 333.764773 118.498869 
L 347.281439 118.990301 
L 358.34053 119.620647 
L 366.942045 120.325644 
L 374.314773 121.139293 
L 380.458712 122.011935 
L 386.602651 123.111046 
L 391.517803 124.192882 
L 396.432955 125.495182 
L 401.348106 127.063876 
L 405.03447 128.448573 
L 408.720833 130.042876 
L 412.407197 131.88024 
L 416.093561 134.0004 
L 419.779924 136.451069 
L 422.2375 138.296645 
L 424.695076 140.335156 
L 427.152652 142.590487 
L 429.610227 145.090805 
L 432.067803 147.869746 
L 434.525379 150.96805 
L 436.982955 154.435769 
L 439.44053 158.335241 
L 441.898106 162.744949 
L 444.355682 167.76417 
L 446.813258 173.517565 
L 449.270833 180.156971 
L 451.728409 187.853455 
L 454.185985 196.765742 
L 456.643561 206.966146 
L 459.101136 218.322834 
L 466.473864 254.080651 
L 468.931439 264.606896 
L 471.389015 274.010499 
L 473.846591 282.376347 
L 473.846591 282.376347 
" clip-path="url(#p9c201bdc23)" style="fill: none; stroke: #00bfbf; stroke-width: 2; stroke-linecap: square"/>
   </g>
   <g id="line2d_145">
    <path d="M 86.778409 41.518209 
L 90.464773 46.178028 
L 95.379924 51.975121 
L 102.752652 60.258336 
L 115.04053 73.721419 
L 121.18447 80.192091 
L 126.099621 85.083602 
L 131.014773 89.618531 
L 134.701136 92.743237 
L 138.3875 95.611812 
L 142.073864 98.218662 
L 145.760227 100.56731 
L 149.446591 102.668233 
L 153.132955 104.536651 
L 156.819318 106.190567 
L 160.505682 107.649222 
L 165.420833 109.323718 
L 170.335985 110.729236 
L 175.251136 111.905795 
L 181.395076 113.108073 
L 187.539015 114.066671 
L 194.911742 114.962984 
L 203.513258 115.741054 
L 213.343561 116.373364 
L 224.402652 116.857708 
L 239.148106 117.264295 
L 260.0375 117.583773 
L 330.078409 118.460958 
L 343.595076 118.929775 
L 354.654167 119.530113 
L 363.255682 120.201049 
L 370.628409 120.974964 
L 376.772349 121.80451 
L 382.916288 122.848548 
L 387.831439 123.875161 
L 392.746591 125.109387 
L 397.661742 126.59333 
L 401.348106 127.900287 
L 405.03447 129.401142 
L 408.720833 131.124843 
L 412.407197 133.104784 
L 416.093561 135.379612 
L 419.779924 137.994262 
L 423.466288 141.00138 
L 425.923864 143.254498 
L 428.381439 145.731029 
L 430.839015 148.455585 
L 433.296591 151.456697 
L 435.754167 154.767947 
L 438.211742 158.429509 
L 440.669318 162.490257 
L 443.126894 167.010487 
L 445.58447 172.06521 
L 448.042045 177.747431 
L 450.499621 184.169748 
L 452.957197 191.460188 
L 455.414773 199.744268 
L 457.872349 209.1016 
L 460.329924 219.490701 
L 464.016288 236.410053 
L 467.702652 253.416797 
L 470.160227 263.956744 
L 472.617803 273.537265 
L 473.846591 277.951287 
L 473.846591 277.951287 
" clip-path="url(#p9c201bdc23)" style="fill: none; stroke: #bf00bf; stroke-width: 2; stroke-linecap: square"/>
   </g>
   <g id="line2d_146">
    <path d="M 86.778409 41.518216 
L 90.464773 46.178036 
L 95.379924 51.975131 
L 102.752652 60.258348 
L 115.04053 73.721438 
L 121.18447 80.192115 
L 126.099621 85.083631 
L 131.014773 89.618565 
L 134.701136 92.743276 
L 138.3875 95.611857 
L 142.073864 98.218714 
L 145.760227 100.567369 
L 149.446591 102.668301 
L 153.132955 104.536729 
L 156.819318 106.190656 
L 160.505682 107.649326 
L 165.420833 109.323842 
L 170.335985 110.729385 
L 175.251136 111.905974 
L 181.395076 113.108298 
L 187.539015 114.066955 
L 194.911742 114.963358 
L 203.513258 115.74157 
L 213.343561 116.37411 
L 224.402652 116.858838 
L 239.148106 117.266258 
L 260.0375 117.588069 
L 326.392045 118.419649 
L 339.908712 118.863982 
L 350.967803 119.431815 
L 359.569318 120.065899 
L 366.942045 120.796929 
L 374.314773 121.75951 
L 380.458712 122.790889 
L 385.373864 123.804267 
L 390.289015 125.021348 
L 395.204167 126.482556 
L 398.89053 127.767241 
L 402.576894 129.239526 
L 406.263258 130.925914 
L 409.949621 132.856252 
L 413.635985 135.064009 
L 417.322349 137.58655 
L 421.008712 140.465456 
L 424.695076 143.746988 
L 427.152652 146.183666 
L 429.610227 148.839194 
L 432.067803 151.732401 
L 434.525379 154.884527 
L 436.982955 158.320169 
L 439.44053 162.068687 
L 441.898106 166.166214 
L 444.355682 170.658423 
L 446.813258 175.604081 
L 449.270833 181.079141 
L 451.728409 187.180337 
L 454.185985 194.025576 
L 456.643561 201.745145 
L 459.101136 210.453239 
L 461.558712 220.187988 
L 464.016288 230.823999 
L 471.389015 263.868398 
L 473.846591 273.645487 
L 473.846591 273.645487 
" clip-path="url(#p9c201bdc23)" style="fill: none; stroke: #bfbf00; stroke-width: 2; stroke-linecap: square"/>
   </g>
   <g id="line2d_147">
    <path d="M 86.778409 41.518223 
L 90.464773 46.178044 
L 95.379924 51.97514 
L 102.752652 60.25836 
L 115.04053 73.721457 
L 121.18447 80.192139 
L 126.099621 85.083659 
L 131.014773 89.6186 
L 134.701136 92.743315 
L 138.3875 95.611902 
L 142.073864 98.218765 
L 145.760227 100.567428 
L 149.446591 102.66837 
L 153.132955 104.536807 
L 156.819318 106.190746 
L 160.505682 107.649429 
L 165.420833 109.323966 
L 170.335985 110.729534 
L 175.251136 111.906153 
L 181.395076 113.108524 
L 187.539015 114.067238 
L 194.911742 114.963732 
L 203.513258 115.742086 
L 213.343561 116.374856 
L 224.402652 116.859967 
L 239.148106 117.268221 
L 260.0375 117.592364 
L 323.93447 118.406597 
L 338.679924 118.89585 
L 349.739015 119.480481 
L 358.34053 120.133182 
L 365.713258 120.885479 
L 373.085985 121.875666 
L 379.229924 122.935992 
L 384.145076 123.977023 
L 389.060227 125.226069 
L 393.975379 126.723505 
L 397.661742 128.037775 
L 401.348106 129.540961 
L 405.03447 131.258271 
L 408.720833 133.217377 
L 412.407197 135.448277 
L 416.093561 137.983007 
L 419.779924 140.855206 
L 423.466288 144.09964 
L 427.152652 147.751905 
L 430.839015 151.848833 
L 434.525379 156.430485 
L 436.982955 159.777449 
L 439.44053 163.379106 
L 441.898106 167.259127 
L 444.355682 171.449562 
L 446.813258 175.994671 
L 449.270833 180.955748 
L 451.728409 186.41665 
L 454.185985 192.488825 
L 456.643561 199.312528 
L 459.101136 207.04653 
L 461.558712 215.832166 
L 464.016288 225.715486 
L 466.473864 236.534978 
L 472.617803 264.3802 
L 473.846591 269.497092 
L 473.846591 269.497092 
" clip-path="url(#p9c201bdc23)" style="fill: none; stroke: #000000; stroke-width: 2; stroke-linecap: square"/>
   </g>
   <g id="line2d_148">
    <path d="M 86.778409 41.51823 
L 90.464773 46.178051 
L 95.379924 51.975149 
L 102.752652 60.258372 
L 115.04053 73.721476 
L 121.18447 80.192162 
L 126.099621 85.083688 
L 131.014773 89.618634 
L 134.701136 92.743354 
L 138.3875 95.611947 
L 142.073864 98.218817 
L 145.760227 100.567488 
L 149.446591 102.668438 
L 153.132955 104.536885 
L 156.819318 106.190836 
L 160.505682 107.649532 
L 165.420833 109.32409 
L 170.335985 110.729682 
L 175.251136 111.906332 
L 181.395076 113.108749 
L 187.539015 114.067522 
L 194.911742 114.964106 
L 203.513258 115.742603 
L 213.343561 116.375602 
L 224.402652 116.861097 
L 239.148106 117.270185 
L 260.0375 117.596659 
L 322.705682 118.421262 
L 336.222348 118.869824 
L 347.281439 119.442103 
L 355.882954 120.080646 
L 363.255682 120.816356 
L 370.628409 121.784341 
L 376.772349 122.820394 
L 381.6875 123.837012 
L 386.602651 125.055866 
L 391.517803 126.515575 
L 396.432955 128.260935 
L 400.119318 129.787947 
L 403.805682 131.5281 
L 407.492045 133.50683 
L 411.178409 135.750691 
L 414.864773 138.28661 
L 418.551136 141.140881 
L 422.2375 144.338056 
L 425.923864 147.899993 
L 429.610227 151.845669 
L 433.296591 156.192648 
L 436.982955 160.961534 
L 440.669318 166.185014 
L 444.355682 171.923473 
L 446.813258 176.087669 
L 449.270833 180.58232 
L 451.728409 185.484172 
L 454.185985 190.900536 
L 456.643561 196.97573 
L 459.101136 203.891986 
L 461.558712 211.852825 
L 464.016288 221.026398 
L 466.473864 231.426333 
L 470.160227 248.585016 
L 473.846591 265.534426 
L 473.846591 265.534426 
" clip-path="url(#p9c201bdc23)" style="fill: none; stroke: #ff0000; stroke-width: 2; stroke-linecap: square"/>
   </g>
   <g id="line2d_149">
    <path d="M 86.778409 41.518237 
L 90.464773 46.178059 
L 95.379924 51.975158 
L 102.752652 60.258384 
L 115.04053 73.721495 
L 121.18447 80.192186 
L 126.099621 85.083716 
L 131.014773 89.618668 
L 134.701136 92.743394 
L 138.3875 95.611992 
L 142.073864 98.218869 
L 145.760227 100.567547 
L 149.446591 102.668506 
L 153.132955 104.536964 
L 156.819318 106.190926 
L 160.505682 107.649635 
L 165.420833 109.324213 
L 170.335985 110.729831 
L 175.251136 111.906511 
L 181.395076 113.108974 
L 187.539015 114.067806 
L 194.911742 114.96448 
L 203.513258 115.743119 
L 213.343561 116.376349 
L 224.402652 116.862226 
L 239.148106 117.272148 
L 260.0375 117.600955 
L 320.248106 118.40143 
L 334.993561 118.890695 
L 346.052652 119.474204 
L 354.654167 120.125117 
L 362.026894 120.874892 
L 369.399621 121.861032 
L 375.543561 122.915971 
L 380.458712 123.950449 
L 385.373864 125.189659 
L 390.289015 126.671938 
L 395.204167 128.441208 
L 398.89053 129.985933 
L 402.576894 131.742086 
L 406.263258 133.732898 
L 409.949621 135.981624 
L 413.635985 138.510426 
L 417.322349 141.338957 
L 421.008712 144.482846 
L 424.695076 147.952426 
L 428.381439 151.752371 
L 432.067803 155.883161 
L 435.754167 160.345506 
L 439.44053 165.148957 
L 443.126894 170.325996 
L 446.813258 175.95329 
L 449.270833 180.025708 
L 451.728409 184.435963 
L 454.185985 189.288223 
L 456.643561 194.727571 
L 459.101136 200.948023 
L 461.558712 208.190552 
L 464.016288 216.709235 
L 466.473864 226.667081 
L 468.931439 237.941479 
L 473.846591 261.775756 
L 473.846591 261.775756 
" clip-path="url(#p9c201bdc23)" style="fill: none; stroke: #0000ff; stroke-width: 2; stroke-linecap: square"/>
   </g>
   <g id="line2d_150">
    <path d="M 86.778409 41.518244 
L 90.464773 46.178067 
L 95.379924 51.975168 
L 102.752652 60.258396 
L 115.04053 73.721514 
L 121.18447 80.19221 
L 126.099621 85.083744 
L 131.014773 89.618702 
L 134.701136 92.743433 
L 138.3875 95.612037 
L 142.073864 98.21892 
L 145.760227 100.567606 
L 149.446591 102.668574 
L 153.132955 104.537042 
L 156.819318 106.191015 
L 160.505682 107.649738 
L 165.420833 109.324337 
L 170.335985 110.72998 
L 175.251136 111.90669 
L 181.395076 113.1092 
L 187.539015 114.068089 
L 194.911742 114.964854 
L 203.513258 115.743635 
L 213.343561 116.377095 
L 224.402652 116.863356 
L 239.148106 117.274111 
L 260.0375 117.60525 
L 319.019318 118.410216 
L 333.764773 118.907355 
L 344.823864 119.499959 
L 353.425379 120.160847 
L 360.798106 120.921924 
L 368.170833 121.922587 
L 374.314773 122.99254 
L 379.229924 124.041099 
L 384.145076 125.296171 
L 389.060227 126.795709 
L 393.975379 128.58267 
L 397.661742 130.139821 
L 401.348106 131.906179 
L 405.03447 133.902863 
L 408.720833 136.150044 
L 412.407197 138.665531 
L 416.093561 141.463071 
L 419.779924 144.550586 
L 423.466288 147.928798 
L 427.152652 151.590926 
L 430.839015 155.524365 
L 434.525379 159.715283 
L 439.44053 165.69462 
L 443.126894 170.497027 
L 446.813258 175.644355 
L 450.499621 181.281101 
L 452.957197 185.434643 
L 455.414773 190.040757 
L 457.872349 195.269507 
L 460.329924 201.351672 
L 462.7875 208.580174 
L 464.016288 212.725006 
L 466.473864 222.240247 
L 468.931439 233.400802 
L 473.846591 258.230159 
L 473.846591 258.230159 
" clip-path="url(#p9c201bdc23)" style="fill: none; stroke: #008000; stroke-width: 2; stroke-linecap: square"/>
   </g>
   <g id="patch_3">
    <path d="M 67.425 308.6 
L 67.425 28.8 
" style="fill: none; stroke: #000000; stroke-width: 0.8; stroke-linejoin: miter; stroke-linecap: square"/>
   </g>
   <g id="patch_4">
    <path d="M 493.2 308.6 
L 493.2 28.8 
" style="fill: none; stroke: #000000; stroke-width: 0.8; stroke-linejoin: miter; stroke-linecap: square"/>
   </g>
   <g id="patch_5">
    <path d="M 67.425 308.6 
L 493.2 308.6 
" style="fill: none; stroke: #000000; stroke-width: 0.8; stroke-linejoin: miter; stroke-linecap: square"/>
   </g>
   <g id="patch_6">
    <path d="M 67.425 28.8 
L 493.2 28.8 
" style="fill: none; stroke: #000000; stroke-width: 0.8; stroke-linejoin: miter; stroke-linecap: square"/>
   </g>
   <g id="text_17">
    <!-- arg($V_{out}$) -->
    <g transform="translate(254.5125 22.8) scale(0.12 -0.12)">
     <defs>
      <path id="DejaVuSans-61" d="M 2194 1759 
Q 1497 1759 1228 1600 
Q 959 1441 959 1056 
Q 959 750 1161 570 
Q 1363 391 1709 391 
Q 2188 391 2477 730 
Q 2766 1069 2766 1631 
L 2766 1759 
L 2194 1759 
z
M 3341 1997 
L 3341 0 
L 2766 0 
L 2766 531 
Q 2569 213 2275 61 
Q 1981 -91 1556 -91 
Q 1019 -91 701 211 
Q 384 513 384 1019 
Q 384 1609 779 1909 
Q 1175 2209 1959 2209 
L 2766 2209 
L 2766 2266 
Q 2766 2663 2505 2880 
Q 2244 3097 1772 3097 
Q 1472 3097 1187 3025 
Q 903 2953 641 2809 
L 641 3341 
Q 956 3463 1253 3523 
Q 1550 3584 1831 3584 
Q 2591 3584 2966 3190 
Q 3341 2797 3341 1997 
z
" transform="scale(0.015625)"/>
      <path id="DejaVuSans-28" d="M 1984 4856 
Q 1566 4138 1362 3434 
Q 1159 2731 1159 2009 
Q 1159 1288 1364 580 
Q 1569 -128 1984 -844 
L 1484 -844 
Q 1016 -109 783 600 
Q 550 1309 550 2009 
Q 550 2706 781 3412 
Q 1013 4119 1484 4856 
L 1984 4856 
z
" transform="scale(0.015625)"/>
      <path id="DejaVuSans-Oblique-56" d="M 1319 0 
L 500 4666 
L 1119 4666 
L 1797 653 
L 4063 4666 
L 4750 4666 
L 2053 0 
L 1319 0 
z
" transform="scale(0.015625)"/>
      <path id="DejaVuSans-Oblique-6f" d="M 1625 -91 
Q 1009 -91 651 289 
Q 294 669 294 1325 
Q 294 1706 417 2101 
Q 541 2497 738 2766 
Q 1047 3184 1428 3384 
Q 1809 3584 2291 3584 
Q 2888 3584 3255 3212 
Q 3622 2841 3622 2241 
Q 3622 1825 3500 1412 
Q 3378 1000 3181 728 
Q 2875 309 2494 109 
Q 2113 -91 1625 -91 
z
M 891 1344 
Q 891 869 1089 633 
Q 1288 397 1691 397 
Q 2269 397 2648 901 
Q 3028 1406 3028 2181 
Q 3028 2634 2825 2865 
Q 2622 3097 2228 3097 
Q 1903 3097 1650 2945 
Q 1397 2794 1197 2484 
Q 1050 2253 970 1956 
Q 891 1659 891 1344 
z
" transform="scale(0.015625)"/>
      <path id="DejaVuSans-Oblique-75" d="M 428 1388 
L 838 3500 
L 1416 3500 
L 1006 1409 
Q 975 1256 961 1147 
Q 947 1038 947 966 
Q 947 700 1109 554 
Q 1272 409 1569 409 
Q 2031 409 2368 721 
Q 2706 1034 2809 1563 
L 3194 3500 
L 3769 3500 
L 3091 0 
L 2516 0 
L 2631 550 
Q 2388 244 2052 76 
Q 1716 -91 1338 -91 
Q 878 -91 622 161 
Q 366 413 366 863 
Q 366 956 381 1097 
Q 397 1238 428 1388 
z
" transform="scale(0.015625)"/>
      <path id="DejaVuSans-Oblique-74" d="M 2706 3500 
L 2619 3053 
L 1472 3053 
L 1100 1153 
Q 1081 1047 1072 975 
Q 1063 903 1063 863 
Q 1063 663 1183 572 
Q 1303 481 1569 481 
L 2150 481 
L 2053 0 
L 1503 0 
Q 991 0 739 200 
Q 488 400 488 806 
Q 488 878 497 964 
Q 506 1050 525 1153 
L 897 3053 
L 409 3053 
L 500 3500 
L 978 3500 
L 1172 4494 
L 1747 4494 
L 1556 3500 
L 2706 3500 
z
" transform="scale(0.015625)"/>
      <path id="DejaVuSans-29" d="M 513 4856 
L 1013 4856 
Q 1481 4119 1714 3412 
Q 1947 2706 1947 2009 
Q 1947 1309 1714 600 
Q 1481 -109 1013 -844 
L 513 -844 
Q 928 -128 1133 580 
Q 1338 1288 1338 2009 
Q 1338 2731 1133 3434 
Q 928 4138 513 4856 
z
" transform="scale(0.015625)"/>
     </defs>
     <use xlink:href="#DejaVuSans-61" transform="translate(0 0.125)"/>
     <use xlink:href="#DejaVuSans-72" transform="translate(61.279297 0.125)"/>
     <use xlink:href="#DejaVuSans-67" transform="translate(102.392578 0.125)"/>
     <use xlink:href="#DejaVuSans-28" transform="translate(165.869141 0.125)"/>
     <use xlink:href="#DejaVuSans-Oblique-56" transform="translate(204.882812 0.125)"/>
     <use xlink:href="#DejaVuSans-Oblique-6f" transform="translate(273.291016 -16.28125) scale(0.7)"/>
     <use xlink:href="#DejaVuSans-Oblique-75" transform="translate(316.118164 -16.28125) scale(0.7)"/>
     <use xlink:href="#DejaVuSans-Oblique-74" transform="translate(360.483398 -16.28125) scale(0.7)"/>
     <use xlink:href="#DejaVuSans-29" transform="translate(390.664062 0.125)"/>
    </g>
   </g>
   <g id="legend_1">
    <g id="patch_7">
     <path d="M 74.425 303.6 
L 209.063125 303.6 
Q 211.063125 303.6 211.063125 301.6 
L 211.063125 182.125 
Q 211.063125 180.125 209.063125 180.125 
L 74.425 180.125 
Q 72.425 180.125 72.425 182.125 
L 72.425 301.6 
Q 72.425 303.6 74.425 303.6 
z
" style="fill: #ffffff; opacity: 0.8; stroke: #cccccc; stroke-linejoin: miter"/>
    </g>
    <g id="line2d_151">
     <path d="M 74.425 187.743125 
L 79.425 187.743125 
L 84.425 187.743125 
" style="fill: none; stroke: #ff0000; stroke-width: 2; stroke-linecap: square"/>
    </g>
    <g id="text_18">
     <!-- V_out:C_c=2.00e-12 -->
     <g transform="translate(86.425 191.243125) scale(0.12 -0.12)">
      <defs>
       <path id="DejaVuSans-56" d="M 1831 0 
L 50 4666 
L 709 4666 
L 2188 738 
L 3669 4666 
L 4325 4666 
L 2547 0 
L 1831 0 
z
" transform="scale(0.015625)"/>
       <path id="DejaVuSans-5f" d="M 3263 -1063 
L 3263 -1509 
L -63 -1509 
L -63 -1063 
L 3263 -1063 
z
" transform="scale(0.015625)"/>
       <path id="DejaVuSans-6f" d="M 1959 3097 
Q 1497 3097 1228 2736 
Q 959 2375 959 1747 
Q 959 1119 1226 758 
Q 1494 397 1959 397 
Q 2419 397 2687 759 
Q 2956 1122 2956 1747 
Q 2956 2369 2687 2733 
Q 2419 3097 1959 3097 
z
M 1959 3584 
Q 2709 3584 3137 3096 
Q 3566 2609 3566 1747 
Q 3566 888 3137 398 
Q 2709 -91 1959 -91 
Q 1206 -91 779 398 
Q 353 888 353 1747 
Q 353 2609 779 3096 
Q 1206 3584 1959 3584 
z
" transform="scale(0.015625)"/>
       <path id="DejaVuSans-74" d="M 1172 4494 
L 1172 3500 
L 2356 3500 
L 2356 3053 
L 1172 3053 
L 1172 1153 
Q 1172 725 1289 603 
Q 1406 481 1766 481 
L 2356 481 
L 2356 0 
L 1766 0 
Q 1100 0 847 248 
Q 594 497 594 1153 
L 594 3053 
L 172 3053 
L 172 3500 
L 594 3500 
L 594 4494 
L 1172 4494 
z
" transform="scale(0.015625)"/>
       <path id="DejaVuSans-3a" d="M 750 794 
L 1409 794 
L 1409 0 
L 750 0 
L 750 794 
z
M 750 3309 
L 1409 3309 
L 1409 2516 
L 750 2516 
L 750 3309 
z
" transform="scale(0.015625)"/>
       <path id="DejaVuSans-43" d="M 4122 4306 
L 4122 3641 
Q 3803 3938 3442 4084 
Q 3081 4231 2675 4231 
Q 1875 4231 1450 3742 
Q 1025 3253 1025 2328 
Q 1025 1406 1450 917 
Q 1875 428 2675 428 
Q 3081 428 3442 575 
Q 3803 722 4122 1019 
L 4122 359 
Q 3791 134 3420 21 
Q 3050 -91 2638 -91 
Q 1578 -91 968 557 
Q 359 1206 359 2328 
Q 359 3453 968 4101 
Q 1578 4750 2638 4750 
Q 3056 4750 3426 4639 
Q 3797 4528 4122 4306 
z
" transform="scale(0.015625)"/>
       <path id="DejaVuSans-3d" d="M 678 2906 
L 4684 2906 
L 4684 2381 
L 678 2381 
L 678 2906 
z
M 678 1631 
L 4684 1631 
L 4684 1100 
L 678 1100 
L 678 1631 
z
" transform="scale(0.015625)"/>
       <path id="DejaVuSans-2e" d="M 684 794 
L 1344 794 
L 1344 0 
L 684 0 
L 684 794 
z
" transform="scale(0.015625)"/>
       <path id="DejaVuSans-2d" d="M 313 2009 
L 1997 2009 
L 1997 1497 
L 313 1497 
L 313 2009 
z
" transform="scale(0.015625)"/>
      </defs>
      <use xlink:href="#DejaVuSans-56"/>
      <use xlink:href="#DejaVuSans-5f" x="68.408203"/>
      <use xlink:href="#DejaVuSans-6f" x="118.408203"/>
      <use xlink:href="#DejaVuSans-75" x="179.589844"/>
      <use xlink:href="#DejaVuSans-74" x="242.96875"/>
      <use xlink:href="#DejaVuSans-3a" x="282.177734"/>
      <use xlink:href="#DejaVuSans-43" x="315.869141"/>
      <use xlink:href="#DejaVuSans-5f" x="385.693359"/>
      <use xlink:href="#DejaVuSans-63" x="435.693359"/>
      <use xlink:href="#DejaVuSans-3d" x="490.673828"/>
      <use xlink:href="#DejaVuSans-32" x="574.462891"/>
      <use xlink:href="#DejaVuSans-2e" x="638.085938"/>
      <use xlink:href="#DejaVuSans-30" x="669.873047"/>
      <use xlink:href="#DejaVuSans-30" x="733.496094"/>
      <use xlink:href="#DejaVuSans-65" x="797.119141"/>
      <use xlink:href="#DejaVuSans-2d" x="858.642578"/>
      <use xlink:href="#DejaVuSans-31" x="894.726562"/>
      <use xlink:href="#DejaVuSans-32" x="958.349609"/>
     </g>
    </g>
    <g id="line2d_152">
     <path d="M 74.425 199.690625 
L 79.425 199.690625 
L 84.425 199.690625 
" style="fill: none; stroke: #0000ff; stroke-width: 2; stroke-linecap: square"/>
    </g>
    <g id="text_19">
     <!-- V_out:C_c=4.00e-12 -->
     <g transform="translate(86.425 203.190625) scale(0.12 -0.12)">
      <use xlink:href="#DejaVuSans-56"/>
      <use xlink:href="#DejaVuSans-5f" x="68.408203"/>
      <use xlink:href="#DejaVuSans-6f" x="118.408203"/>
      <use xlink:href="#DejaVuSans-75" x="179.589844"/>
      <use xlink:href="#DejaVuSans-74" x="242.96875"/>
      <use xlink:href="#DejaVuSans-3a" x="282.177734"/>
      <use xlink:href="#DejaVuSans-43" x="315.869141"/>
      <use xlink:href="#DejaVuSans-5f" x="385.693359"/>
      <use xlink:href="#DejaVuSans-63" x="435.693359"/>
      <use xlink:href="#DejaVuSans-3d" x="490.673828"/>
      <use xlink:href="#DejaVuSans-34" x="574.462891"/>
      <use xlink:href="#DejaVuSans-2e" x="638.085938"/>
      <use xlink:href="#DejaVuSans-30" x="669.873047"/>
      <use xlink:href="#DejaVuSans-30" x="733.496094"/>
      <use xlink:href="#DejaVuSans-65" x="797.119141"/>
      <use xlink:href="#DejaVuSans-2d" x="858.642578"/>
      <use xlink:href="#DejaVuSans-31" x="894.726562"/>
      <use xlink:href="#DejaVuSans-32" x="958.349609"/>
     </g>
    </g>
    <g id="line2d_153">
     <path d="M 74.425 211.638125 
L 79.425 211.638125 
L 84.425 211.638125 
" style="fill: none; stroke: #008000; stroke-width: 2; stroke-linecap: square"/>
    </g>
    <g id="text_20">
     <!-- V_out:C_c=6.00e-12 -->
     <g transform="translate(86.425 215.138125) scale(0.12 -0.12)">
      <use xlink:href="#DejaVuSans-56"/>
      <use xlink:href="#DejaVuSans-5f" x="68.408203"/>
      <use xlink:href="#DejaVuSans-6f" x="118.408203"/>
      <use xlink:href="#DejaVuSans-75" x="179.589844"/>
      <use xlink:href="#DejaVuSans-74" x="242.96875"/>
      <use xlink:href="#DejaVuSans-3a" x="282.177734"/>
      <use xlink:href="#DejaVuSans-43" x="315.869141"/>
      <use xlink:href="#DejaVuSans-5f" x="385.693359"/>
      <use xlink:href="#DejaVuSans-63" x="435.693359"/>
      <use xlink:href="#DejaVuSans-3d" x="490.673828"/>
      <use xlink:href="#DejaVuSans-36" x="574.462891"/>
      <use xlink:href="#DejaVuSans-2e" x="638.085938"/>
      <use xlink:href="#DejaVuSans-30" x="669.873047"/>
      <use xlink:href="#DejaVuSans-30" x="733.496094"/>
      <use xlink:href="#DejaVuSans-65" x="797.119141"/>
      <use xlink:href="#DejaVuSans-2d" x="858.642578"/>
      <use xlink:href="#DejaVuSans-31" x="894.726562"/>
      <use xlink:href="#DejaVuSans-32" x="958.349609"/>
     </g>
    </g>
    <g id="line2d_154">
     <path d="M 74.425 223.585625 
L 79.425 223.585625 
L 84.425 223.585625 
" style="fill: none; stroke: #00bfbf; stroke-width: 2; stroke-linecap: square"/>
    </g>
    <g id="text_21">
     <!-- V_out:C_c=8.00e-12 -->
     <g transform="translate(86.425 227.085625) scale(0.12 -0.12)">
      <defs>
       <path id="DejaVuSans-38" d="M 2034 2216 
Q 1584 2216 1326 1975 
Q 1069 1734 1069 1313 
Q 1069 891 1326 650 
Q 1584 409 2034 409 
Q 2484 409 2743 651 
Q 3003 894 3003 1313 
Q 3003 1734 2745 1975 
Q 2488 2216 2034 2216 
z
M 1403 2484 
Q 997 2584 770 2862 
Q 544 3141 544 3541 
Q 544 4100 942 4425 
Q 1341 4750 2034 4750 
Q 2731 4750 3128 4425 
Q 3525 4100 3525 3541 
Q 3525 3141 3298 2862 
Q 3072 2584 2669 2484 
Q 3125 2378 3379 2068 
Q 3634 1759 3634 1313 
Q 3634 634 3220 271 
Q 2806 -91 2034 -91 
Q 1263 -91 848 271 
Q 434 634 434 1313 
Q 434 1759 690 2068 
Q 947 2378 1403 2484 
z
M 1172 3481 
Q 1172 3119 1398 2916 
Q 1625 2713 2034 2713 
Q 2441 2713 2670 2916 
Q 2900 3119 2900 3481 
Q 2900 3844 2670 4047 
Q 2441 4250 2034 4250 
Q 1625 4250 1398 4047 
Q 1172 3844 1172 3481 
z
" transform="scale(0.015625)"/>
      </defs>
      <use xlink:href="#DejaVuSans-56"/>
      <use xlink:href="#DejaVuSans-5f" x="68.408203"/>
      <use xlink:href="#DejaVuSans-6f" x="118.408203"/>
      <use xlink:href="#DejaVuSans-75" x="179.589844"/>
      <use xlink:href="#DejaVuSans-74" x="242.96875"/>
      <use xlink:href="#DejaVuSans-3a" x="282.177734"/>
      <use xlink:href="#DejaVuSans-43" x="315.869141"/>
      <use xlink:href="#DejaVuSans-5f" x="385.693359"/>
      <use xlink:href="#DejaVuSans-63" x="435.693359"/>
      <use xlink:href="#DejaVuSans-3d" x="490.673828"/>
      <use xlink:href="#DejaVuSans-38" x="574.462891"/>
      <use xlink:href="#DejaVuSans-2e" x="638.085938"/>
      <use xlink:href="#DejaVuSans-30" x="669.873047"/>
      <use xlink:href="#DejaVuSans-30" x="733.496094"/>
      <use xlink:href="#DejaVuSans-65" x="797.119141"/>
      <use xlink:href="#DejaVuSans-2d" x="858.642578"/>
      <use xlink:href="#DejaVuSans-31" x="894.726562"/>
      <use xlink:href="#DejaVuSans-32" x="958.349609"/>
     </g>
    </g>
    <g id="line2d_155">
     <path d="M 74.425 235.533125 
L 79.425 235.533125 
L 84.425 235.533125 
" style="fill: none; stroke: #bf00bf; stroke-width: 2; stroke-linecap: square"/>
    </g>
    <g id="text_22">
     <!-- V_out:C_c=1.00e-11 -->
     <g transform="translate(86.425 239.033125) scale(0.12 -0.12)">
      <use xlink:href="#DejaVuSans-56"/>
      <use xlink:href="#DejaVuSans-5f" x="68.408203"/>
      <use xlink:href="#DejaVuSans-6f" x="118.408203"/>
      <use xlink:href="#DejaVuSans-75" x="179.589844"/>
      <use xlink:href="#DejaVuSans-74" x="242.96875"/>
      <use xlink:href="#DejaVuSans-3a" x="282.177734"/>
      <use xlink:href="#DejaVuSans-43" x="315.869141"/>
      <use xlink:href="#DejaVuSans-5f" x="385.693359"/>
      <use xlink:href="#DejaVuSans-63" x="435.693359"/>
      <use xlink:href="#DejaVuSans-3d" x="490.673828"/>
      <use xlink:href="#DejaVuSans-31" x="574.462891"/>
      <use xlink:href="#DejaVuSans-2e" x="638.085938"/>
      <use xlink:href="#DejaVuSans-30" x="669.873047"/>
      <use xlink:href="#DejaVuSans-30" x="733.496094"/>
      <use xlink:href="#DejaVuSans-65" x="797.119141"/>
      <use xlink:href="#DejaVuSans-2d" x="858.642578"/>
      <use xlink:href="#DejaVuSans-31" x="894.726562"/>
      <use xlink:href="#DejaVuSans-31" x="958.349609"/>
     </g>
    </g>
    <g id="line2d_156">
     <path d="M 74.425 247.480625 
L 79.425 247.480625 
L 84.425 247.480625 
" style="fill: none; stroke: #bfbf00; stroke-width: 2; stroke-linecap: square"/>
    </g>
    <g id="text_23">
     <!-- V_out:C_c=1.20e-11 -->
     <g transform="translate(86.425 250.980625) scale(0.12 -0.12)">
      <use xlink:href="#DejaVuSans-56"/>
      <use xlink:href="#DejaVuSans-5f" x="68.408203"/>
      <use xlink:href="#DejaVuSans-6f" x="118.408203"/>
      <use xlink:href="#DejaVuSans-75" x="179.589844"/>
      <use xlink:href="#DejaVuSans-74" x="242.96875"/>
      <use xlink:href="#DejaVuSans-3a" x="282.177734"/>
      <use xlink:href="#DejaVuSans-43" x="315.869141"/>
      <use xlink:href="#DejaVuSans-5f" x="385.693359"/>
      <use xlink:href="#DejaVuSans-63" x="435.693359"/>
      <use xlink:href="#DejaVuSans-3d" x="490.673828"/>
      <use xlink:href="#DejaVuSans-31" x="574.462891"/>
      <use xlink:href="#DejaVuSans-2e" x="638.085938"/>
      <use xlink:href="#DejaVuSans-32" x="669.873047"/>
      <use xlink:href="#DejaVuSans-30" x="733.496094"/>
      <use xlink:href="#DejaVuSans-65" x="797.119141"/>
      <use xlink:href="#DejaVuSans-2d" x="858.642578"/>
      <use xlink:href="#DejaVuSans-31" x="894.726562"/>
      <use xlink:href="#DejaVuSans-31" x="958.349609"/>
     </g>
    </g>
    <g id="line2d_157">
     <path d="M 74.425 259.428125 
L 79.425 259.428125 
L 84.425 259.428125 
" style="fill: none; stroke: #000000; stroke-width: 2; stroke-linecap: square"/>
    </g>
    <g id="text_24">
     <!-- V_out:C_c=1.40e-11 -->
     <g transform="translate(86.425 262.928125) scale(0.12 -0.12)">
      <use xlink:href="#DejaVuSans-56"/>
      <use xlink:href="#DejaVuSans-5f" x="68.408203"/>
      <use xlink:href="#DejaVuSans-6f" x="118.408203"/>
      <use xlink:href="#DejaVuSans-75" x="179.589844"/>
      <use xlink:href="#DejaVuSans-74" x="242.96875"/>
      <use xlink:href="#DejaVuSans-3a" x="282.177734"/>
      <use xlink:href="#DejaVuSans-43" x="315.869141"/>
      <use xlink:href="#DejaVuSans-5f" x="385.693359"/>
      <use xlink:href="#DejaVuSans-63" x="435.693359"/>
      <use xlink:href="#DejaVuSans-3d" x="490.673828"/>
      <use xlink:href="#DejaVuSans-31" x="574.462891"/>
      <use xlink:href="#DejaVuSans-2e" x="638.085938"/>
      <use xlink:href="#DejaVuSans-34" x="669.873047"/>
      <use xlink:href="#DejaVuSans-30" x="733.496094"/>
      <use xlink:href="#DejaVuSans-65" x="797.119141"/>
      <use xlink:href="#DejaVuSans-2d" x="858.642578"/>
      <use xlink:href="#DejaVuSans-31" x="894.726562"/>
      <use xlink:href="#DejaVuSans-31" x="958.349609"/>
     </g>
    </g>
    <g id="line2d_158">
     <path d="M 74.425 271.375625 
L 79.425 271.375625 
L 84.425 271.375625 
" style="fill: none; stroke: #ff0000; stroke-width: 2; stroke-linecap: square"/>
    </g>
    <g id="text_25">
     <!-- V_out:C_c=1.60e-11 -->
     <g transform="translate(86.425 274.875625) scale(0.12 -0.12)">
      <use xlink:href="#DejaVuSans-56"/>
      <use xlink:href="#DejaVuSans-5f" x="68.408203"/>
      <use xlink:href="#DejaVuSans-6f" x="118.408203"/>
      <use xlink:href="#DejaVuSans-75" x="179.589844"/>
      <use xlink:href="#DejaVuSans-74" x="242.96875"/>
      <use xlink:href="#DejaVuSans-3a" x="282.177734"/>
      <use xlink:href="#DejaVuSans-43" x="315.869141"/>
      <use xlink:href="#DejaVuSans-5f" x="385.693359"/>
      <use xlink:href="#DejaVuSans-63" x="435.693359"/>
      <use xlink:href="#DejaVuSans-3d" x="490.673828"/>
      <use xlink:href="#DejaVuSans-31" x="574.462891"/>
      <use xlink:href="#DejaVuSans-2e" x="638.085938"/>
      <use xlink:href="#DejaVuSans-36" x="669.873047"/>
      <use xlink:href="#DejaVuSans-30" x="733.496094"/>
      <use xlink:href="#DejaVuSans-65" x="797.119141"/>
      <use xlink:href="#DejaVuSans-2d" x="858.642578"/>
      <use xlink:href="#DejaVuSans-31" x="894.726562"/>
      <use xlink:href="#DejaVuSans-31" x="958.349609"/>
     </g>
    </g>
    <g id="line2d_159">
     <path d="M 74.425 283.323125 
L 79.425 283.323125 
L 84.425 283.323125 
" style="fill: none; stroke: #0000ff; stroke-width: 2; stroke-linecap: square"/>
    </g>
    <g id="text_26">
     <!-- V_out:C_c=1.80e-11 -->
     <g transform="translate(86.425 286.823125) scale(0.12 -0.12)">
      <use xlink:href="#DejaVuSans-56"/>
      <use xlink:href="#DejaVuSans-5f" x="68.408203"/>
      <use xlink:href="#DejaVuSans-6f" x="118.408203"/>
      <use xlink:href="#DejaVuSans-75" x="179.589844"/>
      <use xlink:href="#DejaVuSans-74" x="242.96875"/>
      <use xlink:href="#DejaVuSans-3a" x="282.177734"/>
      <use xlink:href="#DejaVuSans-43" x="315.869141"/>
      <use xlink:href="#DejaVuSans-5f" x="385.693359"/>
      <use xlink:href="#DejaVuSans-63" x="435.693359"/>
      <use xlink:href="#DejaVuSans-3d" x="490.673828"/>
      <use xlink:href="#DejaVuSans-31" x="574.462891"/>
      <use xlink:href="#DejaVuSans-2e" x="638.085938"/>
      <use xlink:href="#DejaVuSans-38" x="669.873047"/>
      <use xlink:href="#DejaVuSans-30" x="733.496094"/>
      <use xlink:href="#DejaVuSans-65" x="797.119141"/>
      <use xlink:href="#DejaVuSans-2d" x="858.642578"/>
      <use xlink:href="#DejaVuSans-31" x="894.726562"/>
      <use xlink:href="#DejaVuSans-31" x="958.349609"/>
     </g>
    </g>
    <g id="line2d_160">
     <path d="M 74.425 295.270625 
L 79.425 295.270625 
L 84.425 295.270625 
" style="fill: none; stroke: #008000; stroke-width: 2; stroke-linecap: square"/>
    </g>
    <g id="text_27">
     <!-- V_out:C_c=2.00e-11 -->
     <g transform="translate(86.425 298.770625) scale(0.12 -0.12)">
      <use xlink:href="#DejaVuSans-56"/>
      <use xlink:href="#DejaVuSans-5f" x="68.408203"/>
      <use xlink:href="#DejaVuSans-6f" x="118.408203"/>
      <use xlink:href="#DejaVuSans-75" x="179.589844"/>
      <use xlink:href="#DejaVuSans-74" x="242.96875"/>
      <use xlink:href="#DejaVuSans-3a" x="282.177734"/>
      <use xlink:href="#DejaVuSans-43" x="315.869141"/>
      <use xlink:href="#DejaVuSans-5f" x="385.693359"/>
      <use xlink:href="#DejaVuSans-63" x="435.693359"/>
      <use xlink:href="#DejaVuSans-3d" x="490.673828"/>
      <use xlink:href="#DejaVuSans-32" x="574.462891"/>
      <use xlink:href="#DejaVuSans-2e" x="638.085938"/>
      <use xlink:href="#DejaVuSans-30" x="669.873047"/>
      <use xlink:href="#DejaVuSans-30" x="733.496094"/>
      <use xlink:href="#DejaVuSans-65" x="797.119141"/>
      <use xlink:href="#DejaVuSans-2d" x="858.642578"/>
      <use xlink:href="#DejaVuSans-31" x="894.726562"/>
      <use xlink:href="#DejaVuSans-31" x="958.349609"/>
     </g>
    </g>
   </g>
  </g>
 </g>
 <defs>
  <clipPath id="p9c201bdc23">
   <rect x="67.425" y="28.8" width="425.775" height="279.8"/>
  </clipPath>
 </defs>
</svg>
