<svg xmlns="http://www.w3.org/2000/svg">
  <defs>
  
    <g id="D" 
       data-prefix="D" 
       data-nodes="A C"
       data-model="D" 
       data-params="gd cd rs"
       data-description="Small-signal diode model"
       data-info="https://www.slicap.org/syntax/devices#model-d">
       
       <line x1="0" y1="-20" x2="0" y2="20" stroke="black" stroke-width="1"/>
       <polyline points="-7 -7 7 -7 0 0.5 -7 -7" stroke="black" stroke-width="0" fill="black" />
       <line x1="-7" y1="1" x2="7" y2="1" stroke="black" stroke-width="2"/>
       <circle cx="0" cy="-20" r="0.5" class="node" data-node="A" />
       <circle cx="0" cy="20" r="0.5" class="node" data-node="C" />
    </g>    
    
    <g id="DM" 
       data-prefix="D" 
       data-nodes="A C"
       data-model="?" 
       data-params=""
       data-description="Small-signal diode, requires .model definition"
       data-info="https://www.slicap.org/syntax/devices#id1">
       
       <line x1="0" y1="-20" x2="0" y2="20" stroke="black" stroke-width="1"/>
       <polyline points="-7 -7 7 -7 0 0.5 -7 -7" stroke="black" stroke-width="0" fill="black" />
       <line x1="-7" y1="1" x2="7" y2="1" stroke="black" stroke-width="2"/>
       <circle cx="0" cy="-20" r="0.5" class="node" data-node="A" />
       <circle cx="0" cy="20" r="0.5" class="node" data-node="C" />
    </g>    
    
    <g id="XD" 
       data-prefix="X" 
       data-nodes="A C"
       data-model="?" 
       data-params="VD"
       data-description="Small-signal diode subcircuitcwith parameter VD (forward bias voltage)"
       data-info="">
       
       <line x1="0" y1="-20" x2="0" y2="20" stroke="black" stroke-width="1"/>
       <polyline points="-7 -7 7 -7 0 0.5 -7 -7" stroke="black" stroke-width="0" fill="black" />
       <line x1="-7" y1="1" x2="7" y2="1" stroke="black" stroke-width="2"/>
       <circle cx="0" cy="-20" r="0.5" class="node" data-node="A" />
       <circle cx="0" cy="20" r="0.5" class="node" data-node="C" />
    </g>
    
    <g id="J" 
       data-prefix="J" 
       data-nodes="D G S"
       data-model="J" 
       data-params="cgs cdg cdb gm go"
       data-description="Small-signal JFET model"
       data-info="https://www.slicap.org/syntax/devices#model-j">
       
       <!-- Symbol outline -->
       <polyline points="10 -20 10 -10 0 -10" stroke="black" stroke-width="1" fill="none" />
       <polyline points="10 20 10 10 -10 10" stroke="black" stroke-width="1" fill="none" />
       <polyline points="2 10 5 13 8 10 5 7 2 10" stroke="black" stroke-width="0" fill="black" />
       <line x1="0" y1="-12" x2="0" y2="12" stroke="black" stroke-width="2"/>
       <line x1="-10" y1="10" x2="-5" y2="10" stroke="black" stroke-width="1"/>
       
       <!-- Pins -->
       <circle cx="10" cy="-20" r="0.5" class="node" data-node="D" />
       <circle cx="-10" cy="10" r="0.5" class="node" data-node="G" />
       <circle cx="10" cy="20" r="0.5" class="node" data-node="S" />
    </g>
    
    <g id="JM" 
       data-prefix="XJ" 
       data-nodes="D G S"
       data-model="?" 
       data-params=""
       data-description="Small-signal JFET model, requires .model definition"
       data-info="https://www.slicap.org/syntax/devices#model-j">
       
       <!-- Symbol outline -->
       <polyline points="10 -20 10 -10 0 -10" stroke="black" stroke-width="1" fill="none" />
       <polyline points="10 20 10 10 -10 10" stroke="black" stroke-width="1" fill="none" />
       <polyline points="2 10 5 13 8 10 5 7 2 10" stroke="black" stroke-width="0" fill="black" />
       <line x1="0" y1="-12" x2="0" y2="12" stroke="black" stroke-width="2"/>
       <line x1="-10" y1="10" x2="-5" y2="10" stroke="black" stroke-width="1"/>
       
       <!-- Pins -->
       <circle cx="10" cy="-20" r="0.5" class="node" data-node="D" />
       <circle cx="-10" cy="10" r="0.5" class="node" data-node="G" />
       <circle cx="10" cy="20" r="0.5" class="node" data-node="S" />
    </g>
    
    <g id="XJ" 
       data-prefix="X" 
       data-nodes="D G S"
       data-model="?" 
       data-params="ID"
       data-description="Small-signal JFET subcircuit with parameter ID"
       data-info="">
       
       <!-- Symbol outline -->
       <polyline points="10 -20 10 -10 0 -10" stroke="black" stroke-width="1" fill="none" />
       <polyline points="10 20 10 10 -10 10" stroke="black" stroke-width="1" fill="none" />
       <polyline points="2 10 5 13 8 10 5 7 2 10" stroke="black" stroke-width="0" fill="black" />
       <line x1="0" y1="-12" x2="0" y2="12" stroke="black" stroke-width="2"/>
       <line x1="-10" y1="10" x2="-5" y2="10" stroke="black" stroke-width="1"/>
       
       <!-- Pins -->
       <circle cx="10" cy="-20" r="0.5" class="node" data-node="D" />
       <circle cx="-10" cy="10" r="0.5" class="node" data-node="G" />
       <circle cx="10" cy="20" r="0.5" class="node" data-node="S" />
    </g>
    
    <g id="M" 
       data-prefix="M" 
       data-nodes="D G S B"
       data-model="M" 
       data-params="cgs cgb cdg cdb csb gm gb go"
       data-description="4-terminal small-signal MOS model"
       data-info="https://www.slicap.org/syntax/devices.html#m-4-terminal-mos">
       
       <!-- Symbol outline -->
       <polyline points="10 -20 10 -10 0 -10 0 -5" stroke="black" stroke-width="1" fill="none" />
       <polyline points="10 20 10 10 0 10 0 5" stroke="black" stroke-width="1" fill="none" />
       <line x1="0" y1="0" x2="10" y2="0" stroke="black" stroke-width="1"/>
       <line x1="0" y1="-3" x2="0" y2="3" stroke="black" stroke-width="1"/>
       <polyline points="2 0 5 3 8 0 5 -3 2 0" stroke="black" stroke-width="0" fill="black" />
       <line x1="-5" y1="-10.5" x2="-5" y2="10.5" stroke="black" stroke-width="2"/>
       <line x1="-10" y1="10" x2="-5" y2="10" stroke="black" stroke-width="1"/>
       
       <!-- Pins -->
       <circle cx="10" cy="-20" r="0.5" class="node" data-node="D" />
       <circle cx="-10" cy="10" r="0.5" class="node" data-node="G" />
       <circle cx="10" cy="20" r="0.5" class="node" data-node="S" />
       <circle cx="10" cy="0" r="0.5" class="node" data-node="B" />
    </g>
    
    <g id="MM" 
       data-prefix="M" 
       data-nodes="D G S B"
       data-model="?" 
       data-params=""
       data-description="4-terminal small-signal MOS, requires .model definition"
       data-info="https://www.slicap.org/syntax/devices.html#m-4-terminal-mos">
       
       <!-- Symbol outline -->
       <polyline points="10 -20 10 -10 0 -10 0 -5" stroke="black" stroke-width="1" fill="none" />
       <polyline points="10 20 10 10 0 10 0 5" stroke="black" stroke-width="1" fill="none" />
       <line x1="0" y1="0" x2="10" y2="0" stroke="black" stroke-width="1"/>
       <line x1="0" y1="-3" x2="0" y2="3" stroke="black" stroke-width="1"/>
       <polyline points="2 0 5 3 8 0 5 -3 2 0" stroke="black" stroke-width="0" fill="black" />
       <line x1="-5" y1="-10.5" x2="-5" y2="10.5" stroke="black" stroke-width="2"/>
       <line x1="-10" y1="10" x2="-5" y2="10" stroke="black" stroke-width="1"/>
       
       <!-- Pins -->
       <circle cx="10" cy="-20" r="0.5" class="node" data-node="D" />
       <circle cx="-10" cy="10" r="0.5" class="node" data-node="G" />
       <circle cx="10" cy="20" r="0.5" class="node" data-node="S" />
       <circle cx="10" cy="0" r="0.5" class="node" data-node="B" />
    </g>
    
    <g id="XM" 
       data-prefix="X" 
       data-nodes="D G S B"
       data-model="?" 
       data-params="ID W L"
       data-description="4-terminal small-signal MOS subcircuit with parameters ID, W, L"
       data-info="">
       
       <!-- Symbol outline -->
       <polyline points="10 -20 10 -10 0 -10 0 -5" stroke="black" stroke-width="1" fill="none" />
       <polyline points="10 20 10 10 0 10 0 5" stroke="black" stroke-width="1" fill="none" />
       <line x1="0" y1="0" x2="10" y2="0" stroke="black" stroke-width="1"/>
       <line x1="0" y1="-3" x2="0" y2="3" stroke="black" stroke-width="1"/>
       <polyline points="2 0 5 3 8 0 5 -3 2 0" stroke="black" stroke-width="0" fill="black" />
       <line x1="-5" y1="-10.5" x2="-5" y2="10.5" stroke="black" stroke-width="2"/>
       <line x1="-10" y1="10" x2="-5" y2="10" stroke="black" stroke-width="1"/>
       
       <!-- Pins -->
       <circle cx="10" cy="-20" r="0.5" class="node" data-node="D" />
       <circle cx="-10" cy="10" r="0.5" class="node" data-node="G" />
       <circle cx="10" cy="20" r="0.5" class="node" data-node="S" />
       <circle cx="10" cy="0" r="0.5" class="node" data-node="B" />
    </g>
    
    <g id="XMV" 
       data-prefix="X" 
       data-nodes="D G S B"
       data-model="?" 
       data-params="VD VG VS W L"
       data-description="4-terminal small-signal, voltage-controlled MOS subcircuit with parameters VD, VG, VS, W, L (voltages with respect to the bulk)"
       data-info="">
       
       <!-- Symbol outline -->
       <polyline points="10 -20 10 -10 0 -10 0 -5" stroke="black" stroke-width="1" fill="none" />
       <polyline points="10 20 10 10 0 10 0 5" stroke="black" stroke-width="1" fill="none" />
       <line x1="0" y1="0" x2="10" y2="0" stroke="black" stroke-width="1"/>
       <line x1="0" y1="-3" x2="0" y2="3" stroke="black" stroke-width="1"/>
       <polyline points="2 0 5 3 8 0 5 -3 2 0" stroke="black" stroke-width="0" fill="black" />
       <line x1="-5" y1="-10.5" x2="-5" y2="10.5" stroke="black" stroke-width="2"/>
       <line x1="-10" y1="10" x2="-5" y2="10" stroke="black" stroke-width="1"/>
       
       <!-- Pins -->
       <circle cx="10" cy="-20" r="0.5" class="node" data-node="D" />
       <circle cx="-10" cy="10" r="0.5" class="node" data-node="G" />
       <circle cx="10" cy="20" r="0.5" class="node" data-node="S" />
       <circle cx="10" cy="0" r="0.5" class="node" data-node="B" />
    </g>
    
    <g id="MD" 
       data-prefix="M" 
       data-nodes="D1 D2 G1 G2"
       data-model="MD" 
       data-params="gm go cgg cdg cdd"
       data-description="4-terminal small-signal model differential-pair MOS"
       data-info="">
       
       <!-- Symbol outline -->
       <polyline points="-10 -20 -10 -10 -20 -10 -20 -5" stroke="black" stroke-width="1" fill="none" />
       <line x1="-20" y1="-3" x2="-20" y2="3" stroke="black" stroke-width="1"/>
       <polyline points="-18 10 -15 13 -12 10 -15 7 -18 10" stroke="black" stroke-width="0" fill="black" />
       <line x1="-25" y1="-10.5" x2="-25" y2="10.5" stroke="black" stroke-width="2"/>
       <line x1="-30" y1="10" x2="-25" y2="10" stroke="black" stroke-width="1"/>
       
       <polyline points="10 -20 10 -10 20 -10 20 -5" stroke="black" stroke-width="1" fill="none" />
       <line x1="20" y1="-3" x2="20" y2="3" stroke="black" stroke-width="1"/>
       <polyline points="18 10 15 13 12 10 15 7 18 10" stroke="black" stroke-width="0" fill="black" />
       <line x1="25" y1="-10.5" x2="25" y2="10.5" stroke="black" stroke-width="2"/>
       <line x1="30" y1="10" x2="25" y2="10" stroke="black" stroke-width="1"/>
       
       <polyline points="-20 5 -20 10 -10 10 -10 20 10 20 10 10 20 10 20 5" stroke="black" stroke-width="1" fill="none" />
       
       <!-- Pins -->
       <circle cx="-10" cy="-20" r="0.5" class="node" data-node="D1" />
       <circle cx="-30" cy="10" r="0.5" class="node" data-node="G1" />
       <circle cx="10" cy="-20" r="0.5" class="node" data-node="D2" />
       <circle cx="30" cy="10" r="0.5" class="node" data-node="G2" />
    </g>
    
    <g id="MDM" 
       data-prefix="M" 
       data-nodes="D1 D2 G1 G2"
       data-model="?" 
       data-params=""
       data-description="4-terminal small-signal differential-pair MOS, requires .model definition"
       data-info="">
       
       <!-- Symbol outline -->
       <polyline points="-10 -20 -10 -10 -20 -10 -20 -5" stroke="black" stroke-width="1" fill="none" />
       <line x1="-20" y1="-3" x2="-20" y2="3" stroke="black" stroke-width="1"/>
       <polyline points="-18 10 -15 13 -12 10 -15 7 -18 10" stroke="black" stroke-width="0" fill="black" />
       <line x1="-25" y1="-10.5" x2="-25" y2="10.5" stroke="black" stroke-width="2"/>
       <line x1="-30" y1="10" x2="-25" y2="10" stroke="black" stroke-width="1"/>
       
       <polyline points="10 -20 10 -10 20 -10 20 -5" stroke="black" stroke-width="1" fill="none" />
       <line x1="20" y1="-3" x2="20" y2="3" stroke="black" stroke-width="1"/>
       <polyline points="18 10 15 13 12 10 15 7 18 10" stroke="black" stroke-width="0" fill="black" />
       <line x1="25" y1="-10.5" x2="25" y2="10.5" stroke="black" stroke-width="2"/>
       <line x1="30" y1="10" x2="25" y2="10" stroke="black" stroke-width="1"/>
       
       <polyline points="-20 5 -20 10 -10 10 -10 20 10 20 10 10 20 10 20 5" stroke="black" stroke-width="1" fill="none" />
       
       <!-- Pins -->
       <circle cx="-10" cy="-20" r="0.5" class="node" data-node="D1" />
       <circle cx="-30" cy="10" r="0.5" class="node" data-node="G1" />
       <circle cx="10" cy="-20" r="0.5" class="node" data-node="D2" />
       <circle cx="30" cy="10" r="0.5" class="node" data-node="G2" />
    </g>
    
    <g id="XMD" 
       data-prefix="X" 
       data-nodes="D1 D2 G1 G2"
       data-model="?" 
       data-params="ID W L"
       data-description="4-terminal small-signal MOS subcircuit with parameters ID, W, L"
       data-info="">
       
       <!-- Symbol outline -->
       <polyline points="-10 -20 -10 -10 -20 -10 -20 -5" stroke="black" stroke-width="1" fill="none" />
       <line x1="-20" y1="-3" x2="-20" y2="3" stroke="black" stroke-width="1"/>
       <polyline points="-18 10 -15 13 -12 10 -15 7 -18 10" stroke="black" stroke-width="0" fill="black" />
       <line x1="-25" y1="-10.5" x2="-25" y2="10.5" stroke="black" stroke-width="2"/>
       <line x1="-30" y1="10" x2="-25" y2="10" stroke="black" stroke-width="1"/>
       
       <polyline points="10 -20 10 -10 20 -10 20 -5" stroke="black" stroke-width="1" fill="none" />
       <line x1="20" y1="-3" x2="20" y2="3" stroke="black" stroke-width="1"/>
       <polyline points="18 10 15 13 12 10 15 7 18 10" stroke="black" stroke-width="0" fill="black" />
       <line x1="25" y1="-10.5" x2="25" y2="10.5" stroke="black" stroke-width="2"/>
       <line x1="30" y1="10" x2="25" y2="10" stroke="black" stroke-width="1"/>
       
       <polyline points="-20 5 -20 10 -10 10 -10 20 10 20 10 10 20 10 20 5" stroke="black" stroke-width="1" fill="none" />
       
       <!-- Pins -->
       <circle cx="-10" cy="-20" r="0.5" class="node" data-node="D1" />
       <circle cx="-30" cy="10" r="0.5" class="node" data-node="G1" />
       <circle cx="10" cy="-20" r="0.5" class="node" data-node="D2" />
       <circle cx="30" cy="10" r="0.5" class="node" data-node="G2" />
    </g>
    
    <g id="XMPN" 
       data-prefix="X" 
       data-nodes="D G S B"
       data-model="?" 
       data-params="ID_N W_N L_N ID_P W_P L_P"
       data-description="4-terminal small-signal complementairy-parallel MOS subcircuit with parameters ID, W, L for constituting transistors"
       data-info="">
       
       <!-- Symbol outline -->
       <polyline points="10 -20 10 -10 0 -10 0 -5" stroke="black" stroke-width="1" fill="none" />
       <polyline points="10 20 10 10 0 10 0 5" stroke="black" stroke-width="1" fill="none" />
       <line x1="0" y1="0" x2="10" y2="0" stroke="black" stroke-width="1"/>
       <line x1="0" y1="-3" x2="0" y2="3" stroke="black" stroke-width="1"/>
       <polyline points="2 0 5 3 8 0 5 -3 2 0" stroke="black" stroke-width="0" fill="black" />
       <line x1="-5" y1="-10.5" x2="-5" y2="10.5" stroke="black" stroke-width="2"/>
       <line x1="-10" y1="10" x2="-5" y2="10" stroke="black" stroke-width="1"/>
       
       <!-- Pins -->
       <circle cx="10" cy="-20" r="0.5" class="node" data-node="D" />
       <circle cx="-10" cy="10" r="0.5" class="node" data-node="G" />
       <circle cx="10" cy="20" r="0.5" class="node" data-node="S" />
       <circle cx="10" cy="0" r="0.5" class="node" data-node="B" />
    </g>
    
    <g id="OM" 
       data-prefix="O" 
       data-nodes="outp outn inp inn"
       data-model="?" 
       data-params=""
       data-description="Operational amplifier (requires .model definition)"
       data-info="https://www.slicap.org/syntax/devices#o-operational-amplifier">
       
       <!-- Symbol outline -->
       <polyline points="0 -20 30 0 0 20 0 -20" stroke="black" stroke-width="1" fill="none" />
       <line x1="-5" y1="-10" x2="0" y2="-10" stroke="black" stroke-width="1"/>
       <line x1="-5" y1="10" x2="0" y2="10" stroke="black" stroke-width="1"/>
       <line x1="15" y1="20" x2="15" y2="10" stroke="black" stroke-width="1"/>
       <line x1="30" y1="0" x2="35" y2="0" stroke="black" stroke-width="1"/>
       <text x="5" y="-7" dominant-baseline="middle" text-anchor="middle" font-size="8">+</text>
       <text x="5" y="12" dominant-baseline="middle" text-anchor="middle" font-size="8">-</text>
       
       <!-- Pins -->
       <circle cx="-5" cy="-10" r="0.5" class="node" data-node="inp" />
       <circle cx="-5" cy="10" r="0.5" class="node" data-node="inn" />
       <circle cx="35" cy="0" r="0.5" class="node" data-node="outp" />
       <circle cx="15" cy="20" r="0.5" class="node" data-node="outn" />
    </g>
    
    <g id="OV" 
       data-prefix="O" 
       data-nodes="outp outn inp inn"
       data-model="OV" 
       data-params="av gd gc cd cc zo"
       data-description="Voltage feedback opamp"
       data-info="https://www.slicap.org/syntax/devices#model-ov">
       
       <!-- Symbol outline -->
       <polyline points="0 -20 30 0 0 20 0 -20" stroke="black" stroke-width="1" fill="none" />
       <line x1="-5" y1="-10" x2="0" y2="-10" stroke="black" stroke-width="1"/>
       <line x1="-5" y1="10" x2="0" y2="10" stroke="black" stroke-width="1"/>
       <line x1="15" y1="20" x2="15" y2="10" stroke="black" stroke-width="1"/>
       <line x1="30" y1="0" x2="35" y2="0" stroke="black" stroke-width="1"/>
       <text x="5" y="-7" dominant-baseline="middle" text-anchor="middle" font-size="8">+</text>
       <text x="5" y="12" dominant-baseline="middle" text-anchor="middle" font-size="8">-</text>
       
       <!-- Pins -->
       <circle cx="-5" cy="-10" r="0.5" class="node" data-node="inp" />
       <circle cx="-5" cy="10" r="0.5" class="node" data-node="inn" />
       <circle cx="35" cy="0" r="0.5" class="node" data-node="outp" />
       <circle cx="15" cy="20" r="0.5" class="node" data-node="outn" />
    </g>
    
    <g id="OC" 
       data-prefix="O" 
       data-nodes="outp outn inp inn"
       data-model="OV" 
       data-params="cp gp cpn gnn gm zt zo"
       data-description="Current feedback opamp"
       data-info="https://www.slicap.org/syntax/devices#model-oc">
       
       <!-- Symbol outline -->
       <polyline points="0 -20 30 0 0 20 0 -20" stroke="black" stroke-width="1" fill="none" />
       <line x1="-5" y1="-10" x2="0" y2="-10" stroke="black" stroke-width="1"/>
       <line x1="-5" y1="10" x2="0" y2="10" stroke="black" stroke-width="1"/>
       <line x1="15" y1="20" x2="15" y2="10" stroke="black" stroke-width="1"/>
       <line x1="30" y1="0" x2="35" y2="0" stroke="black" stroke-width="1"/>
       <text x="5" y="-7" dominant-baseline="middle" text-anchor="middle" font-size="8">+</text>
       <text x="5" y="12" dominant-baseline="middle" text-anchor="middle" font-size="8">-</text>
       
       <!-- Pins -->
       <circle cx="-5" cy="-10" r="0.5" class="node" data-node="inp" />
       <circle cx="-5" cy="10" r="0.5" class="node" data-node="inn" />
       <circle cx="35" cy="0" r="0.5" class="node" data-node="outp" />
       <circle cx="15" cy="20" r="0.5" class="node" data-node="outn" />
    </g>
    
    <g id="QM" 
       data-prefix="Q" 
       data-nodes="C B E S"
       data-model="?" 
       data-params=""
       data-description="Small-signal BJT, requires .model definition"
       data-info="https://www.slicap.org/syntax/devices#q-4-terminal-bjt">
       
       <!-- Symbol outline -->
       <polyline points="10 -20 10 -10 0 0" stroke="black" stroke-width="1" fill="none" />
       <polyline points="10 20 10 10 0 0" stroke="black" stroke-width="1" fill="none" />
       <polyline points="10 10 10 5 5 5 5 10 10 10" stroke="black" stroke-width="0" fill="black" />
       <line x1="0" y1="-12" x2="0" y2="12" stroke="black" stroke-width="2"/>
       <line x1="-10" y1="0" x2="0" y2="0" stroke="black" stroke-width="1"/>
       <line x1="10" y1="0" x2="20" y2="0" stroke="black" stroke-width="1"/>
       
       <!-- Pins -->
       <circle cx="10" cy="-20" r="0.5" class="node" data-node="C" />
       <circle cx="-10" cy="0" r="0.5" class="node" data-node="B" />
       <circle cx="10" cy="20" r="0.5" class="node" data-node="E" />
       <circle cx="20" cy="0" r="0.5" class="node" data-node="S" />
    </g>
    
    <g id="QV" 
       data-prefix="Q" 
       data-nodes="C B E S"
       data-model="QV" 
       data-params="gm go gbc gpi rb cpi cbc cbx"
       data-description="Small-signal model BJT"
       data-info="https://www.slicap.org/syntax/devices#parameters-model-qv">
       
       <!-- Symbol outline -->
       <polyline points="10 -20 10 -10 0 0" stroke="black" stroke-width="1" fill="none" />
       <polyline points="10 20 10 10 0 0" stroke="black" stroke-width="1" fill="none" />
       <polyline points="10 10 10 5 5 5 5 10 10 10" stroke="black" stroke-width="0" fill="black" />
       <line x1="0" y1="-12" x2="0" y2="12" stroke="black" stroke-width="2"/>
       <line x1="-10" y1="0" x2="0" y2="0" stroke="black" stroke-width="1"/>
       <line x1="10" y1="0" x2="20" y2="0" stroke="black" stroke-width="1"/>
       
       <!-- Pins -->
       <circle cx="10" cy="-20" r="0.5" class="node" data-node="C" />
       <circle cx="-10" cy="0" r="0.5" class="node" data-node="B" />
       <circle cx="10" cy="20" r="0.5" class="node" data-node="E" />
       <circle cx="20" cy="0" r="0.5" class="node" data-node="S" />
    </g>
    
    <g id="QL" 
       data-prefix="Q" 
       data-nodes="C B E S"
       data-model="QL" 
       data-params="gm go gbc gpi rb cpi cbc cbx"
       data-description="Small-signal model lateral BJT"
       data-info="https://www.slicap.org/syntax/devices#model-ql">
       
       <!-- Symbol outline -->
       <polyline points="10 -20 10 -10 0 0" stroke="black" stroke-width="1" fill="none" />
       <polyline points="10 20 10 10 0 0" stroke="black" stroke-width="1" fill="none" />
       <polyline points="10 10 10 5 5 5 5 10 10 10" stroke="black" stroke-width="0" fill="black" />
       <line x1="0" y1="-12" x2="0" y2="12" stroke="black" stroke-width="2"/>
       <line x1="-10" y1="0" x2="0" y2="0" stroke="black" stroke-width="1"/>
       <line x1="10" y1="0" x2="20" y2="0" stroke="black" stroke-width="1"/>
       
       <!-- Pins -->
       <circle cx="10" cy="-20" r="0.5" class="node" data-node="C" />
       <circle cx="-10" cy="0" r="0.5" class="node" data-node="B" />
       <circle cx="10" cy="20" r="0.5" class="node" data-node="E" />
       <circle cx="20" cy="0" r="0.5" class="node" data-node="S" />
    </g>
    
    <g id="QD" 
       data-prefix="Q" 
       data-nodes="C1 C2 B1 B2"
       data-model="QD" 
       data-params="gm gcc gbc gbb rb cbb cbc cbx"
       data-description="Small-signal differential pair BJT model"
       data-info="https://www.slicap.org/syntax/devices#model-qd">
       
       <!-- Symbol outline -->
       <polyline points="-10 -20 -10 -10 -20 0" stroke="black" stroke-width="1" fill="none" />
       <polyline points="-10 10 -10 5 -15 5 -15 10 -10 10" stroke="black" stroke-width="0" fill="black" />
       <line x1="-20" y1="-12" x2="-20" y2="12" stroke="black" stroke-width="2"/>
       <line x1="-30" y1="0" x2="-20" y2="0" stroke="black" stroke-width="1"/>
       
       <polyline points="-20 0 -10 10 -10 20 10 20 10 10 20 0" stroke="black" stroke-width="1" fill="none" />
       <polyline points="10 -20 10 -10 20 0" stroke="black" stroke-width="1" fill="none" />
       <polyline points="10 10 10 5 15 5 15 10 10 10" stroke="black" stroke-width="0" fill="black" />
       <line x1="20" y1="-12" x2="20" y2="12" stroke="black" stroke-width="2"/>
       <line x1="30" y1="0" x2="20" y2="0" stroke="black" stroke-width="1"/>
       
       <!-- Pins -->
       <circle cx="-10" cy="-20" r="0.5" class="node" data-node="C1" />
       <circle cx="-30" cy="0" r="0.5" class="node" data-node="B1" />
       <circle cx="10" cy="-20" r="0.5" class="node" data-node="C2" />
       <circle cx="30" cy="0" r="0.5" class="node" data-node="B2" />
    </g>
    
    <g id="QDM" 
       data-prefix="Q" 
       data-nodes="C1 C2 B1 B2"
       data-model="?" 
       data-params=""
       data-description="Small-signal differential pair BJT model, requires .model definition"
       data-info="https://www.slicap.org/syntax/devices#model-qd">
       
       <!-- Symbol outline -->
       <polyline points="-10 -20 -10 -10 -20 0" stroke="black" stroke-width="1" fill="none" />
       <polyline points="-10 10 -10 5 -15 5 -15 10 -10 10" stroke="black" stroke-width="0" fill="black" />
       <line x1="-20" y1="-12" x2="-20" y2="12" stroke="black" stroke-width="2"/>
       <line x1="-30" y1="0" x2="-20" y2="0" stroke="black" stroke-width="1"/>
       
       <polyline points="-20 0 -10 10 -10 20 10 20 10 10 20 0" stroke="black" stroke-width="1" fill="none" />
       <polyline points="10 -20 10 -10 20 0" stroke="black" stroke-width="1" fill="none" />
       <polyline points="10 10 10 5 15 5 15 10 10 10" stroke="black" stroke-width="0" fill="black" />
       <line x1="20" y1="-12" x2="20" y2="12" stroke="black" stroke-width="2"/>
       <line x1="30" y1="0" x2="20" y2="0" stroke="black" stroke-width="1"/>
       
       <!-- Pins -->
       <circle cx="-10" cy="-20" r="0.5" class="node" data-node="C1" />
       <circle cx="-30" cy="0" r="0.5" class="node" data-node="B1" />
       <circle cx="10" cy="-20" r="0.5" class="node" data-node="C2" />
       <circle cx="30" cy="0" r="0.5" class="node" data-node="B2" />
    </g>
    
    <g id="XQD" 
       data-prefix="X" 
       data-nodes="C1 C2 B1 B2"
       data-model="?" 
       data-params="IC VCE"
       data-description="Small-signal differential pair BJT subcircuit with parameters IC, VCE"
       data-info="">
       
       <!-- Symbol outline -->
       <polyline points="-10 -20 -10 -10 -20 0" stroke="black" stroke-width="1" fill="none" />
       <polyline points="-10 10 -10 5 -15 5 -15 10 -10 10" stroke="black" stroke-width="0" fill="black" />
       <line x1="-20" y1="-12" x2="-20" y2="12" stroke="black" stroke-width="2"/>
       <line x1="-30" y1="0" x2="-20" y2="0" stroke="black" stroke-width="1"/>
       
       <polyline points="-20 0 -10 10 -10 20 10 20 10 10 20 0" stroke="black" stroke-width="1" fill="none" />
       <polyline points="10 -20 10 -10 20 0" stroke="black" stroke-width="1" fill="none" />
       <polyline points="10 10 10 5 15 5 15 10 10 10" stroke="black" stroke-width="0" fill="black" />
       <line x1="20" y1="-12" x2="20" y2="12" stroke="black" stroke-width="2"/>
       <line x1="30" y1="0" x2="20" y2="0" stroke="black" stroke-width="1"/>
       
       <!-- Pins -->
       <circle cx="-10" cy="-20" r="0.5" class="node" data-node="C1" />
       <circle cx="-30" cy="0" r="0.5" class="node" data-node="B1" />
       <circle cx="10" cy="-20" r="0.5" class="node" data-node="C2" />
       <circle cx="30" cy="0" r="0.5" class="node" data-node="B2" />
    </g>
    
    <g id="XQ" 
       data-prefix="X" 
       data-nodes="C B E S"
       data-model="?" 
       data-params="IC VCE"
       data-description="Small-signal BJT subcircuit with parameters IC, VCE"
       data-info="">
       
       <!-- Symbol outline -->
       <polyline points="10 -20 10 -10 0 0" stroke="black" stroke-width="1" fill="none" />
       <polyline points="10 20 10 10 0 0" stroke="black" stroke-width="1" fill="none" />
       <polyline points="10 10 10 5 5 5 5 10 10 10" stroke="black" stroke-width="0" fill="black" />
       <line x1="0" y1="-12" x2="0" y2="12" stroke="black" stroke-width="2"/>
       <line x1="-10" y1="0" x2="0" y2="0" stroke="black" stroke-width="1"/>
       <line x1="10" y1="0" x2="20" y2="0" stroke="black" stroke-width="1"/>
       
       <!-- Pins -->
       <circle cx="10" cy="-20" r="0.5" class="node" data-node="C" />
       <circle cx="-10" cy="0" r="0.5" class="node" data-node="B" />
       <circle cx="10" cy="20" r="0.5" class="node" data-node="E" />
       <circle cx="20" cy="0" r="0.5" class="node" data-node="S" />
    </g>
    
</defs>
</svg>
